<?xml version="1.0" encoding="utf-8"?>
<!-- Generator: Adobe Illustrator 22.1.0, SVG Export Plug-In . SVG Version: 6.00 Build 0)  -->
<svg version="1.1" id="Layer_1" xmlns="http://www.w3.org/2000/svg" xmlns:xlink="http://www.w3.org/1999/xlink" x="0px" y="0px"
	 viewBox="0 0 100 100" style="enable-background:new 0 0 100 100;" xml:space="preserve">
<style type="text/css">
	.st0{display:none;}
	.st1{display:inline;}
	.st2{fill:url(#SVGID_1_);}
	.st3{opacity:0.7;}
	.st4{fill:url(#SVGID_2_);}
	.st5{fill:#838587;}
	.st6{fill:url(#SVGID_3_);}
	.st7{fill:url(#SVGID_4_);}
	.st8{opacity:0.8;}
	.st9{fill:#8C9CAB;}
	.st10{fill:#FFFFFF;}
	.st11{display:inline;opacity:0.7;}
	.st12{fill:url(#SVGID_5_);}
	.st13{display:inline;fill:url(#SVGID_6_);}
	.st14{display:inline;opacity:0.8;}
	.st15{display:inline;opacity:0.8;fill:#76A6CC;enable-background:new    ;}
	.st16{display:inline;opacity:0.8;fill:#5B85A6;enable-background:new    ;}
	.st17{display:inline;fill:#FFFFFF;}
	.st18{fill:#606061;}
	.st19{fill:#0F5899;}
	.st20{fill:url(#SVGID_7_);}
	.st21{fill:#414042;}
	.st22{fill:none;}
	.st23{opacity:0.5;}
	.st24{opacity:0.4;}
</style>
<g id="info" class="st0">
	<g class="st1">
		
			<linearGradient id="SVGID_1_" gradientUnits="userSpaceOnUse" x1="50" y1="101.5778" x2="50" y2="3.2701" gradientTransform="matrix(1 0 0 -1 0 102)">
			<stop  offset="0" style="stop-color:#E5E6E7"/>
			<stop  offset="0" style="stop-color:#D6D8D9"/>
			<stop  offset="0" style="stop-color:#D0D2D3"/>
			<stop  offset="6.625609e-02" style="stop-color:#ECEDED"/>
			<stop  offset="0.1067" style="stop-color:#FFFFFF"/>
			<stop  offset="0.13" style="stop-color:#F5F6F6"/>
			<stop  offset="0.1693" style="stop-color:#DBDCDD"/>
			<stop  offset="0.2193" style="stop-color:#B1B3B4"/>
			<stop  offset="0.2472" style="stop-color:#96999B"/>
			<stop  offset="0.2718" style="stop-color:#999B9D"/>
			<stop  offset="0.2866" style="stop-color:#A1A4A6"/>
			<stop  offset="0.2987" style="stop-color:#AFB2B3"/>
			<stop  offset="0.3095" style="stop-color:#C3C6C7"/>
			<stop  offset="0.3146" style="stop-color:#D0D2D3"/>
			<stop  offset="0.3576" style="stop-color:#C6C8CA"/>
			<stop  offset="0.4299" style="stop-color:#ADAEB0"/>
			<stop  offset="0.5223" style="stop-color:#838487"/>
			<stop  offset="0.5277" style="stop-color:#808184"/>
			<stop  offset="0.5351" style="stop-color:#88898C"/>
			<stop  offset="0.5769" style="stop-color:#B0B1B3"/>
			<stop  offset="0.618" style="stop-color:#D0D0D1"/>
			<stop  offset="0.6576" style="stop-color:#E7E7E7"/>
			<stop  offset="0.6951" style="stop-color:#F4F4F4"/>
			<stop  offset="0.7282" style="stop-color:#F9F9F9"/>
			<stop  offset="0.7601" style="stop-color:#FBFBFB"/>
			<stop  offset="0.882" style="stop-color:#FFFFFF"/>
			<stop  offset="0.8978" style="stop-color:#E9EAEB"/>
			<stop  offset="0.9218" style="stop-color:#CFD1D2"/>
			<stop  offset="0.9466" style="stop-color:#BDBEC1"/>
			<stop  offset="0.9722" style="stop-color:#B2B4B6"/>
			<stop  offset="1" style="stop-color:#AEB0B3"/>
		</linearGradient>
		<path class="st2" d="M0.3,50C0.3,22.6,22.6,0.3,50,0.3l0,0c27.4,0,49.7,22.2,49.7,49.7l0,0c0,27.5-22.2,49.7-49.7,49.7l0,0
			C22.6,99.7,0.3,77.5,0.3,50L0.3,50z M24.1,24.1C17.4,30.7,13.3,39.9,13.3,50l0,0c0,10.1,4.1,19.3,10.7,25.9l0,0
			c6.6,6.6,15.8,10.7,25.9,10.7l0,0c10.1,0,19.3-4.1,25.9-10.7l0,0c6.6-6.6,10.7-15.8,10.7-25.9l0,0c0-10.1-4.1-19.3-10.7-25.9l0,0
			C69.3,17.4,60.1,13.3,50,13.3l0,0C39.9,13.3,30.7,17.4,24.1,24.1L24.1,24.1z"/>
		<g class="st3">
		</g>
		<g>
			
				<linearGradient id="SVGID_2_" gradientUnits="userSpaceOnUse" x1="2.8221" y1="52" x2="89.1058" y2="52" gradientTransform="matrix(1 0 0 -1 0 102)">
				<stop  offset="0" style="stop-color:#231F20"/>
				<stop  offset="3.444310e-02" style="stop-color:#3D3B3C"/>
				<stop  offset="8.241760e-02" style="stop-color:#666769"/>
				<stop  offset="0.108" style="stop-color:#828385"/>
				<stop  offset="0.1629" style="stop-color:#C9CACC"/>
				<stop  offset="0.1703" style="stop-color:#D3D4D6"/>
				<stop  offset="0.2147" style="stop-color:#DEDFE1"/>
				<stop  offset="0.3081" style="stop-color:#F1F1F2"/>
				<stop  offset="0.4063" style="stop-color:#FBFCFC"/>
				<stop  offset="0.5165" style="stop-color:#FFFFFF"/>
				<stop  offset="0.6418" style="stop-color:#FCFCFD"/>
				<stop  offset="0.7189" style="stop-color:#F4F4F5"/>
				<stop  offset="0.7827" style="stop-color:#E6E6E7"/>
				<stop  offset="0.8352" style="stop-color:#D3D4D6"/>
				<stop  offset="0.8607" style="stop-color:#B7B8BA"/>
				<stop  offset="0.9157" style="stop-color:#707173"/>
				<stop  offset="0.9231" style="stop-color:#666769"/>
				<stop  offset="0.9552" style="stop-color:#4C4B4D"/>
				<stop  offset="1" style="stop-color:#231F20"/>
			</linearGradient>
			<path class="st4" d="M50,0C22.4,0,0,22.4,0,50s22.4,50,50,50s50-22.4,50-50S77.6,0,50,0z M50,99.4C22.7,99.4,0.6,77.3,0.6,50
				S22.7,0.6,50,0.6S99.4,22.7,99.4,50S77.3,99.4,50,99.4z"/>
		</g>
		<g>
			<path class="st5" d="M50,0C22.4,0,0,22.4,0,50s22.4,50,50,50s50-22.4,50-50S77.6,0,50,0z M50,99.4C22.7,99.4,0.6,77.3,0.6,50
				S22.7,0.6,50,0.6S99.4,22.7,99.4,50S77.3,99.4,50,99.4z"/>
		</g>
		<g>
			
				<linearGradient id="SVGID_3_" gradientUnits="userSpaceOnUse" x1="50" y1="86.6475" x2="50" y2="16.231" gradientTransform="matrix(1 0 0 -1 0 102)">
				<stop  offset="0" style="stop-color:#231F20"/>
				<stop  offset="3.444310e-02" style="stop-color:#3D3B3C"/>
				<stop  offset="8.241760e-02" style="stop-color:#666769"/>
				<stop  offset="0.108" style="stop-color:#828385"/>
				<stop  offset="0.1629" style="stop-color:#C9CACC"/>
				<stop  offset="0.1703" style="stop-color:#D3D4D6"/>
				<stop  offset="0.2147" style="stop-color:#DEDFE1"/>
				<stop  offset="0.3081" style="stop-color:#F1F1F2"/>
				<stop  offset="0.4063" style="stop-color:#FBFCFC"/>
				<stop  offset="0.5165" style="stop-color:#FFFFFF"/>
				<stop  offset="0.6418" style="stop-color:#FCFCFD"/>
				<stop  offset="0.7189" style="stop-color:#F4F4F5"/>
				<stop  offset="0.7827" style="stop-color:#E6E6E7"/>
				<stop  offset="0.8352" style="stop-color:#D3D4D6"/>
				<stop  offset="0.8607" style="stop-color:#B7B8BA"/>
				<stop  offset="0.9157" style="stop-color:#707173"/>
				<stop  offset="0.9231" style="stop-color:#666769"/>
				<stop  offset="0.9552" style="stop-color:#4C4B4D"/>
				<stop  offset="1" style="stop-color:#231F20"/>
			</linearGradient>
			<path class="st6" d="M76.1,23.9C69.4,17.2,60.2,13.1,50,13.1s-19.4,4.1-26.1,10.8S13.1,39.8,13.1,50s4.1,19.4,10.8,26.1
				S39.8,86.9,50,86.9s19.4-4.1,26.1-10.8c6.7-6.7,10.8-15.9,10.8-26.1S82.8,30.6,76.1,23.9z M75.8,75.8
				C69.2,82.4,60.1,86.4,50,86.4s-19.2-4.1-25.8-10.7C17.6,69.2,13.6,60.1,13.6,50s4.1-19.2,10.7-25.8l0,0
				c6.6-6.6,15.7-10.7,25.8-10.7s19.2,4.1,25.8,10.7c6.6,6.6,10.7,15.7,10.7,25.8C86.4,60.1,82.4,69.2,75.8,75.8z"/>
		</g>
		
			<radialGradient id="SVGID_4_" cx="51.3207" cy="102.3732" r="78.9897" gradientTransform="matrix(1 0 0 -1 0 102)" gradientUnits="userSpaceOnUse">
			<stop  offset="4.014328e-04" style="stop-color:#FAFDFF"/>
			<stop  offset="2.175036e-02" style="stop-color:#F4FAFD"/>
			<stop  offset="0.3905" style="stop-color:#91C7E4"/>
			<stop  offset="0.5826" style="stop-color:#59B3E4"/>
			<stop  offset="0.9971" style="stop-color:#203D80"/>
		</radialGradient>
		<circle class="st7" cx="50" cy="46.5" r="42.7"/>
		<g class="st8">
		</g>
		<g>
			<circle class="st9" cx="50" cy="22.5" r="7.5"/>
			<path class="st9" d="M50,78.1L50,78.1c-4.1,0-7.5-3.4-7.5-7.5V43c0-4.1,3.4-7.5,7.5-7.5l0,0c4.1,0,7.5,3.4,7.5,7.5v27.6
				C57.5,74.7,54.1,78.1,50,78.1z"/>
			<circle class="st10" cx="50" cy="20.9" r="7.5"/>
			<path class="st10" d="M50,76.5L50,76.5c-4.1,0-7.5-3.4-7.5-7.5V41.4c0-4.1,3.4-7.5,7.5-7.5l0,0c4.1,0,7.5,3.4,7.5,7.5V69
				C57.5,73.1,54.1,76.5,50,76.5z"/>
		</g>
	</g>
</g>
<g id="info_2" class="st0">
	<g class="st11">
	</g>
	<g class="st1">
		
			<linearGradient id="SVGID_5_" gradientUnits="userSpaceOnUse" x1="50" y1="86.6475" x2="50" y2="16.231" gradientTransform="matrix(1 0 0 -1 0 102)">
			<stop  offset="0" style="stop-color:#231F20"/>
			<stop  offset="3.444310e-02" style="stop-color:#3D3B3C"/>
			<stop  offset="8.241760e-02" style="stop-color:#666769"/>
			<stop  offset="0.108" style="stop-color:#828385"/>
			<stop  offset="0.1629" style="stop-color:#C9CACC"/>
			<stop  offset="0.1703" style="stop-color:#D3D4D6"/>
			<stop  offset="0.2147" style="stop-color:#DEDFE1"/>
			<stop  offset="0.3081" style="stop-color:#F1F1F2"/>
			<stop  offset="0.4063" style="stop-color:#FBFCFC"/>
			<stop  offset="0.5165" style="stop-color:#FFFFFF"/>
			<stop  offset="0.6418" style="stop-color:#FCFCFD"/>
			<stop  offset="0.7189" style="stop-color:#F4F4F5"/>
			<stop  offset="0.7827" style="stop-color:#E6E6E7"/>
			<stop  offset="0.8352" style="stop-color:#D3D4D6"/>
			<stop  offset="0.8607" style="stop-color:#B7B8BA"/>
			<stop  offset="0.9157" style="stop-color:#707173"/>
			<stop  offset="0.9231" style="stop-color:#666769"/>
			<stop  offset="0.9552" style="stop-color:#4C4B4D"/>
			<stop  offset="1" style="stop-color:#231F20"/>
		</linearGradient>
		<path class="st12" d="M76.1,23.9C69.4,17.2,60.2,13.1,50,13.1s-19.4,4.1-26.1,10.8S13.1,39.8,13.1,50s4.1,19.4,10.8,26.1
			S39.8,86.9,50,86.9s19.4-4.1,26.1-10.8c6.7-6.7,10.8-15.9,10.8-26.1S82.8,30.6,76.1,23.9z M75.8,75.8C69.2,82.4,60.1,86.4,50,86.4
			s-19.2-4.1-25.8-10.7C17.6,69.2,13.6,60.1,13.6,50s4.1-19.2,10.7-25.8l0,0c6.6-6.6,15.7-10.7,25.8-10.7s19.2,4.1,25.8,10.7
			c6.6,6.6,10.7,15.7,10.7,25.8C86.4,60.1,82.4,69.2,75.8,75.8z"/>
	</g>
	
		<radialGradient id="SVGID_6_" cx="51.3207" cy="102.3732" r="78.9897" gradientTransform="matrix(1 0 0 -1 0 102)" gradientUnits="userSpaceOnUse">
		<stop  offset="4.014328e-04" style="stop-color:#FAFDFF"/>
		<stop  offset="2.175036e-02" style="stop-color:#F4FAFD"/>
		<stop  offset="0.3905" style="stop-color:#91C7E4"/>
		<stop  offset="0.5826" style="stop-color:#59B3E4"/>
		<stop  offset="0.9971" style="stop-color:#203D80"/>
	</radialGradient>
	<circle class="st13" cx="50" cy="46.5" r="42.7"/>
	<g class="st14">
	</g>
	<circle class="st15" cx="50" cy="22.5" r="7.5"/>
	<path class="st16" d="M50,78.1L50,78.1c-4.1,0-7.5-3.4-7.5-7.5V43c0-4.1,3.4-7.5,7.5-7.5l0,0c4.1,0,7.5,3.4,7.5,7.5v27.6
		C57.5,74.7,54.1,78.1,50,78.1z"/>
	<circle class="st17" cx="50" cy="20.9" r="7.5"/>
	<path class="st17" d="M50,76.5L50,76.5c-4.1,0-7.5-3.4-7.5-7.5V41.4c0-4.1,3.4-7.5,7.5-7.5l0,0c4.1,0,7.5,3.4,7.5,7.5V69
		C57.5,73.1,54.1,76.5,50,76.5z"/>
</g>
<g id="question" class="st0">
	<g class="st1">
		<path class="st10" d="M98.6,42.1c0,15.4-14,28.4-33.3,32.8l12.7,17L44,76.4C20.5,74.1,2.3,59.6,2.3,42.1C2.3,23,23.8,7.6,50.4,7.6
			S98.6,23.1,98.6,42.1z"/>
		<path class="st18" d="M78,93.8c-0.3,0-0.5-0.1-0.8-0.2L43.5,78.2C18.9,75.7,0.4,60.3,0.4,42.1c0-20.1,22.4-36.4,50-36.4
			s50,16.3,50,36.4c0,15.2-12.7,28.6-32,34l11,14.6c0.5,0.7,0.5,1.6,0,2.3C79.1,93.5,78.6,93.8,78,93.8z M50.4,9.5
			C24.9,9.5,4.2,24.2,4.2,42.1c0,16.3,17.2,30.1,40,32.3c0.2,0,0.4,0.1,0.6,0.2L72,87.1l-8.3-11c-0.4-0.5-0.5-1.2-0.3-1.8
			s0.7-1,1.3-1.2c19-4.4,31.8-16.9,31.8-31C96.7,24.2,75.9,9.5,50.4,9.5z"/>
		<ellipse class="st19" cx="48.6" cy="64.1" rx="7.7" ry="6.7"/>
		<path class="st19" d="M39.1,35.2c-4.2-1.4-5.2-13.2,4.6-17.3c11.2-4.7,23.4,1.4,22.8,11.4C65.9,40.8,58.7,40.1,52.3,46
			c-3.7,3.5,0.1,9.3-3,9.7c-2.5,0.3-6.6-5-5.4-9.9c2-8.2,9.6-8.3,10-13.2c0.4-5.3-3.2-8.1-8-6.3C40.7,28.3,41.9,36.2,39.1,35.2z"/>
	</g>
</g>
<radialGradient id="SVGID_7_" cx="49.1161" cy="64.9517" r="79.5477" gradientTransform="matrix(1 0 0 -1 0 102)" gradientUnits="userSpaceOnUse">
	<stop  offset="0" style="stop-color:#FFFA7A"/>
	<stop  offset="5.432655e-02" style="stop-color:#FEFB70"/>
	<stop  offset="0.2032" style="stop-color:#FCFD59"/>
	<stop  offset="0.3447" style="stop-color:#FBFF4C"/>
	<stop  offset="0.4698" style="stop-color:#FBFF47"/>
	<stop  offset="0.9525" style="stop-color:#FBD647"/>
	<stop  offset="1" style="stop-color:#FBD247"/>
</radialGradient>
<path class="st20" d="M8.5,89.9c-2.4,0-4.6-1.3-5.8-3.4S1.6,81.9,3,79.8L46.8,12c0.7-1.1,1.9-1.8,3.2-1.8s2.5,0.6,3.2,1.8L97,79.8
	c1.3,2,1.4,4.5,0.3,6.7c-1.2,2.1-3.3,3.4-5.8,3.4H8.5z"/>
<path class="st21" d="M50,12c0.3,0,1.1,0.1,1.7,0.9l43.8,67.8c0.9,1.5,1,3.2,0.2,4.8c-0.8,1.5-2.4,2.4-4.1,2.4H8.5
	c-1.7,0-3.3-0.9-4.1-2.4s-0.8-3.3,0.2-4.8l43.8-67.8C48.9,12.1,49.7,12,50,12 M50,8.3c-1.8,0-3.7,0.9-4.8,2.6L1.4,78.7
	c-3.6,5.6,0.4,13,7.1,13h83.1c6.7,0,10.7-7.4,7.1-13L54.8,10.9C53.7,9.1,51.8,8.3,50,8.3L50,8.3z"/>
<path d="M48.3,64.5c-0.4-3.8-0.8-5.9-1.1-8.6c-0.3-2.8-0.7-5.1-1-7.1s-0.7-3.6-1-4.9c-0.3-1.3-0.5-2.4-0.7-3.4
	c-0.2-0.9-0.4-1.7-0.5-2.4s-0.2-1.4-0.2-2.1c0-1.9,0.6-3.3,1.9-4.2c1.3-0.9,2.7-1.4,4.4-1.4c1.6,0,3,0.5,4.3,1.4
	c1.3,0.9,1.9,2.3,1.9,4.2c0,0.7-0.1,1.5-0.2,2.2c-0.1,0.7-0.3,1.6-0.5,2.5c-0.2,1-0.5,2.1-0.8,3.5s-0.6,3-1,5s-0.8,4.3-1.2,7
	s-0.9,4.7-1.3,8.4L48.3,64.5L48.3,64.5z"/>
<path d="M50.2,81.8c-4.3,0-6.5-2-6.5-6.1s2.2-6.1,6.5-6.1c4.1,0,6.1,2,6.1,6.1S54.3,81.8,50.2,81.8z"/>
<path class="st22" d="M16,63L4.5,80.8c-0.9,1.5-1,3.2-0.2,4.8C5.2,87.1,6.7,88,8.5,88h83.1c1.7,0,3.3-0.9,4.1-2.4
	c0.8-1.5,0.8-3.3-0.2-4.8L75.1,49.3C69,49.5,61,50.4,50.4,52.2C36.8,54.5,25.3,58.6,16,63z"/>
<path class="st21" d="M46.7,9.3c-0.4,0.3-0.8,0.6-1.1,1C46,9.9,46.3,9.6,46.7,9.3z"/>
<g class="st23">
	<path class="st10" d="M53.8,9.7c0.4,0.3,0.7,0.7,1,1.1C54.5,10.5,54.2,10.1,53.8,9.7z"/>
</g>
<g class="st24">
	<path class="st10" d="M50,12c-0.3,0-1.1,0.1-1.7,0.9L16,63c9.3-4.5,20.8-8.5,34.4-10.9c10.6-1.8,18.7-2.6,24.7-2.9L51.7,12.9
		C51.1,12.1,50.3,12,50,12z"/>
</g>
</svg>
