<?xml version="1.0" encoding="utf-8"?>
<!-- Generator: Adobe Illustrator 22.1.0, SVG Export Plug-In . SVG Version: 6.00 Build 0)  -->
<svg version="1.1" xmlns="http://www.w3.org/2000/svg" xmlns:xlink="http://www.w3.org/1999/xlink" x="0px" y="0px"
	 viewBox="0 0 100 100" style="enable-background:new 0 0 100 100;" xml:space="preserve">
<style type="text/css">
	.st0{display:none;}
	.st1{display:inline;}
	.st2{fill:url(#SVGID_1_);}
	.st3{opacity:0.7;}
	.st4{fill:url(#SVGID_2_);}
	.st5{fill:#838587;}
	.st6{fill:url(#SVGID_3_);}
	.st7{fill:url(#SVGID_4_);}
	.st8{opacity:0.8;}
	.st9{fill:#8C9CAB;}
	.st10{fill:#FFFFFF;}
	.st11{display:inline;opacity:0.7;}
	.st12{fill:url(#SVGID_5_);}
	.st13{display:inline;fill:url(#SVGID_6_);}
	.st14{display:inline;opacity:0.8;}
	.st15{display:inline;opacity:0.8;fill:#76A6CC;}
	.st16{display:inline;opacity:0.8;fill:#5B85A6;}
	.st17{display:inline;fill:#FFFFFF;}
	.st18{fill:#FEFEFE;}
	.st19{fill:#FDFDFD;}
	.st20{fill:#FCFCFC;}
	.st21{fill:#FBFBFB;}
	.st22{fill:#FAFAFA;}
	.st23{fill:#F9F9F9;}
	.st24{fill:#F8F8F8;}
	.st25{fill:#F7F7F7;}
	.st26{fill:#F6F6F6;}
	.st27{fill:#F5F5F5;}
	.st28{fill:#F4F4F4;}
	.st29{fill:#F3F3F3;}
	.st30{fill:#F2F2F3;}
	.st31{fill:#F1F1F2;}
	.st32{fill:#F0F0F1;}
	.st33{fill:#EFEFF0;}
	.st34{fill:#EEEEEF;}
	.st35{fill:#EDEDEE;}
	.st36{fill:#ECECED;}
	.st37{fill:#EBEBEC;}
	.st38{fill:#EAEBEB;}
	.st39{fill:#E9EAEA;}
	.st40{fill:#E8E9E9;}
	.st41{fill:#E7E8E8;}
	.st42{fill:#E6E7E7;}
	.st43{fill:#E5E6E6;}
	.st44{fill:#E4E5E5;}
	.st45{fill:#E3E4E4;}
	.st46{fill:#E2E3E3;}
	.st47{fill:#E1E2E2;}
	.st48{fill:#E0E1E1;}
	.st49{fill:#DFE0E0;}
	.st50{fill:#DEDFDF;}
	.st51{fill:#DDDEDE;}
	.st52{fill:#DCDDDD;}
	.st53{fill:#DBDCDC;}
	.st54{fill:#DADBDB;}
	.st55{fill:#D9DADB;}
	.st56{fill:#D8D9DA;}
	.st57{fill:#D7D8D9;}
	.st58{fill:#D6D7D8;}
	.st59{fill:#D5D6D7;}
	.st60{fill:#D4D5D6;}
	.st61{fill:#D3D4D5;}
	.st62{fill:#D2D3D4;}
	.st63{fill:#D1D2D3;}
	.st64{fill:#D0D1D2;}
	.st65{fill:#CFD0D1;}
	.st66{fill:#CECFD0;}
	.st67{fill:#CDCECF;}
	.st68{fill:#CCCDCE;}
	.st69{fill:#CBCCCD;}
	.st70{fill:#CACBCC;}
	.st71{fill:#C9CACB;}
	.st72{fill:#C8C9CA;}
	.st73{fill:#C7C8C9;}
	.st74{fill:#C6C7C8;}
	.st75{fill:#C5C6C7;}
	.st76{fill:#C4C5C6;}
	.st77{fill:#C3C4C5;}
	.st78{fill:#C2C3C4;}
	.st79{fill:#C1C2C3;}
	.st80{fill:#C0C1C2;}
	.st81{fill:#BFC0C1;}
	.st82{fill:#BEBFC0;}
	.st83{fill:#BDBEBF;}
	.st84{fill:#BCBDBE;}
	.st85{fill:#BBBCBD;}
	.st86{fill:#BABBBC;}
	.st87{fill:#B9BABB;}
	.st88{fill:#B8B9BA;}
	.st89{fill:#B7B8B9;}
	.st90{fill:#B6B7B8;}
	.st91{fill:#B5B6B7;}
	.st92{fill:#B4B5B6;}
	.st93{fill:#B3B4B5;}
	.st94{fill:#B2B3B4;}
	.st95{fill:#B1B2B3;}
	.st96{fill:#B0B1B2;}
	.st97{fill:#AFB0B1;}
	.st98{fill:#AEAFB0;}
	.st99{fill:#ADAEAF;}
	.st100{fill:#ACADAE;}
	.st101{fill:#ABACAD;}
	.st102{fill:#AAABAC;}
	.st103{fill:#A9AAAB;}
	.st104{fill:#A8A9AB;}
	.st105{fill:#A7A8AA;}
	.st106{fill:#A6A7A9;}
	.st107{fill:#A5A6A8;}
	.st108{fill:#A4A5A7;}
	.st109{fill:#A3A4A6;}
	.st110{fill:#A2A3A5;}
	.st111{fill:#A1A2A4;}
	.st112{fill:#A0A1A3;}
	.st113{fill:#9FA0A2;}
	.st114{fill:#9E9FA1;}
	.st115{fill:#9D9EA0;}
	.st116{fill:#9C9D9F;}
	.st117{fill:#9B9C9E;}
	.st118{fill:#9A9B9D;}
	.st119{fill:#999A9C;}
	.st120{fill:#98999B;}
	.st121{fill:#97999A;}
	.st122{fill:#969899;}
	.st123{fill:#959798;}
	.st124{fill:#949697;}
	.st125{fill:#939596;}
	.st126{fill:#929495;}
	.st127{fill:#919394;}
	.st128{fill:#909293;}
	.st129{fill:#8F9193;}
	.st130{fill:#8E9092;}
	.st131{fill:#8D8F91;}
	.st132{fill:#8C8E90;}
	.st133{fill:#8B8D8F;}
	.st134{fill:#8A8C8E;}
	.st135{fill:#898B8D;}
	.st136{fill:#888A8C;}
	.st137{fill:#87898B;}
	.st138{fill:#86888A;}
	.st139{fill:#858789;}
	.st140{fill:#848688;}
	.st141{fill:url(#SVGID_7_);}
	.st142{display:inline;fill:url(#SVGID_8_);}
	.st143{display:inline;fill:url(#SVGID_9_);}
	.st144{display:inline;fill:#4882B0;}
	.st145{display:inline;fill:#0A3E75;}
	.st146{fill:#606061;}
	.st147{fill:#0F5899;}
	.st148{fill:url(#SVGID_10_);}
	.st149{fill:#414042;}
	.st150{fill:none;}
	.st151{opacity:0.5;}
</style>
<g id="info" class="st0">
	<g class="st1">
		<linearGradient id="SVGID_1_" gradientUnits="userSpaceOnUse" x1="50.0003" y1="0.4222" x2="50.0003" y2="98.7299">
			<stop  offset="0" style="stop-color:#E5E6E7"/>
			<stop  offset="0" style="stop-color:#D6D8D9"/>
			<stop  offset="0" style="stop-color:#D0D2D3"/>
			<stop  offset="6.625609e-02" style="stop-color:#ECEDED"/>
			<stop  offset="0.1067" style="stop-color:#FFFFFF"/>
			<stop  offset="0.13" style="stop-color:#F5F6F6"/>
			<stop  offset="0.1693" style="stop-color:#DBDCDD"/>
			<stop  offset="0.2193" style="stop-color:#B1B3B4"/>
			<stop  offset="0.2472" style="stop-color:#96999B"/>
			<stop  offset="0.2718" style="stop-color:#999B9D"/>
			<stop  offset="0.2866" style="stop-color:#A1A4A6"/>
			<stop  offset="0.2987" style="stop-color:#AFB2B3"/>
			<stop  offset="0.3095" style="stop-color:#C3C6C7"/>
			<stop  offset="0.3146" style="stop-color:#D0D2D3"/>
			<stop  offset="0.3576" style="stop-color:#C6C8CA"/>
			<stop  offset="0.4299" style="stop-color:#ADAEB0"/>
			<stop  offset="0.5223" style="stop-color:#838487"/>
			<stop  offset="0.5277" style="stop-color:#808184"/>
			<stop  offset="0.5351" style="stop-color:#88898C"/>
			<stop  offset="0.5769" style="stop-color:#B0B1B3"/>
			<stop  offset="0.618" style="stop-color:#D0D0D1"/>
			<stop  offset="0.6576" style="stop-color:#E7E7E7"/>
			<stop  offset="0.6951" style="stop-color:#F4F4F4"/>
			<stop  offset="0.7282" style="stop-color:#F9F9F9"/>
			<stop  offset="0.7601" style="stop-color:#FBFBFB"/>
			<stop  offset="0.882" style="stop-color:#FFFFFF"/>
			<stop  offset="0.8978" style="stop-color:#E9EAEB"/>
			<stop  offset="0.9218" style="stop-color:#CFD1D2"/>
			<stop  offset="0.9466" style="stop-color:#BDBEC1"/>
			<stop  offset="0.9722" style="stop-color:#B2B4B6"/>
			<stop  offset="1" style="stop-color:#AEB0B3"/>
		</linearGradient>
		<path class="st2" d="M0.3,50C0.3,22.6,22.6,0.3,50,0.3l0,0c27.4,0,49.7,22.2,49.7,49.7l0,0c0,27.5-22.2,49.7-49.7,49.7l0,0
			C22.6,99.7,0.3,77.5,0.3,50L0.3,50z M24.1,24.1C17.4,30.7,13.3,39.9,13.3,50l0,0c0,10.1,4.1,19.3,10.7,25.9l0,0
			c6.6,6.6,15.8,10.7,25.9,10.7l0,0c10.1,0,19.3-4.1,25.9-10.7l0,0c6.6-6.6,10.7-15.8,10.7-25.9l0,0c0-10.1-4.1-19.3-10.7-25.9l0,0
			C69.3,17.4,60.1,13.3,50,13.3l0,0C39.9,13.3,30.7,17.4,24.1,24.1L24.1,24.1z"/>
		<g class="st3">
			
				<image style="overflow:visible;" width="656" height="664" xlink:href="D7F4C06F01539649.png"  transform="matrix(0.24 0 0 0.24 -28.72 -28.72)">
			</image>
		</g>
		<g>
			<linearGradient id="SVGID_2_" gradientUnits="userSpaceOnUse" x1="2.8221" y1="50" x2="89.1058" y2="50">
				<stop  offset="0" style="stop-color:#231F20"/>
				<stop  offset="3.444310e-02" style="stop-color:#3D3B3C"/>
				<stop  offset="8.241760e-02" style="stop-color:#666769"/>
				<stop  offset="0.108" style="stop-color:#828385"/>
				<stop  offset="0.1629" style="stop-color:#C9CACC"/>
				<stop  offset="0.1703" style="stop-color:#D3D4D6"/>
				<stop  offset="0.2147" style="stop-color:#DEDFE1"/>
				<stop  offset="0.3081" style="stop-color:#F1F1F2"/>
				<stop  offset="0.4063" style="stop-color:#FBFCFC"/>
				<stop  offset="0.5165" style="stop-color:#FFFFFF"/>
				<stop  offset="0.6418" style="stop-color:#FCFCFD"/>
				<stop  offset="0.7189" style="stop-color:#F4F4F5"/>
				<stop  offset="0.7827" style="stop-color:#E6E6E7"/>
				<stop  offset="0.8352" style="stop-color:#D3D4D6"/>
				<stop  offset="0.8607" style="stop-color:#B7B8BA"/>
				<stop  offset="0.9157" style="stop-color:#707173"/>
				<stop  offset="0.9231" style="stop-color:#666769"/>
				<stop  offset="0.9552" style="stop-color:#4C4B4D"/>
				<stop  offset="1" style="stop-color:#231F20"/>
			</linearGradient>
			<path class="st4" d="M50,0C22.4,0,0,22.4,0,50c0,27.6,22.4,50,50,50c27.6,0,50-22.4,50-50C100,22.4,77.6,0,50,0z M50,99.4
				C22.7,99.4,0.6,77.3,0.6,50C0.6,22.7,22.7,0.6,50,0.6c27.3,0,49.4,22.1,49.4,49.4S77.3,99.4,50,99.4z"/>
		</g>
		<g>
			<path class="st5" d="M50,0C22.4,0,0,22.4,0,50c0,27.6,22.4,50,50,50c27.6,0,50-22.4,50-50C100,22.4,77.6,0,50,0z M50,99.4
				C22.7,99.4,0.6,77.3,0.6,50C0.6,22.7,22.7,0.6,50,0.6c27.3,0,49.4,22.1,49.4,49.4S77.3,99.4,50,99.4z"/>
		</g>
		<g>
			<linearGradient id="SVGID_3_" gradientUnits="userSpaceOnUse" x1="50" y1="15.3525" x2="50" y2="85.769">
				<stop  offset="0" style="stop-color:#231F20"/>
				<stop  offset="3.444310e-02" style="stop-color:#3D3B3C"/>
				<stop  offset="8.241760e-02" style="stop-color:#666769"/>
				<stop  offset="0.108" style="stop-color:#828385"/>
				<stop  offset="0.1629" style="stop-color:#C9CACC"/>
				<stop  offset="0.1703" style="stop-color:#D3D4D6"/>
				<stop  offset="0.2147" style="stop-color:#DEDFE1"/>
				<stop  offset="0.3081" style="stop-color:#F1F1F2"/>
				<stop  offset="0.4063" style="stop-color:#FBFCFC"/>
				<stop  offset="0.5165" style="stop-color:#FFFFFF"/>
				<stop  offset="0.6418" style="stop-color:#FCFCFD"/>
				<stop  offset="0.7189" style="stop-color:#F4F4F5"/>
				<stop  offset="0.7827" style="stop-color:#E6E6E7"/>
				<stop  offset="0.8352" style="stop-color:#D3D4D6"/>
				<stop  offset="0.8607" style="stop-color:#B7B8BA"/>
				<stop  offset="0.9157" style="stop-color:#707173"/>
				<stop  offset="0.9231" style="stop-color:#666769"/>
				<stop  offset="0.9552" style="stop-color:#4C4B4D"/>
				<stop  offset="1" style="stop-color:#231F20"/>
			</linearGradient>
			<path class="st6" d="M76.1,23.9C69.4,17.2,60.2,13.1,50,13.1c-10.2,0-19.4,4.1-26.1,10.8C17.2,30.6,13.1,39.8,13.1,50
				c0,10.2,4.1,19.4,10.8,26.1c6.7,6.7,15.9,10.8,26.1,10.8c10.2,0,19.4-4.1,26.1-10.8c6.7-6.7,10.8-15.9,10.8-26.1
				C86.9,39.8,82.8,30.6,76.1,23.9z M75.8,75.8C69.2,82.4,60.1,86.4,50,86.4c-10.1,0-19.2-4.1-25.8-10.7
				C17.6,69.2,13.6,60.1,13.6,50c0-10.1,4.1-19.2,10.7-25.8l0,0c6.6-6.6,15.7-10.7,25.8-10.7c10.1,0,19.2,4.1,25.8,10.7
				c6.6,6.6,10.7,15.7,10.7,25.8C86.4,60.1,82.4,69.2,75.8,75.8z"/>
		</g>
		<radialGradient id="SVGID_4_" cx="51.3207" cy="-0.3732" r="78.9897" gradientUnits="userSpaceOnUse">
			<stop  offset="4.014328e-04" style="stop-color:#FAFDFF"/>
			<stop  offset="2.175036e-02" style="stop-color:#F4FAFD"/>
			<stop  offset="0.3905" style="stop-color:#91C7E4"/>
			<stop  offset="0.5826" style="stop-color:#59B3E4"/>
			<stop  offset="0.9971" style="stop-color:#203D80"/>
		</radialGradient>
		<circle class="st7" cx="50" cy="46.5" r="42.7"/>
		<g class="st8">
			
				<image style="overflow:visible;" width="656" height="492" xlink:href="D7F4C06F0153964B.png"  transform="matrix(0.24 0 0 0.24 -28.72 7.28)">
			</image>
		</g>
		<g>
			<circle class="st9" cx="50" cy="22.5" r="7.5"/>
			<path class="st9" d="M50,78.1L50,78.1c-4.1,0-7.5-3.4-7.5-7.5V43c0-4.1,3.4-7.5,7.5-7.5h0c4.1,0,7.5,3.4,7.5,7.5v27.6
				C57.5,74.7,54.1,78.1,50,78.1z"/>
			<circle class="st10" cx="50" cy="20.9" r="7.5"/>
			<path class="st10" d="M50,76.5L50,76.5c-4.1,0-7.5-3.4-7.5-7.5V41.4c0-4.1,3.4-7.5,7.5-7.5h0c4.1,0,7.5,3.4,7.5,7.5V69
				C57.5,73.1,54.1,76.5,50,76.5z"/>
		</g>
	</g>
</g>
<g id="info_2" class="st0">
	<g class="st11">
		
			<image style="overflow:visible;" width="656" height="664" xlink:href="D7F4C06F0153964E.png"  transform="matrix(0.24 0 0 0.24 -28.72 -29.72)">
		</image>
	</g>
	<g class="st1">
		<linearGradient id="SVGID_5_" gradientUnits="userSpaceOnUse" x1="50" y1="15.3525" x2="50" y2="85.769">
			<stop  offset="0" style="stop-color:#231F20"/>
			<stop  offset="3.444310e-02" style="stop-color:#3D3B3C"/>
			<stop  offset="8.241760e-02" style="stop-color:#666769"/>
			<stop  offset="0.108" style="stop-color:#828385"/>
			<stop  offset="0.1629" style="stop-color:#C9CACC"/>
			<stop  offset="0.1703" style="stop-color:#D3D4D6"/>
			<stop  offset="0.2147" style="stop-color:#DEDFE1"/>
			<stop  offset="0.3081" style="stop-color:#F1F1F2"/>
			<stop  offset="0.4063" style="stop-color:#FBFCFC"/>
			<stop  offset="0.5165" style="stop-color:#FFFFFF"/>
			<stop  offset="0.6418" style="stop-color:#FCFCFD"/>
			<stop  offset="0.7189" style="stop-color:#F4F4F5"/>
			<stop  offset="0.7827" style="stop-color:#E6E6E7"/>
			<stop  offset="0.8352" style="stop-color:#D3D4D6"/>
			<stop  offset="0.8607" style="stop-color:#B7B8BA"/>
			<stop  offset="0.9157" style="stop-color:#707173"/>
			<stop  offset="0.9231" style="stop-color:#666769"/>
			<stop  offset="0.9552" style="stop-color:#4C4B4D"/>
			<stop  offset="1" style="stop-color:#231F20"/>
		</linearGradient>
		<path class="st12" d="M76.1,23.9C69.4,17.2,60.2,13.1,50,13.1c-10.2,0-19.4,4.1-26.1,10.8C17.2,30.6,13.1,39.8,13.1,50
			c0,10.2,4.1,19.4,10.8,26.1c6.7,6.7,15.9,10.8,26.1,10.8c10.2,0,19.4-4.1,26.1-10.8c6.7-6.7,10.8-15.9,10.8-26.1
			C86.9,39.8,82.8,30.6,76.1,23.9z M75.8,75.8C69.2,82.4,60.1,86.4,50,86.4c-10.1,0-19.2-4.1-25.8-10.7C17.6,69.2,13.6,60.1,13.6,50
			c0-10.1,4.1-19.2,10.7-25.8l0,0c6.6-6.6,15.7-10.7,25.8-10.7c10.1,0,19.2,4.1,25.8,10.7c6.6,6.6,10.7,15.7,10.7,25.8
			C86.4,60.1,82.4,69.2,75.8,75.8z"/>
	</g>
	<radialGradient id="SVGID_6_" cx="51.3207" cy="-0.3732" r="78.9897" gradientUnits="userSpaceOnUse">
		<stop  offset="4.014328e-04" style="stop-color:#FAFDFF"/>
		<stop  offset="2.175036e-02" style="stop-color:#F4FAFD"/>
		<stop  offset="0.3905" style="stop-color:#91C7E4"/>
		<stop  offset="0.5826" style="stop-color:#59B3E4"/>
		<stop  offset="0.9971" style="stop-color:#203D80"/>
	</radialGradient>
	<circle class="st13" cx="50" cy="46.5" r="42.7"/>
	<g class="st14">
		
			<image style="overflow:visible;" width="656" height="492" xlink:href="D7F4C06F0153964F.png"  transform="matrix(0.24 0 0 0.24 -28.72 7.28)">
		</image>
	</g>
	<circle class="st15" cx="50" cy="22.5" r="7.5"/>
	<path class="st16" d="M50,78.1L50,78.1c-4.1,0-7.5-3.4-7.5-7.5V43c0-4.1,3.4-7.5,7.5-7.5h0c4.1,0,7.5,3.4,7.5,7.5v27.6
		C57.5,74.7,54.1,78.1,50,78.1z"/>
	<circle class="st17" cx="50" cy="20.9" r="7.5"/>
	<path class="st17" d="M50,76.5L50,76.5c-4.1,0-7.5-3.4-7.5-7.5V41.4c0-4.1,3.4-7.5,7.5-7.5h0c4.1,0,7.5,3.4,7.5,7.5V69
		C57.5,73.1,54.1,76.5,50,76.5z"/>
</g>
<g id="question">
	<g>
		<path class="st10" d="M98.6,42.1c0,15.4-14,28.4-33.3,32.8L78,91.9L44,76.4C20.5,74.1,2.3,59.6,2.3,42.1
			c0-19.1,21.5-34.5,48.1-34.5S98.6,23.1,98.6,42.1z"/>
		<path class="st146" d="M78,93.8c-0.3,0-0.5-0.1-0.8-0.2L43.5,78.2C18.9,75.7,0.4,60.3,0.4,42.1c0-20.1,22.4-36.4,50-36.4
			s50,16.3,50,36.4c0,15.2-12.7,28.6-32,34l11,14.6c0.5,0.7,0.5,1.6,0,2.3C79.1,93.5,78.6,93.8,78,93.8z M50.4,9.5
			C24.9,9.5,4.2,24.2,4.2,42.1c0,16.3,17.2,30.1,40,32.3c0.2,0,0.4,0.1,0.6,0.2L72,87.1l-8.3-11c-0.4-0.5-0.5-1.2-0.3-1.8
			s0.7-1,1.3-1.2c19-4.4,31.8-16.9,31.8-31C96.7,24.2,75.9,9.5,50.4,9.5z"/>
		<ellipse class="st147" cx="48.6" cy="64.1" rx="7.7" ry="6.7"/>
		<path class="st147" d="M39.1,35.2c-4.2-1.4-5.2-13.2,4.6-17.3c11.2-4.7,23.4,1.4,22.8,11.4c-0.6,11.5-7.8,10.8-14.2,16.7
			c-3.7,3.5,0.1,9.3-3,9.7c-2.5,0.3-6.6-5-5.4-9.9c2-8.2,9.6-8.3,10-13.2c0.4-5.3-3.2-8.1-8-6.3C40.7,28.3,41.9,36.2,39.1,35.2z"/>
	</g>
</g>
<g id="alert" class="st0">
	<g class="st1">
		<g>
			<radialGradient id="SVGID_7_" cx="49.1161" cy="37.0483" r="79.5477" gradientUnits="userSpaceOnUse">
				<stop  offset="0" style="stop-color:#FFFA7A"/>
				<stop  offset="5.432654e-02" style="stop-color:#FEFB70"/>
				<stop  offset="0.2032" style="stop-color:#FCFD59"/>
				<stop  offset="0.3447" style="stop-color:#FBFF4C"/>
				<stop  offset="0.4698" style="stop-color:#FBFF47"/>
				<stop  offset="0.9525" style="stop-color:#FBD647"/>
				<stop  offset="1" style="stop-color:#FBD247"/>
			</radialGradient>
			<path class="st141" d="M8.5,89.9c-2.4,0-4.6-1.3-5.8-3.4c-1.2-2.1-1.1-4.6,0.3-6.7l43.8-67.8c0.7-1.1,1.9-1.8,3.2-1.8
				c1.3,0,2.5,0.6,3.2,1.8l43.8,67.8c1.3,2,1.4,4.5,0.3,6.7c-1.2,2.1-3.3,3.4-5.8,3.4H8.5z"/>
			<path class="st149" d="M50,12c0.3,0,1.1,0.1,1.7,0.9l43.8,67.8c0.9,1.5,1,3.2,0.2,4.8c-0.8,1.5-2.4,2.4-4.1,2.4H8.5
				c-1.7,0-3.3-0.9-4.1-2.4c-0.8-1.5-0.8-3.3,0.2-4.8l43.8-67.8C48.9,12.1,49.7,12,50,12 M50,8.3c-1.8,0-3.7,0.9-4.8,2.6L1.4,78.7
				c-3.6,5.6,0.4,13,7.1,13h83.1c6.7,0,10.7-7.4,7.1-13L54.8,10.9C53.7,9.1,51.8,8.3,50,8.3L50,8.3z"/>
		</g>
		<path d="M48.3,64.5c-0.4-3.8-0.8-5.9-1.1-8.6c-0.3-2.8-0.7-5.1-1-7.1c-0.3-2-0.7-3.6-1-4.9c-0.3-1.3-0.5-2.4-0.7-3.4
			c-0.2-0.9-0.4-1.7-0.5-2.4c-0.1-0.7-0.2-1.4-0.2-2.1c0-1.9,0.6-3.3,1.9-4.2c1.3-0.9,2.7-1.4,4.4-1.4c1.6,0,3,0.5,4.3,1.4
			c1.3,0.9,1.9,2.3,1.9,4.2c0,0.7-0.1,1.5-0.2,2.2c-0.1,0.7-0.3,1.6-0.5,2.5c-0.2,1-0.5,2.1-0.8,3.5c-0.3,1.4-0.6,3-1,5
			c-0.4,2-0.8,4.3-1.2,7c-0.4,2.7-0.9,4.7-1.3,8.4H48.3z"/>
		<path d="M50.2,81.8c-4.3,0-6.5-2-6.5-6.1s2.2-6.1,6.5-6.1c4.1,0,6.1,2,6.1,6.1S54.3,81.8,50.2,81.8z"/>
		<path class="st150" d="M16,63L4.5,80.8c-0.9,1.5-1,3.2-0.2,4.8C5.2,87.1,6.7,88,8.5,88h83.1c1.7,0,3.3-0.9,4.1-2.4
			c0.8-1.5,0.8-3.3-0.2-4.8L75.1,49.3c-6.1,0.2-14.1,1.1-24.7,2.9C36.8,54.5,25.3,58.6,16,63z"/>
		<path class="st149" d="M46.7,9.3c-0.4,0.3-0.8,0.6-1.1,1C46,9.9,46.3,9.6,46.7,9.3z"/>
		<g class="st151">
			<path class="st10" d="M53.8,9.7c0.4,0.3,0.7,0.7,1,1.1C54.5,10.5,54.2,10.1,53.8,9.7z"/>
		</g>
		<g class="st151">
			<path class="st10" d="M50,12c-0.3,0-1.1,0.1-1.7,0.9L16,63c9.3-4.5,20.8-8.5,34.4-10.9c10.6-1.8,18.7-2.6,24.7-2.9L51.7,12.9
				C51.1,12.1,50.3,12,50,12z"/>
		</g>
	</g>
</g>
</svg>
