<svg width="32" height="32" viewBox="0 0 32 32" fill="none" xmlns="http://www.w3.org/2000/svg">
<g clip-path="url(#clip0_4079_50825)">
<path d="M30.5949 1.40535C28.7164 -0.459852 25.6849 -0.459852 23.8064 1.40535C23.7565 1.45553 23.7169 1.51518 23.6902 1.58077C23.6669 1.63935 23.6544 1.70166 23.6534 1.76471C23.6519 1.77071 23.6506 1.77671 23.6497 1.78284C23.6498 1.85255 23.6636 1.9216 23.6902 1.98598C23.7165 2.05136 23.7559 2.11068 23.8059 2.16033L26.4468 4.80118L25.4257 5.82169C22.8676 3.45716 19.5124 2.14354 16.0289 2.14274C16.0199 2.14007 16.0129 2.13527 16.0039 2.13527C15.9948 2.13527 15.9879 2.14007 15.9788 2.14007C12.4949 2.14154 9.13949 3.45636 6.58202 5.82222L5.56098 4.80118L8.20183 2.16033C8.25181 2.11068 8.2912 2.05136 8.31753 1.98598C8.34419 1.9216 8.35798 1.85255 8.35805 1.78284C8.35805 1.77644 8.35485 1.77111 8.35432 1.76471C8.35479 1.64168 8.30693 1.52332 8.22102 1.43521C8.21303 1.42614 8.21036 1.41495 8.20183 1.40642C6.3271 -0.468583 3.2873 -0.468849 1.4123 1.40588C-0.462765 3.28061 -0.462965 6.32041 1.41177 8.19541C1.41923 8.20341 1.42989 8.20554 1.43789 8.21301C1.48135 8.25393 1.53147 8.28712 1.58612 8.31111C1.6443 8.33397 1.70602 8.34643 1.76846 8.3479C1.77486 8.3479 1.78126 8.35163 1.78819 8.35163C1.85764 8.35137 1.92642 8.33777 1.9908 8.31164C2.05605 8.28479 2.1153 8.24533 2.16515 8.19541L4.80706 5.5551L5.82811 6.57614C0.629057 12.1964 0.970492 20.9671 6.59069 26.1661C7.07115 26.6106 7.58241 27.0204 8.12079 27.3926L4.42957 31.0833C4.21777 31.2878 4.2119 31.6254 4.41651 31.8372C4.62105 32.049 4.95862 32.0549 5.17043 31.8503C5.17489 31.846 5.17922 31.8416 5.18349 31.8372L9.04212 27.9786C13.3437 30.4881 18.663 30.4881 22.9646 27.9786L26.8232 31.8372C27.035 32.0418 27.3725 32.0359 27.5771 31.8241C27.7767 31.6175 27.7767 31.2899 27.5771 31.0833L23.8859 27.3926C30.1838 23.0359 31.7574 14.3987 27.4007 8.10084C27.0297 7.56452 26.6212 7.055 26.1786 6.57614L27.2007 5.5551L29.8415 8.19594C29.8914 8.24586 29.9506 8.28532 30.0159 8.31218C30.0803 8.3383 30.149 8.3519 30.2185 8.35217C30.2254 8.35217 30.2318 8.34843 30.2382 8.34843C30.3007 8.34697 30.3624 8.3345 30.4206 8.31164C30.4752 8.28765 30.5253 8.25446 30.5688 8.21354C30.5768 8.20607 30.5874 8.20394 30.5949 8.19594C32.4597 6.31755 32.4583 3.28515 30.5949 1.40535ZM1.81698 7.03734C0.587468 5.38108 0.93337 3.04175 2.58963 1.81217C3.91159 0.830846 5.7202 0.830846 7.04216 1.81217L1.81698 7.03734ZM28.7773 15.4648H26.1343C25.8399 15.4648 25.6011 15.7035 25.6011 15.998C25.6011 16.2924 25.8399 16.5312 26.1343 16.5312H28.7869C28.5018 23.1749 23.1808 28.4959 16.5371 28.781V26.1284C16.5371 25.834 16.2983 25.5952 16.0039 25.5952C15.7094 25.5952 15.4707 25.834 15.4707 26.1284V28.781C8.82692 28.4959 3.5059 23.1749 3.22085 16.5312H5.87343C6.16788 16.5312 6.40661 16.2924 6.40661 15.998C6.40661 15.7035 6.16788 15.4648 5.87343 15.4648H3.23045C3.35155 12.2683 4.67117 9.23438 6.92699 6.96643C6.93552 6.95896 6.94619 6.9563 6.95419 6.9483C6.96218 6.9403 6.96485 6.92964 6.97231 6.92111C9.2398 4.66455 12.2739 3.3448 15.4707 3.22456V5.86754C15.4707 6.16199 15.7094 6.40072 16.0039 6.40072C16.2983 6.40072 16.5371 6.16199 16.5371 5.86754V3.22456C19.7338 3.34473 22.768 4.66449 25.0354 6.92111C25.0429 6.92964 25.0456 6.9403 25.0536 6.9483C25.0616 6.9563 25.0722 6.95896 25.0807 6.96643C27.3365 9.23445 28.6561 12.2683 28.7773 15.4648ZM30.1897 7.03627L24.9645 1.8111C26.6135 0.574319 28.9529 0.908557 30.1897 2.55755C31.1849 3.88464 31.1849 5.70925 30.1897 7.03627Z" fill="#1E74AE"/>
<path d="M23.5875 11.0053H23.5885L17.5241 14.5062C16.7052 13.6669 15.361 13.6505 14.5218 14.4694C14.5094 14.4815 14.4971 14.4938 14.485 14.5062L11.1915 12.6048C10.9375 12.4559 10.6108 12.5411 10.462 12.7952C10.3131 13.0492 10.3982 13.3759 10.6523 13.5248C10.6543 13.526 10.6564 13.5271 10.6584 13.5283L13.9572 15.4328C13.6264 16.5633 14.2747 17.7479 15.4051 18.0787C16.5356 18.4095 17.7202 17.7612 18.051 16.6308C18.1654 16.2396 18.1654 15.8239 18.051 15.4328L24.1207 11.9287C24.3748 11.7798 24.46 11.4531 24.3111 11.1991C24.1634 10.9475 23.8411 10.8611 23.5875 11.0053ZM16.0051 17.0654C15.4161 17.0654 14.9387 16.588 14.9387 15.9991C14.9387 15.4101 15.4161 14.9327 16.0051 14.9327C16.5941 14.9327 17.0715 15.4101 17.0715 15.9991C17.0715 16.588 16.594 17.0654 16.0051 17.0654Z" fill="#42210B"/>
</g>
<defs>
<clipPath id="clip0_4079_50825">
<rect width="32" height="32" fill="white"/>
</clipPath>
</defs>
</svg>
