<svg width="18" height="18" viewBox="0 0 18 18" fill="none" xmlns="http://www.w3.org/2000/svg">
<path d="M9.9142 2.8457H8.70312V15.3005H9.9142V2.8457Z" fill="#42210B"/>
<path d="M9.30052 3.9833H11.1774C11.1774 3.9833 13.9579 3.85556 13.9579 6.67605C13.9579 6.67605 14.0429 7.97379 12.6789 8.76056C12.6789 8.76056 14.3673 9.17717 14.3673 10.893C14.3673 12.6088 13.7355 13.8906 11.9451 14.0836L9.91533 14.1315C9.91533 14.1315 9.438 14.0836 9.438 14.1315C9.438 14.1794 9.40402 12.7206 9.40402 12.7206H11.1434C11.1434 12.7206 12.7128 12.8483 12.7128 11.2457C12.7128 9.64314 11.6717 9.57927 11.2623 9.57927C10.853 9.57927 9.88134 9.57927 9.88134 9.57927H9.57394V8.36137V8.26556H11.0414C11.0414 8.26556 12.3884 8.26556 12.3884 6.85459C12.3884 5.44363 11.4168 5.42766 11.0414 5.42766C10.6661 5.42766 9.31906 5.42766 9.31906 5.42766C9.31906 5.42766 9.25727 3.94266 9.30052 3.9833Z" fill="#42210B"/>
<path d="M9.06085 3.98325H7.16701C7.16701 3.98325 4.55641 3.75825 4.55641 6.78922C4.55641 6.78922 4.18104 8.69664 7.13148 9.7868C7.13148 9.7868 8.68394 10.1076 8.68394 11.3095C8.68394 12.5115 7.6258 12.6073 7.23343 12.6073C6.84107 12.6073 5.79992 12.1428 5.79992 11.0207L4.23047 11.1963C4.23047 11.1963 4.52088 14.1141 7.14693 14.1141C9.77298 14.1141 9.87647 11.7102 9.87647 11.7102L9.91046 11.0047C9.91046 11.0047 10.4218 9.22503 7.42035 8.08696C7.42035 8.08696 5.96212 7.73422 5.96212 6.71664C5.96212 5.69906 6.63562 5.42616 7.18246 5.42616C7.72929 5.42616 9.31419 5.42616 9.31419 5.42616V3.98325C9.31728 3.98325 9.00988 3.98325 9.06085 3.98325Z" fill="#42210B"/>
</svg>
