<svg width="25" height="32" viewBox="0 0 25 32" fill="none" xmlns="http://www.w3.org/2000/svg">
<path d="M14.9805 31.3743H9.291C2.46572 31.3743 -1.66727 23.8356 2.00338 18.0814L7.23957 9.87305H17.0318L22.268 18.0814C25.9387 23.8356 21.8057 31.3743 14.9805 31.3743Z" fill="#FCFBFA"/>
<path d="M5.60156 1.16782C6.32186 0.447524 7.48967 0.447524 8.2099 1.16782L8.21447 1.17238C8.93295 1.89086 10.0973 1.89292 10.8182 1.17694L10.8366 1.15869C11.5576 0.442711 12.7219 0.444773 13.4404 1.16325L13.445 1.16782C14.1653 1.88811 15.3331 1.88811 16.0533 1.16782C16.7736 0.447524 17.9414 0.447524 18.6616 1.16782L17.0297 6.87341H7.2376L5.60156 1.16782Z" fill="#FCFBFA"/>
<path d="M22.793 17.7459L18.015 10.2557C18.6919 9.89994 19.155 9.19002 19.155 8.37359C19.155 7.47998 18.6003 6.71393 17.8173 6.40035L19.2648 1.3398C19.3272 1.12148 19.2663 0.886525 19.1058 0.725953C18.143 -0.236854 16.5764 -0.236854 15.6135 0.725953C15.3832 0.956279 15.077 1.0831 14.7513 1.0831C14.4256 1.0831 14.1194 0.956279 13.8876 0.724453L13.8845 0.72139C12.9251 -0.238167 11.3612 -0.240855 10.3979 0.715702L10.3799 0.733578C9.90448 1.20567 9.13225 1.20429 8.65853 0.730516L8.65397 0.725953C7.6911 -0.236854 6.12451 -0.236854 5.16164 0.725953C5.001 0.88665 4.94018 1.12179 5.00275 1.34024L6.45334 6.39917C5.66867 6.71193 5.11244 7.47879 5.11244 8.37366C5.11244 9.19008 5.57547 9.9 6.25251 10.2558L1.47442 17.7459C-0.374069 20.6436 -0.491201 24.1729 1.16108 27.1868C2.81337 30.2006 5.8518 32 9.28894 32H14.9784C18.4155 32 21.4539 30.2006 23.1063 27.1868C24.7586 24.1729 24.6415 20.6436 22.793 17.7459ZM7.76998 1.60988L7.77454 1.61444C8.7341 2.57394 10.2979 2.57656 11.2612 1.62013L11.2791 1.60225C11.7545 1.13016 12.5268 1.13154 13.002 1.60676L13.005 1.60982C13.9679 2.57263 15.5345 2.57263 16.4974 1.60982C16.8891 1.21804 17.4834 1.1491 17.9464 1.40299L16.5606 6.24847H7.71066L6.3212 1.40293C6.78423 1.1491 7.37827 1.21817 7.76998 1.60988ZM22.0101 26.5859C20.5807 29.1933 17.952 30.75 14.9785 30.75H9.28901C6.31545 30.75 3.6868 29.1933 2.25734 26.5859C0.827877 23.9785 0.929196 20.9252 2.52835 18.4182L7.58022 10.4987H15C15.3452 10.4987 15.5 10.2189 15.5 9.87368C15.5 9.52848 15.3452 9.24865 15 9.24865H7.23757C6.75504 9.24865 6.36252 8.85612 6.36252 8.37359C6.36252 7.89107 6.75504 7.49854 7.23757 7.49854H7.23963H17.0298C17.5124 7.49854 17.9049 7.89107 17.9049 8.37359C17.9049 8.85612 17.5124 9.24865 17.0298 9.24865H14.9464C14.6012 9.24865 14.3214 9.52848 14.3214 9.87368C14.3214 10.2189 14.6012 10.4987 14.9464 10.4987H16.6872L21.7391 18.4182C23.3383 20.9251 23.4396 23.9784 22.0101 26.5859Z" fill="#119B4C"/>
<path d="M12.8767 14.0039H11.6602V27.1507H12.8767V14.0039Z" fill="#42210B"/>
<path d="M12.2615 15.205H14.1469C14.1469 15.205 16.94 15.0702 16.94 18.0474C16.94 18.0474 17.0253 19.4172 15.6552 20.2477C15.6552 20.2477 17.3512 20.6875 17.3512 22.4986C17.3512 24.3097 16.7165 25.6627 14.9181 25.8665L12.8791 25.917C12.8791 25.917 12.3996 25.8665 12.3996 25.917C12.3996 25.9676 12.3655 24.4277 12.3655 24.4277H14.1127C14.1127 24.4277 15.6893 24.5625 15.6893 22.8709C15.6893 21.1793 14.6434 21.1119 14.2322 21.1119C13.821 21.1119 12.845 21.1119 12.845 21.1119H12.5362V19.8263V19.7252H14.0103C14.0103 19.7252 15.3634 19.7252 15.3634 18.2358C15.3634 16.7465 14.3874 16.7296 14.0103 16.7296C13.6333 16.7296 12.2802 16.7296 12.2802 16.7296C12.2802 16.7296 12.2181 15.1621 12.2615 15.205Z" fill="#42210B"/>
<path d="M12.0202 15.2051H10.1178C10.1178 15.2051 7.49538 14.9676 7.49538 18.167C7.49538 18.167 7.11831 20.1804 10.0821 21.3311C10.0821 21.3311 11.6416 21.6697 11.6416 22.9384C11.6416 24.2072 10.5787 24.3083 10.1845 24.3083C9.79038 24.3083 8.74452 23.818 8.74452 22.6335L7.16797 22.8189C7.16797 22.8189 7.45969 25.8988 10.0976 25.8988C12.7356 25.8988 12.8395 23.3614 12.8395 23.3614L12.8737 22.6167C12.8737 22.6167 13.3873 20.7381 10.3723 19.5368C10.3723 19.5368 8.90745 19.1645 8.90745 18.0904C8.90745 17.0163 9.584 16.7282 10.1333 16.7282C10.6826 16.7282 12.2747 16.7282 12.2747 16.7282V15.2051C12.2778 15.2051 11.969 15.2051 12.0202 15.2051Z" fill="#42210B"/>
</svg>
