<svg xmlns="http://www.w3.org/2000/svg" xmlns:xlink="http://www.w3.org/1999/xlink" width="147.333" height="134.026" viewBox="0 0 147.333 134.026"><defs><clipPath id="a"><path d="M75.97,108.06c-3.05-.44-4.24-1.3-5.09,1.52-.66,2.17-.2,4.33-.91,6.58-1.1,3.48-2.65,7.93-4.94,10.59-2.57,3-4.96,7.6-4.16,11.79.53,2.76,1.95,2.44,4.98,3.28,2.44.68,4.81,1.7,7.36,2.27,3.99.89,8.32,1.61,9.95-2a15.591,15.591,0,0,0,1.17-5.37c-.01-1.94-1.38-3.52-1.52-5.32-.25-3.27,1.4-7.83,1.94-10.95a20.383,20.383,0,0,1,1.32-5.34c.84-1.66,3.03-2.57,3.13-4.45a23.155,23.155,0,0,1-4.04-1.22,62.8,62.8,0,0,1-4.66,12.65,62.279,62.279,0,0,0-2.72,6.5c-1.12,3.01-2.68,2.26-5.88,1.03-1.36-3.19,1.74-7.64,2.72-10.46,1.2-3.45,1.77-7.35,2.78-10.72-.24-.13-1.31-.6-1.43-.63a1.088,1.088,0,0,0-.97.3"/></clipPath></defs><g transform="translate(-20.282 -11.159)"><path d="M147,36.47c-5.91,15.14-18.87,27.19-34.14,32.74s-32.6,4.75-47.63-1.43A39.189,39.189,0,0,1,54.56,61.6c-5.85-5-9.27-12.22-12.32-19.29" fill="none" stroke="#000" stroke-miterlimit="10" stroke-width="6"/><path d="M117.2,116.96A67.468,67.468,0,0,0,89.67,73.25a76.52,76.52,0,0,1-11.46,43.13" fill="none" stroke="#231f20" stroke-linecap="round" stroke-width="6"/><path d="M125.24,107.07c-1.39-1.97-5.81.75-7.33,1.77-2.33,1.58-10.7,3.32-9.38,4.05.39,1.11,5.41,2.7,6.55,3.08a6.446,6.446,0,0,0,3.24.27c1.11-.19,4.5-.99,5.31-1.79,1.28-1.27,2.25-5.71,1.39-7.16" fill="#231f20" stroke="#231f20" stroke-linecap="round" stroke-width="0.84"/><path d="M120.65,113.13a8.767,8.767,0,0,1-.94-3.3c-.63.94-3.4,2.64-4.39,3.17-1.72.93-5.45.11-7.13-.22,2.2,1.86,3.59,4.89,4.47,7.15,1.06,2.71,1.66,3.22,1.44,5.98a15.333,15.333,0,0,0,.67,6.8,32.775,32.775,0,0,0,3.01,5.33c.75,1.3,1.34,3.2,2.4,4.27.96.97,1.73.64,3.24.07a16.126,16.126,0,0,1,7.05-.82c4.17.19,8.78-2.26,12.61-4.28a25.625,25.625,0,0,0,3.67-2.03,25.537,25.537,0,0,0,3.45-3.65c1.11-1.32-1.56-4.63-2.38-6.08-1.84-3.24-5.37-3.62-8.81-2.39-1.38.5-2.83,1.36-4.22.81-1.52-.6-1.73-2.5-2.6-3.67" fill="#e83e2e" stroke="#231f20" stroke-linecap="round" stroke-width="0.84"/><path d="M116.21,131.48c.82,1.98,2.34,3.23,3.4,2.79s1.26-2.41.44-4.39-2.34-3.23-3.41-2.79S115.39,129.5,116.21,131.48Z" fill="#fff" stroke="#231f20" stroke-linecap="round" stroke-width="0.84"/><path d="M131.09,119.63c-1.52-2.5-3.79-4.71-4.04-6.61-.33-2.42-.32-4.49-3.61-4.74-3.92-.29-5.7,2.63-4.86,5.6.34,1.18,2.12,2.25,2.89,3.19.84,1.02,2.48,2.05,3.38,3.09,1.63,1.87,7.93,5.44,11.13,5.39.95-.82.94.32,3.37-1.98" fill="#fff" stroke="#231f20" stroke-linecap="round" stroke-width="0.504"/><path d="M124.18,108.79c1.46-.76.79-1.35,1.32-1.82,1.38,2.82,2.15,5.57,3.62,8.32,4.93,9.22,8.25,6.97,11.84,7.46-.88.22-1.33.7-2.34.98-2.88-1.51-7.22,2.17-14.31-15" fill="#e83e2e" stroke="#231f20" stroke-linecap="round" stroke-width="0.84"/><path d="M135.43,128.5c1.72-2.86,1.96-2.85,1.91-4.21-1.52.62-3.82-.41-5.15-.82-1.66-.53-2.58-1.66-3.89-2.79-1.66-1.43-4.69-2.72-5.64-4.65a18.47,18.47,0,0,1-1.57-6.48c-2.68.8-5.39,5.23-10.45,3.5" fill="#e83e2e" stroke="#231f20" stroke-linecap="round" stroke-width="0.84"/><path d="M125.22,109.19s-3.25,4.27-3.88,4.88c0,0,4.83-.44,5.66-.45,0,0-2.85,4.55-3.32,5.44,0,0,6.85-1.59,7.48-1.55a52.107,52.107,0,0,0-1.69,4.95s5.61-.28,6.34-.29c-.03.06-1.26,3.83-1.26,3.83.05-.81,4.23-3.1,4.23-3.1l-6.6,1.53a33.664,33.664,0,0,1,1.02-4.28c-1.25-.07-5.42.35-5.62.28.49-.85.49-4.35.49-4.35-.85-.04-5.77.05-5.77.05.54-.72,3.48-4.37,3.48-4.37-.79-.02-5.02-.56-5.02-.56Z" fill="none" stroke="#231f20" stroke-linecap="round" stroke-linejoin="round" stroke-width="1.008"/><path d="M122.96,110.04a15.209,15.209,0,0,1,1.21-1.75c.32-.46,1.83-2.56,3.68-2.21s4.25,3.01,3.8,4.55c-.17.58-1.82,1.07-2.66.9a28.879,28.879,0,0,1-4.83-1.3c-1.69-.65-3.38.35-5,1.25-1.57.87-4.94,3.86-5.32,4.89a3.181,3.181,0,0,0,2.11,4.44c6.19,1.64,6.14-7.46,6.35-8.87.04-.25.2-.65.26-.88a5.423,5.423,0,0,1,.57-.98,3.3,3.3,0,0,1,.64.6c1.03.94,2.1,1.91,3.21,2.77,1.84,1.43,5.69,1.67,8.15,1.84" fill="none" stroke="#231f20" stroke-linecap="round" stroke-linejoin="round" stroke-width="1.008"/><path d="M122.78,110.02c1.45,1.48,1.76,3.45,2.13,5.42.24,1.26,2.18,2.03,2.11,3.36a9.856,9.856,0,0,1-.39,2.21,5.171,5.171,0,0,0-.36,1.27" fill="none" stroke="#231f20" stroke-linecap="round" stroke-linejoin="round" stroke-width="1.008"/><path d="M120.44,141.34a6.32,6.32,0,0,0,3.27-.65c2.29-.85,4.54-.8,7.02-.94.74-.04,1.57-.1,2.41-.2-.58-1.16-.17-3.44.34-4.63a19.524,19.524,0,0,1,3.16-4.29,26.288,26.288,0,0,1,9.4-7.01c1.2.97,3.55,2.36,3.99,3.84.2.69.51,3.11.56,3.08-.05.03.1.38.12.42a4.174,4.174,0,0,0,.26.46,1.183,1.183,0,0,1,.3.93.805.805,0,0,1-.25.41c-.06.06-.13.12-.2.18a6.2,6.2,0,0,0-.46.42c-.08.1-.13.21-.22.31a9.6,9.6,0,0,1-.95.85,21.047,21.047,0,0,1-2.09,1.52,27.539,27.539,0,0,1-4.63,2.34c-1.42.57-2.88,1.05-4.35,1.48-.85.25-1.71.49-2.57.71-.43.11-.86.23-1.29.34a2.959,2.959,0,0,0-.6.17,4.039,4.039,0,0,1-1.04.24c-.14.02-.26.08-.39.1a8.012,8.012,0,0,1-1.2.01,18.635,18.635,0,0,0-2.11.05,40.9,40.9,0,0,0-8.36,1.87c-.63-.41-.76-1.25-1.27-2.09Z" fill="#fff" stroke="#231f20" stroke-linecap="round" stroke-width="0.84"/><path d="M145.98,123.73c-.02.01-.04.01-.05.02-.03-.02-.06-.05-.09-.07Z" fill="#fff" stroke="#231f20" stroke-linecap="round" stroke-width="0.84"/><path d="M136.7,138.26a18.874,18.874,0,0,1,3.1-1.23c.19-.06.37-.07.56-.14.39-.14.79-.3,1.17-.46a23.729,23.729,0,0,0,2.26-1.12,22.594,22.594,0,0,0,4.05-2.93,20.3,20.3,0,0,0,1.72-1.75" fill="#fff" stroke="#231f20" stroke-linecap="round" stroke-width="0.84"/><path d="M75.67,109.35c.53-2.63.23-2.72,3.55-3.01,2.5-.22,4.26.21,5.89,2.12,2.97,3.49-.02,7.74-1.67,10.86a22.415,22.415,0,0,0-2.05,6.04c-.41,1.75-.62,9.36-9.47,6.74-6.53-1.93.24-10.25.38-12.4.12-1.79,2.6-3.48,2.79-5.25.22-1.94,1.27-3.69.7-5.61" fill="#fff" stroke="#231f20" stroke-linecap="round" stroke-width="1.093"/><path d="M75.97,108.06c-3.05-.44-4.24-1.3-5.09,1.52-.66,2.17-.2,4.33-.91,6.58-1.1,3.48-2.65,7.93-4.94,10.59-2.57,3-4.96,7.6-4.16,11.79.53,2.76,1.95,2.44,4.98,3.28,2.44.68,4.81,1.7,7.36,2.27,3.99.89,8.32,1.61,9.95-2a15.591,15.591,0,0,0,1.17-5.37c-.01-1.94-1.38-3.52-1.52-5.32-.25-3.27,1.4-7.83,1.94-10.95a20.383,20.383,0,0,1,1.32-5.34c.84-1.66,3.03-2.57,3.13-4.45a23.155,23.155,0,0,1-4.04-1.22,62.8,62.8,0,0,1-4.66,12.65,62.279,62.279,0,0,0-2.72,6.5c-1.12,3.01-2.68,2.26-5.88,1.03-1.36-3.19,1.74-7.64,2.72-10.46,1.2-3.45,1.77-7.35,2.78-10.72-.24-.13-1.31-.6-1.43-.63a1.088,1.088,0,0,0-.97.3" fill="#e83e2e"/><g clip-path="url(#a)"><path d="M68.17,121.18c1.31,1.83.08,5.73-2.82,5.31" fill="#fff" stroke="#231f20" stroke-linecap="round" stroke-width="1.093"/></g><g clip-path="url(#a)"><path d="M83.21,130.65c-1.76-1.53-1.66-5.63,1.23-5.84" fill="#fff" stroke="#231f20" stroke-linecap="round" stroke-width="1.093"/></g><path d="M75.97,108.06c-3.05-.44-4.24-1.3-5.09,1.52-.66,2.17-.2,4.33-.91,6.58-1.1,3.48-2.65,7.93-4.94,10.59-2.57,3-4.96,7.6-4.16,11.79.53,2.76,1.95,2.44,4.98,3.28,2.44.68,4.81,1.7,7.36,2.27,3.99.89,8.32,1.61,9.95-2a15.591,15.591,0,0,0,1.17-5.37c-.01-1.94-1.38-3.52-1.52-5.32-.25-3.27,1.4-7.83,1.94-10.95a20.383,20.383,0,0,1,1.32-5.34c.84-1.66,3.03-2.57,3.13-4.45a23.155,23.155,0,0,1-4.04-1.22,62.8,62.8,0,0,1-4.66,12.65,62.279,62.279,0,0,0-2.72,6.5c-1.12,3.01-2.68,2.26-5.88,1.03-1.36-3.19,1.74-7.64,2.72-10.46,1.2-3.45,1.77-7.35,2.78-10.72-.24-.13-1.31-.6-1.43-.63a1.088,1.088,0,0,0-.97.3" fill="none" stroke="#231f20" stroke-linecap="round" stroke-width="0.759"/><path d="M60.71,136.82c3.62-2.81,4.27-4.58,9.87-4.49,4.31.07,8.77,2.33,10.93,5.63,2.6,3.99,1.75,6.28-1.18,6.72-5.44.81-16.86-3.22-18.37-3.76C59.63,140.09,60.71,136.82,60.71,136.82Z" fill="#fff" stroke="#231f20" stroke-linecap="round" stroke-width="0.759"/><path d="M63.64,137.77c3.98,3.2,12.25,4.12,16.97,3.72" fill="none" stroke="#231f20" stroke-linecap="round" stroke-width="0.759"/><path d="M70.07,129.23c2.87.67,5.54,1.14,8.45,1.66-2.73-2.19-5.35-3.3-8.41-5.06,3.16-1.33,6.55-1.2,10.1-1.22-2.2-.99-6.61-3.09-7.88-4.83,2.93-1.16,6.77.24,9.88-.66-2.35-2.1-6.02-2.79-7.98-4.73,2.15-1.3,7.75-1.09,10.51-1-2.73-2.08-6.09-2.33-8.95-3.99,1.65.16,6.87.28,6.84-1.62a5.176,5.176,0,0,0-1.41-.33,3.632,3.632,0,0,0-.29,1.21,3.126,3.126,0,0,0,1.9.93,1.534,1.534,0,0,0-.5-1.68c-.28.57-.69.26-.63,1.19-5.1-.89-10.79-3.48-15.54-1.89-5.83,1.95-3.68,8.1,2.76,8.2,2.46.04,4.89-1.49,6.8-2.57,1.74-.98,3.73-3.03,5.58-3.57,4.54-1.33,9.83,4.49,10.59,7.99.86,3.96-2.04,6.14-5.27,2.22-2.03-2.46-2.26-5.55-3.74-8.2-1.99-3.57-4.77-2.04-8.35-.47a13.7,13.7,0,0,0-7.14,6.95" fill="none" stroke="#231f20" stroke-linecap="round" stroke-linejoin="round" stroke-width="1.093"/><path d="M82.02,107.85c3.43,2.95,7.25,10.47,6.08,14.47" fill="none" stroke="#231f20" stroke-linecap="round" stroke-width="1.093"/><path d="M70.66,129.37c2.56-1.09,5.75-1.39,8.74-1.97-2.13-1.14-4.07-3.62-7.87-4.66,2.86-1.6,6.76-.41,10.01-.94-1.91-2.19-5.13-3.32-8-4.58,2.8-.87,6.97-.28,10.01-.85a36.984,36.984,0,0,0-8.28-5.27c1.94-.39,4.46.57,6.48.37,1.37-.14,2.48-1.25,4.22-1.08a12.19,12.19,0,0,1-4.38-2.1" fill="none" stroke="#231f20" stroke-linecap="round" stroke-linejoin="round" stroke-width="1.093"/><path d="M126.97,39.92c-1.02,1.14-.9,2.37.85,2.34,2.1-.18,2.16,2.21.97,3.28a2,2,0,0,0,.64,3.14,2.082,2.082,0,0,1,.62,3.71c-1.81,1.19-.85,2.49.12,3.5,1.74,1.54,1.72,3.1.33,3.69-1.96.83-1.08,2.59-.38,3.28,1.44,1.8.99,4.27-.82,4.18-1.24-.04-1.64,2.25-.77,3.02,2.44,2.24.18,3.33-1.11,3.17-3.66-.3-2.02,1.99-1.43,2.73.32.43.55,3.88-1.7,2.42-2.58-1.61-2.31,2.26-2.2,2.21,1.09-.32-.47,4.03-1.99,2.69-1.47-1.22-2.93-.18-2.58,1.94.52,2.19-1.29,3.39-3.04,2.14-3.23-2.18-.89,2.08-2.79,2.74-.71,1.86-2.91-4.31-4.02.14-.49,2.05-2.33,2.54-3.65.69-1.16-1.78-2.93-1.46-3.08.45-.21,2.08-4.42.16-3.32-.44,0,0-2.58-2.89-3.23.09-.52,2.63-2.83.06-2.92-.47-.13-.94-.62-3.72-2.96-.88-.78,1.04-3.14,1.9-3.04-1.41.05-1.16-1.86-2.48-2.7-1.56-1.2,1.36-3.28-.03-3.45-2.38-.12-.94-.77-2.8-2.62-2.02-1.5.63-2.64-.45-2.53-2.76-.05-1.4-.2-3.04-2.31-2.57A2.074,2.074,0,0,1,69.51,74a1.881,1.881,0,0,0-1.8-2.65c-1.59.1-3.47-2.08-1.67-2.98,1.22-.66.89-2.08-1.02-2.41-1.79-.38-2.3-1.58-1.13-2.36a1.3,1.3,0,0,0-.8-2.22c-2.04.01-2.16-2.21-.98-3.28a1.873,1.873,0,0,0-.64-3.13,2.073,2.073,0,0,1-.5-3.76c1.81-1.19.74-2.44-.23-3.45-1.79-1.66-1.72-3.11-.22-3.74,1.85-.78.97-2.54.33-3.41-1.51-1.63-1.1-4.22.76-4.01,1.19-.08,1.63-2.25.77-3.02-2.49-2.36-.23-3.45,1.06-3.29,3.71.42,1.97-2.11,1.43-2.73-.32-.43-.55-3.88,1.7-2.42,2.58,1.61,2.31-2.26,2.26-2.37-1.51-.36.1-4.59,1.99-2.69a1.555,1.555,0,1,0,2.47-1.89,1.615,1.615,0,0,1,2.58-1.94c.59.75,3.02,1.99,2.41-.74-.64-3.13,1.39-1.86,2.48-.9a1.444,1.444,0,0,0,2.39-1.43c-.7-1.98,2.49-2.47,3.65-.69,1.33,1.85,3.05,1.41,3.19-.5s4.35.01,3.32.45c-.11.05,2.51,3.05,3.16.08.52-2.63,2.83-.06,2.92.47.07.82.67,3.83,2.96.88.79-1.04,3.15-1.9,3.1,1.53-.06,1.16,1.81,2.36,2.7,1.56,1.14-1.48,3.28.04,3.52,2.21.06,1.11.71,2.97,2.67,2.14,1.39-.59,2.47.37,2.41,2.81.05,1.4.31,2.99,2.43,2.52a2.08,2.08,0,0,1,2.23,3.03,1.994,1.994,0,0,0,1.8,2.65c1.59-.1,2.88,1.34,1.67,2.99-1.27,1.81-.28,2.25.91,2.17C128.55,37.55,128.33,38.63,126.97,39.92Z" fill="#e58a2d" fill-rule="evenodd"/><path d="M126.62,40.07c-.9,1.09-.79,2.32.92,2.17,1.99-.13,2.21,2.33,1.03,3.4a1.763,1.763,0,0,0,.59,3.02,2.121,2.121,0,0,1,.62,3.72c-1.81,1.19-.85,2.49.12,3.5,1.74,1.54,1.72,3.1.33,3.69-1.96.83-1.08,2.59-.38,3.28,1.39,1.68.94,4.15-.87,4.06-1.08.03-1.52,2.2-.77,3.02,2.44,2.23.3,3.28-1.06,3.29-3.6-.47-1.95,1.82-1.42,2.44.37.55.6,4-1.65,2.54-2.63-1.73-2.31,2.25-2.2,2.2,1.09-.32-.52,3.91-1.99,2.69s-2.98-.3-2.47,1.89c.35,2.12-1.34,3.26-3.04,2.13-3.23-2.18-.89,2.08-2.79,2.74-.76,1.74-2.91-4.31-3.91.09-.54,1.94-2.49,2.47-3.65.69-1.33-1.85-3.05-1.41-3.19.5s-4.3.11-3.32-.45c.11-.05-2.51-3.05-3.11.04-.52,2.63-2.83.06-2.97-.59-.07-.82-.56-3.59-2.74-.69-.84.92-3.2,1.78-3.1-1.53-.06-1.11-1.93-2.31-2.7-1.56-1.2,1.36-3.28-.04-3.4-2.26-.13-.94-.77-2.8-2.62-2.02-1.5.63-2.52-.49-2.53-2.76-.05-1.4-.2-3.04-2.31-2.57a2.1,2.1,0,0,1-2.35-2.98c.5-1.06-.21-2.75-1.63-2.58-1.7.15-3.58-2.03-1.84-3.06,1.22-.66.89-2.08-.97-2.29-1.79-.38-2.3-1.58-1.13-2.36a1.269,1.269,0,0,0-.8-2.22c-1.92-.04-2.16-2.21-.86-3.33a1.782,1.782,0,0,0-.71-2.96,2.092,2.092,0,0,1-.5-3.76c1.81-1.19.74-2.44-.23-3.45-1.62-1.59-1.72-3.11-.22-3.74,1.85-.78.97-2.54.38-3.28-1.51-1.63-1.1-4.22.71-4.13,1.13.09,1.52-2.2.82-2.9-2.49-2.35-.23-3.45,1.06-3.29,3.6.47,1.9-1.94,1.31-2.68-.32-.43-.55-3.88,1.7-2.42,2.58,1.6,2.31-2.26,2.2-2.21-1.45-.53.17-4.76,1.99-2.69a1.615,1.615,0,0,0,2.58-1.94,1.556,1.556,0,1,1,2.47-1.89c.59.75,2.97,1.87,2.41-.74-.64-3.13,1.34-1.98,2.42-1.02a1.434,1.434,0,0,0,2.44-1.31c-.7-1.98,2.38-2.42,3.65-.69,1.21,1.9,2.93,1.46,3.08-.45s4.3-.12,3.32.44c-.12.05,2.46,2.93,3.11-.04.52-2.63,2.83-.06,2.92.47.12.94.67,3.83,2.84.93.9-1.09,3.15-1.89,3.1,1.53.01.99,1.93,2.31,2.65,1.44,1.2-1.36,3.33.15,3.57,2.33.01.99.66,2.84,2.62,2.02,1.39-.59,2.52.5,2.41,2.82.05,1.4.31,2.99,2.43,2.52a2.1,2.1,0,0,1,2.23,3.03,1.77,1.77,0,0,0,1.75,2.53c1.59-.1,2.93,1.46,1.67,2.99-1.27,1.81-.28,2.25.8,2.22C128.32,37.65,127.98,38.78,126.62,40.07Z" fill="#e58b2d" fill-rule="evenodd"/><path d="M126.39,40.16c-.9,1.09-.9,2.37.92,2.17,1.99-.13,2.16,2.21.86,3.33a1.792,1.792,0,0,0,.71,2.97,2.09,2.09,0,0,1,.5,3.76c-1.7,1.14-.74,2.44.23,3.45,1.74,1.54,1.67,2.99.28,3.57-1.96.83-.97,2.54-.38,3.28,1.39,1.68,1.1,4.22-.7,4.13-1.24-.04-1.63,2.25-.82,2.9,2.28,2.16.18,3.33-1.06,3.29-3.6-.47-1.95,1.82-1.42,2.44.32.43.55,3.88-1.7,2.42-2.58-1.61-2.31,2.26-2.2,2.21,1.09-.32-.53,3.91-2,2.69-1.42-1.1-2.82-.23-2.47,1.89a1.918,1.918,0,0,1-3.04,2.14c-3.12-2.23-.77,2.03-2.67,2.69-.76,1.74-2.91-4.31-3.91.09-.55,1.93-2.38,2.43-3.65.69-1.16-1.78-2.88-1.34-3.08.45-.15,1.91-4.31.11-3.32-.44.12-.05-2.46-2.94-3.11.04-.41,2.58-2.72.01-2.81-.52-.07-.82-.68-3.54-2.86-.64-.84.92-3.13,1.61-2.98-1.58-.01-.99-1.93-2.31-2.65-1.44-1.2,1.36-3.33-.15-3.57-2.33-.01-.99-.66-2.85-2.5-2.07-1.39.59-2.47-.38-2.48-2.64-.05-1.4-.2-3.04-2.31-2.57a2.094,2.094,0,0,1-2.35-2.98,1.788,1.788,0,0,0-1.63-2.57c-1.59.1-3.41-1.96-1.67-2.99,1.1-.61.89-2.08-.97-2.29-1.79-.38-2.3-1.58-1.13-2.36.76-.46.33-2.13-.75-2.1a1.783,1.783,0,0,1-.98-3.28,1.8,1.8,0,0,0-.71-2.97,2.081,2.081,0,0,1-.5-3.76c1.81-1.19.74-2.44-.23-3.45-1.62-1.59-1.55-3.03-.17-3.62,1.85-.78.92-2.66.27-3.24-1.39-1.68-.99-4.27.82-4.18,1.13.09,1.52-2.2.82-2.9-2.49-2.35-.35-3.4.95-3.24,3.6.47,2.02-1.99,1.48-2.61-.32-.43-.55-3.88,1.58-2.37,2.58,1.61,2.31-2.26,2.15-2.33-1.39-.4.22-4.64,1.99-2.69a1.555,1.555,0,1,0,2.47-1.89,1.6,1.6,0,0,1,2.63-1.82c.54.63,2.8,1.8,2.3-.68-.64-3.14,1.34-1.99,2.42-1.02,1.42,1.1,2.78-.18,2.32-1.27-.58-2.03,2.44-2.59,3.6-.81,1.33,1.85,2.93,1.46,3.08-.45.2-1.79,4.31-.11,3.32.45-.12.05,2.52,3.05,3.16.08.52-2.63,2.83-.06,2.92.47.07.82.62,3.71,2.79.81.78-1.04,3.03-1.85,3.1,1.53-.1,1.04,1.81,2.36,2.65,1.44,1.19-1.36,3.22.2,3.45,2.37.07.82.66,2.85,2.62,2.02,1.38-.58,2.47.38,2.36,2.69.04,1.4.31,2.99,2.31,2.57a2.082,2.082,0,0,1,2.35,2.98,1.8,1.8,0,0,0,1.63,2.58,1.808,1.808,0,0,1,1.78,2.94c-1.32,1.7-.33,2.13.75,2.1C127.97,37.79,127.75,38.88,126.39,40.16Z" fill="#e78e2c" fill-rule="evenodd"/><path d="M126.16,40.26c-.95.97-.9,2.37.8,2.22,1.98-.13,2.16,2.21.98,3.28-1.12.9-.41,2.58.71,2.96a2.005,2.005,0,0,1,.45,3.64c-1.7,1.14-.74,2.44.18,3.33,1.67,1.71,1.72,3.11.33,3.69-1.96.83-.97,2.54-.38,3.28,1.34,1.56,1.05,4.1-.76,4.01-1.13-.09-1.52,2.2-.81,2.9,2.44,2.23.3,3.28-.95,3.24-3.6-.47-2.07,1.87-1.53,2.49.32.43.55,3.88-1.58,2.37-2.58-1.61-2.31,2.26-2.2,2.21,1.09-.32-.53,3.91-2,2.69-1.35-1.27-2.87-.35-2.35,1.84.35,2.12-1.34,3.27-3.04,2.14-3.12-2.23-.83,1.91-2.72,2.57-.76,1.74-2.74-4.24-3.86.21-.55,1.93-2.38,2.43-3.54.64-1.33-1.85-2.93-1.46-3.08.45s-4.31.11-3.32-.44c.12-.05-2.46-2.94-3.11.04-.4,2.58-2.72.01-2.8-.52-.07-.82-.57-3.59-2.74-.69-.84.92-3.08,1.73-3.1-1.53.11-1.04-1.81-2.36-2.65-1.44-1.2,1.36-3.21-.2-3.4-2.25-.01-.99-.66-2.85-2.5-2.07-1.39.59-2.47-.38-2.53-2.77.12-1.33-.14-2.92-2.26-2.45a2.079,2.079,0,0,1-2.3-2.86c.5-1.06-.21-2.75-1.63-2.57-1.59.1-3.47-2.08-1.67-2.99,1.22-.66.89-2.08-.97-2.29-1.79-.38-2.3-1.58-1.13-2.36a1.2,1.2,0,0,0-.75-2.1c-2.04.01-2.16-2.21-.98-3.28a1.792,1.792,0,0,0-.71-2.97,2.061,2.061,0,0,1-.45-3.64c1.81-1.19.85-2.49-.23-3.45-1.62-1.59-1.55-3.03-.17-3.62,1.85-.78.97-2.54.27-3.24-1.39-1.68-1.05-4.1.76-4.01,1.24.04,1.63-2.25.82-2.9-2.38-2.4-.23-3.45,1.06-3.29,3.6.47,1.9-1.94,1.37-2.56-.32-.43-.55-3.88,1.58-2.37,2.58,1.61,2.31-2.26,2.2-2.21-1.44-.52.22-4.63,2-2.69a1.556,1.556,0,0,0,2.47-1.89,1.555,1.555,0,1,1,2.47-1.89c.59.75,2.85,1.92,2.3-.69-.64-3.13,1.39-1.86,2.42-1.02,1.42,1.1,2.78-.18,2.32-1.26-.65-1.86,2.38-2.43,3.65-.69,1.21,1.9,2.93,1.46,2.96-.4.15-1.91,4.31-.11,3.32.44-.12.05,2.46,2.93,3.11-.04.41-2.58,2.72-.01,2.8.52.08.82.73,3.67,2.91.76.78-1.04,3.03-1.85,2.98,1.58.01.99,1.93,2.31,2.65,1.44,1.2-1.36,3.17.08,3.4,2.25.12.94.66,2.85,2.62,2.02,1.39-.59,2.36.42,2.36,2.69.05,1.4.31,2.99,2.31,2.57a2,2,0,0,1,2.3,2.86,1.8,1.8,0,0,0,1.63,2.58c1.59-.1,2.88,1.34,1.67,2.99s-.21,2.08.92,2.17C127.74,37.89,127.4,39.02,126.16,40.26Z" fill="#e7912c" fill-rule="evenodd"/><path d="M125.81,40.41c-.95.97-.84,2.2.92,2.17,1.94-.25,2.11,2.09.92,3.16a1.8,1.8,0,0,0,.71,2.97,2.061,2.061,0,0,1,.45,3.64c-1.7,1.14-.79,2.32.18,3.33,1.62,1.59,1.67,2.99.28,3.57-1.96.83-.97,2.54-.38,3.28,1.39,1.68,1.05,4.1-.76,4.01-1.13-.09-1.52,2.2-.82,2.9,2.44,2.24.3,3.28-.95,3.24-3.6-.47-1.95,1.82-1.42,2.44.32.43.5,3.76-1.58,2.37-2.47-1.66-2.31,2.25-2.2,2.21,1.04-.44-.46,3.74-1.93,2.52-1.42-1.1-2.82-.23-2.47,1.89.47,2.07-1.23,3.22-2.93,2.09-3.12-2.23-.82,1.91-2.72,2.57-.71,1.86-2.69-4.12-3.86.21-.43,1.88-2.26,2.38-3.54.64-1.16-1.78-2.88-1.34-2.96.4-.15,1.91-4.31.11-3.27-.32.12-.05-2.46-2.93-3-.01-.57,2.51-2.83.06-2.92-.47-.08-.82-.57-3.59-2.74-.69-.83.92-3.08,1.73-2.98-1.58-.01-.99-1.93-2.31-2.65-1.44-1.2,1.36-3.16-.08-3.4-2.25-.13-.94-.66-2.85-2.51-2.06-1.39.59-2.47-.38-2.48-2.64.07-1.45-.14-2.92-2.26-2.45a2,2,0,0,1-2.18-2.91,1.87,1.87,0,0,0-1.75-2.53c-1.59.1-3.3-2.01-1.62-2.87,1.22-.66.89-2.08-1.02-2.41-1.74-.26-2.25-1.46-1.08-2.24a1.2,1.2,0,0,0-.75-2.1c-1.92-.04-2.16-2.21-.98-3.28a1.734,1.734,0,0,0-.54-2.89A2.12,2.12,0,0,1,62,51.17c1.86-1.07.9-2.37-.18-3.33-1.62-1.58-1.55-3.03-.17-3.62,1.85-.78.85-2.49.32-3.12-1.39-1.68-1.05-4.1.76-4.01,1.08-.03,1.52-2.2.82-2.9-2.44-2.23-.35-3.4.95-3.24,3.6.47,1.9-1.94,1.37-2.56-.32-.43-.5-3.76,1.7-2.42,2.47,1.65,2.25-2.09,2.08-2.16-1.4-.4.22-4.63,2-2.69a1.477,1.477,0,1,0,2.4-1.72,1.551,1.551,0,1,1,2.46-1.89c.59.75,2.92,1.75,2.3-.68-.64-3.14,1.34-1.98,2.42-1.02,1.42,1.1,2.66-.13,2.32-1.27-.7-1.98,2.38-2.42,3.54-.64,1.28,1.73,2.88,1.34,3.03-.57.2-1.79,4.19-.07,3.2.49-.12.05,2.58,2.88,3.11-.04.46-2.46,2.72-.01,2.8.52.08.82.62,3.72,2.79.81.79-1.04,3.08-1.72,2.98,1.58.01.99,1.88,2.19,2.65,1.44,1.2-1.36,3.17.08,3.4,2.25.08.82.61,2.73,2.57,1.9,1.39-.59,2.36.42,2.36,2.69.05,1.4.31,2.99,2.26,2.45a2.186,2.186,0,0,1,2.35,2.98,1.677,1.677,0,0,0,1.58,2.46c1.59-.1,2.88,1.34,1.67,2.99s-.33,2.13.92,2.17C127.39,38.04,127.17,39.12,125.81,40.41Z" fill="#e7912c" fill-rule="evenodd"/><path d="M125.58,40.51c-.95.97-.84,2.2.86,2.05,1.99-.13,2.16,2.21.98,3.28a1.734,1.734,0,0,0,.54,2.89,2,2,0,0,1,.57,3.59c-1.69,1.14-.79,2.32.18,3.33,1.62,1.59,1.55,3.03.28,3.57-1.85.78-.97,2.54-.38,3.28,1.34,1.56,1,3.98-.81,3.89-1.08.03-1.41,2.15-.7,2.85,2.32,2.28.3,3.28-.95,3.24-3.6-.47-1.95,1.82-1.42,2.44.27.31.5,3.76-1.63,2.25-2.36-1.41-2.31,2.25-2.2,2.21,1.09-.32-.46,3.74-1.88,2.64-1.47-1.22-2.87-.35-2.35,1.85.3,2-1.39,3.14-2.98,1.97-3.07-2.11-.77,2.03-2.67,2.69-.65,1.69-2.74-4.24-3.79.04-.54,1.94-2.38,2.43-3.49.76-1.33-1.85-2.93-1.46-3.08.45-.2,1.79-4.19.07-3.2-.49.12-.05-2.36-2.69-3-.01-.52,2.63-2.83.06-2.75-.4-.19-.77-.68-3.55-2.74-.69-.84.92-3.08,1.73-3.1-1.53.11-1.04-1.76-2.24-2.53-1.48-1.2,1.36-3.16-.08-3.35-2.14-.13-.94-.66-2.85-2.51-2.06-1.39.59-2.47-.38-2.48-2.64.07-1.45-.15-2.92-2.26-2.45a2,2,0,0,1-2.18-2.91,1.677,1.677,0,0,0-1.58-2.46c-1.59.1-3.42-1.96-1.67-2.99,1.1-.61.83-1.91-.97-2.29-1.74-.26-2.25-1.46-1.08-2.24.76-.46.38-2-.75-2.1-2.04.01-2.11-2.09-.92-3.16a1.679,1.679,0,0,0-.66-2.84,2.12,2.12,0,0,1-.62-3.71c1.86-1.07.9-2.37-.13-3.21-1.62-1.59-1.55-3.03-.17-3.62,1.85-.78.85-2.49.27-3.24-1.34-1.56-1-3.98.76-4.01,1.13.09,1.57-2.08.75-2.73-2.32-2.28-.18-3.33,1.06-3.29,3.48.52,1.79-1.89,1.37-2.56-.43-.38-.62-3.71,1.63-2.25,2.42,1.53,2.2-2.21,2.08-2.16-1.45-.52.1-4.59,1.88-2.64a1.558,1.558,0,0,0,2.47-1.89,1.54,1.54,0,1,1,2.52-1.77c.54.62,2.8,1.8,2.3-.69-.76-3.09,1.22-1.94,2.31-.98a1.392,1.392,0,0,0,2.32-1.27c-.7-1.98,2.26-2.38,3.49-.76,1.16,1.78,2.76,1.39,2.96-.4.15-1.91,4.19-.07,3.2.49-.11.05,2.53,2.76,3.11-.04.41-2.58,2.67-.13,2.75.4.07.82.62,3.71,2.79.81.84-.92,2.97-1.68,2.98,1.58.01.99,1.76,2.24,2.48,1.37,1.25-1.24,3.22.2,3.4,2.25.13.94.77,2.8,2.62,2.02,1.27-.54,2.36.42,2.36,2.69,0,1.28.26,2.87,2.21,2.33a2.115,2.115,0,0,1,2.23,3.03,1.764,1.764,0,0,0,1.7,2.41c1.59-.1,2.76,1.39,1.62,2.87-1.16,1.77-.28,2.25.8,2.22C127.16,38.13,126.89,39.1,125.58,40.51Z" fill="#e9952b" fill-rule="evenodd"/><path d="M125.35,40.6c-.95.97-.84,2.2.86,2.05,1.87-.08,2.04,2.26.81,3.21a1.9,1.9,0,0,0,.71,2.96,1.9,1.9,0,0,1,.51,3.47c-1.69,1.14-.79,2.32.18,3.33,1.62,1.59,1.55,3.03.28,3.57-1.85.78-1.02,2.42-.43,3.16,1.34,1.56,1,3.98-.64,3.96-1.13-.09-1.57,2.08-.87,2.78,2.44,2.23.3,3.28-1,3.12-3.43-.4-1.79,1.89-1.3,2.39.32.44.5,3.76-1.59,2.37-2.37-1.41-2.2,2.21-2.2,2.21,1.09-.32-.46,3.74-1.93,2.52-1.3-1.15-2.7-.28-2.35,1.85.47,2.07-1.28,3.09-2.81,2.04-3.07-2.11-.82,1.91-2.72,2.57-.65,1.69-2.69-4.12-3.74.16-.55,1.93-2.26,2.38-3.54.64-1.16-1.78-2.76-1.39-2.96.4-.15,1.91-4.14.19-3.15-.37.11-.05-2.36-2.69-3-.01-.57,2.51-2.72.01-2.81-.52-.02-.7-.63-3.42-2.74-.69-.79,1.04-2.91,1.8-2.93-1.46-.01-.99-1.76-2.24-2.48-1.36-1.25,1.24-3.22-.2-3.4-2.25-.12-.94-.61-2.73-2.45-1.95-1.39.59-2.47-.37-2.48-2.64.07-1.45-.14-2.92-2.15-2.5a1.932,1.932,0,0,1-2.25-2.74,1.788,1.788,0,0,0-1.63-2.57c-1.54.22-3.25-1.89-1.62-2.87,1.1-.61.83-1.91-.97-2.29-1.74-.26-2.25-1.46-1.08-2.24a1.13,1.13,0,0,0-.7-1.98c-1.92-.04-2.16-2.21-.98-3.28a1.663,1.663,0,0,0-.66-2.84,2.039,2.039,0,0,1-.45-3.64c1.75-1.02.79-2.32-.25-3.16-1.62-1.59-1.55-3.04-.17-3.62,1.85-.78.85-2.49.32-3.11-1.39-1.68-1.05-4.1.76-4.01,1.13.09,1.45-2.04.75-2.73-2.32-2.28-.3-3.28.95-3.24,3.48.52,1.9-1.94,1.36-2.56-.27-.31-.57-3.6,1.64-2.25,2.42,1.54,2.25-2.09,2.08-2.16-1.4-.41.15-4.47,1.93-2.52a1.492,1.492,0,0,0,2.35-1.84,1.555,1.555,0,0,1,2.47-1.89c.59.75,2.8,1.8,2.3-.69-.71-2.97,1.27-1.82,2.31-.98a1.354,1.354,0,0,0,2.32-1.26c-.65-1.86,2.26-2.38,3.42-.59,1.28,1.73,2.88,1.34,2.96-.4.15-1.91,4.14-.19,3.15.37,0,0,2.53,2.77,3.11-.04.46-2.47,2.72-.01,2.76.4.07.82.62,3.71,2.67.86.83-.92,3.08-1.73,2.98,1.58.01.99,1.88,2.19,2.6,1.32,1.08-1.31,3.05.13,3.29,2.3.07.82.72,2.68,2.57,1.9,1.27-.54,2.36.43,2.36,2.69-.01,1.28.26,2.87,2.21,2.33a2.013,2.013,0,0,1,2.18,2.91c-.39,1.02.27,2.58,1.58,2.45,1.59-.1,2.88,1.34,1.78,2.94-1.33,1.7-.33,2.12.75,2.1C126.93,38.23,126.55,39.24,125.35,40.6Z" fill="#ea972b" fill-rule="evenodd"/><path d="M125.12,40.7c-.95.97-.84,2.2.75,2.1,1.99-.13,2.11,2.09.92,3.16a1.663,1.663,0,0,0,.66,2.84,2.047,2.047,0,0,1,.56,3.59c-1.75,1.02-.84,2.2.13,3.21,1.62,1.59,1.5,2.91.23,3.45-1.85.78-.97,2.54-.43,3.16,1.39,1.68,1.17,4.05-.64,3.96-1.13-.09-1.45,2.03-.75,2.73,2.33,2.28.3,3.28-1,3.12-3.43-.4-1.9,1.94-1.42,2.44.32.43.62,3.71-1.58,2.37-2.3-1.58-2.13,2.04-2.13,2.04,1.09-.32-.46,3.74-1.76,2.59-1.42-1.1-2.82-.23-2.4,1.72.35,2.12-1.23,3.22-2.93,2.09-2.95-2.16-.82,1.91-2.61,2.52-.65,1.69-2.69-4.12-3.74.16-.43,1.89-2.26,2.38-3.42.59-1.22-1.61-2.83-1.22-2.91.52-.2,1.79-4.19.07-3.2-.49.12-.05-2.36-2.69-2.95.11-.46,2.46-2.72.01-2.81-.52-.02-.7-.51-3.47-2.62-.74-.78,1.04-3.03,1.85-2.93-1.46-.01-.99-1.88-2.19-2.6-1.32-1.08,1.31-3.05-.13-3.28-2.3-.07-.82-.61-2.73-2.46-1.95-1.39.59-2.42-.25-2.31-2.57-.05-1.4-.26-2.87-2.21-2.33a2.079,2.079,0,0,1-2.3-2.86,1.675,1.675,0,0,0-1.58-2.46c-1.47.05-3.3-2.01-1.62-2.87,1.1-.61.94-1.96-.97-2.29-1.63-.31-2.14-1.51-1.08-2.24a1.107,1.107,0,0,0-.7-1.98c-1.92-.04-1.99-2.14-.93-3.16a1.68,1.68,0,0,0-.66-2.85,2.074,2.074,0,0,1-.45-3.64c1.75-1.02.79-2.32-.13-3.21-1.74-1.54-1.67-2.99-.28-3.57,1.85-.78.9-2.37.32-3.11-1.34-1.56-1-3.98.69-3.84,1.13.09,1.57-2.08.87-2.78-2.44-2.23-.3-3.28,1-3.12,3.43.4,1.79-1.89,1.25-2.52-.32-.43-.5-3.76,1.58-2.37,2.42,1.53,2.25-2.09,2.08-2.16-1.39-.4.21-4.35,1.93-2.52a1.5,1.5,0,0,0,2.35-1.85,1.477,1.477,0,1,1,2.4-1.72c.54.63,2.8,1.8,2.3-.69-.71-2.97,1.27-1.82,2.31-.98a1.307,1.307,0,0,0,2.21-1.22c-.65-1.86,2.26-2.38,3.49-.76,1.16,1.78,2.76,1.39,2.96-.4.08-1.74,4.07-.02,3.03.42,0,0,2.53,2.77,3,.01.57-2.51,2.72-.01,2.8.52.07.82.68,3.55,2.79.81.78-1.04,2.91-1.8,2.93,1.46.01.99,1.76,2.24,2.48,1.36,1.2-1.36,3.05.13,3.24,2.18.12.94.72,2.68,2.57,1.9,1.27-.54,2.36.43,2.36,2.69,0,1.28.26,2.87,2.21,2.33a2.05,2.05,0,0,1,2.18,2.91,1.685,1.685,0,0,0,1.58,2.46,1.73,1.73,0,0,1,1.62,2.86c-1.21,1.65-.21,2.08.86,2.05C126.58,38.38,126.31,39.34,125.12,40.7Z" fill="#ec992b" fill-rule="evenodd"/><path d="M124.77,40.85c-.84.92-.84,2.2.86,2.05,1.82-.2,2.11,2.09.88,3.04a1.686,1.686,0,0,0,.66,2.85,2.091,2.091,0,0,1,.57,3.59c-1.75,1.02-.84,2.2.13,3.21,1.57,1.47,1.5,2.92.23,3.45-1.85.78-1.02,2.42-.32,3.11,1.23,1.61,1,3.98-.81,3.89-1.08.03-1.45,2.03-.75,2.73,2.32,2.28.3,3.28-1,3.12-3.32-.45-1.79,1.89-1.25,2.52.27.31.51,3.47-1.68,2.13-2.25-1.46-2.08,2.16-1.97,2.11.98-.27-.51,3.62-1.93,2.52-1.3-1.15-2.7-.28-2.35,1.84.42,1.95-1.28,3.1-2.87,1.92-3.02-1.99-.77,2.03-2.56,2.64-.7,1.57-2.69-4.12-3.79.04-.43,1.88-2.26,2.38-3.37.71-1.16-1.78-2.76-1.39-2.96.4-.08,1.74-4.02.14-3.04-.42.11-.05-2.36-2.69-3-.01-.46,2.46-2.67.13-2.7-.28-.07-.82-.57-3.6-2.68-.86-.78,1.04-2.91,1.8-2.93-1.46-.01-.99-1.71-2.12-2.48-1.36-1.08,1.31-3.05-.13-3.23-2.18-.13-.94-.72-2.68-2.45-1.94-1.39.59-2.36-.43-2.31-2.57-.05-1.4-.26-2.87-2.21-2.33a2.013,2.013,0,0,1-2.18-2.91,1.8,1.8,0,0,0-1.58-2.46c-1.54.22-3.25-1.89-1.68-2.7,1.22-.66.89-2.08-.85-2.34s-2.25-1.46-1.08-2.24a1.125,1.125,0,0,0-.81-1.93c-1.81-.09-1.99-2.14-.81-3.21a1.659,1.659,0,0,0-.61-2.72,2.014,2.014,0,0,1-.57-3.59c1.75-1.02.79-2.32-.13-3.21-1.57-1.47-1.62-2.87-.23-3.45,1.73-.73.85-2.49.32-3.11-1.34-1.56-1-3.98.69-3.84,1.08-.03,1.45-2.03.75-2.73-2.32-2.28-.3-3.28.99-3.12,3.43.39,1.79-1.89,1.25-2.52-.32-.43-.45-3.64,1.63-2.25,2.42,1.53,2.2-2.2,2.08-2.16-1.39-.4.15-4.47,1.81-2.47,1.19,1.2,3.51-.06,2.35-1.84a1.557,1.557,0,0,1,2.47-1.89c.47.79,2.68,1.85,2.18-.64-.54-2.89,1.27-1.82,2.36-.86a1.305,1.305,0,0,0,2.16-1.34c-.65-1.86,2.31-2.26,3.43-.6,1.27,1.73,2.88,1.34,2.96-.4.15-1.91,4.02-.14,3.15.37-.11.05,2.41,2.81,2.88.06.57-2.51,2.66-.13,2.75.4.07.82.68,3.54,2.68.86.78-1.04,2.91-1.8,2.93,1.46.01.99,1.71,2.12,2.48,1.36,1.2-1.36,3.05.13,3.35,2.14-.04.87.61,2.72,2.45,1.94,1.27-.54,2.36.42,2.31,2.57,0,1.28.26,2.87,2.21,2.33a2.09,2.09,0,0,1,2.18,2.91,1.568,1.568,0,0,0,1.53,2.33,1.738,1.738,0,0,1,1.62,2.87c-1.21,1.65-.21,2.08.75,2.1C126.35,38.47,125.97,39.49,124.77,40.85Z" fill="#ed9b2b" fill-rule="evenodd"/><path d="M124.54,40.94c-.95.97-.89,2.08.81,1.93,1.87-.08,1.99,2.14.93,3.16a1.672,1.672,0,0,0,.66,2.85,1.984,1.984,0,0,1,.4,3.52c-1.63.97-.72,2.15.25,3.16,1.57,1.47,1.5,2.92.23,3.45-1.85.78-.9,2.37-.37,2.99,1.23,1.61,1,3.98-.69,3.84-1.08.03-1.57,2.08-.75,2.73,2.27,2.16.18,3.33-1,3.12-3.43-.4-1.79,1.89-1.25,2.52.27.31.4,3.52-1.68,2.13-2.25-1.46-2.08,2.16-1.97,2.11.92-.39-.51,3.62-1.93,2.52-1.3-1.15-2.7-.28-2.29,1.68s-1.28,3.1-2.81,2.04c-3.07-2.11-.83,1.91-2.61,2.52-.65,1.69-2.64-4-3.62.11-.48,1.76-2.31,2.25-3.43.59-1.22-1.61-2.71-1.27-2.91.52-.08,1.74-4.07.02-3.04-.42.12-.05-2.36-2.69-3-.01-.45,2.46-2.55.08-2.59-.33-.07-.82-.68-3.55-2.79-.81-.67.99-2.85,1.63-2.81-1.51-.01-.99-1.71-2.12-2.48-1.36-1.08,1.31-3.05-.13-3.24-2.18-.07-.82-.67-2.55-2.4-1.82-1.39.59-2.36-.43-2.31-2.57-.05-1.4-.26-2.87-2.21-2.33a1.959,1.959,0,0,1-2.13-2.79c.39-1.01-.27-2.58-1.58-2.46-1.59.1-3.25-1.89-1.62-2.87,1.1-.61.83-1.91-.91-2.17s-2.25-1.46-1.08-2.24a1.127,1.127,0,0,0-.7-1.98c-1.92-.04-2.06-1.97-.87-3.04a1.79,1.79,0,0,0-.66-2.85,1.968,1.968,0,0,1-.52-3.48c1.7-1.14.84-2.2-.13-3.21-1.57-1.47-1.62-2.87-.23-3.45,1.73-.73.9-2.37.32-3.11-1.34-1.56-.95-3.86.74-3.72,1.08-.03,1.4-2.15.7-2.85-2.27-2.16-.25-3.16.93-2.95,3.43.39,1.9-1.94,1.37-2.56-.32-.43-.57-3.59,1.52-2.2,2.42,1.54,2.25-2.09,2.08-2.16-1.39-.4.21-4.35,1.82-2.47,1.24,1.32,3.51-.06,2.4-1.72a1.5,1.5,0,1,1,2.35-1.85c.54.63,2.69,1.85,2.18-.64-.59-3.01,1.27-1.81,2.31-.98a1.31,1.31,0,0,0,2.21-1.22c-.65-1.86,2.26-2.38,3.43-.59,1.11,1.66,2.71,1.27,2.79-.47.2-1.79,4.02-.14,3.15.37-.12.05,2.41,2.81,2.88.06.46-2.46,2.66-.13,2.75.4.07.82.57,3.59,2.68.86.67-.99,2.91-1.8,2.88,1.34-.11,1.04,1.76,2.24,2.53,1.48,1.08-1.31,2.88.06,3.18,2.06.13.94.61,2.72,2.45,1.94,1.27-.54,2.36.42,2.31,2.57.05,1.4.21,2.75,2.09,2.38a1.989,1.989,0,0,1,2.25,2.74,1.676,1.676,0,0,0,1.58,2.45c1.47-.06,2.71,1.27,1.57,2.74-1.21,1.65-.33,2.12.75,2.1C126.01,38.62,125.74,39.59,124.54,40.94Z" fill="#ed9c2a" fill-rule="evenodd"/><path d="M124.31,41.04c-.95.97-.89,2.08.7,1.98,1.87-.08,2.11,2.09.92,3.16a1.651,1.651,0,0,0,.61,2.72,1.924,1.924,0,0,1,.51,3.47c-1.63.97-.73,2.15.25,3.16,1.57,1.47,1.45,2.79.18,3.33-1.85.78-.9,2.37-.32,3.11,1.34,1.56.95,3.86-.69,3.84-1.13-.09-1.46,2.03-.8,2.61,2.27,2.16.3,3.28-.88,3.07-3.43-.39-1.79,1.89-1.42,2.44.32.43.51,3.47-1.52,2.2-2.25-1.46-2.13,2.04-2.02,1.99,1.09-.32-.51,3.62-1.81,2.47-1.42-1.1-2.7-.28-2.35,1.84.42,1.96-1.21,2.93-2.75,1.87-3.02-1.99-.82,1.91-2.61,2.52-.65,1.69-2.64-4-3.63.11-.43,1.89-2.26,2.38-3.37.71-1.16-1.78-2.76-1.39-2.85.35-.2,1.79-4.02.14-3.04-.42.12-.05-2.31-2.57-2.95.11-.51,2.34-2.55.08-2.64-.45-.03-.7-.63-3.42-2.63-.74-.67.99-2.97,1.68-2.81-1.51.04-.87-1.83-2.07-2.43-1.25-1.25,1.24-3.05-.13-3.24-2.18-.12-.94-.72-2.68-2.45-1.94-1.39.59-2.31-.3-2.26-2.45-.05-1.4-.26-2.87-2.21-2.33a2,2,0,0,1-2.13-2.79,1.562,1.562,0,0,0-1.53-2.33c-1.47.05-3.13-1.94-1.62-2.87,1.1-.61.83-1.91-.91-2.17-1.63-.31-2.14-1.51-1.03-2.12a1.133,1.133,0,0,0-.7-1.98c-1.81-.09-1.99-2.14-.92-3.16a1.572,1.572,0,0,0-.61-2.73,1.979,1.979,0,0,1-.51-3.47c1.69-1.14.84-2.2-.13-3.21-1.57-1.47-1.62-2.86-.23-3.45,1.73-.73.9-2.37.37-3-1.34-1.56-1.06-3.81.69-3.84,1.01.14,1.45-2.04.75-2.73-2.39-2.11-.25-3.16.93-2.95,3.32.45,1.79-1.89,1.25-2.52-.27-.31-.51-3.47,1.52-2.2,2.42,1.53,2.13-2.04,2.13-2.04-1.39-.4.09-4.3,1.81-2.47A1.433,1.433,0,0,0,75.16,21a1.477,1.477,0,1,1,2.4-1.72c.54.62,2.75,1.68,2.18-.64-.59-3.01,1.27-1.82,2.31-.98a1.31,1.31,0,0,0,2.21-1.22c-.65-1.86,2.15-2.33,3.26-.67,1.27,1.73,2.76,1.39,2.96-.4.08-1.74,4.02-.14,3.03.42-.12.05,2.36,2.69,2.83-.06.51-2.34,2.6.04,2.64.45.19.77.68,3.55,2.79.81.67-.99,2.8-1.75,2.76,1.39.01.99,1.76,2.24,2.48,1.37,1.13-1.19,3.05.13,3.24,2.18.07.82.55,2.61,2.4,1.83,1.27-.54,2.36.42,2.31,2.57.05,1.4.21,2.75,2.09,2.38a1.916,1.916,0,0,1,2.13,2.79,1.667,1.667,0,0,0,1.53,2.34,1.73,1.73,0,0,1,1.62,2.86c-1.15,1.48-.26,1.96.81,1.93C125.78,38.72,125.51,39.68,124.31,41.04Z" fill="#ef9f2a" fill-rule="evenodd"/><path d="M123.96,41.19c-.89.8-.77,2.03.81,1.93,1.82-.2,1.94,2.02.88,3.04a1.659,1.659,0,0,0,.61,2.72,1.945,1.945,0,0,1,.51,3.47c-1.58,1.09-.72,2.15.2,3.04,1.51,1.63,1.5,2.91.23,3.45-1.85.78-.9,2.37-.37,2.99,1.34,1.56.95,3.86-.69,3.84-1.13-.09-1.45,2.03-.8,2.61,2.28,2.16.25,3.16-.88,3.07-3.32-.44-1.84,1.77-1.3,2.4.32.43.51,3.47-1.57,2.08-2.2-1.34-2.08,2.16-1.97,2.11,1.09-.32-.51,3.62-1.81,2.47s-2.7-.28-2.29,1.67-1.28,3.1-2.81,2.04c-2.95-2.16-.76,1.74-2.55,2.35-.65,1.69-2.59-3.87-3.57.23-.48,1.76-2.2,2.21-3.31.54s-2.71-1.27-2.79.47c-.2,1.79-4.02.14-3.04-.42,0,0-2.31-2.57-3-.01-.34,2.42-2.5.2-2.59-.33-.07-.82-.51-3.47-2.62-.74-.72.87-2.85,1.63-2.81-1.51.04-.87-1.71-2.12-2.43-1.25-1.13,1.19-2.93-.18-3.12-2.23-.07-.82-.67-2.56-2.4-1.83-1.27.54-2.3-.3-2.31-2.57,0-1.28-.16-2.63-2.16-2.21a1.983,1.983,0,0,1-2.13-2.79,1.566,1.566,0,0,0-1.53-2.33c-1.47.05-3.13-1.94-1.57-2.75,1.1-.61.83-1.91-.8-2.22-1.74-.26-2.25-1.46-1.03-2.12.64-.41.26-1.96-.81-1.93a1.666,1.666,0,0,1-.87-3.04,1.569,1.569,0,0,0-.61-2.72,1.979,1.979,0,0,1-.51-3.47c1.69-1.14.84-2.2-.13-3.21-1.57-1.47-1.45-2.79-.18-3.33,1.73-.73.9-2.37.37-3-1.34-1.56-1.06-3.81.58-3.79,1.13.09,1.45-2.03.75-2.73-2.22-2.04-.25-3.16.93-2.95,3.43.4,1.79-1.89,1.3-2.39-.32-.43-.45-3.64,1.52-2.2,2.37,1.41,2.13-2.04,2.08-2.16-1.4-.4.09-4.3,1.81-2.47a1.42,1.42,0,0,0,2.29-1.68,1.437,1.437,0,1,1,2.24-1.8c.59.75,2.75,1.68,2.18-.64-.54-2.89,1.27-1.81,2.31-.98,1.25,1.03,2.55-.08,2.09-1.17-.6-1.73,2.31-2.26,3.42-.59s2.71,1.27,2.8-.47,4.02-.14,3.04.42c-.12.05,2.36,2.69,2.88.06.46-2.46,2.55-.08,2.64.45.02.7.63,3.43,2.62.74.67-.99,2.85-1.63,2.76,1.39.01.99,1.76,2.24,2.48,1.36,1.13-1.19,3.05.13,3.24,2.18.07.82.56,2.61,2.4,1.83,1.27-.54,2.19.35,2.26,2.45.05,1.4.21,2.75,2.09,2.38a1.95,1.95,0,0,1,2.13,2.79,1.665,1.665,0,0,0,1.53,2.33,1.663,1.663,0,0,1,1.57,2.74c-1.09,1.6-.26,1.96.81,1.93C125.43,38.86,125.16,39.83,123.96,41.19Z" fill="#efa12a" fill-rule="evenodd"/><path d="M123.68,41.17c-.83.92-.72,2.15.86,2.05,1.82-.2,1.94,2.02.88,3.04a1.662,1.662,0,0,0,.6,2.73,1.888,1.888,0,0,1,.46,3.35c-1.58,1.09-.72,2.15.2,3.04,1.46,1.51,1.5,2.91.23,3.45-1.73.73-.96,2.25-.37,3,1.29,1.44.9,3.74-.74,3.72-.96-.02-1.34,1.98-.64,2.68,2.22,2.04.2,3.04-.93,2.95-3.32-.44-1.84,1.77-1.3,2.4.32.43.46,3.35-1.57,2.08-2.2-1.34-2.13,2.04-2.02,1.99,1.09-.32-.39,3.57-1.81,2.47-1.3-1.15-2.7-.28-2.23,1.8.36,1.83-1.21,2.93-2.75,1.87-2.9-2.04-.71,1.86-2.49,2.47-.7,1.57-2.59-3.87-3.63.11a1.733,1.733,0,0,1-3.26.67c-1.16-1.78-2.65-1.44-2.85.35-.08,1.74-3.91.09-2.92-.47,0,0-2.26-2.45-2.83.06-.51,2.34-2.5.2-2.59-.33-.19-.77-.63-3.43-2.62-.74-.72.87-2.85,1.63-2.76-1.39-.01-.99-1.71-2.12-2.48-1.36-1.13,1.19-2.93-.18-3.07-2.11-.13-.94-.67-2.56-2.4-1.83-1.27.54-2.36-.42-2.31-2.57,0-1.28-.16-2.63-2.04-2.26a1.861,1.861,0,0,1-2.08-2.67,1.649,1.649,0,0,0-1.53-2.33c-1.47.05-3.25-1.89-1.57-2.75.99-.56.83-1.91-.91-2.17-1.63-.31-2.08-1.39-1.03-2.12a1.158,1.158,0,0,0-.7-1.98c-1.92-.04-1.94-2.02-.87-3.04A1.651,1.651,0,0,0,65,54.61a1.846,1.846,0,0,1-.46-3.35c1.58-1.09.72-2.15-.2-3.04-1.57-1.47-1.5-2.92-.23-3.45,1.73-.73.9-2.37.37-2.99-1.29-1.44-1.06-3.81.63-3.67,1.08-.03,1.45-2.03.75-2.73-2.22-2.04-.2-3.04.93-2.95,3.32.44,1.72-1.72,1.3-2.39-.32-.43-.52-3.48,1.52-2.21,2.25,1.46,2.02-1.99,2.02-1.99-1.4-.4.09-4.3,1.7-2.42a1.438,1.438,0,0,0,2.24-1.8,1.478,1.478,0,0,1,2.4-1.72c.54.63,2.63,1.73,2.18-.64-.66-2.84,1.16-1.77,2.19-.93a1.227,1.227,0,0,0,2.09-1.17c-.6-1.73,2.2-2.2,3.26-.66,1.11,1.66,2.71,1.27,2.85-.35.2-1.79,4.02-.14,3.03.42-.12.05,2.31,2.57,2.83-.06.51-2.34,2.55-.08,2.64.45.07.82.63,3.42,2.62.74.72-.87,2.85-1.63,2.76,1.39.01.99,1.71,2.12,2.37,1.41,1.08-1.31,3.05.13,3.18,2.06.07.82.67,2.55,2.4,1.82,1.27-.54,2.24.47,2.31,2.57,0,1.28.16,2.63,2.04,2.26a1.881,1.881,0,0,1,2.08,2.67,1.647,1.647,0,0,0,1.53,2.33,1.69,1.69,0,0,1,1.57,2.74c-1.09,1.6-.26,1.96.7,1.98C125.2,38.96,124.93,39.93,123.68,41.17Z" fill="#efa22a" fill-rule="evenodd"/><path d="M123.45,41.26c-.84.92-.73,2.15.86,2.05,1.7-.15,1.94,2.02.82,2.92a1.659,1.659,0,0,0,.61,2.72,1.877,1.877,0,0,1,.46,3.35c-1.58,1.09-.84,2.2.08,3.09,1.57,1.47,1.57,2.75.3,3.28-1.73.73-.9,2.37-.37,2.99,1.34,1.56,1.06,3.81-.63,3.67-1.08.03-1.46,2.03-.75,2.73,2.22,2.04.2,3.04-.93,2.95-3.2-.49-1.72,1.72-1.19,2.35.27.31.46,3.35-1.52,2.21-2.3-1.59-2.18,1.92-2.07,1.87,1.09-.32-.45,3.45-1.81,2.47-1.3-1.15-2.59-.33-2.17,1.63s-1.21,2.93-2.75,1.87c-2.85-1.92-.71,1.86-2.49,2.47-.7,1.57-2.59-3.87-3.51.06-.48,1.77-2.15,2.33-3.26.67s-2.71-1.27-2.79.47c-.13,1.62-3.91.09-2.92-.47,0,0-2.31-2.57-2.78.18-.56,2.22-2.6-.04-2.64-.45-.07-.82-.63-3.42-2.62-.74-.72.87-2.73,1.58-2.76-1.39-.01-.99-1.71-2.12-2.37-1.41-1.08,1.31-2.88-.06-3.18-2.06-.07-.82-.56-2.6-2.29-1.87-1.27.54-2.31-.3-2.26-2.45,0-1.28-.16-2.63-2.04-2.26a1.849,1.849,0,0,1-2.08-2.67,1.659,1.659,0,0,0-1.53-2.33c-1.42.18-3.08-1.82-1.52-2.62,1.1-.61.83-1.91-.91-2.17-1.63-.31-2.09-1.39-1.03-2.12a1.127,1.127,0,0,0-.7-1.98c-1.76.03-1.94-2.02-.82-2.92a1.679,1.679,0,0,0-.61-2.73,1.846,1.846,0,0,1-.46-3.35c1.58-1.09.72-2.15-.2-3.04-1.57-1.47-1.45-2.79-.18-3.33,1.73-.73.79-2.32.25-2.94-1.23-1.61-.95-3.86.74-3.72.96.02,1.34-1.99.64-2.68-2.11-2.09-.2-3.04.93-2.95,3.32.44,1.84-1.77,1.3-2.4-.32-.43-.51-3.47,1.52-2.2,2.3,1.58,2.02-1.99,2.02-1.99-1.4-.4.14-4.18,1.7-2.42a1.42,1.42,0,0,0,2.29-1.68,1.42,1.42,0,0,1,2.29-1.68c.54.62,2.58,1.61,2.13-.76-.61-2.72,1.21-1.65,2.24-.81a1.244,1.244,0,0,0,2.09-1.17c-.65-1.86,2.15-2.33,3.26-.66s2.6,1.32,2.68-.42c.25-1.67,4.02-.14,3.03.42-.12.05,2.36,2.69,2.83-.06.51-2.34,2.55-.08,2.64.45.07.82.63,3.42,2.51.79.72-.87,2.85-1.63,2.76,1.39.01.99,1.71,2.12,2.48,1.37,1.08-1.31,2.88.06,3.07,2.11.07.82.67,2.55,2.4,1.82,1.27-.54,2.19.35,2.15,2.5-.01,1.28.27,2.58,2.16,2.21a1.883,1.883,0,0,1,2.08,2.67,1.675,1.675,0,0,0,1.53,2.34,1.593,1.593,0,0,1,1.52,2.62c-1.21,1.65-.21,2.08.75,2.1C124.85,39.11,124.58,40.07,123.45,41.26Z" fill="#f2a529" fill-rule="evenodd"/><path d="M123.22,41.36c-.95.97-.89,2.08.7,1.98,1.87-.08,1.94,2.02.87,3.04a1.555,1.555,0,0,0,.56,2.61,1.857,1.857,0,0,1,.58,3.3c-1.58,1.09-.84,2.2.08,3.09,1.57,1.47,1.57,2.75.3,3.28-1.73.73-.96,2.25-.37,2.99,1.29,1.44,1.01,3.69-.68,3.55-1.08.03-1.34,1.98-.64,2.68,2.11,2.09.2,3.04-.93,2.95-3.32-.44-1.72,1.72-1.3,2.4.27.31.41,3.23-1.45,2.03-2.25-1.46-2.13,2.04-2.02,1.99,1.04-.44-.45,3.45-1.75,2.3-1.25-1.03-2.65-.16-2.29,1.67.42,1.95-1.21,2.93-2.58,1.94-2.9-2.04-.76,1.74-2.55,2.35-.53,1.65-2.54-3.75-3.46.18-.48,1.76-2.2,2.2-3.31.54-1.06-1.54-2.55-1.19-2.68.42-.08,1.74-3.91.09-2.98-.3.12-.05-2.2-2.62-2.72.01-.56,2.22-2.55.08-2.59-.33-.07-.82-.63-3.42-2.51-.79-.72.87-2.85,1.63-2.76-1.39-.01-.99-1.71-2.12-2.37-1.41-1.08,1.31-2.88-.06-3.13-1.94-.13-.94-.56-2.6-2.29-1.87-1.27.54-2.19-.35-2.26-2.45,0-1.28-.16-2.63-2.04-2.26a1.881,1.881,0,0,1-2.08-2.67,1.543,1.543,0,0,0-1.48-2.21c-1.47.06-3.08-1.82-1.57-2.74,1.1-.61.88-1.79-.86-2.05-1.51-.36-1.97-1.44-.92-2.17a1.061,1.061,0,0,0-.76-1.81c-1.81-.09-1.94-2.02-.87-3.04a1.555,1.555,0,0,0-.56-2.61,1.865,1.865,0,0,1-.46-3.35c1.58-1.09.72-2.15-.2-3.04-1.45-1.51-1.45-2.79-.18-3.33,1.73-.73.79-2.32.25-2.95-1.17-1.49-.9-3.74.74-3.72,1.01.14,1.39-1.87.69-2.56-2.22-2.04-.2-3.04.93-2.95,3.2.49,1.72-1.72,1.19-2.35-.27-.31-.46-3.35,1.57-2.08,2.25,1.46,2.02-1.99,1.85-2.06-1.23-.33.26-4.22,1.86-2.35a1.375,1.375,0,0,0,2.12-1.75,1.417,1.417,0,0,1,2.29-1.67c.54.62,2.63,1.73,2.18-.64-.66-2.84,1.16-1.77,2.19-.93a1.229,1.229,0,0,0,2.09-1.17c-.6-1.73,2.08-2.16,3.14-.62,1.11,1.66,2.71,1.27,2.85-.35.08-1.74,3.91-.09,2.87.35-.11.05,2.36,2.69,2.88.06.39-2.29,2.44-.03,2.47.38.19.77.63,3.43,2.63.74.72-.87,2.73-1.58,2.76,1.39.01.99,1.59,2.16,2.31,1.29,1.13-1.19,2.93.18,3.07,2.11.07.82.67,2.56,2.4,1.83,1.27-.54,2.19.35,2.14,2.5,0,1.28.27,2.58,2.16,2.21a1.843,1.843,0,0,1,1.96,2.72,1.543,1.543,0,0,0,1.48,2.21c1.47-.05,2.71,1.27,1.57,2.74s-.26,1.96.81,1.93C124.62,39.21,124.35,40.17,123.22,41.36Z" fill="#f2a728" fill-rule="evenodd"/><path d="M122.87,41.51c-.83.92-.77,2.03.81,1.93,1.71-.15,1.94,2.02.82,2.92a1.66,1.66,0,0,0,.61,2.73,1.751,1.751,0,0,1,.41,3.23c-1.46,1.05-.72,2.15.2,3.04,1.52,1.35,1.57,2.75.3,3.28-1.73.73-.96,2.25-.42,2.87,1.29,1.44,1.01,3.69-.63,3.67-1.01-.14-1.39,1.86-.69,2.56,2.22,2.04.2,3.04-.98,2.83-3.15-.37-1.67,1.84-1.19,2.35.32.43.46,3.35-1.4,2.15-2.25-1.46-2.07,1.87-2.07,1.87,1.09-.32-.45,3.45-1.7,2.42-1.3-1.15-2.59-.33-2.17,1.63.37,1.83-1.21,2.93-2.75,1.87-2.74-1.97-.76,1.74-2.43,2.3-.53,1.64-2.49-3.63-3.46.18a1.649,1.649,0,0,1-3.14.62c-1.11-1.66-2.6-1.32-2.68.42-.25,1.67-3.91.09-3.04-.42.11-.05-2.14-2.5-2.67.13-.44,2.18-2.43.03-2.52-.49-.14-.65-.58-3.31-2.63-.74-.67.99-2.68,1.7-2.6-1.32-.01-.99-1.71-2.12-2.43-1.25-1.02,1.14-2.82-.23-3.07-2.11-.07-.82-.5-2.48-2.24-1.75-1.27.54-2.24-.47-2.26-2.45,0-1.28-.16-2.63-2.04-2.26a1.814,1.814,0,0,1-2.03-2.55c.39-1.02-.22-2.46-1.42-2.38-1.42.18-3.08-1.82-1.52-2.62.99-.56.71-1.86-.86-2.05-1.63-.31-2.08-1.39-1.03-2.12a1.1,1.1,0,0,0-.65-1.86c-1.81-.09-1.94-2.02-.82-2.92a1.706,1.706,0,0,0-.72-2.68,1.812,1.812,0,0,1-.41-3.23c1.58-1.09.72-2.15-.2-3.04-1.46-1.51-1.45-2.79-.18-3.33,1.73-.73.84-2.2.3-2.83-1.17-1.49-.9-3.74.63-3.67,1.13.09,1.51-1.91.8-2.61-2.22-2.04-.31-2.99.82-2.9,3.32.44,1.72-1.72,1.35-2.27-.32-.43-.52-3.48,1.4-2.16,2.25,1.46,2.02-1.99,1.9-1.94-1.28-.45.14-4.18,1.81-2.47a1.357,1.357,0,1,0,2.17-1.63,1.42,1.42,0,0,1,2.29-1.68c.42.67,2.47,1.66,2.07-.59-.66-2.84,1.16-1.77,2.19-.93a1.166,1.166,0,0,0,1.98-1.12c-.48-1.79,2.2-2.21,3.26-.67,1.11,1.66,2.6,1.32,2.68-.42.13-1.62,3.91-.09,2.92.47,0,0,2.31,2.57,2.83-.06.39-2.29,2.43-.03,2.52.5.02.7.58,3.3,2.46.66.72-.87,2.85-1.63,2.76,1.39.01.99,1.71,2.12,2.31,1.29,1.13-1.19,2.93.18,3.07,2.11.07.82.62,2.44,2.35,1.71,1.27-.54,2.19.35,2.14,2.5,0,1.28.27,2.58,2.04,2.26a1.755,1.755,0,0,1,2.03,2.55,1.657,1.657,0,0,0,1.53,2.33,1.6,1.6,0,0,1,1.52,2.63c-1.14,1.48-.26,1.96.7,1.98C124.28,39.35,124.12,40.27,122.87,41.51Z" fill="#f4a928" fill-rule="evenodd"/><path d="M122.64,41.6c-.83.92-.78,2.03.81,1.93,1.71-.15,1.89,1.9.82,2.92a1.554,1.554,0,0,0,.56,2.61,1.778,1.778,0,0,1,.41,3.23c-1.46,1.05-.72,2.15.2,3.04,1.52,1.35,1.4,2.67.25,3.16-1.73.73-.79,2.32-.25,2.95,1.17,1.49.85,3.62-.68,3.55-1.07.03-1.39,1.86-.8,2.61,2.22,2.04.31,2.99-.87,2.78-3.15-.37-1.67,1.84-1.19,2.35.32.43.41,3.23-1.4,2.15-2.25-1.46-2.02,1.99-2.02,1.99,1.04-.44-.43,3.16-1.8,2.18-1.2-.91-2.54-.21-2.17,1.63s-1.1,2.88-2.63,1.82c-2.68-1.84-.71,1.86-2.38,2.42-.58,1.52-2.37-3.68-3.4.01-.48,1.76-2.2,2.21-3.26.67s-2.5-1.08-2.68.42c-.13,1.62-3.74.16-2.82-.23.12-.05-2.2-2.62-2.72.01-.49,2.05-2.43.03-2.52-.5-.02-.7-.58-3.3-2.51-.79-.67.99-2.69,1.7-2.71-1.27-.01-.99-1.66-1.99-2.32-1.29-1.01,1.14-2.77-.11-3.02-1.99-.07-.82-.67-2.56-2.29-1.87-1.27.54-2.19-.35-2.21-2.33,0-1.28-.16-2.63-2.04-2.26a1.756,1.756,0,0,1-1.91-2.6,1.543,1.543,0,0,0-1.48-2.21c-1.47.06-3.08-1.82-1.52-2.62.99-.56.71-1.86-.86-2.05-1.63-.31-2.08-1.39-1.03-2.12a1.063,1.063,0,0,0-.65-1.86c-1.76.03-1.89-1.9-.82-2.92a1.545,1.545,0,0,0-.56-2.6,1.868,1.868,0,0,1-.58-3.3c1.63-.97.77-2.03-.15-2.92-1.4-1.39-1.4-2.67-.13-3.21,1.62-.68.79-2.32.25-2.95-1.17-1.49-.85-3.62.68-3.55.96.02,1.39-1.86.69-2.56-2.11-2.09-.2-3.04.98-2.83,3.15.37,1.67-1.84,1.18-2.35-.32-.43-.46-3.35,1.4-2.15,2.25,1.46,2.07-1.87,1.9-1.94-1.23-.33.19-4.06,1.75-2.3,1.19,1.2,3.23-.09,2.17-1.63a1.417,1.417,0,0,1,2.29-1.67c.49.5,2.58,1.61,2.02-.71-.61-2.72,1.21-1.65,2.19-.93a1.159,1.159,0,0,0,2.03-1c-.6-1.74,2.08-2.16,3.14-.62s2.55,1.2,2.68-.42c.25-1.67,3.86-.21,2.87.35,0,0,2.31,2.57,2.83-.06.44-2.17,2.43-.03,2.52.5.02.7.58,3.3,2.51.79.67-.99,2.68-1.7,2.6,1.32.13.94,1.66,2,2.43,1.24,1.02-1.14,2.77.11,3.02,1.99.07.82.56,2.6,2.29,1.87,1.15-.49,2.19.35,2.09,2.38,0,1.28.28,2.58,1.99,2.14a1.893,1.893,0,0,1,2.08,2.67,1.543,1.543,0,0,0,1.48,2.21c1.47-.05,2.55,1.2,1.52,2.63-1.09,1.6-.26,1.96.7,1.98C124.04,39.45,123.77,40.42,122.64,41.6Z" fill="#f4ab27" fill-rule="evenodd"/><path d="M122.41,41.7c-.84.92-.78,2.03.7,1.98,1.82-.2,1.89,1.9.89,2.75a1.545,1.545,0,0,0,.56,2.6,1.929,1.929,0,0,1,.46,3.35c-1.51.92-.77,2.03.14,2.92,1.52,1.34,1.4,2.67.25,3.16-1.73.73-.84,2.2-.3,2.83,1.17,1.49.85,3.62-.68,3.55-.96-.02-1.34,1.98-.69,2.56,2.06,1.97.2,3.04-.87,2.78-3.15-.37-1.72,1.72-1.19,2.35.27.31.41,3.23-1.57,2.08-2.08-1.39-1.9,1.94-1.9,1.94,1.09-.32-.38,3.28-1.64,2.25s-2.53-.21-2.17,1.63a1.648,1.648,0,0,1-2.63,1.82c-2.68-1.85-.76,1.74-2.43,2.3-.58,1.52-2.32-3.56-3.34.14-.53,1.64-2.08,2.16-3.14.62s-2.55-1.19-2.68.42-3.74.16-2.87-.35c.11-.05-2.15-2.5-2.72.01-.44,2.17-2.43.03-2.47-.38-.07-.82-.58-3.3-2.51-.78-.67.99-2.73,1.58-2.6-1.32.04-.87-1.66-2-2.31-1.29-1.13,1.19-2.77-.11-3.02-1.99-.07-.82-.62-2.44-2.24-1.75-1.27.54-2.19-.35-2.09-2.38-.11-1.23-.27-2.58-1.99-2.14a1.893,1.893,0,0,1-2.08-2.67,1.552,1.552,0,0,0-1.48-2.22c-1.42.18-2.92-1.75-1.47-2.5,1.1-.61.83-1.91-.86-2.05-1.51-.36-1.97-1.44-1.03-2.12a1.034,1.034,0,0,0-.65-1.86c-1.64-.02-1.89-1.9-.77-2.8a1.552,1.552,0,0,0-.56-2.6A1.888,1.888,0,0,1,66,51.19c1.51-.92.66-1.98-.14-2.92-1.52-1.34-1.52-2.62-.25-3.16,1.62-.68.84-2.2.3-2.82-1.17-1.49-.96-3.57.68-3.55.96.02,1.34-1.98.69-2.56-2.22-2.04-.31-2.99.87-2.78,3.15.37,1.72-1.72,1.19-2.35-.27-.31-.46-3.35,1.45-2.03,2.2,1.34,2.02-1.99,1.9-1.94-1.28-.45.19-4.06,1.7-2.42a1.357,1.357,0,1,0,2.17-1.63,1.357,1.357,0,1,1,2.17-1.63c.54.62,2.58,1.6,2.07-.59-.61-2.73,1.21-1.65,2.19-.93a1.168,1.168,0,0,0,1.98-1.12c-.6-1.74,2.08-2.16,3.14-.62,1.11,1.66,2.6,1.32,2.68-.42.13-1.62,3.79-.04,2.81.52,0,0,2.26,2.45,2.72-.01.51-2.34,2.55-.08,2.59.32.08.82.58,3.31,2.51.79.55-.94,2.57-1.65,2.6,1.32-.04.87,1.66,2,2.31,1.29,1.02-1.14,2.77.11,3.02,1.99.07.82.5,2.48,2.24,1.75,1.15-.49,2.19.35,2.09,2.38,0,1.28.27,2.58,1.99,2.14a1.931,1.931,0,0,1,2.08,2.67,1.552,1.552,0,0,0,1.48,2.21,1.519,1.519,0,0,1,1.35,2.55c-.98,1.55-.15,1.91.81,1.93C123.81,39.55,123.54,40.51,122.41,41.7Z" fill="#f5ad27" fill-rule="evenodd"/><path d="M122.06,41.85c-.72.87-.71,1.86.76,1.81,1.76-.03,1.89,1.9.83,2.92a1.574,1.574,0,0,0,.67,2.56,1.836,1.836,0,0,1,.41,3.23c-1.51.92-.77,2.03.14,2.92,1.41,1.4,1.4,2.67.25,3.16-1.62.68-.84,2.2-.3,2.82,1.12,1.37.8,3.5-.73,3.43-.96-.02-1.34,1.98-.69,2.56,2.17,1.92.26,2.87-.87,2.78-3.15-.37-1.61,1.67-1.19,2.35.27.31.48,3.06-1.46,2.03-2.08-1.39-1.9,1.94-1.79,1.89.98-.27-.55,3.21-1.8,2.18-1.2-.91-2.49-.09-2.17,1.63.37,1.83-1.15,2.75-2.52,1.77-2.75-1.68-.76,1.74-2.43,2.3-.58,1.52-2.32-3.56-3.34.14-.36,1.72-2.08,2.16-3.02.57-1.13-1.37-2.5-1.08-2.68.42-.13,1.62-3.69.28-2.82-.23.12-.05-2.14-2.5-2.72.01-.49,2.06-2.43.03-2.47-.37-.07-.82-.58-3.3-2.39-.83-.72.87-2.73,1.58-2.71-1.27.04-.87-1.54-2.05-2.2-1.34-1.13,1.19-2.77-.11-2.97-1.87-.07-.82-.62-2.44-2.24-1.75-1.27.54-2.19-.35-2.09-2.38-.11-1.23-.27-2.58-1.99-2.14A1.839,1.839,0,0,1,73.5,70.6a1.543,1.543,0,0,0-1.48-2.22c-1.36.01-2.92-1.75-1.4-2.67.99-.56.76-1.74-.86-2.05-1.58-.19-2.03-1.27-.98-2a.988.988,0,0,0-.6-1.73,1.59,1.59,0,0,1-.94-2.87,1.545,1.545,0,0,0-.56-2.6,1.824,1.824,0,0,1-.41-3.23c1.51-.92.66-1.98-.14-2.92-1.52-1.34-1.52-2.62-.25-3.16,1.62-.68.84-2.2.3-2.82-1.12-1.37-.96-3.57.73-3.43.96.02,1.22-1.94.57-2.51-2.06-1.97-.14-2.92.98-2.83,3.04.42,1.61-1.67,1.07-2.3-.27-.31-.46-3.35,1.46-2.03,2.2,1.34,2.07-1.87,1.9-1.94-1.23-.33.19-4.06,1.75-2.3a1.358,1.358,0,0,0,2.17-1.63,1.358,1.358,0,1,1,2.17-1.63c.42.67,2.47,1.66,1.95-.54-.61-2.72,1.16-1.77,2.19-.93a1.185,1.185,0,0,0,1.98-1.12c-.6-1.74,1.97-2.11,3.03-.57s2.55,1.19,2.68-.42,3.74-.16,2.87.35c-.12.05,2.14,2.5,2.6.04.51-2.34,2.44-.04,2.47.37.19.77.58,3.3,2.51.78.72-.87,2.73-1.58,2.6,1.32-.04.87,1.66,2,2.31,1.29.96-1.26,2.77.11,2.97,1.87.07.82.62,2.43,2.23,1.75,1.16-.49,2.07.4,2.09,2.38,0,1.28.27,2.58,1.99,2.14a1.827,1.827,0,0,1,2.03,2.55,1.578,1.578,0,0,0,1.36,2.26,1.6,1.6,0,0,1,1.51,2.63c-1.03,1.43-.2,1.79.76,1.81C123.47,39.69,123.2,40.66,122.06,41.85Z" fill="#f8af26" fill-rule="evenodd"/><path d="M121.83,41.95c-.89.8-.71,1.86.76,1.81,1.71-.15,1.89,1.9.77,2.8a1.666,1.666,0,0,0,.56,2.61,1.768,1.768,0,0,1,.53,3.18c-1.51.92-.77,2.03.1,2.8,1.4,1.39,1.4,2.67.25,3.16-1.62.68-.84,2.2-.3,2.82,1.17,1.49.96,3.57-.68,3.55-1.01-.14-1.27,1.82-.62,2.39,2.06,1.97.14,2.92-.87,2.78-3.15-.37-1.72,1.72-1.24,2.22.32.43.46,3.35-1.4,2.15-2.13-1.51-1.95,1.82-1.84,1.77.98-.27-.55,3.21-1.8,2.18-1.04-.84-2.37-.14-2,1.7a1.666,1.666,0,0,1-2.63,1.82c-2.68-1.85-.65,1.69-2.31,2.26-.63,1.4-2.32-3.56-3.34.13a1.6,1.6,0,0,1-3.02.57c-1.06-1.54-2.5-1.08-2.73.3-.13,1.62-3.58.23-2.7-.28.12-.05-2.14-2.5-2.55.08-.56,2.22-2.44.04-2.52-.5-.14-.65-.53-3.18-2.46-.66-.72.87-2.62,1.53-2.6-1.32.04-.87-1.54-2.05-2.26-1.17-1.02,1.14-2.77-.11-2.9-2.04-.07-.82-.62-2.43-2.24-1.75-1.15.49-2.19-.35-2.09-2.38-.06-1.11-.22-2.46-1.94-2.02a1.827,1.827,0,0,1-2.03-2.55,1.576,1.576,0,0,0-1.36-2.26c-1.42.18-2.92-1.75-1.47-2.5.99-.56.76-1.74-.86-2.05-1.46-.23-1.92-1.32-.93-1.88a1.1,1.1,0,0,0-.65-1.86c-1.64-.02-1.89-1.9-.77-2.8a1.58,1.58,0,0,0-.67-2.55,1.824,1.824,0,0,1-.41-3.23c1.51-.92.66-1.98-.14-2.92-1.52-1.35-1.35-2.55-.2-3.04,1.62-.68.84-2.2.3-2.83-1.29-1.44-.96-3.57.56-3.5,1.13.09,1.39-1.86.74-2.44-2.06-1.97-.26-2.87.87-2.78,3.15.37,1.61-1.67,1.24-2.23-.32-.43-.58-3.3,1.4-2.15,2.13,1.51,1.95-1.82,1.79-1.89-1.23-.33.13-3.89,1.64-2.25,1.19,1.2,3.28.03,2.17-1.63a1.358,1.358,0,0,1,2.17-1.63c.54.62,2.47,1.66,1.95-.54-.44-2.65,1.21-1.65,2.19-.93a1.087,1.087,0,0,0,1.86-1.07c-.43-1.66,2.13-2.04,3.14-.62,1.11,1.66,2.55,1.2,2.57-.37.13-1.62,3.79-.04,2.87.35-.12.05,2.2,2.62,2.6.04.44-2.17,2.44-.04,2.52.5.02.7.53,3.18,2.46.67.6-.82,2.62-1.53,2.6,1.32-.04.87,1.54,2.04,2.15,1.22,1.13-1.19,2.77.11,3.02,1.99.07.82.62,2.44,2.24,1.75,1.15-.49,2.02.28,2.04,2.26,0,1.28.27,2.58,1.99,2.14a1.773,1.773,0,0,1,1.92,2.6,1.675,1.675,0,0,0,1.48,2.21,1.508,1.508,0,0,1,1.47,2.5c-1.15,1.48-.31,1.84.65,1.86C123.24,39.79,122.96,40.76,121.83,41.95Z" fill="#f8b125" fill-rule="evenodd"/><path d="M121.6,42.04c-.89.8-.83,1.91.76,1.81s1.77,1.95.77,2.8a1.435,1.435,0,0,0,.51,2.48,1.852,1.852,0,0,1,.53,3.19c-1.51.92-.78,2.03.09,2.8,1.4,1.39,1.4,2.67.25,3.16-1.62.68-.84,2.2-.36,2.71,1.18,1.49.96,3.57-.56,3.5-.96-.02-1.39,1.86-.74,2.44,2.06,1.97.26,2.87-.87,2.78-3.04-.42-1.61,1.67-1.12,2.18.32.43.41,3.23-1.45,2.03-2.08-1.39-1.9,1.94-1.79,1.89.98-.27-.43,3.16-1.69,2.13-1.2-.91-2.49-.09-2.17,1.63.37,1.83-1.03,2.71-2.52,1.77-2.63-1.73-.65,1.69-2.31,2.25-.58,1.52-2.32-3.56-3.23.09-.53,1.64-2.08,2.16-3.03.57-1.12-1.37-2.5-1.08-2.68.42-.13,1.62-3.58.23-2.7-.28.12-.05-2.15-2.5-2.6-.04-.44,2.17-2.38.16-2.47-.38-.02-.7-.53-3.18-2.34-.71-.72.87-2.62,1.53-2.6-1.32-.07-.82-1.61-1.87-2.26-1.17-1.02,1.14-2.77-.11-2.9-2.04-.02-.7-.57-2.31-2.19-1.63-1.16.49-2.07-.4-2.09-2.38.05-1.16-.22-2.46-1.94-2.02a1.8,1.8,0,0,1-1.91-2.6,1.541,1.541,0,0,0-1.43-2.09c-1.31.13-2.92-1.75-1.47-2.5.99-.56.76-1.74-.86-2.05-1.46-.23-1.92-1.32-.93-1.88a1.037,1.037,0,0,0-.65-1.86c-1.64-.02-1.77-1.95-.77-2.8a1.534,1.534,0,0,0-.5-2.48,1.8,1.8,0,0,1-.53-3.18c1.51-.92.77-2.03-.09-2.8-1.41-1.4-1.4-2.67-.25-3.16,1.62-.68.84-2.2.3-2.83-1.24-1.32-.91-3.45.61-3.38.96.02,1.28-1.82.74-2.44-2.06-1.97-.26-2.87.87-2.78,3.03.42,1.61-1.67,1.12-2.18-.32-.43-.46-3.35,1.45-2.03,2.08,1.39,1.9-1.94,1.79-1.89-1.23-.33.13-3.89,1.63-2.25a1.361,1.361,0,0,0,2.17-1.63,1.3,1.3,0,1,1,2.06-1.58c.54.62,2.42,1.53,2.06-.59-.61-2.72,1.1-1.6,1.96-.83,1.2.91,2.39-.15,1.98-1.12-.55-1.62,1.97-2.11,3.02-.57s2.55,1.2,2.68-.42,3.63-.11,2.75.4c-.12.05,2.14,2.5,2.6.04.39-2.29,2.38-.16,2.47.37.03.7.53,3.18,2.34.72.72-.87,2.62-1.53,2.6,1.32-.04.87,1.61,1.88,2.26,1.17,1.02-1.14,2.65.16,2.85,1.92.08.82.62,2.44,2.24,1.75,1.15-.49,2.07.4,2.09,2.38-.06,1.16.22,2.46,1.94,2.02a1.849,1.849,0,0,1,1.92,2.6,1.436,1.436,0,0,0,1.43,2.09,1.553,1.553,0,0,1,1.47,2.5c-1.15,1.48-.31,1.84.65,1.86C122.89,39.94,122.62,40.9,121.6,42.04Z" fill="#fcb623" fill-rule="evenodd"/><path d="M121.37,42.14c-.89.8-.82,1.91.65,1.86,1.71-.15,1.84,1.78.84,2.63a1.552,1.552,0,0,0,.56,2.6,1.75,1.75,0,0,1,.48,3.06c-1.51.92-.78,2.03.09,2.8,1.4,1.39,1.35,2.55.2,3.04-1.62.68-.84,2.2-.3,2.83,1.12,1.37.91,3.45-.61,3.38-.96-.02-1.27,1.81-.62,2.39,2.06,1.97.14,2.92-.87,2.78-3.03-.42-1.61,1.67-1.24,2.23.27.31.53,3.18-1.34,1.98-2.08-1.39-1.9,1.94-1.79,1.89.92-.39-.48,3.04-1.68,2.13s-2.42-.26-2.11,1.46c.37,1.83-1.15,2.76-2.52,1.77-2.63-1.73-.65,1.69-2.31,2.26-.58,1.52-2.27-3.44-3.23.09-.36,1.72-1.97,2.11-3.03.57-1.01-1.42-2.33-1-2.51.5s-3.63.11-2.7-.28c.12-.05-2.14-2.5-2.6-.04-.44,2.17-2.43.03-2.47-.38-.02-.7-.53-3.18-2.34-.71-.72.87-2.62,1.53-2.6-1.32.04-.87-1.49-1.92-2.15-1.22-1.02,1.14-2.77-.11-2.85-1.92-.19-.77-.62-2.44-2.24-1.75-1.16.49-2.02-.28-2.04-2.26.05-1.16-.22-2.46-1.94-2.02a1.748,1.748,0,0,1-1.86-2.48,1.552,1.552,0,0,0-1.48-2.21c-1.31.12-2.87-1.63-1.3-2.43.87-.51.65-1.69-.86-2.05-1.58-.19-2.03-1.27-.93-1.88a1.1,1.1,0,0,0-.65-1.86c-1.76.03-1.84-1.78-.84-2.63a1.552,1.552,0,0,0-.56-2.6,1.746,1.746,0,0,1-.48-3.06c1.51-.92.77-2.03-.09-2.8-1.4-1.39-1.4-2.67-.25-3.16,1.62-.68.77-2.03.35-2.71-1.24-1.32-.91-3.45.61-3.38.96.02,1.27-1.82.62-2.39-2.06-1.97-.26-2.87.87-2.78,3.04.42,1.61-1.67,1.12-2.18-.27-.31-.41-3.23,1.45-2.03,2.08,1.39,1.95-1.82,1.79-1.89-1.23-.33.13-3.89,1.68-2.13,1.02,1.13,3.06-.16,2.06-1.58a1.357,1.357,0,0,1,2.17-1.63c.37.55,2.3,1.59,1.9-.66-.56-2.6,1.09-1.6,2.01-.71a1.2,1.2,0,0,0,1.98-1.12c-.6-1.73,1.97-2.11,3.03-.57,1.01,1.42,2.38,1.12,2.56-.37.13-1.62,3.63-.11,2.7.28-.12.05,2.14,2.5,2.6.04.44-2.18,2.32.01,2.36.42.14.65.64,3.14,2.46.67.6-.82,2.62-1.53,2.6,1.32-.04.87,1.49,1.93,2.15,1.22,1.02-1.14,2.65.16,2.85,1.92.07.82.57,2.32,2.19,1.63,1.16-.49,2.07.4,2.09,2.38-.06,1.16.22,2.46,1.94,2.02a1.748,1.748,0,0,1,1.86,2.48,1.552,1.552,0,0,0,1.48,2.21,1.431,1.431,0,0,1,1.3,2.43c-1.03,1.43-.15,1.91.76,1.81C122.66,40.03,122.39,41,121.37,42.14Z" fill="#fcb827" fill-rule="evenodd"/><path d="M70.65,35.45c1.18.21,3.08,1.82,4.88,2.2,1.34.28,2.12.52,2.93.18,1.96-.83,4.54-6.32,5.65-8.21-.44,2.17-1.28,6.64-.46,8.57.86,2.05,4.71,4.4,6.53,5.47-2.07-.4-6.76-1.83-8.61-1.05-1.96.83-4.27,5.35-5.43,7.12.4-1.3,1.78-4.16,1.88-6.19a5.272,5.272,0,0,0-.54-2.89C76.61,38.62,72.52,36.65,70.65,35.45Z" fill="#fcb827" fill-rule="evenodd"/><path d="M72.1,35.98c1.06.26,2.58,1.61,4.21,1.91a3.477,3.477,0,0,0,2.54.21c1.73-.73,3.87-5.33,4.85-6.88-.36,1.72-1.05,5.56-.34,7.24.76,1.81,4.06,3.82,5.55,4.76-1.79-.38-5.81-1.52-7.43-.84s-3.66,4.53-4.65,6.08c.22-1.09,1.47-3.6,1.5-5.46a4.439,4.439,0,0,0-.45-2.36C77.11,38.83,73.63,37.04,72.1,35.98Z" fill="#f8b227" fill-rule="evenodd"/><path d="M73.48,36.67c.9.19,2.15,1.22,3.49,1.51a3.256,3.256,0,0,0,2.25.18c1.39-.59,3.15-4.45,3.95-5.79-.3,1.55-.85,4.76-.24,6.2s3.36,3.12,4.63,3.87c-1.58-.19-4.87-1.21-6.25-.63s-3.13,3.87-3.86,5.04c.16-.92,1.16-3.05,1.23-4.5a8.315,8.315,0,0,0-.35-2.12C77.73,39,74.8,37.54,73.48,36.67Z" fill="#f5ae29" fill-rule="evenodd"/><path d="M74.81,37.25c.73.12,1.88.91,2.94,1.17a2.4,2.4,0,0,0,1.69.14c1.15-.49,2.71-3.56,3.38-4.55-.29,1.26-.69,3.84-.35,4.97.51,1.21,2.71,2.55,3.69,3.27-1.18-.21-3.85-1.07-5.01-.58s-2.52,3.05-3.19,4.05c.09-.75.9-2.37,1.02-3.7a11.232,11.232,0,0,0-.31-1.71C78.17,39.09,75.79,37.97,74.81,37.25Z" fill="#efa72c" fill-rule="evenodd"/><path d="M76.25,37.77a19.8,19.8,0,0,0,2.16.93,2.934,2.934,0,0,0,1.41.12c.81-.34,1.99-2.69,2.48-3.46-.1,1.04-.53,2.92-.13,3.89.24.89,1.89,1.9,2.66,2.43-.9-.19-2.91-.76-3.83-.37-.81.34-1.87,2.35-2.4,3a22.067,22.067,0,0,0,.58-2.8,6.844,6.844,0,0,0-.16-1.35C78.62,39.19,76.91,38.35,76.25,37.77Z" fill="#eda12f" fill-rule="evenodd"/><path d="M77.59,38.35c.4-.03.88.48,1.5.65.4-.03.73.12.96.02.58-.24,1.44-1.74,1.8-2.18a5.782,5.782,0,0,0-.12,2.61c.14.65,1.24,1.32,1.79,1.66-.68,0-2.07-.4-2.65-.16s-1.38,1.57-1.73,2.01c-.04-.41.4-1.31.43-1.88-.04-.41-.19-.77-.18-1.06C79.12,39.4,78.02,38.73,77.59,38.35Z" fill="#e89932" fill-rule="evenodd"/><path d="M78.92,38.92c.23-.1.5.21.78.24s.45.1.56.05c.4-.03.89-.8,1.07-1.02a3.627,3.627,0,0,0-.02,1.57,4.175,4.175,0,0,0,.81.94,2.348,2.348,0,0,0-1.41-.11c-.35.15-.77.75-1.07,1.02a6.92,6.92,0,0,0,.11-1.04c.01-.29-.09-.53-.02-.7A3.371,3.371,0,0,0,78.92,38.92Z" fill="#de8b34" fill-rule="evenodd"/><path d="M80.55,40.22a.449.449,0,0,0,.31-.56.434.434,0,0,0-.61-.16.39.39,0,0,0,.3.72Z" fill="#c96c38" fill-rule="evenodd"/><path d="M87.97,28.14c1.18.21,3.08,1.82,4.88,2.2,1.34.28,2.13.52,3.05.13,1.85-.78,4.43-6.27,5.54-8.16-.44,2.17-1.16,6.59-.35,8.52.86,2.05,4.72,4.4,6.42,5.52-2.07-.4-6.65-1.88-8.61-1.05s-4.27,5.35-5.31,7.07c.29-1.25,1.67-4.11,1.88-6.19a6.409,6.409,0,0,0-.66-2.85C93.93,31.3,89.84,29.34,87.97,28.14Z" fill="#fcb827" fill-rule="evenodd"/><path d="M89.42,28.66c1.06.26,2.7,1.56,4.21,1.91,1.23.33,1.84.5,2.54.21,1.73-.73,3.99-5.38,4.97-6.93-.48,1.77-1.17,5.61-.46,7.29.76,1.81,4.06,3.82,5.55,4.76-1.79-.38-5.7-1.57-7.43-.84-1.62.68-3.67,4.53-4.65,6.08.34-1.14,1.47-3.6,1.62-5.51a6.22,6.22,0,0,0-.45-2.36C94.55,31.47,90.95,29.72,89.42,28.66Z" fill="#f8b227" fill-rule="evenodd"/><path d="M90.8,29.36c.9.19,2.27,1.17,3.49,1.5,1.06.26,1.68.43,2.25.18,1.39-.59,3.27-4.5,4.07-5.83-.3,1.55-.85,4.76-.24,6.2.5,1.5,3.25,3.17,4.51,3.92-1.46-.24-4.75-1.26-6.14-.67-1.5.63-3.13,3.88-3.97,5.09.15-.92,1.16-3.05,1.23-4.5a5.108,5.108,0,0,0-.35-2.12C95.05,31.68,92.12,30.22,90.8,29.36Z" fill="#f5ae29" fill-rule="evenodd"/><path d="M92.25,29.88c.62.17,1.77.96,2.83,1.22a2.4,2.4,0,0,0,1.69.14c1.16-.49,2.72-3.56,3.39-4.55-.29,1.26-.69,3.84-.23,4.92.51,1.21,2.59,2.6,3.69,3.27-1.29-.16-3.97-1.02-5.01-.58-1.15.49-2.64,3.1-3.31,4.1a14.847,14.847,0,0,0,1.02-3.7,4.665,4.665,0,0,0-.31-1.71C95.49,31.78,93.23,30.6,92.25,29.88Z" fill="#efa72c" fill-rule="evenodd"/><path d="M93.58,30.46a20.919,20.919,0,0,1,2.16.93,3.636,3.636,0,0,0,1.41.11c.92-.39,1.99-2.69,2.48-3.46-.11,1.04-.54,2.92-.13,3.89.36.84,1.89,1.9,2.66,2.43-.9-.19-2.91-.76-3.71-.42-.92.39-1.98,2.4-2.52,3.05.03-.58.6-1.81.7-2.85a6.212,6.212,0,0,0-.28-1.3C95.94,31.87,94.34,30.98,93.58,30.46Z" fill="#eda12f" fill-rule="evenodd"/><path d="M94.91,31.03c.4-.03,1,.43,1.5.65.4-.03.73.12.96.02.69-.29,1.44-1.74,1.8-2.18a5.782,5.782,0,0,0-.12,2.61,5.107,5.107,0,0,0,1.79,1.66,7.5,7.5,0,0,0-2.54-.21c-.69.29-1.38,1.57-1.85,2.06a16.6,16.6,0,0,0,.43-1.89,4.421,4.421,0,0,0-.17-1.06C96.56,32.04,95.34,31.42,94.91,31.03Z" fill="#e89932" fill-rule="evenodd"/><path d="M96.24,31.6c.23-.1.61.17.9.19a.936.936,0,0,0,.56.05c.4-.03.77-.75.95-.97.04.41-.05,1.16-.02,1.57a2.393,2.393,0,0,0,.92.89,3.883,3.883,0,0,0-1.41-.12,3.515,3.515,0,0,0-1.07,1.02c-.1-.24.03-.58.11-1.04a6.117,6.117,0,0,1-.14-.65C97.01,32.13,96.46,31.8,96.24,31.6Z" fill="#de8b34" fill-rule="evenodd"/><path d="M97.99,32.85a.392.392,0,0,0-.31-.72c-.23.1-.41.32-.31.55A.442.442,0,0,0,97.99,32.85Z" fill="#c96c38" fill-rule="evenodd"/><path d="M71.32,54.76c1.23.33,3.08,1.82,4.88,2.2,1.39.4,2.18.64,2.99.3,1.96-.83,4.49-6.44,5.65-8.2-.44,2.17-1.21,6.47-.35,8.52.81,1.93,4.66,4.28,6.36,5.4-2.08-.4-6.71-1.71-8.56-.93-1.96.83-4.32,5.23-5.43,7.12.35-1.43,1.73-4.28,1.94-6.36a5.9,5.9,0,0,0-.6-2.73C77.33,58.04,73.19,55.96,71.32,54.76Z" fill="#fcb827" fill-rule="evenodd"/><path d="M72.82,55.41c1.06.26,2.65,1.44,4.21,1.91a4.189,4.189,0,0,0,2.53.21c1.73-.73,3.82-5.45,4.8-7-.31,1.84-1.05,5.56-.29,7.36.71,1.69,4.01,3.7,5.5,4.64-1.74-.26-5.7-1.57-7.43-.84-1.62.68-3.67,4.53-4.64,6.08.34-1.14,1.47-3.6,1.55-5.34a7.112,7.112,0,0,0-.39-2.53C77.95,58.21,74.35,56.46,72.82,55.41Z" fill="#f8b227" fill-rule="evenodd"/><path d="M74.15,55.98c.9.19,2.31,1.29,3.54,1.63a4.246,4.246,0,0,0,2.2.06c1.39-.59,3.27-4.5,4.12-5.72-.3,1.55-.9,4.64-.4,6.13.61,1.45,3.36,3.12,4.68,3.99-1.63-.31-4.92-1.33-6.3-.75s-3.01,3.83-3.86,5.04c.16-.92,1.21-2.93,1.23-4.49a4.7,4.7,0,0,0-.35-2.12C78.4,58.3,75.47,56.84,74.15,55.98Z" fill="#f5ae29" fill-rule="evenodd"/><path d="M75.48,56.55c.73.12,1.93,1.03,2.94,1.17a3.852,3.852,0,0,0,1.74.26c1.15-.49,2.66-3.68,3.33-4.67-.29,1.26-.69,3.84-.18,5.05.34,1.13,2.54,2.47,3.64,3.15-1.29-.16-3.97-1.02-5.13-.53-1.04.44-2.47,3.17-3.19,4.04a21.42,21.42,0,0,0,1.02-3.7,4.665,4.665,0,0,0-.31-1.71C78.84,58.4,76.58,57.22,75.48,56.55Z" fill="#efa72c" fill-rule="evenodd"/><path d="M76.93,57.08c.45.1,1.38.69,2.16.93a2.239,2.239,0,0,0,1.41.11c.81-.34,1.99-2.69,2.53-3.34-.16.92-.54,2.92-.18,3.77.29,1.01,1.94,2.02,2.66,2.43-.84-.07-2.91-.76-3.71-.42-.92.39-1.98,2.4-2.47,3.17.03-.58.55-1.93.59-2.8a8.768,8.768,0,0,0-.21-1.47C79.34,58.61,77.58,57.66,76.93,57.08Z" fill="#eda12f" fill-rule="evenodd"/><path d="M78.26,57.65a9.872,9.872,0,0,1,1.5.65,1.564,1.564,0,0,0,.96.02c.63-.12,1.44-1.74,1.8-2.18a7.235,7.235,0,0,0-.07,2.73,5.194,5.194,0,0,0,1.79,1.66,6.3,6.3,0,0,0-2.54-.21,5.6,5.6,0,0,0-1.85,2.06c-.04-.41.4-1.31.38-2-.04-.41-.19-.77-.18-1.06C79.79,58.71,78.69,58.04,78.26,57.65Z" fill="#e89932" fill-rule="evenodd"/><path d="M79.59,58.22a3.487,3.487,0,0,1,.95.31c.17.07.28.02.56.05.35-.15.72-.87.95-.97a4.331,4.331,0,0,0-.07,1.45,3.278,3.278,0,0,0,.8.94c-.28-.02-1.06-.26-1.29-.16-.46.2-.84.92-1.02,1.14a5.9,5.9,0,0,1-.06-1.11c.01-.29-.09-.53-.02-.7A3.328,3.328,0,0,0,79.59,58.22Z" fill="#de8b34" fill-rule="evenodd"/><path d="M81.22,59.52a.449.449,0,0,0,.31-.56.445.445,0,0,0-.61-.17.408.408,0,0,0-.19.51A.392.392,0,0,0,81.22,59.52Z" fill="#c96c38" fill-rule="evenodd"/><path d="M100.2,42.28c1.18.21,3.08,1.82,4.88,2.2a4.531,4.531,0,0,0,2.93.18c1.96-.83,4.43-6.27,5.54-8.16-.33,2.12-1.16,6.59-.35,8.52.87,2.05,4.71,4.4,6.53,5.48-2.19-.35-6.76-1.83-8.72-1-1.85.78-4.27,5.35-5.31,7.07.29-1.26,1.67-4.11,1.88-6.19a6.51,6.51,0,0,0-.54-2.89C106.17,45.44,101.95,43.53,100.2,42.28Z" fill="#fcb827" fill-rule="evenodd"/><path d="M101.53,42.85c1.06.26,2.7,1.56,4.21,1.91a4.016,4.016,0,0,0,2.65.16c1.62-.68,3.87-5.33,4.85-6.87-.37,1.71-1.06,5.56-.34,7.24.76,1.81,3.95,3.87,5.54,4.76-1.91-.33-5.81-1.52-7.43-.84-1.73.73-3.78,4.58-4.65,6.08.22-1.09,1.36-3.55,1.51-5.46a4.432,4.432,0,0,0-.46-2.36C106.66,45.65,103.07,43.91,101.53,42.85Z" fill="#f8b227" fill-rule="evenodd"/><path d="M103.03,43.5a27.043,27.043,0,0,0,3.49,1.51,3.02,3.02,0,0,0,2.14.23c1.5-.63,3.27-4.5,4.07-5.83-.3,1.54-.85,4.76-.24,6.2s3.36,3.12,4.63,3.86c-1.58-.19-4.86-1.21-6.25-.62s-3.13,3.88-3.98,5.09a33.1,33.1,0,0,0,1.35-4.54,4.553,4.553,0,0,0-.47-2.07C107.16,45.87,104.23,44.41,103.03,43.5Z" fill="#f5ae29" fill-rule="evenodd"/><path d="M104.36,44.07c.73.12,1.77.96,2.83,1.22a2.615,2.615,0,0,0,1.81.09c1.15-.49,2.6-3.51,3.27-4.5-.17,1.21-.69,3.84-.23,4.93.51,1.2,2.71,2.55,3.69,3.27-1.18-.21-3.85-1.07-5.01-.58s-2.52,3.05-3.19,4.04c.09-.75.91-2.37.91-3.65a2.97,2.97,0,0,0-.32-1.71C107.73,45.92,105.35,44.79,104.36,44.07Z" fill="#efa72c" fill-rule="evenodd"/><path d="M105.69,44.65a20.918,20.918,0,0,1,2.16.93,3.831,3.831,0,0,0,1.41.11c.92-.39,1.99-2.69,2.48-3.46a12.727,12.727,0,0,0-.13,3.89c.36.84,2,1.85,2.77,2.38-1.01-.14-3.02-.71-3.83-.37-.92.39-1.98,2.4-2.52,3.05a12.363,12.363,0,0,0,.7-2.85,2.56,2.56,0,0,0-.28-1.3C108.17,46.01,106.46,45.17,105.69,44.65Z" fill="#eda12f" fill-rule="evenodd"/><path d="M107.14,45.17c.28.02.88.48,1.5.64.4-.03.62.17.96.02.58-.24,1.33-1.7,1.68-2.13a13.179,13.179,0,0,0-.12,2.61c.25.6,1.35,1.27,1.79,1.66-.56-.04-1.96-.45-2.54-.21s-1.38,1.57-1.74,2.01c-.04-.41.29-1.26.31-1.84a1.734,1.734,0,0,0-.18-1.06C108.67,46.23,107.57,45.56,107.14,45.17Z" fill="#e89932" fill-rule="evenodd"/><path d="M108.47,45.74c.11-.05.5.22.78.24s.45.09.56.05c.4-.03.89-.8,1.07-1.02a7.631,7.631,0,0,0-.13,1.62,4.593,4.593,0,0,0,.92.89,3.054,3.054,0,0,0-1.41-.12c-.35.15-.77.75-1.07,1.02-.1-.24.14-.63.1-1.04a1.532,1.532,0,0,0-.14-.65C109.12,46.32,108.57,45.98,108.47,45.74Z" fill="#de8b34" fill-rule="evenodd"/><path d="M110.11,47.04a.449.449,0,0,0,.31-.56.456.456,0,0,0-.62-.17.408.408,0,1,0,.31.73Z" fill="#c96c38" fill-rule="evenodd"/><path d="M84.81,67.38c1.23.33,3.08,1.82,4.87,2.2,1.23.33,2.18.64,2.99.3,1.96-.83,4.38-6.39,5.53-8.16-.38,2.01-1.21,6.47-.4,8.4.87,2.05,4.71,4.4,6.53,5.48-2.19-.35-6.76-1.83-8.72-1-1.85.78-4.27,5.35-5.31,7.07.29-1.25,1.67-4.11,1.88-6.19a6.586,6.586,0,0,0-.54-2.9C90.83,70.66,86.56,68.62,84.81,67.38Z" fill="#fcb827" fill-rule="evenodd"/><path d="M86.19,68.07c1.01.14,2.65,1.44,4.21,1.91a4.579,4.579,0,0,0,2.6.04c1.67-.56,3.87-5.33,4.85-6.87-.31,1.83-1.06,5.56-.34,7.24.76,1.81,4.06,3.82,5.55,4.76-1.91-.33-5.81-1.52-7.43-.84s-3.78,4.58-4.65,6.08c.22-1.09,1.47-3.6,1.56-5.34a4.938,4.938,0,0,0-.51-2.49C91.32,70.87,87.84,69.07,86.19,68.07Z" fill="#f8b227" fill-rule="evenodd"/><path d="M87.64,68.59c.9.19,2.15,1.22,3.54,1.63a3.565,3.565,0,0,0,2.09.11c1.5-.63,3.27-4.5,4.07-5.83-.25,1.67-.85,4.76-.24,6.2s3.36,3.13,4.68,3.99c-1.63-.31-4.92-1.33-6.3-.74s-3.13,3.88-3.98,5.09a23.984,23.984,0,0,0,1.35-4.54,4.309,4.309,0,0,0-.47-2.07C91.89,70.92,88.84,69.51,87.64,68.59Z" fill="#f5ae29" fill-rule="evenodd"/><path d="M88.97,69.17c.73.12,1.76.96,2.83,1.22a2.615,2.615,0,0,0,1.81.09c1.2-.37,2.6-3.51,3.27-4.5-.17,1.21-.69,3.84-.18,5.04.46,1.08,2.66,2.43,3.64,3.15-1.18-.21-3.85-1.07-5.01-.58s-2.52,3.05-3.19,4.05c.09-.75.91-2.37.91-3.65a2.97,2.97,0,0,0-.32-1.71C92.33,71.01,89.95,69.89,88.97,69.17Z" fill="#efa72c" fill-rule="evenodd"/><path d="M90.3,69.74c.56.05,1.38.69,2.28.88.61.17.95.31,1.29.16.92-.39,1.99-2.69,2.54-3.34a12,12,0,0,0-.18,3.77c.36.84,2,1.85,2.77,2.38-1.01-.14-2.91-.76-3.83-.37s-1.98,2.4-2.52,3.05a16.679,16.679,0,0,0,.75-2.73,8.768,8.768,0,0,0-.21-1.47C92.83,71.23,91.07,70.27,90.3,69.74Z" fill="#eda12f" fill-rule="evenodd"/><path d="M91.75,70.27c.28.02.88.48,1.5.64a1.644,1.644,0,0,0,.96.02c.63-.12,1.44-1.74,1.8-2.18a9.273,9.273,0,0,0-.19,2.78c.25.6,1.35,1.27,1.79,1.66a5.712,5.712,0,0,0-2.59-.33c-.58.24-1.38,1.57-1.74,2.01.01-.29.29-1.25.43-1.89-.04-.41-.19-.77-.18-1.06C93.28,71.32,92.18,70.65,91.75,70.27Z" fill="#e89932" fill-rule="evenodd"/><path d="M93.08,70.84a3.136,3.136,0,0,0,.78.24c.28.02.45.1.56.05.4-.03.89-.8,1.12-.9a2.556,2.556,0,0,0-.07,1.45c.04.41.59.75.8.94-.28-.02-1.06-.26-1.41-.12s-.72.87-1.07,1.02a2.914,2.914,0,0,0,.1-1.04c.01-.29-.09-.53-.02-.7C93.73,71.42,93.18,71.08,93.08,70.84Z" fill="#de8b34" fill-rule="evenodd"/><path d="M94.72,72.14a.449.449,0,0,0,.31-.56.445.445,0,0,0-.61-.17.4.4,0,0,0,.3.73Z" fill="#c96c38" fill-rule="evenodd"/><path d="M102.96,60.42c1.18.21,3.08,1.82,4.88,2.2a4.529,4.529,0,0,0,2.93.18c1.96-.83,4.54-6.32,5.65-8.2-.44,2.17-1.28,6.64-.46,8.57.86,2.05,4.71,4.4,6.53,5.47-2.19-.35-6.76-1.83-8.61-1.05-1.96.83-4.38,5.4-5.43,7.12.29-1.25,1.78-4.16,1.88-6.19a5.272,5.272,0,0,0-.54-2.89C108.93,63.58,104.83,61.62,102.96,60.42Z" fill="#fcb827" fill-rule="evenodd"/><path d="M104.3,60.99c1.06.26,2.7,1.56,4.33,1.86a3.475,3.475,0,0,0,2.54.21c1.73-.73,3.87-5.33,4.85-6.88-.36,1.72-1.05,5.56-.34,7.24.76,1.81,4.06,3.82,5.55,4.76-1.79-.38-5.81-1.52-7.43-.84s-3.66,4.53-4.64,6.08c.22-1.09,1.47-3.6,1.5-5.46a4.537,4.537,0,0,0-.45-2.36C109.43,63.8,105.95,62,104.3,60.99Z" fill="#f8b227" fill-rule="evenodd"/><path d="M105.79,61.64c.9.19,2.15,1.22,3.49,1.51a3,3,0,0,0,2.26.18c1.38-.58,3.15-4.45,3.95-5.79-.3,1.55-.85,4.76-.24,6.21s3.36,3.12,4.63,3.87c-1.57-.19-4.86-1.21-6.25-.63s-3.13,3.87-3.86,5.04c.16-.92,1.05-3,1.23-4.5a4.553,4.553,0,0,0-.47-2.07C110.04,63.96,107.11,62.5,105.79,61.64Z" fill="#f5ae29" fill-rule="evenodd"/><path d="M107.12,62.21c.73.12,1.77.96,2.83,1.22a3.023,3.023,0,0,0,1.81.09c1.15-.49,2.6-3.51,3.27-4.5-.17,1.21-.57,3.79-.23,4.92.51,1.2,2.71,2.55,3.69,3.27-1.18-.21-3.85-1.07-5.01-.58s-2.52,3.05-3.19,4.05c.09-.75.9-2.37.91-3.65a5.137,5.137,0,0,0-.2-1.76C110.49,64.06,108.11,62.93,107.12,62.21Z" fill="#efa72c" fill-rule="evenodd"/><path d="M108.46,62.78c.56.05,1.38.7,2.28.88a3.255,3.255,0,0,0,1.29.16c.92-.39,2.11-2.74,2.6-3.51a10.142,10.142,0,0,0-.24,3.93c.36.84,2.01,1.85,2.77,2.38-1.01-.14-2.91-.76-3.83-.37-.81.34-1.87,2.35-2.52,3.05a12.363,12.363,0,0,0,.7-2.85,6.844,6.844,0,0,0-.16-1.35C110.94,64.15,109.22,63.31,108.46,62.78Z" fill="#eda12f" fill-rule="evenodd"/><path d="M109.9,63.31c.28.02.88.48,1.5.65.4-.03.73.12.96.02.58-.24,1.44-1.74,1.8-2.18a5.782,5.782,0,0,0-.12,2.61c.14.65,1.24,1.32,1.79,1.66-.68,0-2.08-.4-2.65-.16s-1.38,1.57-1.73,2.01a9.812,9.812,0,0,1,.43-1.89c-.04-.41-.19-.77-.18-1.06C111.44,64.36,110.33,63.69,109.9,63.31Z" fill="#e89932" fill-rule="evenodd"/><path d="M111.23,63.88c.23-.1.5.22.78.24s.45.1.56.05c.4-.03.89-.8,1.07-1.02a3.627,3.627,0,0,0-.02,1.57c-.01.29.59.75.81.94a2.348,2.348,0,0,0-1.41-.11c-.34.15-.77.75-1.07,1.02a5.911,5.911,0,0,0,.1-1.04c.01-.29-.09-.53-.02-.7A3.176,3.176,0,0,0,111.23,63.88Z" fill="#de8b34" fill-rule="evenodd"/><path d="M112.87,65.18a.449.449,0,0,0,.31-.56c-.1-.24-.38-.26-.62-.17a.4.4,0,0,0,.31.73Z" fill="#c96c38" fill-rule="evenodd"/><path d="M86.19,47.77c1.23.33,3.08,1.82,4.93,2.32,1.34.29,2.13.52,3.05.13,1.85-.78,4.43-6.27,5.54-8.16-.44,2.17-1.21,6.47-.35,8.52s4.66,4.28,6.53,5.48c-2.19-.35-6.76-1.83-8.72-1s-4.27,5.35-5.32,7.07c.23-1.38,1.67-4.11,1.83-6.31a5.9,5.9,0,0,0-.61-2.73C92.21,51.05,88.06,48.97,86.19,47.77Z" fill="#fcb827" fill-rule="evenodd"/><path d="M87.69,48.41c1.06.26,2.7,1.56,4.21,1.91,1.18.21,1.84.5,2.54.21,1.73-.73,3.94-5.5,4.92-7.05-.43,1.89-1.12,5.73-.41,7.41s4.01,3.7,5.66,4.71c-1.91-.33-5.86-1.64-7.48-.96-1.73.73-3.73,4.7-4.64,6.08.22-1.09,1.41-3.43,1.55-5.34a6.359,6.359,0,0,0-.5-2.48C92.82,51.22,89.22,49.47,87.69,48.41Z" fill="#f8b227" fill-rule="evenodd"/><path d="M89.02,48.99c.9.19,2.32,1.29,3.55,1.63a4.246,4.246,0,0,0,2.2.06c1.44-.47,3.27-4.5,4.12-5.71-.3,1.55-.9,4.64-.24,6.2.5,1.49,3.2,3.05,4.51,3.91-1.46-.23-4.75-1.26-6.14-.67-1.5.63-3.18,3.75-3.97,5.08.1-1.04,1.16-3.05,1.18-4.61a4.7,4.7,0,0,0-.35-2.12C93.27,51.31,90.34,49.85,89.02,48.99Z" fill="#f5ae29" fill-rule="evenodd"/><path d="M90.47,49.51a30.751,30.751,0,0,0,2.88,1.34,3.161,3.161,0,0,0,1.81.09c1.04-.44,2.6-3.51,3.22-4.62-.23,1.38-.69,3.84-.18,5.04s2.59,2.6,3.64,3.15c-1.3-.17-3.92-.9-4.96-.46-1.15.49-2.64,3.1-3.19,4.04a36.57,36.57,0,0,0,.91-3.65,5.073,5.073,0,0,0-.37-1.83C93.77,51.53,91.45,50.23,90.47,49.51Z" fill="#efa72c" fill-rule="evenodd"/><path d="M91.8,50.09a19.743,19.743,0,0,0,2.16.93,2.241,2.241,0,0,0,1.41.11c.97-.27,2.05-2.57,2.53-3.34-.16.92-.53,2.92-.18,3.76a8.349,8.349,0,0,0,2.71,2.55c-.9-.19-2.9-.76-3.71-.42-.92.39-2.03,2.28-2.52,3.05.03-.58.59-1.81.7-2.85a7.282,7.282,0,0,0-.33-1.42C94.21,51.62,92.57,50.61,91.8,50.09Z" fill="#eda12f" fill-rule="evenodd"/><path d="M93.13,50.66a12.96,12.96,0,0,0,1.61.6,2.85,2.85,0,0,0,.9.19c.69-.29,1.44-1.74,1.8-2.18a5.788,5.788,0,0,0-.12,2.61c.25.6,1.36,1.27,1.79,1.66a5.406,5.406,0,0,0-2.54-.21c-.69.29-1.37,1.57-1.85,2.06a9.73,9.73,0,0,0,.38-2.01,3.064,3.064,0,0,0-.18-1.06C94.78,51.67,93.56,51.04,93.13,50.66Z" fill="#e89932" fill-rule="evenodd"/><path d="M94.46,51.24a3.487,3.487,0,0,1,.95.31.936.936,0,0,0,.56.05c.35-.15.77-.75.95-.97.04.41-.1,1.04-.07,1.45.15.36.7.7.92.89a5.156,5.156,0,0,0-1.36,0,4.362,4.362,0,0,0-1.07,1.02c-.1-.24.09-.75.05-1.16-.1-.24-.04-.41-.14-.65C95.23,51.76,94.68,51.43,94.46,51.24Z" fill="#de8b34" fill-rule="evenodd"/><path d="M96.26,52.6c.23-.1.24-.39.14-.63a.407.407,0,0,0-.5-.21.57.57,0,0,0-.31.55A.55.55,0,0,0,96.26,52.6Z" fill="#c96c38" fill-rule="evenodd"/><ellipse cx="23.82" cy="28.83" rx="23.82" ry="28.83" transform="translate(63.621 35.136) rotate(-22.898)" fill="#fcb827" opacity="0.53"/><path d="M84.96,18.23a2.693,2.693,0,0,0,.4.03,3.023,3.023,0,0,1,.9.08,15.226,15.226,0,0,1,4.02,1.73,14.459,14.459,0,0,1,3.34,2.8,12.812,12.812,0,0,1,1.85,2.76c-.09-.19-.33-.32-.48-.47-.14-.13-.29-.26-.43-.39-.29-.26-.59-.5-.89-.74-.61-.48-1.24-.92-1.89-1.34a22.916,22.916,0,0,0-4.15-2.06,22.431,22.431,0,0,0-4.48-1.19,21.687,21.687,0,0,0-4.62-.26c-.55.03-1.1.07-1.64.14a1.952,1.952,0,0,0,.54-.27c.19-.09.39-.17.58-.25a12.055,12.055,0,0,1,1.2-.4,13.09,13.09,0,0,1,2.49-.42,12.513,12.513,0,0,1,2.52.1C84.47,18.12,84.72,18.19,84.96,18.23Z"/><path d="M112.46,21.3a13.807,13.807,0,0,1,5.17-1.69,4.534,4.534,0,0,1,3.83,1.52c.21.29.61.82.06.97a2.261,2.261,0,0,1-1.23-.2,8.82,8.82,0,0,0-3.21-.24,13.388,13.388,0,0,0-4.16,1.13,56.374,56.374,0,0,0-7.1,4.27c.1-.06.2-.54.25-.66.1-.23.22-.45.34-.67a6.981,6.981,0,0,1,.89-1.21,9.892,9.892,0,0,1,2.5-1.85c.7-.4,1.42-.76,2.15-1.11C112.11,21.47,112.29,21.38,112.46,21.3Z"/><path d="M115.51,68.94c.19-1.77,1.42-3.02,3.3-3.84a1.631,1.631,0,0,1,2.38.97c.67,2.29.17,3.65-1.72,4.62a3.171,3.171,0,0,1-2.8.2,1.808,1.808,0,0,1-1.15-1.87A.22.22,0,0,1,115.51,68.94Z"/><path d="M36.27,46.12a16.625,16.625,0,0,0-3.91-1.41c-2.82-.86-5.77-1.6-8.04-3.63a11.5,11.5,0,0,1-4.03-8.34,12.932,12.932,0,0,1,.68-4.37,6.132,6.132,0,0,1,5.63-4.25,7.525,7.525,0,0,1,5.45-5.28,8.185,8.185,0,0,1,2.11-.13c.26,0,.45.04.62-.25a2.089,2.089,0,0,1,.63-.66,6.832,6.832,0,0,1,6.36-.98,4.413,4.413,0,0,1,2.57,2.12c.79,1.49,1.65,2.98,1.5,4.78a.555.555,0,0,0,.29.4,8.19,8.19,0,0,1,4.9,6.84,10.581,10.581,0,0,1-2.31,7.92c-.3.4-.61.8-.91,1.2-.01.01-.01.04.01-.03.8.3,1.62.54,2.38.9a3.048,3.048,0,0,1,1.59,2.71.676.676,0,0,1-.06.45c-.67.99-1.05,2.19-2.28,2.77-2.02.95-3.99,2-5.97,3.05-.71.38-1.35.88-2.05,1.29a7.665,7.665,0,0,1-1.51.7c-1.96.64-4.13-1.54-4.08-3.41a7.559,7.559,0,0,1,.1-1.26A6.359,6.359,0,0,1,36.27,46.12Zm1.75-1.51a21.76,21.76,0,0,1,6.17-3.78,8.639,8.639,0,0,0,3.45-3.07,9.567,9.567,0,0,0,1.85-7.67c-.43-2.4-2.96-5.3-6.17-5.12A11.581,11.581,0,0,0,37.5,26.8a6.229,6.229,0,0,0-2.44,2.87c-.98,2.45.75,5.1,3.28,4.74,2.17-.31,4.3-1,5.38-3.27.08-.17.38-.22.58-.33.07.21.26.5.19.63a6.584,6.584,0,0,1-1.17,1.73,10.715,10.715,0,0,1-2.08,1.34,1,1,0,0,0-.62.86,20.84,20.84,0,0,1-.43,2.2c-.03.13-.16.23-.24.34-.08-.13-.24-.25-.24-.38-.02-.74-.01-1.49-.01-2.09a28.546,28.546,0,0,1-3.1-.11,4.138,4.138,0,0,1-2.45-1.81,15.234,15.234,0,0,1-.77,1.67,3.026,3.026,0,0,1-1.01,1.06c-2.57,1.36-6.23.92-7.38-3.05a4.367,4.367,0,0,1-.11-1.2c0-.14.15-.27.23-.41a1.563,1.563,0,0,1,.22.4,6.332,6.332,0,0,0,.24.88,15.959,15.959,0,0,0,1,1.69,2.017,2.017,0,0,0,.78.73,7.541,7.541,0,0,0,2.22.7,2.868,2.868,0,0,0,2.62-.92,4.1,4.1,0,0,0,.88-3.26,8.459,8.459,0,0,0-3.37-5.52,4.708,4.708,0,0,0-4.24-.65,4.625,4.625,0,0,0-3.56,3.91c-.05.28-.15.56-.22.84a8.646,8.646,0,0,0,.17,4.73,11.144,11.144,0,0,0,6.68,7.13,23.343,23.343,0,0,0,5.25,1.5c.91.15,1.81.36,2.72.54C36.95,44.35,37.38,44.46,38.02,44.61Zm1.66,6.05a8.485,8.485,0,0,0,.96-.4c2.32-1.28,4.61-2.62,6.97-3.84a5.544,5.544,0,0,0,2.63-2.34,1.2,1.2,0,0,0-.47-1.81,5.084,5.084,0,0,0-2.41-.68,6.84,6.84,0,0,0-4.05.89A34.375,34.375,0,0,0,38.4,45.8a3.584,3.584,0,0,0-.98,1.25A2.551,2.551,0,0,0,39.68,50.66ZM33.7,29.6c1.49-2.52,1.49-2.52,3.68-4.18a.518.518,0,0,0,.19-.37,4.316,4.316,0,0,0-.13-1.08,7.5,7.5,0,0,0-2.16-3.42,2.341,2.341,0,0,0-1.85-.78,6.243,6.243,0,0,0-4.9,2.85c-.33.48-.64.97-1,1.5C30.8,24.66,32.5,26.83,33.7,29.6Zm5.28-4.96a11.994,11.994,0,0,1,5.85-.78,4.181,4.181,0,0,0-.06-.56,10.859,10.859,0,0,0-2.19-4.27,2.856,2.856,0,0,0-1.24-.81,5.543,5.543,0,0,0-5.56,1.08,24.169,24.169,0,0,1,1.96,2.45A23.7,23.7,0,0,1,38.98,24.64Z"/><path d="M38.02,44.61c-.64-.15-1.07-.26-1.5-.35-.9-.19-1.81-.39-2.72-.54a23.493,23.493,0,0,1-5.25-1.5,11.144,11.144,0,0,1-6.68-7.13,8.642,8.642,0,0,1-.17-4.73c.07-.28.17-.55.22-.84a4.65,4.65,0,0,1,3.56-3.91,4.743,4.743,0,0,1,4.24.65,8.421,8.421,0,0,1,3.37,5.52,4.134,4.134,0,0,1-.88,3.26,2.844,2.844,0,0,1-2.62.92,7.749,7.749,0,0,1-2.22-.7,2.017,2.017,0,0,1-.78-.73,15.96,15.96,0,0,1-1-1.69,4.95,4.95,0,0,1-.24-.88,3.966,3.966,0,0,0-.22-.4c-.08.14-.23.27-.23.41a4.367,4.367,0,0,0,.11,1.2c1.15,3.97,4.82,4.41,7.38,3.05a2.94,2.94,0,0,0,1.01-1.06,12.241,12.241,0,0,0,.77-1.67,4.178,4.178,0,0,0,2.45,1.81,26.218,26.218,0,0,0,3.1.11c0,.61-.01,1.35.01,2.09,0,.13.16.25.24.38.08-.11.22-.22.24-.34a20.84,20.84,0,0,0,.43-2.2,1.012,1.012,0,0,1,.62-.86,10.715,10.715,0,0,0,2.08-1.34,6.931,6.931,0,0,0,1.17-1.73c.07-.13-.12-.42-.19-.63-.2.11-.51.17-.58.33-1.08,2.27-3.21,2.96-5.38,3.27-2.53.36-4.27-2.3-3.28-4.74a6.115,6.115,0,0,1,2.44-2.87,11.581,11.581,0,0,1,5.82-1.83c3.21-.17,5.74,2.72,6.17,5.12a9.567,9.567,0,0,1-1.85,7.67,8.566,8.566,0,0,1-3.45,3.07A22.357,22.357,0,0,0,38.02,44.61Z" fill="#fff"/><path d="M39.68,50.66a2.569,2.569,0,0,1-2.27-3.62,3.676,3.676,0,0,1,.98-1.25,34.67,34.67,0,0,1,4.91-3.32,6.84,6.84,0,0,1,4.05-.89,4.973,4.973,0,0,1,2.41.68,1.2,1.2,0,0,1,.47,1.81,5.5,5.5,0,0,1-2.63,2.34c-2.36,1.22-4.65,2.56-6.97,3.84A6.718,6.718,0,0,1,39.68,50.66Z" fill="#fff"/><path d="M33.7,29.6c-1.2-2.77-2.89-4.94-6.17-5.48.35-.53.67-1.02,1-1.5a6.243,6.243,0,0,1,4.9-2.85,2.3,2.3,0,0,1,1.85.78,7.5,7.5,0,0,1,2.16,3.42,4.908,4.908,0,0,1,.13,1.08.558.558,0,0,1-.19.37C35.18,27.08,35.18,27.08,33.7,29.6Z" fill="#fff"/><path d="M38.98,24.64a22.875,22.875,0,0,0-1.23-2.88,22.141,22.141,0,0,0-1.96-2.45,5.566,5.566,0,0,1,5.56-1.08,2.916,2.916,0,0,1,1.24.81,10.729,10.729,0,0,1,2.19,4.27c.04.16.03.33.06.56A12.016,12.016,0,0,0,38.98,24.64Z" fill="#fff"/><path d="M74.54,52.63c-3.31,1.41-6.54,2.78-9.75,4.18a2.187,2.187,0,0,0-.91.85,1.7,1.7,0,0,1-2.55.6c-1.3-1.11-2.02-3.47.48-4.47,3.48-1.39,6.96-2.76,10.44-4.14.29-.11.59-.2.92-.3a1.564,1.564,0,0,0,.02-.3,18.326,18.326,0,0,1,3.44-14.06,14.427,14.427,0,0,1,12.06-6.03,16.175,16.175,0,0,1,10.56,3.38.811.811,0,0,0,.21.1,13.016,13.016,0,0,1,6.92-4.93c5.35-1.37,10.19-.38,14.09,3.79a13.785,13.785,0,0,1,2.42,3.15,18.415,18.415,0,0,1,2.12,7.57c.09,3.26-.7,6.17-3.15,8.48a6.411,6.411,0,0,1-3.47,1.83c-.08.46-.17.94-.26,1.42a4.717,4.717,0,0,1-2.98,3.58,9.359,9.359,0,0,1-5.83.73c-.79-.16-1.61-.14-2.42-.23-.56-.06-.98-.33-.92-.95.05-.59.52-.76,1.03-.72,1.33.1,2.66.23,3.99.36a7.316,7.316,0,0,0,4.11-1.09c1.62-.84,2.03-4.07.82-5.37a4.431,4.431,0,0,0-2.86-1.54,20.7,20.7,0,0,0-6.92.73.729.729,0,0,0-.39.4c-.38.89-.73,1.79-1.1,2.68a18.078,18.078,0,0,1-5.55,7,9.575,9.575,0,0,1-5.06,2.17,28.3,28.3,0,0,1-7.12.07,16.376,16.376,0,0,1-12.17-8.62A2.336,2.336,0,0,1,74.54,52.63ZM91.7,57.99c1.51-.27,3.42-.23,4.91-1.37,1.72-1.32,3.61-2.48,4.73-4.51a11.474,11.474,0,0,0,1.75-7.23A12.755,12.755,0,0,0,94.3,34.02c-5.57-2.03-12.42.06-15.14,4.87-1.64,2.89-2.9,5.82-2.12,9.31a11.737,11.737,0,0,0,5.36,7.78C85.17,57.72,88.23,58.15,91.7,57.99Zm25.74-8.56a6.879,6.879,0,0,0,3.43-3.81,9.766,9.766,0,0,0-.06-7.72,16.66,16.66,0,0,0-3.44-4.83,7.081,7.081,0,0,0-5.3-2.31c-.42,0-.84.01-1.26.01-3.82-.02-6.88,1.35-8.81,4.87A19.49,19.49,0,0,1,105.75,48c1.09-.26,2.06-.57,3.06-.72C111.97,46.85,115.2,46.19,117.44,49.43Z"/><path d="M91.7,57.99a15.33,15.33,0,0,1-9.31-2.02,11.737,11.737,0,0,1-5.36-7.78c-.78-3.49.49-6.42,2.12-9.31,2.72-4.81,9.57-6.9,15.14-4.87a12.755,12.755,0,0,1,8.79,10.86,11.347,11.347,0,0,1-1.75,7.23c-1.12,2.03-3,3.18-4.73,4.51C95.12,57.75,93.21,57.71,91.7,57.99ZM82.8,45.52a1.8,1.8,0,0,0,2,1.83,2.835,2.835,0,0,0,2.57-2.6,2.305,2.305,0,0,0-2.5-2.17C83.42,42.7,82.66,43.77,82.8,45.52Z" fill="#fff"/><path d="M117.44,49.43c-2.24-3.24-5.46-2.58-8.62-2.14-1,.14-1.98.46-3.06.72a19.49,19.49,0,0,0-3.75-12.36c1.93-3.51,4.99-4.89,8.81-4.87.42,0,.84-.01,1.26-.01a7.045,7.045,0,0,1,5.3,2.31,16.8,16.8,0,0,1,3.44,4.83,9.724,9.724,0,0,1,.06,7.72A6.951,6.951,0,0,1,117.44,49.43Zm.94-6.91a1.943,1.943,0,0,0,1.86-2.02,1.975,1.975,0,0,0-2.16-1.7,1.915,1.915,0,0,0-1.9,1.97A1.971,1.971,0,0,0,118.38,42.52Z" fill="#fff"/><path d="M82.8,45.52c-.13-1.75.62-2.83,2.07-2.94a2.305,2.305,0,0,1,2.5,2.17,2.817,2.817,0,0,1-2.57,2.6A1.791,1.791,0,0,1,82.8,45.52Z"/><path d="M118.38,42.52a1.965,1.965,0,0,1-2.2-1.74,1.909,1.909,0,0,1,1.9-1.97,1.982,1.982,0,0,1,2.16,1.7A1.94,1.94,0,0,1,118.38,42.52Z"/><path d="M139.78,35.84c-.17-.24-.24-.36-.32-.46a12.542,12.542,0,0,1-2.64-6.09,9.022,9.022,0,0,1,.34-4.6,5.112,5.112,0,0,1,1.64-2.35,13.559,13.559,0,0,1,4.02-2.39c-.05-.43-.07-.86-.15-1.27a4.889,4.889,0,0,1,2.87-5.1,8.253,8.253,0,0,1,8.08.65c.07.04.13.1.2.14a2.065,2.065,0,0,1,1.42,1.97,12.141,12.141,0,0,1,2.67.16c3.49,1.05,5.34,2.6,6.13,5.89a.9.9,0,0,1,.05.42c-.27.71.25.97.69,1.32a7.423,7.423,0,0,1,2.82,5.55,13.573,13.573,0,0,1-2.35,8.03c-1.91,3.05-4.92,4.32-8.06,5.37-1.74.59-3.59.87-5.37,1.29.23.36.56.84.84,1.34a2.437,2.437,0,0,1,.09,2.37,3,3,0,0,1-5.05.25,12.724,12.724,0,0,0-1.06-1.54,10.781,10.781,0,0,0-1.84-1.45c-2.1-1.35-4.26-2.61-6.33-4a5.834,5.834,0,0,1-1.68-1.78,2.53,2.53,0,0,1,2.08-3.74C139.12,35.83,139.38,35.84,139.78,35.84Zm3.97-9.52c.23.67.4,1.28.65,1.86a5.643,5.643,0,0,0,.78,1.4,5.874,5.874,0,0,0,2.49,1.55,3.536,3.536,0,0,0,4.48-1.24,3.924,3.924,0,0,0,.05-4.53c-2.12-3.81-7.62-5.71-11.66-2.6a5.906,5.906,0,0,0-2.36,6,14.639,14.639,0,0,0,6.32,10.01c1.93,1.38,3.85,2.79,5.77,4.19a.888.888,0,0,0,.46.22c.94-.1,1.88-.19,2.81-.36a22.382,22.382,0,0,0,6.8-2.42,9.653,9.653,0,0,0,3.05-2.6A14.369,14.369,0,0,0,166,31.89a6.714,6.714,0,0,0-.78-4.95A6.111,6.111,0,0,0,160,23.86a6.5,6.5,0,0,0-5.34,2.17,1.139,1.139,0,0,0-.38.81,4.894,4.894,0,0,1-.85,3.73c-.09.15-.24.32-.23.47a4.449,4.449,0,0,0,3.12,4.35,4.882,4.882,0,0,0,5.25-1.58,5.835,5.835,0,0,0,1.02-2.02,2.867,2.867,0,0,0-.15-1.23c-.06-.38-.07-.76.37-.91.46-.15.65.18.79.54a3.2,3.2,0,0,1,.15,2.07,6.11,6.11,0,0,1-5.36,4.46,5.314,5.314,0,0,1-5.34-2.6,19.055,19.055,0,0,1-.94-2.11,5.121,5.121,0,0,1-3.76.54c-2.58-.77-4.62-2.12-5.03-5.06A1.036,1.036,0,0,1,143.75,26.32Zm-4.39,10.55a1.686,1.686,0,0,0-1.02,3.15,10.931,10.931,0,0,0,1.48,1.04c2.13,1.34,4.27,2.66,6.4,4a1.728,1.728,0,0,1,.41.35c.62.79,1.26,1.56,1.83,2.38a1.883,1.883,0,1,0,3.2-1.98,8.569,8.569,0,0,0-1.35-1.69,41.582,41.582,0,0,0-7.08-5.22,3.973,3.973,0,0,1-1.11-.81A3.126,3.126,0,0,0,139.36,36.87Zm23.61-13.86c.06-.04.11-.07.17-.11-.37-.63-.76-1.25-1.09-1.9-1-2-2.87-2.8-4.83-3.27a7.416,7.416,0,0,0-5.43,1.15,4.135,4.135,0,0,0-1.83,2.22,9.707,9.707,0,0,1,3.9,4.29C156.3,22.16,159.48,21.96,162.97,23.01Zm-8.64-6.36a3.872,3.872,0,0,0-.57-.81,7.336,7.336,0,0,0-5.72-1.76,4.833,4.833,0,0,0-3.86,2.36c-.63,1.07-.45,2.2-.46,3.39a9.335,9.335,0,0,1,5.51.87C150.17,18.39,151.98,17.26,154.33,16.65Z"/><path d="M143.75,26.32a1.011,1.011,0,0,0-.44,1.14c.41,2.95,2.44,4.3,5.03,5.06a5.12,5.12,0,0,0,3.76-.54,19.921,19.921,0,0,0,.94,2.11,5.322,5.322,0,0,0,5.34,2.6,6.112,6.112,0,0,0,5.36-4.46,3.2,3.2,0,0,0-.15-2.07c-.15-.36-.34-.69-.79-.54s-.43.53-.37.91c.06.41.27.87.15,1.23a5.749,5.749,0,0,1-1.02,2.02,4.882,4.882,0,0,1-5.25,1.58,4.436,4.436,0,0,1-3.12-4.35c-.01-.15.14-.32.23-.47a4.884,4.884,0,0,0,.85-3.73,1.175,1.175,0,0,1,.38-.81,6.557,6.557,0,0,1,5.34-2.17,6.068,6.068,0,0,1,5.22,3.08,6.762,6.762,0,0,1,.78,4.95,14.369,14.369,0,0,1-2.61,5.91,9.653,9.653,0,0,1-3.05,2.6,22.382,22.382,0,0,1-6.8,2.42c-.93.17-1.87.27-2.81.36-.15.02-.33-.12-.46-.22-1.93-1.39-3.84-2.8-5.77-4.19a14.639,14.639,0,0,1-6.32-10.01,5.924,5.924,0,0,1,2.36-6c4.04-3.11,9.54-1.21,11.66,2.6a3.891,3.891,0,0,1-.05,4.53,3.522,3.522,0,0,1-4.48,1.24,5.874,5.874,0,0,1-2.49-1.55,5.982,5.982,0,0,1-.78-1.4C144.16,27.6,143.98,26.99,143.75,26.32Zm2.45,12.15a4.125,4.125,0,0,0,.08-1.07,4.105,4.105,0,0,1,.25-3c.05-.09-.03-.26-.05-.39-.15.02-.35,0-.43.08a3.86,3.86,0,0,0-.68.83A2.861,2.861,0,0,0,146.2,38.47Z" fill="#fff"/><path d="M139.36,36.87a3.1,3.1,0,0,1,2.75,1.22,3.973,3.973,0,0,0,1.11.81,42.124,42.124,0,0,1,7.08,5.22,9.193,9.193,0,0,1,1.35,1.69,1.752,1.752,0,0,1-.62,2.68,1.779,1.779,0,0,1-2.58-.7c-.57-.82-1.21-1.59-1.83-2.38a1.525,1.525,0,0,0-.41-.35c-2.13-1.34-4.27-2.66-6.4-4a10.931,10.931,0,0,1-1.48-1.04,1.8,1.8,0,0,1-.79-2A1.829,1.829,0,0,1,139.36,36.87Z" fill="#fff"/><path d="M162.97,23.01c-3.49-1.04-6.67-.85-9.11,2.38a9.707,9.707,0,0,0-3.9-4.29,4.135,4.135,0,0,1,1.83-2.22,7.369,7.369,0,0,1,5.43-1.15c1.97.47,3.83,1.27,4.83,3.27.33.65.73,1.27,1.09,1.9C163.08,22.94,163.03,22.97,162.97,23.01Z" fill="#fff"/><path d="M154.33,16.65c-2.35.61-4.17,1.74-5.11,4.05a9.335,9.335,0,0,0-5.51-.87c.01-1.19-.17-2.32.46-3.39a4.9,4.9,0,0,1,3.86-2.36,7.336,7.336,0,0,1,5.72,1.76A3.536,3.536,0,0,1,154.33,16.65Z" fill="#fff"/><path d="M146.2,38.47a2.878,2.878,0,0,1-.84-3.55,3.347,3.347,0,0,1,.68-.83c.09-.09.29-.06.43-.08.02.13.1.3.05.39a4.105,4.105,0,0,0-.25,3A4.08,4.08,0,0,1,146.2,38.47Z"/></g></svg>