<svg xmlns="http://www.w3.org/2000/svg" xmlns:xlink="http://www.w3.org/1999/xlink" width="127.87" height="134.886" viewBox="0 0 127.87 134.886"><defs><clipPath id="a"><path d="M100.18,109.18c-2.89,1.07-4.34.89-3.74,3.77.46,2.22,1.89,3.9,2.34,6.21.7,3.58,1.46,8.23.72,11.66-.83,3.86-.73,9.05,1.97,12.34,1.78,2.17,2.88,1.21,5.94.5,2.47-.57,5.04-.81,7.55-1.52,3.93-1.12,8.08-2.56,7.79-6.51a15.448,15.448,0,0,0-1.54-5.28c-.94-1.69-2.9-2.43-3.88-3.95-1.78-2.75-2.51-7.55-3.53-10.55a20.48,20.48,0,0,1-1.39-5.32c-.05-1.86,1.43-3.71.63-5.4a23.2,23.2,0,0,1-4.13.86,62.645,62.645,0,0,1,1.95,13.34,59.993,59.993,0,0,0,.72,7.01c.45,3.18-1.27,3.26-4.67,3.71-2.72-2.16-2.12-7.54-2.61-10.49-.59-3.61-1.96-7.31-2.68-10.74-.27,0-1.44.1-1.56.13a1.108,1.108,0,0,0-.71.72"/></clipPath></defs><g transform="translate(-8.501 -11.159)"><path d="M36.84,59.08c-.43-.27-.87-.54-1.3-.81a20.514,20.514,0,0,0-6.22,7.78,8.2,8.2,0,0,0-.88,5.07c.6,2.75,3.32,4.5,5.99,5.39a26.8,26.8,0,0,0,15.14.03,67.733,67.733,0,0,0,14.11-5.96l-1.23,1.11" fill="none" stroke="#000" stroke-miterlimit="10" stroke-width="5"/><path d="M110.02,76.01c4.99,3,12.88,3.3,18.3.69,4.03-1.94,6.59-5.65,5.08-8.92a10.081,10.081,0,0,0-2.49-3.04c-8.03-7.15-22.76-10.18-35.01-7.19" fill="none" stroke="#000" stroke-miterlimit="10" stroke-width="5"/><path d="M108,116.96A67.468,67.468,0,0,0,80.47,73.25a76.52,76.52,0,0,1-11.46,43.13" fill="none" stroke="#231f20" stroke-linecap="round" stroke-width="6"/><path d="M83.43,109.21c.13-2.41-5.03-3.01-6.86-3.14-2.81-.2-10.46-4.01-9.88-2.62-.37,1.11,2.58,5.47,3.24,6.47a6.52,6.52,0,0,0,2.38,2.22c.99.54,4.15,2.01,5.28,1.88,1.79-.21,5.3-3.1,5.52-4.76" fill="#231f20" stroke="#231f20" stroke-linecap="round" stroke-width="0.84"/><path d="M76.08,111.14a8.938,8.938,0,0,1,1.3-3.18c-1.07.35-4.31-.03-5.41-.22-1.93-.33-4.35-3.28-5.47-4.58.57,2.82-.2,6.06-.91,8.38-.84,2.78-.69,3.55-2.57,5.59a15.491,15.491,0,0,0-3.68,5.75,32.924,32.924,0,0,0-.93,6.05c-.22,1.49-.93,3.34-.76,4.85.16,1.35.96,1.57,2.5,2.05a16,16,0,0,1,6.04,3.72c3.16,2.73,8.3,3.66,12.56,4.44a25.531,25.531,0,0,0,4.14.68,25.5,25.5,0,0,0,4.97-.73c1.69-.35,1.64-4.61,1.89-6.25.56-3.68-1.98-6.16-5.44-7.32-1.39-.47-3.06-.68-3.82-1.97-.82-1.41.19-3.04.23-4.49" fill="#e83e2e" stroke="#231f20" stroke-linecap="round" stroke-width="0.84"/><path d="M61.23,122.81c-.59,2.07-.16,3.99.95,4.29s2.48-1.12,3.06-3.18.16-3.99-.95-4.3S61.81,120.74,61.23,122.81Z" fill="#fff" stroke="#231f20" stroke-linecap="round" stroke-width="0.84"/><path d="M80.26,122.7c.35-2.91-.06-6.04.91-7.69,1.24-2.11,2.53-3.73.09-5.95-2.9-2.65-6.1-1.46-7.28,1.39-.47,1.14.27,3.08.3,4.29.03,1.32.68,3.15.75,4.52.12,2.47,2.87,9.18,5.41,11.12,1.25-.06.54.83,3.87.53" fill="#fff" stroke="#231f20" stroke-linecap="round" stroke-width="0.504"/><path d="M81.53,109.92c1.61.31,1.45-.57,2.16-.61-.66,3.07-1.75,5.71-2.3,8.77-1.83,10.29,2.17,10.58,4.69,13.19-.83-.37-1.47-.27-2.44-.68-1.33-2.97-7.01-2.76-1.97-20.63" fill="#e83e2e" stroke="#231f20" stroke-linecap="round" stroke-width="0.84"/><path d="M78.18,132.36c3.12-1.19,3.3-1.03,4.1-2.13-1.58-.45-2.75-2.68-3.54-3.84-.98-1.44-1-2.9-1.33-4.6-.42-2.15-2-5.04-1.56-7.15a18.243,18.243,0,0,1,2.78-6.06c-2.6-1.03-7.47.78-10.38-3.72" fill="#e83e2e" stroke="#231f20" stroke-linecap="round" stroke-width="0.84"/><path d="M82.1,110.87s-5.19,1.35-6.07,1.44c0,0,4.07,2.64,4.72,3.15,0,0-5.05,1.81-5.97,2.22,0,0,6.37,2.99,6.84,3.41a49.057,49.057,0,0,0-4.39,2.85s4.58,3.25,5.16,3.7c-.06.03-3.36,2.23-3.36,2.23.54-.61,5.24.18,5.24.18l-6.14-2.88a33.029,33.029,0,0,1,3.45-2.73c-.94-.83-4.48-3.08-4.59-3.25.91-.36,3.08-3.11,3.08-3.11-.64-.56-4.56-3.53-4.56-3.53.87-.23,5.44-1.28,5.44-1.28-.61-.5-3.59-3.54-3.59-3.54Z" fill="none" stroke="#231f20" stroke-linecap="round" stroke-linejoin="round" stroke-width="1.008"/><path d="M79.8,110.14a16,16,0,0,1,2.03-.63c.54-.16,3.02-.88,4.26.54s1.47,4.99.17,5.93c-.49.35-2.09-.29-2.65-.94a30.559,30.559,0,0,1-3-4.01c-.93-1.56-2.87-1.81-4.7-2.11-1.77-.29-6.27-.02-7.21.55a3.192,3.192,0,0,0-1.09,4.8c3.84,5.12,9.43-2.07,10.48-3.04.18-.17.56-.39.75-.53a4.985,4.985,0,0,1,1.06-.42,3.215,3.215,0,0,1,.13.87c.23,1.38.47,2.8.81,4.17.57,2.26,3.44,4.83,5.27,6.49" fill="none" stroke="#231f20" stroke-linecap="round" stroke-linejoin="round" stroke-width="1.008"/><path d="M79.67,110.01c.23,2.06-.75,3.8-1.68,5.57-.6,1.14.46,2.95-.41,3.94a10.842,10.842,0,0,1-1.67,1.5,5.314,5.314,0,0,0-1.07.77" fill="none" stroke="#231f20" stroke-linecap="round" stroke-linejoin="round" stroke-width="1.008"/><path d="M58.46,133.18a6.365,6.365,0,0,0,2.97,1.51c2.32.75,4.06,2.18,6.1,3.6.61.42,1.3.89,2.02,1.34.26-1.27,2-2.81,3.13-3.42a19.226,19.226,0,0,1,5.14-1.41,26.259,26.259,0,0,1,11.72.31c.35,1.51,1.33,4.05.76,5.48-.27.67-1.52,2.76-1.46,2.77-.06-.01-.16.36-.17.4a4.672,4.672,0,0,0-.08.52,1.242,1.242,0,0,1-.34.92.727.727,0,0,1-.45.16c-.09.01-.18.01-.26.02a3.178,3.178,0,0,0-.62.05c-.13.03-.23.09-.36.11a9.071,9.071,0,0,1-1.28.08,22.255,22.255,0,0,1-2.58-.1,28.507,28.507,0,0,1-5.09-1.02c-1.47-.43-2.91-.96-4.33-1.52-.83-.33-1.65-.68-2.46-1.03-.41-.18-.82-.36-1.22-.53a4.169,4.169,0,0,0-.58-.24,3.681,3.681,0,0,1-.96-.46c-.12-.07-.25-.1-.37-.16a6.735,6.735,0,0,1-.95-.74,16.119,16.119,0,0,0-1.69-1.26,40.38,40.38,0,0,0-7.73-3.7c-.24-.71.17-1.45.29-2.43Z" fill="#fff" stroke="#231f20" stroke-linecap="round" stroke-width="0.84"/><path d="M89.42,135.14a.434.434,0,0,1-.05-.01c-.01-.04-.02-.08-.03-.11Z" fill="#fff" stroke="#231f20" stroke-linecap="round" stroke-width="0.84"/><path d="M73.14,140.81a18.312,18.312,0,0,1,3.19.95c.19.07.34.18.53.24.4.13.8.25,1.21.36a20.81,20.81,0,0,0,2.47.51,23.211,23.211,0,0,0,4.99.21,21.806,21.806,0,0,0,2.43-.31" fill="#fff" stroke="#231f20" stroke-linecap="round" stroke-width="0.84"/><path d="M100.53,110.46c-.79-2.57-1.09-2.5,1.68-4.34,2.09-1.39,3.84-1.85,6.19-.95,4.28,1.64,3.68,6.81,3.72,10.34a22.594,22.594,0,0,0,1.09,6.29c.48,1.73,3.93,8.52-5.1,10.45-6.66,1.42-4.68-9.12-5.59-11.08-.75-1.63.62-4.3-.06-5.95-.74-1.81-.65-3.85-2.07-5.27" fill="#fff" stroke="#231f20" stroke-linecap="round" stroke-width="1.093"/><path d="M100.18,109.18c-2.89,1.07-4.34.89-3.74,3.77.46,2.22,1.89,3.9,2.34,6.21.7,3.58,1.46,8.23.72,11.66-.83,3.86-.73,9.05,1.97,12.34,1.78,2.17,2.88,1.21,5.94.5,2.47-.57,5.04-.81,7.55-1.52,3.93-1.12,8.08-2.56,7.79-6.51a15.448,15.448,0,0,0-1.54-5.28c-.94-1.69-2.9-2.43-3.88-3.95-1.78-2.75-2.51-7.55-3.53-10.55a20.48,20.48,0,0,1-1.39-5.32c-.05-1.86,1.43-3.71.63-5.4a23.2,23.2,0,0,1-4.13.86,62.645,62.645,0,0,1,1.95,13.34,59.993,59.993,0,0,0,.72,7.01c.45,3.18-1.27,3.26-4.67,3.71-2.72-2.16-2.12-7.54-2.61-10.49-.59-3.61-1.96-7.31-2.68-10.74-.27,0-1.44.1-1.56.13a1.108,1.108,0,0,0-.71.72" fill="#e83e2e"/><g clip-path="url(#a)"><path d="M99.59,124.43c2.03.98,2.81,4.99.06,6.02" fill="#fff" stroke="#231f20" stroke-linecap="round" stroke-width="1.093"/></g><g clip-path="url(#a)"><path d="M117.33,125.56c-2.27-.5-4.15-4.16-1.71-5.72" fill="#fff" stroke="#231f20" stroke-linecap="round" stroke-width="1.093"/></g><path d="M100.18,109.18c-2.89,1.07-4.34.89-3.74,3.77.46,2.22,1.89,3.9,2.34,6.21.7,3.58,1.46,8.23.72,11.66-.83,3.86-.73,9.05,1.97,12.34,1.78,2.17,2.88,1.21,5.94.5,2.47-.57,5.04-.81,7.55-1.52,3.93-1.12,8.08-2.56,7.79-6.51a15.448,15.448,0,0,0-1.54-5.28c-.94-1.69-2.9-2.43-3.88-3.95-1.78-2.75-2.51-7.55-3.53-10.55a20.48,20.48,0,0,1-1.39-5.32c-.05-1.86,1.43-3.71.63-5.4a23.2,23.2,0,0,1-4.13.86,62.645,62.645,0,0,1,1.95,13.34,59.993,59.993,0,0,0,.72,7.01c.45,3.18-1.27,3.26-4.67,3.71-2.72-2.16-2.12-7.54-2.61-10.49-.59-3.61-1.96-7.31-2.68-10.74-.27,0-1.44.1-1.56.13a1.108,1.108,0,0,0-.71.72" fill="none" stroke="#231f20" stroke-linecap="round" stroke-width="0.759"/><path d="M100.51,141.73c1.83-4.19,1.56-6.07,6.53-8.66,3.82-2,8.82-2.14,12.29-.27,4.19,2.27,4.54,4.68,2.17,6.47-4.39,3.31-16.35,5.23-17.93,5.48C101.13,145.13,100.51,141.73,100.51,141.73Z" fill="#fff" stroke="#231f20" stroke-linecap="round" stroke-width="0.759"/><path d="M103.55,141.17c5.03.91,12.73-2.24,16.69-4.85" fill="none" stroke="#231f20" stroke-linecap="round" stroke-width="0.759"/><path d="M105.11,130.59c2.84-.79,5.42-1.64,8.21-2.58-3.44-.62-6.27-.34-9.81-.42,2.14-2.67,5.18-4.19,8.29-5.9-2.4.18-7.28.45-9.24-.48,2.02-2.42,6.06-3.03,8.36-5.31-3.07-.72-6.62.42-9.27-.34,1.27-2.17,6.29-4.66,8.76-5.9-3.39-.53-6.46.86-9.77.77,1.52-.65,6.17-3.04,5.23-4.7a5.117,5.117,0,0,0-1.39.38,3.355,3.355,0,0,0,.33,1.2,3.076,3.076,0,0,0,2.11-.09,1.556,1.556,0,0,0-1.24-1.24c.02.64-.48.56.01,1.35-4.91,1.66-11.14,2.1-14.56,5.77-4.19,4.5.64,8.87,6.34,5.89,2.18-1.14,3.58-3.65,4.75-5.51,1.06-1.69,1.82-4.44,3.2-5.81,3.35-3.33,10.78-.75,13.12,1.96,2.65,3.07,1.15,6.37-3.57,4.47-2.96-1.19-4.64-3.79-7.21-5.42-3.45-2.19-5.17.49-7.56,3.58a13.666,13.666,0,0,0-2.95,9.51" fill="none" stroke="#231f20" stroke-linecap="round" stroke-linejoin="round" stroke-width="1.093"/><path d="M105.39,106.11c4.43.96,11.38,5.73,12.25,9.8" fill="none" stroke="#231f20" stroke-linecap="round" stroke-width="1.093"/><path d="M105.7,130.43c1.73-2.18,4.39-3.97,6.74-5.91-2.41.02-5.3-1.24-9.14-.33,1.75-2.78,5.74-3.59,8.34-5.61-2.73-1.01-6.09-.47-9.21-.2,2.05-2.11,5.99-3.58,8.39-5.53a37.159,37.159,0,0,0-9.79-.67c1.52-1.27,4.19-1.63,5.87-2.77,1.14-.78,1.58-2.28,3.19-2.97a12.287,12.287,0,0,1-4.85.25" fill="none" stroke="#231f20" stroke-linecap="round" stroke-linejoin="round" stroke-width="1.093"/><path d="M106.01,39.92c-1.02,1.14-.9,2.37.85,2.34,2.1-.18,2.16,2.21.97,3.28a2,2,0,0,0,.64,3.14,2.082,2.082,0,0,1,.62,3.71c-1.81,1.19-.85,2.49.12,3.5,1.74,1.54,1.72,3.1.33,3.69-1.96.83-1.08,2.59-.38,3.28,1.44,1.8.99,4.27-.82,4.18-1.24-.04-1.64,2.25-.77,3.02,2.44,2.24.18,3.33-1.11,3.17-3.66-.3-2.02,1.99-1.43,2.73.32.43.55,3.88-1.7,2.42-2.58-1.61-2.31,2.26-2.2,2.21,1.09-.32-.47,4.03-1.99,2.69-1.47-1.22-2.93-.18-2.58,1.94.52,2.19-1.29,3.39-3.04,2.14-3.23-2.18-.89,2.08-2.79,2.74-.71,1.86-2.91-4.31-4.02.14-.49,2.05-2.33,2.54-3.65.69-1.16-1.78-2.93-1.46-3.08.45-.21,2.08-4.42.16-3.32-.44,0,0-2.58-2.89-3.23.09-.52,2.63-2.83.06-2.92-.47-.13-.94-.62-3.72-2.96-.88-.78,1.04-3.14,1.9-3.04-1.41.05-1.16-1.86-2.48-2.7-1.56-1.2,1.36-3.28-.03-3.45-2.38-.12-.94-.77-2.8-2.62-2.02-1.5.63-2.64-.45-2.53-2.76-.05-1.4-.2-3.04-2.31-2.57A2.074,2.074,0,0,1,48.55,74a1.881,1.881,0,0,0-1.8-2.65c-1.59.1-3.47-2.08-1.67-2.98,1.22-.66.89-2.08-1.02-2.41-1.79-.38-2.3-1.58-1.13-2.36a1.3,1.3,0,0,0-.8-2.22c-2.04.01-2.16-2.21-.98-3.28a1.873,1.873,0,0,0-.64-3.13,2.073,2.073,0,0,1-.5-3.76c1.81-1.19.74-2.44-.23-3.45-1.79-1.66-1.72-3.11-.22-3.74,1.85-.78.97-2.54.33-3.41-1.51-1.63-1.1-4.22.76-4.01,1.19-.08,1.63-2.25.77-3.02-2.49-2.36-.23-3.45,1.06-3.29,3.71.42,1.97-2.11,1.43-2.73-.32-.43-.55-3.88,1.7-2.42,2.58,1.61,2.31-2.26,2.26-2.37-1.51-.36.1-4.59,1.99-2.69a1.555,1.555,0,1,0,2.47-1.89,1.615,1.615,0,0,1,2.58-1.94c.59.75,3.02,1.99,2.41-.74-.64-3.13,1.39-1.86,2.48-.9a1.444,1.444,0,0,0,2.39-1.43c-.7-1.98,2.49-2.47,3.65-.69,1.33,1.85,3.05,1.41,3.19-.5s4.35.01,3.32.45c-.11.05,2.51,3.05,3.16.08.52-2.63,2.83-.06,2.92.47.07.82.67,3.83,2.96.88.79-1.04,3.15-1.9,3.1,1.53-.06,1.16,1.81,2.36,2.7,1.56,1.14-1.48,3.28.04,3.52,2.21.06,1.11.71,2.97,2.67,2.14,1.39-.59,2.47.37,2.41,2.81.05,1.4.31,2.99,2.43,2.52a2.08,2.08,0,0,1,2.23,3.03,1.994,1.994,0,0,0,1.8,2.65c1.59-.1,2.88,1.34,1.67,2.99-1.27,1.81-.28,2.25.91,2.17C107.59,37.55,107.37,38.63,106.01,39.92Z" fill="#e58a2d" fill-rule="evenodd"/><path d="M105.66,40.07c-.9,1.09-.79,2.32.92,2.17,1.99-.13,2.21,2.33,1.03,3.4a1.763,1.763,0,0,0,.59,3.02,2.121,2.121,0,0,1,.62,3.72c-1.81,1.19-.85,2.49.12,3.5,1.74,1.54,1.72,3.1.33,3.69-1.96.83-1.08,2.59-.38,3.28,1.39,1.68.94,4.15-.87,4.06-1.08.03-1.52,2.2-.77,3.02,2.44,2.23.3,3.28-1.06,3.29-3.6-.47-1.95,1.82-1.42,2.44.37.55.6,4-1.65,2.54-2.63-1.73-2.31,2.25-2.2,2.2,1.09-.32-.52,3.91-1.99,2.69s-2.98-.3-2.47,1.89c.35,2.12-1.34,3.26-3.04,2.13-3.23-2.18-.89,2.08-2.79,2.74-.76,1.74-2.91-4.31-3.91.09-.54,1.94-2.49,2.47-3.65.69-1.33-1.85-3.05-1.41-3.19.5s-4.3.11-3.32-.45c.11-.05-2.51-3.05-3.11.04-.52,2.63-2.83.06-2.97-.59-.07-.82-.56-3.59-2.74-.69-.84.92-3.2,1.78-3.1-1.53-.06-1.11-1.93-2.31-2.7-1.56-1.2,1.36-3.28-.04-3.4-2.26-.13-.94-.77-2.8-2.62-2.02-1.5.63-2.52-.49-2.53-2.76-.05-1.4-.2-3.04-2.31-2.57a2.1,2.1,0,0,1-2.35-2.98c.5-1.06-.21-2.75-1.63-2.58-1.7.15-3.58-2.03-1.84-3.06,1.22-.66.89-2.08-.97-2.29-1.79-.38-2.3-1.58-1.13-2.36a1.269,1.269,0,0,0-.8-2.22c-1.92-.04-2.16-2.21-.86-3.33a1.782,1.782,0,0,0-.71-2.96,2.092,2.092,0,0,1-.5-3.76c1.81-1.19.74-2.44-.23-3.45-1.62-1.59-1.72-3.11-.22-3.74,1.85-.78.97-2.54.38-3.28-1.51-1.63-1.1-4.22.71-4.13,1.13.09,1.52-2.2.82-2.9-2.49-2.35-.23-3.45,1.06-3.29,3.6.47,1.9-1.94,1.31-2.68-.32-.43-.55-3.88,1.7-2.42,2.58,1.6,2.31-2.26,2.2-2.21-1.45-.53.17-4.76,1.99-2.69a1.615,1.615,0,0,0,2.58-1.94,1.556,1.556,0,1,1,2.47-1.89c.59.75,2.97,1.87,2.41-.74-.64-3.13,1.34-1.98,2.42-1.02a1.434,1.434,0,0,0,2.44-1.31c-.7-1.98,2.38-2.42,3.65-.69,1.21,1.9,2.93,1.46,3.08-.45s4.3-.12,3.32.44c-.12.05,2.46,2.93,3.11-.04.52-2.63,2.83-.06,2.92.47.12.94.67,3.83,2.84.93.9-1.09,3.15-1.89,3.1,1.53.01.99,1.93,2.31,2.65,1.44,1.2-1.36,3.33.15,3.57,2.33.01.99.66,2.84,2.62,2.02,1.39-.59,2.52.5,2.41,2.82.05,1.4.31,2.99,2.43,2.52a2.1,2.1,0,0,1,2.23,3.03,1.77,1.77,0,0,0,1.75,2.53c1.59-.1,2.93,1.46,1.67,2.99-1.27,1.81-.28,2.25.8,2.22C107.36,37.65,107.02,38.78,105.66,40.07Z" fill="#e58b2d" fill-rule="evenodd"/><path d="M105.43,40.16c-.9,1.09-.9,2.37.92,2.17,1.99-.13,2.16,2.21.86,3.33a1.792,1.792,0,0,0,.71,2.97,2.09,2.09,0,0,1,.5,3.76c-1.7,1.14-.74,2.44.23,3.45,1.74,1.54,1.67,2.99.28,3.57-1.96.83-.97,2.54-.38,3.28,1.39,1.68,1.1,4.22-.7,4.13-1.24-.04-1.63,2.25-.82,2.9,2.28,2.16.18,3.33-1.06,3.29-3.6-.47-1.95,1.82-1.42,2.44.32.43.55,3.88-1.7,2.42-2.58-1.61-2.31,2.26-2.2,2.21,1.09-.32-.53,3.91-2,2.69-1.42-1.1-2.82-.23-2.47,1.89a1.918,1.918,0,0,1-3.04,2.14c-3.12-2.23-.77,2.03-2.67,2.69-.76,1.74-2.91-4.31-3.91.09-.55,1.93-2.38,2.43-3.65.69-1.16-1.78-2.88-1.34-3.08.45-.15,1.91-4.31.11-3.32-.44.12-.05-2.46-2.94-3.11.04-.41,2.58-2.72.01-2.81-.52-.07-.82-.68-3.54-2.86-.64-.84.92-3.13,1.61-2.98-1.58-.01-.99-1.93-2.31-2.65-1.44-1.2,1.36-3.33-.15-3.57-2.33-.01-.99-.66-2.85-2.5-2.07-1.39.59-2.47-.38-2.48-2.64-.05-1.4-.2-3.04-2.31-2.57a2.094,2.094,0,0,1-2.35-2.98,1.788,1.788,0,0,0-1.63-2.57c-1.59.1-3.41-1.96-1.67-2.99,1.1-.61.89-2.08-.97-2.29-1.79-.38-2.3-1.58-1.13-2.36.76-.46.33-2.13-.75-2.1a1.783,1.783,0,0,1-.98-3.28,1.8,1.8,0,0,0-.71-2.97,2.081,2.081,0,0,1-.5-3.76c1.81-1.19.74-2.44-.23-3.45-1.62-1.59-1.55-3.03-.17-3.62,1.85-.78.92-2.66.27-3.24-1.39-1.68-.99-4.27.82-4.18,1.13.09,1.52-2.2.82-2.9-2.49-2.35-.35-3.4.95-3.24,3.6.47,2.02-1.99,1.48-2.61-.32-.43-.55-3.88,1.58-2.37,2.58,1.61,2.31-2.26,2.15-2.33-1.39-.4.22-4.64,1.99-2.69a1.555,1.555,0,1,0,2.47-1.89,1.6,1.6,0,0,1,2.63-1.82c.54.63,2.8,1.8,2.3-.68-.64-3.14,1.34-1.99,2.42-1.02,1.42,1.1,2.78-.18,2.32-1.27-.58-2.03,2.44-2.59,3.6-.81,1.33,1.85,2.93,1.46,3.08-.45.2-1.79,4.31-.11,3.32.45-.12.05,2.52,3.05,3.16.08.52-2.63,2.83-.06,2.92.47.07.82.62,3.71,2.79.81.78-1.04,3.03-1.85,3.1,1.53-.1,1.04,1.81,2.36,2.65,1.44,1.19-1.36,3.22.2,3.45,2.37.07.82.66,2.85,2.62,2.02,1.38-.58,2.47.38,2.36,2.69.04,1.4.31,2.99,2.31,2.57a2.082,2.082,0,0,1,2.35,2.98,1.8,1.8,0,0,0,1.63,2.58,1.808,1.808,0,0,1,1.78,2.94c-1.33,1.7-.33,2.13.75,2.1C107.01,37.79,106.79,38.88,105.43,40.16Z" fill="#e78e2c" fill-rule="evenodd"/><path d="M105.2,40.26c-.95.97-.9,2.37.8,2.22,1.98-.13,2.16,2.21.98,3.28-1.12.9-.41,2.58.71,2.96a2.005,2.005,0,0,1,.45,3.64c-1.7,1.14-.74,2.44.18,3.33,1.67,1.71,1.72,3.11.33,3.69-1.96.83-.97,2.54-.38,3.28,1.34,1.56,1.05,4.1-.76,4.01-1.13-.09-1.52,2.2-.81,2.9,2.44,2.23.3,3.28-.95,3.24-3.6-.47-2.07,1.87-1.53,2.49.32.43.55,3.88-1.58,2.37-2.58-1.61-2.31,2.26-2.2,2.21,1.09-.32-.53,3.91-2,2.69-1.35-1.27-2.87-.35-2.35,1.84.35,2.12-1.34,3.27-3.04,2.14-3.12-2.23-.83,1.91-2.72,2.57-.76,1.74-2.74-4.24-3.86.21-.55,1.93-2.38,2.43-3.54.64-1.33-1.85-2.93-1.46-3.08.45s-4.31.11-3.32-.44c.12-.05-2.46-2.94-3.11.04-.4,2.58-2.72.01-2.8-.52-.07-.82-.57-3.59-2.74-.69-.84.92-3.08,1.73-3.1-1.53.11-1.04-1.81-2.36-2.65-1.44-1.2,1.36-3.21-.2-3.4-2.25-.01-.99-.66-2.85-2.5-2.07-1.39.59-2.47-.38-2.53-2.77.12-1.33-.14-2.92-2.26-2.45a2.079,2.079,0,0,1-2.3-2.86c.5-1.06-.21-2.75-1.63-2.57-1.59.1-3.47-2.08-1.67-2.99,1.22-.66.89-2.08-.97-2.29-1.79-.38-2.3-1.58-1.13-2.36a1.2,1.2,0,0,0-.75-2.1c-2.04.01-2.16-2.21-.98-3.28a1.792,1.792,0,0,0-.71-2.97,2.061,2.061,0,0,1-.45-3.64c1.81-1.19.85-2.49-.23-3.45-1.62-1.59-1.55-3.03-.17-3.62,1.85-.78.97-2.54.27-3.24-1.39-1.68-1.05-4.1.76-4.01,1.24.04,1.63-2.25.82-2.9-2.38-2.4-.23-3.45,1.06-3.29,3.6.47,1.9-1.94,1.37-2.56-.32-.43-.55-3.88,1.58-2.37,2.58,1.61,2.31-2.26,2.2-2.21-1.44-.52.22-4.63,2-2.69a1.556,1.556,0,0,0,2.47-1.89,1.555,1.555,0,1,1,2.47-1.89c.59.75,2.85,1.92,2.3-.69-.64-3.13,1.39-1.86,2.42-1.02,1.42,1.1,2.78-.18,2.32-1.26-.65-1.86,2.38-2.43,3.65-.69,1.21,1.9,2.93,1.46,2.96-.4.15-1.91,4.31-.11,3.32.44-.12.05,2.46,2.93,3.11-.04.41-2.58,2.72-.01,2.8.52.08.82.73,3.67,2.91.76.78-1.04,3.03-1.85,2.98,1.58.01.99,1.93,2.31,2.65,1.44,1.2-1.36,3.17.08,3.4,2.25.12.94.66,2.85,2.62,2.02,1.39-.59,2.36.42,2.36,2.69.05,1.4.31,2.99,2.31,2.57a2,2,0,0,1,2.3,2.86,1.8,1.8,0,0,0,1.63,2.58c1.59-.1,2.88,1.34,1.67,2.99s-.21,2.08.92,2.17C106.78,37.89,106.45,39.02,105.2,40.26Z" fill="#e7912c" fill-rule="evenodd"/><path d="M104.85,40.41c-.95.97-.84,2.2.92,2.17,1.94-.25,2.11,2.09.92,3.16a1.8,1.8,0,0,0,.71,2.97,2.061,2.061,0,0,1,.45,3.64c-1.7,1.14-.79,2.32.18,3.33,1.62,1.59,1.67,2.99.28,3.57-1.96.83-.97,2.54-.38,3.28,1.39,1.68,1.05,4.1-.76,4.01-1.13-.09-1.52,2.2-.82,2.9,2.44,2.24.3,3.28-.95,3.24-3.6-.47-1.95,1.82-1.42,2.44.32.43.5,3.76-1.58,2.37-2.47-1.66-2.31,2.25-2.2,2.21,1.04-.44-.46,3.74-1.93,2.52-1.42-1.1-2.82-.23-2.47,1.89.47,2.07-1.23,3.22-2.93,2.09-3.12-2.23-.82,1.91-2.72,2.57-.71,1.86-2.69-4.12-3.86.21-.43,1.88-2.26,2.38-3.54.64-1.16-1.78-2.88-1.34-2.96.4-.15,1.91-4.31.11-3.27-.32.12-.05-2.46-2.93-3-.01-.57,2.51-2.83.06-2.92-.47-.08-.82-.57-3.59-2.74-.69-.83.92-3.08,1.73-2.98-1.58-.01-.99-1.93-2.31-2.65-1.44-1.2,1.36-3.16-.08-3.4-2.25-.13-.94-.66-2.85-2.51-2.06-1.39.59-2.47-.38-2.48-2.64.07-1.45-.14-2.92-2.26-2.45A2,2,0,0,1,49.4,73.2a1.87,1.87,0,0,0-1.75-2.53c-1.59.1-3.3-2.01-1.62-2.87,1.22-.66.89-2.08-1.02-2.41-1.74-.26-2.25-1.46-1.08-2.24a1.2,1.2,0,0,0-.75-2.1c-1.92-.04-2.16-2.21-.98-3.28a1.734,1.734,0,0,0-.54-2.89,2.12,2.12,0,0,1-.62-3.71c1.86-1.07.9-2.37-.18-3.33-1.62-1.58-1.55-3.03-.17-3.62,1.85-.78.85-2.49.32-3.12-1.39-1.68-1.05-4.1.76-4.01,1.08-.03,1.52-2.2.82-2.9-2.44-2.23-.35-3.4.95-3.24,3.6.47,1.9-1.94,1.37-2.56-.32-.43-.5-3.76,1.7-2.42,2.47,1.65,2.25-2.09,2.08-2.16-1.4-.4.22-4.63,2-2.69a1.477,1.477,0,1,0,2.4-1.72,1.551,1.551,0,1,1,2.46-1.89c.59.75,2.92,1.75,2.3-.68-.64-3.14,1.34-1.98,2.42-1.02,1.42,1.1,2.66-.13,2.32-1.27-.7-1.98,2.38-2.42,3.54-.64,1.28,1.73,2.88,1.34,3.03-.57.2-1.79,4.19-.07,3.2.49-.12.05,2.58,2.88,3.11-.04.46-2.46,2.72-.01,2.8.52.08.82.62,3.72,2.79.81.79-1.04,3.08-1.72,2.98,1.58.01.99,1.88,2.19,2.65,1.44,1.2-1.36,3.17.08,3.4,2.25.08.82.61,2.73,2.57,1.9,1.39-.59,2.36.42,2.36,2.69.05,1.4.31,2.99,2.26,2.45a2.186,2.186,0,0,1,2.35,2.98,1.677,1.677,0,0,0,1.58,2.46c1.59-.1,2.88,1.34,1.67,2.99s-.33,2.13.92,2.17C106.43,38.04,106.21,39.12,104.85,40.41Z" fill="#e7912c" fill-rule="evenodd"/><path d="M104.62,40.51c-.95.97-.84,2.2.86,2.05,1.99-.13,2.16,2.21.98,3.28a1.734,1.734,0,0,0,.54,2.89,2,2,0,0,1,.57,3.59c-1.69,1.14-.79,2.32.18,3.33,1.62,1.59,1.55,3.03.28,3.57-1.85.78-.97,2.54-.38,3.28,1.34,1.56,1,3.98-.81,3.89-1.08.03-1.41,2.15-.7,2.85,2.32,2.28.3,3.28-.95,3.24-3.6-.47-1.95,1.82-1.42,2.44.27.31.5,3.76-1.63,2.25-2.37-1.41-2.31,2.25-2.2,2.21,1.09-.32-.46,3.74-1.88,2.64-1.47-1.22-2.87-.35-2.35,1.85.3,2-1.39,3.14-2.98,1.97-3.07-2.11-.77,2.03-2.67,2.69-.65,1.69-2.74-4.24-3.79.04-.54,1.94-2.38,2.43-3.49.76-1.33-1.85-2.93-1.46-3.08.45-.2,1.79-4.19.07-3.2-.49.12-.05-2.36-2.69-3-.01-.52,2.63-2.83.06-2.75-.4-.19-.77-.68-3.55-2.74-.69-.84.92-3.08,1.73-3.1-1.53.11-1.04-1.76-2.24-2.53-1.48-1.2,1.36-3.16-.08-3.35-2.14-.13-.94-.66-2.85-2.51-2.06-1.39.59-2.47-.38-2.48-2.64.07-1.45-.15-2.92-2.26-2.45a2,2,0,0,1-2.18-2.91,1.677,1.677,0,0,0-1.58-2.46c-1.59.1-3.42-1.96-1.67-2.99,1.1-.61.83-1.91-.97-2.29-1.74-.26-2.25-1.46-1.08-2.24.76-.46.38-2-.75-2.1-2.04.01-2.11-2.09-.92-3.16a1.679,1.679,0,0,0-.66-2.84,2.12,2.12,0,0,1-.62-3.71c1.86-1.07.9-2.37-.13-3.21-1.62-1.59-1.55-3.03-.17-3.62,1.85-.78.85-2.49.27-3.24-1.34-1.56-1-3.98.76-4.01,1.13.09,1.57-2.08.75-2.73-2.32-2.28-.18-3.33,1.06-3.29,3.48.52,1.79-1.89,1.37-2.56-.43-.38-.62-3.71,1.63-2.25,2.42,1.53,2.2-2.21,2.08-2.16-1.45-.52.1-4.59,1.88-2.64a1.558,1.558,0,0,0,2.47-1.89,1.54,1.54,0,1,1,2.52-1.77c.54.62,2.8,1.8,2.3-.69-.76-3.09,1.22-1.94,2.31-.98a1.392,1.392,0,0,0,2.32-1.27c-.7-1.98,2.26-2.38,3.49-.76,1.16,1.78,2.76,1.39,2.96-.4.15-1.91,4.19-.07,3.2.49-.11.05,2.53,2.76,3.11-.04.41-2.58,2.67-.13,2.75.4.07.82.62,3.71,2.79.81.84-.92,2.97-1.68,2.98,1.58.01.99,1.76,2.24,2.48,1.37,1.25-1.24,3.22.2,3.4,2.25.13.94.77,2.8,2.62,2.02,1.27-.54,2.36.42,2.36,2.69,0,1.28.26,2.87,2.21,2.33a2.115,2.115,0,0,1,2.23,3.03,1.764,1.764,0,0,0,1.7,2.41c1.59-.1,2.76,1.39,1.62,2.87-1.16,1.77-.28,2.25.8,2.22C106.2,38.13,105.93,39.1,104.62,40.51Z" fill="#e9952b" fill-rule="evenodd"/><path d="M104.39,40.6c-.95.97-.84,2.2.86,2.05,1.87-.08,2.04,2.26.81,3.21a1.9,1.9,0,0,0,.71,2.96,1.9,1.9,0,0,1,.51,3.47c-1.69,1.14-.79,2.32.18,3.33,1.62,1.59,1.55,3.03.28,3.57-1.85.78-1.02,2.42-.43,3.16,1.34,1.56,1,3.98-.64,3.96-1.13-.09-1.57,2.08-.87,2.78,2.44,2.23.3,3.28-1,3.12-3.43-.4-1.79,1.89-1.3,2.39.32.44.5,3.76-1.59,2.37-2.37-1.41-2.2,2.21-2.2,2.21,1.09-.32-.46,3.74-1.93,2.52-1.3-1.15-2.7-.28-2.35,1.85.47,2.07-1.28,3.09-2.81,2.04-3.07-2.11-.82,1.91-2.72,2.57-.65,1.69-2.69-4.12-3.74.16-.55,1.93-2.26,2.38-3.54.64-1.16-1.78-2.76-1.39-2.96.4-.15,1.91-4.14.19-3.15-.37.11-.05-2.36-2.69-3-.01-.57,2.51-2.72.01-2.81-.52-.02-.7-.63-3.42-2.74-.69-.79,1.04-2.91,1.8-2.93-1.46-.01-.99-1.76-2.24-2.48-1.36-1.25,1.24-3.22-.2-3.4-2.25-.12-.94-.61-2.73-2.45-1.95-1.39.59-2.47-.37-2.48-2.64.07-1.45-.14-2.92-2.15-2.5a1.932,1.932,0,0,1-2.25-2.74,1.788,1.788,0,0,0-1.63-2.57c-1.54.22-3.25-1.89-1.62-2.87,1.1-.61.83-1.91-.97-2.29-1.74-.26-2.25-1.46-1.08-2.24a1.13,1.13,0,0,0-.7-1.98c-1.92-.04-2.16-2.21-.98-3.28a1.663,1.663,0,0,0-.66-2.84,2.039,2.039,0,0,1-.45-3.64c1.75-1.02.79-2.32-.25-3.16-1.62-1.59-1.55-3.04-.17-3.62,1.85-.78.85-2.49.32-3.11-1.39-1.68-1.05-4.1.76-4.01,1.13.09,1.45-2.04.75-2.73-2.32-2.28-.3-3.28.95-3.24,3.48.52,1.9-1.94,1.36-2.56-.27-.31-.57-3.6,1.64-2.25,2.42,1.54,2.25-2.09,2.08-2.16-1.4-.41.15-4.47,1.93-2.52a1.492,1.492,0,0,0,2.35-1.84,1.555,1.555,0,0,1,2.47-1.89c.59.75,2.8,1.8,2.3-.69-.71-2.97,1.27-1.82,2.31-.98a1.354,1.354,0,0,0,2.32-1.26c-.65-1.86,2.26-2.38,3.42-.59,1.28,1.73,2.88,1.34,2.96-.4.15-1.91,4.14-.19,3.15.37,0,0,2.53,2.77,3.11-.04.46-2.47,2.72-.01,2.76.4.07.82.62,3.71,2.67.86.83-.92,3.08-1.73,2.98,1.58.01.99,1.88,2.19,2.6,1.32,1.08-1.31,3.05.13,3.29,2.3.07.82.72,2.68,2.57,1.9,1.27-.54,2.36.43,2.36,2.69-.01,1.28.26,2.87,2.21,2.33a2.013,2.013,0,0,1,2.18,2.91c-.39,1.02.27,2.58,1.58,2.45,1.59-.1,2.88,1.34,1.78,2.94-1.33,1.7-.33,2.12.75,2.1C105.97,38.23,105.59,39.24,104.39,40.6Z" fill="#ea972b" fill-rule="evenodd"/><path d="M104.16,40.7c-.95.97-.84,2.2.75,2.1,1.99-.13,2.11,2.09.92,3.16a1.663,1.663,0,0,0,.66,2.84,2.047,2.047,0,0,1,.56,3.59c-1.75,1.02-.84,2.2.13,3.21,1.62,1.59,1.5,2.91.23,3.45-1.85.78-.97,2.54-.43,3.16,1.39,1.68,1.17,4.05-.64,3.96-1.13-.09-1.45,2.03-.75,2.73,2.33,2.28.3,3.28-1,3.12-3.43-.4-1.9,1.94-1.42,2.44.32.43.62,3.71-1.58,2.37-2.3-1.58-2.13,2.04-2.13,2.04,1.09-.32-.46,3.74-1.76,2.59-1.42-1.1-2.82-.23-2.4,1.72.35,2.12-1.23,3.22-2.93,2.09-2.95-2.16-.82,1.91-2.61,2.52-.65,1.69-2.69-4.12-3.74.16-.43,1.89-2.26,2.38-3.42.59-1.22-1.61-2.83-1.22-2.91.52-.2,1.79-4.19.07-3.2-.49.12-.05-2.36-2.69-2.95.11-.46,2.46-2.72.01-2.81-.52-.02-.7-.51-3.47-2.62-.74-.78,1.04-3.03,1.85-2.93-1.46-.01-.99-1.88-2.19-2.6-1.32-1.08,1.31-3.05-.13-3.28-2.3-.07-.82-.61-2.73-2.46-1.95-1.39.59-2.42-.25-2.31-2.57-.05-1.4-.26-2.87-2.21-2.33a2.079,2.079,0,0,1-2.3-2.86,1.675,1.675,0,0,0-1.58-2.46c-1.47.05-3.3-2.01-1.62-2.87,1.1-.61.94-1.96-.97-2.29-1.63-.31-2.14-1.51-1.08-2.24a1.107,1.107,0,0,0-.7-1.98c-1.92-.04-1.99-2.14-.93-3.16a1.68,1.68,0,0,0-.66-2.85,2.074,2.074,0,0,1-.45-3.64c1.75-1.02.79-2.32-.13-3.21-1.74-1.54-1.67-2.99-.28-3.57,1.85-.78.9-2.37.32-3.11-1.34-1.56-1-3.98.69-3.84,1.13.09,1.57-2.08.87-2.78-2.44-2.23-.3-3.28,1-3.12,3.43.4,1.79-1.89,1.25-2.52-.32-.43-.5-3.76,1.58-2.37,2.42,1.53,2.25-2.09,2.08-2.16-1.39-.4.21-4.35,1.93-2.52a1.5,1.5,0,0,0,2.35-1.85,1.477,1.477,0,1,1,2.4-1.72c.54.63,2.8,1.8,2.3-.69-.71-2.97,1.27-1.82,2.31-.98a1.307,1.307,0,0,0,2.21-1.22c-.65-1.86,2.26-2.38,3.49-.76,1.16,1.78,2.76,1.39,2.96-.4.08-1.74,4.07-.02,3.03.42,0,0,2.53,2.77,3,.01.57-2.51,2.72-.01,2.8.52.07.82.68,3.55,2.79.81.78-1.04,2.91-1.8,2.93,1.46.01.99,1.76,2.24,2.48,1.36,1.2-1.36,3.05.13,3.24,2.18.12.94.72,2.68,2.57,1.9,1.27-.54,2.36.43,2.36,2.69,0,1.28.26,2.87,2.21,2.33a2.05,2.05,0,0,1,2.18,2.91,1.685,1.685,0,0,0,1.58,2.46,1.73,1.73,0,0,1,1.62,2.86c-1.21,1.65-.21,2.08.86,2.05C105.63,38.38,105.36,39.34,104.16,40.7Z" fill="#ec992b" fill-rule="evenodd"/><path d="M103.81,40.85c-.84.92-.84,2.2.86,2.05,1.82-.2,2.11,2.09.88,3.04a1.686,1.686,0,0,0,.66,2.85,2.091,2.091,0,0,1,.57,3.59c-1.75,1.02-.84,2.2.13,3.21,1.57,1.47,1.5,2.92.23,3.45-1.85.78-1.02,2.42-.32,3.11,1.23,1.61,1,3.98-.81,3.89-1.08.03-1.45,2.03-.75,2.73,2.32,2.28.3,3.28-1,3.12-3.32-.45-1.79,1.89-1.25,2.52.27.31.51,3.47-1.68,2.13-2.25-1.46-2.08,2.16-1.97,2.11.98-.27-.51,3.62-1.93,2.52-1.3-1.15-2.7-.28-2.35,1.84.42,1.95-1.28,3.1-2.87,1.92-3.02-1.99-.77,2.03-2.56,2.64-.7,1.57-2.69-4.12-3.79.04-.43,1.88-2.26,2.38-3.37.71-1.16-1.78-2.76-1.39-2.96.4-.08,1.74-4.02.14-3.04-.42.11-.05-2.36-2.69-3-.01-.46,2.46-2.67.13-2.7-.28-.07-.82-.57-3.6-2.68-.86-.78,1.04-2.91,1.8-2.93-1.46-.01-.99-1.71-2.12-2.48-1.36-1.08,1.31-3.05-.13-3.23-2.18-.13-.94-.72-2.68-2.45-1.94-1.39.59-2.36-.43-2.31-2.57-.05-1.4-.26-2.87-2.21-2.33a2.013,2.013,0,0,1-2.18-2.91,1.8,1.8,0,0,0-1.58-2.46c-1.54.22-3.25-1.89-1.68-2.7,1.22-.66.89-2.08-.85-2.34s-2.25-1.46-1.08-2.24a1.125,1.125,0,0,0-.81-1.93c-1.81-.09-1.99-2.14-.81-3.21a1.659,1.659,0,0,0-.61-2.72,2.014,2.014,0,0,1-.57-3.59c1.75-1.02.79-2.32-.13-3.21-1.57-1.47-1.62-2.87-.23-3.45,1.73-.73.85-2.49.32-3.11-1.34-1.56-1-3.98.69-3.84,1.08-.03,1.45-2.03.75-2.73-2.32-2.28-.3-3.28.99-3.12,3.43.39,1.79-1.89,1.25-2.52-.32-.43-.45-3.64,1.63-2.25,2.42,1.53,2.2-2.2,2.08-2.16-1.39-.4.15-4.47,1.81-2.47,1.19,1.2,3.51-.06,2.35-1.84a1.557,1.557,0,0,1,2.47-1.89c.47.79,2.68,1.85,2.18-.64-.54-2.89,1.27-1.82,2.36-.86a1.305,1.305,0,0,0,2.16-1.34c-.65-1.86,2.31-2.26,3.43-.6,1.27,1.73,2.88,1.34,2.96-.4.15-1.91,4.02-.14,3.15.37-.11.05,2.41,2.81,2.88.06.57-2.51,2.66-.13,2.75.4.07.82.68,3.54,2.68.86.78-1.04,2.91-1.8,2.93,1.46.01.99,1.71,2.12,2.48,1.36,1.2-1.36,3.05.13,3.35,2.14-.04.87.61,2.72,2.45,1.94,1.27-.54,2.36.42,2.31,2.57,0,1.28.26,2.87,2.21,2.33a2.09,2.09,0,0,1,2.18,2.91,1.568,1.568,0,0,0,1.53,2.33,1.738,1.738,0,0,1,1.62,2.87c-1.21,1.65-.21,2.08.75,2.1C105.4,38.47,105.01,39.49,103.81,40.85Z" fill="#ed9b2b" fill-rule="evenodd"/><path d="M103.58,40.94c-.95.97-.89,2.08.81,1.93,1.87-.08,1.99,2.14.93,3.16a1.672,1.672,0,0,0,.66,2.85,1.984,1.984,0,0,1,.4,3.52c-1.63.97-.72,2.15.25,3.16,1.57,1.47,1.5,2.92.23,3.45-1.85.78-.9,2.37-.37,2.99,1.23,1.61,1,3.98-.69,3.84-1.08.03-1.57,2.08-.75,2.73,2.27,2.16.18,3.33-1,3.12-3.43-.4-1.79,1.89-1.25,2.52.27.31.4,3.52-1.68,2.13-2.25-1.46-2.08,2.16-1.97,2.11.92-.39-.51,3.62-1.93,2.52-1.3-1.15-2.7-.28-2.29,1.68s-1.28,3.1-2.81,2.04c-3.07-2.11-.83,1.91-2.61,2.52-.65,1.69-2.64-4-3.62.11-.48,1.76-2.31,2.25-3.43.59-1.22-1.61-2.71-1.27-2.91.52-.08,1.74-4.07.02-3.04-.42.12-.05-2.36-2.69-3-.01-.45,2.46-2.55.08-2.59-.33-.07-.82-.68-3.55-2.79-.81-.67.99-2.85,1.63-2.81-1.51-.01-.99-1.71-2.12-2.48-1.36-1.08,1.31-3.05-.13-3.24-2.18-.07-.82-.67-2.55-2.4-1.82-1.39.59-2.36-.43-2.31-2.57-.05-1.4-.26-2.87-2.21-2.33a1.959,1.959,0,0,1-2.13-2.79c.39-1.01-.27-2.58-1.58-2.46-1.59.1-3.25-1.89-1.62-2.87,1.1-.61.83-1.91-.91-2.17s-2.25-1.46-1.08-2.24a1.127,1.127,0,0,0-.7-1.98c-1.92-.04-2.06-1.97-.87-3.04a1.79,1.79,0,0,0-.66-2.85,1.968,1.968,0,0,1-.52-3.48c1.7-1.14.84-2.2-.13-3.21-1.57-1.47-1.62-2.87-.23-3.45,1.73-.73.9-2.37.32-3.11-1.34-1.56-.95-3.86.74-3.72,1.08-.03,1.4-2.15.7-2.85-2.27-2.16-.25-3.16.93-2.95,3.43.39,1.9-1.94,1.37-2.56-.32-.43-.57-3.59,1.52-2.2,2.42,1.54,2.25-2.09,2.08-2.16-1.39-.4.21-4.35,1.82-2.47,1.24,1.32,3.51-.06,2.4-1.72a1.5,1.5,0,1,1,2.35-1.85c.54.63,2.69,1.85,2.18-.64-.59-3.01,1.27-1.81,2.31-.98a1.31,1.31,0,0,0,2.21-1.22c-.65-1.86,2.26-2.38,3.43-.59,1.11,1.66,2.71,1.27,2.79-.47.2-1.79,4.02-.14,3.15.37-.12.05,2.41,2.81,2.88.06.46-2.46,2.66-.13,2.75.4.07.82.57,3.59,2.68.86.67-.99,2.91-1.8,2.88,1.34-.11,1.04,1.76,2.24,2.53,1.48,1.08-1.31,2.88.06,3.18,2.06.13.94.61,2.72,2.45,1.94,1.27-.54,2.36.42,2.31,2.57.05,1.4.21,2.75,2.09,2.38a1.989,1.989,0,0,1,2.25,2.74,1.676,1.676,0,0,0,1.58,2.45c1.47-.06,2.71,1.27,1.57,2.74-1.21,1.65-.33,2.12.75,2.1C105.05,38.62,104.78,39.59,103.58,40.94Z" fill="#ed9c2a" fill-rule="evenodd"/><path d="M103.35,41.04c-.95.97-.89,2.08.7,1.98,1.87-.08,2.11,2.09.92,3.16a1.651,1.651,0,0,0,.61,2.72,1.924,1.924,0,0,1,.51,3.47c-1.63.97-.73,2.15.25,3.16,1.57,1.47,1.45,2.79.18,3.33-1.85.78-.9,2.37-.32,3.11,1.34,1.56.95,3.86-.69,3.84-1.13-.09-1.46,2.03-.8,2.61,2.27,2.16.3,3.28-.88,3.07-3.43-.39-1.79,1.89-1.42,2.44.32.43.51,3.47-1.52,2.2-2.25-1.46-2.13,2.04-2.02,1.99,1.09-.32-.51,3.62-1.81,2.47-1.42-1.1-2.7-.28-2.35,1.84.42,1.96-1.21,2.93-2.75,1.87-3.02-1.99-.82,1.91-2.61,2.52-.65,1.69-2.64-4-3.63.11-.43,1.89-2.26,2.38-3.37.71-1.16-1.78-2.76-1.39-2.85.35-.2,1.79-4.02.14-3.04-.42.12-.05-2.31-2.57-2.95.11-.51,2.34-2.55.08-2.64-.45-.03-.7-.63-3.42-2.63-.74-.67.99-2.97,1.68-2.81-1.51.04-.87-1.83-2.07-2.43-1.25-1.25,1.24-3.05-.13-3.24-2.18-.12-.94-.72-2.68-2.45-1.94-1.39.59-2.31-.3-2.26-2.45-.05-1.4-.26-2.87-2.21-2.33a2,2,0,0,1-2.13-2.79,1.562,1.562,0,0,0-1.53-2.33c-1.47.05-3.13-1.94-1.62-2.87,1.1-.61.83-1.91-.91-2.17-1.63-.31-2.14-1.51-1.03-2.12a1.133,1.133,0,0,0-.7-1.98c-1.81-.09-1.99-2.14-.92-3.16a1.572,1.572,0,0,0-.61-2.73,1.979,1.979,0,0,1-.51-3.47c1.69-1.14.84-2.2-.13-3.21-1.57-1.47-1.62-2.86-.23-3.45,1.73-.73.9-2.37.37-3-1.34-1.56-1.06-3.81.69-3.84,1.01.14,1.45-2.04.75-2.73-2.39-2.11-.25-3.16.93-2.95,3.32.45,1.79-1.89,1.25-2.52-.27-.31-.51-3.47,1.52-2.2,2.42,1.53,2.13-2.04,2.13-2.04-1.39-.4.09-4.3,1.81-2.47A1.433,1.433,0,0,0,54.2,21a1.477,1.477,0,1,1,2.4-1.72c.54.62,2.75,1.68,2.18-.64-.59-3.01,1.27-1.82,2.31-.98a1.31,1.31,0,0,0,2.21-1.22c-.65-1.86,2.15-2.33,3.26-.67,1.27,1.73,2.76,1.39,2.96-.4.08-1.74,4.02-.14,3.03.42-.12.05,2.36,2.69,2.83-.06.51-2.34,2.6.04,2.64.45.19.77.68,3.55,2.79.81.67-.99,2.8-1.75,2.76,1.39.01.99,1.76,2.24,2.48,1.37,1.13-1.19,3.05.13,3.24,2.18.07.82.55,2.61,2.4,1.83,1.27-.54,2.36.42,2.31,2.57.05,1.4.21,2.75,2.09,2.38a1.916,1.916,0,0,1,2.13,2.79,1.667,1.667,0,0,0,1.53,2.34,1.73,1.73,0,0,1,1.62,2.86c-1.15,1.48-.26,1.96.81,1.93C104.82,38.72,104.55,39.68,103.35,41.04Z" fill="#ef9f2a" fill-rule="evenodd"/><path d="M103,41.19c-.89.8-.77,2.03.81,1.93,1.82-.2,1.94,2.02.88,3.04a1.659,1.659,0,0,0,.61,2.72,1.945,1.945,0,0,1,.51,3.47c-1.58,1.09-.72,2.15.2,3.04,1.51,1.63,1.5,2.91.23,3.45-1.85.78-.9,2.37-.37,2.99,1.34,1.56.95,3.86-.69,3.84-1.13-.09-1.45,2.03-.8,2.61,2.28,2.16.25,3.16-.88,3.07-3.32-.44-1.84,1.77-1.3,2.4.32.43.51,3.47-1.57,2.08-2.2-1.34-2.08,2.16-1.97,2.11,1.09-.32-.51,3.62-1.81,2.47s-2.7-.28-2.29,1.67-1.28,3.1-2.81,2.04c-2.95-2.16-.76,1.74-2.55,2.35-.65,1.69-2.59-3.87-3.57.23-.48,1.76-2.2,2.21-3.31.54s-2.71-1.27-2.79.47c-.2,1.79-4.02.14-3.04-.42,0,0-2.31-2.57-3-.01-.34,2.42-2.5.2-2.59-.33-.07-.82-.51-3.47-2.62-.74-.72.87-2.85,1.63-2.81-1.51.04-.87-1.71-2.12-2.43-1.25-1.13,1.19-2.93-.18-3.12-2.23-.07-.82-.67-2.56-2.4-1.83-1.27.54-2.3-.3-2.31-2.57,0-1.28-.16-2.63-2.16-2.21a1.983,1.983,0,0,1-2.13-2.79,1.566,1.566,0,0,0-1.53-2.33c-1.47.05-3.13-1.94-1.57-2.75,1.1-.61.83-1.91-.8-2.22-1.74-.26-2.25-1.46-1.03-2.12.64-.41.26-1.96-.81-1.93a1.666,1.666,0,0,1-.87-3.04,1.569,1.569,0,0,0-.61-2.72,1.979,1.979,0,0,1-.51-3.47c1.69-1.14.84-2.2-.13-3.21-1.57-1.47-1.45-2.79-.18-3.33,1.73-.73.9-2.37.37-3-1.34-1.56-1.06-3.81.58-3.79,1.13.09,1.45-2.03.75-2.73-2.22-2.04-.25-3.16.93-2.95,3.43.4,1.79-1.89,1.3-2.39-.32-.43-.45-3.64,1.52-2.2,2.37,1.41,2.13-2.04,2.08-2.16-1.4-.4.09-4.3,1.81-2.47a1.42,1.42,0,0,0,2.29-1.68,1.437,1.437,0,1,1,2.24-1.8c.59.75,2.75,1.68,2.18-.64-.54-2.89,1.27-1.81,2.31-.98,1.25,1.03,2.55-.08,2.09-1.17-.6-1.73,2.31-2.26,3.42-.59s2.71,1.27,2.8-.47,4.02-.14,3.04.42c-.12.05,2.36,2.69,2.88.06.46-2.46,2.55-.08,2.64.45.02.7.63,3.43,2.62.74.67-.99,2.85-1.63,2.76,1.39.01.99,1.76,2.24,2.48,1.36,1.13-1.19,3.05.13,3.24,2.18.07.82.56,2.61,2.4,1.83,1.27-.54,2.19.35,2.26,2.45.05,1.4.21,2.75,2.09,2.38a1.95,1.95,0,0,1,2.13,2.79,1.665,1.665,0,0,0,1.53,2.33,1.663,1.663,0,0,1,1.57,2.74c-1.09,1.6-.26,1.96.81,1.93C104.47,38.86,104.2,39.83,103,41.19Z" fill="#efa12a" fill-rule="evenodd"/><path d="M102.72,41.17c-.83.92-.72,2.15.86,2.05,1.82-.2,1.94,2.02.88,3.04a1.662,1.662,0,0,0,.6,2.73,1.888,1.888,0,0,1,.46,3.35c-1.58,1.09-.72,2.15.2,3.04,1.46,1.51,1.5,2.91.23,3.45-1.73.73-.96,2.25-.37,3,1.29,1.44.9,3.74-.74,3.72-.96-.02-1.34,1.98-.64,2.68,2.22,2.04.2,3.04-.93,2.95-3.32-.44-1.84,1.77-1.3,2.4.32.43.46,3.35-1.57,2.08-2.2-1.34-2.13,2.04-2.02,1.99,1.09-.32-.39,3.57-1.81,2.47-1.3-1.15-2.7-.28-2.23,1.8.36,1.83-1.21,2.93-2.75,1.87-2.9-2.04-.71,1.86-2.49,2.47-.7,1.57-2.59-3.87-3.63.11a1.733,1.733,0,0,1-3.26.67c-1.16-1.78-2.65-1.44-2.85.35-.08,1.74-3.91.09-2.92-.47,0,0-2.26-2.45-2.83.06-.51,2.34-2.5.2-2.59-.33-.19-.77-.63-3.43-2.62-.74-.72.87-2.85,1.63-2.76-1.39-.01-.99-1.71-2.12-2.48-1.36-1.13,1.19-2.93-.18-3.07-2.11-.13-.94-.67-2.56-2.4-1.83-1.27.54-2.36-.42-2.31-2.57,0-1.28-.16-2.63-2.04-2.26a1.861,1.861,0,0,1-2.08-2.67,1.649,1.649,0,0,0-1.53-2.33c-1.47.05-3.25-1.89-1.57-2.75.99-.56.83-1.91-.91-2.17-1.63-.31-2.08-1.39-1.03-2.12a1.158,1.158,0,0,0-.7-1.98c-1.92-.04-1.94-2.02-.87-3.04a1.651,1.651,0,0,0-.61-2.72,1.846,1.846,0,0,1-.46-3.35c1.58-1.09.72-2.15-.2-3.04-1.57-1.47-1.5-2.92-.23-3.45,1.73-.73.9-2.37.37-2.99-1.29-1.44-1.06-3.81.63-3.67,1.08-.03,1.45-2.03.75-2.73-2.22-2.04-.2-3.04.93-2.95,3.32.44,1.72-1.72,1.3-2.39-.32-.43-.52-3.48,1.52-2.21,2.25,1.46,2.02-1.99,2.02-1.99-1.4-.4.09-4.3,1.7-2.42a1.438,1.438,0,0,0,2.24-1.8,1.478,1.478,0,0,1,2.4-1.72c.54.63,2.63,1.73,2.18-.64-.66-2.84,1.16-1.77,2.19-.93a1.227,1.227,0,0,0,2.09-1.17c-.6-1.73,2.2-2.2,3.26-.66,1.11,1.66,2.71,1.27,2.85-.35.2-1.79,4.02-.14,3.03.42-.12.05,2.31,2.57,2.83-.06.51-2.34,2.55-.08,2.64.45.07.82.63,3.42,2.62.74.72-.87,2.85-1.63,2.76,1.39.01.99,1.71,2.12,2.37,1.41,1.08-1.31,3.05.13,3.18,2.06.07.82.67,2.55,2.4,1.82,1.27-.54,2.24.47,2.31,2.57,0,1.28.16,2.63,2.04,2.26a1.881,1.881,0,0,1,2.08,2.67,1.647,1.647,0,0,0,1.53,2.33,1.69,1.69,0,0,1,1.57,2.74c-1.09,1.6-.26,1.96.7,1.98C104.24,38.96,103.97,39.93,102.72,41.17Z" fill="#efa22a" fill-rule="evenodd"/><path d="M102.49,41.26c-.84.92-.73,2.15.86,2.05,1.7-.15,1.94,2.02.82,2.92a1.659,1.659,0,0,0,.61,2.72,1.877,1.877,0,0,1,.46,3.35c-1.58,1.09-.84,2.2.08,3.09,1.57,1.47,1.57,2.75.3,3.28-1.73.73-.9,2.37-.37,2.99,1.34,1.56,1.06,3.81-.63,3.67-1.08.03-1.46,2.03-.75,2.73,2.22,2.04.2,3.04-.93,2.95-3.2-.49-1.72,1.72-1.19,2.35.27.31.46,3.35-1.52,2.21-2.3-1.59-2.18,1.92-2.07,1.87,1.09-.32-.45,3.45-1.81,2.47-1.3-1.15-2.59-.33-2.17,1.63s-1.21,2.93-2.75,1.87c-2.85-1.92-.71,1.86-2.49,2.47-.7,1.57-2.59-3.87-3.51.06-.48,1.77-2.15,2.33-3.26.67s-2.71-1.27-2.79.47c-.13,1.62-3.91.09-2.92-.47,0,0-2.31-2.57-2.78.18-.56,2.22-2.6-.04-2.64-.45-.07-.82-.63-3.42-2.62-.74-.72.87-2.73,1.58-2.76-1.39-.01-.99-1.71-2.12-2.37-1.41-1.08,1.31-2.88-.06-3.18-2.06-.07-.82-.56-2.6-2.29-1.87-1.27.54-2.31-.3-2.26-2.45,0-1.28-.16-2.63-2.04-2.26a1.849,1.849,0,0,1-2.08-2.67,1.659,1.659,0,0,0-1.53-2.33c-1.42.18-3.08-1.82-1.52-2.62,1.1-.61.83-1.91-.91-2.17-1.63-.31-2.09-1.39-1.03-2.12a1.127,1.127,0,0,0-.7-1.98c-1.76.03-1.94-2.02-.82-2.92a1.679,1.679,0,0,0-.61-2.73,1.846,1.846,0,0,1-.46-3.35c1.58-1.09.72-2.15-.2-3.04-1.57-1.47-1.45-2.79-.18-3.33,1.73-.73.79-2.32.25-2.94-1.23-1.61-.95-3.86.74-3.72.96.02,1.34-1.99.64-2.68-2.11-2.09-.2-3.04.93-2.95,3.32.44,1.84-1.77,1.3-2.4-.32-.43-.51-3.47,1.52-2.2,2.3,1.58,2.02-1.99,2.02-1.99-1.4-.4.14-4.18,1.7-2.42a1.42,1.42,0,0,0,2.29-1.68,1.42,1.42,0,0,1,2.29-1.68c.54.62,2.58,1.61,2.13-.76-.61-2.72,1.21-1.65,2.24-.81a1.244,1.244,0,0,0,2.09-1.17c-.65-1.86,2.15-2.33,3.26-.66s2.6,1.32,2.68-.42c.25-1.67,4.02-.14,3.03.42-.12.05,2.36,2.69,2.83-.06.51-2.34,2.55-.08,2.64.45.07.82.63,3.42,2.51.79.72-.87,2.85-1.63,2.76,1.39.01.99,1.71,2.12,2.48,1.37,1.08-1.31,2.88.06,3.07,2.11.07.82.67,2.55,2.4,1.82,1.27-.54,2.19.35,2.15,2.5-.01,1.28.27,2.58,2.16,2.21a1.883,1.883,0,0,1,2.08,2.67,1.675,1.675,0,0,0,1.53,2.34,1.593,1.593,0,0,1,1.52,2.62c-1.21,1.65-.21,2.08.75,2.1C103.89,39.11,103.62,40.07,102.49,41.26Z" fill="#f2a529" fill-rule="evenodd"/><path d="M102.26,41.36c-.95.97-.89,2.08.7,1.98,1.87-.08,1.94,2.02.87,3.04a1.555,1.555,0,0,0,.56,2.61,1.857,1.857,0,0,1,.58,3.3c-1.58,1.09-.84,2.2.08,3.09,1.57,1.47,1.57,2.75.3,3.28-1.73.73-.96,2.25-.37,2.99,1.29,1.44,1.01,3.69-.68,3.55-1.08.03-1.34,1.98-.64,2.68,2.11,2.09.2,3.04-.93,2.95-3.32-.44-1.72,1.72-1.3,2.4.27.31.41,3.23-1.45,2.03-2.25-1.46-2.13,2.04-2.02,1.99,1.04-.44-.45,3.45-1.75,2.3-1.25-1.03-2.65-.16-2.29,1.67.42,1.95-1.21,2.93-2.58,1.94-2.9-2.04-.76,1.74-2.55,2.35-.53,1.65-2.54-3.75-3.46.18-.48,1.76-2.2,2.2-3.31.54-1.06-1.54-2.55-1.19-2.68.42-.08,1.74-3.91.09-2.98-.3.12-.05-2.2-2.62-2.72.01-.56,2.22-2.55.08-2.59-.33-.07-.82-.63-3.42-2.51-.79-.72.87-2.85,1.63-2.76-1.39-.01-.99-1.71-2.12-2.37-1.41-1.08,1.31-2.88-.06-3.13-1.94-.13-.94-.56-2.6-2.29-1.87-1.27.54-2.19-.35-2.26-2.45,0-1.28-.16-2.63-2.04-2.26a1.881,1.881,0,0,1-2.08-2.67,1.543,1.543,0,0,0-1.48-2.21c-1.47.06-3.08-1.82-1.57-2.74,1.1-.61.88-1.79-.86-2.05-1.51-.36-1.97-1.44-.92-2.17a1.061,1.061,0,0,0-.76-1.81c-1.81-.09-1.94-2.02-.87-3.04a1.555,1.555,0,0,0-.56-2.61,1.865,1.865,0,0,1-.46-3.35c1.58-1.09.72-2.15-.2-3.04-1.45-1.51-1.45-2.79-.18-3.33,1.73-.73.79-2.32.25-2.95-1.17-1.49-.9-3.74.74-3.72,1.01.14,1.39-1.87.69-2.56-2.22-2.04-.2-3.04.93-2.95,3.2.49,1.72-1.72,1.19-2.35-.27-.31-.46-3.35,1.57-2.08,2.25,1.46,2.02-1.99,1.85-2.06-1.23-.33.26-4.22,1.86-2.35a1.375,1.375,0,0,0,2.12-1.75,1.417,1.417,0,0,1,2.29-1.67c.54.62,2.63,1.73,2.18-.64-.66-2.84,1.16-1.77,2.19-.93a1.229,1.229,0,0,0,2.09-1.17c-.6-1.73,2.08-2.16,3.14-.62,1.11,1.66,2.71,1.27,2.85-.35.08-1.74,3.91-.09,2.87.35-.11.05,2.36,2.69,2.88.06.39-2.29,2.44-.03,2.47.38.19.77.63,3.43,2.63.74.72-.87,2.73-1.58,2.76,1.39.01.99,1.59,2.16,2.31,1.29,1.13-1.19,2.93.18,3.07,2.11.07.82.67,2.56,2.4,1.83,1.27-.54,2.19.35,2.14,2.5,0,1.28.27,2.58,2.16,2.21a1.843,1.843,0,0,1,1.96,2.72,1.543,1.543,0,0,0,1.48,2.21c1.47-.05,2.71,1.27,1.57,2.74s-.26,1.96.81,1.93C103.66,39.21,103.39,40.17,102.26,41.36Z" fill="#f2a728" fill-rule="evenodd"/><path d="M101.91,41.51c-.83.92-.77,2.03.81,1.93,1.71-.15,1.94,2.02.82,2.92a1.66,1.66,0,0,0,.61,2.73,1.751,1.751,0,0,1,.41,3.23c-1.46,1.05-.72,2.15.2,3.04,1.52,1.35,1.57,2.75.3,3.28-1.73.73-.96,2.25-.42,2.87,1.29,1.44,1.01,3.69-.63,3.67-1.01-.14-1.39,1.86-.69,2.56,2.22,2.04.2,3.04-.98,2.83-3.15-.37-1.67,1.84-1.19,2.35.32.43.46,3.35-1.4,2.15-2.25-1.46-2.07,1.87-2.07,1.87,1.09-.32-.45,3.45-1.7,2.42-1.3-1.15-2.59-.33-2.17,1.63.37,1.83-1.21,2.93-2.75,1.87-2.74-1.97-.76,1.74-2.43,2.3-.53,1.64-2.49-3.63-3.46.18a1.649,1.649,0,0,1-3.14.62c-1.11-1.66-2.6-1.32-2.68.42-.25,1.67-3.91.09-3.04-.42.11-.05-2.14-2.5-2.67.13-.44,2.18-2.43.03-2.52-.49-.14-.65-.58-3.31-2.63-.74-.67.99-2.68,1.7-2.6-1.32-.01-.99-1.71-2.12-2.43-1.25-1.02,1.14-2.82-.23-3.07-2.11-.07-.82-.5-2.48-2.24-1.75-1.27.54-2.24-.47-2.26-2.45,0-1.28-.16-2.63-2.04-2.26a1.814,1.814,0,0,1-2.03-2.55c.39-1.02-.22-2.46-1.42-2.38-1.42.18-3.08-1.82-1.52-2.62.99-.56.71-1.86-.86-2.05-1.63-.31-2.08-1.39-1.03-2.12a1.1,1.1,0,0,0-.65-1.86c-1.81-.09-1.94-2.02-.82-2.92a1.706,1.706,0,0,0-.72-2.68,1.812,1.812,0,0,1-.41-3.23c1.58-1.09.72-2.15-.2-3.04-1.46-1.51-1.45-2.79-.18-3.33,1.73-.73.84-2.2.3-2.83-1.17-1.49-.9-3.74.63-3.67,1.13.09,1.51-1.91.8-2.61-2.22-2.04-.31-2.99.82-2.9,3.32.44,1.72-1.72,1.35-2.27-.32-.43-.52-3.48,1.4-2.16,2.25,1.46,2.02-1.99,1.9-1.94-1.28-.45.14-4.18,1.81-2.47a1.357,1.357,0,1,0,2.17-1.63,1.42,1.42,0,0,1,2.29-1.68c.42.67,2.47,1.66,2.07-.59-.66-2.84,1.16-1.77,2.19-.93a1.166,1.166,0,0,0,1.98-1.12c-.48-1.79,2.2-2.21,3.26-.67,1.11,1.66,2.6,1.32,2.68-.42.13-1.62,3.91-.09,2.92.47,0,0,2.31,2.57,2.83-.06.39-2.29,2.43-.03,2.52.5.02.7.58,3.3,2.46.66.72-.87,2.85-1.63,2.76,1.39.01.99,1.71,2.12,2.31,1.29,1.13-1.19,2.93.18,3.07,2.11.07.82.62,2.44,2.35,1.71,1.27-.54,2.19.35,2.14,2.5,0,1.28.27,2.58,2.04,2.26a1.755,1.755,0,0,1,2.03,2.55,1.657,1.657,0,0,0,1.53,2.33,1.6,1.6,0,0,1,1.52,2.63c-1.14,1.48-.26,1.96.7,1.98C103.32,39.35,103.16,40.27,101.91,41.51Z" fill="#f4a928" fill-rule="evenodd"/><path d="M101.68,41.6c-.83.92-.78,2.03.81,1.93,1.71-.15,1.89,1.9.82,2.92a1.554,1.554,0,0,0,.56,2.61,1.778,1.778,0,0,1,.41,3.23c-1.46,1.05-.72,2.15.2,3.04,1.52,1.35,1.4,2.67.25,3.16-1.73.73-.79,2.32-.25,2.95,1.17,1.49.85,3.62-.68,3.55-1.07.03-1.39,1.86-.8,2.61,2.22,2.04.31,2.99-.87,2.78-3.15-.37-1.67,1.84-1.19,2.35.32.43.41,3.23-1.4,2.15-2.25-1.46-2.02,1.99-2.02,1.99,1.04-.44-.43,3.16-1.8,2.18-1.2-.91-2.54-.21-2.17,1.63s-1.1,2.88-2.63,1.82c-2.68-1.84-.71,1.86-2.38,2.42-.58,1.52-2.37-3.68-3.4.01-.48,1.76-2.2,2.21-3.26.67s-2.5-1.08-2.68.42c-.13,1.62-3.74.16-2.82-.23.12-.05-2.2-2.62-2.72.01-.49,2.05-2.43.03-2.52-.5-.02-.7-.58-3.3-2.51-.79-.67.99-2.69,1.7-2.71-1.27-.01-.99-1.66-1.99-2.32-1.29-1.01,1.14-2.77-.11-3.02-1.99-.07-.82-.67-2.56-2.29-1.87-1.27.54-2.19-.35-2.21-2.33,0-1.28-.16-2.63-2.04-2.26a1.756,1.756,0,0,1-1.91-2.6,1.543,1.543,0,0,0-1.48-2.21c-1.47.06-3.08-1.82-1.52-2.62.99-.56.71-1.86-.86-2.05-1.63-.31-2.08-1.39-1.03-2.12a1.063,1.063,0,0,0-.65-1.86c-1.76.03-1.89-1.9-.82-2.92a1.545,1.545,0,0,0-.56-2.6,1.868,1.868,0,0,1-.58-3.3c1.63-.97.77-2.03-.15-2.92-1.4-1.39-1.4-2.67-.13-3.21,1.62-.68.79-2.32.25-2.95-1.17-1.49-.85-3.62.68-3.55.96.02,1.39-1.86.69-2.56-2.11-2.09-.2-3.04.98-2.83,3.15.37,1.67-1.84,1.18-2.35-.32-.43-.46-3.35,1.4-2.15,2.25,1.46,2.07-1.87,1.9-1.94-1.23-.33.19-4.06,1.75-2.3,1.19,1.2,3.23-.09,2.17-1.63a1.417,1.417,0,0,1,2.29-1.67c.49.5,2.58,1.61,2.02-.71-.61-2.72,1.21-1.65,2.19-.93a1.159,1.159,0,0,0,2.03-1c-.6-1.74,2.08-2.16,3.14-.62s2.55,1.2,2.68-.42c.25-1.67,3.86-.21,2.87.35,0,0,2.31,2.57,2.83-.06.44-2.17,2.43-.03,2.52.5.02.7.58,3.3,2.51.79.67-.99,2.68-1.7,2.6,1.32.13.94,1.66,2,2.43,1.24,1.02-1.14,2.77.11,3.02,1.99.07.82.56,2.6,2.29,1.87,1.15-.49,2.19.35,2.09,2.38,0,1.28.28,2.58,1.99,2.14a1.893,1.893,0,0,1,2.08,2.67,1.543,1.543,0,0,0,1.48,2.21c1.47-.05,2.55,1.2,1.52,2.63-1.09,1.6-.26,1.96.7,1.98C103.09,39.45,102.81,40.42,101.68,41.6Z" fill="#f4ab27" fill-rule="evenodd"/><path d="M101.45,41.7c-.84.92-.78,2.03.7,1.98,1.82-.2,1.89,1.9.89,2.75a1.545,1.545,0,0,0,.56,2.6,1.929,1.929,0,0,1,.46,3.35c-1.51.92-.77,2.03.14,2.92,1.52,1.34,1.4,2.67.25,3.16-1.73.73-.84,2.2-.3,2.83,1.17,1.49.85,3.62-.68,3.55-.96-.02-1.34,1.98-.69,2.56,2.06,1.97.2,3.04-.87,2.78-3.15-.37-1.72,1.72-1.19,2.35.27.31.41,3.23-1.57,2.08-2.08-1.39-1.9,1.94-1.9,1.94,1.09-.32-.38,3.28-1.64,2.25s-2.53-.21-2.17,1.63a1.648,1.648,0,0,1-2.63,1.82c-2.68-1.85-.76,1.74-2.43,2.3-.58,1.52-2.32-3.56-3.34.14-.53,1.64-2.08,2.16-3.14.62s-2.55-1.19-2.68.42-3.74.16-2.87-.35c.11-.05-2.15-2.5-2.72.01-.44,2.17-2.43.03-2.47-.38-.07-.82-.58-3.3-2.51-.78-.67.99-2.73,1.58-2.6-1.32.04-.87-1.66-2-2.31-1.29-1.13,1.19-2.77-.11-3.02-1.99-.07-.82-.62-2.44-2.24-1.75-1.27.54-2.19-.35-2.09-2.38-.11-1.23-.27-2.58-1.99-2.14a1.893,1.893,0,0,1-2.08-2.67,1.552,1.552,0,0,0-1.48-2.22c-1.42.18-2.92-1.75-1.47-2.5,1.1-.61.83-1.91-.86-2.05-1.51-.36-1.97-1.44-1.03-2.12a1.034,1.034,0,0,0-.65-1.86c-1.64-.02-1.89-1.9-.77-2.8a1.552,1.552,0,0,0-.56-2.6,1.888,1.888,0,0,1-.46-3.35c1.51-.92.66-1.98-.14-2.92-1.52-1.34-1.52-2.62-.25-3.16,1.62-.68.84-2.2.3-2.82-1.17-1.49-.96-3.57.68-3.55.96.02,1.34-1.98.69-2.56-2.22-2.04-.31-2.99.87-2.78,3.15.37,1.72-1.72,1.19-2.35-.27-.31-.46-3.35,1.45-2.03,2.2,1.34,2.02-1.99,1.9-1.94-1.28-.45.19-4.06,1.7-2.42a1.357,1.357,0,1,0,2.17-1.63,1.357,1.357,0,1,1,2.17-1.63c.54.62,2.58,1.6,2.07-.59-.61-2.73,1.21-1.65,2.19-.93a1.168,1.168,0,0,0,1.98-1.12c-.6-1.74,2.08-2.16,3.14-.62,1.11,1.66,2.6,1.32,2.68-.42.13-1.62,3.79-.04,2.81.52,0,0,2.26,2.45,2.72-.01.51-2.34,2.55-.08,2.59.32.08.82.58,3.31,2.51.79.55-.94,2.57-1.65,2.6,1.32-.04.87,1.66,2,2.31,1.29,1.02-1.14,2.77.11,3.02,1.99.07.82.5,2.48,2.24,1.75,1.15-.49,2.19.35,2.09,2.38,0,1.28.27,2.58,1.99,2.14a1.931,1.931,0,0,1,2.08,2.67,1.552,1.552,0,0,0,1.48,2.21,1.519,1.519,0,0,1,1.35,2.55c-.98,1.55-.15,1.91.81,1.93C102.86,39.55,102.58,40.51,101.45,41.7Z" fill="#f5ad27" fill-rule="evenodd"/><path d="M101.11,41.85c-.72.87-.71,1.86.76,1.81,1.76-.03,1.89,1.9.83,2.92a1.574,1.574,0,0,0,.67,2.56,1.836,1.836,0,0,1,.41,3.23c-1.51.92-.77,2.03.14,2.92,1.41,1.4,1.4,2.67.25,3.16-1.62.68-.84,2.2-.3,2.82,1.12,1.37.8,3.5-.73,3.43-.96-.02-1.34,1.98-.69,2.56,2.17,1.92.26,2.87-.87,2.78-3.15-.37-1.61,1.67-1.19,2.35.27.31.48,3.06-1.46,2.03-2.08-1.39-1.9,1.94-1.79,1.89.98-.27-.55,3.21-1.8,2.18-1.2-.91-2.49-.09-2.17,1.63.37,1.83-1.15,2.75-2.52,1.77-2.75-1.68-.76,1.74-2.43,2.3-.58,1.52-2.32-3.56-3.34.14-.36,1.72-2.08,2.16-3.02.57-1.13-1.37-2.5-1.08-2.68.42-.13,1.62-3.69.28-2.82-.23.12-.05-2.14-2.5-2.72.01-.49,2.06-2.43.03-2.47-.37-.07-.82-.58-3.3-2.39-.83-.72.87-2.73,1.58-2.71-1.27.04-.87-1.54-2.05-2.2-1.34-1.13,1.19-2.77-.11-2.97-1.87-.07-.82-.62-2.44-2.24-1.75-1.27.54-2.19-.35-2.09-2.38-.11-1.23-.27-2.58-1.99-2.14a1.839,1.839,0,0,1-2.03-2.55,1.543,1.543,0,0,0-1.48-2.22c-1.36.01-2.92-1.75-1.4-2.67.99-.56.76-1.74-.86-2.05-1.58-.19-2.03-1.27-.98-2a.988.988,0,0,0-.6-1.73,1.59,1.59,0,0,1-.94-2.87,1.545,1.545,0,0,0-.56-2.6,1.824,1.824,0,0,1-.41-3.23c1.51-.92.66-1.98-.14-2.92-1.52-1.34-1.52-2.62-.25-3.16,1.62-.68.84-2.2.3-2.82-1.12-1.37-.96-3.57.73-3.43.96.02,1.22-1.94.57-2.51-2.06-1.97-.14-2.92.98-2.83,3.04.42,1.61-1.67,1.07-2.3-.27-.31-.46-3.35,1.46-2.03,2.2,1.34,2.07-1.87,1.9-1.94-1.23-.33.19-4.06,1.75-2.3a1.358,1.358,0,0,0,2.17-1.63,1.358,1.358,0,1,1,2.17-1.63c.42.67,2.47,1.66,1.95-.54-.61-2.72,1.16-1.77,2.19-.93a1.185,1.185,0,0,0,1.98-1.12c-.6-1.74,1.97-2.11,3.03-.57s2.55,1.19,2.68-.42,3.74-.16,2.87.35c-.12.05,2.14,2.5,2.6.04.51-2.34,2.44-.04,2.47.37.19.77.58,3.3,2.51.78.72-.87,2.73-1.58,2.6,1.32-.04.87,1.66,2,2.31,1.29.96-1.26,2.77.11,2.97,1.87.07.82.62,2.43,2.23,1.75,1.16-.49,2.07.4,2.09,2.38,0,1.28.27,2.58,1.99,2.14a1.827,1.827,0,0,1,2.03,2.55,1.578,1.578,0,0,0,1.36,2.26,1.6,1.6,0,0,1,1.51,2.63c-1.03,1.43-.2,1.79.76,1.81C102.51,39.69,102.24,40.66,101.11,41.85Z" fill="#f8af26" fill-rule="evenodd"/><path d="M100.88,41.95c-.89.8-.71,1.86.76,1.81,1.71-.15,1.89,1.9.77,2.8a1.666,1.666,0,0,0,.56,2.61,1.768,1.768,0,0,1,.53,3.18c-1.51.92-.77,2.03.1,2.8,1.4,1.39,1.4,2.67.25,3.16-1.62.68-.84,2.2-.3,2.82,1.17,1.49.96,3.57-.68,3.55-1.01-.14-1.27,1.82-.62,2.39,2.06,1.97.14,2.92-.87,2.78-3.15-.37-1.72,1.72-1.24,2.22.32.43.46,3.35-1.4,2.15-2.13-1.51-1.95,1.82-1.84,1.77.98-.27-.55,3.21-1.8,2.18-1.04-.84-2.37-.14-2,1.7a1.666,1.666,0,0,1-2.63,1.82c-2.68-1.85-.65,1.69-2.31,2.26-.63,1.4-2.32-3.56-3.34.13a1.6,1.6,0,0,1-3.02.57c-1.06-1.54-2.5-1.08-2.73.3-.13,1.62-3.58.23-2.7-.28.12-.05-2.14-2.5-2.55.08-.56,2.22-2.44.04-2.52-.5-.14-.65-.53-3.18-2.46-.66-.72.87-2.62,1.53-2.6-1.32.04-.87-1.54-2.05-2.26-1.17-1.02,1.14-2.77-.11-2.9-2.04-.07-.82-.62-2.43-2.24-1.75-1.15.49-2.19-.35-2.09-2.38-.06-1.11-.22-2.46-1.94-2.02a1.827,1.827,0,0,1-2.03-2.55,1.576,1.576,0,0,0-1.36-2.26c-1.42.18-2.92-1.75-1.47-2.5.99-.56.76-1.74-.86-2.05-1.46-.23-1.92-1.32-.93-1.88a1.1,1.1,0,0,0-.65-1.86c-1.64-.02-1.89-1.9-.77-2.8a1.58,1.58,0,0,0-.67-2.55,1.824,1.824,0,0,1-.41-3.23c1.51-.92.66-1.98-.14-2.92-1.52-1.35-1.35-2.55-.2-3.04,1.62-.68.84-2.2.3-2.83-1.29-1.44-.96-3.57.56-3.5,1.13.09,1.39-1.86.74-2.44-2.06-1.97-.26-2.87.87-2.78,3.15.37,1.61-1.67,1.24-2.23-.32-.43-.58-3.3,1.4-2.15,2.13,1.51,1.95-1.82,1.79-1.89-1.23-.33.13-3.89,1.64-2.25,1.19,1.2,3.28.03,2.17-1.63a1.358,1.358,0,0,1,2.17-1.63c.54.62,2.47,1.66,1.95-.54-.44-2.65,1.21-1.65,2.19-.93A1.087,1.087,0,0,0,64.2,19.4c-.43-1.66,2.13-2.04,3.14-.62,1.11,1.66,2.55,1.2,2.57-.37.13-1.62,3.79-.04,2.87.35-.12.05,2.2,2.62,2.6.04.44-2.17,2.44-.04,2.52.5.02.7.53,3.18,2.46.67.6-.82,2.62-1.53,2.6,1.32-.04.87,1.54,2.04,2.15,1.22,1.13-1.19,2.77.11,3.02,1.99.07.82.62,2.44,2.24,1.75,1.15-.49,2.02.28,2.04,2.26,0,1.28.27,2.58,1.99,2.14a1.773,1.773,0,0,1,1.92,2.6,1.675,1.675,0,0,0,1.48,2.21,1.508,1.508,0,0,1,1.47,2.5c-1.15,1.48-.31,1.84.65,1.86C102.28,39.79,102.01,40.76,100.88,41.95Z" fill="#f8b125" fill-rule="evenodd"/><path d="M100.64,42.04c-.89.8-.83,1.91.76,1.81s1.77,1.95.77,2.8a1.435,1.435,0,0,0,.51,2.48,1.852,1.852,0,0,1,.53,3.19c-1.51.92-.78,2.03.09,2.8,1.4,1.39,1.4,2.67.25,3.16-1.62.68-.84,2.2-.36,2.71,1.18,1.49.96,3.57-.56,3.5-.96-.02-1.39,1.86-.74,2.44,2.06,1.97.26,2.87-.87,2.78-3.04-.42-1.61,1.67-1.12,2.18.32.43.41,3.23-1.45,2.03-2.08-1.39-1.9,1.94-1.79,1.89.98-.27-.43,3.16-1.69,2.13-1.2-.91-2.49-.09-2.17,1.63.37,1.83-1.03,2.71-2.52,1.77-2.63-1.73-.65,1.69-2.31,2.25-.58,1.52-2.32-3.56-3.23.09-.53,1.64-2.08,2.16-3.03.57-1.12-1.37-2.5-1.08-2.68.42-.13,1.62-3.58.23-2.7-.28.12-.05-2.15-2.5-2.6-.04-.44,2.17-2.38.16-2.47-.38-.02-.7-.53-3.18-2.34-.71-.72.87-2.62,1.53-2.6-1.32-.07-.82-1.61-1.87-2.26-1.17-1.02,1.14-2.77-.11-2.9-2.04-.02-.7-.57-2.31-2.19-1.63-1.16.49-2.07-.4-2.09-2.38.05-1.16-.22-2.46-1.94-2.02a1.8,1.8,0,0,1-1.91-2.6,1.541,1.541,0,0,0-1.43-2.09c-1.31.13-2.92-1.75-1.47-2.5.99-.56.76-1.74-.86-2.05-1.46-.23-1.92-1.32-.93-1.88a1.037,1.037,0,0,0-.65-1.86c-1.64-.02-1.77-1.95-.77-2.8a1.534,1.534,0,0,0-.5-2.48,1.8,1.8,0,0,1-.53-3.18c1.51-.92.77-2.03-.09-2.8-1.41-1.4-1.4-2.67-.25-3.16,1.62-.68.84-2.2.3-2.83-1.24-1.32-.91-3.45.61-3.38.96.02,1.28-1.82.74-2.44-2.06-1.97-.26-2.87.87-2.78,3.03.42,1.61-1.67,1.12-2.18-.32-.43-.46-3.35,1.45-2.03,2.08,1.39,1.9-1.94,1.79-1.89-1.23-.33.13-3.89,1.63-2.25a1.361,1.361,0,0,0,2.17-1.63,1.3,1.3,0,1,1,2.06-1.58c.54.62,2.42,1.53,2.06-.59-.61-2.72,1.1-1.6,1.96-.83,1.2.91,2.39-.15,1.98-1.12-.55-1.62,1.97-2.11,3.02-.57s2.55,1.2,2.68-.42,3.63-.11,2.75.4c-.12.05,2.14,2.5,2.6.04.39-2.29,2.38-.16,2.47.37.03.7.53,3.18,2.34.72.72-.87,2.62-1.53,2.6,1.32-.04.87,1.61,1.88,2.26,1.17,1.02-1.14,2.65.16,2.85,1.92.08.82.62,2.44,2.24,1.75,1.15-.49,2.07.4,2.09,2.38-.06,1.16.22,2.46,1.94,2.02a1.849,1.849,0,0,1,1.92,2.6,1.436,1.436,0,0,0,1.43,2.09,1.553,1.553,0,0,1,1.47,2.5c-1.15,1.48-.31,1.84.65,1.86C101.93,39.94,101.66,40.9,100.64,42.04Z" fill="#fcb623" fill-rule="evenodd"/><path d="M100.41,42.14c-.89.8-.82,1.91.65,1.86,1.71-.15,1.84,1.78.84,2.63a1.552,1.552,0,0,0,.56,2.6,1.75,1.75,0,0,1,.48,3.06c-1.51.92-.78,2.03.09,2.8,1.4,1.39,1.35,2.55.2,3.04-1.62.68-.84,2.2-.3,2.83,1.12,1.37.91,3.45-.61,3.38-.96-.02-1.27,1.81-.62,2.39,2.06,1.97.14,2.92-.87,2.78-3.03-.42-1.61,1.67-1.24,2.23.27.31.53,3.18-1.34,1.98-2.08-1.39-1.9,1.94-1.79,1.89.92-.39-.48,3.04-1.68,2.13s-2.42-.26-2.11,1.46c.37,1.83-1.15,2.76-2.52,1.77-2.63-1.73-.65,1.69-2.31,2.26-.58,1.52-2.27-3.44-3.23.09-.36,1.72-1.97,2.11-3.03.57-1.01-1.42-2.33-1-2.51.5s-3.63.11-2.7-.28c.12-.05-2.14-2.5-2.6-.04-.44,2.17-2.43.03-2.47-.38-.02-.7-.53-3.18-2.34-.71-.72.87-2.62,1.53-2.6-1.32.04-.87-1.49-1.92-2.15-1.22-1.02,1.14-2.77-.11-2.85-1.92-.19-.77-.62-2.44-2.24-1.75-1.16.49-2.02-.28-2.04-2.26.05-1.16-.22-2.46-1.94-2.02a1.748,1.748,0,0,1-1.86-2.48A1.552,1.552,0,0,0,51.8,67.8c-1.31.12-2.87-1.63-1.3-2.43.87-.51.65-1.69-.86-2.05-1.58-.19-2.03-1.27-.93-1.88a1.1,1.1,0,0,0-.65-1.86c-1.76.03-1.84-1.78-.84-2.63a1.552,1.552,0,0,0-.56-2.6,1.746,1.746,0,0,1-.48-3.06c1.51-.92.77-2.03-.09-2.8-1.4-1.39-1.4-2.67-.25-3.16,1.62-.68.77-2.03.35-2.71-1.24-1.32-.91-3.45.61-3.38.96.02,1.27-1.82.62-2.39-2.06-1.97-.26-2.87.87-2.78,3.04.42,1.61-1.67,1.12-2.18-.27-.31-.41-3.23,1.45-2.03,2.08,1.39,1.95-1.82,1.79-1.89-1.23-.33.13-3.89,1.68-2.13,1.02,1.13,3.06-.16,2.06-1.58a1.357,1.357,0,0,1,2.17-1.63c.37.55,2.3,1.59,1.9-.66-.56-2.6,1.09-1.6,2.01-.71a1.2,1.2,0,0,0,1.98-1.12c-.6-1.73,1.97-2.11,3.03-.57,1.01,1.42,2.38,1.12,2.56-.37.13-1.62,3.63-.11,2.7.28-.12.05,2.14,2.5,2.6.04.44-2.18,2.32.01,2.36.42.14.65.64,3.14,2.46.67.6-.82,2.62-1.53,2.6,1.32-.04.87,1.49,1.93,2.15,1.22,1.02-1.14,2.65.16,2.85,1.92.07.82.57,2.32,2.19,1.63,1.16-.49,2.07.4,2.09,2.38-.06,1.16.22,2.46,1.94,2.02a1.748,1.748,0,0,1,1.86,2.48,1.552,1.552,0,0,0,1.48,2.21,1.431,1.431,0,0,1,1.3,2.43c-1.03,1.43-.15,1.91.76,1.81C101.7,40.03,101.43,41,100.41,42.14Z" fill="#fcb827" fill-rule="evenodd"/><path d="M49.69,35.45c1.18.21,3.08,1.82,4.88,2.2,1.34.28,2.12.52,2.93.18,1.96-.83,4.54-6.32,5.65-8.21-.44,2.17-1.28,6.64-.46,8.57.86,2.05,4.71,4.4,6.53,5.47-2.07-.4-6.76-1.83-8.61-1.05-1.96.83-4.27,5.35-5.43,7.12.4-1.3,1.78-4.16,1.88-6.19a5.272,5.272,0,0,0-.54-2.89C55.65,38.62,51.56,36.65,49.69,35.45Z" fill="#fcb827" fill-rule="evenodd"/><path d="M51.14,35.98c1.06.26,2.58,1.61,4.21,1.91a3.477,3.477,0,0,0,2.54.21c1.73-.73,3.87-5.33,4.85-6.88-.36,1.72-1.05,5.56-.34,7.24.76,1.81,4.06,3.82,5.55,4.76-1.79-.38-5.81-1.52-7.43-.84s-3.66,4.53-4.65,6.08c.22-1.09,1.47-3.6,1.5-5.46a4.439,4.439,0,0,0-.45-2.36C56.15,38.83,52.67,37.04,51.14,35.98Z" fill="#f8b227" fill-rule="evenodd"/><path d="M52.52,36.67c.9.19,2.15,1.22,3.49,1.51a3.256,3.256,0,0,0,2.25.18c1.39-.59,3.15-4.45,3.95-5.79-.3,1.55-.85,4.76-.24,6.2s3.36,3.12,4.63,3.87c-1.58-.19-4.87-1.21-6.25-.63s-3.13,3.87-3.86,5.04c.16-.92,1.16-3.05,1.23-4.5a8.314,8.314,0,0,0-.35-2.12C56.77,39,53.84,37.54,52.52,36.67Z" fill="#f5ae29" fill-rule="evenodd"/><path d="M53.85,37.25c.73.12,1.88.91,2.94,1.17a2.4,2.4,0,0,0,1.69.14c1.15-.49,2.71-3.56,3.38-4.55-.29,1.26-.69,3.84-.35,4.97.51,1.21,2.71,2.55,3.69,3.27-1.18-.21-3.85-1.07-5.01-.58S57.67,44.72,57,45.72c.09-.75.9-2.37,1.02-3.7a11.231,11.231,0,0,0-.31-1.71C57.22,39.09,54.84,37.97,53.85,37.25Z" fill="#efa72c" fill-rule="evenodd"/><path d="M55.3,37.77a19.8,19.8,0,0,0,2.16.93,2.934,2.934,0,0,0,1.41.12c.81-.34,1.99-2.69,2.48-3.46-.1,1.04-.53,2.92-.13,3.89.24.89,1.89,1.9,2.66,2.43-.9-.19-2.91-.76-3.83-.37-.81.34-1.87,2.35-2.4,3a22.066,22.066,0,0,0,.58-2.8,6.844,6.844,0,0,0-.16-1.35C57.66,39.19,55.95,38.35,55.3,37.77Z" fill="#eda12f" fill-rule="evenodd"/><path d="M56.63,38.35c.4-.03.88.48,1.5.65.4-.03.73.12.96.02.58-.24,1.44-1.74,1.8-2.18a5.782,5.782,0,0,0-.12,2.61c.14.65,1.24,1.32,1.79,1.66-.68,0-2.07-.4-2.65-.16s-1.38,1.57-1.73,2.01c-.04-.41.4-1.31.43-1.88-.04-.41-.19-.77-.18-1.06C58.16,39.4,57.06,38.73,56.63,38.35Z" fill="#e89932" fill-rule="evenodd"/><path d="M57.96,38.92c.23-.1.5.21.78.24s.45.1.56.05c.4-.03.89-.8,1.07-1.02a3.627,3.627,0,0,0-.02,1.57,4.175,4.175,0,0,0,.81.94,2.348,2.348,0,0,0-1.41-.11c-.35.15-.77.75-1.07,1.02a6.92,6.92,0,0,0,.11-1.04c.01-.29-.09-.53-.02-.7A3.218,3.218,0,0,0,57.96,38.92Z" fill="#de8b34" fill-rule="evenodd"/><path d="M59.59,40.22a.449.449,0,0,0,.31-.56.434.434,0,0,0-.61-.16.39.39,0,0,0,.3.72Z" fill="#c96c38" fill-rule="evenodd"/><path d="M67.01,28.14c1.18.21,3.08,1.82,4.88,2.2,1.34.28,2.13.52,3.05.13,1.85-.78,4.43-6.27,5.54-8.16-.44,2.17-1.16,6.59-.35,8.52.86,2.05,4.72,4.4,6.42,5.52-2.07-.4-6.65-1.88-8.61-1.05s-4.27,5.35-5.31,7.07c.29-1.25,1.67-4.11,1.88-6.19a6.409,6.409,0,0,0-.66-2.85C72.97,31.3,68.88,29.34,67.01,28.14Z" fill="#fcb827" fill-rule="evenodd"/><path d="M68.46,28.66c1.06.26,2.7,1.56,4.21,1.91,1.23.33,1.84.5,2.54.21,1.73-.73,3.99-5.38,4.97-6.93-.48,1.77-1.17,5.61-.46,7.29.76,1.81,4.06,3.82,5.55,4.76-1.79-.38-5.7-1.57-7.43-.84-1.62.68-3.67,4.53-4.65,6.08.34-1.14,1.47-3.6,1.62-5.51a6.22,6.22,0,0,0-.45-2.36C73.59,31.47,69.99,29.72,68.46,28.66Z" fill="#f8b227" fill-rule="evenodd"/><path d="M69.84,29.36c.9.19,2.27,1.17,3.49,1.5,1.06.26,1.68.43,2.25.18,1.39-.59,3.27-4.5,4.07-5.83-.3,1.55-.85,4.76-.24,6.2.5,1.5,3.25,3.17,4.51,3.92-1.46-.24-4.75-1.26-6.14-.67-1.5.63-3.13,3.88-3.97,5.09.15-.92,1.16-3.05,1.23-4.5a5.108,5.108,0,0,0-.35-2.12C74.09,31.68,71.16,30.22,69.84,29.36Z" fill="#f5ae29" fill-rule="evenodd"/><path d="M71.29,29.88c.62.17,1.77.96,2.83,1.22a2.4,2.4,0,0,0,1.69.14c1.16-.49,2.72-3.56,3.39-4.55-.29,1.26-.69,3.84-.23,4.92.51,1.21,2.59,2.6,3.69,3.27-1.29-.16-3.97-1.02-5.01-.58-1.15.49-2.64,3.1-3.31,4.1a14.847,14.847,0,0,0,1.02-3.7,4.665,4.665,0,0,0-.31-1.71C74.54,31.78,72.27,30.6,71.29,29.88Z" fill="#efa72c" fill-rule="evenodd"/><path d="M72.62,30.46a20.919,20.919,0,0,1,2.16.93,3.636,3.636,0,0,0,1.41.11c.92-.39,1.99-2.69,2.48-3.46-.11,1.04-.54,2.92-.13,3.89.36.84,1.89,1.9,2.66,2.43-.9-.19-2.91-.76-3.71-.42-.92.39-1.98,2.4-2.52,3.05.03-.58.6-1.81.7-2.85a6.212,6.212,0,0,0-.28-1.3C74.98,31.87,73.39,30.98,72.62,30.46Z" fill="#eda12f" fill-rule="evenodd"/><path d="M73.95,31.03c.4-.03,1,.43,1.5.65.4-.03.73.12.96.02.69-.29,1.44-1.74,1.8-2.18a5.782,5.782,0,0,0-.12,2.61,5.107,5.107,0,0,0,1.79,1.66,7.5,7.5,0,0,0-2.54-.21c-.69.29-1.38,1.57-1.85,2.06a16.6,16.6,0,0,0,.43-1.89,4.421,4.421,0,0,0-.17-1.06C75.6,32.04,74.38,31.42,73.95,31.03Z" fill="#e89932" fill-rule="evenodd"/><path d="M75.28,31.6c.23-.1.61.17.9.19a.936.936,0,0,0,.56.05c.4-.03.77-.75.95-.97.04.41-.05,1.16-.02,1.57a2.393,2.393,0,0,0,.92.89,3.883,3.883,0,0,0-1.41-.12,3.515,3.515,0,0,0-1.07,1.02c-.1-.24.03-.58.11-1.04a6.117,6.117,0,0,1-.14-.65C76.05,32.13,75.5,31.8,75.28,31.6Z" fill="#de8b34" fill-rule="evenodd"/><path d="M77.03,32.85a.392.392,0,0,0-.31-.72c-.23.1-.41.32-.31.55A.442.442,0,0,0,77.03,32.85Z" fill="#c96c38" fill-rule="evenodd"/><path d="M50.36,54.76c1.23.33,3.08,1.82,4.88,2.2,1.39.4,2.18.64,2.99.3,1.96-.83,4.49-6.44,5.65-8.2-.44,2.17-1.21,6.47-.35,8.52.81,1.93,4.66,4.28,6.36,5.4-2.08-.4-6.71-1.71-8.56-.93-1.96.83-4.32,5.23-5.43,7.12.35-1.43,1.73-4.28,1.94-6.36a5.9,5.9,0,0,0-.6-2.73C56.37,58.04,52.23,55.96,50.36,54.76Z" fill="#fcb827" fill-rule="evenodd"/><path d="M51.86,55.41c1.06.26,2.65,1.44,4.21,1.91a4.189,4.189,0,0,0,2.53.21c1.73-.73,3.82-5.45,4.8-7-.31,1.84-1.05,5.56-.29,7.36.71,1.69,4.01,3.7,5.5,4.64-1.74-.26-5.7-1.57-7.43-.84-1.62.68-3.67,4.53-4.64,6.08.34-1.14,1.47-3.6,1.55-5.34a7.112,7.112,0,0,0-.39-2.53C56.99,58.21,53.39,56.46,51.86,55.41Z" fill="#f8b227" fill-rule="evenodd"/><path d="M53.19,55.98c.9.19,2.31,1.29,3.54,1.63a4.246,4.246,0,0,0,2.2.06c1.39-.59,3.27-4.5,4.12-5.72-.3,1.55-.9,4.64-.4,6.13.61,1.45,3.36,3.12,4.68,3.99-1.63-.31-4.92-1.33-6.3-.75s-3.01,3.83-3.86,5.04c.16-.92,1.21-2.93,1.23-4.49a4.7,4.7,0,0,0-.35-2.12C57.44,58.3,54.51,56.84,53.19,55.98Z" fill="#f5ae29" fill-rule="evenodd"/><path d="M54.52,56.55c.73.12,1.93,1.03,2.94,1.17a3.852,3.852,0,0,0,1.74.26c1.15-.49,2.66-3.68,3.33-4.67-.29,1.26-.69,3.84-.18,5.05.34,1.13,2.54,2.47,3.64,3.15-1.29-.16-3.97-1.02-5.13-.53-1.04.44-2.47,3.17-3.19,4.04a21.42,21.42,0,0,0,1.02-3.7,4.665,4.665,0,0,0-.31-1.71C57.88,58.4,55.62,57.22,54.52,56.55Z" fill="#efa72c" fill-rule="evenodd"/><path d="M55.97,57.08c.45.1,1.38.69,2.16.93a2.239,2.239,0,0,0,1.41.11c.81-.34,1.99-2.69,2.53-3.34-.16.92-.54,2.92-.18,3.77.29,1.01,1.94,2.02,2.66,2.43-.84-.07-2.91-.76-3.71-.42-.92.39-1.98,2.4-2.47,3.17.03-.58.55-1.93.59-2.8a8.768,8.768,0,0,0-.21-1.47C58.38,58.61,56.62,57.66,55.97,57.08Z" fill="#eda12f" fill-rule="evenodd"/><path d="M57.3,57.65a9.872,9.872,0,0,1,1.5.65,1.564,1.564,0,0,0,.96.02c.63-.12,1.44-1.74,1.8-2.18a7.235,7.235,0,0,0-.07,2.73,5.194,5.194,0,0,0,1.79,1.66,6.3,6.3,0,0,0-2.54-.21,5.6,5.6,0,0,0-1.85,2.06c-.04-.41.4-1.31.38-2-.04-.41-.19-.77-.18-1.06C58.83,58.71,57.73,58.04,57.3,57.65Z" fill="#e89932" fill-rule="evenodd"/><path d="M58.63,58.22a3.487,3.487,0,0,1,.95.31c.17.07.28.02.56.05.35-.15.72-.87.95-.97a4.331,4.331,0,0,0-.07,1.45,3.278,3.278,0,0,0,.8.94c-.28-.02-1.06-.26-1.29-.16-.46.2-.84.92-1.02,1.14a5.9,5.9,0,0,1-.06-1.11c.01-.29-.09-.53-.02-.7A3.176,3.176,0,0,0,58.63,58.22Z" fill="#de8b34" fill-rule="evenodd"/><path d="M60.26,59.52a.449.449,0,0,0,.31-.56.445.445,0,0,0-.61-.17.408.408,0,0,0-.19.51A.392.392,0,0,0,60.26,59.52Z" fill="#c96c38" fill-rule="evenodd"/><path d="M79.24,42.28c1.18.21,3.08,1.82,4.88,2.2a4.531,4.531,0,0,0,2.93.18c1.96-.83,4.43-6.27,5.54-8.16-.33,2.12-1.16,6.59-.35,8.52.87,2.05,4.71,4.4,6.53,5.48-2.19-.35-6.76-1.83-8.72-1-1.85.78-4.27,5.35-5.31,7.07.29-1.26,1.67-4.11,1.88-6.19a6.51,6.51,0,0,0-.54-2.89C85.21,45.44,81,43.53,79.24,42.28Z" fill="#fcb827" fill-rule="evenodd"/><path d="M80.58,42.85c1.06.26,2.7,1.56,4.21,1.91a4.016,4.016,0,0,0,2.65.16c1.62-.68,3.87-5.33,4.85-6.87-.37,1.71-1.06,5.56-.34,7.24.76,1.81,3.95,3.87,5.54,4.76-1.91-.33-5.81-1.52-7.43-.84-1.73.73-3.78,4.58-4.65,6.08.22-1.09,1.36-3.55,1.51-5.46a4.432,4.432,0,0,0-.46-2.36C85.7,45.65,82.11,43.91,80.58,42.85Z" fill="#f8b227" fill-rule="evenodd"/><path d="M82.07,43.5a27.043,27.043,0,0,0,3.49,1.51,3.02,3.02,0,0,0,2.14.23c1.5-.63,3.27-4.5,4.07-5.83-.3,1.54-.85,4.76-.24,6.2s3.36,3.12,4.63,3.86c-1.58-.19-4.86-1.21-6.25-.62s-3.13,3.88-3.98,5.09a33.1,33.1,0,0,0,1.35-4.54,4.553,4.553,0,0,0-.47-2.07C86.2,45.87,83.27,44.41,82.07,43.5Z" fill="#f5ae29" fill-rule="evenodd"/><path d="M83.4,44.07c.73.12,1.77.96,2.83,1.22a2.615,2.615,0,0,0,1.81.09c1.15-.49,2.6-3.51,3.27-4.5-.17,1.21-.69,3.84-.23,4.93.51,1.2,2.71,2.55,3.69,3.27-1.18-.21-3.85-1.07-5.01-.58s-2.52,3.05-3.19,4.04c.09-.75.91-2.37.91-3.65a2.97,2.97,0,0,0-.32-1.71C86.77,45.92,84.39,44.79,83.4,44.07Z" fill="#efa72c" fill-rule="evenodd"/><path d="M84.73,44.65a20.918,20.918,0,0,1,2.16.93,3.831,3.831,0,0,0,1.41.11c.92-.39,1.99-2.69,2.48-3.46a12.727,12.727,0,0,0-.13,3.89c.36.84,2,1.85,2.77,2.38-1.01-.14-3.02-.71-3.83-.37-.92.39-1.98,2.4-2.52,3.05a12.363,12.363,0,0,0,.7-2.85,2.56,2.56,0,0,0-.28-1.3C87.22,46.01,85.5,45.17,84.73,44.65Z" fill="#eda12f" fill-rule="evenodd"/><path d="M86.18,45.17c.28.02.88.48,1.5.64.4-.03.62.17.96.02.58-.24,1.33-1.7,1.68-2.13a13.179,13.179,0,0,0-.12,2.61c.25.6,1.35,1.27,1.79,1.66-.56-.04-1.96-.45-2.54-.21s-1.38,1.57-1.74,2.01c-.04-.41.29-1.26.31-1.84a1.734,1.734,0,0,0-.18-1.06C87.72,46.23,86.61,45.56,86.18,45.17Z" fill="#e89932" fill-rule="evenodd"/><path d="M87.51,45.74c.11-.05.5.22.78.24s.45.09.56.05c.4-.03.89-.8,1.07-1.02a7.631,7.631,0,0,0-.13,1.62,4.593,4.593,0,0,0,.92.89,3.054,3.054,0,0,0-1.41-.12c-.35.15-.77.75-1.07,1.02-.1-.24.14-.63.1-1.04a1.532,1.532,0,0,0-.14-.65C88.16,46.32,87.61,45.98,87.51,45.74Z" fill="#de8b34" fill-rule="evenodd"/><path d="M89.15,47.04a.449.449,0,0,0,.31-.56.456.456,0,0,0-.62-.17.408.408,0,1,0,.31.73Z" fill="#c96c38" fill-rule="evenodd"/><path d="M63.85,67.38c1.23.33,3.08,1.82,4.87,2.2,1.23.33,2.18.64,2.99.3,1.96-.83,4.38-6.39,5.53-8.16-.38,2.01-1.21,6.47-.4,8.4.87,2.05,4.71,4.4,6.53,5.48-2.19-.35-6.76-1.83-8.72-1-1.85.78-4.27,5.35-5.31,7.07.29-1.25,1.67-4.11,1.88-6.19a6.586,6.586,0,0,0-.54-2.9C69.87,70.66,65.6,68.62,63.85,67.38Z" fill="#fcb827" fill-rule="evenodd"/><path d="M65.23,68.07c1.01.14,2.65,1.44,4.21,1.91a4.579,4.579,0,0,0,2.6.04c1.67-.56,3.87-5.33,4.85-6.87-.31,1.83-1.06,5.56-.34,7.24.76,1.81,4.06,3.82,5.55,4.76-1.91-.33-5.81-1.52-7.43-.84s-3.78,4.58-4.65,6.08c.22-1.09,1.47-3.6,1.56-5.34a4.938,4.938,0,0,0-.51-2.49C70.36,70.87,66.88,69.07,65.23,68.07Z" fill="#f8b227" fill-rule="evenodd"/><path d="M66.68,68.59c.9.19,2.15,1.22,3.54,1.63a3.565,3.565,0,0,0,2.09.11c1.5-.63,3.27-4.5,4.07-5.83-.25,1.67-.85,4.76-.24,6.2s3.36,3.13,4.68,3.99c-1.63-.31-4.92-1.33-6.3-.74s-3.13,3.88-3.98,5.09a23.984,23.984,0,0,0,1.35-4.54,4.309,4.309,0,0,0-.47-2.07C70.93,70.92,67.88,69.51,66.68,68.59Z" fill="#f5ae29" fill-rule="evenodd"/><path d="M68.01,69.17c.73.12,1.76.96,2.83,1.22a2.615,2.615,0,0,0,1.81.09c1.2-.37,2.6-3.51,3.27-4.5-.17,1.21-.69,3.84-.18,5.04.46,1.08,2.66,2.43,3.64,3.15-1.18-.21-3.85-1.07-5.01-.58s-2.52,3.05-3.19,4.05c.09-.75.91-2.37.91-3.65a2.97,2.97,0,0,0-.32-1.71C71.38,71.01,69,69.89,68.01,69.17Z" fill="#efa72c" fill-rule="evenodd"/><path d="M69.34,69.74c.56.05,1.38.69,2.28.88.61.17.95.31,1.29.16.92-.39,1.99-2.69,2.54-3.34a12,12,0,0,0-.18,3.77c.36.84,2,1.85,2.77,2.38-1.01-.14-2.91-.76-3.83-.37s-1.98,2.4-2.52,3.05a16.679,16.679,0,0,0,.75-2.73,8.768,8.768,0,0,0-.21-1.47C71.88,71.23,70.11,70.27,69.34,69.74Z" fill="#eda12f" fill-rule="evenodd"/><path d="M70.79,70.27c.28.02.88.48,1.5.64a1.644,1.644,0,0,0,.96.02c.63-.12,1.44-1.74,1.8-2.18a9.273,9.273,0,0,0-.19,2.78c.25.6,1.35,1.27,1.79,1.66a5.712,5.712,0,0,0-2.59-.33c-.58.24-1.38,1.57-1.74,2.01.01-.29.29-1.25.43-1.89-.04-.41-.19-.77-.18-1.06C72.32,71.32,71.22,70.65,70.79,70.27Z" fill="#e89932" fill-rule="evenodd"/><path d="M72.12,70.84a3.136,3.136,0,0,0,.78.24c.28.02.45.1.56.05.4-.03.89-.8,1.12-.9a2.556,2.556,0,0,0-.07,1.45c.04.41.59.75.8.94-.28-.02-1.06-.26-1.41-.12s-.72.87-1.07,1.02a2.914,2.914,0,0,0,.1-1.04c.01-.29-.09-.53-.02-.7C72.77,71.42,72.22,71.08,72.12,70.84Z" fill="#de8b34" fill-rule="evenodd"/><path d="M73.76,72.14a.449.449,0,0,0,.31-.56.445.445,0,0,0-.61-.17.4.4,0,0,0,.3.73Z" fill="#c96c38" fill-rule="evenodd"/><path d="M82.01,60.42c1.18.21,3.08,1.82,4.88,2.2a4.529,4.529,0,0,0,2.93.18c1.96-.83,4.54-6.32,5.65-8.2-.44,2.17-1.28,6.64-.46,8.57.86,2.05,4.71,4.4,6.53,5.47-2.19-.35-6.76-1.83-8.61-1.05-1.96.83-4.38,5.4-5.43,7.12.29-1.25,1.78-4.16,1.88-6.19a5.272,5.272,0,0,0-.54-2.89C87.97,63.58,83.87,61.62,82.01,60.42Z" fill="#fcb827" fill-rule="evenodd"/><path d="M83.34,60.99c1.06.26,2.7,1.56,4.33,1.86a3.475,3.475,0,0,0,2.54.21c1.73-.73,3.87-5.33,4.85-6.88-.36,1.72-1.05,5.56-.34,7.24.76,1.81,4.06,3.82,5.55,4.76-1.79-.38-5.81-1.52-7.43-.84s-3.66,4.53-4.64,6.08c.22-1.09,1.47-3.6,1.5-5.46a4.537,4.537,0,0,0-.45-2.36C88.47,63.8,84.99,62,83.34,60.99Z" fill="#f8b227" fill-rule="evenodd"/><path d="M84.83,61.64c.9.19,2.15,1.22,3.49,1.51a3,3,0,0,0,2.26.18c1.38-.58,3.15-4.45,3.95-5.79-.3,1.55-.85,4.76-.24,6.21s3.36,3.12,4.63,3.87c-1.57-.19-4.86-1.21-6.25-.63s-3.13,3.87-3.86,5.04c.16-.92,1.05-3,1.23-4.5a4.553,4.553,0,0,0-.47-2.07C89.08,63.96,86.15,62.5,84.83,61.64Z" fill="#f5ae29" fill-rule="evenodd"/><path d="M86.17,62.21c.73.12,1.77.96,2.83,1.22a3.023,3.023,0,0,0,1.81.09c1.15-.49,2.6-3.51,3.27-4.5-.17,1.21-.57,3.79-.23,4.92.51,1.2,2.71,2.55,3.69,3.27-1.18-.21-3.85-1.07-5.01-.58s-2.52,3.05-3.19,4.05c.09-.75.9-2.37.91-3.65a5.137,5.137,0,0,0-.2-1.76C89.53,64.06,87.15,62.93,86.17,62.21Z" fill="#efa72c" fill-rule="evenodd"/><path d="M87.5,62.78c.56.05,1.38.7,2.28.88a3.255,3.255,0,0,0,1.29.16c.92-.39,2.11-2.74,2.6-3.51a10.142,10.142,0,0,0-.24,3.93c.36.84,2.01,1.85,2.77,2.38-1.01-.14-2.91-.76-3.83-.37-.81.34-1.87,2.35-2.52,3.05a12.363,12.363,0,0,0,.7-2.85,6.844,6.844,0,0,0-.16-1.35C89.98,64.15,88.26,63.31,87.5,62.78Z" fill="#eda12f" fill-rule="evenodd"/><path d="M88.94,63.31c.28.02.88.48,1.5.65.4-.03.73.12.96.02.58-.24,1.44-1.74,1.8-2.18a5.782,5.782,0,0,0-.12,2.61c.14.65,1.24,1.32,1.79,1.66-.68,0-2.08-.4-2.65-.16s-1.38,1.57-1.73,2.01a9.812,9.812,0,0,1,.43-1.89c-.04-.41-.19-.77-.18-1.06C90.48,64.36,89.38,63.69,88.94,63.31Z" fill="#e89932" fill-rule="evenodd"/><path d="M90.27,63.88c.23-.1.5.22.78.24s.45.1.56.05c.4-.03.89-.8,1.07-1.02a3.627,3.627,0,0,0-.02,1.57c-.01.29.59.75.81.94a2.348,2.348,0,0,0-1.41-.11c-.34.15-.77.75-1.07,1.02a5.911,5.911,0,0,0,.1-1.04c.01-.29-.09-.53-.02-.7A3.037,3.037,0,0,0,90.27,63.88Z" fill="#de8b34" fill-rule="evenodd"/><path d="M91.91,65.18a.449.449,0,0,0,.31-.56c-.1-.24-.38-.26-.62-.17a.4.4,0,0,0,.31.73Z" fill="#c96c38" fill-rule="evenodd"/><path d="M65.23,47.77c1.23.33,3.08,1.82,4.93,2.32,1.34.29,2.13.52,3.05.13,1.85-.78,4.43-6.27,5.54-8.16-.44,2.17-1.21,6.47-.35,8.52s4.66,4.28,6.53,5.48c-2.19-.35-6.76-1.83-8.72-1s-4.27,5.35-5.32,7.07c.23-1.38,1.67-4.11,1.83-6.31a5.9,5.9,0,0,0-.61-2.73C71.25,51.05,67.1,48.97,65.23,47.77Z" fill="#fcb827" fill-rule="evenodd"/><path d="M66.73,48.41c1.06.26,2.7,1.56,4.21,1.91,1.18.21,1.84.5,2.54.21,1.73-.73,3.94-5.5,4.92-7.05-.43,1.89-1.12,5.73-.41,7.41s4.01,3.7,5.66,4.71c-1.91-.33-5.86-1.64-7.48-.96-1.73.73-3.73,4.7-4.64,6.08.22-1.09,1.41-3.43,1.55-5.34a6.359,6.359,0,0,0-.5-2.48C71.86,51.22,68.27,49.47,66.73,48.41Z" fill="#f8b227" fill-rule="evenodd"/><path d="M68.06,48.99c.9.19,2.32,1.29,3.55,1.63a4.246,4.246,0,0,0,2.2.06c1.44-.47,3.27-4.5,4.12-5.71-.3,1.55-.9,4.64-.24,6.2.5,1.49,3.2,3.05,4.51,3.91-1.46-.23-4.75-1.26-6.14-.67-1.5.63-3.18,3.75-3.97,5.08.1-1.04,1.16-3.05,1.18-4.61a4.7,4.7,0,0,0-.35-2.12C72.31,51.31,69.38,49.85,68.06,48.99Z" fill="#f5ae29" fill-rule="evenodd"/><path d="M69.51,49.51a30.751,30.751,0,0,0,2.88,1.34,3.161,3.161,0,0,0,1.81.09c1.04-.44,2.6-3.51,3.22-4.62-.23,1.38-.69,3.84-.18,5.04s2.59,2.6,3.64,3.15c-1.3-.17-3.92-.9-4.96-.46-1.15.49-2.64,3.1-3.19,4.04a36.57,36.57,0,0,0,.91-3.65,5.073,5.073,0,0,0-.37-1.83C72.81,51.53,70.49,50.23,69.51,49.51Z" fill="#efa72c" fill-rule="evenodd"/><path d="M70.84,50.09a19.743,19.743,0,0,0,2.16.93,2.241,2.241,0,0,0,1.41.11c.97-.27,2.05-2.57,2.53-3.34-.16.92-.53,2.92-.18,3.76a8.349,8.349,0,0,0,2.71,2.55c-.9-.19-2.9-.76-3.71-.42-.92.39-2.03,2.28-2.52,3.05.03-.58.59-1.81.7-2.85a7.282,7.282,0,0,0-.33-1.42C73.26,51.62,71.61,50.61,70.84,50.09Z" fill="#eda12f" fill-rule="evenodd"/><path d="M72.17,50.66a12.96,12.96,0,0,0,1.61.6,2.85,2.85,0,0,0,.9.19c.69-.29,1.44-1.74,1.8-2.18a5.788,5.788,0,0,0-.12,2.61c.25.6,1.36,1.27,1.79,1.66a5.406,5.406,0,0,0-2.54-.21c-.69.29-1.37,1.57-1.85,2.06a9.73,9.73,0,0,0,.38-2.01,3.064,3.064,0,0,0-.18-1.06C73.82,51.67,72.61,51.04,72.17,50.66Z" fill="#e89932" fill-rule="evenodd"/><path d="M73.5,51.24a3.487,3.487,0,0,1,.95.31.936.936,0,0,0,.56.05c.35-.15.77-.75.95-.97.04.41-.1,1.04-.07,1.45.15.36.7.7.92.89a5.156,5.156,0,0,0-1.36,0,4.362,4.362,0,0,0-1.07,1.02c-.1-.24.09-.75.05-1.16-.1-.24-.04-.41-.14-.65C74.27,51.76,73.72,51.43,73.5,51.24Z" fill="#de8b34" fill-rule="evenodd"/><path d="M75.3,52.6c.23-.1.24-.39.14-.63a.407.407,0,0,0-.5-.21.57.57,0,0,0-.31.55A.55.55,0,0,0,75.3,52.6Z" fill="#c96c38" fill-rule="evenodd"/><ellipse cx="23.82" cy="28.83" rx="23.82" ry="28.83" transform="translate(42.661 35.138) rotate(-22.898)" fill="#fcb827" opacity="0.53"/><path d="M62.74,85.06a7.2,7.2,0,0,0,3.96-1.05,3.111,3.111,0,0,0,.88-.99.773.773,0,0,0-.09-.7c-.1-.12-.44-.13-.64-.07a3.472,3.472,0,0,0-.78.37,7.642,7.642,0,0,1-6.06.62,3.905,3.905,0,0,1-2.64-2.61,4.876,4.876,0,0,0-.46-.98c-.1-.14-.36-.17-.55-.25-.07.19-.25.42-.2.56a11.3,11.3,0,0,0,.97,2.34,5.8,5.8,0,0,0,4.48,2.66C62.04,85,62.45,85.04,62.74,85.06Z"/><path d="M62.54,80.37a1.968,1.968,0,0,0,2.1-1.96,2.6,2.6,0,0,0-2.36-2.42,2.2,2.2,0,0,0,.26,4.38Z"/><path d="M11.81,20.04a3.8,3.8,0,0,0,.49.77q2.67,2.4,5.39,4.75a1.819,1.819,0,0,0,.76.38.674.674,0,0,0,.56-.18.6.6,0,0,0,0-.54,2.936,2.936,0,0,0-.58-.78c-1.75-1.61-3.5-3.21-5.28-4.78a1.148,1.148,0,0,0-.84-.18C12.13,19.52,12,19.82,11.81,20.04Z"/><path d="M13.39,38.33c.47-.05,1-.07,1.51-.17a.755.755,0,0,0,.66-.86c-.06-.49-.42-.62-.85-.67-1.48-.16-2.95-.34-4.43-.5a4.019,4.019,0,0,0-.98-.02.806.806,0,0,0-.79.7.747.747,0,0,0,.58.87,23.068,23.068,0,0,0,2.34.47C12.06,38.24,12.7,38.27,13.39,38.33Z"/><path d="M25.3,23.3a13.929,13.929,0,0,0-1.29-4.41.632.632,0,1,0-1.18.45q.63,2.025,1.35,4.02c.12.33.32.77.76.59C25.16,23.87,25.24,23.44,25.3,23.3Z"/><path d="M78.03,44.72q4.215-4.47,8.42-8.96a16.671,16.671,0,0,0,1.41-1.82,1.5,1.5,0,0,1,1.29-.78c.73.02,1.46.13,2.18.12,1.63-.04,2.16,1.48,2,2.91A1.328,1.328,0,0,1,92,37.49c-.95.05-1.89.05-2.84.13a1.513,1.513,0,0,0-.93.4c-1.68,1.9-3.29,3.86-4.98,5.74-1.3,1.45-2.66,2.83-4.04,4.19a.965.965,0,0,0-.34.97,10.805,10.805,0,0,1-.31,5.5,13.085,13.085,0,0,1-2.7,4.39,11.06,11.06,0,0,1-7.56,3.67,12.154,12.154,0,0,1-7.07-2.21,2.763,2.763,0,0,0-2.08-.58,2.586,2.586,0,0,0-2.03,1.14,11.507,11.507,0,0,0-.92,2.3,2.253,2.253,0,0,0,1.32,2.81c.11.05.22.09.33.14,2.11.96,3.9.41,5.29-1.57.12-.18.4-.22.61-.32a3.9,3.9,0,0,1,.2.8.935.935,0,0,1-.23.52c-1.43,2.06-4.08,3.52-6.51,2.09a.857.857,0,0,0-.99.01,3.23,3.23,0,0,1-1.34.45,6.712,6.712,0,0,1-5.69-1.99,33.927,33.927,0,0,1-2.75-3.21,9.8,9.8,0,0,1-1.11-2.19c-.36-.85-.63-1.74-.96-2.65-1.22,1.24-2.37,2.46-3.58,3.6a1.6,1.6,0,0,0-.57,1.34c.03,1.79-1.38,3.62-3.43,2.82a5.805,5.805,0,0,1-1.86-1.09,14.841,14.841,0,0,0-6-3.51,3.77,3.77,0,0,1-2.21-1.93,2.11,2.11,0,0,1,.05-2.37,4.48,4.48,0,0,1,3.66-2.3,2.861,2.861,0,0,0,.3-.03c-.22-2.07-.4-4.11-.67-6.14a111.691,111.691,0,0,1-1.15-14.96,14.116,14.116,0,0,1,.59-3.76,4.548,4.548,0,0,1,3.82-3.5c2.04-.36,3.3.49,3.95,2.64.41,1.35.83,2.69,1.29,4.18a4.13,4.13,0,0,1,.33-.51c.86-.92,1.7-1.87,2.61-2.73a5.591,5.591,0,0,1,3.9-1.63,3.011,3.011,0,0,1,2.78,3.96c-.05.22-.1.44-.14.62a4.214,4.214,0,0,1,.95.51,5.041,5.041,0,0,1,1.41,4.86,9.883,9.883,0,0,0-.46,2.47c-.07,1.58-.01,3.16-.02,4.75a27.8,27.8,0,0,1-.21,5.76c.09.03.18.06.27.1a11.716,11.716,0,0,1,5.87,4.7,8.788,8.788,0,0,0,.84,1.09.4.4,0,0,0,.35.1c.34-.09.67-.22.96-.32a9.261,9.261,0,0,1-.7-1.89c-.18-1.28-.21-2.58-.33-3.86a.812.812,0,0,0-.32-.55,6.191,6.191,0,0,1-2.57-2.43,3.917,3.917,0,0,1-.66-2.44c.03-.43.03-.97.51-1.05.51-.08.49.5.62.86.89,2.53,2.82,4.16,5.58,2.43a8.27,8.27,0,0,0,2.91-2.99c.52-.95,1.07-1.87,1.56-2.84a11.924,11.924,0,0,1,8.09-6.41,6.941,6.941,0,0,1,1.82-.17.83.83,0,0,1,.87.8,1.712,1.712,0,0,1-.43,1.1,3.212,3.212,0,0,1-1.17.58c-.76.28-1.53.51-2.48.82,2.95,1.26,5.22,3.09,6.34,6.33A2.505,2.505,0,0,0,78.03,44.72ZM44.57,55.67c.91-1.41,2-2.67,3.03-3.98a4.118,4.118,0,0,0,1.11-2.82c-.07-2.32-.05-4.64-.07-6.96a13.063,13.063,0,0,1,.58-4.35,3.5,3.5,0,0,0-.96-3.22,1.907,1.907,0,0,0-1.92.13,8.578,8.578,0,0,0-2.62,3.69,7.464,7.464,0,0,1-.66,1.29c-.07.11-.26.13-.4.18a1.888,1.888,0,0,1-.12-.51c.15-2.42,1.5-4.07,3.01-5.61a3.131,3.131,0,0,1,.63-.47,1.978,1.978,0,0,0,.55-2.88,1.919,1.919,0,0,0-1.15-.65,3.3,3.3,0,0,0-2.81.95c-1.35,1.33-2.66,2.71-3.89,4.17a31.709,31.709,0,0,0-1.93,2.94,5.035,5.035,0,0,1-.64.69,1.724,1.724,0,0,1,.12-1.58,11,11,0,0,1,.54-1.15,3.152,3.152,0,0,0,.28-2.49c-.42-1.53-.88-3.05-1.38-4.55a1.545,1.545,0,0,0-1.5-1.07c-1.83-.1-2.91.74-3.52,2.66a15.345,15.345,0,0,0-.49,5.4c.17,4.31.51,8.61,1.09,12.88.26,1.9.35,3.84.49,5.76.03.35.13.47.44.54a26.606,26.606,0,0,1,3.32.89,4.867,4.867,0,0,1,1.83,1.22c1.01,1.11,1.9,2.36,2.89,3.62A33.439,33.439,0,0,0,44.57,55.67ZM65.73,44.99a11.621,11.621,0,0,1-3.96,4.63c-.66.42-1.38.73-2.12,1.11a8.069,8.069,0,0,0,1.27,4.11.555.555,0,0,0,.5.11,12.252,12.252,0,0,0,5.79-3.37c2.02-1.99,3.87-4.22,6.67-5.25-1.63-2.34-3.41-4.21-6.22-4.74C67.03,42.68,66.34,43.81,65.73,44.99ZM64.56,57.98a6.891,6.891,0,0,0,5.33.03c3.82-1.89,5.65-4.8,4.79-9.41-.06-.31-.19-.6-.33-1.05a27.363,27.363,0,0,0-2.51,1.52,18.5,18.5,0,0,0-2.48,2.29,16.476,16.476,0,0,1-7.11,4.57c-.09.03-.18.05-.32.1A5.711,5.711,0,0,0,64.56,57.98Zm-36.22-1.1c-1.19,1.14-.68,1.99.43,2.8a3.491,3.491,0,0,0,1,.4,16.6,16.6,0,0,1,6.03,3.48,3.668,3.668,0,0,0,1.7.8c.75.16,1.25-.35,1.32-1.19a11.274,11.274,0,0,0-.07-1.29c-.01-.41.04-.82.03-1.23a.877.877,0,0,0-.13-.52,14.056,14.056,0,0,0-2.37-2.87,11.148,11.148,0,0,0-3.37-1.28,10.205,10.205,0,0,0-1.76-.22A3.31,3.31,0,0,0,28.34,56.88ZM51,61.77c-.18.06-.44-.17-.66-.26.08-.22.11-.54.26-.64.5-.33,1.05-.59,1.58-.87.17-.09.34-.16.51-.24v-.22c-1.43-.23-2.86-.45-4.29-.68-.08-.01-.18.02-.23-.03-.21-.18-.4-.37-.6-.56.22-.18.42-.46.65-.5a3.3,3.3,0,0,1,1.17.06c1.51.27,3.01.56,4.56.85-1.11-2.33-2.51-4.28-5.12-4.69-.18-.03-.35-.09-.52-.11-.5-.04-.97-.03-1.27.56a3.892,3.892,0,0,1-.6.8,1.613,1.613,0,0,0-.31,1.75c1.31,3.02,2.81,5.89,5.73,7.4a3.282,3.282,0,0,0,2.42.26,1.134,1.134,0,0,0,.91-1.04,5.228,5.228,0,0,0-.47-3.17C53.42,60.92,52.22,61.38,51,61.77Z"/><path d="M37.53,56.77a4.867,4.867,0,0,0-1.83-1.22,27.567,27.567,0,0,0-3.32-.89c-.31-.07-.41-.19-.44-.54-.14-1.92-.22-3.86-.49-5.76-.59-4.27-.92-8.57-1.09-12.88a15.85,15.85,0,0,1,.49-5.4c.61-1.92,1.68-2.76,3.52-2.66a1.545,1.545,0,0,1,1.5,1.07c.5,1.5.96,3.02,1.38,4.55a3.072,3.072,0,0,1-.28,2.49,11,11,0,0,0-.54,1.15,1.727,1.727,0,0,0-.12,1.58,5.689,5.689,0,0,0,.64-.69,31.708,31.708,0,0,1,1.93-2.94c1.23-1.46,2.54-2.84,3.89-4.17a3.3,3.3,0,0,1,2.81-.95,1.919,1.919,0,0,1,1.15.65,1.978,1.978,0,0,1-.55,2.88,2.873,2.873,0,0,0-.63.47c-1.51,1.54-2.85,3.19-3.01,5.61a1.98,1.98,0,0,0,.12.51c.14-.06.34-.07.4-.18a6.821,6.821,0,0,0,.66-1.29,8.662,8.662,0,0,1,2.62-3.69,1.907,1.907,0,0,1,1.92-.13,3.472,3.472,0,0,1,.96,3.22,13.029,13.029,0,0,0-.58,4.35c.02,2.32,0,4.64.07,6.96a4.118,4.118,0,0,1-1.11,2.82,46.883,46.883,0,0,0-3.03,3.98,32.89,32.89,0,0,1-4.15,4.72C39.43,59.13,38.54,57.89,37.53,56.77Zm-2.27-7.04c0,.3-.15.75.3.75.14,0,.36-.46.39-.73.08-.97.07-1.95.13-2.92s.19-1.94.25-2.91a2.977,2.977,0,0,0-.16-.82c-.18.25-.48.47-.51.74-.18,1.41-.28,2.84-.42,4.26.03,0,.06.01.08.01C35.3,48.65,35.27,49.19,35.26,49.73ZM39,44.24q-.795,3.06-1.55,6.13c-.04.17.11.4.17.6.13-.15.34-.28.38-.45q.75-3.1,1.46-6.23a2.723,2.723,0,0,0,.01-.64l-.22-.03A3.655,3.655,0,0,0,39,44.24Z" fill="#fff"/><path d="M67.64,41.6c-.61,1.08-1.31,2.21-1.92,3.4a11.621,11.621,0,0,1-3.96,4.63c-.66.42-1.38.73-2.12,1.11a8.069,8.069,0,0,0,1.27,4.11.555.555,0,0,0,.5.11,12.252,12.252,0,0,0,5.79-3.37c2.02-1.99,3.87-4.22,6.67-5.25C72.23,44,70.45,42.13,67.64,41.6Z" fill="#fff"/><path d="M61.9,56.02a5.923,5.923,0,0,0,2.65,1.96,6.891,6.891,0,0,0,5.33.03c3.82-1.89,5.65-4.8,4.79-9.41-.06-.31-.19-.6-.33-1.05a27.363,27.363,0,0,0-2.51,1.52,18.5,18.5,0,0,0-2.48,2.29,16.476,16.476,0,0,1-7.11,4.57C62.14,55.96,62.05,55.98,61.9,56.02Z" fill="#fff"/><path d="M31.15,55.76a3.35,3.35,0,0,0-2.81,1.12c-1.19,1.14-.68,1.99.43,2.8a3.491,3.491,0,0,0,1,.4,16.6,16.6,0,0,1,6.03,3.48,3.668,3.668,0,0,0,1.7.8c.75.16,1.25-.35,1.32-1.19a11.274,11.274,0,0,0-.07-1.29c-.01-.41.04-.82.03-1.23a.877.877,0,0,0-.13-.52,14.056,14.056,0,0,0-2.37-2.87,11.148,11.148,0,0,0-3.37-1.28A8.738,8.738,0,0,0,31.15,55.76Z" fill="#fff"/><path d="M54.72,60.45c-1.3.47-2.5.93-3.72,1.32-.18.06-.44-.17-.66-.26.08-.22.11-.54.26-.64.5-.33,1.05-.59,1.58-.87.17-.09.34-.16.51-.24v-.22c-1.43-.23-2.86-.45-4.29-.68-.08-.01-.18.02-.23-.03-.21-.18-.4-.37-.6-.56.22-.18.42-.46.65-.5a3.3,3.3,0,0,1,1.17.06c1.51.27,3.01.56,4.56.85-1.11-2.33-2.51-4.28-5.12-4.69-.18-.03-.35-.09-.52-.11-.5-.04-.97-.03-1.27.56a3.892,3.892,0,0,1-.6.8,1.613,1.613,0,0,0-.31,1.75c1.31,3.02,2.81,5.89,5.73,7.4a3.282,3.282,0,0,0,2.42.26,1.134,1.134,0,0,0,.91-1.04A5.208,5.208,0,0,0,54.72,60.45Z" fill="#fff"/><path d="M35.33,48.11c-.02.54-.06,1.08-.06,1.63,0,.3-.15.75.3.75.14,0,.36-.46.39-.73.08-.97.07-1.95.13-2.92s.19-1.94.25-2.91a2.977,2.977,0,0,0-.16-.82c-.18.25-.48.47-.51.74-.18,1.41-.28,2.84-.42,4.26A.109.109,0,0,1,35.33,48.11Z"/><path d="M39.25,43.62a3.655,3.655,0,0,0-.25.62q-.795,3.06-1.55,6.13c-.04.17.11.4.17.6.13-.15.34-.28.38-.45q.75-3.1,1.46-6.23a2.723,2.723,0,0,0,.01-.64Z"/><path d="M81.48,76.86a5.8,5.8,0,0,1,2.25-5.75,17.224,17.224,0,0,1,5.65-3.1,32.884,32.884,0,0,1,8.25-1.37,36.338,36.338,0,0,1,10.56.71,21.293,21.293,0,0,1,6.04,2.12,2.49,2.49,0,0,0,.96.19c.68.06,1.38.03,2.05.15a1.6,1.6,0,0,1,.89.56,5.513,5.513,0,0,1,1.39,3.42c0,1.3-.04,2.61-.14,3.91a12.646,12.646,0,0,1-1.44,4.66,5.434,5.434,0,0,1-2.18,2.3,4.237,4.237,0,0,1-4.67-.56.5.5,0,0,0-.44-.12c-2.75,1.09-5.53.78-8.31.12a.848.848,0,0,0-1.1.39,4.573,4.573,0,0,1-4.51,2.28c-1.36-.13-2.64-.51-3.17-1.92a5.087,5.087,0,0,1-.23-2.23,4.023,4.023,0,0,1,1.08-2.85,1,1,0,0,0-.45.22c-.8.71-1.63,1.39-2.37,2.15a3.866,3.866,0,0,1-1.99,1.24c-1.9.42-4.82-.88-5.21-3.1a7.625,7.625,0,0,0-.26-.92C82.62,79.37,81.8,78.39,81.48,76.86Zm4.19-1.14a20.621,20.621,0,0,1,1.9-2.07.683.683,0,0,1,.37-.22c.28-.03.72-.11.82.02.26.35-.15.51-.4.68a7.476,7.476,0,0,0-3.07,4.67,2.7,2.7,0,0,0,.62,2.19,3.425,3.425,0,0,0,3.7,1.05,3.478,3.478,0,0,0,.94-.71c.92-.81,1.81-1.67,2.76-2.45a3.84,3.84,0,0,1,2.56-.78,1,1,0,0,1,.78.34,1.039,1.039,0,0,1-.1.89,12.005,12.005,0,0,1-1.4,1.36,3.591,3.591,0,0,0-.53,3.87,1.732,1.732,0,0,0,.83.66,3.723,3.723,0,0,0,4.57-1.26c.27-.36.51-.75.77-1.12a.723.723,0,0,1,1.11-.28,1.345,1.345,0,0,0,.24.12c3.07.76,6.11,1.1,9.09-.42a5.744,5.744,0,0,0,2.44-2.83,12.729,12.729,0,0,0,1.46-5.81,6.394,6.394,0,0,0-.79-2.68,2.462,2.462,0,0,0-1.58-1.24,29.027,29.027,0,0,0-11.49-2.14,45.486,45.486,0,0,0-10,1.12,18.83,18.83,0,0,0-6.28,2.94,5.04,5.04,0,0,0-2.35,4.69,1.916,1.916,0,0,0,1.65,1.9A25.779,25.779,0,0,1,85.67,75.72Zm30.56-3.38a12.613,12.613,0,0,1,.01,3.13,16.11,16.11,0,0,1-2,5.66,6.722,6.722,0,0,1-1.86,2c-.13.09-.25.19-.39.29a3.321,3.321,0,0,0,4.52-1.05,9.389,9.389,0,0,0,1.48-4c.17-1.51.22-3.03.26-4.55a3.686,3.686,0,0,0-1.06-2.56c-.28-.3-.87-.32-1.31-.47-.03.06-.07.12-.1.17A6.543,6.543,0,0,1,116.23,72.34Z"/><path d="M82.65,76.33A5.031,5.031,0,0,1,85,71.64a18.83,18.83,0,0,1,6.28-2.94,45.554,45.554,0,0,1,10-1.12,29.027,29.027,0,0,1,11.49,2.14,2.462,2.462,0,0,1,1.58,1.24,6.588,6.588,0,0,1,.79,2.68,12.761,12.761,0,0,1-1.46,5.81,5.794,5.794,0,0,1-2.44,2.83c-2.98,1.51-6.02,1.18-9.09.42a1.077,1.077,0,0,1-.24-.12.718.718,0,0,0-1.11.28c-.26.37-.5.76-.77,1.12a3.716,3.716,0,0,1-4.57,1.26,1.779,1.779,0,0,1-.83-.66,3.55,3.55,0,0,1,.53-3.87,13.849,13.849,0,0,0,1.4-1.36.972.972,0,0,0,.1-.89,1.021,1.021,0,0,0-.78-.34,3.84,3.84,0,0,0-2.56.78c-.95.78-1.84,1.64-2.76,2.45a3.379,3.379,0,0,1-.94.71,3.418,3.418,0,0,1-3.7-1.05,2.662,2.662,0,0,1-.62-2.19,7.462,7.462,0,0,1,3.07-4.67c.24-.17.65-.32.4-.68-.1-.14-.54-.05-.82-.02a.683.683,0,0,0-.37.22,19.5,19.5,0,0,0-1.9,2.07,23.933,23.933,0,0,0-1.38,2.51A1.952,1.952,0,0,1,82.65,76.33Zm17.91-6.28a3.139,3.139,0,0,0-.31.32c.11.06.22.17.34.18.76.08,1.52.12,2.27.21a28.023,28.023,0,0,1,6.77,1.52.911.911,0,0,0,.31.09c.11-.01.27-.05.31-.13a.326.326,0,0,0-.1-.32,5.405,5.405,0,0,0-.86-.45,24.868,24.868,0,0,0-6.1-1.31c-.81-.09-1.62-.14-2.43-.21a.075.075,0,0,1-.01.05C100.7,70.02,100.61,70.01,100.56,70.05Zm0,3.59c.5.08,1.01.15,1.51.2a23.154,23.154,0,0,1,6.97,1.39c.14.06.36-.08.54-.12-.12-.16-.21-.42-.36-.46-1.48-.41-2.96-.86-4.47-1.13-1.35-.24-2.74-.29-4.12-.4a1.511,1.511,0,0,0-.52.17c.01.06.01.12.02.18A2.559,2.559,0,0,0,100.56,73.64Z" fill="#fff"/><path d="M115.77,70.96a5.633,5.633,0,0,1,.45,1.37,12.613,12.613,0,0,1,.01,3.13,16.11,16.11,0,0,1-2,5.66,6.722,6.722,0,0,1-1.86,2c-.13.09-.25.19-.39.29a3.321,3.321,0,0,0,4.52-1.05,9.389,9.389,0,0,0,1.48-4c.17-1.51.22-3.03.26-4.55a3.686,3.686,0,0,0-1.06-2.56c-.28-.3-.87-.32-1.31-.47A.768.768,0,0,1,115.77,70.96Z" fill="#fff"/><path d="M100.77,70c-.07.02-.16.01-.21.05a3.139,3.139,0,0,0-.31.32c.11.06.22.17.34.18.76.08,1.52.12,2.27.21a28.023,28.023,0,0,1,6.77,1.52.911.911,0,0,0,.31.09c.11-.01.27-.05.31-.13a.326.326,0,0,0-.1-.32,5.405,5.405,0,0,0-.86-.45,24.868,24.868,0,0,0-6.1-1.31c-.81-.09-1.62-.14-2.43-.21A.09.09,0,0,1,100.77,70Z"/><path d="M100.14,73.46a1.9,1.9,0,0,0,.42.18c.5.08,1.01.15,1.51.2a23.154,23.154,0,0,1,6.97,1.39c.14.06.36-.08.54-.12-.12-.16-.21-.42-.36-.46-1.48-.41-2.96-.86-4.47-1.13-1.35-.24-2.74-.29-4.12-.4a1.511,1.511,0,0,0-.52.17C100.12,73.34,100.13,73.4,100.14,73.46Z"/></g></svg>