<svg xmlns="http://www.w3.org/2000/svg" width="156.526" height="102.535" viewBox="0 0 156.526 102.535"><g transform="translate(-8.443 -8.654)"><path d="M40.91,54.57c3.5,2.44,7.46,4.12,11.32,5.93a5.415,5.415,0,0,1,2.11,1.46,1.855,1.855,0,0,1,0,2.37,2.507,2.507,0,0,1-1.41.55A26.238,26.238,0,0,1,32.94,59.9,26.244,26.244,0,0,1,22.88,41.77c-.17-1.82-.13-4.09,1.31-5.43.93-.87,1.99-.43,2.82.33,2.52,2.33,3.57,5.96,5.34,8.82a31.115,31.115,0,0,0,7.43,8.25C40.15,54.02,40.53,54.3,40.91,54.57Z"/><path d="M105.01,98.95c.97.47,1.96.91,2.9,1.43.9.5,1.74,1.08,2.61,1.62,1.03.64,2.04,1.29,3.09,1.88a.651.651,0,0,1,.37.93,8.1,8.1,0,0,1-2.76,3.88,12.707,12.707,0,0,1-4.26,2.31,3.784,3.784,0,0,1-3.52-.57,12.022,12.022,0,0,0-1.95-1.02,5.809,5.809,0,0,1-1.01-.56c-1.12-.9-2.21-1.82-3.31-2.74a18.349,18.349,0,0,1-3.71-4.29,56.312,56.312,0,0,1-4.24-7.01,56.562,56.562,0,0,1-2.27-5.74c-.85-2.62-1.55-5.29-2.24-7.95-.29-1.12-.41-2.28-.63-3.42a46.326,46.326,0,0,0-2.31-9.06,15.957,15.957,0,0,0-.97-1.94c-.13-.24-.51-.37-.58-.61a10.555,10.555,0,0,1-.48-2.2c-.03-.38.28-.77.36-1.17a15.071,15.071,0,0,1,3.45-7.43,29.17,29.17,0,0,1,10.86-7.53,33.961,33.961,0,0,1,7.75-2.34,26.435,26.435,0,0,1,6.41-.16,43.641,43.641,0,0,0,4.72.28,16.725,16.725,0,0,1,2.84.49,8.912,8.912,0,0,1,2.19.95c2.28.96,4.6,1.85,6.89,2.8a11.78,11.78,0,0,1,1.49.79q2.22,1.275,4.43,2.56c2.11,1.24,4.24,2.45,6.32,3.75,2.64,1.64,5.3,3.26,7.82,5.07,3.81,2.73,7.41,5.73,10.96,8.8a73.768,73.768,0,0,1,5.93,5.53,6.42,6.42,0,0,1,1.78,3.34c.23,1.33.71,2.62.85,3.96a38.327,38.327,0,0,1,.15,5.25,20.434,20.434,0,0,1-.56,3.37,1.136,1.136,0,0,1-1.24.94,2.982,2.982,0,0,1-1.92-.8c-.99-.93-2.01-1.84-3.04-2.75q-2.61-2.295-5.23-4.58c-1.02-.89-2.08-1.74-3.04-2.68-2.03-1.98-4-4.02-6.01-6.01a1.142,1.142,0,0,0-.74-.33c-1.02.05-2.05.13-3.06.27-.89.13-1.77.36-2.65.55a6.919,6.919,0,0,0-4.13,2.9c-.44.59-.89,1.19-1.3,1.8a25.5,25.5,0,0,0-1.63,2.5,14.836,14.836,0,0,1-7.28,6.79,6.885,6.885,0,0,1-3.22.72,10.945,10.945,0,0,0-2.72.33c-2.05.44-4.1.87-6.11,1.44a21.4,21.4,0,0,0-3.47,1.45,5.209,5.209,0,0,0-2.41,3.03,3.209,3.209,0,0,0-.07.94A1.938,1.938,0,0,0,105.01,98.95Zm37.38-24.13c-.1-.11-.19-.23-.3-.34-1.3-1.36-2.58-2.74-3.92-4.06-1.42-1.38-2.84-2.77-4.37-4.01-2.67-2.17-5.33-4.36-8.16-6.34a71.087,71.087,0,0,0-14.11-7.97,12.82,12.82,0,0,0-5.67-1.35c-.06,0-.13-.02-.19-.02-.88-.01-1.76-.08-2.64-.02a16.735,16.735,0,0,0-4.78,1.12,31.53,31.53,0,0,0-6.85,3.83,14.676,14.676,0,0,0-5.08,5.64c-.8,1.66-1.44,3.31-.8,5.22.65,1.95,1.14,3.96,1.77,5.92a51.891,51.891,0,0,0,3.96,8.68,58,58,0,0,0,5.42,8.5c1.74,2.2,3.74,4.21,5.62,6.3.39.43.8.84,1.21,1.25a3.131,3.131,0,0,0,.4.28,6.875,6.875,0,0,1,1.93-3.09,11.294,11.294,0,0,1,4.22-2.16c1.51-.49,3.07-.85,4.63-1.19,1.4-.31,2.81-.56,4.22-.78.66-.1,1.37.04,2.01-.1a12.866,12.866,0,0,0,6.44-3.61,22.047,22.047,0,0,0,3.42-4.84,27.122,27.122,0,0,1,1.65-2.73,6.954,6.954,0,0,1,3.55-2.86c1.21-.36,2.46-.63,3.7-.88C140.55,75.02,141.46,74.94,142.39,74.82Zm-29.67,29.92c-1.46-.8-2.93-1.59-4.39-2.41a21,21,0,0,1-4.95-3.9c-1.05-1.11-2.12-2.2-3.15-3.33-1.48-1.63-3.04-3.21-4.35-4.97a63.514,63.514,0,0,1-6.63-10.91c-.94-2.01-1.94-4-2.75-6.06a53.161,53.161,0,0,1-2.41-8.59.862.862,0,0,1-.04-.52c.2-.45.13-.97.28-1.39a15.113,15.113,0,0,1,2.3-4.39,21.2,21.2,0,0,1,5.66-4.76,24.4,24.4,0,0,1,9.4-3.86,9.96,9.96,0,0,1,4.21.02c.98.27,2,.37,3,.59a10.351,10.351,0,0,1,2,.54c2.45,1.08,4.92,2.1,7.29,3.34a72.89,72.89,0,0,1,8.86,5.69c1.14.84,2.35,1.59,3.45,2.48q3.225,2.625,6.34,5.37c1.52,1.34,2.99,2.74,4.43,4.17,3.04,3.02,6.02,6.09,9.06,9.1,1.14,1.13,2.4,2.15,3.62,3.2,1.59,1.38,3.21,2.73,4.8,4.12,1.16,1.01,2.3,2.05,3.47,3.06a5.208,5.208,0,0,0,.83.48c.16-.79.34-1.48.43-2.18a20.929,20.929,0,0,0-.09-6.07c-.26-1.71-.79-3.38-1.21-5.07a1,1,0,0,0-.23-.36,36.372,36.372,0,0,0-4.8-4.89c-3-2.52-6-5.02-9.05-7.49a69.336,69.336,0,0,0-8.8-6.2c-1.84-1.07-3.64-2.19-5.48-3.27-1.75-1.03-3.52-2.03-5.27-3.04a7.83,7.83,0,0,1-.79-.47,35.511,35.511,0,0,0-7.66-3.86c-1-.4-1.98-.86-2.96-1.3-.22-.1-.4-.32-.62-.36a16.447,16.447,0,0,0-3.25-.42,40.573,40.573,0,0,1-4.81-.26,26.036,26.036,0,0,0-6.83.26,32.367,32.367,0,0,0-7.06,2.29,28.159,28.159,0,0,0-9.74,6.73,13.765,13.765,0,0,0-3.52,8.18,7.677,7.677,0,0,0,.16,2.24,8.988,8.988,0,0,0,.69,1.48,56.736,56.736,0,0,1,2.98,10.69A78.536,78.536,0,0,0,88.9,90.91a38.78,38.78,0,0,0,4.69,8.57,27.78,27.78,0,0,0,3.19,4.35c.54.51,1.07,1.03,1.56,1.58a16.2,16.2,0,0,0,6.43,4.56,2.269,2.269,0,0,0,1.7-.04,16.622,16.622,0,0,0,1.98-.99C110.18,107.95,111.87,106.86,112.72,104.74Z"/><path d="M142.39,74.82c-.93.12-1.84.2-2.73.38-1.24.25-2.49.52-3.7.88a6.954,6.954,0,0,0-3.55,2.86,26.737,26.737,0,0,0-1.65,2.73,21.717,21.717,0,0,1-3.42,4.84,12.866,12.866,0,0,1-6.44,3.61c-.65.14-1.35,0-2.01.1-1.41.22-2.83.47-4.22.78-1.56.35-3.12.7-4.63,1.19a11.294,11.294,0,0,0-4.22,2.16,7.108,7.108,0,0,0-1.93,3.09,3.131,3.131,0,0,1-.4-.28c-.41-.41-.82-.82-1.21-1.25-1.89-2.09-3.88-4.09-5.62-6.3a57.471,57.471,0,0,1-5.42-8.5,52.259,52.259,0,0,1-3.96-8.68c-.63-1.96-1.12-3.97-1.77-5.92-.64-1.91,0-3.56.8-5.22a14.605,14.605,0,0,1,5.08-5.64,32.441,32.441,0,0,1,6.85-3.83,16.408,16.408,0,0,1,4.78-1.12c.88-.06,1.76.01,2.64.02.06,0,.13.02.19.02a12.686,12.686,0,0,1,5.67,1.35,71.369,71.369,0,0,1,14.11,7.97c2.83,1.98,5.49,4.17,8.16,6.34,1.53,1.24,2.96,2.63,4.37,4.01,1.35,1.31,2.62,2.7,3.92,4.06C142.2,74.59,142.29,74.71,142.39,74.82Z" fill="#7a0808"/><path d="M112.72,104.74c-.85,2.12-2.54,3.21-4.3,4.23a16.621,16.621,0,0,1-1.98.99,2.267,2.267,0,0,1-1.7.04,16.2,16.2,0,0,1-6.43-4.56c-.49-.55-1.02-1.07-1.56-1.58a27.78,27.78,0,0,1-3.19-4.35,38.6,38.6,0,0,1-4.69-8.57,77.51,77.51,0,0,1-3.76-12.47,56,56,0,0,0-2.98-10.69,8.988,8.988,0,0,1-.69-1.48,7.677,7.677,0,0,1-.16-2.24,13.765,13.765,0,0,1,3.52-8.18,28.159,28.159,0,0,1,9.74-6.73,32.914,32.914,0,0,1,7.06-2.29,26.052,26.052,0,0,1,6.83-.26,40.572,40.572,0,0,0,4.81.26,15.735,15.735,0,0,1,3.25.42c.22.04.4.26.62.36.98.44,1.96.9,2.96,1.3a35.283,35.283,0,0,1,7.66,3.86c.25.18.53.31.79.47,1.76,1.01,3.52,2.01,5.27,3.04,1.83,1.08,3.64,2.2,5.48,3.27a69.337,69.337,0,0,1,8.8,6.2c3.04,2.46,6.05,4.97,9.05,7.49a36.372,36.372,0,0,1,4.8,4.89,1,1,0,0,1,.23.36c.42,1.69.94,3.36,1.21,5.07a20.918,20.918,0,0,1,.09,6.07c-.1.7-.27,1.38-.43,2.18a4.8,4.8,0,0,1-.83-.48c-1.17-1.01-2.3-2.05-3.47-3.06-1.59-1.38-3.21-2.74-4.8-4.12-1.22-1.05-2.47-2.07-3.62-3.2-3.05-3.01-6.03-6.09-9.06-9.1-1.44-1.43-2.91-2.83-4.43-4.17q-3.12-2.745-6.34-5.37c-1.1-.89-2.31-1.65-3.45-2.48a71.7,71.7,0,0,0-8.86-5.69c-2.36-1.24-4.84-2.27-7.29-3.34a10.351,10.351,0,0,0-2-.54c-1-.21-2.02-.31-3-.59a9.961,9.961,0,0,0-4.21-.02,24.558,24.558,0,0,0-9.4,3.86A21.571,21.571,0,0,0,86.6,58.3a15.113,15.113,0,0,0-2.3,4.39c-.15.42-.08.94-.28,1.39a1.051,1.051,0,0,0,.04.52,52.876,52.876,0,0,0,2.41,8.59c.81,2.06,1.81,4.05,2.75,6.06a63.135,63.135,0,0,0,6.63,10.91c1.31,1.76,2.87,3.34,4.35,4.97,1.02,1.13,2.1,2.22,3.15,3.33a21,21,0,0,0,4.95,3.9C109.79,103.15,111.27,103.94,112.72,104.74Z" fill="#e83e2e"/><path d="M127.46,78.1c.54-.35,1.03-.72,1.56-1a5.7,5.7,0,0,1,4.12-.42,22.291,22.291,0,0,1,14.32,10.58,1,1,0,0,0,.16.24,4.935,4.935,0,0,1,1.64,3.33,12.039,12.039,0,0,1,.33,2.04,5.305,5.305,0,0,1-2.06,4.43,3.083,3.083,0,0,1-.48.32c-.15.08-.32.14-.56.24.59.39,1.13.77,1.68,1.12a7.679,7.679,0,0,1,3.19,3.27,12.217,12.217,0,0,1,.91,3.13c.22,1.6-.82,2.91-2.59,3.5a20.372,20.372,0,0,1-12.36.12,27.475,27.475,0,0,1-8.58-4.35,15.436,15.436,0,0,1-3.09-3.11.682.682,0,0,0-.54-.22,24.382,24.382,0,0,1-9.85-1.21,15.793,15.793,0,0,1-5.3-3.48,30.634,30.634,0,0,1-5.93-6.77c-.69-1.14-1.27-2.35-1.96-3.49-.46-.77-1.06-1.45-1.53-2.21a1.382,1.382,0,0,0-.85-.69,6.754,6.754,0,0,1-2.94-1.5,3.129,3.129,0,0,0-2.05-.83.79.79,0,0,1-.66-1.29,20.175,20.175,0,0,1,1.44-2.23c2.25-2.97,4.54-5.9,6.78-8.87.89-1.18,1.67-2.45,2.57-3.62a3.065,3.065,0,0,1,4.23-.64,14.384,14.384,0,0,1,1.46,1.11,7.828,7.828,0,0,1,2.19,2.78.766.766,0,0,0,.48.38,31.65,31.65,0,0,1,7.22,1.71c2.69,1.17,5.04,2.81,6.29,5.63C126.99,76.76,127.21,77.44,127.46,78.1Zm.86,6.29c-.04.24-.05.42-.09.59-.18.9-.34,1.8-.56,2.69-.04.17-.3.29-.47.44-.12-.2-.33-.39-.35-.6a2.811,2.811,0,0,1,.18-.84,11.885,11.885,0,0,0,.39-4.55,28.078,28.078,0,0,0-.94-3.93,8.588,8.588,0,0,0-3.86-5.13.77.77,0,0,0-.76-.08,8.481,8.481,0,0,0-5.07,5.31,16.566,16.566,0,0,0-.83,5.81,13.411,13.411,0,0,0,2.75,8.28,7.008,7.008,0,0,0,7.76,2.5,9.167,9.167,0,0,0,4.64-3.4.971.971,0,0,0,.19-1.17c-.55-1.14-.94-2.36-1.44-3.53A5.714,5.714,0,0,0,128.32,84.39Zm16.07,1.66a1.718,1.718,0,0,1-.2.13,7.921,7.921,0,0,0-5.32,2.92,7.323,7.323,0,0,0-1.47,2.8,1.756,1.756,0,0,0,.82,2.14,16.09,16.09,0,0,0,5.31,2.25,3.05,3.05,0,0,0,1.47.02,3.73,3.73,0,0,0,2.57-3.21,6.53,6.53,0,0,0-.69-4.07,23.394,23.394,0,0,0-5.8-7.21,18.73,18.73,0,0,0-8.76-4.34,4.621,4.621,0,0,0-4.24,1.36.632.632,0,0,0-.18.69,17.972,17.972,0,0,1,.43,2.71,2.555,2.555,0,0,0,.8,1.91,10.539,10.539,0,0,1,2.15,3.47c.27.62.51,1.25.77,1.88.11-.28.19-.53.3-.78a3.2,3.2,0,0,0,.27-.56,6.075,6.075,0,0,1,1.29-2.72,3.109,3.109,0,0,1,.68-.49c.05.04.1.09.15.13a2.267,2.267,0,0,1-.28.73c-.66.76-.14,1.42.1,2.17,1.33-2.39,1.36-2.44,2.02-2.33-.23.49-.47.96-.66,1.46a1,1,0,0,0,0,.57c.27.82.59,1.63.85,2.46a4.051,4.051,0,0,1,.07.86c-.06.02-.12.03-.18.05-.41-.89-.81-1.78-1.23-2.69a3.775,3.775,0,0,0,1.24,4.41,6.336,6.336,0,0,1,1.46-3.75,7.768,7.768,0,0,1,4.47-3.26A2.108,2.108,0,0,1,144.39,86.05Zm-28.81,2.51a12.452,12.452,0,0,1-12.18-1.6,24.011,24.011,0,0,0,1.15,2.2,29.876,29.876,0,0,0,5.57,6.51,15.461,15.461,0,0,0,5.23,3.48,22.154,22.154,0,0,0,8.69,1.24,13.807,13.807,0,0,0,5.02-1.1c1.09-.48,1.18-.62,1.13-1.8a9.453,9.453,0,0,0-.61-2.88c-.21.12-.37.21-.54.31a8.788,8.788,0,0,1-4.23,1.37,8.08,8.08,0,0,1-7.27-4A41.016,41.016,0,0,1,115.58,88.56ZM94.84,80.01c.03.06.06.12.09.19a11.049,11.049,0,0,0,1.81.1,22.036,22.036,0,0,0,13.63-6.7,9.082,9.082,0,0,0,2.1-3.38.558.558,0,0,0,.02-.4c-.22-.36-.52-.68-.72-1.05a10.257,10.257,0,0,0-3.43-3.47,2.228,2.228,0,0,0-2.55-.07,3.853,3.853,0,0,0-1.09,1c-.69.91-1.29,1.89-1.97,2.81-2.03,2.79-4.08,5.56-6.11,8.35C95.99,78.23,95.43,79.13,94.84,80.01Zm42.38,25.27c.13.91.93,1.51,1.37,2.32a1.427,1.427,0,0,0,1.2.69,19.718,19.718,0,0,0,7.54-.09c1.65-.32,2.47-1.03,2.68-2.54a5.889,5.889,0,0,0-.51-3.38,5.389,5.389,0,0,0-1.96-2.25c-.91-.62-1.71-1.41-2.56-2.11a1.114,1.114,0,0,0-.45-.22c-.69-.15-1.38-.31-2.08-.41a1.607,1.607,0,0,0-.9.09,8.549,8.549,0,0,0-4.05,4.43A4.813,4.813,0,0,0,137.22,105.28ZM113.76,70.03c.21.75.43,1.41.58,2.09a7.2,7.2,0,0,1-1.47,6.62,21.951,21.951,0,0,1-1.56,1.65,13.469,13.469,0,0,1-7.3,3.35c-.74.13-1.49.15-2.36.24a6.73,6.73,0,0,0,1.01,1.51c2.73,2.31,5.79,3.75,9.49,3.12,1.14-.19,2.25-.49,3.39-.75-.04-.31-.05-.5-.09-.69a17.962,17.962,0,0,1-.24-5.57,13.7,13.7,0,0,1,1.36-5.06,8.844,8.844,0,0,1,4.87-4.3C119.01,70.88,116.4,70.58,113.76,70.03ZM130.7,95.01c.58-.13.74-.06.82.37.13.65.07.75-.54.84.05.75.11,1.51.16,2.26.05.01.1.01.15.02.06-.14.11-.28.17-.42.38-.91.76-1.81,1.15-2.71a2.226,2.226,0,0,1,.32-.59c.1-.11.31-.13.48-.18a1.432,1.432,0,0,1,.01.46c-.35.85-.72,1.69-1.08,2.53-.06.15-.1.32-.16.51a1.887,1.887,0,0,0,1.65-1.16,3.547,3.547,0,0,1,.7-1.03c.11-.13.38-.11.58-.16a1.714,1.714,0,0,1-.03.56,9.6,9.6,0,0,1-.5.95l.1.1c.91-.33,1.82-.66,2.8-1.02a1.082,1.082,0,0,1-.71.95,1.2,1.2,0,0,0-.59.89c.56-.07,1.06-.39,1.72-.14a4.429,4.429,0,0,1-.49.35,7.643,7.643,0,0,1-1.26.6c-.64.19-.72.68-.85,1.27a10.365,10.365,0,0,1,1.27-.61,11.427,11.427,0,0,1,1.32-.27c.96-.86,1.96-1.77,2.99-2.69-3.37-1.05-5.6-3.62-7.84-6.26a8.442,8.442,0,0,1-2.08,3.05C130.31,94.1,130.31,94.1,130.7,95.01Zm7,12.83a7.334,7.334,0,0,0-.52-1.11,5.02,5.02,0,0,1-.54-4.74c.22-.63.54-1.23.8-1.82-.71.34-1.43.68-2.14,1.05a.679.679,0,0,0-.34.46c-.03.73.01,1.47.01,2.2,0,.13-.03.32-.11.37a.411.411,0,0,1-.39-.02,1.525,1.525,0,0,1-.37-.65c-.1-.59-.13-1.2-.19-1.79-.71.14-.8.31-.6,1.05.04.16.04.45-.06.51-.28.18-.52-.01-.61-.27a5.7,5.7,0,0,1-.27-1.29,10.356,10.356,0,0,1,.09-1.45,1.18,1.18,0,0,0-.22.02,5.012,5.012,0,0,0-.55.17c-.39.15-.46.52-.25.9a.657.657,0,0,1-.05.56.6.6,0,0,1-.46.25c-.12-.01-.29-.21-.32-.36a4.2,4.2,0,0,1-.02-.78c-.24-.09-.46-.18-.67-.26.16-.18.32-.37.48-.55.03-.03.09-.04.12-.08.18-.19.35-.38.52-.57-.05-.06-.09-.12-.14-.18a11.546,11.546,0,0,1-4.4,1.63A24.754,24.754,0,0,0,137.7,107.84ZM107.79,76.85c.8.67,1.49,1.34,2.27,1.88.95.66.99.61,1.78-.23,2.19-2.33,2.45-4.61,1.22-7.83A14.729,14.729,0,0,1,107.79,76.85Zm-.57.48c-1.49.79-3.03,1.6-4.66,2.47.72.59,1.42,1.17,2.13,1.75a1.548,1.548,0,0,0,1.78.29,7.928,7.928,0,0,1,.83-.25,10.669,10.669,0,0,0,3.06-1.75Zm-2.89,5.04c-.8-.75-1.61-1.52-2.44-2.27a.527.527,0,0,0-.43-.04c-.6.17-1.2.38-1.8.56-.62.18-1.25.35-1.91.54A8.256,8.256,0,0,0,104.33,82.37Zm29.39,4.96c-.71,1.67-.5,2.28.35,2.87C134.49,89.21,134.05,88.32,133.72,87.33Zm.71,12.38c-1.08.24-1.2.42-1.11,1.48C134.18,101.09,134.33,100.44,134.43,99.71Zm.74-1.73c-.61.18-1.3.16-1.35,1.07C134.39,98.84,135.01,98.79,135.17,97.98Zm-3.49,1.72c1.04-.21,1.12-.27,1.2-1.01C132.39,98.93,131.71,98.86,131.68,99.7Z"/><path d="M128.32,84.39a6.241,6.241,0,0,1,1.58,2.39c.49,1.17.89,2.38,1.44,3.53a.969.969,0,0,1-.19,1.17,9.31,9.31,0,0,1-4.64,3.4,7.008,7.008,0,0,1-7.76-2.5A13.309,13.309,0,0,1,116,84.1a16.37,16.37,0,0,1,.83-5.81,8.481,8.481,0,0,1,5.07-5.31.746.746,0,0,1,.76.08,8.665,8.665,0,0,1,3.86,5.13,26.743,26.743,0,0,1,.94,3.93,11.9,11.9,0,0,1-.39,4.55,2.878,2.878,0,0,0-.18.84c.01.21.22.4.35.6.16-.14.42-.26.47-.44.22-.89.38-1.79.56-2.69A2.644,2.644,0,0,1,128.32,84.39Z" fill="#f7931e"/><path d="M144.39,86.05a2.19,2.19,0,0,0-1.79-.31A7.876,7.876,0,0,0,138.13,89a6.361,6.361,0,0,0-1.46,3.75,3.757,3.757,0,0,1-1.24-4.41c.42.91.82,1.8,1.23,2.69.06-.02.12-.03.18-.05a3.489,3.489,0,0,0-.07-.86c-.26-.83-.58-1.63-.85-2.46a.857.857,0,0,1,0-.57c.19-.49.43-.96.66-1.46-.66-.11-.7-.06-2.02,2.33-.23-.75-.76-1.41-.1-2.17a2.36,2.36,0,0,0,.28-.73c-.05-.04-.1-.09-.15-.13a3.807,3.807,0,0,0-.68.49,6.125,6.125,0,0,0-1.29,2.72,3.2,3.2,0,0,1-.27.56c-.11.24-.19.5-.3.78-.26-.63-.5-1.26-.77-1.88a10.708,10.708,0,0,0-2.15-3.47,2.555,2.555,0,0,1-.8-1.91,17.972,17.972,0,0,0-.43-2.71.65.65,0,0,1,.18-.69,4.621,4.621,0,0,1,4.24-1.36,18.777,18.777,0,0,1,8.76,4.34,23.4,23.4,0,0,1,5.8,7.21,6.408,6.408,0,0,1,.69,4.07A3.742,3.742,0,0,1,145,96.29a2.822,2.822,0,0,1-1.47-.02,16.09,16.09,0,0,1-5.31-2.25,1.756,1.756,0,0,1-.82-2.14,7.323,7.323,0,0,1,1.47-2.8,7.9,7.9,0,0,1,5.32-2.92C144.23,86.17,144.26,86.13,144.39,86.05Zm-10.27-6.78c.17-.46-.06-.67-.43-.69a1.646,1.646,0,0,0-.88.15,2.128,2.128,0,0,0-1.16,1.98,3.6,3.6,0,0,0,1.9,3.3,2.744,2.744,0,0,0,1.53.24,1.982,1.982,0,0,0,1.66-1.5,2.319,2.319,0,0,0-.51-2.38A3.529,3.529,0,0,0,134.12,79.27Z" fill="#e83e2e"/><path d="M115.58,88.56c.66,1.27,1.2,2.57,1.95,3.73a8.08,8.08,0,0,0,7.27,4,8.788,8.788,0,0,0,4.23-1.37c.16-.1.33-.19.54-.31a9.33,9.33,0,0,1,.61,2.88c.05,1.18-.04,1.32-1.13,1.8a13.807,13.807,0,0,1-5.02,1.1,22.339,22.339,0,0,1-8.69-1.24,15.461,15.461,0,0,1-5.23-3.48,29.876,29.876,0,0,1-5.57-6.51,24.011,24.011,0,0,1-1.15-2.2A12.474,12.474,0,0,0,115.58,88.56Z" fill="#f7931e"/><path d="M94.84,80.01c.59-.88,1.15-1.78,1.78-2.63,2.03-2.79,4.08-5.56,6.11-8.35.67-.92,1.28-1.9,1.97-2.81a3.992,3.992,0,0,1,1.09-1,2.246,2.246,0,0,1,2.55.07,10.257,10.257,0,0,1,3.43,3.47c.2.37.5.69.72,1.05a.561.561,0,0,1-.02.4,9,9,0,0,1-2.1,3.38,21.609,21.609,0,0,1-7.92,5.31,21.2,21.2,0,0,1-5.71,1.39,11.05,11.05,0,0,1-1.81-.1Z" fill="#f7931e"/><path d="M137.22,105.28a4.918,4.918,0,0,1,.27-3.47,8.512,8.512,0,0,1,4.05-4.43,1.607,1.607,0,0,1,.9-.09c.7.1,1.39.26,2.08.41a1.114,1.114,0,0,1,.45.22c.86.71,1.65,1.5,2.56,2.11a5.389,5.389,0,0,1,1.96,2.25,5.889,5.889,0,0,1,.51,3.38c-.21,1.51-1.04,2.22-2.68,2.54a19.718,19.718,0,0,1-7.54.09,1.427,1.427,0,0,1-1.2-.69C138.15,106.79,137.35,106.19,137.22,105.28Z" fill="#fff"/><path d="M113.76,70.03c2.64.55,5.25.85,7.68,2.21a8.844,8.844,0,0,0-4.87,4.3,13.643,13.643,0,0,0-1.36,5.06,17.36,17.36,0,0,0,.24,5.57c.04.19.05.38.09.69-1.14.26-2.26.56-3.39.75-3.7.63-6.75-.82-9.49-3.12a6.73,6.73,0,0,1-1.01-1.51c.87-.08,1.62-.11,2.36-.24a13.47,13.47,0,0,0,7.3-3.35c.55-.52,1.06-1.08,1.56-1.65a7.2,7.2,0,0,0,1.47-6.62C114.2,71.44,113.98,70.78,113.76,70.03Z" fill="#e83e2e"/><path d="M130.7,95.01c-.39-.91-.38-.9.27-1.55a8.274,8.274,0,0,0,2.08-3.05c2.24,2.64,4.47,5.2,7.84,6.26-1.03.93-2.03,1.83-2.99,2.69a11.876,11.876,0,0,0-1.32.27,10.365,10.365,0,0,0-1.27.61c.13-.58.21-1.07.85-1.27a7.641,7.641,0,0,0,1.26-.6,4.875,4.875,0,0,0,.49-.35c-.67-.26-1.16.07-1.72.14a1.17,1.17,0,0,1,.59-.89c.3-.19.67-.34.71-.95-.98.36-1.89.69-2.8,1.02l-.1-.1a10.72,10.72,0,0,0,.5-.95,1.713,1.713,0,0,0,.03-.56c-.2.05-.47.04-.58.16a3.361,3.361,0,0,0-.7,1.03,1.9,1.9,0,0,1-1.65,1.16c.06-.19.1-.36.16-.51.36-.84.73-1.68,1.08-2.53a1.2,1.2,0,0,0-.01-.46c-.16.06-.37.07-.48.18a1.775,1.775,0,0,0-.32.59c-.39.9-.76,1.81-1.15,2.71-.06.14-.11.28-.17.42-.05-.01-.1-.01-.15-.02-.05-.75-.11-1.51-.16-2.26.61-.09.67-.18.54-.84C131.43,94.94,131.28,94.87,130.7,95.01Z" fill="#e83e2e"/><path d="M137.7,107.84a24.583,24.583,0,0,1-11.19-6.75,11.546,11.546,0,0,0,4.4-1.63c.05.06.09.12.14.18-.17.19-.35.38-.52.57-.03.03-.09.04-.12.08-.16.18-.32.37-.48.55.22.08.43.17.67.26a4.2,4.2,0,0,0,.02.78c.03.14.2.35.32.36a.584.584,0,0,0,.46-.25.657.657,0,0,0,.05-.56c-.21-.38-.14-.75.25-.9.18-.07.37-.12.55-.17a1.179,1.179,0,0,1,.22-.02c-.03.5-.11.98-.09,1.45a5.3,5.3,0,0,0,.27,1.29.4.4,0,0,0,.61.27c.09-.06.1-.35.06-.51-.2-.74-.11-.91.6-1.05.06.6.09,1.2.19,1.79a1.525,1.525,0,0,0,.37.65.411.411,0,0,0,.39.02.529.529,0,0,0,.11-.37c0-.73-.03-1.47-.01-2.2a.7.7,0,0,1,.34-.46c.71-.37,1.44-.71,2.14-1.05-.26.6-.58,1.19-.8,1.82a5.017,5.017,0,0,0,.54,4.74A8.559,8.559,0,0,1,137.7,107.84Z" fill="#e83e2e"/><path d="M107.79,76.85a14.97,14.97,0,0,0,5.28-6.18c1.23,3.22.97,5.51-1.22,7.83-.79.84-.83.88-1.78.23C109.28,78.19,108.59,77.52,107.79,76.85Z" fill="#1a1a1a"/><path d="M107.22,77.33l3.14,2.51a10.669,10.669,0,0,1-3.06,1.75,7.929,7.929,0,0,0-.83.25,1.564,1.564,0,0,1-1.78-.29c-.71-.57-1.41-1.16-2.13-1.75C104.19,78.93,105.73,78.12,107.22,77.33Z" fill="#fff"/><path d="M104.33,82.37a8.222,8.222,0,0,1-6.58-1.22c.66-.19,1.29-.35,1.91-.54.6-.18,1.2-.38,1.8-.56a.527.527,0,0,1,.43.04C102.72,80.85,103.54,81.62,104.33,82.37Z" fill="#1a1a1a"/><path d="M133.72,87.33c.33,1,.77,1.88.35,2.87C133.22,89.61,133.01,89,133.72,87.33Z" fill="#e83e2e"/><path d="M134.43,99.71c-.1.73-.25,1.38-1.11,1.48C133.22,100.13,133.35,99.95,134.43,99.71Z" fill="#e83e2e"/><path d="M135.17,97.98c-.16.8-.78.86-1.35,1.07C133.87,98.15,134.56,98.16,135.17,97.98Z" fill="#e83e2e"/><path d="M131.68,99.7c.03-.84.71-.77,1.2-1.01C132.8,99.43,132.73,99.49,131.68,99.7Z" fill="#e83e2e"/><path d="M134.12,79.27a3.6,3.6,0,0,1,2.11,1.09,2.341,2.341,0,0,1,.51,2.38,1.958,1.958,0,0,1-1.66,1.5,2.744,2.744,0,0,1-1.53-.24,3.6,3.6,0,0,1-1.9-3.3,2.146,2.146,0,0,1,1.16-1.98,1.747,1.747,0,0,1,.88-.15C134.06,78.6,134.29,78.81,134.12,79.27Zm1.9,2.31.1-.1a4.8,4.8,0,0,0-1.01-.96,14.759,14.759,0,0,0-1.91-.64c-.35-.12-.54.02-.6.32a2.765,2.765,0,0,0-.07.99,3.11,3.11,0,0,0,1.27,1.98,1.381,1.381,0,0,0,1.67.03A1.462,1.462,0,0,0,136.02,81.58Z"/><path d="M136.02,81.58a1.452,1.452,0,0,1-.56,1.62,1.381,1.381,0,0,1-1.67-.03,3.072,3.072,0,0,1-1.27-1.98,2.765,2.765,0,0,1,.07-.99c.06-.31.25-.45.6-.32a15.856,15.856,0,0,1,1.91.64,4.568,4.568,0,0,1,1.01.96C136.08,81.51,136.05,81.55,136.02,81.58Z" fill="#fff"/><path d="M137.5,91.15a2.192,2.192,0,0,0-.14,1.97,2.324,2.324,0,0,0,.44.5,10.556,10.556,0,0,0,1.42,1.07,14.192,14.192,0,0,0,1.73.9,7.926,7.926,0,0,0,3.03.83,3.382,3.382,0,0,0,2.79-1.22,4.118,4.118,0,0,0,.66-1.85,9.038,9.038,0,0,0-.26-3.68,8.886,8.886,0,0,0-.68-1.73,8.372,8.372,0,0,0-1.02-1.56c-.12-.15-.31-.48-.54-.45a1.064,1.064,0,0,0-.25.09,1.525,1.525,0,0,1-.37.08,8.355,8.355,0,0,0-1.64.4,8.792,8.792,0,0,0-1.53.7,9.508,9.508,0,0,0-1.38.97,8.841,8.841,0,0,0-1.17,1.2,9.13,9.13,0,0,0-.92,1.4C137.61,90.89,137.55,91.02,137.5,91.15Z" fill="#fff"/><path d="M120.37,48.04c-1.77.6-2.25,1.67-.16,2.27,2.57.6,1.45,2.63-.48,3.1-1.77.48-1.77,2.15-.8,2.87,2.09,1.19.64,3.1-1.13,3.34-2.73.36-2.25,1.79-1.61,2.99,1.29,1.91.48,3.22-1.45,3.22-2.73,0-2.57,1.79-2.09,2.63a2.392,2.392,0,0,1-3.05,3.22c-1.45-.48-3.06,1.31-2.41,2.27,1.77,2.75-1.45,2.87-2.9,2.27-4.18-1.55-3.38.96-3.05,1.79.16.48-1.29,3.46-3.22,1.43-2.25-2.27-3.86,1.07-3.7,1.07,1.45.12-2.57,3.22-3.7,1.55a2.246,2.246,0,0,0-4.02.72c-.48,2.03-3.21,2.39-4.66.72-2.73-2.98-2.09,1.43-4.66,1.31-1.77,1.31-1.29-4.65-4.82-1.31-1.61,1.55-4.02,1.31-4.66-.72a2.12,2.12,0,0,0-3.86-.72c-1.28,1.67-5.3-1.43-3.7-1.55,0,0-1.61-3.34-3.86-1.07C54.45,81.46,53,78.48,53.16,78c.32-.84,1.13-3.34-3.06-1.79-1.45.6-4.66.48-2.89-2.27.64-.96-.96-2.75-2.41-2.27a2.288,2.288,0,0,1-2.89-3.22c.32-.84.48-2.63-2.09-2.63-2.09,0-2.89-1.31-1.61-3.22.64-1.19,1.29-2.63-1.45-2.99-1.93-.24-3.38-2.15-1.29-3.34,1.13-.72,1.13-2.39-.8-2.87s-3.06-2.98-.48-3.1c1.77-.12,2.09-1.43,0-2.39-1.93-.95-1.93-2.15-.16-2.39,1.13-.24,1.61-1.67.16-2.15-2.41-.72-1.45-2.63.48-3.11s1.93-2.15.8-2.86c-2.09-1.19-.64-3.1,1.29-3.34,2.73-.36,2.09-1.79,1.45-2.98-1.29-2.03-.48-3.22,1.61-3.22,2.57,0,2.41-1.79,2.09-2.75a2.228,2.228,0,0,1,2.89-3.1c1.45.36,3.06-1.31,2.41-2.27-1.77-2.87,1.45-2.99,2.89-2.39,4.18,1.67,3.38-1.07,3.06-1.79-.16-.48,1.28-3.46,3.22-1.43,2.25,2.27,3.86-1.07,3.86-1.19-1.61-.84,2.41-3.82,3.7-1.55.8,1.67,4.34,1.31,3.86-.72-.48-1.91,3.21-2.51,4.02-.72.32.84,2.57,2.75,3.22.24.8-2.86,2.57-1.07,3.38.12,1.13,1.43,3.38.72,3.54-.36.16-1.91,4.18-1.19,4.66.72a2.217,2.217,0,0,0,4.02.72c1.13-1.55,5.14,1.55,3.7,1.55-.16,0,1.45,3.46,3.7,1.19,1.93-2.03,3.38.96,3.22,1.43-.32.72-1.13,3.46,3.05,1.79,1.45-.6,4.66-.48,2.9,2.39-.65.95.96,2.63,2.41,2.27a2.327,2.327,0,0,1,3.05,3.1c-.48.96-.64,2.75,2.09,2.75,1.93,0,2.73,1.19,1.45,3.22-.64,1.19-1.13,2.63,1.61,2.98,1.77.24,3.21,2.15,1.13,3.34-.97.72-.97,2.39.8,2.86,1.93.48,2.73,2.15.48,3.11-2.41,1.07-1.45,1.79,0,2.15C123.42,46.61,122.62,47.44,120.37,48.04Z" fill="#e58a2d" fill-rule="evenodd"/><path d="M119.89,48.04c-1.61.6-2.09,1.67,0,2.15,2.41.6,1.45,2.75-.48,3.22-1.93.36-1.93,2.03-.8,2.75,1.93,1.19.64,3.1-1.13,3.34-2.73.36-2.25,1.79-1.61,2.98,1.29,1.91.48,3.22-1.45,3.22-2.73,0-2.57,1.79-2.09,2.63a2.351,2.351,0,0,1-3.05,3.11c-1.29-.36-2.89,1.31-2.41,2.27,1.77,2.75-1.29,2.87-2.89,2.39-4.02-1.67-3.22.84-2.89,1.55.16.6-1.29,3.58-3.22,1.55-2.25-2.39-3.86,1.07-3.7,1.07,1.45.12-2.57,3.11-3.7,1.55a2.1,2.1,0,0,0-3.86.72,2.749,2.749,0,0,1-4.66.71c-2.73-2.98-2.09,1.43-4.66,1.31-1.77,1.19-1.29-4.65-4.66-1.31-1.61,1.43-4.18,1.19-4.66-.71a2.217,2.217,0,0,0-4.02-.72c-1.13,1.55-5.14-1.43-3.7-1.55.16,0-1.45-3.46-3.7-1.07-1.93,2.03-3.38-.96-3.22-1.55.32-.72,1.13-3.22-2.89-1.55-1.45.48-4.66.36-2.89-2.39.48-.96-1.13-2.63-2.41-2.27a2.245,2.245,0,0,1-2.89-3.11c.32-.84.48-2.63-2.09-2.63-2.09,0-2.73-1.31-1.61-3.22.64-1.19,1.29-2.63-1.45-2.98-1.93-.24-3.22-2.15-1.29-3.34a1.458,1.458,0,0,0-.64-2.75c-2.09-.48-3.22-2.98-.64-3.22,1.77-.12,2.09-1.43,0-2.27-1.93-.95-1.93-2.15-.16-2.39,1.29-.24,1.61-1.67.16-2.15-2.25-.72-1.45-2.63.64-3.11,1.77-.48,1.77-2.03.64-2.74-1.93-1.31-.64-3.1,1.29-3.34,2.73-.36,2.09-1.79,1.45-2.98-1.13-1.91-.48-3.22,1.61-3.22,2.57,0,2.41-1.79,2.09-2.63a2.3,2.3,0,0,1,2.89-3.22c1.29.48,2.89-1.31,2.41-2.15-1.77-2.86,1.45-2.98,2.89-2.39,4.02,1.67,3.22-.96,2.89-1.79-.16-.48,1.29-3.46,3.22-1.43,2.25,2.27,3.86-1.08,3.7-1.08-1.45-.96,2.57-3.94,3.7-1.55.8,1.67,4.5,1.31,4.02-.72-.48-1.91,3.21-2.63,3.86-.72.32.84,2.57,2.63,3.22.24.8-2.86,2.57-1.19,3.38,0,1.13,1.43,3.38.84,3.54-.24.16-1.91,4.02-1.19,4.66.72a2.1,2.1,0,0,0,3.86.72c1.13-1.55,5.14,1.43,3.7,1.55-.16,0,1.45,3.34,3.7,1.08,1.93-2.03,3.38.95,3.22,1.43-.32.84-1.13,3.46,2.89,1.79,1.61-.6,4.66-.48,2.89,2.39-.48.84,1.13,2.63,2.41,2.15a2.409,2.409,0,0,1,3.05,3.22c-.48.84-.64,2.63,2.09,2.63,1.93,0,2.73,1.31,1.45,3.22-.64,1.19-1.13,2.63,1.61,2.98,1.77.24,3.06,2.03,1.13,3.34-1.13.72-1.13,2.27.8,2.74s2.73,2.27.48,3.11c-2.41,1.07-1.45,1.79-.16,2.15C123.1,46.61,122.14,47.44,119.89,48.04Z" fill="#e58b2d" fill-rule="evenodd"/><path d="M119.56,48.04c-1.61.6-2.25,1.67,0,2.15,2.41.6,1.45,2.63-.64,3.1-1.77.48-1.77,2.03-.65,2.74,1.93,1.31.65,3.11-1.28,3.34-2.57.36-2.09,1.79-1.45,2.98,1.28,1.91.48,3.1-1.45,3.1-2.73,0-2.41,1.79-2.09,2.63a2.33,2.33,0,0,1-2.89,3.22c-1.45-.48-3.05,1.31-2.41,2.15,1.61,2.63-1.45,2.86-2.89,2.39-4.02-1.67-3.22.84-2.89,1.55.16.48-1.29,3.46-3.21,1.43-2.25-2.27-3.86,1.08-3.7,1.08,1.45.12-2.57,3.1-3.7,1.55a2.156,2.156,0,0,0-3.86.72c-.48,1.91-3.21,2.27-4.66.72-2.57-2.98-1.93,1.43-4.5,1.31-1.77,1.19-1.29-4.66-4.66-1.31-1.61,1.43-4.02,1.19-4.66-.72a2.148,2.148,0,0,0-3.86-.72c-1.13,1.55-5.14-1.43-3.7-1.55.16,0-1.45-3.34-3.7-1.08-1.77,2.03-3.22-.96-3.06-1.43.32-.72.96-3.22-3.06-1.55-1.45.48-4.5.24-2.73-2.39.48-.84-1.13-2.63-2.41-2.15a2.416,2.416,0,0,1-3.06-3.22c.48-.84.64-2.63-1.93-2.63-1.93,0-2.73-1.19-1.61-3.1.64-1.19,1.29-2.63-1.45-2.98-1.93-.24-3.22-2.03-1.29-3.34,1.13-.72,1.13-2.27-.64-2.74-1.93-.48-3.05-2.86-.48-3.1,1.61-.12,2.09-1.43,0-2.27-1.93-.95-1.93-2.15-.16-2.39a1.024,1.024,0,0,0,.16-2.03c-2.41-.84-1.45-2.74.48-3.1,1.77-.48,1.77-2.15.64-2.75-1.93-1.31-.64-3.22,1.29-3.34,2.73-.36,2.09-1.79,1.45-2.98-1.13-1.91-.32-3.1,1.61-3.1,2.57,0,2.41-1.91,1.93-2.63a2.414,2.414,0,0,1,3.06-3.22c1.29.48,2.89-1.31,2.41-2.15-1.77-2.86,1.29-2.98,2.73-2.39,4.02,1.67,3.38-.96,3.06-1.67-.16-.48,1.29-3.46,3.06-1.43,2.25,2.27,3.86-1.08,3.7-1.19-1.45-.84,2.57-3.82,3.7-1.55.8,1.67,4.34,1.31,3.86-.72-.48-1.79,3.21-2.51,4.02-.6.32.72,2.41,2.51,3.06.24.8-2.87,2.57-1.19,3.38,0,1.13,1.43,3.38.84,3.38-.24.32-1.91,4.18-1.31,4.66.6a2.1,2.1,0,0,0,3.86.72c1.13-1.43,5.15,1.43,3.7,1.55-.16,0,1.45,3.46,3.7,1.19,1.93-2.03,3.38.95,3.21,1.43-.32.72-1.13,3.34,2.89,1.67,1.45-.6,4.5-.48,2.89,2.39-.64.84.96,2.63,2.41,2.15a2.328,2.328,0,0,1,2.89,3.22c-.32.72-.64,2.63,2.09,2.63,1.93,0,2.73,1.19,1.45,3.1-.65,1.19-1.13,2.63,1.45,2.98,1.93.12,3.22,2.03,1.28,3.34-1.13.6-1.13,2.27.65,2.75,2.09.36,2.73,2.15.64,3.1-2.41.96-1.45,1.67-.16,2.03C122.62,46.61,121.81,47.44,119.56,48.04Z" fill="#e78e2c" fill-rule="evenodd"/><path d="M119.24,48.04c-1.61.48-2.25,1.67-.16,2.15,2.41.6,1.45,2.63-.48,3.1-1.77.36-1.77,2.03-.64,2.74,1.93,1.19.64,2.99-1.28,3.22-2.57.36-2.09,1.79-1.45,2.86,1.13,2.03.48,3.22-1.45,3.22-2.73,0-2.41,1.79-2.09,2.63a2.285,2.285,0,0,1-2.9,3.1c-1.28-.48-2.89,1.31-2.41,2.15,1.77,2.75-1.29,2.86-2.73,2.39-4.02-1.67-3.38.84-3.06,1.55.16.48-1.28,3.46-3.05,1.43-2.25-2.27-3.86,1.07-3.7,1.07,1.45.12-2.57,3.1-3.7,1.55a1.989,1.989,0,0,0-3.7.72,2.754,2.754,0,0,1-4.66.72c-2.57-2.98-1.93,1.31-4.5,1.19-1.77,1.19-1.13-4.54-4.66-1.19-1.61,1.43-4.02,1.19-4.5-.72a2.1,2.1,0,0,0-3.86-.72c-1.13,1.55-5.14-1.43-3.7-1.55.16,0-1.45-3.34-3.7-1.07-1.77,2.03-3.21-.96-3.05-1.43.32-.72,1.13-3.22-2.89-1.55-1.45.48-4.5.36-2.89-2.39.64-.84-.96-2.63-2.41-2.15a2.28,2.28,0,0,1-2.89-3.1c.48-.84.64-2.63-1.93-2.63-1.93,0-2.73-1.19-1.61-3.22.8-1.07,1.29-2.51-1.45-2.86-1.77-.24-3.06-2.03-1.29-3.22a1.451,1.451,0,0,0-.64-2.74c-1.93-.48-3.05-2.98-.48-3.1,1.77-.12,2.09-1.43,0-2.27-1.93-.95-1.93-2.15-.16-2.39,1.13-.12,1.61-1.55.16-2.03-2.41-.72-1.45-2.63.48-3.1,1.77-.48,1.77-2.03.64-2.75-1.77-1.19-.48-3.1,1.29-3.22,2.73-.36,2.25-1.79,1.45-2.99-1.13-1.91-.32-3.1,1.61-3.1,2.57,0,2.41-1.79,1.93-2.63a2.265,2.265,0,0,1,2.89-3.1c1.45.48,3.06-1.31,2.41-2.15-1.61-2.87,1.45-2.99,2.89-2.39,4.02,1.67,3.22-.95,2.89-1.67-.16-.48,1.29-3.46,3.05-1.43,2.25,2.27,3.86-1.07,3.7-1.07-1.45-.95,2.57-3.82,3.7-1.55.8,1.55,4.34,1.31,3.86-.72-.48-1.91,3.05-2.51,3.86-.72.32.84,2.41,2.63,3.06.24.8-2.86,2.57-1.07,3.38,0,1.13,1.43,3.38.84,3.38-.24.16-1.79,4.02-1.19,4.66.72a1.989,1.989,0,0,0,3.7.72c1.13-1.55,5.15,1.43,3.7,1.55-.16,0,1.45,3.34,3.7,1.07,1.77-2.03,3.21.96,3.05,1.43-.32.72-.96,3.34,3.06,1.67,1.45-.6,4.5-.48,2.73,2.39-.48.84,1.13,2.63,2.41,2.15a2.27,2.27,0,0,1,2.9,3.1c-.32.84-.64,2.63,2.09,2.63,1.93,0,2.57,1.19,1.45,3.1-.64,1.19-1.13,2.63,1.45,2.99,1.93.12,3.21,2.03,1.28,3.22-1.13.72-1.13,2.27.64,2.75,1.93.48,2.73,2.15.48,3.1s-1.29,1.67,0,2.15C122.3,46.61,121.33,47.44,119.24,48.04Z" fill="#e7912c" fill-rule="evenodd"/><path d="M118.76,48.04c-1.61.48-2.09,1.55,0,2.15,2.41.48,1.45,2.51-.48,2.98-1.77.48-1.77,2.03-.64,2.75,1.77,1.19.48,3.1-1.29,3.22-2.57.36-2.09,1.67-1.45,2.86,1.13,1.91.48,3.1-1.45,3.1-2.73,0-2.41,1.79-2.09,2.63a2.265,2.265,0,0,1-2.89,3.1c-1.28-.48-2.89,1.31-2.41,2.15,1.77,2.75-1.29,2.87-2.73,2.39-4.02-1.67-3.21.84-2.89,1.55.16.48-1.29,3.34-3.06,1.43-2.09-2.27-3.86,1.07-3.7,1.07,1.45,0-2.41,2.98-3.54,1.43a2.156,2.156,0,0,0-3.86.72c-.48,1.91-3.06,2.27-4.5.72-2.57-2.99-1.93,1.31-4.5,1.19-1.77,1.31-1.13-4.42-4.66-1.19-1.45,1.43-3.86,1.19-4.5-.72a2.036,2.036,0,0,0-3.7-.72c-1.13,1.55-5.15-1.43-3.7-1.43.16,0-1.45-3.34-3.54-1.07-1.93,1.91-3.38-.96-3.21-1.43.32-.72,1.13-3.22-2.89-1.55-1.45.48-4.5.36-2.73-2.39.48-.84-1.13-2.63-2.41-2.15a2.263,2.263,0,0,1-2.89-3.1c.32-.84.64-2.63-1.93-2.63-1.93,0-2.73-1.19-1.61-3.1.8-1.19,1.29-2.51-1.45-2.86-1.77-.12-3.06-2.03-1.13-3.22.96-.72.96-2.27-.8-2.75-1.93-.48-2.89-2.86-.48-2.98,1.77-.12,2.09-1.43,0-2.39-1.93-.84-1.93-2.03-.16-2.27,1.13-.12,1.61-1.55.16-2.03-2.25-.72-1.45-2.63.48-3.1,1.77-.36,1.77-1.91.8-2.63-1.93-1.19-.64-3.1,1.13-3.34,2.73-.24,2.25-1.67,1.45-2.87-1.13-1.91-.32-3.1,1.61-3.1,2.57,0,2.25-1.79,1.93-2.51a2.265,2.265,0,0,1,2.89-3.1c1.29.36,2.89-1.31,2.41-2.15-1.77-2.74,1.29-2.98,2.73-2.39,4.02,1.67,3.22-.95,2.89-1.67-.16-.48,1.29-3.34,3.21-1.43,2.09,2.27,3.7-.96,3.54-1.08-1.45-.84,2.57-3.82,3.7-1.55.64,1.67,4.18,1.31,3.7-.6s3.21-2.51,3.86-.72c.32.84,2.57,2.51,3.06.24.8-2.87,2.57-1.19,3.38,0,1.13,1.43,3.21.84,3.38-.24.16-1.91,4.02-1.19,4.5.72a2.111,2.111,0,0,0,3.86.6c1.13-1.43,4.99,1.43,3.54,1.55-.16,0,1.61,3.34,3.7,1.08,1.77-1.91,3.21.95,3.06,1.43-.32.72-1.13,3.34,2.89,1.67,1.45-.6,4.5-.36,2.73,2.39-.48.84,1.13,2.51,2.41,2.15a2.263,2.263,0,0,1,2.89,3.1c-.32.72-.64,2.51,2.09,2.51,1.93,0,2.57,1.19,1.45,3.1-.64,1.19-1.13,2.63,1.45,2.87,1.77.24,3.06,2.15,1.29,3.34-1.13.72-1.13,2.27.64,2.63,1.93.48,2.73,2.15.48,3.1s-1.45,1.67,0,2.15C121.81,46.61,121.01,47.44,118.76,48.04Z" fill="#e7912c" fill-rule="evenodd"/><path d="M118.44,48.04c-1.61.48-2.09,1.55,0,2.03,2.41.6,1.45,2.63-.48,3.1-1.77.36-1.77,1.91-.8,2.63,1.93,1.19.65,3.1-1.13,3.22-2.57.36-2.09,1.67-1.45,2.87,1.13,1.91.32,3.1-1.45,3.1-2.57,0-2.41,1.79-2.09,2.63a2.225,2.225,0,0,1-2.89,2.99c-1.29-.36-2.73,1.31-2.25,2.15,1.61,2.75-1.29,2.87-2.73,2.39-4.02-1.67-3.21.84-2.89,1.55.16.36-1.28,3.34-3.06,1.31-2.09-2.03-3.86,1.07-3.7,1.07,1.45.12-2.41,2.98-3.54,1.55a1.984,1.984,0,0,0-3.7.72,2.659,2.659,0,0,1-4.5.6c-2.57-2.86-1.93,1.43-4.5,1.31-1.61,1.19-1.13-4.53-4.5-1.31-1.61,1.43-4.02,1.19-4.5-.6a2.1,2.1,0,0,0-3.86-.72c-1.13,1.43-4.99-1.43-3.54-1.55.16,0-1.45-3.1-3.54-1.07-1.93,2.03-3.38-.96-3.06-1.31.16-.72.97-3.22-2.89-1.55-1.45.48-4.5.36-2.89-2.39.64-.84-.96-2.51-2.25-2.15a2.221,2.221,0,0,1-2.89-2.99c.32-.84.64-2.63-1.93-2.63-1.93,0-2.73-1.19-1.61-3.1.8-1.19,1.29-2.51-1.45-2.87-1.77-.12-3.06-2.03-1.13-3.22,1.13-.72,1.13-2.27-.64-2.63-1.93-.48-3.06-2.86-.48-3.1,1.61-.12,1.93-1.31,0-2.27-1.93-.84-1.93-2.03-.16-2.27a1.024,1.024,0,0,0,.16-2.03c-2.41-.72-1.45-2.51.48-2.98,1.77-.48,1.77-2.03.64-2.63-1.93-1.19-.64-3.1,1.13-3.34,2.73-.24,2.25-1.67,1.45-2.75-1.13-1.91-.32-3.1,1.61-3.1,2.57,0,2.25-1.79,1.93-2.63a2.3,2.3,0,0,1,2.89-3.1c1.29.48,2.89-1.19,2.25-2.03-1.61-2.74,1.45-2.86,2.89-2.39,3.86,1.67,3.05-.96,2.89-1.67-.32-.48,1.13-3.34,3.06-1.31,2.09,2.15,3.7-1.07,3.54-1.07-1.45-.95,2.41-3.82,3.54-1.55.8,1.55,4.34,1.19,3.86-.72-.48-1.79,3.06-2.51,3.86-.6.32.72,2.41,2.51,3.06.24.64-2.87,2.41-1.19,3.21,0,.96,1.31,3.21.72,3.38-.24.16-1.91,3.86-1.19,4.5.6a2.03,2.03,0,0,0,3.7.72c1.13-1.55,4.99,1.43,3.54,1.55-.16,0,1.61,3.22,3.7,1.07,1.77-2.03,3.22.84,3.06,1.31-.32.72-1.13,3.34,2.89,1.67,1.45-.48,4.34-.36,2.73,2.39-.48.84.96,2.51,2.25,2.03a2.3,2.3,0,0,1,2.89,3.1c-.32.84-.48,2.63,2.09,2.63,1.77,0,2.57,1.19,1.45,3.1-.64,1.07-1.13,2.51,1.45,2.75,1.77.24,3.06,2.15,1.13,3.34-.96.6-.96,2.15.8,2.63,1.93.48,2.57,2.15.48,2.98-2.25,1.08-1.45,1.79-.16,2.15C121.49,46.61,120.69,47.33,118.44,48.04Z" fill="#e9952b" fill-rule="evenodd"/><path d="M118.12,48.04c-1.61.48-2.09,1.55,0,2.03,2.25.6,1.29,2.63-.64,2.99a1.506,1.506,0,0,0-.64,2.74c1.93,1.19.64,2.98-1.13,3.1-2.57.36-2.09,1.67-1.45,2.87,1.13,1.91.32,3.1-1.45,3.1-2.57,0-2.41,1.67-2.09,2.51a2.248,2.248,0,0,1-2.73,3.1c-1.29-.48-2.89,1.19-2.41,2.03,1.77,2.75-1.29,2.86-2.73,2.27-3.86-1.55-3.06.96-2.73,1.55.16.48-1.29,3.34-3.06,1.43-2.09-2.03-3.7,1.07-3.7,1.07,1.45.12-2.41,2.98-3.54,1.43a2.042,2.042,0,0,0-3.7.72c-.48,1.91-3.06,2.15-4.34.72-2.57-2.86-1.93,1.31-4.5,1.19-1.61,1.19-1.13-4.42-4.5-1.19-1.61,1.43-3.86,1.19-4.5-.72a2.03,2.03,0,0,0-3.7-.72c-1.13,1.55-4.99-1.31-3.54-1.43.16,0-1.45-3.1-3.54-1.07-1.93,1.91-3.22-.95-3.06-1.43.32-.6.97-3.1-2.89-1.55-1.45.6-4.34.48-2.73-2.27.48-.84-.96-2.51-2.25-2.03a2.3,2.3,0,0,1-2.89-3.1c.32-.84.64-2.51-1.93-2.51-1.93,0-2.73-1.19-1.61-3.1.8-1.19,1.29-2.51-1.29-2.87-1.93-.12-3.06-1.91-1.29-3.1,1.13-.72,1.13-2.27-.64-2.74-1.93-.36-2.89-2.75-.48-2.99,1.61-.12,1.93-1.31,0-2.27-1.93-.84-1.93-2.03-.16-2.27a.96.96,0,0,0,.16-1.91c-2.25-.72-1.45-2.63.48-3.1,1.77-.36,1.77-1.91.64-2.63-1.77-1.19-.64-2.98,1.29-3.22,2.57-.24,2.09-1.67,1.29-2.75-1.13-1.91-.32-3.1,1.61-3.1,2.57,0,2.25-1.79,1.93-2.51a2.265,2.265,0,0,1,2.89-3.1c1.29.48,2.73-1.19,2.25-2.03-1.61-2.75,1.29-2.87,2.73-2.39,3.86,1.67,3.21-.96,2.89-1.67-.16-.36,1.13-3.22,3.06-1.31,2.09,2.15,3.7-.95,3.54-1.07-1.45-.84,2.41-3.7,3.54-1.43.8,1.55,4.18,1.19,3.7-.72-.48-1.79,3.06-2.51,3.86-.72.32.84,2.41,2.51,3.06.24.64-2.75,2.41-1.07,3.21,0,.96,1.43,3.21.84,3.38-.24.16-1.79,3.86-1.19,4.34.72a2.042,2.042,0,0,0,3.7.72c1.13-1.55,4.98,1.31,3.54,1.43,0,0,1.61,3.22,3.7,1.07,1.77-1.91,3.22.96,3.06,1.31-.32.72-1.13,3.34,2.73,1.67,1.45-.48,4.5-.36,2.73,2.39-.48.84,1.13,2.51,2.41,2.03a2.21,2.21,0,0,1,2.73,3.1c-.32.72-.48,2.51,2.09,2.51,1.77,0,2.57,1.19,1.45,3.1-.65,1.07-1.13,2.51,1.45,2.75,1.77.24,3.06,2.03,1.13,3.22a1.427,1.427,0,0,0,.64,2.63c1.93.48,2.73,2.15.64,3.1-2.41.96-1.45,1.67-.16,2.03C121.17,46.61,120.21,47.33,118.12,48.04Z" fill="#ea972b" fill-rule="evenodd"/><path d="M117.8,48.04c-1.61.48-2.09,1.55-.16,2.03,2.41.6,1.45,2.51-.48,2.99-1.77.36-1.77,1.91-.64,2.63,1.77,1.19.64,2.98-1.13,3.22-2.57.24-2.09,1.55-1.45,2.75,1.13,1.91.32,2.98-1.45,2.98-2.57,0-2.41,1.79-2.09,2.51.8,1.91-.64,3.82-2.73,3.1-1.28-.48-2.73,1.19-2.25,2.03,1.61,2.75-1.29,2.86-2.73,2.27-3.86-1.55-3.22.95-2.89,1.55.16.48-1.13,3.34-3.06,1.43-1.93-2.15-3.54.95-3.54.95,1.45.12-2.41,2.99-3.38,1.55a2.042,2.042,0,0,0-3.7.6,2.617,2.617,0,0,1-4.5.72c-2.41-2.87-1.93,1.31-4.34,1.19-1.61,1.19-1.13-4.42-4.5-1.19-1.45,1.43-3.86,1.19-4.34-.72a2.054,2.054,0,0,0-3.7-.6c-1.13,1.43-4.98-1.43-3.54-1.55.16,0-1.45-3.1-3.54-.95-1.77,1.91-3.22-.96-3.06-1.43.32-.6,1.13-3.1-2.73-1.55-1.45.6-4.5.48-2.73-2.27.48-.84-1.13-2.51-2.41-2.03A2.21,2.21,0,0,1,44,67.15c.32-.72.64-2.51-1.93-2.51-1.93,0-2.73-1.07-1.45-2.98.64-1.19,1.13-2.51-1.45-2.75-1.77-.24-3.06-2.03-1.29-3.22,1.13-.72,1.13-2.27-.64-2.63-1.77-.48-2.89-2.87-.48-2.99,1.61-.12,2.09-1.31,0-2.27-1.77-.84-1.77-2.03-.16-2.27,1.13-.12,1.61-1.55.16-1.91-2.25-.72-1.29-2.51.48-2.98s1.77-1.91.64-2.63c-1.77-1.19-.48-2.99,1.29-3.22,2.57-.24,2.09-1.67,1.45-2.74-1.29-1.91-.48-3.1,1.45-3.1,2.57,0,2.25-1.67,1.93-2.51a2.163,2.163,0,0,1,2.73-2.98c1.29.48,2.89-1.19,2.41-2.03-1.77-2.75,1.29-2.87,2.73-2.27,3.86,1.55,3.06-.96,2.73-1.67-.16-.48,1.29-3.34,3.06-1.43,2.09,2.15,3.7-.96,3.54-1.08-1.45-.84,2.41-3.58,3.54-1.43.64,1.55,4.18,1.19,3.7-.72-.48-1.79,3.06-2.39,3.7-.6.32.72,2.41,2.51,3.06.24.64-2.75,2.41-1.07,3.21,0,.96,1.31,3.21.72,3.21-.24.16-1.79,3.86-1.19,4.5.6a2.03,2.03,0,0,0,3.7.72c.96-1.43,4.82,1.43,3.38,1.43,0,0,1.61,3.22,3.54,1.08,1.93-1.91,3.22.95,3.06,1.43-.32.72-.96,3.22,2.89,1.67,1.45-.6,4.34-.48,2.73,2.27-.48.84.97,2.51,2.25,2.03a2.139,2.139,0,0,1,2.73,2.98c-.32.84-.48,2.51,2.09,2.51,1.77,0,2.57,1.19,1.45,3.1-.64,1.07-1.13,2.51,1.45,2.74,1.77.24,2.89,2.03,1.13,3.22-1.13.72-1.13,2.15.64,2.63,1.93.48,2.57,2.03.48,2.98-2.25.96-1.29,1.67,0,2.03C120.69,46.61,119.89,47.33,117.8,48.04Z" fill="#ec992b" fill-rule="evenodd"/><path d="M117.31,48.04c-1.45.48-2.09,1.55,0,2.03,2.25.48,1.45,2.51-.48,2.87-1.77.48-1.77,2.03-.64,2.63,1.77,1.19.48,2.98-1.13,3.22-2.57.24-2.09,1.55-1.45,2.75,1.13,1.79.32,2.99-1.45,2.99-2.57,0-2.41,1.67-1.93,2.51a2.244,2.244,0,0,1-2.89,2.98c-1.28-.36-2.73,1.19-2.25,2.03,1.61,2.75-1.29,2.87-2.73,2.27-3.7-1.55-3.06.96-2.73,1.67.16.36-1.13,3.1-3.05,1.19-1.93-2.03-3.54,1.07-3.38,1.07,1.29.12-2.41,2.86-3.54,1.43a2.042,2.042,0,0,0-3.7.72c-.48,1.79-3.06,2.15-4.34.6-2.57-2.75-1.93,1.43-4.34,1.31-1.61,1.08-1.13-4.42-4.5-1.31-1.45,1.43-3.86,1.19-4.34-.6a2.03,2.03,0,0,0-3.7-.72c-.96,1.43-4.82-1.31-3.38-1.43.16,0-1.45-3.1-3.54-1.07-1.77,1.91-3.22-.84-3.06-1.19.32-.72,1.13-3.22-2.73-1.67-1.45.6-4.34.48-2.73-2.27.48-.84-.97-2.39-2.25-2.03a2.162,2.162,0,0,1-2.73-2.98c.32-.84.48-2.51-1.93-2.51-1.93,0-2.57-1.19-1.45-2.99.64-1.19,1.13-2.51-1.45-2.75-1.77-.24-3.06-2.03-1.13-3.22.96-.6.96-2.15-.64-2.63-1.93-.36-2.89-2.75-.64-2.87,1.77-.12,2.09-1.43.16-2.27s-1.93-2.03-.16-2.27c.96-.12,1.45-1.43,0-1.91-2.09-.72-1.29-2.51.64-2.98a1.35,1.35,0,0,0,.64-2.51c-1.93-1.19-.64-2.99,1.13-3.22,2.57-.24,2.09-1.67,1.45-2.75-1.13-1.79-.48-2.98,1.45-2.98,2.41,0,2.25-1.79,1.93-2.51a2.17,2.17,0,0,1,2.73-2.99c1.29.36,2.73-1.19,2.25-2.03-1.61-2.74,1.29-2.86,2.73-2.27,3.86,1.55,3.06-.96,2.73-1.67-.16-.48,1.29-3.22,3.06-1.31,2.09,2.15,3.7-1.07,3.54-1.07-1.45-.84,2.41-3.7,3.38-1.43.8,1.43,4.18,1.19,3.7-.72-.48-1.79,3.06-2.39,3.86-.72.16.84,2.25,2.51,2.9.24.8-2.63,2.41-1.07,3.21.12.96,1.31,3.06.72,3.21-.36.16-1.79,3.86-1.07,4.34.72a2.042,2.042,0,0,0,3.7.72c1.13-1.55,4.82,1.31,3.54,1.43-.16,0,1.45,3.22,3.38,1.07,1.93-1.91,3.21.84,3.05,1.31-.32.72-.96,3.22,2.73,1.67,1.45-.6,4.34-.48,2.73,2.27-.48.84.97,2.39,2.25,2.03a2.246,2.246,0,0,1,2.89,2.99c-.48.72-.64,2.51,1.93,2.51,1.77,0,2.57,1.19,1.45,2.98-.64,1.07-1.13,2.51,1.45,2.75,1.61.24,2.89,2.03,1.13,3.22-1.13.6-1.13,2.15.64,2.51,1.93.48,2.57,2.15.48,2.98-2.25.96-1.29,1.67-.16,2.03C120.37,46.61,119.4,47.33,117.31,48.04Z" fill="#ed9b2b" fill-rule="evenodd"/><path d="M116.99,48.04c-1.61.48-2.09,1.43,0,1.91,2.25.6,1.28,2.51-.48,2.99-1.77.36-1.77,1.91-.65,2.63,1.77,1.07.48,2.86-1.28,3.1-2.41.24-1.93,1.55-1.29,2.75,1.13,1.79.32,2.99-1.45,2.99-2.57,0-2.25,1.67-1.93,2.39.64,1.79-.8,3.7-2.73,2.99-1.29-.36-2.9,1.19-2.25,2.03,1.61,2.63-1.45,2.86-2.73,2.27-3.86-1.55-3.06.95-2.73,1.67.16.36-1.29,3.1-3.05,1.19C94.48,74.9,92.88,78,93.04,78c1.28,0-2.41,2.86-3.54,1.43a1.93,1.93,0,0,0-3.54.6c-.48,1.79-3.06,2.15-4.34.72-2.57-2.87-1.93,1.31-4.34,1.19-1.61,1.19-1.13-4.3-4.34-1.19-1.45,1.31-3.86,1.07-4.34-.72a2.049,2.049,0,0,0-3.7-.6C63.93,80.86,60.08,78,61.52,78c.16,0-1.45-3.1-3.54-1.07-1.77,1.91-3.05-.84-2.89-1.19.32-.72.96-3.22-2.9-1.67-1.29.6-4.18.36-2.57-2.27.48-.84-.96-2.39-2.25-2.03a2.166,2.166,0,0,1-2.73-2.99c.32-.72.48-2.39-1.93-2.39-1.93,0-2.57-1.19-1.45-2.99.64-1.19,1.13-2.51-1.45-2.75-1.77-.24-2.89-2.03-1.13-3.1a1.43,1.43,0,0,0-.64-2.63c-1.93-.48-2.89-2.75-.48-2.99,1.61-.12,1.93-1.31,0-2.15s-1.93-2.03-.16-2.27c1.13-.12,1.45-1.43.16-1.91-2.25-.72-1.45-2.39.48-2.86,1.61-.48,1.61-1.91.64-2.63-1.77-1.08-.64-2.87,1.13-3.11,2.57-.36,2.09-1.55,1.45-2.74-1.13-1.79-.48-2.98,1.45-2.98,2.41,0,2.25-1.67,1.93-2.51a2.107,2.107,0,0,1,2.73-2.87c1.29.36,2.73-1.31,2.25-2.15-1.61-2.63,1.29-2.75,2.57-2.15,3.86,1.55,3.22-.95,2.9-1.67-.16-.48,1.13-3.22,2.89-1.31,2.09,2.15,3.7-.95,3.54-1.07-1.45-.84,2.41-3.58,3.38-1.43.8,1.55,4.18,1.19,3.7-.6s2.9-2.51,3.7-.72c.32.72,2.25,2.51,2.9.24.8-2.74,2.41-1.07,3.21,0,.96,1.31,3.06.72,3.21-.24.16-1.79,3.86-1.19,4.34.72a1.93,1.93,0,0,0,3.54.6c1.13-1.43,4.82,1.31,3.54,1.43-.16,0,1.45,3.22,3.38,1.07,1.77-1.91,3.21.84,3.05,1.31-.32.72-1.13,3.22,2.73,1.67,1.29-.6,4.34-.48,2.73,2.15-.64.84.97,2.51,2.25,2.15a2.128,2.128,0,0,1,2.73,2.87c-.32.84-.64,2.51,1.93,2.51,1.77,0,2.57,1.19,1.45,2.98-.64,1.19-1.13,2.39,1.29,2.74,1.77.24,3.06,2.03,1.28,3.11-1.13.72-1.13,2.15.65,2.63s2.57,2.03.48,2.86c-2.25.96-1.45,1.67-.16,2.03C119.89,46.61,119.08,47.33,116.99,48.04Z" fill="#ed9c2a" fill-rule="evenodd"/><path d="M116.67,48.04c-1.61.48-2.09,1.43-.16,1.91,2.25.6,1.45,2.51-.48,2.99a1.348,1.348,0,0,0-.64,2.51c1.93,1.08.64,2.87-1.13,3.1-2.41.24-1.93,1.55-1.29,2.74,1.13,1.79.32,2.87-1.45,2.87-2.57,0-2.25,1.67-1.93,2.51a2.19,2.19,0,0,1-2.73,2.99c-1.29-.48-2.73,1.19-2.25,1.91,1.61,2.63-1.29,2.86-2.57,2.27-3.86-1.55-3.05.96-2.89,1.55.16.48-1.13,3.1-2.89,1.31-1.93-2.03-3.54.95-3.38.95,1.45.12-2.41,2.87-3.38,1.43a2.036,2.036,0,0,0-3.7.72c-.48,1.79-2.9,2.03-4.18.6-2.57-2.75-1.93,1.31-4.34,1.19-1.61,1.19-1.13-4.3-4.34-1.19-1.45,1.43-3.86,1.19-4.34-.6a1.922,1.922,0,0,0-3.54-.72c-1.13,1.43-4.82-1.31-3.38-1.43.16,0-1.45-2.98-3.54-.95-1.77,1.79-3.05-.84-2.89-1.31.32-.6.96-3.1-2.73-1.55-1.29.6-4.34.36-2.57-2.27.48-.72-1.13-2.39-2.25-1.91a2.158,2.158,0,0,1-2.73-2.99c.32-.84.48-2.51-1.93-2.51-1.93,0-2.57-1.07-1.45-2.87.64-1.19,1.13-2.51-1.45-2.74-1.61-.24-2.89-2.03-1.13-3.1,1.13-.72,1.13-2.15-.64-2.51-1.77-.48-2.73-2.75-.48-2.99,1.61-.12,1.93-1.31,0-2.15-1.77-.84-1.77-2.03-.16-2.15,1.13-.24,1.45-1.55.16-1.91-2.09-.72-1.29-2.51.48-2.98,1.77-.36,1.77-1.91.64-2.51-1.77-1.19-.48-2.86,1.13-3.1,2.57-.36,2.09-1.55,1.45-2.75-1.13-1.79-.48-2.98,1.45-2.98,2.41,0,2.25-1.67,1.93-2.39a2.155,2.155,0,0,1,2.73-2.98c1.13.48,2.73-1.19,2.25-2.03-1.77-2.63,1.29-2.75,2.57-2.15,3.7,1.55,3.05-.95,2.73-1.67-.16-.36,1.13-3.1,2.89-1.31,2.09,2.15,3.54-.96,3.54-.96-1.45-.84,2.25-3.58,3.38-1.43.65,1.43,4.02,1.19,3.54-.72-.32-1.79,3.06-2.39,3.7-.6.32.72,2.41,2.39,2.9.24.8-2.75,2.41-1.08,3.21,0,.96,1.31,3.06.72,3.21-.24.16-1.79,3.7-1.19,4.18.6a2.036,2.036,0,0,0,3.7.72c.96-1.43,4.82,1.31,3.38,1.43-.16,0,1.45,3.1,3.38.96,1.77-1.79,3.06.96,2.89,1.31-.16.72-.97,3.22,2.89,1.67,1.29-.6,4.18-.48,2.57,2.15-.48.84.96,2.51,2.25,2.03a2.179,2.179,0,0,1,2.73,2.98c-.32.72-.65,2.39,1.93,2.39,1.77,0,2.57,1.19,1.45,2.98-.65,1.19-1.13,2.39,1.29,2.75,1.77.24,3.05,1.91,1.13,3.1a1.35,1.35,0,0,0,.64,2.51c1.93.48,2.57,2.03.48,2.98-2.09.84-1.29,1.55,0,1.91C119.56,46.61,118.76,47.33,116.67,48.04Z" fill="#ef9f2a" fill-rule="evenodd"/><path d="M116.19,48.04c-1.45.36-1.93,1.43,0,1.91,2.25.48,1.29,2.39-.48,2.87a1.35,1.35,0,0,0-.64,2.51c1.77,1.19.64,2.87-1.13,3.1-2.41.36-1.93,1.55-1.29,2.63.96,1.91.32,2.98-1.45,2.98-2.57,0-2.25,1.67-1.93,2.39a2.181,2.181,0,0,1-2.73,2.98c-1.29-.48-2.73,1.19-2.25,1.91,1.61,2.63-1.29,2.75-2.57,2.27-3.7-1.55-3.05.84-2.73,1.55.16.48-1.13,3.1-2.9,1.19-1.93-1.91-3.54,1.08-3.38,1.08,1.45.12-2.41,2.86-3.38,1.43a1.93,1.93,0,0,0-3.54.6c-.48,1.79-3.06,2.15-4.34.72-2.41-2.86-1.77,1.19-4.18,1.07-1.61,1.19-1.13-4.18-4.34-1.07-1.45,1.31-3.7,1.07-4.18-.72a1.93,1.93,0,0,0-3.54-.6c-1.13,1.43-4.82-1.31-3.38-1.43,0,0-1.45-2.98-3.54-1.08-1.61,1.91-3.05-.72-2.89-1.19.32-.72,1.13-3.1-2.73-1.55-1.29.48-4.18.36-2.57-2.27.48-.72-.96-2.39-2.25-1.91a2.1,2.1,0,0,1-2.57-2.98c.32-.72.48-2.39-1.93-2.39-1.77,0-2.57-1.07-1.45-2.98.64-1.07,1.13-2.27-1.45-2.63-1.61-.24-2.89-1.91-1.13-3.1,1.13-.6,1.13-2.15-.64-2.51-1.77-.48-2.73-2.75-.48-2.87,1.61-.12,1.93-1.31.16-2.15-1.93-.84-1.93-2.03-.16-2.15a.962.962,0,0,0,0-1.91c-2.09-.72-1.29-2.51.48-2.86,1.77-.48,1.77-1.91.64-2.51-1.77-1.19-.48-2.86,1.13-3.1,2.57-.36,2.09-1.55,1.45-2.75-1.13-1.79-.32-2.86,1.45-2.86,2.41,0,2.25-1.67,1.93-2.39a2.1,2.1,0,0,1,2.57-2.98c1.29.48,2.73-1.19,2.25-2.03-1.61-2.51,1.29-2.75,2.57-2.15,3.86,1.55,3.05-.95,2.73-1.55-.16-.48,1.29-3.22,2.89-1.31,2.09,2.03,3.54-.95,3.54-1.07-1.45-.84,2.25-3.58,3.38-1.43.65,1.55,4.02,1.19,3.54-.6s2.9-2.39,3.54-.72c.32.84,2.41,2.39,2.9.24.8-2.63,2.41-1.07,3.21,0,.96,1.31,3.06.84,3.06-.24.16-1.67,3.86-1.08,4.34.72a1.93,1.93,0,0,0,3.54.6c.96-1.43,4.82,1.31,3.38,1.43-.16,0,1.45,3.1,3.38,1.07,1.77-1.91,3.06.84,2.9,1.31-.32.6-.97,3.1,2.73,1.55,1.29-.6,4.18-.36,2.57,2.15-.48.84.96,2.51,2.25,2.03a2.179,2.179,0,0,1,2.73,2.98c-.32.72-.64,2.39,1.93,2.39,1.77,0,2.41,1.07,1.45,2.86-.64,1.19-1.13,2.39,1.29,2.75,1.77.24,2.89,1.91,1.13,3.1-.96.6-.96,2.03.64,2.51,1.77.36,2.57,2.03.48,2.86-2.09.96-1.29,1.55,0,1.91C119.08,46.61,118.28,47.33,116.19,48.04Z" fill="#efa12a" fill-rule="evenodd"/><path d="M115.86,47.92c-1.45.48-1.93,1.55,0,2.03,2.25.48,1.29,2.39-.48,2.87a1.351,1.351,0,0,0-.65,2.51c1.77,1.07.48,2.75-1.13,2.99-2.41.36-1.93,1.55-1.29,2.63.97,1.79.32,2.98-1.45,2.98-2.41,0-2.25,1.55-1.93,2.39a2.134,2.134,0,0,1-2.73,2.86c-1.13-.36-2.57,1.19-2.09,2.03,1.61,2.51-1.28,2.63-2.57,2.15-3.7-1.55-3.06.84-2.73,1.55.16.48-1.13,2.98-2.9,1.19-1.93-1.91-3.54.96-3.38.96,1.45.12-2.25,2.87-3.38,1.43a1.922,1.922,0,0,0-3.54.72c-.48,1.67-2.89,2.03-4.18.6-2.41-2.74-1.77,1.31-4.18,1.19-1.61,1.07-1.13-4.18-4.34-1.19-1.29,1.31-3.7,1.08-4.18-.6a1.916,1.916,0,0,0-3.54-.72c-.96,1.43-4.66-1.31-3.21-1.43,0,0-1.45-2.86-3.38-.96-1.77,1.79-3.06-.72-2.9-1.19.16-.72.97-3.1-2.73-1.55-1.29.48-4.18.36-2.57-2.15.48-.84-.97-2.39-2.25-2.03a2.052,2.052,0,0,1-2.57-2.86c.32-.84.48-2.39-1.93-2.39-1.77,0-2.57-1.19-1.45-2.98.64-1.07,1.13-2.27-1.29-2.63-1.77-.24-2.89-1.91-1.13-2.99a1.351,1.351,0,0,0-.64-2.51c-1.77-.48-2.89-2.75-.48-2.87,1.45-.12,1.93-1.31,0-2.15-1.77-.84-1.77-1.91-.16-2.15a.964.964,0,0,0,.16-1.91c-2.25-.72-1.29-2.39.48-2.86a1.348,1.348,0,0,0,.64-2.51c-1.77-1.07-.64-2.86,1.13-2.98,2.41-.36,1.93-1.55,1.29-2.63-1.13-1.79-.32-2.99,1.45-2.99,2.41,0,2.25-1.67,1.93-2.39a2.045,2.045,0,0,1,2.57-2.87c1.29.36,2.73-1.19,2.25-2.03-1.61-2.51,1.29-2.63,2.57-2.15,3.7,1.55,2.89-.84,2.73-1.55-.16-.48,1.13-3.1,2.9-1.31,1.93,2.03,3.38-.96,3.38-.96-1.45-.84,2.25-3.58,3.21-1.43.8,1.43,4.02,1.07,3.54-.72-.32-1.67,2.9-2.27,3.7-.6.32.72,2.25,2.39,2.9.24.64-2.63,2.25-1.07,3.05,0,.96,1.31,2.89.72,3.06-.24.16-1.67,3.7-1.07,4.18.6a1.975,1.975,0,0,0,3.54.72c1.13-1.43,4.82,1.31,3.38,1.43-.16,0,1.45,2.99,3.38.96,1.77-1.79,3.06.84,2.9,1.31-.32.72-.97,3.1,2.73,1.55,1.29-.48,4.18-.36,2.57,2.15-.48.84.97,2.39,2.09,2.03a2.119,2.119,0,0,1,2.73,2.87c-.32.72-.48,2.39,1.93,2.39,1.77,0,2.41,1.19,1.45,2.99-.64,1.08-1.13,2.27,1.29,2.63,1.61.12,2.9,1.91,1.13,2.98a1.351,1.351,0,0,0,.65,2.51c1.77.48,2.41,2.03.48,2.86-2.09.96-1.28,1.55-.16,1.91C118.76,46.61,117.96,47.33,115.86,47.92Z" fill="#efa22a" fill-rule="evenodd"/><path d="M115.55,47.92c-1.45.48-1.93,1.55,0,2.03,2.09.48,1.28,2.39-.48,2.75a1.35,1.35,0,0,0-.64,2.51c1.77,1.07.48,2.87-1.13,2.99-2.41.36-2.09,1.55-1.45,2.63,1.13,1.79.48,2.87-1.29,2.87-2.41,0-2.25,1.67-1.93,2.39a2.031,2.031,0,0,1-2.57,2.87c-1.29-.36-2.73,1.19-2.25,2.03,1.61,2.51-1.28,2.63-2.57,2.15-3.54-1.55-2.9.84-2.57,1.55.16.36-1.13,2.98-2.9,1.31-1.93-2.15-3.54.84-3.38.84,1.45.12-2.25,2.74-3.38,1.43a1.817,1.817,0,0,0-3.38.6c-.48,1.79-2.89,2.03-4.18.6-2.41-2.62-1.77,1.31-4.18,1.19-1.61,1.08-1.13-4.18-4.18-1.19-1.45,1.31-3.7,1.19-4.18-.6a1.93,1.93,0,0,0-3.54-.6c-.96,1.31-4.66-1.31-3.21-1.43,0,0-1.45-2.99-3.38-.84-1.77,1.67-3.06-.96-2.9-1.31.32-.72.96-3.1-2.73-1.55-1.29.48-4.02.36-2.57-2.15.48-.84-.96-2.39-2.09-2.03a2.128,2.128,0,0,1-2.73-2.87c.32-.72.64-2.39-1.77-2.39-1.77,0-2.57-1.08-1.45-2.87.64-1.08,1.13-2.27-1.29-2.63-1.77-.12-2.89-1.91-1.13-2.99a1.353,1.353,0,0,0-.64-2.51c-1.77-.36-2.73-2.63-.48-2.75,1.61-.12,1.93-1.31,0-2.15-1.77-.84-1.77-1.91-.16-2.15,1.13-.12,1.45-1.43.16-1.91-2.09-.6-1.29-2.39.48-2.74,1.61-.48,1.61-1.91.64-2.51-1.77-1.07-.64-2.86,1.13-2.98,2.41-.36,1.93-1.55,1.29-2.63-1.13-1.79-.32-2.87,1.45-2.87,2.41,0,2.09-1.67,1.77-2.39a2.131,2.131,0,0,1,2.73-2.87c1.13.36,2.57-1.19,2.09-2.03-1.45-2.51,1.29-2.63,2.57-2.15,3.7,1.55,3.06-.84,2.73-1.55-.16-.48,1.13-3.1,2.9-1.31,1.93,2.15,3.38-.96,3.38-.96-1.45-.84,2.25-3.46,3.21-1.43.64,1.55,4.02,1.19,3.54-.6-.48-1.67,2.89-2.27,3.54-.6.32.72,2.25,2.27,2.9.12.64-2.51,2.25-.96,3.05.12.96,1.19,2.89.72,3.06-.24.16-1.79,3.7-1.19,4.18.6a1.817,1.817,0,0,0,3.38.6c1.13-1.31,4.82,1.31,3.38,1.43-.16,0,1.45,3.1,3.38.96,1.77-1.79,3.06.84,2.9,1.31-.32.72-.96,3.1,2.57,1.55,1.29-.48,4.18-.36,2.57,2.15-.48.84.97,2.39,2.25,2.03a2.028,2.028,0,0,1,2.57,2.87c-.32.72-.48,2.39,1.93,2.39,1.77,0,2.41,1.07,1.29,2.87-.65,1.07-.97,2.27,1.45,2.63,1.61.12,2.89,1.91,1.13,2.98-.96.6-.96,2.03.64,2.51,1.77.36,2.41,1.91.48,2.74-2.25.96-1.29,1.67-.16,2.03C118.28,46.61,117.47,47.33,115.55,47.92Z" fill="#f2a529" fill-rule="evenodd"/><path d="M115.22,47.92c-1.61.48-2.09,1.43-.16,1.91,2.25.6,1.29,2.39-.48,2.86-1.61.36-1.61,1.79-.64,2.39,1.77,1.07.64,2.86-.96,2.98-2.41.36-2.09,1.55-1.45,2.63,1.13,1.79.48,2.87-1.29,2.87-2.41,0-2.25,1.55-1.93,2.39a1.984,1.984,0,0,1-2.57,2.75c-1.29-.36-2.57,1.19-2.09,2.03,1.45,2.51-1.29,2.63-2.57,2.15-3.7-1.55-2.9.84-2.73,1.55.16.36-1.13,2.87-2.73,1.19-1.93-2.03-3.54.96-3.38.96,1.45,0-2.25,2.74-3.21,1.31a1.99,1.99,0,0,0-3.54.6,2.349,2.349,0,0,1-4.02.72c-2.41-2.75-1.77,1.19-4.18,1.07-1.45,1.19-1.13-4.06-4.18-1.07-1.45,1.31-3.7,1.07-4.18-.72a1.867,1.867,0,0,0-3.38-.6c-.96,1.43-4.66-1.31-3.38-1.31.16,0-1.29-2.99-3.22-.96-1.77,1.67-3.06-.84-2.89-1.19.32-.72.96-3.1-2.57-1.55-1.29.48-4.18.36-2.57-2.15.48-.84-.96-2.39-2.09-2.03a2.081,2.081,0,0,1-2.73-2.75c.32-.84.64-2.39-1.77-2.39-1.77,0-2.41-1.07-1.45-2.87.64-1.07,1.13-2.27-1.29-2.63-1.61-.12-2.89-1.91-1.13-2.98.96-.6.96-2.03-.64-2.39-1.77-.48-2.73-2.63-.48-2.86,1.61-.12,1.93-1.19,0-2.03-1.61-.84-1.61-1.91,0-2.15.96-.12,1.29-1.43,0-1.79-2.09-.72-1.29-2.39.48-2.86,1.61-.36,1.61-1.79.64-2.39-1.77-1.19-.48-2.86,1.13-2.98,2.41-.36,1.93-1.55,1.29-2.63-.96-1.79-.32-2.86,1.45-2.86,2.41,0,2.09-1.67,1.77-2.39a2.163,2.163,0,0,1,2.73-2.86c1.13.48,2.57-1.07,2.09-1.91-1.61-2.51,1.29-2.63,2.57-2.15,3.54,1.55,2.9-.84,2.57-1.55-.16-.36,1.13-2.98,2.89-1.19,1.93,2.03,3.38-.95,3.22-1.07-1.29-.72,2.41-3.46,3.38-1.31.64,1.43,3.86,1.07,3.38-.72-.32-1.67,2.89-2.27,3.54-.6.32.72,2.25,2.39,2.9.24.64-2.63,2.25-1.07,3.05,0,.8,1.31,2.89.72,3.06-.24.16-1.67,3.54-1.08,4.02.6a1.975,1.975,0,0,0,3.54.72c.96-1.43,4.66,1.31,3.21,1.31-.16,0,1.45,3.1,3.38,1.07,1.61-1.79,2.89.84,2.73,1.19-.16.72-.96,3.11,2.73,1.55,1.29-.48,4.02-.36,2.57,2.15-.48.84.8,2.39,2.09,1.91a2.052,2.052,0,0,1,2.57,2.86c-.32.72-.48,2.39,1.93,2.39,1.77,0,2.41,1.07,1.29,2.86-.64,1.07-.96,2.27,1.45,2.63,1.61.12,2.73,1.79.96,2.98-.96.6-.96,2.03.64,2.39,1.77.48,2.57,2.03.48,2.86s-1.29,1.55,0,1.91C117.96,46.61,117.15,47.33,115.22,47.92Z" fill="#f2a728" fill-rule="evenodd"/><path d="M114.74,47.92c-1.45.48-1.93,1.43,0,1.91,2.09.48,1.29,2.39-.48,2.74a1.351,1.351,0,0,0-.65,2.51c1.77,1.07.65,2.74-1.13,2.86-2.25.36-1.93,1.55-1.29,2.63,1.13,1.67.48,2.87-1.28,2.87-2.41,0-2.25,1.55-1.93,2.27a2.061,2.061,0,0,1-2.57,2.87c-1.13-.48-2.57,1.07-2.09,1.91,1.61,2.51-1.29,2.63-2.57,2.03-3.54-1.43-2.89.96-2.57,1.55.16.48-1.13,2.98-2.73,1.31-1.93-2.03-3.38.84-3.38.84,1.45.12-2.25,2.75-3.22,1.43a1.817,1.817,0,0,0-3.38.6c-.48,1.67-2.89,2.03-4.18.6-2.25-2.63-1.77,1.19-4.02,1.08-1.45,1.19-1.13-3.94-4.18-1.08-1.29,1.31-3.54,1.08-4.02-.6a1.817,1.817,0,0,0-3.38-.6c-1.13,1.31-4.66-1.31-3.38-1.43.16,0-1.29-2.86-3.22-.84-1.61,1.67-2.89-.84-2.73-1.31.16-.6.96-2.99-2.73-1.55-1.29.6-4.02.48-2.41-2.03.48-.84-.96-2.39-2.25-1.91a2.111,2.111,0,0,1-2.57-2.87c.32-.72.64-2.27-1.77-2.27-1.77,0-2.41-1.19-1.45-2.87.64-1.07,1.13-2.27-1.29-2.63-1.61-.12-2.73-1.79-1.13-2.86a1.352,1.352,0,0,0-.48-2.51c-1.77-.36-2.73-2.63-.48-2.74,1.45-.12,1.77-1.31,0-2.03-1.77-.84-1.77-1.91-.16-2.15a.906.906,0,0,0,.16-1.79c-2.09-.72-1.29-2.39.48-2.75a1.352,1.352,0,0,0,.48-2.51c-1.61-1.07-.48-2.75,1.13-2.86,2.41-.36,1.93-1.55,1.29-2.63-.96-1.79-.32-2.86,1.45-2.86,2.41,0,2.09-1.55,1.77-2.27a2.109,2.109,0,0,1,2.57-2.86c1.29.48,2.73-1.07,2.25-1.91-1.61-2.51,1.13-2.63,2.41-2.15,3.7,1.55,2.89-.84,2.73-1.43-.16-.48,1.13-3.1,2.73-1.31,1.93,2.03,3.38-.95,3.22-.95-1.29-.84,2.25-3.46,3.38-1.43.64,1.43,3.86,1.19,3.38-.6-.48-1.67,2.89-2.27,3.54-.6.16.72,2.09,2.27,2.73.24.64-2.63,2.25-1.07,3.05,0,.8,1.19,2.89.72,2.89-.24.32-1.67,3.7-1.08,4.18.6a1.817,1.817,0,0,0,3.38.6c.97-1.31,4.66,1.31,3.22,1.43,0,0,1.45,2.98,3.38.95,1.61-1.79,2.89.84,2.73,1.31-.32.6-.96,2.98,2.57,1.43,1.29-.48,4.18-.36,2.57,2.15-.48.84.96,2.39,2.09,1.91a2.052,2.052,0,0,1,2.57,2.86c-.32.72-.48,2.27,1.93,2.27,1.77,0,2.41,1.07,1.28,2.86-.64,1.07-.96,2.27,1.29,2.63,1.77.12,2.9,1.79,1.13,2.86-.96.72-.96,2.03.65,2.51,1.77.36,2.41,1.91.48,2.75-2.09.84-1.28,1.55-.16,1.91C117.47,46.61,116.83,47.33,114.74,47.92Z" fill="#f4a928" fill-rule="evenodd"/><path d="M114.42,47.92c-1.45.48-1.93,1.43,0,1.91,2.09.48,1.29,2.27-.48,2.74-1.61.36-1.61,1.79-.64,2.39,1.77,1.07.48,2.75-1.13,2.86-2.25.36-1.93,1.55-1.29,2.63,1.13,1.67.32,2.75-1.28,2.75-2.41,0-2.09,1.67-1.77,2.39a2.042,2.042,0,0,1-2.57,2.74c-1.28-.36-2.57,1.08-2.25,1.91,1.61,2.51-1.13,2.63-2.41,2.03-3.54-1.43-2.89.96-2.57,1.55.16.48-1.13,2.87-2.73,1.31-1.93-2.03-3.38.96-3.38.96,1.45,0-2.09,2.51-3.22,1.19a1.9,1.9,0,0,0-3.38.6,2.323,2.323,0,0,1-4.02.6c-2.25-2.5-1.77,1.31-4.02,1.19-1.45,1.08-.96-3.94-4.02-1.19-1.45,1.31-3.7,1.08-4.18-.6a1.9,1.9,0,0,0-3.38-.6c-.97,1.31-4.5-1.19-3.22-1.19.16,0-1.29-2.98-3.22-.96-1.61,1.55-2.89-.84-2.73-1.31.32-.6.97-2.98-2.57-1.55-1.29.6-4.02.48-2.57-2.03.48-.84-.96-2.27-2.09-1.91a2.04,2.04,0,0,1-2.57-2.74c.32-.72.48-2.39-1.77-2.39-1.77,0-2.41-1.07-1.45-2.75.64-1.07,1.13-2.27-1.29-2.63-1.61-.12-2.73-1.79-.96-2.86.96-.6.96-2.03-.64-2.39-1.77-.48-2.73-2.63-.48-2.74,1.45-.12,1.77-1.31,0-2.03-1.77-.84-1.77-1.91-.16-2.15.96-.12,1.45-1.43.16-1.79-2.09-.6-1.29-2.27.48-2.75,1.61-.36,1.61-1.79.64-2.39-1.77-1.08-.64-2.75.96-2.98,2.41-.24,1.93-1.43,1.29-2.51-.96-1.67-.32-2.74,1.45-2.74,2.25,0,2.09-1.67,1.77-2.39a2.049,2.049,0,0,1,2.57-2.75c1.13.36,2.57-1.07,2.09-1.91-1.45-2.51,1.29-2.63,2.57-2.03,3.54,1.43,2.89-.96,2.57-1.55-.16-.48,1.13-2.98,2.73-1.31,1.93,2.03,3.38-.84,3.22-.96-1.29-.72,2.25-3.34,3.22-1.31.8,1.43,3.86,1.07,3.38-.6-.32-1.67,2.89-2.27,3.54-.6.32.6,2.25,2.27,2.73.12.64-2.51,2.25-.96,3.05,0,.8,1.31,2.89.72,2.89-.12.16-1.67,3.54-1.07,4.02.6a1.867,1.867,0,0,0,3.38.6c1.13-1.31,4.66,1.19,3.22,1.31,0,0,1.45,2.99,3.38.96,1.61-1.67,2.89.84,2.73,1.31-.32.6-.97,2.98,2.57,1.55,1.29-.6,4.02-.48,2.41,2.03-.32.84.97,2.27,2.25,1.91a2.044,2.044,0,0,1,2.57,2.75c-.32.72-.64,2.39,1.77,2.39,1.61,0,2.41,1.07,1.28,2.74-.64,1.07-.96,2.27,1.29,2.51,1.61.24,2.89,1.91,1.13,2.98-.97.6-.97,2.03.64,2.39,1.77.48,2.41,1.91.48,2.75-2.09.95-1.28,1.55-.16,1.91C117.15,46.61,116.35,47.33,114.42,47.92Z" fill="#f4ab27" fill-rule="evenodd"/><path d="M114.1,47.92c-1.45.48-1.93,1.43-.16,1.91,2.25.48,1.29,2.27-.32,2.63s-1.61,1.79-.64,2.39c1.61,1.07.48,2.74-1.13,2.98-2.25.24-1.93,1.43-1.29,2.51,1.13,1.67.32,2.74-1.29,2.74-2.41,0-2.09,1.55-1.77,2.27a2.042,2.042,0,0,1-2.57,2.74c-1.13-.36-2.57,1.19-2.09,1.91,1.45,2.39-1.29,2.63-2.41,2.03-3.54-1.43-2.89.84-2.57,1.55.16.36-1.13,2.87-2.89,1.19-1.77-1.91-3.21.96-3.21.96,1.45.12-2.09,2.63-3.06,1.31a1.868,1.868,0,0,0-3.38.6c-.48,1.67-2.73,1.91-4.02.6-2.25-2.51-1.77,1.19-4.02,1.07-1.45,1.08-.96-3.82-4.02-1.07-1.45,1.19-3.54,1.07-4.02-.6a1.867,1.867,0,0,0-3.38-.6c-.97,1.31-4.5-1.19-3.22-1.31.16,0-1.29-2.87-3.22-.96-1.61,1.67-2.89-.84-2.73-1.19.32-.72.96-2.98-2.57-1.55-1.28.6-4.02.36-2.41-2.03.48-.72-.96-2.27-2.09-1.91a2.013,2.013,0,0,1-2.57-2.74c.32-.72.48-2.27-1.77-2.27-1.77,0-2.41-1.07-1.29-2.74.48-1.07.96-2.27-1.29-2.51-1.61-.24-2.89-1.91-1.13-2.98.96-.6.96-2.03-.64-2.39-1.77-.36-2.57-2.51-.48-2.63,1.61-.12,1.93-1.31,0-2.03-1.61-.84-1.61-1.91-.16-2.15,1.13-.12,1.45-1.31.16-1.79-1.93-.6-1.29-2.27.48-2.63,1.61-.48,1.61-1.79.64-2.39-1.77-1.07-.48-2.75,1.13-2.99,2.25-.24,1.77-1.43,1.29-2.51-1.13-1.67-.48-2.75,1.29-2.75,2.25,0,2.09-1.55,1.77-2.27a2.022,2.022,0,0,1,2.57-2.75c1.13.36,2.57-1.19,2.09-1.91-1.61-2.51,1.13-2.63,2.41-2.03,3.54,1.43,2.89-.84,2.57-1.55-.16-.36,1.13-2.98,2.73-1.19,1.93,1.91,3.38-.96,3.22-.96-1.29-.84,2.25-3.34,3.22-1.43.64,1.43,3.86,1.19,3.38-.6-.48-1.67,2.73-2.15,3.38-.6.32.72,2.25,2.27,2.73.24.64-2.51,2.25-.96,3.05,0,.8,1.19,2.73.72,2.89-.24.16-1.67,3.54-1.07,4.02.6a1.817,1.817,0,0,0,3.38.6c.97-1.31,4.5,1.31,3.06,1.43,0,0,1.45,2.86,3.21.96,1.77-1.79,3.06.84,2.89,1.19-.32.72-.96,2.99,2.57,1.55,1.13-.6,3.86-.48,2.41,2.03-.48.72.96,2.27,2.09,1.91a2.045,2.045,0,0,1,2.57,2.75c-.32.72-.64,2.27,1.77,2.27,1.61,0,2.41,1.07,1.29,2.75-.64,1.07-.96,2.27,1.29,2.51,1.61.24,2.73,1.91,1.13,2.99-.97.6-.97,1.91.64,2.39,1.61.36,2.25,1.91.32,2.63-1.93.95-1.13,1.55,0,1.91C116.83,46.61,116.03,47.33,114.1,47.92Z" fill="#f5ad27" fill-rule="evenodd"/><path d="M113.61,47.92c-1.29.48-1.77,1.31,0,1.79,2.09.6,1.29,2.27-.48,2.75a1.268,1.268,0,0,0-.48,2.39c1.61.95.48,2.63-1.13,2.86-2.25.24-1.93,1.43-1.29,2.51.96,1.67.32,2.75-1.29,2.75-2.25,0-2.09,1.55-1.77,2.27a2,2,0,0,1-2.57,2.63c-1.13-.36-2.57,1.19-2.09,1.91,1.6,2.39-1.13,2.51-2.41,2.03-3.54-1.43-2.73.84-2.57,1.55.16.36-.96,2.75-2.73,1.19-1.77-1.91-3.21.95-3.05.95,1.29.12-2.25,2.51-3.22,1.19a1.934,1.934,0,0,0-3.38.6,2.241,2.241,0,0,1-3.86.6c-2.41-2.39-1.77,1.19-4.02,1.07-1.45,1.08-.96-3.82-4.02-1.07-1.29,1.31-3.54,1.07-3.86-.6a1.942,1.942,0,0,0-3.38-.6c-.97,1.31-4.5-1.07-3.22-1.19.16,0-1.29-2.86-3.21-.95-1.61,1.55-2.89-.84-2.73-1.19.32-.72.97-2.98-2.41-1.55-1.28.48-4.02.36-2.57-2.03.48-.72-.8-2.27-1.93-1.91a1.971,1.971,0,0,1-2.57-2.63c.32-.72.48-2.27-1.77-2.27-1.77,0-2.41-1.07-1.29-2.75.48-1.07.96-2.27-1.29-2.51-1.61-.24-2.73-1.91-1.13-2.86.96-.72.96-2.03-.64-2.39-1.61-.48-2.57-2.51-.32-2.75,1.45-.12,1.77-1.19,0-2.03-1.77-.72-1.77-1.79-.16-2.03.96-.12,1.29-1.31.16-1.67-2.09-.72-1.29-2.39.32-2.75s1.61-1.79.64-2.39c-1.61-1.07-.48-2.63,1.13-2.87,2.25-.24,1.77-1.43,1.29-2.51-1.13-1.67-.48-2.75,1.29-2.75,2.25,0,2.09-1.55,1.77-2.27a1.959,1.959,0,0,1,2.57-2.63c1.13.36,2.41-1.19,1.93-1.91-1.45-2.39,1.29-2.51,2.57-2.03,3.38,1.43,2.73-.84,2.41-1.55-.16-.36,1.13-2.98,2.73-1.19,1.93,1.91,3.38-.84,3.21-.96-1.29-.72,2.25-3.34,3.22-1.31.64,1.43,3.7,1.07,3.38-.6-.48-1.67,2.73-2.27,3.38-.6.16.72,2.09,2.27,2.57.24.64-2.51,2.25-1.07,3.05,0,.8,1.19,2.73.6,2.89-.24.16-1.67,3.38-1.07,3.86.6a1.867,1.867,0,0,0,3.38.6c.97-1.31,4.5,1.19,3.22,1.31-.16,0,1.29,2.86,3.05.96,1.77-1.79,2.9.84,2.73,1.19-.16.72-.96,2.98,2.57,1.55,1.28-.48,4.02-.36,2.41,2.03-.48.72.96,2.27,2.09,1.91a1.981,1.981,0,0,1,2.57,2.63c-.32.72-.48,2.27,1.77,2.27,1.61,0,2.25,1.07,1.29,2.75-.64,1.07-.96,2.27,1.29,2.51,1.61.24,2.73,1.79,1.13,2.87a1.274,1.274,0,0,0,.48,2.39c1.77.36,2.41,1.91.48,2.75s-1.13,1.43,0,1.79C116.35,46.61,115.55,47.33,113.61,47.92Z" fill="#f8af26" fill-rule="evenodd"/><path d="M113.29,47.92c-1.45.36-1.77,1.31,0,1.79,2.09.48,1.29,2.27-.48,2.63a1.326,1.326,0,0,0-.64,2.39c1.77,1.07.64,2.63-.97,2.86-2.25.24-1.93,1.43-1.28,2.39.96,1.67.32,2.75-1.29,2.75-2.25,0-2.09,1.55-1.77,2.27a2.022,2.022,0,0,1-2.57,2.75c-1.13-.48-2.41,1.07-1.93,1.79,1.45,2.39-1.29,2.51-2.41,2.03-3.54-1.43-2.9.84-2.57,1.43.16.48-1.13,2.99-2.73,1.31-1.77-2.03-3.21.84-3.05.84,1.29.12-2.25,2.51-3.22,1.19a1.835,1.835,0,0,0-3.22.72c-.48,1.55-2.73,1.91-4.02.6-2.25-2.51-1.61,1.19-3.86,1.08-1.45.95-.96-3.82-4.02-1.08-1.29,1.19-3.38.96-3.86-.6a1.952,1.952,0,0,0-3.38-.72c-.97,1.31-4.34-1.07-3.06-1.19.16,0-1.29-2.86-3.05-.84-1.77,1.67-2.9-.84-2.73-1.31.16-.6.96-2.87-2.57-1.43-1.29.48-3.86.36-2.41-2.03.48-.72-.8-2.27-2.09-1.79A1.941,1.941,0,0,1,47.7,65c.32-.72.48-2.27-1.77-2.27-1.61,0-2.41-1.07-1.29-2.75.48-.96.96-2.15-1.29-2.39-1.61-.24-2.73-1.79-1.13-2.86a1.274,1.274,0,0,0-.48-2.39c-1.77-.36-2.57-2.51-.48-2.63,1.45-.12,1.77-1.19,0-2.03-1.61-.72-1.61-1.79-.16-1.91.96-.24,1.29-1.43.16-1.79-1.93-.6-1.29-2.27.48-2.63,1.45-.48,1.45-1.79.48-2.39-1.61-1.07-.48-2.63,1.13-2.87,2.25-.24,1.77-1.43,1.29-2.51-1.13-1.67-.32-2.63,1.29-2.63,2.25,0,2.09-1.55,1.77-2.27a1.944,1.944,0,0,1,2.41-2.75c1.29.48,2.57-1.07,2.09-1.79-1.45-2.39,1.13-2.51,2.41-2.03,3.54,1.43,2.73-.84,2.57-1.43-.16-.48.96-2.98,2.73-1.31,1.77,2.03,3.21-.84,3.05-.96-1.29-.72,2.09-3.22,3.06-1.31.8,1.43,3.86,1.19,3.38-.6-.48-1.55,2.73-2.15,3.38-.6.32.72,2.09,2.27,2.57.24.8-2.39,2.25-.95,3.05,0,.8,1.19,2.73.72,2.73-.24.32-1.55,3.54-.96,4.02.6a1.732,1.732,0,0,0,3.22.6c.97-1.31,4.5,1.31,3.22,1.31-.16,0,1.29,2.99,3.05.96,1.61-1.67,2.9.84,2.73,1.31-.32.6-.96,2.86,2.57,1.43,1.13-.48,3.86-.36,2.41,2.03-.48.72.8,2.27,1.93,1.79a2.017,2.017,0,0,1,2.57,2.75c-.32.72-.48,2.27,1.77,2.27,1.61,0,2.25.95,1.29,2.63-.64,1.07-.97,2.27,1.28,2.51,1.61.24,2.73,1.79.97,2.87-.8.6-.8,1.91.64,2.39,1.77.36,2.41,1.79.48,2.63-2.09.84-1.29,1.43-.16,1.79C116.03,46.61,115.22,47.33,113.29,47.92Z" fill="#f8b125" fill-rule="evenodd"/><path d="M112.97,47.92c-1.45.36-1.93,1.31,0,1.79s1.13,2.27-.48,2.63-1.61,1.67-.64,2.27c1.61,1.08.48,2.63-.97,2.87-2.25.24-1.93,1.43-1.28,2.39.96,1.67.32,2.75-1.29,2.75-2.25,0-2.09,1.55-1.77,2.15a1.96,1.96,0,0,1-2.41,2.74c-1.13-.36-2.57,1.08-2.09,1.79,1.45,2.39-1.13,2.51-2.41,2.03-3.38-1.43-2.73.84-2.41,1.43.16.48-1.13,2.87-2.73,1.19-1.77-1.91-3.22.96-3.06.96,1.29.12-2.09,2.51-3.06,1.19a1.931,1.931,0,0,0-3.38.6c-.48,1.67-2.57,1.91-3.86.6-2.25-2.39-1.61,1.19-3.86,1.07-1.45,1.07-.96-3.82-3.86-1.07-1.45,1.19-3.54,1.07-3.86-.6a1.941,1.941,0,0,0-3.38-.6c-.97,1.31-4.34-1.07-3.06-1.19.16,0-1.29-2.87-3.06-.96-1.61,1.67-2.89-.72-2.73-1.19.32-.6.96-2.86-2.41-1.43-1.29.48-3.86.36-2.41-2.03.32-.72-.96-2.15-2.09-1.79A1.936,1.936,0,0,1,48,64.77c.32-.6.48-2.15-1.77-2.15-1.61,0-2.25-1.07-1.29-2.75.64-.96.96-2.15-1.29-2.39-1.61-.24-2.57-1.79-.96-2.87a1.247,1.247,0,0,0-.64-2.27c-1.61-.36-2.57-2.51-.48-2.63,1.45-.12,1.77-1.19,0-2.03-1.61-.72-1.61-1.79-.16-1.91,1.13-.12,1.45-1.43.16-1.79-1.93-.6-1.13-2.27.48-2.63,1.45-.36,1.45-1.67.64-2.27-1.61-1.08-.64-2.63.96-2.87,2.25-.24,1.93-1.43,1.29-2.39-.96-1.67-.32-2.75,1.29-2.75,2.25,0,2.09-1.55,1.77-2.27a1.9,1.9,0,0,1,2.41-2.63c1.13.36,2.41-1.07,2.09-1.79-1.45-2.39,1.13-2.51,2.41-2.03,3.38,1.43,2.73-.84,2.41-1.43-.16-.48,1.13-2.98,2.73-1.19,1.77,1.91,3.22-.96,3.06-.96-1.29-.72,2.09-3.22,3.06-1.31.64,1.31,3.7,1.07,3.38-.6-.48-1.55,2.57-2.15,3.22-.6.32.72,2.09,2.15,2.73.24.64-2.51,2.09-.95,2.73,0,.97,1.19,2.9.72,2.9-.24.16-1.55,3.38-1.07,3.86.6a1.867,1.867,0,0,0,3.38.6c.97-1.31,4.34,1.19,3.06,1.31-.16,0,1.29,2.86,3.06.96,1.61-1.79,2.89.72,2.73,1.19-.32.6-.96,2.87,2.41,1.43,1.29-.48,3.86-.36,2.41,2.03-.48.72.96,2.15,2.09,1.79a1.916,1.916,0,0,1,2.41,2.63c-.32.72-.48,2.27,1.77,2.27,1.61,0,2.25,1.07,1.29,2.75-.65.95-.97,2.15,1.28,2.39,1.45.24,2.57,1.79.97,2.87-.97.6-.97,1.91.64,2.27s2.25,1.91.48,2.63c-2.09.84-1.29,1.43-.16,1.79C115.55,46.61,114.74,47.33,112.97,47.92Z" fill="#fcb623" fill-rule="evenodd"/><path d="M112.65,47.92c-1.45.36-1.93,1.31-.16,1.79,2.09.48,1.29,2.15-.32,2.51-1.61.48-1.61,1.79-.64,2.39,1.61.96.48,2.51-.96,2.75-2.25.24-1.93,1.43-1.29,2.39.96,1.67.32,2.63-1.29,2.63-2.25,0-2.09,1.55-1.77,2.27a1.92,1.92,0,0,1-2.41,2.63c-1.13-.36-2.41,1.07-1.93,1.79,1.45,2.39-1.29,2.51-2.41,2.03-3.38-1.43-2.73.84-2.57,1.43.16.36-.97,2.86-2.57,1.19-1.77-1.91-3.22.95-3.06.95,1.29,0-2.09,2.39-3.05,1.19a1.792,1.792,0,0,0-3.22.48,2.241,2.241,0,0,1-3.86.6c-2.25-2.39-1.61,1.19-3.86,1.07-1.45,1.07-.96-3.7-3.86-1.07-1.29,1.31-3.38,1.07-3.86-.6a1.791,1.791,0,0,0-3.22-.48c-.96,1.19-4.34-1.19-3.05-1.19.16,0-1.29-2.86-3.06-.95-1.61,1.67-2.89-.84-2.73-1.19.32-.6.96-2.86-2.41-1.43-1.29.48-3.86.36-2.41-2.03.48-.72-.8-2.15-1.93-1.79a1.892,1.892,0,0,1-2.41-2.63c.16-.72.48-2.27-1.77-2.27-1.61,0-2.25-.96-1.29-2.63.64-.95.96-2.15-1.29-2.39-1.45-.24-2.57-1.79-.96-2.75.96-.6.96-1.91-.64-2.39-1.61-.36-2.57-2.39-.32-2.51,1.29-.12,1.61-1.19,0-2.03-1.77-.72-1.77-1.79-.16-1.91a.906.906,0,0,0,.16-1.79c-2.09-.6-1.29-2.15.32-2.51C44,41,44,39.69,43.03,39.09c-1.61-.96-.48-2.51.96-2.75,2.25-.24,1.93-1.43,1.29-2.39-.96-1.67-.32-2.74,1.29-2.74,2.25,0,1.93-1.43,1.77-2.15a1.9,1.9,0,0,1,2.41-2.63c1.13.36,2.41-1.07,1.93-1.79-1.45-2.39,1.13-2.51,2.41-2.03,3.38,1.43,2.73-.84,2.41-1.43-.16-.36,1.13-2.87,2.73-1.19,1.77,1.91,3.22-.84,3.06-.95-1.29-.72,2.09-3.22,3.05-1.19.65,1.31,3.7.96,3.22-.6-.32-1.67,2.73-2.15,3.38-.6.16.6,1.93,2.15,2.57.12.64-2.39,2.09-.96,2.73.12.97,1.07,2.73.6,2.9-.24.16-1.67,3.38-1.07,3.86.6a1.807,1.807,0,0,0,3.22.6c.96-1.31,4.34,1.19,3.05,1.19-.16,0,1.29,2.86,3.06.95,1.61-1.67,2.73.84,2.57,1.19-.16.6-.8,2.87,2.57,1.43,1.13-.48,3.86-.36,2.41,2.03-.48.72.8,2.15,1.93,1.79a1.917,1.917,0,0,1,2.41,2.63c-.32.72-.48,2.15,1.77,2.15,1.61,0,2.25,1.07,1.29,2.74-.64.95-.96,2.15,1.29,2.39,1.45.24,2.57,1.79.96,2.75-.96.6-.96,1.91.64,2.39,1.61.36,2.25,1.79.32,2.51-1.93.84-1.13,1.55,0,1.79C115.22,46.61,114.42,47.33,112.65,47.92Z" fill="#fcb827" fill-rule="evenodd"/><path d="M56.06,24.29c1.29.6,2.73,2.63,4.66,3.58,1.45.72,2.25,1.19,3.38,1.19,2.73,0,8.52-3.7,10.77-4.89-1.61,1.67-4.82,5.13-4.82,7.04,0,2.03,3.38,5.37,4.99,6.92-2.25-1.08-7.07-3.94-9.65-3.94-2.73,0-7.72,2.99-9.97,4.06,1.13-.95,4.18-2.86,5.31-4.53a3.7,3.7,0,0,0,.8-2.63C61.52,29.06,57.66,25.96,56.06,24.29Z" fill="#fcb827" fill-rule="evenodd"/><path d="M57.5,25.25c1.13.6,2.25,2.27,4.02,3.1a5.206,5.206,0,0,0,2.9,1.07c2.41,0,7.24-3.1,9.16-4.06-1.29,1.31-4.02,4.3-4.02,5.97,0,1.79,2.89,4.65,4.18,5.97-1.93-.96-6.11-3.34-8.36-3.34s-6.59,2.51-8.52,3.46c.8-.84,3.54-2.51,4.5-4.06A3.126,3.126,0,0,0,62,31.21C62.01,29.42,58.79,26.68,57.5,25.25Z" fill="#f8b227" fill-rule="evenodd"/><path d="M58.79,26.32c.96.48,1.93,1.79,3.38,2.51a5.006,5.006,0,0,0,2.57.96c1.93,0,5.95-2.63,7.56-3.46-1.13,1.19-3.38,3.7-3.38,5.13s2.41,3.82,3.54,4.9c-1.77-.72-5.14-2.75-7.07-2.75s-5.63,2.15-7.07,2.87c.64-.72,2.89-2.15,3.7-3.34a5.908,5.908,0,0,0,.64-1.91C62.65,29.78,59.92,27.51,58.79,26.32Z" fill="#f5ae29" fill-rule="evenodd"/><path d="M60.08,27.27c.8.36,1.77,1.43,2.89,2.03a3.62,3.62,0,0,0,1.93.72c1.61,0,4.98-2.03,6.27-2.63-.96.96-2.73,2.98-2.89,4.06,0,1.19,1.93,3.1,2.73,4.06-1.28-.6-4.02-2.27-5.63-2.27s-4.5,1.67-5.79,2.27c.48-.6,2.25-1.67,3.06-2.75a7.46,7.46,0,0,0,.48-1.55C63.13,30.02,60.88,28.23,60.08,27.27Z" fill="#efa72c" fill-rule="evenodd"/><path d="M61.52,28.23a21.817,21.817,0,0,0,2.09,1.55,4.412,4.412,0,0,0,1.61.6c1.13,0,3.7-1.55,4.66-2.03-.64.84-2.09,2.27-2.09,3.22-.16.84,1.29,2.27,1.93,2.99-.97-.48-3.06-1.67-4.34-1.67-1.13,0-3.38,1.31-4.34,1.67.32-.48,1.61-1.31,2.09-2.15a5.46,5.46,0,0,0,.48-1.19C63.61,30.26,62.01,28.94,61.52,28.23Z" fill="#eda12f" fill-rule="evenodd"/><path d="M62.81,29.18c.48.12.8.72,1.45,1.07a6.74,6.74,0,0,0,1.13.36,13.97,13.97,0,0,0,3.21-1.19c-.48.48-1.45,1.55-1.45,2.15-.16.6.8,1.55,1.29,2.03-.8-.24-2.25-1.08-3.06-1.08a12.528,12.528,0,0,0-3.05,1.08c.16-.36,1.13-.96,1.45-1.43a8.011,8.011,0,0,1,.32-.95C64.09,30.62,63.13,29.66,62.81,29.18Z" fill="#e89932" fill-rule="evenodd"/><path d="M64.09,30.14c.32,0,.48.36.8.48a2.661,2.661,0,0,0,.64.24,4.145,4.145,0,0,0,1.77-.48,2.961,2.961,0,0,0-.8,1.31,3.079,3.079,0,0,0,.48,1.07,3.555,3.555,0,0,0-1.61-.6,9.7,9.7,0,0,0-1.77.48,5.1,5.1,0,0,0,.64-.84c.16-.24.16-.48.32-.6A2.094,2.094,0,0,0,64.09,30.14Z" fill="#de8b34" fill-rule="evenodd"/><path d="M65.38,31.81c.32,0,.64-.12.64-.36s-.32-.36-.64-.36-.48.12-.48.36S65.06,31.81,65.38,31.81Z" fill="#c96c38" fill-rule="evenodd"/><path d="M80.17,24.29c1.29.6,2.73,2.63,4.66,3.58a7.439,7.439,0,0,0,3.54,1.19c2.57,0,8.36-3.7,10.61-4.89-1.61,1.67-4.66,5.13-4.66,7.04,0,2.03,3.38,5.37,4.82,6.92-2.25-1.08-6.92-3.94-9.65-3.94s-7.72,2.99-9.81,4.06c.96-.95,4.02-2.86,5.31-4.53a4.381,4.381,0,0,0,.64-2.63C85.64,29.06,81.78,25.96,80.17,24.29Z" fill="#fcb827" fill-rule="evenodd"/><path d="M81.62,25.25c1.13.6,2.41,2.27,4.02,3.1a5.651,5.651,0,0,0,2.89,1.07c2.41,0,7.39-3.1,9.32-4.06-1.45,1.31-4.18,4.3-4.18,5.97,0,1.79,2.9,4.65,4.18,5.97-1.93-.96-5.95-3.34-8.36-3.34-2.25,0-6.59,2.51-8.52,3.46.96-.84,3.54-2.51,4.66-4.06a4.3,4.3,0,0,0,.64-2.15C86.28,29.42,82.91,26.68,81.62,25.25Z" fill="#f8b227" fill-rule="evenodd"/><path d="M82.91,26.32c.97.48,2.09,1.79,3.38,2.51a5.592,5.592,0,0,0,2.57.96c1.93,0,6.11-2.63,7.72-3.46-1.13,1.19-3.38,3.7-3.38,5.13-.16,1.43,2.25,3.82,3.38,4.9-1.61-.72-4.99-2.75-6.92-2.75-2.09,0-5.63,2.15-7.23,2.87.64-.72,2.89-2.15,3.7-3.34a3.572,3.572,0,0,0,.64-1.91C86.77,29.78,84.03,27.51,82.91,26.32Z" fill="#f5ae29" fill-rule="evenodd"/><path d="M84.35,27.27c.64.36,1.61,1.43,2.73,2.03a3.592,3.592,0,0,0,1.93.72c1.61,0,4.99-2.03,6.27-2.63-.97.96-2.73,2.98-2.73,4.06,0,1.19,1.77,3.1,2.73,4.06-1.45-.6-4.18-2.27-5.63-2.27-1.61,0-4.66,1.67-5.95,2.27.64-.6,2.41-1.67,3.06-2.75a3.27,3.27,0,0,0,.48-1.55C87.25,30.02,85.16,28.23,84.35,27.27Z" fill="#efa72c" fill-rule="evenodd"/><path d="M85.64,28.23c.64.24,1.29,1.08,2.09,1.55a5.794,5.794,0,0,0,1.61.6c1.29,0,3.7-1.55,4.66-2.03-.64.84-2.09,2.27-2.09,3.22,0,.84,1.29,2.27,1.93,2.99-.96-.48-3.06-1.67-4.18-1.67-1.29,0-3.54,1.31-4.5,1.67.32-.48,1.61-1.31,2.25-2.15a4.171,4.171,0,0,0,.32-1.19C87.73,30.26,86.28,28.94,85.64,28.23Z" fill="#eda12f" fill-rule="evenodd"/><path d="M86.93,29.18c.48.12.96.72,1.45,1.07a6.74,6.74,0,0,0,1.13.36c.96,0,2.57-.95,3.21-1.19-.48.48-1.45,1.55-1.45,2.15s.8,1.55,1.29,2.03a11.348,11.348,0,0,0-2.89-1.08c-.97,0-2.41.84-3.22,1.08a17.652,17.652,0,0,0,1.45-1.43,3.011,3.011,0,0,0,.32-.95C88.37,30.62,87.25,29.66,86.93,29.18Z" fill="#e89932" fill-rule="evenodd"/><path d="M88.21,30.14c.32,0,.64.36.96.48a1.4,1.4,0,0,0,.64.24c.48.12,1.28-.36,1.61-.48-.16.36-.64.96-.8,1.31a1.889,1.889,0,0,0,.64,1.07,5.794,5.794,0,0,0-1.61-.6,5.584,5.584,0,0,0-1.77.48c0-.24.32-.48.64-.84,0-.24.16-.48.16-.6C88.85,30.85,88.37,30.38,88.21,30.14Z" fill="#de8b34" fill-rule="evenodd"/><path d="M89.66,31.81q.48,0,.48-.36t-.48-.36c-.32,0-.64.12-.64.36S89.34,31.81,89.66,31.81Z" fill="#c96c38" fill-rule="evenodd"/><path d="M47.21,40.76c1.29.72,2.73,2.63,4.66,3.58,1.45.84,2.25,1.31,3.38,1.31,2.73,0,8.52-3.82,10.77-4.89-1.61,1.67-4.66,5.01-4.66,7.04,0,1.91,3.38,5.25,4.82,6.8-2.25-1.07-7.07-3.82-9.65-3.82-2.73,0-7.72,2.87-9.97,4.06,1.13-1.08,4.18-2.99,5.46-4.66a4,4,0,0,0,.65-2.51C52.68,45.65,48.82,42.43,47.21,40.76Z" fill="#fcb827" fill-rule="evenodd"/><path d="M48.66,41.84c1.13.6,2.41,2.15,4.02,3.1a6.331,6.331,0,0,0,2.89,1.07c2.41,0,7.24-3.22,9.17-4.18-1.28,1.43-4.02,4.3-4.02,6.09,0,1.67,2.89,4.54,4.18,5.85-1.93-.84-5.95-3.34-8.36-3.34-2.25,0-6.59,2.51-8.52,3.46.96-.84,3.54-2.51,4.5-3.94a5.175,5.175,0,0,0,.8-2.27C53.32,46.01,49.95,43.27,48.66,41.84Z" fill="#f8b227" fill-rule="evenodd"/><path d="M49.95,42.79c.96.48,2.09,1.91,3.38,2.63a6.844,6.844,0,0,0,2.57.84c1.93,0,6.11-2.63,7.72-3.34-1.13,1.19-3.38,3.58-3.54,5.01,0,1.43,2.41,3.82,3.54,5.01-1.77-.84-5.14-2.87-7.07-2.87s-5.47,2.15-7.07,2.87c.64-.72,2.89-2.03,3.7-3.34a3.291,3.291,0,0,0,.64-1.91C53.81,46.25,51.07,43.98,49.95,42.79Z" fill="#f5ae29" fill-rule="evenodd"/><path d="M51.23,43.74c.8.36,1.77,1.55,2.89,2.03a5.539,5.539,0,0,0,1.93.84c1.61,0,4.99-2.15,6.27-2.75-.97.95-2.73,2.99-2.73,4.18-.16,1.07,1.77,2.98,2.73,3.94-1.45-.6-4.18-2.27-5.79-2.27-1.45,0-4.5,1.79-5.79,2.27a23.074,23.074,0,0,0,3.06-2.75,3.27,3.27,0,0,0,.48-1.55C54.29,46.49,52.2,44.7,51.23,43.74Z" fill="#efa72c" fill-rule="evenodd"/><path d="M52.68,44.7c.48.24,1.29,1.07,2.09,1.55a3.5,3.5,0,0,0,1.61.6c1.13,0,3.7-1.55,4.66-1.91-.65.72-2.09,2.27-2.09,3.1-.16.96,1.29,2.39,1.93,2.98-.96-.36-3.06-1.67-4.18-1.67-1.29,0-3.54,1.31-4.5,1.79.32-.48,1.61-1.43,2.09-2.15a6.114,6.114,0,0,0,.48-1.31C54.77,46.85,53.16,45.42,52.68,44.7Z" fill="#eda12f" fill-rule="evenodd"/><path d="M53.97,45.65a13.113,13.113,0,0,1,1.45,1.07,2.548,2.548,0,0,0,1.13.36c.8.12,2.57-.95,3.22-1.19-.48.6-1.45,1.67-1.45,2.27s.8,1.55,1.29,2.03a9.463,9.463,0,0,0-2.89-1.08,8.746,8.746,0,0,0-3.22,1.08c.16-.36,1.13-.96,1.45-1.55a8.938,8.938,0,0,1,.32-.96C55.25,47.09,54.29,46.13,53.97,45.65Z" fill="#e89932" fill-rule="evenodd"/><path d="M55.25,46.61a4.21,4.21,0,0,1,.96.6,2.708,2.708,0,0,0,.64.24c.48,0,1.29-.48,1.61-.48-.16.24-.8.84-.8,1.19a2.336,2.336,0,0,0,.48,1.07,7.42,7.42,0,0,0-1.45-.6,5.362,5.362,0,0,0-1.77.6c0-.24.32-.6.48-.96.16-.24.16-.48.32-.6A2.323,2.323,0,0,0,55.25,46.61Z" fill="#de8b34" fill-rule="evenodd"/><path d="M56.54,48.28c.32,0,.64-.12.64-.36s-.32-.36-.64-.36c-.16,0-.48.12-.48.36S56.38,48.28,56.54,48.28Z" fill="#c96c38" fill-rule="evenodd"/><path d="M87.57,40.52c1.29.6,2.73,2.63,4.66,3.58a6.911,6.911,0,0,0,3.38,1.19c2.73,0,8.36-3.7,10.61-4.89-1.45,1.67-4.66,5.13-4.66,7.04,0,2.03,3.38,5.37,4.98,6.92-2.41-1.07-7.07-3.94-9.81-3.94-2.57,0-7.72,2.98-9.81,4.06.96-.96,4.02-2.86,5.3-4.54a4.61,4.61,0,0,0,.81-2.63C93.04,45.3,89.02,42.19,87.57,40.52Z" fill="#fcb827" fill-rule="evenodd"/><path d="M88.85,41.48c1.13.6,2.41,2.27,4.02,3.1a6.119,6.119,0,0,0,3.05,1.07c2.25,0,7.24-3.1,9.17-4.06-1.29,1.31-4.02,4.3-4.02,5.97,0,1.79,2.73,4.66,4.18,5.97-2.09-.96-6.11-3.34-8.36-3.34-2.41,0-6.75,2.51-8.52,3.46.8-.84,3.38-2.51,4.5-4.06a3.126,3.126,0,0,0,.64-2.15C93.52,45.65,90.14,42.91,88.85,41.48Z" fill="#f8b227" fill-rule="evenodd"/><path d="M90.3,42.55a29.935,29.935,0,0,0,3.38,2.51,4.523,4.523,0,0,0,2.41.95c2.09,0,6.11-2.63,7.72-3.46-1.13,1.19-3.38,3.7-3.38,5.13s2.41,3.82,3.54,4.89c-1.77-.72-5.14-2.74-7.07-2.74s-5.63,2.15-7.24,2.86a35.469,35.469,0,0,0,3.86-3.34A3.184,3.184,0,0,0,94,47.44C94,46.01,91.27,43.74,90.3,42.55Z" fill="#f5ae29" fill-rule="evenodd"/><path d="M91.59,43.51c.8.36,1.61,1.43,2.73,2.03a4.088,4.088,0,0,0,2.09.72c1.61,0,4.82-2.03,6.11-2.63-.81.96-2.73,2.98-2.73,4.06,0,1.19,1.93,3.1,2.73,4.06-1.29-.6-4.02-2.27-5.63-2.27s-4.5,1.67-5.79,2.27c.48-.6,2.25-1.67,2.9-2.74a2.127,2.127,0,0,0,.48-1.55C94.64,46.25,92.39,44.46,91.59,43.51Z" fill="#efa72c" fill-rule="evenodd"/><path d="M92.88,44.46c.64.24,1.29,1.07,2.09,1.55a5.794,5.794,0,0,0,1.61.6c1.28,0,3.7-1.55,4.66-2.03-.65.84-1.93,2.27-2.09,3.22,0,.84,1.45,2.27,2.09,2.98-1.13-.48-3.22-1.67-4.34-1.67-1.29,0-3.54,1.31-4.5,1.67a12.408,12.408,0,0,0,2.25-2.15,1.862,1.862,0,0,0,.32-1.19C95.13,46.49,93.52,45.18,92.88,44.46Z" fill="#eda12f" fill-rule="evenodd"/><path d="M94.32,45.42c.32.12.8.72,1.45,1.07.48.12.65.36,1.13.36.8,0,2.41-.95,3.06-1.19a11.26,11.26,0,0,0-1.45,2.15c0,.6.96,1.55,1.29,2.03a11.33,11.33,0,0,0-2.89-1.07,13.185,13.185,0,0,0-3.06,1.07c.16-.36.96-.95,1.29-1.43a1.3,1.3,0,0,0,.32-.96C95.61,46.85,94.64,45.89,94.32,45.42Z" fill="#e89932" fill-rule="evenodd"/><path d="M95.61,46.37c.16,0,.48.36.8.48a2.661,2.661,0,0,0,.64.24,4.145,4.145,0,0,0,1.77-.48,7.734,7.734,0,0,0-.97,1.31c0,.24.48.84.64,1.07a4.412,4.412,0,0,0-1.61-.6,9.7,9.7,0,0,0-1.77.48c0-.24.48-.48.64-.84a1.027,1.027,0,0,0,.16-.6C96.09,47.09,95.61,46.61,95.61,46.37Z" fill="#de8b34" fill-rule="evenodd"/><path d="M96.89,48.04c.32,0,.64-.12.64-.36s-.32-.36-.64-.36-.64.12-.64.36S96.57,48.04,96.89,48.04Z" fill="#c96c38" fill-rule="evenodd"/><path d="M56.86,56.16c1.29.72,2.73,2.63,4.66,3.58a7.2,7.2,0,0,0,3.38,1.31c2.73,0,8.36-3.82,10.61-4.9-1.45,1.55-4.66,5.01-4.66,6.92,0,2.03,3.38,5.37,4.98,6.92-2.41-1.07-7.07-3.94-9.81-3.94-2.57,0-7.72,2.98-9.81,4.06.96-.95,4.02-2.86,5.3-4.53a4.631,4.631,0,0,0,.81-2.63C62.33,61.05,58.31,57.83,56.86,56.16Z" fill="#fcb827" fill-rule="evenodd"/><path d="M58.15,57.23c1.13.48,2.41,2.15,4.02,3.1a7.161,7.161,0,0,0,3.05.95c2.25.12,7.24-3.1,9.17-4.06-1.29,1.43-4.02,4.3-4.02,5.97,0,1.79,2.89,4.66,4.18,5.97-2.09-.96-6.11-3.34-8.36-3.34s-6.75,2.51-8.52,3.46c.8-.84,3.54-2.51,4.5-3.94a3.417,3.417,0,0,0,.64-2.27C62.81,61.41,59.59,58.66,58.15,57.23Z" fill="#f8b227" fill-rule="evenodd"/><path d="M59.59,58.19c.96.48,1.93,1.79,3.38,2.63a5.452,5.452,0,0,0,2.41.84c2.09,0,6.11-2.63,7.72-3.46-1.13,1.31-3.38,3.7-3.38,5.13s2.41,3.82,3.54,5.01c-1.77-.84-5.14-2.86-7.07-2.86s-5.63,2.15-7.24,2.86c.8-.72,2.89-2.03,3.86-3.34a3.023,3.023,0,0,0,.48-1.91C63.45,61.65,60.56,59.38,59.59,58.19Z" fill="#f5ae29" fill-rule="evenodd"/><path d="M60.88,59.14c.8.36,1.61,1.43,2.73,2.03a4.088,4.088,0,0,0,2.09.72c1.61.12,4.82-2.03,6.11-2.63-.8.95-2.73,2.98-2.73,4.18,0,1.07,1.93,2.98,2.73,3.94-1.28-.6-4.02-2.27-5.63-2.27s-4.5,1.67-5.79,2.27c.48-.6,2.25-1.67,2.9-2.75a2.127,2.127,0,0,0,.48-1.55C63.93,61.89,61.68,60.1,60.88,59.14Z" fill="#efa72c" fill-rule="evenodd"/><path d="M62.17,60.1c.64.24,1.29,1.07,2.25,1.55a2.983,2.983,0,0,0,1.45.6c1.28,0,3.7-1.55,4.66-1.91a10.035,10.035,0,0,0-2.09,3.1c0,.84,1.45,2.27,2.09,2.98-1.13-.48-3.06-1.67-4.34-1.67s-3.54,1.31-4.5,1.67a17.185,17.185,0,0,0,2.25-2.03,5.928,5.928,0,0,0,.48-1.31C64.42,62.24,62.81,60.81,62.17,60.1Z" fill="#eda12f" fill-rule="evenodd"/><path d="M63.61,61.05c.32.12.8.72,1.45,1.07a2.585,2.585,0,0,0,1.13.36c.8.12,2.57-.96,3.22-1.19a7.871,7.871,0,0,0-1.61,2.27c0,.6.96,1.55,1.29,2.03A8.342,8.342,0,0,0,66.2,64.4a13.185,13.185,0,0,0-3.06,1.07c.16-.24.96-.95,1.45-1.43a8.012,8.012,0,0,1,.32-.95C64.9,62.48,63.93,61.53,63.61,61.05Z" fill="#e89932" fill-rule="evenodd"/><path d="M64.9,62.01a3.5,3.5,0,0,0,.8.48,2.661,2.661,0,0,0,.64.24c.48.12,1.45-.36,1.77-.36a2.154,2.154,0,0,0-.8,1.19c-.16.36.32.84.48,1.07a5.865,5.865,0,0,0-1.61-.6c-.48,0-1.29.48-1.77.48a2.537,2.537,0,0,0,.64-.84c.16-.24.16-.48.32-.6C65.38,62.72,64.9,62.24,64.9,62.01Z" fill="#de8b34" fill-rule="evenodd"/><path d="M66.19,63.68c.32,0,.64-.12.64-.36s-.32-.36-.64-.36-.48.12-.48.36S65.87,63.68,66.19,63.68Z" fill="#c96c38" fill-rule="evenodd"/><path d="M81.78,56.75c1.29.6,2.73,2.63,4.66,3.58a6.911,6.911,0,0,0,3.38,1.19c2.73,0,8.52-3.7,10.77-4.89-1.6,1.67-4.82,5.13-4.82,7.04,0,2.03,3.38,5.37,4.99,6.92-2.41-1.08-7.07-3.94-9.65-3.94-2.73,0-7.88,2.99-9.97,4.06.96-.95,4.18-2.86,5.3-4.53a3.7,3.7,0,0,0,.8-2.63C87.25,61.53,83.39,58.43,81.78,56.75Z" fill="#fcb827" fill-rule="evenodd"/><path d="M83.07,57.71c1.13.6,2.41,2.27,4.18,3.1a5.2,5.2,0,0,0,2.89,1.07c2.41,0,7.24-3.1,9.17-4.06-1.29,1.31-4.02,4.3-4.02,5.97,0,1.79,2.89,4.65,4.18,5.97-1.93-.96-6.11-3.34-8.36-3.34s-6.59,2.51-8.52,3.46c.8-.84,3.54-2.51,4.5-4.06a3.126,3.126,0,0,0,.64-2.15C87.73,61.89,84.51,59.14,83.07,57.71Z" fill="#f8b227" fill-rule="evenodd"/><path d="M84.51,58.78c.96.48,1.93,1.79,3.38,2.51a4.555,4.555,0,0,0,2.57.96c1.93,0,5.95-2.63,7.56-3.46-1.13,1.19-3.38,3.7-3.38,5.13s2.41,3.82,3.54,4.89c-1.77-.72-5.14-2.75-7.07-2.75s-5.63,2.15-7.07,2.87c.65-.72,2.73-2.15,3.7-3.34a3.2,3.2,0,0,0,.48-1.91C88.37,62.24,85.64,59.98,84.51,58.78Z" fill="#f5ae29" fill-rule="evenodd"/><path d="M85.8,59.74c.8.36,1.61,1.43,2.73,2.03a4.652,4.652,0,0,0,2.09.72c1.6,0,4.82-2.03,6.11-2.63-.8.96-2.57,2.98-2.73,4.06,0,1.19,1.93,3.1,2.73,4.06-1.28-.6-4.02-2.27-5.63-2.27s-4.5,1.67-5.79,2.27c.48-.6,2.25-1.67,2.9-2.75a3.757,3.757,0,0,0,.64-1.55C88.85,62.48,86.6,60.69,85.8,59.74Z" fill="#efa72c" fill-rule="evenodd"/><path d="M87.09,60.69c.64.24,1.28,1.07,2.25,1.55a4.964,4.964,0,0,0,1.45.6c1.29,0,3.86-1.55,4.82-2.03-.8.84-2.09,2.27-2.25,3.22,0,.84,1.45,2.27,2.09,2.99-1.13-.48-3.06-1.67-4.34-1.67-1.13,0-3.38,1.31-4.5,1.67a12.408,12.408,0,0,0,2.25-2.15,5.46,5.46,0,0,0,.48-1.19C89.34,62.72,87.73,61.41,87.09,60.69Z" fill="#eda12f" fill-rule="evenodd"/><path d="M88.53,61.65c.32.12.8.72,1.45,1.07a6.74,6.74,0,0,0,1.13.36,14.225,14.225,0,0,0,3.22-1.19c-.48.48-1.45,1.55-1.45,2.15-.16.6.8,1.55,1.29,2.03-.8-.24-2.25-1.07-3.06-1.07a12.945,12.945,0,0,0-3.05,1.07,9.349,9.349,0,0,1,1.45-1.43,8.012,8.012,0,0,1,.32-.95C89.82,63.08,88.85,62.13,88.53,61.65Z" fill="#e89932" fill-rule="evenodd"/><path d="M89.82,62.6c.32,0,.48.36.8.48a2.661,2.661,0,0,0,.64.24,4.145,4.145,0,0,0,1.77-.48c-.32.36-.81.96-.81,1.31-.16.24.32.84.48,1.07a3.555,3.555,0,0,0-1.61-.6,9.922,9.922,0,0,0-1.77.48,5.1,5.1,0,0,0,.64-.84c.16-.24.16-.48.32-.6A2.21,2.21,0,0,0,89.82,62.6Z" fill="#de8b34" fill-rule="evenodd"/><path d="M91.1,64.27c.32,0,.65-.12.65-.36s-.32-.36-.65-.36-.48.12-.48.36S90.78,64.27,91.1,64.27Z" fill="#c96c38" fill-rule="evenodd"/><path d="M68.28,40.16c1.29.72,2.73,2.63,4.66,3.7a7.439,7.439,0,0,0,3.54,1.19c2.57,0,8.36-3.7,10.61-4.89-1.61,1.67-4.66,5.01-4.66,7.04s3.38,5.25,4.98,6.92c-2.41-1.07-7.07-3.94-9.81-3.94s-7.72,2.98-9.81,4.06c.96-1.07,4.02-2.86,5.31-4.65a4.045,4.045,0,0,0,.64-2.51C73.74,45.06,69.88,41.84,68.28,40.16Z" fill="#fcb827" fill-rule="evenodd"/><path d="M69.72,41.24c1.13.6,2.41,2.27,4.02,3.1,1.29.6,1.93,1.07,2.89,1.07,2.41,0,7.39-3.22,9.33-4.18-1.45,1.43-4.18,4.42-4.18,6.09s2.9,4.54,4.34,5.97c-2.09-.95-6.11-3.46-8.36-3.46-2.41,0-6.75,2.63-8.52,3.46.8-.84,3.38-2.39,4.5-3.94a4.373,4.373,0,0,0,.64-2.27C74.39,45.42,71.01,42.67,69.72,41.24Z" fill="#f8b227" fill-rule="evenodd"/><path d="M71.01,42.19c.97.48,2.09,1.91,3.38,2.63a6.844,6.844,0,0,0,2.57.84c1.93.12,6.11-2.63,7.72-3.34-1.13,1.19-3.38,3.58-3.38,5.13-.16,1.43,2.25,3.7,3.38,4.89-1.61-.72-4.99-2.74-6.92-2.74-2.09,0-5.63,2.03-7.23,2.86.64-.84,2.89-2.15,3.7-3.46a3.291,3.291,0,0,0,.64-1.91C74.87,45.65,72.13,43.39,71.01,42.19Z" fill="#f5ae29" fill-rule="evenodd"/><path d="M72.46,43.15c.64.36,1.61,1.55,2.73,2.15a4.842,4.842,0,0,0,2.09.72c1.45,0,4.82-2.03,6.11-2.75-.96,1.07-2.73,2.98-2.73,4.18s1.77,3.1,2.73,3.94c-1.45-.6-4.18-2.15-5.63-2.15-1.61,0-4.66,1.67-5.79,2.27.48-.6,2.25-1.79,2.89-2.74a3.692,3.692,0,0,0,.48-1.67C75.35,46.01,73.26,44.1,72.46,43.15Z" fill="#efa72c" fill-rule="evenodd"/><path d="M73.74,44.1a23.665,23.665,0,0,0,2.09,1.55,3.539,3.539,0,0,0,1.61.6c1.29.12,3.7-1.43,4.66-1.91-.64.72-2.09,2.27-2.09,3.1,0,.96,1.28,2.39,1.93,3.1-.96-.48-3.05-1.67-4.18-1.67-1.28,0-3.54,1.19-4.5,1.67.32-.48,1.61-1.31,2.25-2.15a4.849,4.849,0,0,0,.32-1.31C75.83,46.25,74.39,44.82,73.74,44.1Z" fill="#eda12f" fill-rule="evenodd"/><path d="M75.03,45.06c.48.24.96.84,1.61,1.07a3.5,3.5,0,0,0,.97.48c.96,0,2.57-.96,3.21-1.19-.48.48-1.45,1.55-1.45,2.15s.97,1.55,1.29,2.03a8.125,8.125,0,0,0-2.89-1.07c-.96,0-2.41.84-3.22,1.07A9.553,9.553,0,0,0,76,48.05a2.274,2.274,0,0,0,.32-.96C76.48,46.49,75.35,45.53,75.03,45.06Z" fill="#e89932" fill-rule="evenodd"/><path d="M76.32,46.01a4.21,4.21,0,0,1,.96.6,1.4,1.4,0,0,0,.64.24,5.868,5.868,0,0,0,1.61-.48c-.16.36-.64.84-.8,1.19,0,.36.48.84.64,1.07a8.2,8.2,0,0,0-1.61-.48,7.121,7.121,0,0,0-1.77.48c0-.24.48-.6.64-.96,0-.24.16-.36.16-.6C76.96,46.73,76.48,46.25,76.32,46.01Z" fill="#de8b34" fill-rule="evenodd"/><path d="M77.76,47.8a.461.461,0,0,0,.48-.48.454.454,0,0,0-.48-.36c-.32,0-.64.24-.64.36C77.12,47.56,77.44,47.8,77.76,47.8Z" fill="#c96c38" fill-rule="evenodd"/><ellipse cx="30.55" cy="26.32" rx="30.55" ry="26.32" transform="translate(47.91 21.52)" fill="#fcb827" opacity="0.53"/><path d="M38.66,38.66a3.548,3.548,0,0,1,.38-.7c1.81-2.18,3.71-4.05,5.97-4.7a5.5,5.5,0,0,1,3.76.26c1.38.58,1.94,2.26,2.46,3.96.07.23-.13.67-.2,1.02-.22-.08-.49-.08-.64-.27-.61-.72-1.07-1.75-1.78-2.2-1.73-1.1-3.66-.56-5.55.94a29.857,29.857,0,0,0-2.8,2.82c-.44.46-.88.77-1.32.43C38.58,39.94,38.5,39.44,38.66,38.66Z" fill="#231f20"/><path d="M30.02,22.47a5.188,5.188,0,0,1,2.88-.21,2.792,2.792,0,0,1,1.97,1.66,6.279,6.279,0,0,1-2.18,7.35,8.061,8.061,0,0,1-2.01.81c-.32.1-.45.19-.48.54a3.748,3.748,0,0,0,.47,2.77,3.48,3.48,0,0,1,.31,2.18,15.614,15.614,0,0,1-.23,1.69,6.536,6.536,0,0,1-5.13,4.29,8.964,8.964,0,0,1-4.63-.17,3.664,3.664,0,0,1-2.19-1.76A9.6,9.6,0,0,0,16.9,39c-.3-.26-.41-.74-.71-.99-.81-.69-1.66-1.33-2.51-1.97-.76-.58-1.55-1.12-2.3-1.71a9,9,0,0,1-2.63-3.39,4.775,4.775,0,0,1-.04-3.25c.16-.65.47-1.26.64-1.91a2.81,2.81,0,0,0-.02-1.04,2.732,2.732,0,0,1,1.14-2.95,2.846,2.846,0,0,0,1.18-2.04c.6-2.91,1.58-3.37,3.92-3.74a21.453,21.453,0,0,1,3.59-.1,16.909,16.909,0,0,1,5.11.64,15.306,15.306,0,0,1,3.27,1.31,5.784,5.784,0,0,1,2.42,4.2C29.97,22.17,29.99,22.28,30.02,22.47Zm-9.17-1.79a8.129,8.129,0,0,1,7.86,1.94c-.02-.24-.03-.42-.05-.59A6.824,6.824,0,0,0,27,19.02a2.4,2.4,0,0,0-.94-.76,20.035,20.035,0,0,0-2.19-.72,23.661,23.661,0,0,0-7.21-.59c-2.71.05-3.45.72-3.77,3.15a2.977,2.977,0,0,1-1.52,2.51,1.62,1.62,0,0,0-.73,1.85c.03.2.08.41.12.61a2.464,2.464,0,0,1-.34,2.04,4.968,4.968,0,0,0-.56,1.16,2.741,2.741,0,0,0,.17,2.49,12.008,12.008,0,0,0,2.78,2.73c1.06.84,2.12,1.67,3.16,2.52.37.31.67.72,1.06,1,1.23.89,2.49,1.74,3.74,2.59a.6.6,0,0,0,.4.11,12.016,12.016,0,0,0,3.84-1.2,7.926,7.926,0,0,0,3.67-3.36,6.888,6.888,0,0,0,.78-2.74c-.65-.2-1.25-.39-1.97-.61a6,6,0,0,0-.85,1.12,4.129,4.129,0,0,1-2.81,2.31,10.624,10.624,0,0,1-1.49.3,7.133,7.133,0,0,1-4.43-.66,1.726,1.726,0,0,1-.35-2.84,3.983,3.983,0,0,1,2.91-.97,2.62,2.62,0,0,1,.64.24c-.02.07-.04.15-.06.22a5.805,5.805,0,0,1-.59,0,3.32,3.32,0,0,0-2.07.59,1.414,1.414,0,0,0-.8,1.43c.06.66.64.81,1.12.95a7.977,7.977,0,0,0,5.34-.3,3.062,3.062,0,0,0,1.92-2.8,3.9,3.9,0,0,0-2.95-4.23c-.77-.22-1.58-.33-2.37-.48-.54-.11-1.08-.21-1.62-.31.01-.06.01-.11.02-.17a7.4,7.4,0,0,1,4.85.06c2.11.76,2.99,2.51,3.3,4.74a9.143,9.143,0,0,0,1.72-3.05,5.409,5.409,0,0,0-.61-3.9,3.152,3.152,0,0,0-1.59-1.75c-1.3-.52-2.63-.95-3.97-1.35A11.912,11.912,0,0,0,20.85,20.68Zm7.54,10.33a1.778,1.778,0,0,0,1.56.16,5.161,5.161,0,0,0,4.36-5.68c-.12-.78-.21-1.67-1.03-2.08-1.37-.68-2.71-.28-4.13.22C30.67,26.32,30.16,28.74,28.39,31.01Zm-8.91,9.11c.49.94.91,1.81,1.89,2.16a7.267,7.267,0,0,0,5.51-.41,5.371,5.371,0,0,0,3.08-3.8,3.255,3.255,0,0,0-.4-2.88.251.251,0,0,0-.09.04,1.132,1.132,0,0,0-.1.13,9.983,9.983,0,0,1-6.95,4.98c-.44.09-.88.18-1.31.31-.55.16-1.07.3-1.37-.39C19.73,40.21,19.64,40.2,19.48,40.12Z"/><path d="M20.85,20.68a13.316,13.316,0,0,1,1.91.28c1.34.4,2.68.83,3.97,1.35a3.152,3.152,0,0,1,1.59,1.75,5.468,5.468,0,0,1,.61,3.9,9.32,9.32,0,0,1-1.72,3.05c-.31-2.24-1.19-3.99-3.3-4.74a7.4,7.4,0,0,0-4.85-.06c-.01.06-.01.11-.02.17.54.1,1.08.21,1.62.31.79.16,1.59.26,2.37.48a3.909,3.909,0,0,1,2.95,4.23,3.052,3.052,0,0,1-1.92,2.8,8.039,8.039,0,0,1-5.34.3c-.48-.14-1.06-.3-1.12-.95a1.429,1.429,0,0,1,.8-1.43,3.32,3.32,0,0,1,2.07-.59,5.8,5.8,0,0,0,.59,0c.02-.07.04-.15.06-.22a2.62,2.62,0,0,0-.64-.24,3.983,3.983,0,0,0-2.91.97,1.726,1.726,0,0,0,.35,2.84,7.214,7.214,0,0,0,4.43.66,9.593,9.593,0,0,0,1.49-.3,4.108,4.108,0,0,0,2.81-2.31,5.783,5.783,0,0,1,.85-1.12c.72.22,1.32.41,1.97.61a6.888,6.888,0,0,1-.78,2.74,7.926,7.926,0,0,1-3.67,3.36,12.1,12.1,0,0,1-3.84,1.2.583.583,0,0,1-.4-.11c-1.25-.86-2.51-1.71-3.74-2.59-.39-.28-.69-.69-1.06-1-1.04-.85-2.1-1.69-3.16-2.52a12.207,12.207,0,0,1-2.78-2.73,2.739,2.739,0,0,1-.17-2.49,4.443,4.443,0,0,1,.56-1.16,2.47,2.47,0,0,0,.34-2.04c-.04-.2-.09-.4-.12-.61a1.625,1.625,0,0,1,.73-1.85,2.99,2.99,0,0,0,1.52-2.51c.32-2.43,1.06-3.1,3.77-3.15a23.661,23.661,0,0,1,7.21.59,20.767,20.767,0,0,1,2.19.72,2.384,2.384,0,0,1,.94.76,6.879,6.879,0,0,1,1.66,3.01c.03.17.03.35.05.59A8.135,8.135,0,0,0,20.85,20.68Z" fill="#fff"/><path d="M28.39,31.01c1.77-2.27,2.28-4.69.75-7.38,1.42-.51,2.76-.91,4.13-.22.82.41.92,1.3,1.03,2.08a5.153,5.153,0,0,1-4.36,5.68A1.762,1.762,0,0,1,28.39,31.01Z" fill="#fff"/><path d="M19.48,40.12c.15.08.25.09.27.14.3.69.83.55,1.37.39.43-.12.87-.21,1.31-.31a9.975,9.975,0,0,0,6.95-4.98.642.642,0,0,1,.1-.13.251.251,0,0,1,.09-.04,3.287,3.287,0,0,1,.4,2.88,5.419,5.419,0,0,1-3.08,3.8,7.267,7.267,0,0,1-5.51.41C20.4,41.93,19.97,41.06,19.48,40.12Z" fill="#fff"/><path d="M121.74,57.97a21.972,21.972,0,0,0,4.07-4.38c1.14-1.61-1.83-1.99-2.95-1.69a6.089,6.089,0,0,0-1.83.84c-.49.32-1.18.85-1.81.71.06-.16.32-.17.46-.23a1.724,1.724,0,0,0,.49-.36,1.691,1.691,0,0,0,.47-1.1,1.746,1.746,0,0,0-1.06-1.64,4.476,4.476,0,0,1-.72-.28.545.545,0,0,1-.26-.66.675.675,0,0,1,.33-.27,11.244,11.244,0,0,0,1.41-.64,1.346,1.346,0,0,0,.69-1.29c-.09-.47-.53-.78-.93-1.05-.37-.24-.74-.49-1.1-.73.05.04.41-.09.49-.11.18-.03.36-.07.54-.09.36-.05.72-.09,1.09-.11s.73-.03,1.09-.02a2.693,2.693,0,0,0,.4-.03c.68-.1,1.36-.17,2.04-.22,1.55-.12,3.11-.16,4.66-.18,4.27-.05,8.99.34,11.97,3.4a5.627,5.627,0,0,1,1.58,2.8,6.412,6.412,0,0,1-1.36,4.74c-3.73,5.38-10.78,7.25-17.29,7.92a3.361,3.361,0,0,1-1.64-.11,1.17,1.17,0,0,1-.75-1.31"/><path d="M65.55,49.5c.45-.36.91-.72,1.33-1.06a21.959,21.959,0,0,1-1.01-5.05,28.668,28.668,0,0,1,.5-7.34,24.436,24.436,0,0,1,.86-3.26,9.9,9.9,0,0,1,4.41-5.42,3.722,3.722,0,0,1,5.45,1.94,15.632,15.632,0,0,1,.95,6.5,36.8,36.8,0,0,1-1.26,7.8c-.11.38-.28.75-.44,1.16.3-.02.56-.04.83-.06a.689.689,0,0,0,.03.08,1.945,1.945,0,0,1-.3.13,36.7,36.7,0,0,0-9.54,4,12.868,12.868,0,0,1-1.33.69,1.587,1.587,0,0,1-.39.08C65.61,49.62,65.58,49.56,65.55,49.5ZM77.06,38.35c.06-.72.09-1.3.16-1.89a14.083,14.083,0,0,0-1.1-6.88,1.977,1.977,0,0,0-1.48-1.18,3.853,3.853,0,0,0-3.51,1.08,7.974,7.974,0,0,0-2.84,4.76,6.839,6.839,0,0,1-.23.89,22.719,22.719,0,0,0-.99,10.09c.12.92.31,1.82.47,2.7,1.65-.8,3.2-1.56,4.75-2.32-.1-.19-.23-.41-.34-.65a6.765,6.765,0,0,1-.31-4.21,7.638,7.638,0,0,1,.93-2.56c1.07-1.68,2.6-2.18,4.02-.48C76.74,37.88,76.85,38.06,77.06,38.35Zm-2.98-.52c-.82.61-.9,1.49-1.24,2.24a1.357,1.357,0,0,0,1.94-.51,1.285,1.285,0,0,0,.07-.96C74.72,38.3,74.37,38.1,74.08,37.83Z"/><path d="M77.06,38.35c-.21-.29-.33-.48-.46-.64-1.42-1.7-2.95-1.2-4.02.48a7.56,7.56,0,0,0-.93,2.56,6.76,6.76,0,0,0,.31,4.21c.1.23.24.45.34.65-1.56.76-3.11,1.51-4.75,2.32-.15-.88-.35-1.79-.47-2.7a22.719,22.719,0,0,1,.99-10.09,6.841,6.841,0,0,0,.23-.89,8,8,0,0,1,2.84-4.76,3.844,3.844,0,0,1,3.51-1.08,1.96,1.96,0,0,1,1.48,1.18,14.12,14.12,0,0,1,1.1,6.88C77.16,37.05,77.12,37.64,77.06,38.35Z" fill="#fff"/><path d="M74.08,37.83c.28.27.64.47.77.76a1.285,1.285,0,0,1-.07.96,1.357,1.357,0,0,1-1.94.51C73.18,39.32,73.27,38.44,74.08,37.83Z" fill="#fff"/><path d="M103.66,66.86a3.692,3.692,0,0,1-3.7-.26c-2.12-1.13-2.7-3.05-2.67-5.27a.975.975,0,0,0-.1-.57,6.616,6.616,0,0,1-.67-6.82c1.12-2.69,3.32-4.29,5.85-5.51a15.131,15.131,0,0,1,4.82-1.31,6.533,6.533,0,0,1,4.01.91,8.261,8.261,0,0,1,3.84,4.65c.53,1.55,1.04,3.11,1.6,4.78.15-.3.25-.51.36-.7.88-1.51,2.66-1.31,3.74-.77a2.526,2.526,0,0,0,.54.28,4.735,4.735,0,0,1,2.79,1.82,6.65,6.65,0,0,1,1.62,3.81,5.692,5.692,0,0,1-.29,2.59c-.2.48-.23,1.04-.45,1.51a4.014,4.014,0,0,1-3.62,2.21,14.839,14.839,0,0,1-2.47-.23,1.251,1.251,0,0,0-.7.09,7.351,7.351,0,0,1-5.89.78,1.6,1.6,0,0,0-1.45.19,4.952,4.952,0,0,1-6.51-1.34C104.1,67.4,103.87,67.14,103.66,66.86Zm6.67.99c-.06-.09-.13-.17-.18-.26-.24-.43-.51-.86-.71-1.32-.07-.16.04-.4.06-.6a2.266,2.266,0,0,1,.58.23c.17.13.25.37.41.52a4.967,4.967,0,0,0,1.17.99,7.068,7.068,0,0,0,4.53.37,17.546,17.546,0,0,0,3.27-1.39.5.5,0,0,0,.2-.18c.44-.95.88-1.9,1.31-2.85.77-1.69-.73-4.82-3.25-4.59-.28.03-.56,0-.84.02a.878.878,0,0,1-1.02-.71c-.54-1.67-1.12-3.32-1.69-4.98a6.636,6.636,0,0,0-2.87-3.69,6.252,6.252,0,0,0-4.12-1.06,13.414,13.414,0,0,0-6.44,2.43,8.39,8.39,0,0,0-3.28,4.03,5.951,5.951,0,0,0,.27,4.75c1.35-2.06,2.21-3.04,2.87-3.14-.38.71-.68,1.38-1.07,1.98a5.359,5.359,0,0,0-.93,4.11,3.73,3.73,0,0,0,2.85,3.27,2.714,2.714,0,0,0,1.82.09c.03-.48.04-.92.07-1.36a8.987,8.987,0,0,1,1.09-3.35c.09-.19.37-.28.57-.42a2.092,2.092,0,0,1,.02.61c-.14.55-.36,1.09-.48,1.65-.3,1.39-.53,2.68.58,4A4.316,4.316,0,0,0,110.33,67.85Zm10-.8c2.62-.11,3.85-1.21,4.17-3.66a8.367,8.367,0,0,0,.01-1.66,5.174,5.174,0,0,0-5.5-4.87,1.832,1.832,0,0,0-1.51.95,5.737,5.737,0,0,0,1.1.28,3.061,3.061,0,0,1,1.84.94,5.534,5.534,0,0,1,1.07,6.1A19.142,19.142,0,0,1,120.33,67.05Z"/><path d="M110.33,67.85a4.32,4.32,0,0,1-5.22-.86c-1.11-1.32-.88-2.61-.58-4,.12-.56.34-1.09.48-1.65a2.1,2.1,0,0,0-.02-.61c-.19.14-.47.23-.57.42a9.046,9.046,0,0,0-1.09,3.35c-.03.44-.05.88-.07,1.36a2.776,2.776,0,0,1-1.82-.09,3.73,3.73,0,0,1-2.85-3.27,5.411,5.411,0,0,1,.93-4.11c.4-.6.69-1.27,1.07-1.98-.66.1-1.52,1.08-2.87,3.14a5.913,5.913,0,0,1-.27-4.75,8.39,8.39,0,0,1,3.28-4.03,13.452,13.452,0,0,1,6.44-2.43,6.31,6.31,0,0,1,4.12,1.06,6.759,6.759,0,0,1,2.87,3.69c.57,1.66,1.16,3.31,1.69,4.98a.878.878,0,0,0,1.02.71c.28-.02.56.01.84-.02,2.52-.23,4.02,2.9,3.25,4.59-.43.95-.87,1.9-1.31,2.85a.389.389,0,0,1-.2.18,17.94,17.94,0,0,1-3.27,1.39,7.136,7.136,0,0,1-4.53-.37,5.175,5.175,0,0,1-1.17-.99c-.16-.15-.24-.39-.41-.52a2.13,2.13,0,0,0-.58-.23c-.03.2-.13.44-.06.6a14,14,0,0,0,.71,1.32C110.21,67.68,110.27,67.76,110.33,67.85Z" fill="#fff"/><path d="M120.33,67.05a20.228,20.228,0,0,0,1.18-1.91,5.548,5.548,0,0,0-1.07-6.1,3.089,3.089,0,0,0-1.84-.94,5.737,5.737,0,0,1-1.1-.28,1.832,1.832,0,0,1,1.51-.95,5.168,5.168,0,0,1,5.5,4.87,8.371,8.371,0,0,1-.01,1.66C124.19,65.84,122.95,66.94,120.33,67.05Z" fill="#fff"/><path d="M85.74,56.45a9.288,9.288,0,0,1-1.06.12c-1.41.01-2.83.01-4.31.01.06.23.08.37.13.5a22.791,22.791,0,0,1,1.32,5.52,15.889,15.889,0,0,1,.05,5.67,5.889,5.889,0,0,1-4.4,4.54,2.475,2.475,0,0,1-1.32-.07,17.44,17.44,0,0,1-5.92-3.37c-.61-.51-1.22-1.03-1.84-1.54a.754.754,0,0,0-.4-.12,2.865,2.865,0,0,1-2.1-1.3c-.32-.47-.62-.94-.96-1.39a.643.643,0,0,0-.35-.17,1.465,1.465,0,0,0-.29.02c-.3.01-.69.1-.71-.34-.02-.42.38-.42.67-.45a17.658,17.658,0,0,0,5.34-.96,20.307,20.307,0,0,0,5.02-2.86,9.142,9.142,0,0,0,2.43-3.09c.64-1.3.63-1.32,2.06-1.33,1.59-.02,3.19-.04,4.78.01a11.019,11.019,0,0,1,1.87.36A1.928,1.928,0,0,1,85.74,56.45ZM66.2,64.78a10.013,10.013,0,0,1,.66,1.03,1.6,1.6,0,0,0,1.45.96,7.841,7.841,0,0,0,2.21-.34,15.212,15.212,0,0,0,5.49-3.24,15.535,15.535,0,0,0,3.38-4.18,1.643,1.643,0,0,0,.18-1.7c-.11-.2-.22-.53-.36-.54-.35-.03-.75-.15-1.04.28a21.836,21.836,0,0,1-1.73,2.32,17.952,17.952,0,0,1-7.63,4.82C67.98,64.45,67.1,64.57,66.2,64.78Zm14.03-5.47a20.444,20.444,0,0,1-10.79,8.4c1.97,1.39,3.7,3.14,6.16,3.89a6.317,6.317,0,0,1-.51-4.16,3.5,3.5,0,0,1,2.73-2.9c.47-.14,1.04,0,1.49-.18a6.225,6.225,0,0,0,1.28-.93c.03-.02.07-.02.09-.04.09-.13.25-.28.23-.4C80.69,61.77,80.46,60.54,80.23,59.31ZM77.04,71.97a5.708,5.708,0,0,0,3.3-2.48,6.607,6.607,0,0,0,.75-3.87c-.05-.53-.07-1.07-.1-1.69a4.376,4.376,0,0,0-2.21,4.88,1.4,1.4,0,0,1-.75-1.74,18.231,18.231,0,0,1,.6-1.91c-.3.11-.6.19-.87.32a2.519,2.519,0,0,0-1.46,1.4,4.68,4.68,0,0,0,.01,3.49C76.54,70.9,76.79,71.41,77.04,71.97Z"/><path d="M66.2,64.78c.9-.21,1.78-.34,2.61-.62a17.8,17.8,0,0,0,7.63-4.82,19.689,19.689,0,0,0,1.73-2.32c.29-.43.69-.31,1.04-.28.14.01.25.35.36.54a1.64,1.64,0,0,1-.18,1.7,15.535,15.535,0,0,1-3.38,4.18,15.071,15.071,0,0,1-5.49,3.24,7.9,7.9,0,0,1-2.21.34,1.6,1.6,0,0,1-1.45-.96C66.67,65.45,66.42,65.12,66.2,64.78Z" fill="#fff"/><path d="M80.23,59.31c.23,1.23.47,2.45.67,3.69.02.12-.15.27-.23.4-.01.02-.06.02-.09.04a5.967,5.967,0,0,1-1.28.93c-.45.18-1.01.04-1.49.18a3.5,3.5,0,0,0-2.73,2.9,6.317,6.317,0,0,0,.51,4.16c-2.46-.75-4.19-2.5-6.16-3.89A20.448,20.448,0,0,0,80.23,59.31Z"/><path d="M77.04,71.97c-.26-.56-.51-1.07-.73-1.6a4.779,4.779,0,0,1-.01-3.49,2.578,2.578,0,0,1,1.46-1.4c.27-.13.57-.21.87-.32a18.231,18.231,0,0,0-.6,1.91,1.391,1.391,0,0,0,.75,1.74,4.363,4.363,0,0,1,2.21-4.88c.04.62.06,1.16.1,1.69a6.607,6.607,0,0,1-.75,3.87A5.647,5.647,0,0,1,77.04,71.97Z" fill="#e06c75"/><path d="M51.82,63.02c.26-.38.51-.77.75-1.13a30.823,30.823,0,0,1-1.26-4.78,40.361,40.361,0,0,1-.54-7.1,30.919,30.919,0,0,1,.18-3.21,9.612,9.612,0,0,1,2.26-5.56c1.22-1.33,2.98-.68,3.8,1.43a21.9,21.9,0,0,1,1.39,6.17,49.51,49.51,0,0,1,.09,7.6c-.03.38-.1.74-.15,1.15.19-.05.36-.09.54-.13.01.03.02.05.03.08-.06.05-.12.11-.18.15a20.728,20.728,0,0,0-5.79,4.62,8.191,8.191,0,0,1-.79.77.72.72,0,0,1-.24.1A.507.507,0,0,1,51.82,63.02Zm6.24-11.64c-.05-.69-.09-1.26-.12-1.83a19.556,19.556,0,0,0-1.53-6.53,1.537,1.537,0,0,0-1.11-1.01c-.96-.22-1.63.45-2.18,1.32a8.87,8.87,0,0,0-1.3,4.8,8.458,8.458,0,0,1-.05.87,31.624,31.624,0,0,0,.54,9.78c.19.87.42,1.73.63,2.56.99-.9,1.92-1.76,2.85-2.61-.09-.18-.2-.38-.3-.6a9.5,9.5,0,0,1-.7-4.03,9.383,9.383,0,0,1,.31-2.53c.51-1.7,1.45-2.31,2.59-.78C57.79,50.94,57.89,51.11,58.06,51.38Zm-2.01-.27a5.258,5.258,0,0,0-.55,2.25c.58.31,1.06.07,1.21-.65a1.727,1.727,0,0,0-.07-.93A2.814,2.814,0,0,0,56.05,51.11Z"/><path d="M58.06,51.38c-.17-.26-.27-.43-.38-.58-1.13-1.52-2.08-.91-2.59.78a9.854,9.854,0,0,0-.31,2.53,9.559,9.559,0,0,0,.7,4.03c.1.22.21.42.3.6-.93.85-1.86,1.71-2.85,2.61-.21-.84-.44-1.69-.63-2.56a32.25,32.25,0,0,1-.54-9.78,8.458,8.458,0,0,0,.05-.87,8.87,8.87,0,0,1,1.3-4.8c.54-.87,1.22-1.54,2.18-1.32a1.524,1.524,0,0,1,1.11,1.01,19.556,19.556,0,0,1,1.53,6.53C57.97,50.12,58.02,50.68,58.06,51.38Z" fill="#fff"/><path d="M56.05,51.11c.22.24.48.4.59.67a1.727,1.727,0,0,1,.07.93c-.15.71-.64.96-1.21.65A5.186,5.186,0,0,1,56.05,51.11Z" fill="#fff"/><path d="M63.92,14.33a19.549,19.549,0,0,0-4.25,7.25,69.022,69.022,0,0,0-2.42,8.93c.52-1.11,1.03-2.22,1.55-3.34,1.6-3.44,3.28-7.03,5.52-9.51a10.432,10.432,0,0,1,1.81-1.62c.64-.45,1.3-.67,1.93-1.14a2.856,2.856,0,0,0,1.16-1.44c.16-.78-.69-.81-1-.86A5.106,5.106,0,0,0,63.92,14.33Z" fill="#231f20"/><path d="M57.92,40.96c2.39,9.21,9.68,14.89,16.29,12.67s10.02-11.49,7.63-20.7S72.16,18.04,65.55,20.26,55.53,31.75,57.92,40.96Zm2.88-.64c-1.86-7.16.8-14.36,5.93-16.08s10.8,2.68,12.65,9.84-.8,14.36-5.93,16.08S62.65,47.48,60.8,40.32Z" fill="#231f20"/><path d="M40.63,58.22c1.73,8.44,7.55,13.5,12.98,11.32s8.43-10.79,6.7-19.22S52.76,36.82,47.33,39,38.9,49.79,40.63,58.22Zm2.36-.65c-1.35-6.55.98-13.24,5.2-14.93s8.74,2.24,10.08,8.8-.98,13.24-5.2,14.93S44.34,64.13,42.99,57.57Z" fill="#231f20"/><path d="M126.49,39.54a2.594,2.594,0,0,1-1.68,1.81.989.989,0,0,1-.45.04c-.31-.08-.48-.4-.64-.69a5.96,5.96,0,0,0-2.8-2.61,12.112,12.112,0,0,0-2.59-.71c-1.77-.29-3.53-.66-5.29-.97-1.78-.31-3.55-.61-5.33-.89s-3.56-.55-5.35-.81-3.57-.5-5.36-.73-3.58-.44-5.37-.64-3.58-.39-5.38-.56c-.9-.09-1.79-.17-2.69-.25a4.6,4.6,0,0,1-1.23-.14,1.854,1.854,0,0,0-.33-.12,2.191,2.191,0,0,0-.57.04,1.514,1.514,0,0,1-.52.01,2.667,2.667,0,0,1-1.6-1.47,9.924,9.924,0,0,1-1.06-3.84,3.3,3.3,0,0,1,2.06.13c.46.19.77.57,1.26.71a43.946,43.946,0,0,0,5.51.9c1.97.32,3.95.65,5.92.97q5.925.975,11.85,1.94c2.96.49,5.93.97,8.89,1.46l3.85.63a11.37,11.37,0,0,0,2.32.32,8.127,8.127,0,0,1,4.19.99,4.637,4.637,0,0,1,2.47,3.04A3.048,3.048,0,0,1,126.49,39.54Z" fill="#231f20"/><path d="M60.61,43.03a1.75,1.75,0,0,0-2.26.56,5.179,5.179,0,0,0-.79,2.42.958.958,0,0,0,.04.58c.21.41.82.3,1.25.13s.84-.33,1.26-.5a3.014,3.014,0,0,0,1.71-1.21c.33-.63-.07-1.63-.78-1.57" fill="#231f20"/><path d="M92.85,26.37c-.5-.03-1.08-.11-1.3-.41-.23-.32.1-.71.56-.87a4.258,4.258,0,0,1,1.52-.13c.72,0,1.45.04,2.17.07.82.04,1.64.1,2.45.22a11.328,11.328,0,0,1,1.16.23,1.473,1.473,0,0,1,.28.08c.06.03.11.07.17.1.21.08.43.14.65.2.16.05.34.13.35.3a.267.267,0,0,1-.18.25.7.7,0,0,1-.32.05q-.81.015-1.62,0a2.992,2.992,0,0,1-.52-.01.425.425,0,0,0-.11-.02c-.22,0-.45.01-.67.01-.89.02-1.77.01-2.66,0C94.15,26.44,93.5,26.41,92.85,26.37Z" fill="#fcb827"/></g></svg>