<svg xmlns="http://www.w3.org/2000/svg" xmlns:xlink="http://www.w3.org/1999/xlink" width="61.931" height="119.133" viewBox="0 0 61.931 119.133"><defs><clipPath id="a"><path d="M58.64,102.03c1.72.17,2.47-.19,2.58,1.72.08,1.47-.44,2.77-.34,4.3a23.764,23.764,0,0,0,1.34,7.44c1.02,2.28,1.73,5.55.76,8.08-.64,1.67-1.37,1.25-3.13,1.34-1.42.07-2.84.36-4.3.34-2.29-.03-4.74-.22-5.17-2.74a11.546,11.546,0,0,1,.05-3.57c.25-1.22,1.2-2.02,1.51-3.14.55-2.03.24-5.16.34-7.22a15.2,15.2,0,0,0-.04-3.57c-.25-1.17-1.32-2.08-1.14-3.28a11.415,11.415,0,0,0,2.36-.17,47.372,47.372,0,0,0,.92,8.7c.31,1.51.46,2.82.65,4.52.23,2.07,1.17,1.83,3.07,1.52,1.15-1.82.03-5.09-.15-7.02-.21-2.36-.03-4.92-.15-7.2a8.15,8.15,0,0,1,.86-.19.62.62,0,0,1,.49.33"/></clipPath></defs><g transform="translate(-9.903 -6.395)"><path d="M57.37,77.21c-.58,1.15.19,2.23.46,3.34q.81,3.3,1.67,6.58a30.285,30.285,0,0,0,2.46,7.43,4.5,4.5,0,0,1,.27.78c.08.24-.2.21-.4.24-.96.12-1.92.23-2.87.34a.9.9,0,0,0-.05.16c-.01,1.07-.03,2.13-.03,3.2,0,.13.13.26.2.38.03.06.1.14.08.18a2.333,2.333,0,0,0-.13,1.66,11.106,11.106,0,0,1-.15,3.59,1.887,1.887,0,0,1-1.41,1.42,6.341,6.341,0,0,1-2.12.51c-1.45-.01-2.74-.65-2.91-1.64a32.6,32.6,0,0,1-.26-3.55c-.02-.36.11-.71.11-1.07a.432.432,0,0,0-.29-.49.732.732,0,0,1-.33-.63c0-.63.07-1.27.13-1.9.04-.5.09-.99.14-1.49.02-.22-.09-.32-.42-.3-.84.05-1.68.1-2.56.15-.11.8-.2,1.53-.3,2.26-.04.29-.06.59-.09.88a.562.562,0,0,0,.02.34c.23.41.17.49-.48.55-.07.01-.13.02-.23.03,0,.43-.03.85.01,1.28a10.982,10.982,0,0,1-.32,3.78c-.18.71-1.64,1.5-2.76,1.5a12.109,12.109,0,0,1-3.09-.37c-.76-.2-1.31-.72-1.31-1.28,0-.82-.02-1.65.01-2.47a7.561,7.561,0,0,1,.16-.91c.09-.49.18-.99.27-1.47-.48-.16-.58-.4-.47-.77a5.148,5.148,0,0,0,.09-.88c.11-.97.24-1.94.37-2.99-.88-.22-1.76-.45-2.65-.67-.38-.1-.45-.26-.21-.47a.416.416,0,0,0,.14-.16c.77-2.12,1.52-4.24,2.29-6.36a52.013,52.013,0,0,0,2.56-9.4.945.945,0,0,0-.03-.37c-1.23,2.88-2.99,5.65-3.69,8.67h-.91c.04.6.1,1.16.11,1.72a5.254,5.254,0,0,1-.12,1.18.738.738,0,0,1-.75.56.894.894,0,0,1-.9-.43,8.46,8.46,0,0,1-.41-.79,4.635,4.635,0,0,0-.1,1.11,1.527,1.527,0,0,1-.58,1.24,1.892,1.892,0,0,1-1.79.16,1.19,1.19,0,0,0-.36-.17,2.275,2.275,0,0,1-2.06-2.04,3.651,3.651,0,0,1,1.14-3.45c-.46-.14-.34-.36-.19-.57.81-1.11,1.61-2.23,2.44-3.34.98-1.3,1.98-2.59,2.96-3.88a5.116,5.116,0,0,0,.39-.73.958.958,0,0,1,.17-.24,36.767,36.767,0,0,1,4.04-3.42,23.375,23.375,0,0,1,4.43-2.38,12.193,12.193,0,0,1,4.49-.97,8.485,8.485,0,0,1,5.79,1.88c.65.57,1.32,1.13,1.9,1.73a8.142,8.142,0,0,1,.77,1.17,7.873,7.873,0,0,0,.98,1.21,24,24,0,0,1,5.18,6.47c.31.61.54,1.23.84,1.85a1.361,1.361,0,0,0,.46.63c.61.34.69.87,1.03,1.29a3.894,3.894,0,0,1,.89,2.2,3.578,3.578,0,0,1-2.53,3.24,3.688,3.688,0,0,1-1.2.12.7.7,0,0,1-.47-.37c-.16-.39-.21-.8-.37-1.19-.22-.53-.5-1.04-.75-1.56a1.225,1.225,0,0,1-.19.02c-.07.31-.13.63-.21.94a1.462,1.462,0,0,1-.12.33.82.82,0,0,1-.9.46c-.42-.04-.76-.28-.76-.62a11.334,11.334,0,0,1,.12-1.42c.05-.42.14-.83.22-1.27-.61-.08-.58-.45-.76-.72-.16-.25,0-.64-.62-.72-.04,0-.08-.19-.05-.2.43-.17.19-.39.11-.58-1.01-2.5-2.03-4.99-3.04-7.49C57.48,77.56,57.42,77.37,57.37,77.21ZM44.78,84.59a.9.9,0,0,0-.07.11,23.925,23.925,0,0,1-2.75,5.91,1.23,1.23,0,0,0-.14.53c-.16,1.44-.31,2.89-.47,4.33-.14,1.26-.28,2.53-.44,3.79-.03.22.09.3.4.33a36.151,36.151,0,0,0,6.33.14c.32-.02.42-.1.44-.31.12-1.03.3-2.05.37-3.08.12-1.7.17-3.4.25-5.09.04-.79.11-1.58.16-2.37.01-.15.05-.32-.27-.38-.07-.01-.17-.13-.15-.18a.349.349,0,0,1,.24-.18,1.883,1.883,0,0,1,.53.01,6.916,6.916,0,0,0,2.83-.13,1.67,1.67,0,0,1,.38-.06c.25,0,.35.07.25.26a1.156,1.156,0,0,0-.12.51c.01.37.09.75.07,1.12-.1,2.99-.23,5.98-.33,8.97a7.718,7.718,0,0,0,.12,1.04c2.03-.14,4.01.04,5.97-.29,0-.54.01-1.06,0-1.59-.03-1.76-.06-3.51-.12-5.27a1.656,1.656,0,0,0-.29-.98,22.016,22.016,0,0,1-3.49-6.48c-.21-.59-.22-.59-1.09-.5s-1.27-.13-1.28-.73v-.51c.01-.34-.16-.42-.65-.39-.9.06-1.81.1-2.71.15-.22.01-.45,0-.74,0,0,.4.01.75,0,1.1-.01.27.16.35.54.34,1.04-.02,2.08-.02,3.13-.03.15,0,.3.01.45.02.01.05.02.09.03.14a6.742,6.742,0,0,1-1.09.2c-.97.03-1.95.01-2.93.03-.37.01-.68-.01-.64-.34C46.59,84.68,45.7,84.64,44.78,84.59Zm21.41.05c-.36-.77-.66-1.53-1.09-2.26a27.205,27.205,0,0,0-4.18-5.12c-.52-.53-1-1.09-1.45-1.65-.36-.45-.63-.95-.99-1.4a12.052,12.052,0,0,0-2.83-2.3,6.019,6.019,0,0,0-2.43-.85,13.568,13.568,0,0,0,.15,1.84,6.279,6.279,0,0,1-.2,3.07,2.439,2.439,0,0,0,.01.97c.02.17.23.33.25.5a12.815,12.815,0,0,0,.06,1.39c.35,1.68.68,3.36,1.16,5.02a22.952,22.952,0,0,0,5.7,9.85c.3.3.61.6.91.9.05-.02.1-.03.16-.05-.09-.21-.18-.43-.28-.64a31.985,31.985,0,0,1-2.03-6.53c-.6-2.3-1.17-4.61-1.77-6.92-.33-1.28-.94-2.55-.55-3.87a1.453,1.453,0,0,1,.18-.32c.13.08.27.15.4.23.42.28.4.68.55,1.03,1.07,2.57,2.14,5.13,3.21,7.7.06.15.13.29.2.44A18.871,18.871,0,0,0,66.19,84.64Zm-27.1.63c.05-.1.09-.17.13-.25,1.12-2.4,2.24-4.81,3.36-7.21a4.662,4.662,0,0,0,.33-.62c.07-.24.04-.5.1-.74.03-.11.17-.2.27-.3.09.12.26.23.26.35a5.315,5.315,0,0,1-.03,1.26,52.568,52.568,0,0,1-1.07,5.37c-.77,2.61-1.75,5.2-2.66,7.8-.33.96-.7,1.91-1.04,2.87a1.3,1.3,0,0,0,.5-.4A23.455,23.455,0,0,0,44.6,83.17a47.8,47.8,0,0,0,1.11-6.45c.12-1.22.2-2.44.31-3.66.02-.25.06-.49.1-.81-.28.12-.5.19-.69.29a22.663,22.663,0,0,0-5.52,4.01c-.16.17-.35.33-.52.5a14.406,14.406,0,0,0-1.15,1.21c-1.02,1.33-2,2.68-3.01,4.02-.47.62-.96,1.23-1.48,1.89A29.915,29.915,0,0,0,39.09,85.27Zm14.57-2.46c-.02-.15-.02-.24-.04-.32-.2-1.03-.42-2.06-.61-3.09-.1-.54-.15-1.08-.21-1.62a17.184,17.184,0,0,1-.15-1.89c.02-.57.25-1.14.25-1.72,0-1.01-.11-2.01-.19-3.02a.367.367,0,0,0-.26-.22,7.392,7.392,0,0,0-1.48-.08,12.96,12.96,0,0,0-3.9.94.565.565,0,0,0-.31.34c-.15,1.08-.26,2.16-.4,3.24-.17,1.34-.35,2.68-.54,4.01-.07.54-.17,1.08-.26,1.62s-.19,1.07-.28,1.57C48.09,83.17,50.87,82.69,53.66,82.81Zm-6.55,17.42h-.48c-1.38-.03-2.77-.05-4.15-.11-.74-.03-.8-.04-.97.45-.07.2-.13.39-.18.59a10.3,10.3,0,0,0-.27,3.94,1.012,1.012,0,0,0,.86.8,10.573,10.573,0,0,0,2.68.38c.96-.01,2.22-.58,2.35-1.26.11-.57.19-1.14.25-1.72a8.838,8.838,0,0,0,.1-1.45A11.685,11.685,0,0,0,47.11,100.23Zm5.65.05a2.729,2.729,0,0,0,.2.61c.1.17.22.3-.06.43-.05.02-.06.1-.05.15.03,1.12.03,2.24.1,3.36a1.48,1.48,0,0,0,.8,1.31,4.044,4.044,0,0,0,4.15-.42.708.708,0,0,0,.18-.28,8.02,8.02,0,0,0,.34-1.57c.04-1.17-.01-2.35-.03-3.52a.968.968,0,0,0-.04-.22ZM32.85,88.37a4.163,4.163,0,0,0,1,2.84c-.6-1.3-.65-2.34-.03-2.59a2.042,2.042,0,0,0,0,.35c.12.62.22,1.25.39,1.87a.673.673,0,0,0,.82.44,1.01,1.01,0,0,0,.65-.64c.13-.68.11-1.38.18-2.07.03-.33.12-.65.18-.98.55.08.64.26.64.56a5.157,5.157,0,0,0,.27,1.44c.05.16.36.28.55.41.17-.17.35-.33.52-.5.03-.03.02-.09.02-.13-.06-.87-.12-1.74-.18-2.55-1.64-.32-3.19-.63-4.77-.94-1.6,1.38-1.71,4.11-.11,4.98A2.575,2.575,0,0,1,32.85,88.37Zm16.48.29q-.1,3.45-.22,6.99c.95-.06,1.9-.12,2.93-.18v-6.9C51.12,88.61,50.24,88.63,49.33,88.66Zm13.92-.33c.06-.03.12-.05.18-.08a5.253,5.253,0,0,1,1.02,1.04,23.975,23.975,0,0,1,.9,2.25,1.917,1.917,0,0,0,.3.42,1.3,1.3,0,0,0,.97-1.32,4.419,4.419,0,0,0-.57-2.26c-.05-.08.01-.19.02-.29.12.06.29.09.36.17a1.217,1.217,0,0,1,.25.4,4.1,4.1,0,0,1,.26,2.67c.24-.14.49-.3.55-.49a3.446,3.446,0,0,0-.14-2.67c-.04-.07.03-.17.05-.27.13.05.33.07.38.14a1.263,1.263,0,0,1,.24.58c.03.54.01,1.09.01,1.63a2.37,2.37,0,0,0,.19-2.75,19.018,19.018,0,0,0-1.13-1.74,13.138,13.138,0,0,1-4.42,1.52.454.454,0,0,0-.3.27,7.3,7.3,0,0,0-.18,1.04,12.465,12.465,0,0,0-.12,1.49c0,.12.23.24.35.36.12-.08.29-.14.36-.24a1.14,1.14,0,0,0,.16-.42C63.06,89.31,63.15,88.82,63.25,88.33ZM32.97,85.32a29.173,29.173,0,0,0,5.88,1.09c.03-.27.05-.5.06-.66-1.83-.41-3.61-.8-5.43-1.21Q33.27,84.87,32.97,85.32Zm28.47.77c.08.2.15.36.2.53.06.22.21.35.57.27.72-.15,1.46-.27,2.14-.47.88-.27,1.71-.61,2.63-.94-.34-.19-.57-.31-.79-.44A15.564,15.564,0,0,1,61.44,86.09ZM41.37,91.68c-.03-.01-.06-.01-.1-.02-.81.97-1.62,1.94-2.41,2.89.69.19,1.36.38,2.06.57C41.06,93.99,41.21,92.84,41.37,91.68Zm19.79,3.51-2.28-2.37v2.7Q60.185,95.325,61.16,95.19ZM44.87,84.22c.94.04,1.79.08,2.67.12V83.25c-.42-.02-.84-.03-1.26-.07-.27-.03-.52-.13-.79-.17a.486.486,0,0,0-.3.09C45.06,83.49,44.97,83.88,44.87,84.22Zm7.83.15,1.46-.06c-.13-.43-.26-.84-.39-1.25l-1.07.19Z" stroke="#000" stroke-miterlimit="10" stroke-width="0.25"/><path d="M44.78,84.59c.92.04,1.81.08,2.74.13-.04.33.27.35.64.34.98-.01,1.95.01,2.93-.03a6.743,6.743,0,0,0,1.09-.2c-.01-.05-.02-.09-.03-.14-.15-.01-.3-.02-.45-.02-1.04.01-2.08.01-3.13.03-.38.01-.55-.07-.54-.34.02-.35,0-.7,0-1.1.29,0,.52.01.74,0,.9-.04,1.81-.08,2.71-.15.48-.03.65.05.65.39,0,.17-.01.34,0,.51.02.6.4.82,1.28.73s.88-.08,1.09.5a22.016,22.016,0,0,0,3.49,6.48,1.656,1.656,0,0,1,.29.98c.06,1.76.09,3.51.12,5.27.01.52,0,1.04,0,1.59-1.95.32-3.93.15-5.97.29a6.383,6.383,0,0,1-.12-1.04c.1-2.99.23-5.98.33-8.97.01-.37-.07-.75-.07-1.12a1.156,1.156,0,0,1,.12-.51c.1-.19,0-.26-.25-.26a1.209,1.209,0,0,0-.38.06,6.908,6.908,0,0,1-2.83.13,1.89,1.89,0,0,0-.53-.01.38.38,0,0,0-.24.18c-.02.05.08.17.15.18.32.06.28.23.27.38-.05.79-.12,1.58-.16,2.37-.09,1.7-.14,3.4-.25,5.09-.07,1.03-.25,2.05-.37,3.08-.02.21-.13.29-.44.31a37.15,37.15,0,0,1-6.33-.14c-.3-.03-.42-.12-.4-.33.15-1.26.3-2.53.44-3.79.16-1.44.31-2.89.47-4.33a1.23,1.23,0,0,1,.14-.53,23.6,23.6,0,0,0,2.75-5.91C44.72,84.68,44.75,84.65,44.78,84.59Z" fill="#a67c52"/><path d="M66.19,84.64a19.2,19.2,0,0,1-4.87,1.04c-.07-.15-.14-.3-.2-.44-1.07-2.57-2.14-5.13-3.21-7.7-.15-.35-.13-.75-.55-1.03-.12-.08-.27-.16-.4-.23a1.722,1.722,0,0,0-.18.32c-.39,1.33.21,2.59.55,3.87.6,2.3,1.17,4.61,1.77,6.92a31.375,31.375,0,0,0,2.03,6.53c.11.21.19.43.28.64-.05.02-.1.03-.16.05-.3-.3-.61-.6-.91-.9a22.952,22.952,0,0,1-5.7-9.85c-.47-1.66-.8-3.34-1.16-5.02a12.927,12.927,0,0,1-.06-1.39c-.02-.17-.22-.33-.25-.5a2.268,2.268,0,0,1-.01-.97,6.279,6.279,0,0,0,.2-3.07,13.436,13.436,0,0,1-.15-1.84,5.926,5.926,0,0,1,2.43.85,11.616,11.616,0,0,1,2.83,2.3c.36.45.63.95.99,1.4.45.56.93,1.12,1.45,1.65a27.205,27.205,0,0,1,4.18,5.12A22.3,22.3,0,0,1,66.19,84.64Z" fill="#d2ffe2"/><path d="M39.09,85.27a30.22,30.22,0,0,1-5.35-1.11c.52-.66,1.01-1.27,1.48-1.89,1.01-1.34,1.98-2.69,3.01-4.02a16.228,16.228,0,0,1,1.15-1.21c.17-.17.36-.33.52-.5a22.663,22.663,0,0,1,5.52-4.01c.19-.1.41-.17.69-.29-.04.31-.08.56-.1.81-.1,1.22-.19,2.44-.31,3.66a47.532,47.532,0,0,1-1.11,6.45,23.564,23.564,0,0,1-5.36,10.23,1.625,1.625,0,0,1-.5.4c.35-.96.71-1.91,1.04-2.87.9-2.6,1.89-5.18,2.66-7.8a52.566,52.566,0,0,0,1.07-5.37,5.3,5.3,0,0,0,.03-1.26c-.01-.12-.17-.23-.26-.35-.09.1-.24.19-.27.3-.06.24-.03.5-.1.74a4.662,4.662,0,0,1-.33.62c-1.12,2.4-2.24,4.81-3.36,7.21A1.955,1.955,0,0,1,39.09,85.27Z" fill="#d2ffe2"/><path d="M53.66,82.81c-2.79-.12-5.57.36-8.35-.22.09-.51.19-1.04.28-1.57s.18-1.08.26-1.62c.18-1.34.37-2.68.54-4.01.14-1.08.25-2.16.4-3.24a.565.565,0,0,1,.31-.34,12.668,12.668,0,0,1,3.9-.94,7.391,7.391,0,0,1,1.48.08.367.367,0,0,1,.26.22c.08,1,.19,2.01.19,3.02,0,.57-.23,1.14-.25,1.72a13.372,13.372,0,0,0,.15,1.89c.06.54.11,1.08.21,1.62.19,1.03.4,2.06.61,3.09A1.058,1.058,0,0,0,53.66,82.81Z"/><path d="M47.11,100.23c.07.56.18,1.09.2,1.61a10.1,10.1,0,0,1-.1,1.45c-.07.57-.15,1.15-.25,1.72-.13.68-1.39,1.25-2.35,1.26a10.144,10.144,0,0,1-2.68-.38,1.012,1.012,0,0,1-.86-.8,10.272,10.272,0,0,1,.27-3.94,5.756,5.756,0,0,1,.18-.59c.17-.5.23-.49.97-.45,1.38.06,2.77.08,4.15.11C46.81,100.23,46.99,100.23,47.11,100.23Z" fill="#754c24"/><path d="M52.76,100.28c1.89-.05,3.71-.1,5.58-.16a1.09,1.09,0,0,1,.04.22c.02,1.17.07,2.35.03,3.52a7.867,7.867,0,0,1-.34,1.57.67.67,0,0,1-.18.28,4.022,4.022,0,0,1-4.15.42,1.5,1.5,0,0,1-.8-1.31c-.08-1.12-.08-2.24-.1-3.36,0-.05.01-.13.05-.15.29-.13.16-.26.06-.43A3.862,3.862,0,0,1,52.76,100.28Z" fill="#754c24"/><path d="M32.85,88.37a2.549,2.549,0,0,0,.13,2.49c-1.6-.87-1.49-3.6.11-4.98,1.58.31,3.13.62,4.77.94.06.81.12,1.68.18,2.55,0,.04.02.1-.02.13-.16.17-.34.33-.52.5-.19-.14-.5-.25-.55-.41a5.157,5.157,0,0,1-.27-1.44c-.01-.31-.1-.49-.64-.56-.06.33-.15.65-.18.98-.07.69-.05,1.38-.18,2.07a.967.967,0,0,1-.65.64.668.668,0,0,1-.82-.44c-.17-.62-.27-1.25-.39-1.87a2.03,2.03,0,0,1,0-.35c-.62.25-.57,1.29.03,2.59A4.163,4.163,0,0,1,32.85,88.37Z" fill="#fff"/><path d="M49.33,88.66l2.71-.09v6.9c-1.03.06-1.98.12-2.93.18Q49.23,92.11,49.33,88.66Z" fill="#96d6aa"/><path d="M63.25,88.33c-.1.49-.19.98-.29,1.46a1.14,1.14,0,0,1-.16.42,1.254,1.254,0,0,1-.36.24c-.12-.12-.35-.24-.35-.36a12.466,12.466,0,0,1,.12-1.49,7.3,7.3,0,0,1,.18-1.04.453.453,0,0,1,.3-.27,13.361,13.361,0,0,0,4.42-1.52,19.017,19.017,0,0,1,1.13,1.74,2.37,2.37,0,0,1-.19,2.75c0-.54.02-1.09-.01-1.63a1.221,1.221,0,0,0-.24-.58c-.05-.07-.25-.1-.38-.14-.02.09-.09.19-.05.27a3.491,3.491,0,0,1,.14,2.67c-.05.19-.31.34-.55.49a4.1,4.1,0,0,0-.26-2.67,1.217,1.217,0,0,0-.25-.4c-.07-.08-.24-.11-.36-.17-.01.1-.07.21-.02.29a4.419,4.419,0,0,1,.57,2.26,1.3,1.3,0,0,1-.97,1.32,2.321,2.321,0,0,1-.3-.42,23.973,23.973,0,0,0-.9-2.25,5.536,5.536,0,0,0-1.02-1.04C63.37,88.28,63.31,88.31,63.25,88.33Z" fill="#fff"/><path d="M32.97,85.32c.2-.3.38-.56.51-.77,1.83.41,3.61.8,5.43,1.21-.01.15-.04.38-.06.66A29.059,29.059,0,0,1,32.97,85.32Z" fill="#d2ffe2"/><path d="M61.44,86.09a15.631,15.631,0,0,0,4.75-1.05c.22.12.44.25.79.44-.92.33-1.75.67-2.63.94-.68.21-1.43.32-2.14.47-.36.08-.5-.06-.57-.27C61.59,86.45,61.52,86.29,61.44,86.09Z" fill="#d2ffe2"/><path d="M41.37,91.68c-.15,1.15-.3,2.31-.45,3.44l-2.06-.57c.79-.95,1.6-1.92,2.41-2.89A.3.3,0,0,0,41.37,91.68Z" fill="#96d6aa"/><path d="M61.16,95.19c-.65.09-1.42.2-2.28.32v-2.7C59.64,93.6,60.41,94.4,61.16,95.19Z" fill="#96d6aa"/><path d="M44.87,84.22c.1-.35.19-.73.32-1.11a.387.387,0,0,1,.3-.09c.27.04.52.14.79.17.41.04.84.05,1.26.07v1.09C46.66,84.3,45.81,84.26,44.87,84.22Z" fill="#8c6239"/><path d="M52.7,84.37V83.25l1.07-.19c.13.41.26.82.39,1.25Z" fill="#8c6239"/><rect width="4.12" height="1.43" transform="translate(48.03 83.28)" fill="#f7931e"/><path d="M57.37,77.21c-.58,1.15.19,2.23.46,3.34q.81,3.3,1.67,6.58a30.285,30.285,0,0,0,2.46,7.43,4.5,4.5,0,0,1,.27.78c.08.24-.2.21-.4.24-.96.12-1.92.23-2.87.34a.9.9,0,0,0-.05.16c-.01,1.07-.03,2.13-.03,3.2,0,.13.13.26.2.38.03.06.1.14.08.18a2.333,2.333,0,0,0-.13,1.66,11.106,11.106,0,0,1-.15,3.59,1.887,1.887,0,0,1-1.41,1.42,6.341,6.341,0,0,1-2.12.51c-1.45-.01-2.74-.65-2.91-1.64a32.6,32.6,0,0,1-.26-3.55c-.02-.36.11-.71.11-1.07a.432.432,0,0,0-.29-.49.732.732,0,0,1-.33-.63c0-.63.07-1.27.13-1.9.04-.5.09-.99.14-1.49.02-.22-.09-.32-.42-.3-.84.05-1.68.1-2.56.15-.11.8-.2,1.53-.3,2.26-.04.29-.06.59-.09.88a.562.562,0,0,0,.02.34c.23.41.17.49-.48.55-.07.01-.13.02-.23.03,0,.43-.03.85.01,1.28a10.982,10.982,0,0,1-.32,3.78c-.18.71-1.64,1.5-2.76,1.5a12.109,12.109,0,0,1-3.09-.37c-.76-.2-1.31-.72-1.31-1.28,0-.82-.02-1.65.01-2.47a7.561,7.561,0,0,1,.16-.91c.09-.49.18-.99.27-1.47-.48-.16-.58-.4-.47-.77a5.148,5.148,0,0,0,.09-.88c.11-.97.24-1.94.37-2.99-.88-.22-1.76-.45-2.65-.67-.38-.1-.45-.26-.21-.47a.416.416,0,0,0,.14-.16c.77-2.12,1.52-4.24,2.29-6.36a52.013,52.013,0,0,0,2.56-9.4.945.945,0,0,0-.03-.37c-1.23,2.88-2.99,5.65-3.69,8.67h-.91c.04.6.1,1.16.11,1.72a5.254,5.254,0,0,1-.12,1.18.738.738,0,0,1-.75.56.894.894,0,0,1-.9-.43,8.46,8.46,0,0,1-.41-.79,4.635,4.635,0,0,0-.1,1.11,1.527,1.527,0,0,1-.58,1.24,1.892,1.892,0,0,1-1.79.16,1.19,1.19,0,0,0-.36-.17,2.275,2.275,0,0,1-2.06-2.04,3.651,3.651,0,0,1,1.14-3.45c-.46-.14-.34-.36-.19-.57.81-1.11,1.61-2.23,2.44-3.34.98-1.3,1.98-2.59,2.96-3.88a5.116,5.116,0,0,0,.39-.73.958.958,0,0,1,.17-.24,36.767,36.767,0,0,1,4.04-3.42,23.375,23.375,0,0,1,4.43-2.38,12.193,12.193,0,0,1,4.49-.97,8.485,8.485,0,0,1,5.79,1.88c.65.57,1.32,1.13,1.9,1.73a8.142,8.142,0,0,1,.77,1.17,7.873,7.873,0,0,0,.98,1.21,24,24,0,0,1,5.18,6.47c.31.61.54,1.23.84,1.85a1.361,1.361,0,0,0,.46.63c.61.34.69.87,1.03,1.29a3.894,3.894,0,0,1,.89,2.2,3.578,3.578,0,0,1-2.53,3.24,3.688,3.688,0,0,1-1.2.12.7.7,0,0,1-.47-.37c-.16-.39-.21-.8-.37-1.19-.22-.53-.5-1.04-.75-1.56a1.225,1.225,0,0,1-.19.02c-.07.31-.13.63-.21.94a1.462,1.462,0,0,1-.12.33.82.82,0,0,1-.9.46c-.42-.04-.76-.28-.76-.62a11.334,11.334,0,0,1,.12-1.42c.05-.42.14-.83.22-1.27-.61-.08-.58-.45-.76-.72-.16-.25,0-.64-.62-.72-.04,0-.08-.19-.05-.2.43-.17.19-.39.11-.58-1.01-2.5-2.03-4.99-3.04-7.49C57.48,77.56,57.42,77.37,57.37,77.21ZM44.78,84.59a.9.9,0,0,0-.07.11,23.925,23.925,0,0,1-2.75,5.91,1.23,1.23,0,0,0-.14.53c-.16,1.44-.31,2.89-.47,4.33-.14,1.26-.28,2.53-.44,3.79-.03.22.09.3.4.33a36.151,36.151,0,0,0,6.33.14c.32-.02.42-.1.44-.31.12-1.03.3-2.05.37-3.08.12-1.7.17-3.4.25-5.09.04-.79.11-1.58.16-2.37.01-.15.05-.32-.27-.38-.07-.01-.17-.13-.15-.18a.349.349,0,0,1,.24-.18,1.883,1.883,0,0,1,.53.01,6.916,6.916,0,0,0,2.83-.13,1.67,1.67,0,0,1,.38-.06c.25,0,.35.07.25.26a1.156,1.156,0,0,0-.12.51c.01.37.09.75.07,1.12-.1,2.99-.23,5.98-.33,8.97a7.718,7.718,0,0,0,.12,1.04c2.03-.14,4.01.04,5.97-.29,0-.54.01-1.06,0-1.59-.03-1.76-.06-3.51-.12-5.27a1.656,1.656,0,0,0-.29-.98,22.016,22.016,0,0,1-3.49-6.48c-.21-.59-.22-.59-1.09-.5s-1.27-.13-1.28-.73v-.51c.01-.34-.16-.42-.65-.39-.9.06-1.81.1-2.71.15-.22.01-.45,0-.74,0,0,.4.01.75,0,1.1-.01.27.16.35.54.34,1.04-.02,2.08-.02,3.13-.03.15,0,.3.01.45.02.01.05.02.09.03.14a6.742,6.742,0,0,1-1.09.2c-.97.03-1.95.01-2.93.03-.37.01-.68-.01-.64-.34C46.59,84.68,45.7,84.64,44.78,84.59Zm21.41.05c-.36-.77-.66-1.53-1.09-2.26a27.205,27.205,0,0,0-4.18-5.12c-.52-.53-1-1.09-1.45-1.65-.36-.45-.63-.95-.99-1.4a12.052,12.052,0,0,0-2.83-2.3,6.019,6.019,0,0,0-2.43-.85,13.568,13.568,0,0,0,.15,1.84,6.279,6.279,0,0,1-.2,3.07,2.439,2.439,0,0,0,.01.97c.02.17.23.33.25.5a12.815,12.815,0,0,0,.06,1.39c.35,1.68.68,3.36,1.16,5.02a22.952,22.952,0,0,0,5.7,9.85c.3.3.61.6.91.9.05-.02.1-.03.16-.05-.09-.21-.18-.43-.28-.64a31.985,31.985,0,0,1-2.03-6.53c-.6-2.3-1.17-4.61-1.77-6.92-.33-1.28-.94-2.55-.55-3.87a1.453,1.453,0,0,1,.18-.32c.13.08.27.15.4.23.42.28.4.68.55,1.03,1.07,2.57,2.14,5.13,3.21,7.7.06.15.13.29.2.44A18.871,18.871,0,0,0,66.19,84.64Zm-27.1.63c.05-.1.09-.17.13-.25,1.12-2.4,2.24-4.81,3.36-7.21a4.662,4.662,0,0,0,.33-.62c.07-.24.04-.5.1-.74.03-.11.17-.2.27-.3.09.12.26.23.26.35a5.315,5.315,0,0,1-.03,1.26,52.568,52.568,0,0,1-1.07,5.37c-.77,2.61-1.75,5.2-2.66,7.8-.33.96-.7,1.91-1.04,2.87a1.3,1.3,0,0,0,.5-.4A23.455,23.455,0,0,0,44.6,83.17a47.8,47.8,0,0,0,1.11-6.45c.12-1.22.2-2.44.31-3.66.02-.25.06-.49.1-.81-.28.12-.5.19-.69.29a22.663,22.663,0,0,0-5.52,4.01c-.16.17-.35.33-.52.5a14.406,14.406,0,0,0-1.15,1.21c-1.02,1.33-2,2.68-3.01,4.02-.47.62-.96,1.23-1.48,1.89A29.915,29.915,0,0,0,39.09,85.27Zm14.57-2.46c-.02-.15-.02-.24-.04-.32-.2-1.03-.42-2.06-.61-3.09-.1-.54-.15-1.08-.21-1.62a17.184,17.184,0,0,1-.15-1.89c.02-.57.25-1.14.25-1.72,0-1.01-.11-2.01-.19-3.02a.367.367,0,0,0-.26-.22,7.392,7.392,0,0,0-1.48-.08,12.96,12.96,0,0,0-3.9.94.565.565,0,0,0-.31.34c-.15,1.08-.26,2.16-.4,3.24-.17,1.34-.35,2.68-.54,4.01-.07.54-.17,1.08-.26,1.62s-.19,1.07-.28,1.57C48.09,83.17,50.87,82.69,53.66,82.81Zm-6.55,17.42h-.48c-1.38-.03-2.77-.05-4.15-.11-.74-.03-.8-.04-.97.45-.07.2-.13.39-.18.59a10.3,10.3,0,0,0-.27,3.94,1.012,1.012,0,0,0,.86.8,10.573,10.573,0,0,0,2.68.38c.96-.01,2.22-.58,2.35-1.26.11-.57.19-1.14.25-1.72a8.838,8.838,0,0,0,.1-1.45A11.685,11.685,0,0,0,47.11,100.23Zm5.65.05a2.729,2.729,0,0,0,.2.61c.1.17.22.3-.06.43-.05.02-.06.1-.05.15.03,1.12.03,2.24.1,3.36a1.48,1.48,0,0,0,.8,1.31,4.044,4.044,0,0,0,4.15-.42.708.708,0,0,0,.18-.28,8.02,8.02,0,0,0,.34-1.57c.04-1.17-.01-2.35-.03-3.52a.968.968,0,0,0-.04-.22ZM32.85,88.37a4.163,4.163,0,0,0,1,2.84c-.6-1.3-.65-2.34-.03-2.59a2.042,2.042,0,0,0,0,.35c.12.62.22,1.25.39,1.87a.673.673,0,0,0,.82.44,1.01,1.01,0,0,0,.65-.64c.13-.68.11-1.38.18-2.07.03-.33.12-.65.18-.98.55.08.64.26.64.56a5.157,5.157,0,0,0,.27,1.44c.05.16.36.28.55.41.17-.17.35-.33.52-.5.03-.03.02-.09.02-.13-.06-.87-.12-1.74-.18-2.55-1.64-.32-3.19-.63-4.77-.94-1.6,1.38-1.71,4.11-.11,4.98A2.575,2.575,0,0,1,32.85,88.37Zm16.48.29q-.1,3.45-.22,6.99c.95-.06,1.9-.12,2.93-.18v-6.9C51.12,88.61,50.24,88.63,49.33,88.66Zm13.92-.33c.06-.03.12-.05.18-.08a5.253,5.253,0,0,1,1.02,1.04,23.975,23.975,0,0,1,.9,2.25,1.917,1.917,0,0,0,.3.42,1.3,1.3,0,0,0,.97-1.32,4.419,4.419,0,0,0-.57-2.26c-.05-.08.01-.19.02-.29.12.06.29.09.36.17a1.217,1.217,0,0,1,.25.4,4.1,4.1,0,0,1,.26,2.67c.24-.14.49-.3.55-.49a3.446,3.446,0,0,0-.14-2.67c-.04-.07.03-.17.05-.27.13.05.33.07.38.14a1.263,1.263,0,0,1,.24.58c.03.54.01,1.09.01,1.63a2.37,2.37,0,0,0,.19-2.75,19.018,19.018,0,0,0-1.13-1.74,13.138,13.138,0,0,1-4.42,1.52.454.454,0,0,0-.3.27,7.3,7.3,0,0,0-.18,1.04,12.465,12.465,0,0,0-.12,1.49c0,.12.23.24.35.36.12-.08.29-.14.36-.24a1.14,1.14,0,0,0,.16-.42C63.06,89.31,63.15,88.82,63.25,88.33ZM32.97,85.32a29.173,29.173,0,0,0,5.88,1.09c.03-.27.05-.5.06-.66-1.83-.41-3.61-.8-5.43-1.21Q33.27,84.87,32.97,85.32Zm28.47.77c.08.2.15.36.2.53.06.22.21.35.57.27.72-.15,1.46-.27,2.14-.47.88-.27,1.71-.61,2.63-.94-.34-.19-.57-.31-.79-.44A15.564,15.564,0,0,1,61.44,86.09ZM41.37,91.68c-.03-.01-.06-.01-.1-.02-.81.97-1.62,1.94-2.41,2.89.69.19,1.36.38,2.06.57C41.06,93.99,41.21,92.84,41.37,91.68Zm19.79,3.51-2.28-2.37v2.7Q60.185,95.325,61.16,95.19ZM44.87,84.22c.94.04,1.79.08,2.67.12V83.25c-.42-.02-.84-.03-1.26-.07-.27-.03-.52-.13-.79-.17a.486.486,0,0,0-.3.09C45.06,83.49,44.97,83.88,44.87,84.22Zm7.83.15,1.46-.06c-.13-.43-.26-.84-.39-1.25l-1.07.19Z"/><path d="M44.78,84.59c.92.04,1.81.08,2.74.13-.04.33.27.35.64.34.98-.01,1.95.01,2.93-.03a6.743,6.743,0,0,0,1.09-.2c-.01-.05-.02-.09-.03-.14-.15-.01-.3-.02-.45-.02-1.04.01-2.08.01-3.13.03-.38.01-.55-.07-.54-.34.02-.35,0-.7,0-1.1.29,0,.52.01.74,0,.9-.04,1.81-.08,2.71-.15.48-.03.65.05.65.39,0,.17-.01.34,0,.51.02.6.4.82,1.28.73s.88-.08,1.09.5a22.016,22.016,0,0,0,3.49,6.48,1.656,1.656,0,0,1,.29.98c.06,1.76.09,3.51.12,5.27.01.52,0,1.04,0,1.59-1.95.32-3.93.15-5.97.29a6.383,6.383,0,0,1-.12-1.04c.1-2.99.23-5.98.33-8.97.01-.37-.07-.75-.07-1.12a1.156,1.156,0,0,1,.12-.51c.1-.19,0-.26-.25-.26a1.209,1.209,0,0,0-.38.06,6.908,6.908,0,0,1-2.83.13,1.89,1.89,0,0,0-.53-.01.38.38,0,0,0-.24.18c-.02.05.08.17.15.18.32.06.28.23.27.38-.05.79-.12,1.58-.16,2.37-.09,1.7-.14,3.4-.25,5.09-.07,1.03-.25,2.05-.37,3.08-.02.21-.13.29-.44.31a37.15,37.15,0,0,1-6.33-.14c-.3-.03-.42-.12-.4-.33.15-1.26.3-2.53.44-3.79.16-1.44.31-2.89.47-4.33a1.23,1.23,0,0,1,.14-.53,23.6,23.6,0,0,0,2.75-5.91C44.72,84.68,44.75,84.65,44.78,84.59Z" fill="#a67c52"/><path d="M66.19,84.64a19.2,19.2,0,0,1-4.87,1.04c-.07-.15-.14-.3-.2-.44-1.07-2.57-2.14-5.13-3.21-7.7-.15-.35-.13-.75-.55-1.03-.12-.08-.27-.16-.4-.23a1.722,1.722,0,0,0-.18.32c-.39,1.33.21,2.59.55,3.87.6,2.3,1.17,4.61,1.77,6.92a31.375,31.375,0,0,0,2.03,6.53c.11.21.19.43.28.64-.05.02-.1.03-.16.05-.3-.3-.61-.6-.91-.9a22.952,22.952,0,0,1-5.7-9.85c-.47-1.66-.8-3.34-1.16-5.02a12.927,12.927,0,0,1-.06-1.39c-.02-.17-.22-.33-.25-.5a2.268,2.268,0,0,1-.01-.97,6.279,6.279,0,0,0,.2-3.07,13.436,13.436,0,0,1-.15-1.84,5.926,5.926,0,0,1,2.43.85,11.616,11.616,0,0,1,2.83,2.3c.36.45.63.95.99,1.4.45.56.93,1.12,1.45,1.65a27.205,27.205,0,0,1,4.18,5.12A22.3,22.3,0,0,1,66.19,84.64Z" fill="#d2ffe2"/><path d="M39.09,85.27a30.22,30.22,0,0,1-5.35-1.11c.52-.66,1.01-1.27,1.48-1.89,1.01-1.34,1.98-2.69,3.01-4.02a16.228,16.228,0,0,1,1.15-1.21c.17-.17.36-.33.52-.5a22.663,22.663,0,0,1,5.52-4.01c.19-.1.41-.17.69-.29-.04.31-.08.56-.1.81-.1,1.22-.19,2.44-.31,3.66a47.532,47.532,0,0,1-1.11,6.45,23.564,23.564,0,0,1-5.36,10.23,1.625,1.625,0,0,1-.5.4c.35-.96.71-1.91,1.04-2.87.9-2.6,1.89-5.18,2.66-7.8a52.566,52.566,0,0,0,1.07-5.37,5.3,5.3,0,0,0,.03-1.26c-.01-.12-.17-.23-.26-.35-.09.1-.24.19-.27.3-.06.24-.03.5-.1.74a4.662,4.662,0,0,1-.33.62c-1.12,2.4-2.24,4.81-3.36,7.21A1.955,1.955,0,0,1,39.09,85.27Z" fill="#d2ffe2"/><path d="M53.66,82.81c-2.79-.12-5.57.36-8.35-.22.09-.51.19-1.04.28-1.57s.18-1.08.26-1.62c.18-1.34.37-2.68.54-4.01.14-1.08.25-2.16.4-3.24a.565.565,0,0,1,.31-.34,12.668,12.668,0,0,1,3.9-.94,7.391,7.391,0,0,1,1.48.08.367.367,0,0,1,.26.22c.08,1,.19,2.01.19,3.02,0,.57-.23,1.14-.25,1.72a13.372,13.372,0,0,0,.15,1.89c.06.54.11,1.08.21,1.62.19,1.03.4,2.06.61,3.09A1.058,1.058,0,0,0,53.66,82.81Z"/><path d="M47.11,100.23c.07.56.18,1.09.2,1.61a10.1,10.1,0,0,1-.1,1.45c-.07.57-.15,1.15-.25,1.72-.13.68-1.39,1.25-2.35,1.26a10.144,10.144,0,0,1-2.68-.38,1.012,1.012,0,0,1-.86-.8,10.272,10.272,0,0,1,.27-3.94,5.756,5.756,0,0,1,.18-.59c.17-.5.23-.49.97-.45,1.38.06,2.77.08,4.15.11C46.81,100.23,46.99,100.23,47.11,100.23Z" fill="#754c24"/><path d="M52.76,100.28c1.89-.05,3.71-.1,5.58-.16a1.09,1.09,0,0,1,.04.22c.02,1.17.07,2.35.03,3.52a7.867,7.867,0,0,1-.34,1.57.67.67,0,0,1-.18.28,4.022,4.022,0,0,1-4.15.42,1.5,1.5,0,0,1-.8-1.31c-.08-1.12-.08-2.24-.1-3.36,0-.05.01-.13.05-.15.29-.13.16-.26.06-.43A3.862,3.862,0,0,1,52.76,100.28Z" fill="#754c24"/><path d="M32.85,88.37a2.549,2.549,0,0,0,.13,2.49c-1.6-.87-1.49-3.6.11-4.98,1.58.31,3.13.62,4.77.94.06.81.12,1.68.18,2.55,0,.04.02.1-.02.13-.16.17-.34.33-.52.5-.19-.14-.5-.25-.55-.41a5.157,5.157,0,0,1-.27-1.44c-.01-.31-.1-.49-.64-.56-.06.33-.15.65-.18.98-.07.69-.05,1.38-.18,2.07a.967.967,0,0,1-.65.64.668.668,0,0,1-.82-.44c-.17-.62-.27-1.25-.39-1.87a2.03,2.03,0,0,1,0-.35c-.62.25-.57,1.29.03,2.59A4.163,4.163,0,0,1,32.85,88.37Z" fill="#fff"/><path d="M49.33,88.66l2.71-.09v6.9c-1.03.06-1.98.12-2.93.18Q49.23,92.11,49.33,88.66Z" fill="#96d6aa"/><path d="M63.25,88.33c-.1.49-.19.98-.29,1.46a1.14,1.14,0,0,1-.16.42,1.254,1.254,0,0,1-.36.24c-.12-.12-.35-.24-.35-.36a12.466,12.466,0,0,1,.12-1.49,7.3,7.3,0,0,1,.18-1.04.453.453,0,0,1,.3-.27,13.361,13.361,0,0,0,4.42-1.52,19.017,19.017,0,0,1,1.13,1.74,2.37,2.37,0,0,1-.19,2.75c0-.54.02-1.09-.01-1.63a1.221,1.221,0,0,0-.24-.58c-.05-.07-.25-.1-.38-.14-.02.09-.09.19-.05.27a3.491,3.491,0,0,1,.14,2.67c-.05.19-.31.34-.55.49a4.1,4.1,0,0,0-.26-2.67,1.217,1.217,0,0,0-.25-.4c-.07-.08-.24-.11-.36-.17-.01.1-.07.21-.02.29a4.419,4.419,0,0,1,.57,2.26,1.3,1.3,0,0,1-.97,1.32,2.321,2.321,0,0,1-.3-.42,23.973,23.973,0,0,0-.9-2.25,5.536,5.536,0,0,0-1.02-1.04C63.37,88.28,63.31,88.31,63.25,88.33Z" fill="#fff"/><path d="M32.97,85.32c.2-.3.38-.56.51-.77,1.83.41,3.61.8,5.43,1.21-.01.15-.04.38-.06.66A29.059,29.059,0,0,1,32.97,85.32Z" fill="#d2ffe2"/><path d="M61.44,86.09a15.631,15.631,0,0,0,4.75-1.05c.22.12.44.25.79.44-.92.33-1.75.67-2.63.94-.68.21-1.43.32-2.14.47-.36.08-.5-.06-.57-.27C61.59,86.45,61.52,86.29,61.44,86.09Z" fill="#d2ffe2"/><path d="M41.37,91.68c-.15,1.15-.3,2.31-.45,3.44l-2.06-.57c.79-.95,1.6-1.92,2.41-2.89A.3.3,0,0,0,41.37,91.68Z" fill="#96d6aa"/><path d="M61.16,95.19c-.65.09-1.42.2-2.28.32v-2.7C59.64,93.6,60.41,94.4,61.16,95.19Z" fill="#96d6aa"/><path d="M44.87,84.22c.1-.35.19-.73.32-1.11a.387.387,0,0,1,.3-.09c.27.04.52.14.79.17.41.04.84.05,1.26.07v1.09C46.66,84.3,45.81,84.26,44.87,84.22Z" fill="#8c6239"/><path d="M52.7,84.37V83.25l1.07-.19c.13.41.26.82.39,1.25Z" fill="#8c6239"/><rect width="4.12" height="1.43" transform="translate(48.03 83.28)" fill="#f7931e"/><path d="M70.47,43.06c-1.22.56-1.55,1.55-.11,2.11,1.78.55,1,2.44-.33,2.89a1.661,1.661,0,0,0-.55,2.67,1.748,1.748,0,0,1-.78,3.11c-1.89.33-1.55,1.67-1.11,2.78.89,1.78.33,3-1,3-1.89,0-1.78,1.67-1.44,2.44.56,1.89-.67,3.67-2.11,3-1-.44-2.11,1.22-1.67,2.11,1.22,2.56-1,2.67-2,2.11-2.89-1.44-2.33.89-2.11,1.67.11.44-.89,3.22-2.22,1.33-1.56-2.11-2.67,1-2.56,1,1,.11-1.78,3-2.55,1.44-.78-1.44-2.33-1.11-2.78.67a1.686,1.686,0,0,1-3.22.67c-1.89-2.78-1.44,1.33-3.22,1.22-1.22,1.22-.89-4.33-3.33-1.22-1.11,1.44-2.78,1.22-3.22-.67-.33-1.78-1.89-2.11-2.67-.67-.89,1.55-3.66-1.33-2.55-1.44,0,0-1.11-3.11-2.67-1-1.33,1.89-2.33-.89-2.22-1.33.22-.78.78-3.11-2.11-1.67-1,.56-3.22.45-2-2.11.44-.89-.67-2.56-1.67-2.11-1.44.67-2.67-1.11-2-3,.22-.78.33-2.44-1.44-2.44-1.44,0-2-1.22-1.11-3,.44-1.11.89-2.44-1-2.78a1.745,1.745,0,0,1-.89-3.11,1.566,1.566,0,0,0-.56-2.67c-1.33-.44-2.11-2.78-.33-2.89,1.22-.11,1.44-1.33,0-2.22-1.33-.89-1.33-2-.11-2.22a1.082,1.082,0,0,0,.11-2c-1.67-.67-1-2.44.33-2.89a1.572,1.572,0,0,0,.56-2.67,1.745,1.745,0,0,1,.89-3.11c1.89-.33,1.44-1.67,1-2.78-.89-1.89-.33-3,1.11-3,1.78,0,1.67-1.67,1.44-2.56-.67-1.78.56-3.67,2-2.89,1,.33,2.11-1.22,1.67-2.11-1.22-2.67,1-2.78,2-2.22,2.89,1.55,2.33-1,2.11-1.67-.11-.44.89-3.22,2.22-1.33,1.55,2.11,2.67-1,2.67-1.11-1.11-.78,1.67-3.55,2.55-1.44a1.377,1.377,0,0,0,2.67-.67,1.433,1.433,0,0,1,2.78-.67c.22.78,1.78,2.56,2.22.22.55-2.67,1.78-1,2.33.11a1.289,1.289,0,0,0,2.44-.33c.11-1.78,2.89-1.11,3.22.67.44,1.89,2,2.11,2.78.67s3.55,1.44,2.55,1.44c-.11,0,1,3.22,2.56,1.11,1.33-1.89,2.33.89,2.22,1.33-.22.67-.78,3.22,2.11,1.67,1-.56,3.22-.44,2,2.22-.45.89.67,2.44,1.67,2.11,1.44-.78,2.67,1.11,2.11,2.89-.33.89-.44,2.56,1.44,2.56,1.33,0,1.89,1.11,1,3-.44,1.11-.78,2.44,1.11,2.78a1.748,1.748,0,0,1,.78,3.11,1.661,1.661,0,0,0,.55,2.67c1.33.45,1.89,2,.33,2.89-1.67,1-1,1.67,0,2C72.58,41.73,72.02,42.5,70.47,43.06Z" fill="#e58a2d" fill-rule="evenodd"/><path d="M70.13,43.06c-1.11.56-1.44,1.55,0,2,1.67.55,1,2.56-.33,3a1.475,1.475,0,0,0-.56,2.56,1.777,1.777,0,0,1-.78,3.11c-1.89.33-1.55,1.66-1.11,2.78.89,1.78.33,3-1,3-1.89,0-1.78,1.67-1.44,2.44.56,1.78-.67,3.56-2.11,2.89-.89-.33-2,1.22-1.67,2.11,1.22,2.56-.89,2.67-2,2.22-2.78-1.55-2.22.78-2,1.44.11.56-.89,3.33-2.22,1.45-1.55-2.22-2.67,1-2.55,1,1,.11-1.78,2.89-2.56,1.44s-2.33-1.22-2.67.67c-.44,1.78-2.22,2.11-3.22.66-1.89-2.78-1.44,1.34-3.22,1.22-1.22,1.11-.89-4.33-3.22-1.22-1.11,1.34-2.89,1.11-3.22-.66-.44-1.89-2-2.11-2.78-.67s-3.55-1.33-2.55-1.44c.11,0-1-3.22-2.56-1-1.33,1.89-2.33-.89-2.22-1.45.22-.67.78-3-2-1.44-1,.44-3.22.33-2-2.22.33-.89-.78-2.44-1.67-2.11-1.44.67-2.67-1.11-2-2.89.22-.78.33-2.44-1.44-2.44-1.44,0-1.89-1.22-1.11-3,.44-1.11.89-2.44-1-2.78a1.77,1.77,0,0,1-.89-3.11,1.49,1.49,0,0,0-.44-2.56c-1.44-.44-2.22-2.78-.44-3,1.22-.11,1.44-1.33,0-2.11-1.33-.89-1.33-2-.11-2.22a1.06,1.06,0,0,0,.11-2c-1.56-.67-1-2.44.44-2.89a1.487,1.487,0,0,0,.44-2.55,1.761,1.761,0,0,1,.89-3.11c1.89-.33,1.44-1.67,1-2.78-.78-1.78-.33-3,1.11-3,1.78,0,1.67-1.67,1.44-2.44-.67-1.78.56-3.66,2-3,.89.44,2-1.22,1.67-2-1.22-2.67,1-2.78,2-2.22,2.78,1.55,2.22-.89,2-1.67-.11-.44.89-3.22,2.22-1.33,1.56,2.11,2.67-1,2.56-1-1-.89,1.78-3.67,2.55-1.44.56,1.55,3.11,1.22,2.78-.67a1.376,1.376,0,0,1,2.67-.67c.22.78,1.78,2.44,2.22.22.55-2.67,1.78-1.11,2.33,0a1.282,1.282,0,0,0,2.44-.22c.11-1.78,2.78-1.11,3.22.67.33,1.89,1.89,2.11,2.67.67s3.55,1.33,2.56,1.44c-.11,0,1,3.11,2.55,1,1.33-1.89,2.33.89,2.22,1.33-.22.78-.78,3.22,2,1.67,1.11-.55,3.22-.44,2,2.22-.33.78.78,2.44,1.67,2,1.44-.67,2.67,1.22,2.11,3-.33.78-.44,2.44,1.44,2.44,1.33,0,1.89,1.22,1,3-.44,1.11-.78,2.44,1.11,2.78a1.767,1.767,0,0,1,.78,3.11,1.467,1.467,0,0,0,.56,2.55c1.33.45,1.89,2.11.33,2.89-1.67,1-1,1.67-.11,2C72.35,41.73,71.69,42.5,70.13,43.06Z" fill="#e58b2d" fill-rule="evenodd"/><path d="M69.91,43.06c-1.11.56-1.55,1.55,0,2,1.67.55,1,2.44-.44,2.89a1.492,1.492,0,0,0-.45,2.55,1.759,1.759,0,0,1-.89,3.11c-1.78.33-1.45,1.67-1,2.78.89,1.78.33,2.89-1,2.89-1.89,0-1.67,1.67-1.45,2.44.56,1.78-.56,3.67-2,3-1-.44-2.11,1.22-1.67,2,1.11,2.44-1,2.67-2,2.22-2.78-1.55-2.22.78-2,1.44.11.44-.89,3.22-2.22,1.33-1.55-2.11-2.67,1-2.56,1,1,.11-1.78,2.89-2.56,1.44-.78-1.33-2.22-1.11-2.67.67a1.713,1.713,0,0,1-3.22.67c-1.78-2.78-1.33,1.33-3.11,1.22-1.22,1.11-.89-4.33-3.22-1.22-1.11,1.33-2.78,1.11-3.22-.67-.33-1.78-1.89-2-2.67-.67-.78,1.44-3.55-1.33-2.56-1.44.11,0-1-3.11-2.55-1-1.22,1.89-2.22-.89-2.11-1.33.22-.67.67-3-2.11-1.44-1,.44-3.11.22-1.89-2.22.33-.78-.78-2.44-1.67-2-1.44.67-2.67-1.22-2.11-3,.33-.78.44-2.44-1.33-2.44-1.33,0-1.89-1.11-1.11-2.89.44-1.11.89-2.44-1-2.78a1.761,1.761,0,0,1-.89-3.11,1.487,1.487,0,0,0-.44-2.55c-1.33-.44-2.11-2.67-.33-2.89,1.11-.11,1.44-1.33,0-2.11-1.33-.89-1.33-2-.11-2.22a1.025,1.025,0,0,0,.11-1.89c-1.67-.78-1-2.55.33-2.89a1.5,1.5,0,0,0,.44-2.56,1.752,1.752,0,0,1,.89-3.11c1.89-.33,1.44-1.67,1-2.78-.78-1.78-.22-2.89,1.11-2.89,1.78,0,1.67-1.78,1.33-2.44-.56-1.78.67-3.67,2.11-3,.89.44,2-1.22,1.67-2-1.22-2.67.89-2.78,1.89-2.22,2.78,1.56,2.33-.89,2.11-1.55-.11-.45.89-3.22,2.11-1.33,1.55,2.11,2.67-1,2.55-1.11-1-.78,1.78-3.56,2.56-1.45a1.377,1.377,0,0,0,2.67-.67,1.42,1.42,0,0,1,2.78-.55c.22.67,1.67,2.33,2.11.22.55-2.67,1.78-1.11,2.33,0,.78,1.33,2.33.78,2.33-.22C44,6.51,46.67,7.07,47,8.84c.45,1.89,1.89,2.11,2.67.67.78-1.33,3.56,1.33,2.56,1.45-.11,0,1,3.22,2.56,1.11,1.33-1.89,2.33.89,2.22,1.33-.22.67-.78,3.11,2,1.55,1-.56,3.11-.44,2,2.22-.44.78.67,2.44,1.67,2,1.44-.67,2.56,1.22,2,3-.22.67-.44,2.44,1.45,2.44,1.33,0,1.89,1.11,1,2.89-.45,1.11-.78,2.44,1,2.78a1.752,1.752,0,0,1,.89,3.11,1.5,1.5,0,0,0,.45,2.56,1.52,1.52,0,0,1,.44,2.89c-1.67.89-1,1.56-.11,1.89C72.02,41.73,71.47,42.5,69.91,43.06Z" fill="#e78e2c" fill-rule="evenodd"/><path d="M69.69,43.06c-1.11.44-1.55,1.55-.11,2,1.66.55,1,2.44-.33,2.89a1.481,1.481,0,0,0-.44,2.55,1.69,1.69,0,0,1-.89,3c-1.78.33-1.44,1.67-1,2.67.78,1.89.33,3-1,3-1.89,0-1.67,1.67-1.44,2.44.55,1.67-.56,3.55-2,2.89-.89-.44-2,1.22-1.66,2,1.22,2.56-.89,2.67-1.89,2.22-2.78-1.55-2.33.78-2.11,1.44.11.44-.89,3.22-2.11,1.33-1.56-2.11-2.67,1-2.56,1,1,.11-1.78,2.89-2.56,1.44-.67-1.44-2.22-1.22-2.56.67-.44,1.78-2.22,2.11-3.22.67-1.78-2.78-1.33,1.22-3.11,1.11-1.22,1.11-.78-4.22-3.22-1.11-1.11,1.33-2.78,1.11-3.11-.67-.45-1.89-1.89-2.11-2.67-.67s-3.55-1.33-2.56-1.44c.11,0-1-3.11-2.56-1-1.22,1.89-2.22-.89-2.11-1.33.22-.67.78-3-2-1.44-1,.44-3.11.33-2-2.22.44-.78-.67-2.44-1.67-2-1.44.67-2.55-1.22-2-2.89.33-.78.44-2.44-1.33-2.44-1.33,0-1.89-1.11-1.11-3,.56-1,.89-2.33-1-2.67a1.744,1.744,0,0,1-.89-3,1.481,1.481,0,0,0-.44-2.55c-1.33-.44-2.11-2.78-.33-2.89,1.22-.11,1.44-1.33,0-2.11-1.33-.89-1.33-2-.11-2.22a1,1,0,0,0,.11-1.89c-1.67-.67-1-2.44.33-2.89a1.5,1.5,0,0,0,.44-2.56,1.734,1.734,0,0,1,.89-3c1.89-.33,1.55-1.67,1-2.78-.78-1.78-.22-2.89,1.11-2.89,1.78,0,1.67-1.67,1.33-2.44-.56-1.78.56-3.56,2-2.89,1,.44,2.11-1.22,1.67-2-1.11-2.67,1-2.78,2-2.22,2.78,1.56,2.22-.89,2-1.55-.11-.44.89-3.22,2.11-1.33,1.56,2.11,2.67-1,2.56-1-1-.89,1.78-3.55,2.56-1.44.55,1.44,3,1.22,2.67-.67a1.377,1.377,0,0,1,2.67-.67c.22.78,1.67,2.44,2.11.22.55-2.67,1.78-1,2.33,0,.78,1.33,2.33.78,2.33-.22.11-1.67,2.78-1.11,3.22.67.33,1.89,1.89,2.11,2.56.67.78-1.44,3.56,1.33,2.56,1.44-.11,0,1,3.11,2.56,1,1.22-1.89,2.22.89,2.11,1.33-.22.67-.67,3.11,2.11,1.55,1-.56,3.11-.44,1.89,2.22-.33.78.78,2.44,1.66,2,1.44-.67,2.56,1.11,2,2.89-.22.78-.44,2.44,1.44,2.44,1.33,0,1.78,1.11,1,2.89-.44,1.11-.78,2.45,1,2.78a1.682,1.682,0,0,1,.89,3,1.5,1.5,0,0,0,.44,2.56c1.33.44,1.89,2,.33,2.89s-.89,1.56,0,2C71.8,41.73,71.13,42.5,69.69,43.06Z" fill="#e7912c" fill-rule="evenodd"/><path d="M69.36,43.06c-1.11.44-1.44,1.44,0,2,1.67.44,1,2.33-.33,2.78a1.5,1.5,0,0,0-.44,2.56,1.734,1.734,0,0,1-.89,3c-1.78.33-1.44,1.55-1,2.67.78,1.78.33,2.89-1,2.89-1.89,0-1.67,1.67-1.44,2.44.56,1.78-.55,3.56-2,2.89-.89-.44-2,1.22-1.66,2,1.22,2.56-.89,2.67-1.89,2.22-2.78-1.55-2.22.78-2,1.44.11.44-.89,3.11-2.11,1.33-1.44-2.11-2.67,1-2.56,1,1,0-1.67,2.78-2.44,1.33-.78-1.33-2.22-1.11-2.67.67a1.642,1.642,0,0,1-3.11.67c-1.78-2.78-1.33,1.22-3.11,1.11-1.22,1.22-.78-4.11-3.22-1.11a1.66,1.66,0,0,1-3.11-.67c-.33-1.78-1.89-2-2.56-.67-.78,1.44-3.56-1.33-2.56-1.33.11,0-1-3.11-2.44-1-1.33,1.78-2.33-.89-2.22-1.33.22-.67.78-3-2-1.44-1,.45-3.11.33-1.89-2.22.33-.78-.78-2.44-1.67-2-1.44.67-2.55-1.11-2-2.89.22-.78.44-2.44-1.33-2.44-1.33,0-1.89-1.11-1.11-2.89.56-1.11.89-2.33-1-2.67a1.685,1.685,0,0,1-.78-3,1.558,1.558,0,0,0-.56-2.56c-1.33-.44-2-2.67-.33-2.78,1.22-.11,1.44-1.33,0-2.22-1.33-.78-1.33-1.89-.11-2.11a1,1,0,0,0,.11-1.89c-1.55-.67-1-2.44.33-2.89a1.453,1.453,0,0,0,.56-2.44,1.777,1.777,0,0,1,.78-3.11c1.89-.22,1.55-1.56,1-2.67-.78-1.78-.22-2.89,1.11-2.89,1.78,0,1.56-1.67,1.33-2.33-.56-1.78.56-3.55,2-2.89.89.33,2-1.22,1.67-2-1.22-2.55.89-2.78,1.89-2.22,2.78,1.56,2.22-.89,2-1.56-.11-.44.89-3.11,2.22-1.33,1.44,2.11,2.56-.89,2.44-1-1-.78,1.78-3.55,2.56-1.44a1.311,1.311,0,0,0,2.56-.56,1.377,1.377,0,0,1,2.67-.67c.22.78,1.78,2.33,2.11.22.55-2.67,1.78-1.11,2.33,0a1.209,1.209,0,0,0,2.33-.22c.11-1.78,2.78-1.11,3.11.67.44,1.78,1.89,2,2.67.56.78-1.33,3.44,1.33,2.44,1.44-.11,0,1.11,3.11,2.56,1,1.22-1.78,2.22.89,2.11,1.33-.22.67-.78,3.11,2,1.56,1-.55,3.11-.33,1.89,2.22-.33.78.78,2.33,1.66,2,1.44-.67,2.56,1.11,2,2.89-.22.67-.44,2.33,1.44,2.33,1.33,0,1.78,1.11,1,2.89-.44,1.11-.78,2.44,1,2.67a1.831,1.831,0,0,1,.89,3.11,1.39,1.39,0,0,0,.44,2.44c1.33.44,1.89,2,.33,2.89s-1,1.56,0,2C71.47,41.73,70.91,42.5,69.36,43.06Z" fill="#e7912c" fill-rule="evenodd"/><path d="M69.13,43.06c-1.11.44-1.44,1.44,0,1.89,1.67.56,1,2.44-.33,2.89a1.453,1.453,0,0,0-.56,2.44,1.682,1.682,0,0,1-.78,3c-1.78.33-1.44,1.55-1,2.67.78,1.78.22,2.89-1,2.89-1.78,0-1.67,1.67-1.44,2.44.56,1.67-.56,3.44-2,2.78-.89-.33-1.89,1.22-1.55,2,1.11,2.56-.89,2.67-1.89,2.22-2.78-1.55-2.22.78-2,1.44.11.33-.89,3.11-2.11,1.22-1.44-1.89-2.67,1-2.56,1,1,.11-1.67,2.78-2.44,1.44-.78-1.44-2.22-1.22-2.55.67a1.646,1.646,0,0,1-3.11.55c-1.78-2.67-1.33,1.34-3.11,1.22-1.11,1.11-.78-4.22-3.11-1.22-1.11,1.34-2.78,1.11-3.11-.55-.44-1.89-1.89-2.11-2.67-.67-.78,1.33-3.44-1.33-2.44-1.44.11,0-1-2.89-2.44-1-1.33,1.89-2.33-.89-2.11-1.22.11-.67.67-3-2-1.44-1,.44-3.11.33-2-2.22.44-.78-.67-2.33-1.55-2-1.44.67-2.55-1.11-2-2.78.22-.78.44-2.44-1.33-2.44-1.33,0-1.89-1.11-1.11-2.89.56-1.11.89-2.33-1-2.67a1.685,1.685,0,0,1-.78-3,1.39,1.39,0,0,0-.44-2.44c-1.33-.44-2.11-2.67-.33-2.89,1.11-.11,1.33-1.22,0-2.11-1.33-.78-1.33-1.89-.11-2.11a1.022,1.022,0,0,0,.11-1.89c-1.67-.67-1-2.33.33-2.78a1.4,1.4,0,0,0,.44-2.44,1.777,1.777,0,0,1,.78-3.11c1.89-.22,1.55-1.55,1-2.56-.78-1.78-.22-2.89,1.11-2.89,1.78,0,1.56-1.67,1.33-2.44-.56-1.67.56-3.44,2-2.89.89.44,2-1.11,1.55-1.89-1.11-2.55,1-2.67,2-2.22,2.67,1.55,2.11-.89,2-1.55-.22-.44.78-3.11,2.11-1.22,1.44,2,2.56-1,2.44-1-1-.89,1.67-3.56,2.44-1.44.55,1.44,3,1.11,2.67-.67a1.363,1.363,0,0,1,2.67-.55c.22.67,1.67,2.33,2.11.22.44-2.67,1.67-1.11,2.22,0a1.248,1.248,0,0,0,2.33-.22c.11-1.78,2.67-1.11,3.11.55.33,1.78,1.78,2,2.55.67.78-1.44,3.44,1.33,2.44,1.44-.11,0,1.11,3,2.56,1,1.22-1.89,2.22.78,2.11,1.22-.22.67-.78,3.11,2,1.55,1-.44,3-.33,1.89,2.22-.33.78.67,2.33,1.55,1.89,1.44-.55,2.56,1.22,2,2.89-.22.78-.33,2.44,1.44,2.44,1.22,0,1.78,1.11,1,2.89-.44,1-.78,2.33,1,2.56a1.777,1.777,0,0,1,.78,3.11,1.46,1.46,0,0,0,.56,2.44c1.33.44,1.78,2,.33,2.78-1.55,1-1,1.67-.11,2C71.24,41.73,70.69,42.39,69.13,43.06Z" fill="#e9952b" fill-rule="evenodd"/><path d="M68.91,43.06c-1.11.44-1.44,1.44,0,1.89,1.55.56.89,2.44-.44,2.78a1.581,1.581,0,0,0-.44,2.55,1.605,1.605,0,0,1-.78,2.89c-1.78.33-1.44,1.55-1,2.67.78,1.78.22,2.89-1,2.89-1.78,0-1.67,1.56-1.44,2.33.55,1.67-.56,3.44-1.89,2.89-.89-.44-2,1.11-1.67,1.89,1.22,2.56-.89,2.67-1.89,2.11-2.67-1.44-2.11.89-1.89,1.44.11.45-.89,3.11-2.11,1.33-1.44-1.89-2.55,1-2.55,1,1,.11-1.67,2.78-2.44,1.33-.67-1.33-2.11-1.11-2.56.67a1.589,1.589,0,0,1-3,.67c-1.78-2.67-1.33,1.22-3.11,1.11-1.11,1.11-.78-4.11-3.11-1.11-1.11,1.33-2.67,1.11-3.11-.67-.33-1.78-1.78-2-2.55-.67-.78,1.44-3.44-1.22-2.44-1.33.11,0-1-2.89-2.44-1-1.33,1.78-2.22-.89-2.11-1.33.22-.55.67-2.89-2-1.44-1,.55-3,.44-1.89-2.11.33-.78-.67-2.33-1.55-1.89-1.44.55-2.56-1.22-2-2.89.22-.78.44-2.33-1.33-2.33-1.33,0-1.89-1.11-1.11-2.89.56-1.11.89-2.33-.89-2.67a1.627,1.627,0,0,1-.89-2.89,1.487,1.487,0,0,0-.44-2.55c-1.33-.33-2-2.56-.33-2.78,1.11-.11,1.33-1.22,0-2.11-1.33-.78-1.33-1.89-.11-2.11a.945.945,0,0,0,.11-1.78c-1.55-.67-1-2.44.33-2.89a1.391,1.391,0,0,0,.44-2.44,1.715,1.715,0,0,1,.89-3c1.78-.22,1.44-1.56.89-2.56-.78-1.78-.22-2.89,1.11-2.89,1.78,0,1.56-1.66,1.33-2.33-.56-1.78.56-3.55,2-2.89.89.44,1.89-1.11,1.55-1.89-1.11-2.56.89-2.67,1.89-2.22,2.67,1.55,2.22-.89,2-1.55-.11-.33.78-3,2.11-1.22,1.44,2,2.55-.89,2.44-1-1-.78,1.67-3.44,2.44-1.33a1.32,1.32,0,0,0,2.55-.67,1.379,1.379,0,0,1,2.67-.67c.22.78,1.67,2.33,2.11.22.44-2.56,1.67-1,2.22,0a1.212,1.212,0,0,0,2.33-.22c.11-1.67,2.67-1.11,3,.67.44,1.78,1.89,2,2.56.67.78-1.44,3.44,1.22,2.44,1.33,0,0,1.11,3,2.55,1,1.22-1.78,2.22.89,2.11,1.22-.22.67-.78,3.11,1.89,1.55,1-.45,3.11-.33,1.89,2.22-.33.78.78,2.33,1.67,1.89,1.33-.67,2.44,1.11,1.89,2.89-.22.67-.33,2.33,1.44,2.33,1.22,0,1.78,1.11,1,2.89-.45,1-.78,2.33,1,2.56a1.693,1.693,0,0,1,.78,3,1.471,1.471,0,0,0,.44,2.44c1.33.44,1.89,2,.44,2.89-1.67.89-1,1.55-.11,1.89C71.02,41.73,70.36,42.39,68.91,43.06Z" fill="#ea972b" fill-rule="evenodd"/><path d="M68.69,43.06c-1.11.44-1.44,1.44-.11,1.89,1.67.56,1,2.33-.33,2.78a1.391,1.391,0,0,0-.44,2.44,1.722,1.722,0,0,1-.78,3c-1.78.22-1.44,1.44-1,2.56.78,1.78.22,2.78-1,2.78-1.78,0-1.67,1.67-1.44,2.33.55,1.78-.44,3.55-1.89,2.89-.89-.44-1.89,1.11-1.55,1.89,1.11,2.56-.89,2.67-1.89,2.11-2.67-1.44-2.22.89-2,1.44.11.44-.78,3.11-2.11,1.33-1.33-2-2.44.89-2.44.89,1,.11-1.67,2.78-2.33,1.45-.78-1.33-2.22-1.11-2.56.55-.44,1.78-2.11,2.11-3.11.67-1.66-2.67-1.33,1.22-3,1.11-1.11,1.11-.78-4.11-3.11-1.11-1,1.33-2.67,1.11-3-.67-.44-1.66-1.89-1.89-2.56-.55-.78,1.33-3.44-1.33-2.44-1.45.11,0-1-2.89-2.44-.89-1.22,1.78-2.22-.89-2.11-1.33.22-.56.78-2.89-1.89-1.44-1,.56-3.11.45-1.89-2.11.33-.78-.78-2.33-1.67-1.89-1.33.67-2.44-1.11-1.89-2.89.22-.67.44-2.33-1.33-2.33-1.33,0-1.89-1-1-2.78.44-1.11.78-2.33-1-2.56a1.744,1.744,0,0,1-.89-3,1.39,1.39,0,0,0-.44-2.44c-1.22-.45-2-2.67-.33-2.78,1.11-.11,1.44-1.22,0-2.11-1.22-.78-1.22-1.89-.11-2.11a.927.927,0,0,0,.11-1.78c-1.55-.67-.89-2.33.33-2.78a1.4,1.4,0,0,0,.44-2.44,1.744,1.744,0,0,1,.89-3c1.78-.22,1.44-1.55,1-2.55-.89-1.78-.33-2.89,1-2.89,1.78,0,1.56-1.56,1.33-2.33-.56-1.67.56-3.44,1.89-2.78.89.44,2-1.11,1.67-1.89-1.22-2.56.89-2.67,1.89-2.11,2.67,1.44,2.11-.89,1.89-1.56-.11-.44.89-3.11,2.11-1.33,1.44,2,2.56-.89,2.44-1-1-.78,1.67-3.33,2.44-1.33a1.326,1.326,0,0,0,2.56-.67,1.306,1.306,0,0,1,2.55-.56c.22.67,1.67,2.33,2.11.22.44-2.56,1.67-1,2.22,0a1.167,1.167,0,0,0,2.22-.22c.11-1.67,2.67-1.11,3.11.56.33,1.78,1.78,2,2.56.67.67-1.33,3.33,1.33,2.33,1.33,0,0,1.11,3,2.44,1,1.33-1.78,2.22.89,2.11,1.33-.22.67-.67,3,2,1.56,1-.56,3-.44,1.89,2.11-.33.78.67,2.33,1.55,1.89,1.44-.67,2.44,1.11,1.89,2.78-.22.78-.33,2.33,1.44,2.33,1.22,0,1.78,1.11,1,2.89-.44,1-.78,2.33,1,2.55a1.722,1.722,0,0,1,.78,3,1.4,1.4,0,0,0,.44,2.44c1.33.44,1.78,1.89.33,2.78-1.56.89-.89,1.55,0,1.89C70.69,41.73,70.13,42.39,68.69,43.06Z" fill="#ec992b" fill-rule="evenodd"/><path d="M68.36,43.06c-1,.44-1.44,1.44,0,1.89,1.55.44,1,2.33-.33,2.67a1.4,1.4,0,0,0-.44,2.44,1.754,1.754,0,0,1-.78,3c-1.78.22-1.44,1.44-1,2.56.78,1.67.22,2.78-1,2.78-1.78,0-1.67,1.55-1.33,2.33.44,1.67-.55,3.44-2,2.78-.89-.33-1.89,1.11-1.56,1.89,1.11,2.56-.89,2.67-1.89,2.11-2.56-1.44-2.11.89-1.89,1.56.11.33-.78,2.89-2.11,1.11-1.33-1.89-2.44,1-2.33,1,.89.11-1.67,2.67-2.44,1.33-.67-1.33-2.11-1.11-2.55.67a1.575,1.575,0,0,1-3,.56c-1.78-2.56-1.33,1.33-3,1.22-1.11,1-.78-4.11-3.11-1.22-1,1.33-2.67,1.11-3-.56-.33-1.78-1.78-2-2.56-.67-.67,1.33-3.33-1.22-2.33-1.33.11,0-1-2.89-2.44-1-1.22,1.78-2.22-.78-2.11-1.11.22-.67.78-3-1.89-1.56-1,.56-3,.44-1.89-2.11.33-.78-.67-2.22-1.56-1.89-1.33.67-2.44-1.11-1.89-2.78.22-.78.33-2.33-1.33-2.33-1.33,0-1.78-1.11-1-2.78.44-1.11.78-2.33-1-2.56a1.693,1.693,0,0,1-.78-3,1.486,1.486,0,0,0-.44-2.44c-1.33-.33-2-2.56-.44-2.67,1.22-.11,1.44-1.33.11-2.11s-1.33-1.89-.11-2.11a.941.941,0,0,0,0-1.78c-1.44-.67-.89-2.33.44-2.78a1.382,1.382,0,0,0,.44-2.33,1.693,1.693,0,0,1,.78-3c1.78-.22,1.44-1.56,1-2.56-.78-1.67-.33-2.78,1-2.78,1.67,0,1.55-1.67,1.33-2.33-.56-1.67.56-3.44,1.89-2.78.89.33,1.89-1.11,1.56-1.89-1.11-2.55.89-2.67,1.89-2.11,2.67,1.44,2.11-.89,1.89-1.55-.11-.44.89-3,2.11-1.22,1.44,2,2.55-1,2.44-1-1-.78,1.67-3.44,2.33-1.33.56,1.33,2.89,1.11,2.56-.67a1.382,1.382,0,0,1,2.67-.67c.11.78,1.55,2.33,2,.22.55-2.44,1.67-1,2.22.11a1.163,1.163,0,0,0,2.22-.33c.11-1.67,2.67-1,3,.67.44,1.78,1.89,2,2.55.67.78-1.44,3.33,1.22,2.44,1.33-.11,0,1,3,2.33,1,1.33-1.78,2.22.78,2.11,1.22-.22.67-.67,3,1.89,1.55,1-.55,3-.44,1.89,2.11-.33.78.67,2.22,1.56,1.89,1.44-.67,2.44,1.11,2,2.78-.33.67-.44,2.33,1.33,2.33,1.22,0,1.78,1.11,1,2.78-.44,1-.78,2.33,1,2.56a1.754,1.754,0,0,1,.78,3,1.309,1.309,0,0,0,.44,2.33c1.33.44,1.78,2,.33,2.78-1.55.89-.89,1.55-.11,1.89C70.47,41.73,69.8,42.39,68.36,43.06Z" fill="#ed9b2b" fill-rule="evenodd"/><path d="M68.13,43.06c-1.11.44-1.45,1.33,0,1.78,1.55.56.89,2.33-.33,2.78a1.4,1.4,0,0,0-.45,2.44,1.67,1.67,0,0,1-.89,2.89c-1.67.22-1.33,1.44-.89,2.56.78,1.67.22,2.78-1,2.78-1.78,0-1.56,1.55-1.33,2.22.44,1.67-.56,3.44-1.89,2.78-.89-.33-2,1.11-1.56,1.89,1.11,2.44-1,2.67-1.89,2.11-2.67-1.45-2.11.89-1.89,1.55.11.33-.89,2.89-2.11,1.11-1.33-1.89-2.44,1-2.33,1,.89,0-1.67,2.67-2.44,1.33-.67-1.33-2.11-1.11-2.44.56a1.6,1.6,0,0,1-3,.67c-1.78-2.67-1.33,1.22-3,1.11-1.11,1.11-.78-4-3-1.11-1,1.22-2.67,1-3-.67-.44-1.67-1.78-1.89-2.55-.56-.67,1.33-3.33-1.33-2.33-1.33.11,0-1-2.89-2.44-1-1.22,1.78-2.11-.78-2-1.11.22-.67.67-3-2-1.55-.89.55-2.89.33-1.78-2.11.33-.78-.67-2.22-1.56-1.89-1.33.67-2.44-1.11-1.89-2.78.22-.67.33-2.22-1.33-2.22-1.33,0-1.78-1.11-1-2.78.44-1.11.78-2.33-1-2.56a1.647,1.647,0,0,1-.78-2.89,1.471,1.471,0,0,0-.44-2.44c-1.33-.44-2-2.56-.33-2.78,1.11-.11,1.33-1.22,0-2s-1.33-1.89-.11-2.11a.943.943,0,0,0,.11-1.78c-1.55-.67-1-2.22.33-2.67a1.48,1.48,0,0,0,.44-2.44,1.647,1.647,0,0,1,.78-2.89c1.78-.33,1.44-1.44,1-2.55-.78-1.67-.33-2.78,1-2.78,1.67,0,1.55-1.56,1.33-2.33-.56-1.67.56-3.33,1.89-2.67.89.33,1.89-1.22,1.56-2-1.11-2.44.89-2.56,1.78-2,2.67,1.44,2.22-.89,2-1.55-.11-.45.78-3,2-1.22,1.44,2,2.56-.89,2.44-1-1-.78,1.67-3.33,2.33-1.33.56,1.44,2.89,1.11,2.55-.55a1.323,1.323,0,0,1,2.56-.67c.22.67,1.55,2.33,2,.22.55-2.55,1.67-1,2.22,0a1.171,1.171,0,0,0,2.22-.22c.11-1.67,2.67-1.11,3,.67.33,1.67,1.78,1.89,2.44.55.78-1.33,3.33,1.22,2.44,1.33-.11,0,1,3,2.33,1,1.22-1.78,2.22.78,2.11,1.22-.22.67-.78,3,1.89,1.55.89-.56,3-.44,1.89,2-.44.78.67,2.33,1.56,2,1.33-.67,2.33,1,1.89,2.67-.22.78-.44,2.33,1.33,2.33,1.22,0,1.78,1.11,1,2.78-.44,1.11-.78,2.22.89,2.55a1.67,1.67,0,0,1,.89,2.89,1.394,1.394,0,0,0,.45,2.44c1.22.44,1.78,1.89.33,2.67-1.56.89-1,1.55-.11,1.89C70.13,41.73,69.58,42.39,68.13,43.06Z" fill="#ed9c2a" fill-rule="evenodd"/><path d="M67.91,43.06c-1.11.44-1.44,1.33-.11,1.78,1.56.56,1,2.33-.33,2.78a1.375,1.375,0,0,0-.44,2.33,1.62,1.62,0,0,1-.78,2.89c-1.67.22-1.33,1.44-.89,2.55.78,1.67.22,2.67-1,2.67-1.78,0-1.55,1.55-1.33,2.33.55,1.67-.56,3.33-1.89,2.78-.89-.44-1.89,1.11-1.55,1.78,1.11,2.44-.89,2.67-1.78,2.11-2.67-1.44-2.11.89-2,1.44.11.45-.78,2.89-2,1.22-1.33-1.89-2.44.89-2.33.89,1,.11-1.67,2.67-2.33,1.33-.78-1.33-2.11-1.11-2.56.67a1.519,1.519,0,0,1-2.89.56c-1.78-2.56-1.33,1.22-3,1.11-1.11,1.11-.78-4-3-1.11-1,1.33-2.67,1.11-3-.56-.33-1.78-1.78-2-2.44-.67-.78,1.33-3.33-1.22-2.33-1.33.11,0-1-2.78-2.44-.89-1.22,1.66-2.11-.78-2-1.22.22-.55.67-2.89-1.89-1.44-.89.56-3,.33-1.78-2.11.33-.67-.78-2.22-1.56-1.78-1.44.55-2.44-1.11-1.89-2.78.22-.78.33-2.33-1.33-2.33-1.33,0-1.78-1-1-2.67.44-1.11.78-2.33-1-2.55a1.677,1.677,0,0,1-.78-2.89,1.3,1.3,0,0,0-.44-2.33c-1.22-.44-1.89-2.56-.33-2.78,1.11-.11,1.33-1.22,0-2-1.22-.78-1.22-1.89-.11-2a.947.947,0,0,0,.11-1.78c-1.44-.67-.89-2.33.33-2.78a1.309,1.309,0,0,0,.44-2.33,1.667,1.667,0,0,1,.78-2.89c1.78-.33,1.44-1.44,1-2.56-.78-1.67-.33-2.78,1-2.78,1.67,0,1.55-1.56,1.33-2.22-.56-1.67.44-3.33,1.89-2.78.78.44,1.89-1.11,1.56-1.89-1.22-2.44.89-2.56,1.78-2,2.56,1.44,2.11-.89,1.89-1.55-.11-.33.78-2.89,2-1.22,1.45,2,2.44-.89,2.44-.89-1-.78,1.55-3.33,2.33-1.33a1.267,1.267,0,0,0,2.44-.67,1.311,1.311,0,0,1,2.56-.56c.22.67,1.67,2.22,2,.22.55-2.56,1.67-1,2.22,0a1.171,1.171,0,0,0,2.22-.22c.11-1.67,2.56-1.11,2.89.56.44,1.78,1.78,2,2.56.67.67-1.33,3.33,1.22,2.33,1.33-.11,0,1,2.89,2.33.89,1.22-1.67,2.11.89,2,1.22-.11.67-.67,3,2,1.55.89-.56,2.89-.44,1.78,2-.33.78.67,2.33,1.55,1.89,1.33-.56,2.44,1.11,1.89,2.78-.22.67-.45,2.22,1.33,2.22,1.22,0,1.78,1.11,1,2.78-.45,1.11-.78,2.22.89,2.56a1.613,1.613,0,0,1,.78,2.89,1.381,1.381,0,0,0,.44,2.33c1.33.44,1.78,1.89.33,2.78-1.44.78-.89,1.44,0,1.78C69.91,41.73,69.36,42.39,67.91,43.06Z" fill="#ef9f2a" fill-rule="evenodd"/><path d="M67.58,43.06c-1,.33-1.33,1.33,0,1.78,1.55.45.89,2.22-.33,2.67a1.382,1.382,0,0,0-.44,2.33,1.638,1.638,0,0,1-.78,2.89c-1.67.33-1.33,1.45-.89,2.45.67,1.78.22,2.78-1,2.78-1.78,0-1.55,1.55-1.33,2.22.55,1.67-.56,3.33-1.89,2.78-.89-.44-1.89,1.11-1.55,1.78,1.11,2.44-.89,2.56-1.78,2.11-2.55-1.44-2.11.78-1.89,1.44.11.44-.78,2.89-2,1.11-1.33-1.78-2.44,1-2.33,1,1,.11-1.67,2.67-2.33,1.33s-2.11-1.11-2.44.55a1.6,1.6,0,0,1-3,.67c-1.67-2.67-1.22,1.11-2.89,1-1.11,1.11-.78-3.89-3-1-1,1.22-2.56,1-2.89-.67s-1.78-1.89-2.44-.55c-.78,1.33-3.33-1.22-2.33-1.33,0,0-1-2.78-2.44-1-1.11,1.78-2.11-.67-2-1.11.22-.67.78-2.89-1.89-1.44-.89.45-2.89.33-1.78-2.11.33-.67-.67-2.22-1.55-1.78-1.33.56-2.33-1.11-1.78-2.78.22-.67.33-2.22-1.33-2.22-1.22,0-1.78-1-1-2.78.44-1,.78-2.11-1-2.45a1.667,1.667,0,0,1-.78-2.89,1.309,1.309,0,0,0-.44-2.33c-1.22-.44-1.89-2.56-.33-2.67,1.11-.11,1.33-1.22.11-2-1.33-.78-1.33-1.89-.11-2a.967.967,0,0,0,0-1.78,1.4,1.4,0,0,1,.33-2.67,1.313,1.313,0,0,0,.44-2.33,1.667,1.667,0,0,1,.78-2.89c1.78-.33,1.44-1.44,1-2.56-.78-1.67-.22-2.67,1-2.67,1.67,0,1.55-1.56,1.33-2.22-.56-1.67.44-3.33,1.78-2.78.89.44,1.89-1.11,1.55-1.89-1.11-2.33.89-2.56,1.78-2,2.67,1.45,2.11-.89,1.89-1.44-.11-.44.89-3,2-1.22,1.44,1.89,2.44-.89,2.44-1-1-.78,1.55-3.33,2.33-1.33a1.253,1.253,0,0,0,2.44-.56,1.265,1.265,0,0,1,2.44-.67c.22.78,1.67,2.22,2,.22.55-2.44,1.67-1,2.22,0,.67,1.22,2.11.78,2.11-.22.11-1.55,2.67-1,3,.67s1.78,1.89,2.44.56,3.33,1.22,2.33,1.33c-.11,0,1,2.89,2.33,1,1.22-1.78,2.11.78,2,1.22-.22.56-.67,2.89,1.89,1.44.89-.55,2.89-.33,1.78,2-.33.78.67,2.33,1.55,1.89,1.33-.56,2.44,1.11,1.89,2.78-.22.67-.44,2.22,1.33,2.22,1.22,0,1.67,1,1,2.67-.44,1.11-.78,2.22.89,2.56a1.638,1.638,0,0,1,.78,2.89,1.388,1.388,0,0,0,.44,2.33,1.4,1.4,0,0,1,.33,2.67c-1.44.89-.89,1.44,0,1.78C69.58,41.73,69.02,42.39,67.58,43.06Z" fill="#efa12a" fill-rule="evenodd"/><path d="M67.35,42.95c-1,.44-1.33,1.44,0,1.89,1.56.45.89,2.22-.33,2.67a1.38,1.38,0,0,0-.45,2.33,1.592,1.592,0,0,1-.78,2.78c-1.67.33-1.33,1.44-.89,2.44.67,1.67.22,2.78-1,2.78-1.67,0-1.55,1.44-1.33,2.22.56,1.55-.55,3.22-1.89,2.67-.78-.33-1.78,1.11-1.44,1.89,1.11,2.33-.89,2.44-1.78,2-2.56-1.44-2.11.78-1.89,1.45.11.44-.78,2.78-2,1.11-1.33-1.78-2.44.89-2.33.89,1,.11-1.55,2.67-2.33,1.33-.67-1.33-2.11-1.11-2.44.67a1.532,1.532,0,0,1-2.89.55c-1.67-2.55-1.22,1.22-2.89,1.11-1.11,1-.78-3.89-3-1.11a1.551,1.551,0,0,1-2.89-.55c-.33-1.78-1.67-2-2.44-.67-.67,1.34-3.22-1.22-2.22-1.33,0,0-1-2.67-2.33-.89-1.22,1.67-2.11-.67-2-1.11.11-.67.67-2.89-1.89-1.45-.89.44-2.89.33-1.78-2,.33-.78-.67-2.22-1.56-1.89-1.33.56-2.33-1.11-1.78-2.67.22-.78.33-2.22-1.33-2.22-1.22,0-1.78-1.11-1-2.78.44-1,.78-2.11-.89-2.44a1.565,1.565,0,0,1-.78-2.78,1.374,1.374,0,0,0-.44-2.33c-1.22-.44-2-2.56-.33-2.67,1-.11,1.33-1.22,0-2-1.22-.78-1.22-1.78-.11-2a.965.965,0,0,0,.11-1.78c-1.56-.67-.89-2.22.33-2.67a1.374,1.374,0,0,0,.44-2.33,1.558,1.558,0,0,1,.78-2.78c1.67-.33,1.33-1.44.89-2.44-.78-1.67-.22-2.78,1-2.78,1.67,0,1.55-1.55,1.33-2.22-.56-1.55.44-3.33,1.78-2.67.89.33,1.89-1.11,1.56-1.89-1.11-2.33.89-2.44,1.78-2,2.56,1.44,2-.78,1.89-1.44-.11-.45.78-2.89,2-1.22,1.33,1.89,2.33-.89,2.33-.89-1-.78,1.56-3.33,2.22-1.33.56,1.33,2.78,1,2.44-.67a1.315,1.315,0,0,1,2.56-.56c.22.67,1.55,2.22,2,.22.44-2.44,1.55-1,2.11,0a1.1,1.1,0,0,0,2.11-.22c.11-1.55,2.55-1,2.89.56.33,1.67,1.78,1.89,2.44.67.78-1.33,3.33,1.22,2.33,1.33-.11,0,1,2.78,2.33.89,1.22-1.67,2.11.78,2,1.22-.22.67-.67,2.89,1.89,1.44.89-.44,2.89-.33,1.78,2-.33.78.67,2.22,1.44,1.89,1.33-.67,2.44,1.11,1.89,2.67-.22.67-.33,2.22,1.33,2.22,1.22,0,1.67,1.11,1,2.78-.44,1-.78,2.11.89,2.44a1.583,1.583,0,0,1,.78,2.78,1.372,1.372,0,0,0,.45,2.33c1.22.44,1.67,1.89.33,2.67-1.44.89-.89,1.44-.11,1.78C69.36,41.73,68.8,42.39,67.35,42.95Z" fill="#efa22a" fill-rule="evenodd"/><path d="M67.13,42.95c-1,.44-1.33,1.44,0,1.89,1.44.45.89,2.22-.33,2.56a1.382,1.382,0,0,0-.44,2.33,1.583,1.583,0,0,1-.78,2.78c-1.67.33-1.44,1.44-1,2.44.78,1.67.33,2.67-.89,2.67-1.67,0-1.55,1.55-1.33,2.22.56,1.67-.44,3.33-1.78,2.67-.89-.33-1.89,1.11-1.56,1.89,1.11,2.33-.89,2.44-1.78,2-2.44-1.44-2,.78-1.78,1.44.11.33-.78,2.78-2,1.22-1.33-2-2.44.78-2.33.78,1,.11-1.55,2.55-2.33,1.33-.67-1.33-2-1.11-2.33.56a1.518,1.518,0,0,1-2.89.55c-1.67-2.44-1.22,1.22-2.89,1.11-1.11,1-.78-3.89-2.89-1.11-1,1.22-2.55,1.11-2.89-.55s-1.78-1.89-2.44-.56c-.67,1.22-3.22-1.22-2.22-1.33,0,0-1-2.78-2.33-.78-1.22,1.55-2.11-.89-2-1.22.22-.67.67-2.89-1.89-1.44-.89.44-2.78.33-1.78-2,.33-.78-.67-2.22-1.44-1.89-1.33.67-2.33-1-1.89-2.67.22-.67.44-2.22-1.22-2.22-1.22,0-1.78-1-1-2.67.44-1,.78-2.11-.89-2.44a1.558,1.558,0,0,1-.78-2.78,1.382,1.382,0,0,0-.44-2.33c-1.22-.33-1.89-2.44-.33-2.56,1.11-.11,1.33-1.22,0-2-1.22-.78-1.22-1.78-.11-2a.943.943,0,0,0,.11-1.78c-1.44-.55-.89-2.22.33-2.55a1.388,1.388,0,0,0,.44-2.33,1.558,1.558,0,0,1,.78-2.78c1.67-.33,1.33-1.44.89-2.44-.78-1.67-.22-2.67,1-2.67,1.67,0,1.44-1.55,1.22-2.22-.44-1.67.56-3.33,1.89-2.67.78.33,1.78-1.11,1.44-1.89-1-2.33.89-2.44,1.78-2,2.55,1.44,2.11-.78,1.89-1.44-.11-.44.78-2.89,2-1.22,1.33,2,2.33-.89,2.33-.89-1-.78,1.55-3.22,2.22-1.33a1.253,1.253,0,0,0,2.44-.56,1.253,1.253,0,0,1,2.44-.56c.22.67,1.55,2.11,2,.11.44-2.33,1.55-.89,2.11.11a1.113,1.113,0,0,0,2.11-.22c.11-1.67,2.55-1.11,2.89.56s1.67,1.89,2.33.56c.78-1.22,3.33,1.22,2.33,1.33-.11,0,1,2.89,2.33.89,1.22-1.67,2.11.78,2,1.22-.22.67-.67,2.89,1.78,1.44.89-.45,2.89-.33,1.78,2-.33.78.67,2.22,1.56,1.89,1.33-.67,2.33,1,1.78,2.67-.22.67-.33,2.22,1.33,2.22,1.22,0,1.67,1,.89,2.67-.45,1-.67,2.11,1,2.44a1.583,1.583,0,0,1,.78,2.78,1.388,1.388,0,0,0,.44,2.33,1.336,1.336,0,0,1,.33,2.55c-1.56.89-.89,1.56-.11,1.89C69.02,41.73,68.47,42.39,67.13,42.95Z" fill="#f2a529" fill-rule="evenodd"/><path d="M66.91,42.95c-1.11.44-1.44,1.33-.11,1.78,1.55.56.89,2.22-.33,2.67a1.289,1.289,0,0,0-.44,2.22,1.563,1.563,0,0,1-.67,2.78c-1.67.33-1.45,1.44-1,2.44.78,1.67.33,2.67-.89,2.67-1.67,0-1.56,1.44-1.33,2.22.55,1.55-.45,3.22-1.78,2.56-.89-.33-1.78,1.11-1.44,1.89,1,2.33-.89,2.44-1.78,2-2.56-1.44-2,.78-1.89,1.44.11.33-.78,2.67-1.89,1.11-1.33-1.89-2.44.89-2.33.89,1,0-1.55,2.55-2.22,1.22-.67-1.22-2.11-1-2.44.55a1.481,1.481,0,0,1-2.78.67c-1.67-2.56-1.22,1.11-2.89,1-1,1.11-.78-3.78-2.89-1-1,1.22-2.55,1-2.89-.67-.33-1.55-1.67-1.78-2.33-.55-.67,1.33-3.22-1.22-2.33-1.22.11,0-.89-2.78-2.22-.89-1.22,1.56-2.11-.78-2-1.11.22-.67.67-2.89-1.78-1.44-.89.44-2.89.33-1.78-2,.33-.78-.67-2.22-1.44-1.89-1.33.67-2.33-1-1.89-2.56.22-.78.44-2.22-1.22-2.22-1.22,0-1.67-1-1-2.67.44-1,.78-2.11-.89-2.44a1.583,1.583,0,0,1-.78-2.78,1.288,1.288,0,0,0-.44-2.22c-1.22-.44-1.89-2.44-.33-2.67,1.11-.11,1.33-1.11,0-1.89-1.11-.78-1.11-1.78,0-2a.886.886,0,0,0,0-1.67c-1.44-.67-.89-2.22.33-2.67a1.289,1.289,0,0,0,.44-2.22,1.574,1.574,0,0,1,.78-2.78c1.67-.33,1.33-1.44.89-2.44-.67-1.66-.22-2.67,1-2.67,1.67,0,1.44-1.55,1.22-2.22-.44-1.55.56-3.22,1.89-2.67.78.44,1.78-1,1.44-1.78-1.11-2.33.89-2.44,1.78-2,2.44,1.44,2-.78,1.78-1.45-.11-.33.78-2.78,2-1.11,1.33,1.89,2.33-.89,2.22-1-.89-.67,1.67-3.22,2.33-1.22a1.213,1.213,0,0,0,2.33-.67,1.252,1.252,0,0,1,2.44-.55c.22.67,1.55,2.22,2,.22.44-2.44,1.55-1,2.11,0a1.1,1.1,0,0,0,2.11-.22c.11-1.56,2.44-1,2.78.55.33,1.67,1.78,1.89,2.44.67.67-1.33,3.22,1.22,2.22,1.22-.11,0,1,2.89,2.33,1,1.11-1.66,2,.78,1.89,1.11-.11.67-.67,2.89,1.89,1.45.89-.44,2.78-.33,1.78,2-.33.78.55,2.22,1.44,1.78,1.33-.56,2.33,1.11,1.78,2.67-.22.67-.33,2.22,1.33,2.22,1.22,0,1.67,1,.89,2.67-.44,1-.67,2.11,1,2.44a1.554,1.554,0,0,1,.67,2.78,1.288,1.288,0,0,0,.44,2.22c1.22.44,1.78,1.89.33,2.67s-.89,1.44,0,1.78C68.8,41.73,68.24,42.39,66.91,42.95Z" fill="#f2a728" fill-rule="evenodd"/><path d="M66.58,42.95c-1,.44-1.33,1.33,0,1.78,1.44.44.89,2.22-.33,2.55a1.38,1.38,0,0,0-.45,2.33,1.479,1.479,0,0,1-.78,2.67c-1.55.33-1.33,1.44-.89,2.44.78,1.56.33,2.67-.89,2.67-1.67,0-1.56,1.44-1.33,2.11.55,1.56-.44,3.22-1.78,2.67-.78-.44-1.78,1-1.44,1.78,1.11,2.33-.89,2.44-1.78,1.89-2.44-1.33-2,.89-1.78,1.45.11.44-.78,2.78-1.89,1.22-1.33-1.89-2.33.78-2.33.78,1,.11-1.55,2.56-2.22,1.33-.67-1.33-2-1.11-2.33.56a1.533,1.533,0,0,1-2.89.56c-1.55-2.45-1.22,1.11-2.78,1-1,1.11-.78-3.67-2.89-1a1.477,1.477,0,0,1-2.78-.56c-.33-1.67-1.67-1.89-2.33-.56-.78,1.22-3.22-1.22-2.33-1.33.11,0-.89-2.67-2.22-.78-1.11,1.56-2-.78-1.89-1.22.11-.56.67-2.78-1.89-1.45-.89.56-2.78.44-1.67-1.89.33-.78-.67-2.22-1.55-1.78-1.22.56-2.22-1.11-1.78-2.67.22-.67.44-2.11-1.22-2.11-1.22,0-1.67-1.11-1-2.67.44-1,.78-2.11-.89-2.44a1.528,1.528,0,0,1-.78-2.67,1.4,1.4,0,0,0-.33-2.33c-1.22-.33-1.89-2.44-.33-2.55,1-.11,1.22-1.22,0-1.89-1.22-.78-1.22-1.78-.11-2a.912.912,0,0,0,.11-1.67c-1.44-.67-.89-2.22.33-2.56a1.411,1.411,0,0,0,.33-2.33,1.528,1.528,0,0,1,.78-2.67c1.67-.33,1.33-1.45.89-2.44-.67-1.67-.22-2.67,1-2.67,1.67,0,1.44-1.44,1.22-2.11-.44-1.55.56-3.22,1.78-2.67.89.44,1.89-1,1.55-1.78-1.11-2.33.78-2.44,1.67-2,2.56,1.44,2-.78,1.89-1.33-.11-.44.78-2.89,1.89-1.22,1.33,1.89,2.33-.89,2.22-.89-.89-.78,1.55-3.22,2.33-1.33.44,1.33,2.67,1.11,2.33-.55a1.253,1.253,0,0,1,2.44-.56c.11.67,1.44,2.11,1.89.22.44-2.44,1.55-1,2.11,0a1.04,1.04,0,0,0,2-.22c.22-1.56,2.56-1,2.89.56.33,1.67,1.67,1.89,2.33.55.67-1.22,3.22,1.22,2.22,1.33,0,0,1,2.78,2.33.89,1.11-1.67,2,.78,1.89,1.22-.22.55-.67,2.78,1.78,1.33.89-.44,2.89-.33,1.78,2-.33.78.67,2.22,1.44,1.78,1.33-.56,2.33,1.11,1.78,2.67-.22.67-.33,2.11,1.33,2.11,1.22,0,1.66,1,.89,2.67-.44,1-.67,2.11.89,2.44a1.48,1.48,0,0,1,.78,2.67,1.379,1.379,0,0,0,.45,2.33,1.342,1.342,0,0,1,.33,2.56c-1.44.78-.89,1.44-.11,1.78C68.47,41.73,68.02,42.39,66.58,42.95Z" fill="#f4a928" fill-rule="evenodd"/><path d="M66.36,42.95c-1,.44-1.33,1.33,0,1.78,1.44.44.89,2.11-.33,2.55a1.289,1.289,0,0,0-.44,2.22,1.5,1.5,0,0,1-.78,2.67c-1.55.33-1.33,1.44-.89,2.44.78,1.56.22,2.56-.89,2.56-1.67,0-1.44,1.55-1.22,2.22.44,1.55-.55,3.11-1.78,2.55-.89-.33-1.78,1-1.55,1.78,1.11,2.33-.78,2.44-1.67,1.89-2.44-1.33-2,.89-1.78,1.44.11.44-.78,2.67-1.89,1.22-1.33-1.89-2.33.89-2.33.89,1,0-1.44,2.33-2.22,1.11-.67-1.11-2-1-2.33.55a1.461,1.461,0,0,1-2.78.55c-1.55-2.33-1.22,1.22-2.78,1.11-1,1-.67-3.67-2.78-1.11-1,1.22-2.56,1-2.89-.55s-1.67-1.67-2.33-.55c-.67,1.22-3.11-1.11-2.22-1.11.11,0-.89-2.78-2.22-.89-1.11,1.44-2-.78-1.89-1.22.22-.55.67-2.78-1.78-1.44-.89.55-2.78.44-1.78-1.89.33-.78-.67-2.11-1.44-1.78-1.22.56-2.22-1-1.78-2.55.22-.67.33-2.22-1.22-2.22-1.22,0-1.67-1-1-2.56.44-1,.78-2.11-.89-2.44a1.482,1.482,0,0,1-.67-2.67,1.288,1.288,0,0,0-.44-2.22c-1.22-.44-1.89-2.44-.33-2.55,1-.11,1.22-1.22,0-1.89-1.22-.78-1.22-1.78-.11-2a.888.888,0,0,0,.11-1.67c-1.44-.55-.89-2.11.33-2.56a1.288,1.288,0,0,0,.44-2.22,1.571,1.571,0,0,1,.67-2.78c1.67-.22,1.33-1.33.89-2.33-.67-1.56-.22-2.55,1-2.55,1.56,0,1.44-1.56,1.22-2.22-.44-1.56.56-3.11,1.78-2.56.78.33,1.78-1,1.44-1.78-1-2.33.89-2.44,1.78-1.89,2.44,1.33,2-.89,1.78-1.44-.11-.44.78-2.78,1.89-1.22,1.33,1.89,2.33-.78,2.22-.89-.89-.67,1.55-3.11,2.22-1.22.55,1.33,2.67,1,2.33-.56a1.252,1.252,0,0,1,2.44-.55c.22.55,1.55,2.11,1.89.11.44-2.33,1.55-.89,2.11,0a1.035,1.035,0,0,0,2-.11c.11-1.55,2.44-1,2.78.55s1.67,1.78,2.33.56c.78-1.22,3.22,1.11,2.22,1.22,0,0,1,2.78,2.33.89,1.11-1.55,2,.78,1.89,1.22-.22.56-.67,2.78,1.78,1.44.89-.56,2.78-.45,1.67,1.89-.22.78.67,2.11,1.55,1.78,1.22-.55,2.22,1,1.78,2.56-.22.67-.44,2.22,1.22,2.22,1.11,0,1.66,1,.89,2.55-.44,1-.67,2.11.89,2.33a1.592,1.592,0,0,1,.78,2.78,1.288,1.288,0,0,0,.44,2.22c1.22.45,1.67,1.78.33,2.56-1.44.89-.89,1.44-.11,1.78C68.24,41.73,67.69,42.39,66.36,42.95Z" fill="#f4ab27" fill-rule="evenodd"/><path d="M66.13,42.95c-1,.44-1.33,1.33-.11,1.78,1.55.44.89,2.11-.22,2.44a1.289,1.289,0,0,0-.44,2.22,1.624,1.624,0,0,1-.78,2.78c-1.56.22-1.33,1.33-.89,2.33.78,1.55.22,2.55-.89,2.55-1.67,0-1.44,1.44-1.22,2.11.44,1.55-.56,3.11-1.78,2.55-.78-.33-1.78,1.11-1.44,1.78,1,2.22-.89,2.44-1.67,1.89-2.44-1.33-2,.78-1.78,1.44.11.33-.78,2.67-2,1.11-1.22-1.78-2.22.89-2.22.89,1,.11-1.45,2.44-2.11,1.22s-2-1-2.33.55a1.478,1.478,0,0,1-2.78.56c-1.55-2.33-1.22,1.11-2.78,1-1,1-.67-3.55-2.78-1-1,1.11-2.44,1-2.78-.56s-1.67-1.78-2.33-.55-3.11-1.11-2.22-1.22c.11,0-.89-2.67-2.22-.89-1.11,1.55-2-.78-1.89-1.11.22-.67.67-2.78-1.78-1.44-.89.56-2.78.33-1.67-1.89.33-.67-.67-2.11-1.44-1.78-1.33.56-2.22-1-1.78-2.55.22-.67.33-2.11-1.22-2.11-1.22,0-1.67-1-.89-2.55.33-1,.67-2.11-.89-2.33a1.592,1.592,0,0,1-.78-2.78,1.288,1.288,0,0,0-.44-2.22c-1.22-.33-1.78-2.33-.33-2.44,1.11-.11,1.33-1.22,0-1.89-1.11-.78-1.11-1.78-.11-2a.868.868,0,0,0,.11-1.67c-1.33-.55-.89-2.11.33-2.44a1.294,1.294,0,0,0,.44-2.22,1.592,1.592,0,0,1,.78-2.78c1.55-.22,1.22-1.33.89-2.33-.78-1.55-.33-2.56.89-2.56,1.56,0,1.44-1.44,1.22-2.11-.44-1.55.44-3.11,1.78-2.56.78.33,1.78-1.11,1.44-1.78-1.11-2.33.78-2.44,1.67-1.89,2.44,1.33,2-.78,1.78-1.45-.11-.33.78-2.78,1.89-1.11,1.33,1.78,2.33-.89,2.22-.89-.89-.78,1.55-3.11,2.22-1.33.44,1.33,2.67,1.11,2.33-.55a1.2,1.2,0,0,1,2.33-.55c.22.67,1.55,2.11,1.89.22.44-2.33,1.55-.89,2.11,0a1.043,1.043,0,0,0,2-.22c.11-1.56,2.44-1,2.78.55.33,1.67,1.67,1.89,2.33.55.67-1.22,3.11,1.22,2.11,1.33,0,0,1,2.67,2.22.89,1.22-1.67,2.11.78,2,1.11-.22.67-.67,2.78,1.78,1.45.78-.56,2.67-.44,1.67,1.89-.33.67.67,2.11,1.44,1.78,1.22-.55,2.22,1,1.78,2.56-.22.67-.44,2.11,1.22,2.11,1.11,0,1.67,1,.89,2.56-.44,1-.67,2.11.89,2.33a1.623,1.623,0,0,1,.78,2.78,1.294,1.294,0,0,0,.44,2.22,1.274,1.274,0,0,1,.22,2.44c-1.33.89-.78,1.44,0,1.78C68.02,41.73,67.47,42.39,66.13,42.95Z" fill="#f5ad27" fill-rule="evenodd"/><path d="M65.8,42.95c-.89.44-1.22,1.22,0,1.67,1.44.56.89,2.11-.33,2.56a1.305,1.305,0,0,0-.33,2.22,1.548,1.548,0,0,1-.78,2.67c-1.55.22-1.33,1.33-.89,2.33.67,1.56.22,2.56-.89,2.56-1.55,0-1.44,1.44-1.22,2.11.44,1.44-.56,3-1.78,2.44-.78-.33-1.78,1.11-1.44,1.78,1.11,2.22-.78,2.33-1.67,1.89-2.44-1.33-1.89.78-1.78,1.44.11.33-.67,2.56-1.89,1.11-1.22-1.78-2.22.89-2.11.89.89.11-1.56,2.33-2.22,1.11-.67-1.11-2-.89-2.33.56a1.408,1.408,0,0,1-2.67.55c-1.66-2.22-1.22,1.11-2.78,1-1,1-.67-3.55-2.78-1-.89,1.22-2.44,1-2.67-.55-.45-1.44-1.67-1.67-2.33-.56-.67,1.22-3.11-1-2.22-1.11.11,0-.89-2.67-2.22-.89-1.11,1.44-2-.78-1.89-1.11.22-.67.67-2.78-1.67-1.44-.89.44-2.78.33-1.78-1.89.33-.67-.56-2.11-1.33-1.78-1.33.55-2.22-1-1.78-2.44.22-.67.33-2.11-1.22-2.11-1.22,0-1.67-1-.89-2.56.33-1,.67-2.11-.89-2.33a1.547,1.547,0,0,1-.78-2.67,1.282,1.282,0,0,0-.44-2.22c-1.11-.44-1.78-2.33-.22-2.56,1-.11,1.22-1.11,0-1.89-1.22-.67-1.22-1.67-.11-1.89a.824.824,0,0,0,.11-1.55,1.338,1.338,0,0,1,.22-2.56,1.289,1.289,0,0,0,.44-2.22,1.539,1.539,0,0,1,.78-2.67c1.55-.22,1.22-1.33.89-2.33-.78-1.55-.33-2.56.89-2.56,1.56,0,1.44-1.44,1.22-2.11-.44-1.45.44-3.11,1.78-2.44.78.33,1.67-1.11,1.33-1.78-1-2.22.89-2.33,1.78-1.89,2.33,1.33,1.89-.78,1.67-1.44-.11-.33.78-2.78,1.89-1.11,1.33,1.78,2.33-.78,2.22-.89-.89-.67,1.55-3.11,2.22-1.22a1.2,1.2,0,0,0,2.33-.55,1.2,1.2,0,1,1,2.33-.56c.11.67,1.44,2.11,1.78.22.44-2.33,1.55-1,2.11,0a1.061,1.061,0,0,0,2-.22c.11-1.55,2.33-1,2.67.56s1.67,1.78,2.33.55,3.11,1.11,2.22,1.22c-.11,0,.89,2.67,2.11.89,1.22-1.67,2,.78,1.89,1.11-.11.67-.67,2.78,1.78,1.44.89-.44,2.78-.33,1.67,1.89-.33.67.67,2.11,1.44,1.78,1.22-.67,2.22,1,1.78,2.44-.22.67-.33,2.11,1.22,2.11,1.11,0,1.55,1,.89,2.56-.44,1-.67,2.11.89,2.33a1.538,1.538,0,0,1,.78,2.67,1.313,1.313,0,0,0,.33,2.22,1.342,1.342,0,0,1,.33,2.56c-1.33.78-.78,1.33,0,1.67C67.69,41.73,67.13,42.39,65.8,42.95Z" fill="#f8af26" fill-rule="evenodd"/><path d="M65.58,42.95c-1,.33-1.22,1.22,0,1.67,1.44.44.89,2.11-.33,2.44a1.38,1.38,0,0,0-.44,2.22,1.49,1.49,0,0,1-.67,2.67c-1.55.22-1.33,1.33-.89,2.22.67,1.55.22,2.56-.89,2.56-1.55,0-1.44,1.44-1.22,2.11.44,1.55-.44,3.11-1.78,2.56-.78-.44-1.67,1-1.33,1.67,1,2.22-.89,2.33-1.67,1.89-2.44-1.33-2,.78-1.78,1.33.11.44-.78,2.78-1.89,1.22-1.22-1.89-2.22.78-2.11.78.89.11-1.55,2.33-2.22,1.11-.56-1-1.89-.89-2.22.67a1.493,1.493,0,0,1-2.78.55c-1.55-2.33-1.11,1.11-2.67,1-1,.89-.67-3.55-2.78-1a1.439,1.439,0,0,1-2.67-.55c-.33-1.56-1.67-1.67-2.33-.67-.67,1.22-3-1-2.11-1.11.11,0-.89-2.67-2.11-.78-1.22,1.56-2-.78-1.89-1.22.11-.55.67-2.67-1.78-1.33-.89.44-2.67.33-1.67-1.89.33-.67-.55-2.11-1.44-1.67-1.22.55-2.22-1-1.67-2.56.22-.67.33-2.11-1.22-2.11-1.11,0-1.67-1-.89-2.56.33-.89.67-2-.89-2.22a1.538,1.538,0,0,1-.78-2.67,1.312,1.312,0,0,0-.33-2.22c-1.22-.33-1.78-2.33-.33-2.44,1-.11,1.22-1.11,0-1.89-1.11-.67-1.11-1.67-.11-1.78a.915.915,0,0,0,.11-1.67c-1.33-.55-.89-2.11.33-2.44a1.318,1.318,0,0,0,.33-2.22,1.539,1.539,0,0,1,.78-2.67c1.55-.22,1.22-1.33.89-2.33-.78-1.56-.22-2.44.89-2.44,1.56,0,1.44-1.44,1.22-2.11-.56-1.55.44-3.11,1.67-2.56.89.44,1.78-1,1.44-1.66-1-2.22.78-2.33,1.67-1.89,2.44,1.33,1.89-.78,1.78-1.33-.11-.44.67-2.78,1.89-1.22,1.22,1.89,2.22-.78,2.11-.89-.89-.67,1.44-3,2.11-1.22.56,1.33,2.67,1.11,2.33-.56a1.2,1.2,0,0,1,2.33-.55c.22.67,1.44,2.11,1.78.22.55-2.22,1.55-.89,2.11,0a.971.971,0,0,0,1.89-.22c.22-1.44,2.44-.89,2.78.55.33,1.67,1.67,1.78,2.22.56.67-1.22,3.11,1.22,2.22,1.22-.11,0,.89,2.78,2.11.89,1.11-1.55,2,.78,1.89,1.22-.22.56-.67,2.67,1.78,1.33.78-.44,2.67-.33,1.67,1.89-.33.67.55,2.11,1.33,1.66,1.33-.56,2.22,1,1.78,2.56-.22.67-.33,2.11,1.22,2.11,1.11,0,1.55.89.89,2.44-.44,1-.67,2.11.89,2.33a1.489,1.489,0,0,1,.67,2.67,1.389,1.389,0,0,0,.44,2.22c1.22.33,1.67,1.67.33,2.44-1.44.78-.89,1.33-.11,1.67C67.47,41.73,66.91,42.39,65.58,42.95Z" fill="#f8b125" fill-rule="evenodd"/><path d="M65.36,42.95c-1,.33-1.33,1.22,0,1.67s.78,2.11-.33,2.44a1.2,1.2,0,0,0-.44,2.11,1.547,1.547,0,0,1-.67,2.67c-1.55.22-1.33,1.33-.89,2.22.67,1.55.22,2.56-.89,2.56-1.55,0-1.45,1.44-1.22,2,.45,1.56-.44,3.11-1.67,2.55-.78-.33-1.78,1-1.44,1.67,1,2.22-.78,2.33-1.67,1.89-2.33-1.33-1.89.78-1.67,1.33.11.45-.78,2.67-1.89,1.11-1.22-1.78-2.22.89-2.11.89.89.11-1.44,2.33-2.11,1.11-.67-1.11-2-.89-2.33.56a1.407,1.407,0,0,1-2.67.56c-1.55-2.22-1.11,1.11-2.67,1-1,1-.67-3.56-2.67-1-1,1.11-2.44,1-2.67-.56-.44-1.44-1.67-1.67-2.33-.56-.67,1.22-3-1-2.11-1.11.11,0-.89-2.67-2.11-.89-1.11,1.55-2-.67-1.89-1.11.22-.55.67-2.67-1.67-1.33-.89.44-2.67.33-1.67-1.89.22-.67-.67-2-1.44-1.67-1.22.56-2.22-1-1.67-2.55.22-.56.33-2-1.22-2-1.11,0-1.55-1-.89-2.56.44-.89.67-2-.89-2.22a1.516,1.516,0,0,1-.67-2.67,1.279,1.279,0,0,0-.44-2.11c-1.11-.33-1.78-2.33-.33-2.44,1-.11,1.22-1.11,0-1.89-1.11-.67-1.11-1.67-.11-1.78a.87.87,0,0,0,.11-1.67c-1.33-.55-.78-2.11.33-2.44a1.278,1.278,0,0,0,.44-2.11,1.517,1.517,0,0,1,.67-2.67c1.55-.22,1.33-1.33.89-2.22-.67-1.56-.22-2.56.89-2.56,1.55,0,1.44-1.44,1.22-2.11-.56-1.44.44-3,1.67-2.44.78.33,1.67-1,1.44-1.66-1-2.22.78-2.33,1.67-1.89,2.33,1.33,1.89-.78,1.67-1.34-.11-.44.78-2.78,1.89-1.11,1.22,1.78,2.22-.89,2.11-.89-.89-.67,1.44-3,2.11-1.22a1.2,1.2,0,0,0,2.33-.55,1.144,1.144,0,0,1,2.22-.55c.22.67,1.44,2,1.89.22.44-2.33,1.44-.89,1.89,0,.67,1.11,2,.67,2-.22.11-1.44,2.33-1,2.67.55s1.67,1.78,2.33.55,3,1.11,2.11,1.22c-.11,0,.89,2.67,2.11.89,1.11-1.67,2,.67,1.89,1.11-.22.56-.67,2.67,1.67,1.34.89-.45,2.67-.33,1.67,1.89-.33.67.67,2,1.44,1.66,1.22-.55,2.11,1,1.67,2.44-.22.67-.33,2.11,1.22,2.11,1.11,0,1.55,1,.89,2.56-.45.89-.67,2,.89,2.22a1.547,1.547,0,0,1,.67,2.67,1.2,1.2,0,0,0,.44,2.11,1.3,1.3,0,0,1,.33,2.44c-1.45.78-.89,1.33-.11,1.67C67.13,41.73,66.58,42.39,65.36,42.95Z" fill="#fcb623" fill-rule="evenodd"/><path d="M65.13,42.95c-1,.33-1.33,1.22-.11,1.67,1.44.44.89,2-.22,2.33a1.294,1.294,0,0,0-.44,2.22,1.471,1.471,0,0,1-.67,2.56c-1.55.22-1.33,1.33-.89,2.22.67,1.55.22,2.44-.89,2.44-1.55,0-1.44,1.44-1.22,2.11.44,1.44-.44,3-1.67,2.44-.78-.33-1.67,1-1.33,1.67,1,2.22-.89,2.33-1.67,1.89-2.33-1.33-1.89.78-1.78,1.33.11.33-.67,2.67-1.78,1.11-1.22-1.78-2.22.89-2.11.89.89,0-1.44,2.22-2.11,1.11s-1.89-1-2.22.44a1.409,1.409,0,0,1-2.67.56c-1.55-2.22-1.11,1.11-2.67,1-1,1-.67-3.44-2.67-1a1.407,1.407,0,0,1-2.67-.56c-.33-1.44-1.55-1.55-2.22-.44s-3-1.11-2.11-1.11c.11,0-.89-2.67-2.11-.89-1.11,1.55-2-.78-1.89-1.11.22-.56.67-2.67-1.67-1.33-.89.45-2.67.33-1.67-1.89.33-.67-.56-2-1.33-1.67-1.22.56-2.22-1-1.67-2.44.11-.67.33-2.11-1.22-2.11-1.11,0-1.55-.89-.89-2.44.44-.89.67-2-.89-2.22A1.47,1.47,0,0,1,17,49.17a1.294,1.294,0,0,0-.44-2.22c-1.11-.33-1.78-2.22-.22-2.33.89-.11,1.11-1.11,0-1.89-1.22-.67-1.22-1.67-.11-1.78a.912.912,0,0,0,.11-1.67c-1.44-.55-.89-2,.22-2.33A1.294,1.294,0,0,0,17,34.73a1.471,1.471,0,0,1,.67-2.56c1.55-.22,1.33-1.33.89-2.22-.67-1.55-.22-2.55.89-2.55,1.55,0,1.33-1.33,1.22-2-.56-1.44.44-3,1.67-2.44.78.33,1.67-1,1.33-1.67-1-2.22.78-2.33,1.67-1.89,2.33,1.33,1.89-.78,1.67-1.33-.11-.33.78-2.67,1.89-1.11,1.22,1.78,2.22-.78,2.11-.89-.89-.67,1.44-3,2.11-1.11.45,1.22,2.56.89,2.22-.56a1.2,1.2,0,0,1,2.33-.56c.11.56,1.33,2,1.78.11.44-2.22,1.44-.89,1.89.11a1.078,1.078,0,0,0,2-.22c.11-1.55,2.33-1,2.67.56.33,1.44,1.56,1.67,2.22.56.67-1.22,3,1.11,2.11,1.11-.11,0,.89,2.67,2.11.89,1.11-1.56,1.89.78,1.78,1.11-.11.56-.56,2.67,1.78,1.33.78-.44,2.67-.33,1.67,1.89-.33.67.56,2,1.33,1.67,1.22-.55,2.11,1,1.67,2.44-.22.67-.33,2,1.22,2,1.11,0,1.56,1,.89,2.55-.44.89-.67,2,.89,2.22a1.47,1.47,0,0,1,.67,2.56,1.294,1.294,0,0,0,.44,2.22,1.2,1.2,0,0,1,.22,2.33c-1.33.78-.78,1.44,0,1.67C66.91,41.73,66.36,42.39,65.13,42.95Z" fill="#fcb827" fill-rule="evenodd"/><path d="M26.03,20.95c.89.56,1.89,2.44,3.22,3.33,1,.67,1.55,1.11,2.33,1.11,1.89,0,5.89-3.44,7.44-4.55-1.11,1.55-3.33,4.78-3.33,6.55,0,1.89,2.33,5,3.44,6.44-1.55-1-4.89-3.67-6.67-3.67-1.89,0-5.33,2.78-6.89,3.78.78-.89,2.89-2.67,3.67-4.22a4.338,4.338,0,0,0,.55-2.44C29.81,25.4,27.14,22.51,26.03,20.95Z" fill="#fcb827" fill-rule="evenodd"/><path d="M27.03,21.84c.78.56,1.55,2.11,2.78,2.89a3.1,3.1,0,0,0,2,1c1.67,0,5-2.89,6.33-3.78-.89,1.22-2.78,4-2.78,5.56,0,1.67,2,4.33,2.89,5.56-1.33-.89-4.22-3.11-5.78-3.11s-4.55,2.33-5.89,3.22c.56-.78,2.44-2.33,3.11-3.78a3.682,3.682,0,0,0,.44-2C30.14,25.73,27.92,23.18,27.03,21.84Z" fill="#f8b227" fill-rule="evenodd"/><path d="M27.92,22.84c.67.45,1.33,1.67,2.33,2.33a2.96,2.96,0,0,0,1.78.89c1.33,0,4.11-2.44,5.22-3.22-.78,1.11-2.33,3.44-2.33,4.78s1.67,3.56,2.44,4.56c-1.22-.67-3.55-2.56-4.89-2.56s-3.89,2-4.89,2.67c.44-.67,2-2,2.56-3.11a6.918,6.918,0,0,0,.44-1.78C30.59,26.06,28.7,23.95,27.92,22.84Z" fill="#f5ae29" fill-rule="evenodd"/><path d="M28.81,23.73c.56.33,1.22,1.33,2,1.89.56.44.89.67,1.33.67,1.11,0,3.44-1.89,4.33-2.44a11.25,11.25,0,0,0-2,3.78c0,1.11,1.33,2.89,1.89,3.78-.89-.56-2.78-2.11-3.89-2.11s-3.11,1.56-4,2.11c.33-.56,1.55-1.55,2.11-2.56a9.015,9.015,0,0,0,.33-1.44C30.92,26.29,29.36,24.62,28.81,23.73Z" fill="#efa72c" fill-rule="evenodd"/><path d="M29.81,24.62c.33.22.78,1,1.45,1.44a2.651,2.651,0,0,0,1.11.56c.78,0,2.56-1.44,3.22-1.89-.44.78-1.44,2.11-1.44,3-.11.78.89,2.11,1.33,2.78-.67-.44-2.11-1.55-3-1.55-.78,0-2.33,1.22-3,1.55a18.329,18.329,0,0,0,1.44-2,6,6,0,0,0,.33-1.11C31.25,26.51,30.14,25.29,29.81,24.62Z" fill="#eda12f" fill-rule="evenodd"/><path d="M30.7,25.51c.33.11.56.67,1,1,.33.11.55.33.78.33.56,0,1.78-.89,2.22-1.11a4.842,4.842,0,0,0-1,2c-.11.56.56,1.45.89,1.89-.56-.22-1.55-1-2.11-1a7.436,7.436,0,0,0-2.11,1c.11-.33.78-.89,1-1.33.11-.33.11-.67.22-.89A6.078,6.078,0,0,0,30.7,25.51Z" fill="#e89932" fill-rule="evenodd"/><path d="M31.58,26.4c.22,0,.33.33.56.44s.33.22.44.22c.33.11,1-.33,1.22-.44a3.034,3.034,0,0,0-.56,1.22,3.556,3.556,0,0,0,.33,1,2.141,2.141,0,0,0-1.11-.56,5.435,5.435,0,0,0-1.22.44,4.511,4.511,0,0,0,.44-.78c.11-.22.11-.44.22-.55A2.187,2.187,0,0,0,31.58,26.4Z" fill="#de8b34" fill-rule="evenodd"/><path d="M32.47,27.95c.22,0,.44-.11.44-.33s-.22-.33-.44-.33a.33.33,0,1,0,0,.66Z" fill="#c96c38" fill-rule="evenodd"/><path d="M42.69,20.95c.89.56,1.89,2.44,3.22,3.33a4.333,4.333,0,0,0,2.44,1.11c1.78,0,5.78-3.44,7.33-4.55-1.11,1.55-3.22,4.78-3.22,6.55,0,1.89,2.33,5,3.33,6.44-1.55-1-4.78-3.67-6.66-3.67s-5.33,2.78-6.78,3.78c.67-.89,2.78-2.67,3.67-4.22a5.255,5.255,0,0,0,.44-2.44C46.47,25.4,43.8,22.51,42.69,20.95Z" fill="#fcb827" fill-rule="evenodd"/><path d="M43.69,21.84c.78.56,1.67,2.11,2.78,2.89.89.67,1.33,1,2,1,1.67,0,5.11-2.89,6.44-3.78-1,1.22-2.89,4-2.89,5.56,0,1.67,2,4.33,2.89,5.56-1.33-.89-4.11-3.11-5.78-3.11-1.56,0-4.56,2.33-5.89,3.22a23.32,23.32,0,0,0,3.22-3.78,5.08,5.08,0,0,0,.44-2C46.92,25.73,44.58,23.18,43.69,21.84Z" fill="#f8b227" fill-rule="evenodd"/><path d="M44.58,22.84c.67.45,1.44,1.67,2.33,2.33.78.56,1.22.89,1.78.89,1.33,0,4.22-2.44,5.33-3.22-.78,1.11-2.33,3.44-2.33,4.78-.11,1.33,1.56,3.56,2.33,4.56-1.11-.67-3.44-2.56-4.78-2.56-1.44,0-3.89,2-5,2.67.44-.67,2-2,2.55-3.11a4.18,4.18,0,0,0,.44-1.78C47.25,26.06,45.36,23.95,44.58,22.84Z" fill="#f5ae29" fill-rule="evenodd"/><path d="M45.58,23.73c.44.33,1.11,1.33,1.89,1.89a2.172,2.172,0,0,0,1.33.67c1.11,0,3.44-1.89,4.33-2.44-.67.89-1.89,2.78-1.89,3.78,0,1.11,1.22,2.89,1.89,3.78-1-.56-2.89-2.11-3.89-2.11-1.11,0-3.22,1.56-4.11,2.11a12.793,12.793,0,0,0,2.11-2.56,3.885,3.885,0,0,0,.33-1.44C47.58,26.29,46.14,24.62,45.58,23.73Z" fill="#efa72c" fill-rule="evenodd"/><path d="M46.47,24.62c.44.22.89,1,1.44,1.44a3.487,3.487,0,0,0,1.11.56c.89,0,2.56-1.44,3.22-1.89-.44.78-1.45,2.11-1.45,3a7.2,7.2,0,0,0,1.33,2.78c-.67-.44-2.11-1.55-2.89-1.55-.89,0-2.44,1.22-3.11,1.55.22-.44,1.11-1.22,1.56-2a4.914,4.914,0,0,0,.22-1.11C47.91,26.51,46.92,25.29,46.47,24.62Z" fill="#eda12f" fill-rule="evenodd"/><path d="M47.36,25.51c.33.11.67.67,1,1,.33.11.56.33.78.33.67,0,1.78-.89,2.22-1.11a4.842,4.842,0,0,0-1,2,4.225,4.225,0,0,0,.89,1.89c-.44-.22-1.44-1-2-1-.67,0-1.67.78-2.22,1a13.952,13.952,0,0,0,1-1.33,3.459,3.459,0,0,0,.22-.89C48.36,26.84,47.58,25.95,47.36,25.51Z" fill="#e89932" fill-rule="evenodd"/><path d="M48.25,26.4c.22,0,.44.33.67.44a.834.834,0,0,0,.44.22c.33.11.89-.33,1.11-.44-.11.33-.44.89-.55,1.22a2.007,2.007,0,0,0,.44,1,3.487,3.487,0,0,0-1.11-.56,3.152,3.152,0,0,0-1.22.44c0-.22.22-.44.44-.78a4.764,4.764,0,0,1,.11-.55C48.69,27.06,48.36,26.62,48.25,26.4Z" fill="#de8b34" fill-rule="evenodd"/><path d="M49.25,27.95a.33.33,0,1,0,0-.66c-.22,0-.44.11-.44.33S49.03,27.95,49.25,27.95Z" fill="#c96c38" fill-rule="evenodd"/><path d="M19.92,36.28c.89.67,1.89,2.44,3.22,3.33,1,.78,1.55,1.22,2.33,1.22,1.89,0,5.89-3.55,7.44-4.55-1.11,1.55-3.22,4.66-3.22,6.55,0,1.78,2.33,4.89,3.33,6.33-1.56-1-4.89-3.56-6.67-3.56-1.89,0-5.33,2.67-6.89,3.78.78-1,2.89-2.78,3.78-4.33a4.744,4.744,0,0,0,.45-2.33C23.7,40.84,21.03,37.84,19.92,36.28Z" fill="#fcb827" fill-rule="evenodd"/><path d="M20.92,37.28c.78.56,1.67,2,2.78,2.89a3.8,3.8,0,0,0,2,1c1.67,0,5-3,6.33-3.89-.89,1.33-2.78,4-2.78,5.67,0,1.56,2,4.22,2.89,5.44-1.33-.78-4.11-3.11-5.78-3.11-1.55,0-4.55,2.33-5.89,3.22a21.28,21.28,0,0,0,3.11-3.67,6,6,0,0,0,.55-2.11C24.14,41.17,21.81,38.62,20.92,37.28Z" fill="#f8b227" fill-rule="evenodd"/><path d="M21.81,38.17c.67.44,1.44,1.78,2.33,2.44a3.977,3.977,0,0,0,1.78.78c1.33,0,4.22-2.44,5.33-3.11-.78,1.11-2.33,3.33-2.44,4.67,0,1.33,1.67,3.55,2.44,4.67-1.22-.78-3.55-2.67-4.89-2.67s-3.78,2-4.89,2.67c.44-.67,2-1.89,2.56-3.11a3.846,3.846,0,0,0,.44-1.78C24.48,41.39,22.59,39.28,21.81,38.17Z" fill="#f5ae29" fill-rule="evenodd"/><path d="M22.7,39.06c.55.33,1.22,1.44,2,1.89a3.521,3.521,0,0,0,1.33.78c1.11,0,3.44-2,4.33-2.56-.67.89-1.89,2.78-1.89,3.89-.11,1,1.22,2.78,1.89,3.67-1-.55-2.89-2.11-4-2.11-1,0-3.11,1.67-4,2.11a18.209,18.209,0,0,0,2.11-2.56,3.843,3.843,0,0,0,.33-1.44C24.81,41.62,23.36,39.95,22.7,39.06Z" fill="#efa72c" fill-rule="evenodd"/><path d="M23.7,39.95c.33.22.89,1,1.44,1.44a2.1,2.1,0,0,0,1.11.56c.78,0,2.55-1.44,3.22-1.78a7.772,7.772,0,0,0-1.44,2.89c-.11.89.89,2.22,1.33,2.78-.67-.33-2.11-1.55-2.89-1.55-.89,0-2.44,1.22-3.11,1.67.22-.44,1.11-1.33,1.44-2a6.844,6.844,0,0,0,.33-1.22C25.14,41.95,24.03,40.62,23.7,39.95Z" fill="#eda12f" fill-rule="evenodd"/><path d="M24.59,40.84a8.571,8.571,0,0,1,1,1,1.487,1.487,0,0,0,.78.33c.56.11,1.78-.89,2.22-1.11a6.054,6.054,0,0,0-1,2.11,4.275,4.275,0,0,0,.89,1.89,5.607,5.607,0,0,0-2-1,5.07,5.07,0,0,0-2.22,1c.11-.33.78-.89,1-1.44.11-.33.11-.67.22-.89C25.48,42.17,24.81,41.28,24.59,40.84Z" fill="#e89932" fill-rule="evenodd"/><path d="M25.48,41.73a2.968,2.968,0,0,1,.67.56c.11.11.22.11.44.22.33,0,.89-.44,1.11-.44-.11.22-.56.78-.56,1.11a2.68,2.68,0,0,0,.33,1c-.22-.11-.78-.55-1-.55a3.143,3.143,0,0,0-1.22.55,4.832,4.832,0,0,1,.33-.89c.11-.22.11-.44.22-.55A2.455,2.455,0,0,0,25.48,41.73Z" fill="#de8b34" fill-rule="evenodd"/><path d="M26.36,43.28c.22,0,.44-.11.44-.33s-.22-.33-.44-.33a.33.33,0,0,0,0,.66Z" fill="#c96c38" fill-rule="evenodd"/><path d="M47.8,36.06c.89.55,1.89,2.44,3.22,3.33a4.066,4.066,0,0,0,2.33,1.11c1.89,0,5.78-3.44,7.33-4.55-1,1.55-3.22,4.78-3.22,6.55,0,1.89,2.33,5,3.44,6.44-1.67-1-4.89-3.66-6.78-3.66-1.78,0-5.33,2.78-6.78,3.78.67-.89,2.78-2.67,3.66-4.22a5.419,5.419,0,0,0,.56-2.44C51.58,40.51,48.8,37.62,47.8,36.06Z" fill="#fcb827" fill-rule="evenodd"/><path d="M48.69,36.95c.78.55,1.67,2.11,2.78,2.89a3.569,3.569,0,0,0,2.11,1c1.55,0,5-2.89,6.33-3.78-.89,1.22-2.78,4-2.78,5.55,0,1.67,1.89,4.33,2.89,5.55-1.44-.89-4.22-3.11-5.78-3.11-1.67,0-4.67,2.33-5.89,3.22.56-.78,2.33-2.33,3.11-3.78a3.682,3.682,0,0,0,.44-2C51.91,40.84,49.58,38.28,48.69,36.95Z" fill="#f8b227" fill-rule="evenodd"/><path d="M49.69,37.95a22.027,22.027,0,0,0,2.33,2.33c.67.55,1.11.89,1.67.89,1.44,0,4.22-2.44,5.33-3.22-.78,1.11-2.33,3.44-2.33,4.78s1.67,3.55,2.44,4.55c-1.22-.67-3.55-2.55-4.89-2.55s-3.89,2-5,2.67a27.454,27.454,0,0,0,2.67-3.11,3.846,3.846,0,0,0,.33-1.78C52.25,41.17,50.36,39.06,49.69,37.95Z" fill="#f5ae29" fill-rule="evenodd"/><path d="M50.58,38.84c.55.33,1.11,1.33,1.89,1.89a2.376,2.376,0,0,0,1.44.67c1.11,0,3.33-1.89,4.22-2.44-.56.89-1.89,2.78-1.89,3.78,0,1.11,1.33,2.89,1.89,3.78-.89-.55-2.78-2.11-3.89-2.11s-3.11,1.55-4,2.11a18.175,18.175,0,0,0,2-2.55,2.5,2.5,0,0,0,.33-1.44C52.69,41.39,51.14,39.73,50.58,38.84Z" fill="#efa72c" fill-rule="evenodd"/><path d="M51.47,39.73c.44.22.89,1,1.44,1.44a3.429,3.429,0,0,0,1.11.55c.89,0,2.55-1.44,3.22-1.89a10.489,10.489,0,0,0-1.44,3c0,.78,1,2.11,1.44,2.78-.78-.44-2.22-1.55-3-1.55-.89,0-2.44,1.22-3.11,1.55a10.221,10.221,0,0,0,1.55-2,2.229,2.229,0,0,0,.22-1.11C53.03,41.62,51.91,40.4,51.47,39.73Z" fill="#eda12f" fill-rule="evenodd"/><path d="M52.47,40.62c.22.11.56.67,1,1,.33.11.45.33.78.33.56,0,1.67-.89,2.11-1.11a11.671,11.671,0,0,0-1,2c0,.55.67,1.44.89,1.89-.44-.22-1.44-1-2-1a7.311,7.311,0,0,0-2.11,1c.11-.33.67-.89.89-1.33a1.508,1.508,0,0,0,.22-.89C53.36,41.95,52.69,41.06,52.47,40.62Z" fill="#e89932" fill-rule="evenodd"/><path d="M53.36,41.5c.11,0,.33.33.56.45s.33.22.44.22c.33.11,1-.33,1.22-.44a6.71,6.71,0,0,0-.67,1.22,3.967,3.967,0,0,0,.44,1,2.651,2.651,0,0,0-1.11-.56,5.435,5.435,0,0,0-1.22.44c0-.22.33-.44.44-.78a1.212,1.212,0,0,0,.11-.56C53.69,42.17,53.36,41.73,53.36,41.5Z" fill="#de8b34" fill-rule="evenodd"/><path d="M54.25,43.06c.22,0,.44-.11.44-.33s-.22-.33-.44-.33-.44.11-.44.33S54.03,43.06,54.25,43.06Z" fill="#c96c38" fill-rule="evenodd"/><path d="M26.58,50.61c.89.67,1.89,2.44,3.22,3.33a4.33,4.33,0,0,0,2.33,1.22c1.89,0,5.78-3.56,7.33-4.56-1,1.44-3.22,4.67-3.22,6.44,0,1.89,2.33,5,3.44,6.44-1.67-1-4.89-3.67-6.78-3.67-1.78,0-5.33,2.78-6.78,3.78.67-.89,2.78-2.67,3.66-4.22a5.419,5.419,0,0,0,.56-2.44C30.36,55.17,27.59,52.17,26.58,50.61Z" fill="#fcb827" fill-rule="evenodd"/><path d="M27.47,51.61c.78.44,1.67,2,2.78,2.89a4.068,4.068,0,0,0,2.11.89c1.55.11,5-2.89,6.33-3.78-.89,1.33-2.78,4-2.78,5.55,0,1.67,2,4.33,2.89,5.56-1.44-.89-4.22-3.11-5.78-3.11s-4.67,2.33-5.89,3.22c.56-.78,2.44-2.33,3.11-3.66a4.042,4.042,0,0,0,.44-2.11C30.7,55.5,28.47,52.95,27.47,51.61Z" fill="#f8b227" fill-rule="evenodd"/><path d="M28.47,52.5c.67.44,1.33,1.67,2.33,2.44a3.24,3.24,0,0,0,1.67.78c1.44,0,4.22-2.44,5.33-3.22-.78,1.22-2.33,3.44-2.33,4.78s1.66,3.56,2.44,4.66c-1.22-.78-3.55-2.67-4.89-2.67s-3.89,2-5,2.67a20.268,20.268,0,0,0,2.67-3.11,3.629,3.629,0,0,0,.33-1.78C31.14,55.73,29.14,53.61,28.47,52.5Z" fill="#f5ae29" fill-rule="evenodd"/><path d="M29.36,53.39c.55.33,1.11,1.33,1.89,1.89a2.435,2.435,0,0,0,1.44.67c1.11.11,3.33-1.89,4.22-2.44-.56.89-1.89,2.78-1.89,3.89,0,1,1.33,2.78,1.89,3.67-.89-.56-2.78-2.11-3.89-2.11s-3.11,1.55-4,2.11a18.958,18.958,0,0,0,2-2.56,2.5,2.5,0,0,0,.33-1.44C31.47,55.95,29.92,54.28,29.36,53.39Z" fill="#efa72c" fill-rule="evenodd"/><path d="M30.25,54.28c.44.22.89,1,1.55,1.44.44.33.67.55,1,.55.89,0,2.55-1.44,3.22-1.78a9.931,9.931,0,0,0-1.45,2.89c0,.78,1,2.11,1.45,2.78-.78-.44-2.11-1.56-3-1.56s-2.44,1.22-3.11,1.56a13.642,13.642,0,0,0,1.55-1.89,6.844,6.844,0,0,0,.33-1.22C31.81,56.28,30.7,54.95,30.25,54.28Z" fill="#eda12f" fill-rule="evenodd"/><path d="M31.25,55.17c.22.11.56.67,1,1a1.487,1.487,0,0,0,.78.33c.56.11,1.78-.89,2.22-1.11a7.751,7.751,0,0,0-1.11,2.11c0,.55.67,1.44.89,1.89a5.093,5.093,0,0,0-2-1.11,7.311,7.311,0,0,0-2.11,1c.11-.22.67-.89,1-1.33.11-.33.11-.67.22-.89C32.14,56.5,31.47,55.61,31.25,55.17Z" fill="#e89932" fill-rule="evenodd"/><path d="M32.14,56.06a2.272,2.272,0,0,0,.56.44c.22.11.33.22.44.22.33.11,1-.33,1.22-.33a2.141,2.141,0,0,0-.56,1.11c-.11.33.22.78.33,1-.22-.11-.78-.56-1.11-.56s-.89.45-1.22.45a2.431,2.431,0,0,0,.44-.78c.11-.22.11-.45.22-.56C32.47,56.73,32.14,56.28,32.14,56.06Z" fill="#de8b34" fill-rule="evenodd"/><path d="M33.03,57.61c.22,0,.44-.11.44-.33s-.22-.33-.44-.33a.33.33,0,0,0,0,.66Z" fill="#c96c38" fill-rule="evenodd"/><path d="M43.8,51.17c.89.56,1.89,2.44,3.22,3.33a4.039,4.039,0,0,0,2.33,1.11c1.89,0,5.89-3.44,7.44-4.55-1.11,1.56-3.33,4.78-3.33,6.55,0,1.89,2.33,5,3.44,6.44-1.67-1-4.89-3.67-6.67-3.67-1.89,0-5.44,2.78-6.89,3.78.67-.89,2.89-2.67,3.66-4.22a4.274,4.274,0,0,0,.56-2.44C47.58,55.61,44.92,52.73,43.8,51.17Z" fill="#fcb827" fill-rule="evenodd"/><path d="M44.69,52.06c.78.56,1.67,2.11,2.89,2.89a3.083,3.083,0,0,0,2,1c1.67,0,5-2.89,6.33-3.78-.89,1.22-2.78,4-2.78,5.56,0,1.67,2,4.33,2.89,5.56-1.33-.89-4.22-3.11-5.78-3.11s-4.55,2.33-5.89,3.22c.56-.78,2.44-2.33,3.11-3.78a3.682,3.682,0,0,0,.44-2C47.91,55.95,45.69,53.39,44.69,52.06Z" fill="#f8b227" fill-rule="evenodd"/><path d="M45.69,53.06c.67.45,1.33,1.67,2.33,2.33a2.708,2.708,0,0,0,1.78.89c1.33,0,4.11-2.44,5.22-3.22-.78,1.11-2.33,3.44-2.33,4.78s1.67,3.55,2.44,4.56c-1.22-.67-3.55-2.56-4.89-2.56s-3.89,2-4.89,2.67c.45-.67,1.89-2,2.56-3.11a3.846,3.846,0,0,0,.33-1.78C48.36,56.28,46.47,54.17,45.69,53.06Z" fill="#f5ae29" fill-rule="evenodd"/><path d="M46.58,53.95c.55.33,1.11,1.33,1.89,1.89.67.44,1,.67,1.45.67,1.11,0,3.33-1.89,4.22-2.44a13.261,13.261,0,0,0-1.89,3.78c0,1.11,1.33,2.89,1.89,3.78-.89-.56-2.78-2.11-3.89-2.11s-3.11,1.56-4,2.11a19.125,19.125,0,0,0,2-2.56,4.309,4.309,0,0,0,.44-1.44C48.69,56.5,47.14,54.84,46.58,53.95Z" fill="#efa72c" fill-rule="evenodd"/><path d="M47.47,54.84c.44.22.89,1,1.55,1.44a3.139,3.139,0,0,0,1,.56c.89,0,2.67-1.44,3.33-1.89a8.521,8.521,0,0,0-1.55,3c0,.78,1,2.11,1.44,2.78-.78-.44-2.11-1.55-3-1.55-.78,0-2.33,1.22-3.11,1.55a10.221,10.221,0,0,0,1.55-2,6,6,0,0,0,.33-1.11C49.03,56.73,47.91,55.5,47.47,54.84Z" fill="#eda12f" fill-rule="evenodd"/><path d="M48.47,55.73c.22.11.56.67,1,1,.33.11.56.33.78.33.56,0,1.78-.89,2.22-1.11a4.842,4.842,0,0,0-1,2c-.11.56.55,1.45.89,1.89-.56-.22-1.56-1-2.11-1a7.436,7.436,0,0,0-2.11,1,8.349,8.349,0,0,1,1-1.33c.11-.33.11-.67.22-.89C49.36,57.06,48.69,56.17,48.47,55.73Z" fill="#e89932" fill-rule="evenodd"/><path d="M49.36,56.61c.22,0,.33.33.56.44s.33.22.44.22c.33.11,1-.33,1.22-.44a3.034,3.034,0,0,0-.56,1.22c-.11.22.22.78.33,1a2.141,2.141,0,0,0-1.11-.56,5.435,5.435,0,0,0-1.22.44,4.511,4.511,0,0,0,.44-.78c.11-.22.11-.44.22-.55A2.567,2.567,0,0,0,49.36,56.61Z" fill="#de8b34" fill-rule="evenodd"/><path d="M50.25,58.17c.22,0,.45-.11.45-.33s-.22-.33-.45-.33a.33.33,0,0,0,0,.66Z" fill="#c96c38" fill-rule="evenodd"/><path d="M34.47,35.73c.89.67,1.89,2.44,3.22,3.44a4.305,4.305,0,0,0,2.44,1.11c1.78,0,5.78-3.44,7.33-4.56-1.11,1.55-3.22,4.67-3.22,6.55s2.33,4.89,3.44,6.44c-1.67-1-4.89-3.67-6.78-3.67s-5.33,2.78-6.78,3.78c.67-1,2.78-2.67,3.67-4.33a4.838,4.838,0,0,0,.44-2.33C38.25,40.28,35.58,37.28,34.47,35.73Z" fill="#fcb827" fill-rule="evenodd"/><path d="M35.47,36.73c.78.56,1.66,2.11,2.78,2.89.89.55,1.33,1,2,1,1.67,0,5.11-3,6.44-3.89-1,1.33-2.89,4.11-2.89,5.67s2,4.22,3,5.56c-1.44-.89-4.22-3.22-5.78-3.22-1.66,0-4.67,2.44-5.89,3.22.55-.78,2.33-2.22,3.11-3.67a5.189,5.189,0,0,0,.44-2.11C38.69,40.62,36.36,38.06,35.47,36.73Z" fill="#f8b227" fill-rule="evenodd"/><path d="M36.36,37.62c.67.44,1.44,1.78,2.33,2.44a3.977,3.977,0,0,0,1.78.78c1.33.11,4.22-2.44,5.33-3.11-.78,1.11-2.33,3.33-2.33,4.78-.11,1.33,1.56,3.44,2.33,4.56-1.11-.67-3.44-2.55-4.78-2.55-1.44,0-3.89,1.89-5,2.67.44-.78,2-2,2.55-3.22a3.846,3.846,0,0,0,.44-1.78C39.03,40.84,37.14,38.73,36.36,37.62Z" fill="#f5ae29" fill-rule="evenodd"/><path d="M37.36,38.51c.44.33,1.11,1.44,1.89,2,.55.33.89.67,1.44.67,1,0,3.33-1.89,4.22-2.56-.67,1-1.89,2.78-1.89,3.89s1.22,2.89,1.89,3.67c-1-.56-2.89-2-3.89-2-1.11,0-3.22,1.55-4,2.11.33-.56,1.55-1.67,2-2.55a4.417,4.417,0,0,0,.33-1.56C39.36,41.17,37.92,39.39,37.36,38.51Z" fill="#efa72c" fill-rule="evenodd"/><path d="M38.25,39.39c.44.33.89,1.11,1.44,1.44a2.138,2.138,0,0,0,1.11.56c.89.11,2.56-1.33,3.22-1.78-.44.67-1.44,2.11-1.44,2.89a6.954,6.954,0,0,0,1.33,2.89c-.67-.44-2.11-1.55-2.89-1.55-.89,0-2.44,1.11-3.11,1.55.22-.44,1.11-1.22,1.55-2a5.755,5.755,0,0,0,.22-1.22C39.69,41.39,38.69,40.06,38.25,39.39Z" fill="#eda12f" fill-rule="evenodd"/><path d="M39.14,40.28c.33.22.67.78,1.11,1a2.211,2.211,0,0,0,.67.44c.67,0,1.78-.89,2.22-1.11a4.842,4.842,0,0,0-1,2c0,.56.67,1.44.89,1.89a4.842,4.842,0,0,0-2-1c-.67,0-1.66.78-2.22,1a8.14,8.14,0,0,0,1-1.44,2.642,2.642,0,0,0,.22-.89C40.14,41.62,39.36,40.73,39.14,40.28Z" fill="#e89932" fill-rule="evenodd"/><path d="M40.03,41.17a3.184,3.184,0,0,1,.67.55.834.834,0,0,0,.44.22,3.16,3.16,0,0,0,1.11-.45c-.11.33-.44.78-.55,1.11a2.767,2.767,0,0,0,.44,1c-.33-.11-.78-.45-1.11-.45a3.765,3.765,0,0,0-1.22.45c0-.22.33-.56.44-.89,0-.22.11-.33.11-.56C40.47,41.84,40.14,41.39,40.03,41.17Z" fill="#de8b34" fill-rule="evenodd"/><path d="M41.03,42.84c.22,0,.33-.22.33-.45a.351.351,0,0,0-.33-.33.491.491,0,0,0-.44.33A.467.467,0,0,0,41.03,42.84Z" fill="#c96c38" fill-rule="evenodd"/><ellipse cx="21.11" cy="24.5" rx="21.11" ry="24.5" transform="translate(20.4 18.37)" fill="#fcb827" opacity="0.53"/><path d="M51.93,31.97H46.71a1.512,1.512,0,0,1-1.7-1.3c-.06-1,.01-2.01.05-3.02a.646.646,0,0,1,.22-.44.627.627,0,0,1,.5-.09.8.8,0,0,1,.35.51c.02.71-.03,1.42-.04,2.13a3.853,3.853,0,0,0,.01.59c.07.47.31.72.93.7,3.5-.08,7-.14,10.5-.2a1.347,1.347,0,0,1,.45.01,2.318,2.318,0,0,1,.44.31c-.12.13-.22.32-.38.36a5.578,5.578,0,0,1-1.01.12c-1.7.06-3.4.11-5.11.17A.808.808,0,0,1,51.93,31.97Z"/><path d="M36.79,52.65c-.76,0-1.52.05-2.28-.01a1.362,1.362,0,0,1-1.33-1.96c.33-.98.77-1.93,1.17-2.89.72-1.75,1.44-3.51,2.19-5.26.07-.17.33-.4.45-.38.33.08.25.38.16.61q-.96,2.37-1.93,4.72c-.39.95-.81,1.88-1.19,2.83a2.842,2.842,0,0,0-.15.77.707.707,0,0,0,.66.83,11.837,11.837,0,0,0,1.57.11c1.14,0,2.27-.04,3.41-.04.16,0,.31.15.47.24-.14.13-.27.36-.42.37-.92.08-1.84.12-2.77.17A.449.449,0,0,1,36.79,52.65Z"/><path d="M43.97,64.14a3.826,3.826,0,0,1-.59-.1,18.093,18.093,0,0,0-10.36-.22c-.17.04-.39-.1-.59-.16.13-.18.23-.48.39-.51a30.475,30.475,0,0,1,4-.62,19.582,19.582,0,0,1,4.05.2,15.973,15.973,0,0,1,2.94,1.01c.09.03.14.15.21.23A.686.686,0,0,1,43.97,64.14Z"/><path d="M30.73,28.07a3.96,3.96,0,0,1-.41-.15,8.538,8.538,0,0,0-7.27-.41c-.15.06-.37-.04-.56-.07.1-.18.17-.47.32-.52a12.139,12.139,0,0,1,2.64-.75,10.125,10.125,0,0,1,5.31.86.848.848,0,0,1,.37.59C31.14,27.78,30.86,27.94,30.73,28.07Z"/><path d="M47.12,64.3a2.621,2.621,0,0,1-1.23,2.3c-.12.09-.35.02-.53.03.03-.16.06-.33.09-.49,0-.01.02-.02.03-.04,1.17-1.37,1.25-2.15.39-3.73-.03-.06-.07-.11-.1-.17-.13-.26-.48-.57-.09-.81.34-.2.54.19.65.44.34.8.63,1.61.94,2.42A1.305,1.305,0,0,0,47.12,64.3Z"/><path d="M31.43,60.83c-.08.2-.16.4-.24.61-.25.7-.54,1.38-.72,2.09a1.627,1.627,0,0,0,.47,1.68c.02.02.06.05.06.08.05.2.09.41.14.61a1.766,1.766,0,0,1-.63-.14,2.034,2.034,0,0,1-.78-2.02,5.424,5.424,0,0,1,.45-1.34,11.815,11.815,0,0,1,.67-1.27,2.687,2.687,0,0,1,.4-.43A2.027,2.027,0,0,1,31.43,60.83Z"/><path d="M58.64,102.89c.04-1.74.22-1.76-1.55-2.43a3.03,3.03,0,0,0-3.48.47c-2.06,1.77-.98,4.9-.48,7.12a16.916,16.916,0,0,1,.34,4.13c0,1.17-.86,6.02,4.3,5.67,3.8-.25,1.18-6.52,1.38-7.91.17-1.15-.97-2.59-.85-3.74.13-1.26-.22-2.52.33-3.66" fill="#fff" stroke="#231f20" stroke-linecap="round" stroke-width="0.659"/><path d="M58.64,102.03c1.72.17,2.47-.19,2.58,1.72.08,1.47-.44,2.77-.34,4.3a23.764,23.764,0,0,0,1.34,7.44c1.02,2.28,1.73,5.55.76,8.08-.64,1.67-1.37,1.25-3.13,1.34-1.42.07-2.84.36-4.3.34-2.29-.03-4.74-.22-5.17-2.74a11.546,11.546,0,0,1,.05-3.57c.25-1.22,1.2-2.02,1.51-3.14.55-2.03.24-5.16.34-7.22a15.2,15.2,0,0,0-.04-3.57c-.25-1.17-1.32-2.08-1.14-3.28a11.415,11.415,0,0,0,2.36-.17,47.372,47.372,0,0,0,.92,8.7c.31,1.51.46,2.82.65,4.52.23,2.07,1.17,1.83,3.07,1.52,1.15-1.82.03-5.09-.15-7.02-.21-2.36-.03-4.92-.15-7.2a8.15,8.15,0,0,1,.86-.19.62.62,0,0,1,.49.33" fill="#e83e2e"/><g clip-path="url(#a)"><path d="M61.22,111.49c-.95.96-.78,3.61.86,3.78" fill="#fff" stroke="#231f20" stroke-linecap="round" stroke-width="0.659"/></g><g clip-path="url(#a)"><path d="M51.81,115.25c1.15-.71,1.62-3.32.08-3.88" fill="#fff" stroke="#231f20" stroke-linecap="round" stroke-width="0.659"/></g><path d="M58.64,102.03c1.72.17,2.47-.19,2.58,1.72.08,1.47-.44,2.77-.34,4.3a23.764,23.764,0,0,0,1.34,7.44c1.02,2.28,1.73,5.55.76,8.08-.64,1.67-1.37,1.25-3.13,1.34-1.42.07-2.84.36-4.3.34-2.29-.03-4.74-.22-5.17-2.74a11.546,11.546,0,0,1,.05-3.57c.25-1.22,1.2-2.02,1.51-3.14.55-2.03.24-5.16.34-7.22a15.2,15.2,0,0,0-.04-3.57c-.25-1.17-1.32-2.08-1.14-3.28a11.415,11.415,0,0,0,2.36-.17,47.372,47.372,0,0,0,.92,8.7c.31,1.51.46,2.82.65,4.52.23,2.07,1.17,1.83,3.07,1.52,1.15-1.82.03-5.09-.15-7.02-.21-2.36-.03-4.92-.15-7.2a8.15,8.15,0,0,1,.86-.19.62.62,0,0,1,.49.33" fill="none" stroke="#231f20" stroke-linecap="round" stroke-width="0.458"/><path d="M63.28,122.49c-1.61-2.31-1.74-3.53-4.81-4.31a6.924,6.924,0,0,0-6.67,1.94c-1.93,2.14-1.75,3.71-.21,4.43,2.86,1.32,9.59.46,10.49.35C63.45,124.73,63.28,122.49,63.28,122.49Z" fill="#fff" stroke="#231f20" stroke-linecap="round" stroke-width="0.458"/><path d="M61.56,122.66c-2.58,1.43-7.2.79-9.72-.17" fill="none" stroke="#231f20" stroke-linecap="round" stroke-width="0.458"/><path d="M59.15,116.3c-1.65,0-3.17-.1-4.81-.2a29.843,29.843,0,0,1,5.23-1.95c-1.55-1.31-3.41-1.73-5.35-2.27,1.32-.3,3.99-.97,4.91-1.89-1.45-1.17-3.72-.85-5.3-1.89,1.55-.98,3.63-.87,4.95-1.81-1.01-1.14-4.08-1.84-5.6-2.19,1.75-.91,3.61-.57,5.38-1.2-.92-.14-3.78-.84-3.52-2.04a2.447,2.447,0,0,1,.81,0,2.447,2.447,0,0,1,0,.81,1.581,1.581,0,0,1-1.15.31,1.039,1.039,0,0,1,.48-.99c.08.4.34.27.19.85,2.89.19,6.32-.6,8.71,1.11,2.93,2.1.97,5.67-2.55,4.78-1.35-.34-2.47-1.67-3.38-2.63-.82-.88-1.64-2.47-2.58-3.09-2.3-1.51-5.93,1.38-6.79,3.48-.97,2.38.32,4.19,2.59,2.19,1.42-1.25,1.94-3.17,3.09-4.64,1.54-1.96,2.86-.58,4.61.94a9.141,9.141,0,0,1,3,5.46" fill="none" stroke="#231f20" stroke-linecap="round" stroke-linejoin="round" stroke-width="0.659"/><path d="M55.37,101c-2.25,1.36-5.29,5.55-5.16,8.25" fill="none" stroke="#231f20" stroke-linecap="round" stroke-width="0.659"/><path d="M58.81,116.3a24.273,24.273,0,0,0-4.51-2.54c1.31-.4,2.68-1.69,4.88-1.78-1.35-1.44-3.63-1.26-5.33-2.08,1.32-1.1,3.22-1.34,4.94-1.71-1.42-.97-3.76-1.21-5.35-2.02a18.8,18.8,0,0,1,5.18-2.1c-1.01-.53-2.5-.3-3.57-.73-.73-.29-1.19-1.16-2.16-1.31a6.022,6.022,0,0,0,2.65-.68" fill="none" stroke="#231f20" stroke-linecap="round" stroke-linejoin="round" stroke-width="0.659"/><path d="M38.48,102.01c.27-1.5,3.15-1.05,4.15-.84,1.55.32,6.22-.81,5.72-.05.05.74-2.16,2.94-2.66,3.45a3.47,3.47,0,0,1-1.6.98,7.963,7.963,0,0,1-3.12.32c-.94-.41-2.44-2.74-2.33-3.79" fill="#231f20" stroke="#231f20" stroke-linecap="round" stroke-width="0.5"/><path d="M42.19,104.35a6.352,6.352,0,0,0-.26-2.15,9.374,9.374,0,0,0,2.96.72c1.09.1,2.81-1.33,3.6-1.94a12.878,12.878,0,0,0-.68,5.28c.07,1.84-.12,2.29.61,3.83a10.614,10.614,0,0,1,1.19,4.11,23.668,23.668,0,0,1-.34,3.86,14.389,14.389,0,0,1-.27,3.09c-.27.81-.74.81-1.64.86a8.244,8.244,0,0,0-3.79,1.32c-2.09,1.17-5.01.93-7.42.74a12.038,12.038,0,0,1-2.33-.24,13.853,13.853,0,0,1-2.59-1.23c-.86-.48-.24-3.08-.15-4.13.21-2.34,1.93-3.46,3.97-3.63.82-.07,1.76.06,2.34-.61.64-.73.32-1.89.5-2.79" fill="#e83e2e" stroke="#231f20" stroke-linecap="round" stroke-width="0.5"/><path d="M48.61,113.85c.03,1.36-.47,2.47-1.12,2.48s-1.19-1.08-1.22-2.43.47-2.47,1.12-2.48S48.58,112.49,48.61,113.85Z" fill="#fff" stroke="#231f20" stroke-linecap="round" stroke-width="0.5"/><path d="M38.31,110.78c.21-1.84.88-3.69.58-4.86-.38-1.49-.85-2.68.78-3.66,1.94-1.17,3.51.07,3.75,2,.09.77-.58,1.84-.76,2.58-.2.8-.81,1.82-1.04,2.65-.41,1.5-2.83,5.17-4.49,5.96-.67-.24-.41.43-2.17-.29" fill="#fff" stroke="#231f20" stroke-linecap="round" stroke-width="0.3"/><path d="M39.41,102.75c-.92-.07-.71-.58-1.08-.72-.07,1.98.15,3.77.02,5.74-.45,6.59-2.65,6.14-4.38,7.34.5-.09.84.07,1.42-.03,1.13-1.61,4.19-.59,3.94-12.33" fill="#e83e2e" stroke="#231f20" stroke-linecap="round" stroke-width="0.5"/><path d="M38.09,117.02c-1.53-1.22-1.65-1.15-1.93-1.95.92-.03,1.86-1.21,2.45-1.79a7.221,7.221,0,0,0,1.36-2.61c.53-1.25,1.79-2.77,1.84-4.13a13.075,13.075,0,0,0-.66-4.15c1.55-.22,3.94,1.66,6.14-.64" fill="#e83e2e" stroke="#231f20" stroke-linecap="round" stroke-width="0.5"/><path d="M38.96,103.24s2.63,1.65,3.09,1.84c0,0-2.57.97-3,1.18,0,0,2.49,1.91,2.93,2.3,0,0-3.87.83-4.18,1.01a30.151,30.151,0,0,1,1.98,2.44s-2.94,1.27-3.31,1.45c.03.03,1.51,1.9,1.51,1.9-.21-.46-2.86-.72-2.86-.72l3.73-.79a20.993,20.993,0,0,0-1.49-2.22c.63-.36,2.86-1.18,2.94-1.27a10.658,10.658,0,0,1-1.23-2.39c.43-.24,2.96-1.44,2.96-1.44-.44-.28-2.77-1.64-2.77-1.64.4-.21,2.44-1.6,2.44-1.6Z" fill="none" stroke="#231f20" stroke-linecap="round" stroke-linejoin="round" stroke-width="0.6"/><path d="M40.32,103.16a7.892,7.892,0,0,0-1.01-.7c-.27-.18-1.51-1.02-2.39-.34s-1.5,2.82-.92,3.6c.22.29,1.18.15,1.57-.16a17.789,17.789,0,0,0,2.18-1.98c.72-.81,1.81-.66,2.84-.55a9.774,9.774,0,0,1,3.83,1.48,2.192,2.192,0,0,1-.08,3.11c-2.8,2.53-4.82-2.75-5.25-3.52-.08-.13-.25-.33-.33-.44a3,3,0,0,0-.51-.42,2.417,2.417,0,0,0-.19.51c-.32.81-.64,1.64-1.02,2.42-.62,1.3-2.54,2.42-3.76,3.14" fill="none" stroke="#231f20" stroke-linecap="round" stroke-linejoin="round" stroke-width="0.6"/><path d="M40.4,103.1a6.983,6.983,0,0,0,.13,3.68c.16.79-.66,1.73-.33,2.48a6.33,6.33,0,0,0,.7,1.18,3.191,3.191,0,0,1,.47.64" fill="none" stroke="#231f20" stroke-linecap="round" stroke-linejoin="round" stroke-width="0.6"/><path d="M48.66,120.64a3.213,3.213,0,0,1-1.82.46,12.149,12.149,0,0,0-3.81,1.24c-.39.16-.83.34-1.28.5a4.479,4.479,0,0,0-1.22-2.59,10.775,10.775,0,0,0-2.59-1.68,13.2,13.2,0,0,0-6.39-1.66c-.4.87-1.29,2.27-1.18,3.24.05.45.44,1.93.41,1.93.03.01.04.24.04.27,0,.11-.02.22-.03.33a.833.833,0,0,0,.06.62.456.456,0,0,0,.22.17.784.784,0,0,0,.14.05,1.887,1.887,0,0,1,.33.13,1.877,1.877,0,0,0,.18.12,3.945,3.945,0,0,0,.68.25,11.612,11.612,0,0,0,1.41.35,14.092,14.092,0,0,0,2.9.18,24.372,24.372,0,0,0,2.56-.25c.49-.07.99-.16,1.48-.24.25-.04.49-.09.74-.13a1.968,1.968,0,0,1,.35-.06,1.95,1.95,0,0,0,.58-.13c.07-.02.15-.02.22-.04a3.924,3.924,0,0,0,.62-.3,8.988,8.988,0,0,1,1.09-.51,20.611,20.611,0,0,1,4.7-1.05c.23-.4.11-.92.18-1.53Z" fill="#fff" stroke="#231f20" stroke-linecap="round" stroke-width="0.5"/><path d="M31.61,116.95h.03a.487.487,0,0,0,.03-.07Z" fill="#fff" stroke="#231f20" stroke-linecap="round" stroke-width="0.5"/><path d="M39.64,123a8.89,8.89,0,0,0-1.86.08c-.11.01-.21.06-.32.06-.23.02-.47.03-.7.03a13.312,13.312,0,0,1-1.41-.07,11.579,11.579,0,0,1-2.73-.66,11.168,11.168,0,0,1-1.27-.57" fill="#fff" stroke="#231f20" stroke-linecap="round" stroke-width="0.5"/><path d="M28.75,46.56a7.78,7.78,0,1,1,5.5-2.28A7.723,7.723,0,0,1,28.75,46.56Z" fill="#fff"/><path d="M28.75,31.51a7.275,7.275,0,1,1-5.15,2.13,7.273,7.273,0,0,1,5.15-2.13m0-1a8.27,8.27,0,1,0,5.85,2.42,8.253,8.253,0,0,0-5.85-2.42Z"/><path d="M48.36,46.84a7.78,7.78,0,1,1,5.5-2.28A7.723,7.723,0,0,1,48.36,46.84Z" fill="#fff"/><path d="M48.36,31.78a7.275,7.275,0,1,1-5.15,2.13,7.273,7.273,0,0,1,5.15-2.13m0-1a8.27,8.27,0,1,0,5.85,2.42,8.253,8.253,0,0,0-5.85-2.42Z"/><path d="M57.64,34.93l9.06-.69s1.28-.15,1.37.97-1.18,1.51-1.18,1.51l-8.63.87-.86.09-.61-2.47Z" fill="#231f20"/><path d="M22.06,34.23l-4.23-1.11s-1.47-.42-1.83.76a1.432,1.432,0,0,0,.71,1.71l4.15,1.16Z" fill="#231f20"/><path d="M39.66,38.92a9.281,9.281,0,1,0,9.28-9.13A9.211,9.211,0,0,0,39.66,38.92Zm2.17.17a7.211,7.211,0,1,1,7.21,7.09A7.149,7.149,0,0,1,41.83,39.09Z" fill="#231f20"/><path d="M37.16,37.35a2.589,2.589,0,0,1,3.46,0l-.04,2.62s-1.51-2.81-3.24,0Z" fill="#231f20"/><path d="M19.32,39.3a9.381,9.381,0,1,0,9.38-9.22A9.3,9.3,0,0,0,19.32,39.3Zm2.19.17a7.291,7.291,0,1,1,7.29,7.17A7.228,7.228,0,0,1,21.51,39.47Z" fill="#231f20"/><circle cx="1.11" cy="1.11" r="1.11" transform="translate(45.02 37.95)"/><circle cx="1.1" cy="1.1" r="1.1" transform="translate(24.05 37.78)"/><path d="M47.5,30.79c-.5-.03-1.08-.11-1.3-.41-.23-.32.1-.71.56-.87a4.258,4.258,0,0,1,1.52-.13c.72,0,1.45.04,2.17.07.82.04,1.64.1,2.45.22a11.327,11.327,0,0,1,1.16.23,1.473,1.473,0,0,1,.28.08c.06.03.11.07.17.1.21.08.43.14.65.2.16.05.34.13.35.3a.267.267,0,0,1-.18.25.7.7,0,0,1-.32.05q-.81.015-1.62,0a2.992,2.992,0,0,1-.52-.01.425.425,0,0,0-.11-.02c-.22,0-.45.01-.67.01-.89.02-1.77.01-2.66,0C48.8,30.85,48.15,30.83,47.5,30.79Z" fill="#fcb827"/></g></svg>