<svg xmlns="http://www.w3.org/2000/svg" width="83.497" height="106.579" viewBox="0 0 83.497 106.579"><g transform="translate(-3.239 -3.677)"><path d="M79.75,58.79a.54.54,0,0,0-.47.13,10.618,10.618,0,0,1-2.22,2.22,56.294,56.294,0,0,0-5.83,5.83,11.5,11.5,0,0,0-2.64,4.77,17.048,17.048,0,0,0,.05,6.97,21.705,21.705,0,0,0,1.76,5.08,10.465,10.465,0,0,1,1.07,3.27c.15,1.68-.22,2.46-2.19,2.75a2.281,2.281,0,0,1-.52.04c-1.17-.09-2.35-.11-3.49-.3a13.313,13.313,0,0,1-6.34-2.26.828.828,0,0,1-.3-.46c-.2-1.19-.37-2.38-.56-3.56-.05-.32-.15-.63-.22-.93a9.7,9.7,0,0,0,1.02-.2c2.04-.68,4.08-1.36,6.12-2.06a3.361,3.361,0,0,0,.89-.49A.868.868,0,0,0,66,78.14a4.649,4.649,0,0,0-.59-.49c-1.04-.72-2.12-1.41-3.14-2.16a19.917,19.917,0,0,1-6.23-7.03,3.561,3.561,0,0,1-.31-1.16,13.585,13.585,0,0,0-.66-2.73,2.1,2.1,0,0,0-1.56-1.3,1.664,1.664,0,0,0-1.85.64c-.04.05-.15.11-.19.09-.41-.15-.49.06-.54.35-.01.09-.12.19-.21.26-.31.25-.62.5-.95.73a50.245,50.245,0,0,1-8.21,4.44c-1.41.64-2.77,1.39-4.1,2.15a4.69,4.69,0,0,0-1.82,1.85,2.281,2.281,0,0,0,.62,2.9c.11.09.21.18.31.26-.02.05-.02.07-.03.09-.08.1-.16.2-.24.29a13.181,13.181,0,0,0-2.31,3.7,5.95,5.95,0,0,0,1.91,7.39c.38.32.78.63,1.18.92.26.19.4.07.57-.15.29-.36.64-.68.98-1.03.11.14.15.18.19.23a19.916,19.916,0,0,0,3.86,3.81,2.947,2.947,0,0,1,.9,1,15.862,15.862,0,0,1,.67,1.78c.24.06.48.11.72.16-.15-.43-.34-.86-.51-1.29-.04-.11-.07-.23-.11-.36.49-.02.95-.05,1.42-.06a.26.26,0,0,1,.15.04c.38.36.91.31,1.39.39a3.236,3.236,0,0,1,.58.22,8.453,8.453,0,0,0-.8,1.32c.23.01.45.03.68.02a.736.736,0,0,1,.04-.14,8.351,8.351,0,0,1,.45-1.07c.04-.08.11-.18.19-.2.89-.23,1.78-.45,2.66-.67a12.283,12.283,0,0,0-.62,1.48,1.733,1.733,0,0,0-.03.32c.22-.05.45-.09.67-.14a4.254,4.254,0,0,1,.73-1.83,15.2,15.2,0,0,1,2.44-.66,6.676,6.676,0,0,1,1.9.28,54.082,54.082,0,0,0,7.51.94c1.95.09,3.91.06,5.86.02a9.681,9.681,0,0,0,4.87-1.37A2.88,2.88,0,0,0,75.9,90a6.741,6.741,0,0,0-.82-3.2c-.79-1.76-1.64-3.5-2.36-5.28a16.572,16.572,0,0,1-1.51-6.95,16.038,16.038,0,0,1,1.33-5.82,24.64,24.64,0,0,1,6.17-8.07c.37-.36.73-.74,1.08-1.12.09-.1.21-.23.2-.34A.663.663,0,0,0,79.75,58.79ZM55.04,66.06c.09.38.23.75.28,1.13a8.108,8.108,0,0,0,1.31,3.41,22.059,22.059,0,0,0,6.59,6.49c.65.43,1.3.85,1.93,1.31.5.36.49.56-.08.82-.89.4-1.8.75-2.73,1.08-1.38.48-2.77.93-4.16,1.38-.1.03-.2.05-.29.07-.28-1.66-.55-3.3-.84-5.05.74.39,1.42.75,2.09,1.11l.09-.09a7.073,7.073,0,0,0-.78-.67,9.1,9.1,0,0,0-2.76-1.09c-.61-.16-1.22-.3-1.84-.42-.13-.03-.3.07-.44.12.11.1.21.25.34.28.82.19,1.65.36,2.47.53a.405.405,0,0,1,.38.41c.19,1.17.44,2.34.6,3.52.13.94.1,1.89.23,2.83.16,1.16.38,2.32.62,3.47.22,1.08.48,2.15.73,3.23a2.413,2.413,0,0,1,.03.36c-.49-.25-.93-.45-1.35-.68a21.428,21.428,0,0,1-1.89-1.02c-3.19-2.12-5.92-4.55-6.82-8.19a10.6,10.6,0,0,1,.33-5.93,17.266,17.266,0,0,1,3.9-6.37c.64-.69,1.3-1.37,1.95-2.06C54.96,66.05,55,66.05,55.04,66.06Zm-3.62-1.41a2.7,2.7,0,0,1,1.48-.75,1.658,1.658,0,0,1,1.7,1.03c.05.11.07.23.12.34.1.21.06.34-.13.53a24.476,24.476,0,0,0-5.38,6.96c-.28.6-.49,1.21-.74,1.84a21.312,21.312,0,0,0-7.81-.14,48.882,48.882,0,0,1,4.96-3.91c.03-.02.05-.04.08-.06.3-.24.59-.49.92-.71a17.906,17.906,0,0,0,3.04-3.18C50.25,65.96,50.86,65.32,51.42,64.65ZM36.19,74a4.5,4.5,0,0,1,1.7-1.71,33.743,33.743,0,0,1,3.14-1.7,58.9,58.9,0,0,0,8.17-4.22.943.943,0,0,1,.17-.05c-.13.21-.22.38-.34.54a16.98,16.98,0,0,1-3.76,3.23c-1.54,1.09-3.15,2.1-4.64,3.24-1.23.94-2.33,2.02-3.49,3.04-.06.05-.11.1-.16.15A1.882,1.882,0,0,1,36.19,74Zm1.78,13.92a5.315,5.315,0,0,0-.73.69,5.849,5.849,0,0,1-3.07-6.16,9.476,9.476,0,0,1,1.37-3.25,15.809,15.809,0,0,1,3.45-3.9c-.51.7-1.05,1.41-1.55,2.14a7.078,7.078,0,0,0-.76,6.78,28.028,28.028,0,0,0,1.42,3.05C38.23,87.55,38.27,87.71,37.97,87.92ZM53.2,92.33c-1.42.36-2.89.75-4.37,1.11a4.213,4.213,0,0,1-1.12.1,1.638,1.638,0,0,1-1.48-.83c-.41-.78-.75-1.59-1.1-2.39a2.561,2.561,0,0,0-1.28-1.47c-.22-.1-.46-.22-.71-.02.03.04.04.08.07.09a2.365,2.365,0,0,1,1.61,1.68c.24.77.49,1.54.75,2.34a2.018,2.018,0,0,1-1.97-.46c-1.12-1.09-2.21-2.21-3.29-3.32a8.819,8.819,0,0,1-.84-1.01,14.164,14.164,0,0,1-2.48-5.27,6.844,6.844,0,0,1,1.29-5.67c.54-.74,1.18-1.43,1.79-2.13a.522.522,0,0,1,.28-.17c1.56-.08,3.12-.18,4.68-.21a13.519,13.519,0,0,1,1.88.21c.48.06.95.13,1.45.2-1.47,6.03,1.46,10.35,6.82,13.75-.12.19-.23.38-.35.56-.5.79-1.01,1.58-1.5,2.38A1.511,1.511,0,0,0,53.2,92.33ZM72.88,67a12.854,12.854,0,0,0-1.93,4.59,14.418,14.418,0,0,0-.39,4.58,12.927,12.927,0,0,0,1.01,4.17c.87,2.2,1.86,4.37,2.81,6.55a6.677,6.677,0,0,1,.77,3.13,2.279,2.279,0,0,1-1.11,1.83,7.728,7.728,0,0,1-3.8,1.09c-1.59.09-3.18.12-4.77.07a57.315,57.315,0,0,1-8.17-.87c-1.03-.18-2.06-.37-3.17-.57.51-.83.99-1.63,1.5-2.45.35.2.67.41,1.01.57.7.33,1.41.65,2.12.96a1.034,1.034,0,0,0,.55.06c.13-.03.24-.17.35-.27-.11-.04-.22-.09-.32-.13-.19-.77-.38-1.55-.57-2.33a1.024,1.024,0,0,1,.11-.03,11.18,11.18,0,0,0,4.33,1.77,19.764,19.764,0,0,0,5.42.7,6.925,6.925,0,0,0,1.92-.35,2.2,2.2,0,0,0,1.61-1.98,6.7,6.7,0,0,0-.59-3.35c-.57-1.41-1.22-2.8-1.71-4.23a17.216,17.216,0,0,1-.88-7.18,8.391,8.391,0,0,1,1.68-4.27c1-1.35,2.12-2.62,3.19-3.93.03.02.07.05.1.07A13.127,13.127,0,0,1,72.88,67Z" stroke="#000" stroke-width="0.5"/><path d="M48.35,75.09c-1.47,6.03,1.46,10.35,6.82,13.75-.12.19-.23.38-.35.56-.5.79-1.01,1.58-1.5,2.38a2.162,2.162,0,0,0-.12.55c-1.42.36-2.89.75-4.37,1.11a4.213,4.213,0,0,1-1.12.1,1.638,1.638,0,0,1-1.48-.83c-.41-.78-.75-1.59-1.1-2.39a2.561,2.561,0,0,0-1.28-1.47c-.22-.1-.46-.22-.71-.02.03.04.04.08.07.09a2.365,2.365,0,0,1,1.61,1.68c.24.77.49,1.54.75,2.34a2.018,2.018,0,0,1-1.97-.46c-1.12-1.09-2.21-2.2-3.29-3.32a8.819,8.819,0,0,1-.84-1.01,14.164,14.164,0,0,1-2.48-5.27,6.844,6.844,0,0,1,1.29-5.67c.54-.74,1.18-1.43,1.79-2.13a.522.522,0,0,1,.28-.17c1.56-.08,3.12-.18,4.68-.21a13.519,13.519,0,0,1,1.88.21C47.38,74.95,47.85,75.02,48.35,75.09Z" fill="#b3b3b3" stroke="#3a3a3a" stroke-width="0.25"/><path d="M57.88,81.74c-.28-1.66-.55-3.3-.84-5.05.74.39,1.42.75,2.09,1.11l.09-.09a7.073,7.073,0,0,0-.78-.67,9.1,9.1,0,0,0-2.76-1.09c-.61-.16-1.22-.3-1.84-.42-.13-.03-.3.07-.44.12.11.1.21.25.34.28.82.19,1.65.36,2.47.53a.405.405,0,0,1,.38.41c.19,1.17.44,2.34.6,3.52.13.94.1,1.89.23,2.83.16,1.16.38,2.32.62,3.47.22,1.08.48,2.15.73,3.23a2.413,2.413,0,0,1,.03.36c-.49-.25-.93-.45-1.35-.68a21.428,21.428,0,0,1-1.89-1.02c-3.19-2.12-5.92-4.55-6.82-8.19a10.6,10.6,0,0,1,.33-5.93,17.266,17.266,0,0,1,3.9-6.37c.64-.69,1.3-1.37,1.95-2.06.04,0,.08.01.13.01.09.38.23.75.28,1.13a8.108,8.108,0,0,0,1.31,3.41,22.059,22.059,0,0,0,6.59,6.49c.65.43,1.3.85,1.93,1.31.5.36.49.56-.08.82-.89.4-1.8.75-2.73,1.08-1.38.48-2.77.93-4.16,1.38A1.42,1.42,0,0,1,57.88,81.74Z" fill="#fff"/><path d="M73.98,65.21A18.274,18.274,0,0,1,72.88,67a12.854,12.854,0,0,0-1.93,4.59,14.418,14.418,0,0,0-.39,4.58,12.927,12.927,0,0,0,1.01,4.17c.87,2.2,1.86,4.37,2.81,6.55a6.677,6.677,0,0,1,.77,3.13,2.279,2.279,0,0,1-1.11,1.83,7.728,7.728,0,0,1-3.8,1.09c-1.59.09-3.18.12-4.77.07a57.315,57.315,0,0,1-8.17-.87c-1.03-.18-2.06-.37-3.17-.57.51-.83.99-1.63,1.5-2.45.35.2.67.41,1.01.57.7.33,1.41.65,2.12.96a1.034,1.034,0,0,0,.55.06c.13-.03.24-.17.35-.27-.11-.04-.22-.09-.32-.13-.19-.77-.38-1.55-.57-2.33a1.024,1.024,0,0,1,.11-.03,11.18,11.18,0,0,0,4.33,1.77,19.764,19.764,0,0,0,5.42.7,6.925,6.925,0,0,0,1.92-.35,2.2,2.2,0,0,0,1.61-1.98,6.7,6.7,0,0,0-.59-3.35c-.57-1.41-1.22-2.8-1.71-4.23a17.216,17.216,0,0,1-.88-7.18,8.391,8.391,0,0,1,1.68-4.27c1-1.35,2.12-2.62,3.19-3.93C73.91,65.16,73.94,65.19,73.98,65.21Z" fill="#f9b7d2"/><path d="M45.7,70.49c.3-.24.59-.49.92-.71a17.906,17.906,0,0,0,3.04-3.18c.6-.65,1.21-1.29,1.77-1.96a2.7,2.7,0,0,1,1.48-.75,1.658,1.658,0,0,1,1.7,1.03c.05.11.07.23.12.34.1.21.06.34-.13.53a24.476,24.476,0,0,0-5.38,6.96c-.28.6-.49,1.21-.74,1.84a21.312,21.312,0,0,0-7.81-.14,48.882,48.882,0,0,1,4.96-3.91,2.7,2.7,0,0,1-.27.39c-.21.23-.47.43-.66.67a1.025,1.025,0,0,0-.12.44,1.759,1.759,0,0,0,.51.04,2.191,2.191,0,0,0,.49-.17c.31-.12.65-.37.91-.31s.45.41.68.63c.46.46.48.47.84-.01.38-.5.73-1.03,1.07-1.56.06-.09.03-.23.04-.35a1.391,1.391,0,0,0-.41.01c-.68.19-1.36.38-2.03.59-.21.06-.36.01-.4-.17A.424.424,0,0,0,45.7,70.49Z" fill="#29abe2"/><path d="M49.36,66.33c-.13.21-.22.38-.34.54a16.98,16.98,0,0,1-3.76,3.23c-1.54,1.09-3.15,2.1-4.64,3.24-1.23.94-2.33,2.02-3.49,3.04-.06.05-.11.1-.16.15a1.891,1.891,0,0,1-.79-2.52,4.5,4.5,0,0,1,1.7-1.71,33.743,33.743,0,0,1,3.14-1.7,58.9,58.9,0,0,0,8.17-4.22C49.21,66.36,49.25,66.36,49.36,66.33Z" fill="#fff"/><path d="M38.98,75.29c-.51.7-1.05,1.41-1.55,2.14a7.078,7.078,0,0,0-.76,6.78,28.028,28.028,0,0,0,1.42,3.05c.14.28.19.44-.12.65a5.315,5.315,0,0,0-.73.69,5.849,5.849,0,0,1-3.07-6.16,9.476,9.476,0,0,1,1.37-3.25A15.924,15.924,0,0,1,38.98,75.29Z" fill="#fff"/><path d="M45.7,70.49c.28-.06.47-.02.54.27.05.19.19.23.4.17.67-.2,1.35-.4,2.03-.59a1.875,1.875,0,0,1,.41-.01c-.01.12.02.26-.04.35-.34.53-.69,1.05-1.07,1.56-.36.47-.38.46-.84.01-.22-.22-.41-.58-.68-.63s-.6.2-.91.31a2.191,2.191,0,0,1-.49.17,3,3,0,0,1-.51-.04c.04-.15.03-.33.12-.44.19-.24.45-.44.66-.67a3.393,3.393,0,0,0,.27-.39A.717.717,0,0,0,45.7,70.49Z"/><path d="M62.13,33.65c-5.3,3.73-10.65,7.5-16.61,10.1a37.933,37.933,0,0,1-8.96,2.69,46.5,46.5,0,0,1-10.28.2c-1.82-.11-1.81,2.72,0,2.83a51.241,51.241,0,0,0,10.36-.2,38.892,38.892,0,0,0,9.56-2.75c6.26-2.64,11.84-6.53,17.37-10.42,1.47-1.05.06-3.5-1.44-2.45Z"/><path d="M51.57,46.2c.09-.34.13-.63.23-.9a31.311,31.311,0,0,1,1.31-3.37c1.58-3.08,3.2-6.14,4.89-9.17,2.1-3.75,4.33-7.45,6.44-11.2A47.486,47.486,0,0,1,77.13,6.95c.96-.73,1.89-1.51,2.9-2.18a2.538,2.538,0,0,1,3.56.37A7.286,7.286,0,0,1,85.6,9.21q.36,2.8.56,5.62a33.454,33.454,0,0,1-.82,9.86c-.78,3.42-1.5,6.87-3.2,10.07a62.3,62.3,0,0,1-3.61,5.77,13.987,13.987,0,0,1-5.6,4.21,34.274,34.274,0,0,1-9.42,3.15,19.485,19.485,0,0,1-7.22.23A16.665,16.665,0,0,1,51.57,46.2Z" fill="#f9b7d2" stroke="#000" stroke-width="1"/><path d="M82.02,4.26a5.221,5.221,0,0,0-2.31,1.13c-5.54,4.26-10.6,8.86-13.96,14.65Q59.735,30.405,53.77,40.78a33.307,33.307,0,0,0-1.5,3.47c-.22.51-.47,1.02-.69,1.5-3.41-2.15-7.02-3.89-11.62-3.63.1-.23.16-.4.24-.57a68.651,68.651,0,0,1,6.9-10.79A107.253,107.253,0,0,1,59.5,17.53c2.45-2.28,4.85-4.6,7.34-6.84A29.924,29.924,0,0,1,73.49,6a17.65,17.65,0,0,1,8.15-1.81,2.09,2.09,0,0,1,.25.01A.4.4,0,0,0,82.02,4.26Z" fill="#fcb827" stroke="#000" stroke-width="1"/><path d="M18.57,49.54a3.877,3.877,0,0,0,1.69-4.1,29.7,29.7,0,0,0-2.19-6.95c-.82-2.13-1.49-4.32-2.49-6.39a33.838,33.838,0,0,0-7.2-10,10.69,10.69,0,0,0-2.42-1.49,2.6,2.6,0,0,0-2.2-.01c.01-.35.01-.65.04-.94.09-.7.19-1.41.3-2.11.05-.35.31-.49.68-.41a7.647,7.647,0,0,1,1.36.41,29.81,29.81,0,0,1,8.72,6.04A72.924,72.924,0,0,1,26.59,38.42c1.25,2.12,2.52,4.22,3.74,6.35.48.84.45.9-.4,1.46-1.58,1.04-3.17,2.07-4.81,3.04a4.967,4.967,0,0,1-1.79.52A13.264,13.264,0,0,1,18.57,49.54Z" fill="#fcb827" stroke="#000" stroke-width="1"/><path d="M17.81,46.78a15.836,15.836,0,0,1-4.9-2.72,17.764,17.764,0,0,1-6.12-9.01c-.66-2.23-1.17-4.5-1.68-6.76a57.315,57.315,0,0,1-1.29-8.32c-.06-.76.37-1.12,1.26-.94a5.656,5.656,0,0,1,2.84,1.52,35.661,35.661,0,0,1,7.19,10.03c.88,1.8,1.49,3.69,2.22,5.54.65,1.65,1.4,3.27,1.93,4.95a11.939,11.939,0,0,1,.52,3.46,1.971,1.971,0,0,1-1.6,2.01C18.04,46.56,17.94,46.68,17.81,46.78Z" fill="#f9b7d2" stroke="#000" stroke-width="1"/><path d="M51.57,46.2c.09-.34.13-.63.23-.9a31.311,31.311,0,0,1,1.31-3.37c1.58-3.08,3.2-6.14,4.89-9.17,2.1-3.75,4.33-7.45,6.44-11.2A47.486,47.486,0,0,1,77.13,6.95c.96-.73,1.89-1.51,2.9-2.18a2.538,2.538,0,0,1,3.56.37A7.286,7.286,0,0,1,85.6,9.21q.36,2.8.56,5.62a33.454,33.454,0,0,1-.82,9.86c-.78,3.42-1.5,6.87-3.2,10.07a62.3,62.3,0,0,1-3.61,5.77,13.987,13.987,0,0,1-5.6,4.21,34.274,34.274,0,0,1-9.42,3.15,19.485,19.485,0,0,1-7.22.23A16.665,16.665,0,0,1,51.57,46.2Z" fill="#f9b7d2" stroke="#000" stroke-width="0.4"/><path d="M82.02,4.26a5.221,5.221,0,0,0-2.31,1.13c-5.54,4.26-10.6,8.86-13.96,14.65Q59.735,30.405,53.77,40.78a33.307,33.307,0,0,0-1.5,3.47c-.22.51-.47,1.02-.69,1.5-3.41-2.15-7.02-3.89-11.62-3.63.1-.23.16-.4.24-.57a68.651,68.651,0,0,1,6.9-10.79A107.253,107.253,0,0,1,59.5,17.53c2.45-2.28,4.85-4.6,7.34-6.84A29.924,29.924,0,0,1,73.49,6a17.65,17.65,0,0,1,8.15-1.81,2.09,2.09,0,0,1,.25.01A.4.4,0,0,0,82.02,4.26Z" fill="#fcb827" stroke="#000" stroke-width="0.4"/><path d="M18.57,49.54a3.877,3.877,0,0,0,1.69-4.1,29.7,29.7,0,0,0-2.19-6.95c-.82-2.13-1.49-4.32-2.49-6.39a33.838,33.838,0,0,0-7.2-10,10.69,10.69,0,0,0-2.42-1.49,2.6,2.6,0,0,0-2.2-.01c.01-.35.01-.65.04-.94.09-.7.19-1.41.3-2.11.05-.35.31-.49.68-.41a7.647,7.647,0,0,1,1.36.41,29.81,29.81,0,0,1,8.72,6.04A72.924,72.924,0,0,1,26.59,38.42c1.25,2.12,2.52,4.22,3.74,6.35.48.84.45.9-.4,1.46-1.58,1.04-3.17,2.07-4.81,3.04a4.967,4.967,0,0,1-1.79.52A13.264,13.264,0,0,1,18.57,49.54Z" fill="#fcb827" stroke="#000" stroke-width="0.4"/><path d="M17.81,46.78a15.836,15.836,0,0,1-4.9-2.72,17.764,17.764,0,0,1-6.12-9.01c-.66-2.23-1.17-4.5-1.68-6.76a57.315,57.315,0,0,1-1.29-8.32c-.06-.76.37-1.12,1.26-.94a5.656,5.656,0,0,1,2.84,1.52,35.661,35.661,0,0,1,7.19,10.03c.88,1.8,1.49,3.69,2.22,5.54.65,1.65,1.4,3.27,1.93,4.95a11.939,11.939,0,0,1,.52,3.46,1.971,1.971,0,0,1-1.6,2.01C18.04,46.56,17.94,46.68,17.81,46.78Z" fill="#f9b7d2" stroke="#000" stroke-width="0.4"/><path d="M75.86,43.13c-1.26.43-1.61,1.19-.11,1.62,1.83.43,1.03,1.87-.35,2.21A1.133,1.133,0,0,0,74.83,49c1.49.85.46,2.21-.8,2.38-1.95.26-1.61,1.28-1.15,2.13.92,1.36.35,2.3-1.03,2.3-1.95,0-1.83,1.28-1.49,1.87a1.71,1.71,0,0,1-2.18,2.3c-1.03-.34-2.18.94-1.72,1.62,1.26,1.96-1.03,2.04-2.07,1.62-2.98-1.11-2.41.68-2.18,1.28.11.34-.92,2.47-2.3,1.02-1.61-1.62-2.75.77-2.64.77,1.03.08-1.83,2.3-2.64,1.11a1.6,1.6,0,0,0-2.87.51c-.34,1.45-2.29,1.7-3.33.51-1.95-2.13-1.49,1.02-3.33.94-1.26.94-.92-3.32-3.44-.94-1.15,1.11-2.87.94-3.33-.51a1.509,1.509,0,0,0-2.75-.51c-.92,1.19-3.78-1.02-2.64-1.11,0,0-1.15-2.39-2.75-.77-1.38,1.45-2.41-.68-2.3-1.02.23-.6.8-2.39-2.18-1.28-1.03.43-3.33.34-2.06-1.62.46-.68-.69-1.96-1.72-1.62a1.634,1.634,0,0,1-2.06-2.3c.23-.6.34-1.87-1.49-1.87-1.49,0-2.06-.94-1.15-2.3.46-.85.92-1.87-1.03-2.13-1.38-.17-2.41-1.53-.92-2.38.8-.51.8-1.7-.57-2.04s-2.18-2.13-.34-2.21c1.26-.09,1.49-1.02,0-1.7-1.38-.68-1.38-1.53-.12-1.7.8-.17,1.15-1.19.12-1.53-1.72-.51-1.03-1.87.34-2.22s1.38-1.53.57-2.04c-1.49-.85-.46-2.21.92-2.38,1.95-.26,1.49-1.28,1.03-2.13-.92-1.45-.34-2.3,1.15-2.3,1.84,0,1.72-1.28,1.49-1.96a1.588,1.588,0,0,1,2.06-2.21c1.03.26,2.18-.94,1.72-1.62-1.26-2.04,1.03-2.13,2.06-1.7,2.98,1.19,2.41-.77,2.18-1.28-.12-.34.92-2.47,2.3-1.02,1.61,1.62,2.75-.77,2.75-.85-1.15-.6,1.72-2.72,2.64-1.11.57,1.19,3.1.94,2.75-.51-.34-1.36,2.29-1.79,2.87-.51.23.6,1.84,1.96,2.3.17.57-2.04,1.84-.77,2.41.09.8,1.02,2.41.51,2.52-.26.12-1.36,2.98-.85,3.33.51a1.581,1.581,0,0,0,2.87.51c.8-1.11,3.67,1.11,2.64,1.11-.11,0,1.03,2.47,2.64.85,1.38-1.45,2.41.68,2.3,1.02-.23.51-.8,2.47,2.18,1.28,1.03-.43,3.33-.34,2.07,1.7-.46.68.69,1.87,1.72,1.62a1.663,1.663,0,0,1,2.18,2.21c-.34.68-.46,1.96,1.49,1.96,1.38,0,1.95.85,1.03,2.3-.46.85-.8,1.87,1.15,2.13,1.26.17,2.29,1.53.8,2.38a1.133,1.133,0,0,0,.57,2.04c1.38.34,1.95,1.53.35,2.22-1.72.77-1.03,1.28,0,1.53C78.04,42.11,77.46,42.7,75.86,43.13Z" fill="#e58a2d" fill-rule="evenodd"/><path d="M75.51,43.13c-1.15.43-1.49,1.19,0,1.53,1.72.42,1.03,1.96-.34,2.3-1.38.26-1.38,1.45-.57,1.96,1.38.85.46,2.22-.8,2.39-1.95.26-1.61,1.28-1.15,2.13.92,1.36.35,2.3-1.03,2.3-1.95,0-1.83,1.28-1.49,1.87a1.68,1.68,0,0,1-2.18,2.22c-.92-.26-2.06.94-1.72,1.62,1.26,1.96-.92,2.04-2.06,1.7-2.87-1.19-2.3.6-2.06,1.11.12.43-.92,2.56-2.3,1.11-1.61-1.7-2.75.77-2.64.77,1.03.09-1.84,2.22-2.64,1.11a1.49,1.49,0,0,0-2.75.51,1.968,1.968,0,0,1-3.33.51c-1.95-2.13-1.49,1.02-3.33.94-1.26.85-.92-3.32-3.33-.94-1.15,1.02-2.98.85-3.33-.51a1.581,1.581,0,0,0-2.87-.51c-.8,1.11-3.67-1.02-2.64-1.11.11,0-1.03-2.47-2.64-.77-1.38,1.45-2.41-.68-2.3-1.11.23-.51.8-2.3-2.06-1.11-1.03.34-3.33.26-2.06-1.7.34-.68-.8-1.87-1.72-1.62a1.6,1.6,0,0,1-2.06-2.22c.23-.6.34-1.87-1.49-1.87-1.49,0-1.95-.94-1.15-2.3.46-.85.92-1.87-1.03-2.13-1.38-.17-2.29-1.53-.92-2.39a1.041,1.041,0,0,0-.46-1.96c-1.49-.34-2.3-2.13-.46-2.3,1.26-.09,1.49-1.02,0-1.62-1.38-.68-1.38-1.53-.12-1.7.92-.17,1.15-1.19.12-1.53-1.61-.51-1.03-1.87.46-2.22,1.26-.34,1.26-1.45.46-1.96-1.38-.94-.46-2.21.92-2.39,1.95-.25,1.49-1.28,1.03-2.13-.8-1.36-.34-2.3,1.15-2.3,1.84,0,1.72-1.28,1.49-1.87a1.645,1.645,0,0,1,2.06-2.3c.92.34,2.06-.94,1.72-1.53-1.26-2.04,1.03-2.13,2.06-1.7,2.87,1.19,2.29-.68,2.06-1.28-.11-.34.92-2.47,2.3-1.02,1.61,1.62,2.75-.77,2.64-.77-1.03-.68,1.83-2.81,2.64-1.11.57,1.19,3.21.94,2.87-.51-.35-1.36,2.29-1.87,2.75-.51.23.6,1.84,1.87,2.3.17.57-2.04,1.84-.85,2.41,0,.8,1.02,2.41.6,2.52-.17.12-1.36,2.87-.85,3.33.51a1.491,1.491,0,0,0,2.75.51c.8-1.11,3.67,1.02,2.64,1.11-.12,0,1.03,2.38,2.64.77,1.38-1.45,2.41.68,2.3,1.02-.23.6-.8,2.47,2.06,1.28,1.15-.43,3.33-.34,2.06,1.7-.34.6.8,1.87,1.72,1.53a1.725,1.725,0,0,1,2.18,2.3c-.34.6-.46,1.87,1.49,1.87,1.38,0,1.95.94,1.03,2.3-.46.85-.8,1.87,1.15,2.13,1.26.17,2.18,1.45.8,2.39-.8.51-.8,1.62.57,1.96s1.95,1.62.34,2.22c-1.72.77-1.03,1.28-.12,1.53C77.81,42.11,77.12,42.7,75.51,43.13Z" fill="#e58b2d" fill-rule="evenodd"/><path d="M75.28,43.13c-1.15.43-1.61,1.19,0,1.53,1.72.42,1.03,1.87-.46,2.21-1.26.34-1.26,1.45-.46,1.96,1.38.94.46,2.22-.92,2.39-1.84.26-1.49,1.28-1.03,2.13.92,1.36.34,2.21-1.03,2.21-1.95,0-1.72,1.28-1.49,1.87a1.664,1.664,0,0,1-2.06,2.3c-1.03-.34-2.18.94-1.72,1.53,1.15,1.87-1.03,2.04-2.06,1.7-2.87-1.19-2.3.6-2.06,1.11.12.34-.92,2.47-2.29,1.02-1.61-1.62-2.75.77-2.64.77,1.03.08-1.84,2.21-2.64,1.11a1.536,1.536,0,0,0-2.75.51c-.34,1.36-2.29,1.62-3.33.51-1.83-2.13-1.38,1.02-3.21.94-1.26.85-.92-3.32-3.33-.94-1.15,1.02-2.87.85-3.33-.51a1.531,1.531,0,0,0-2.75-.51c-.8,1.11-3.67-1.02-2.64-1.11.12,0-1.03-2.39-2.64-.77-1.26,1.45-2.3-.68-2.18-1.02.23-.51.69-2.3-2.18-1.11-1.03.34-3.21.17-1.95-1.7.34-.6-.8-1.87-1.72-1.53a1.725,1.725,0,0,1-2.18-2.3c.34-.6.46-1.87-1.38-1.87-1.38,0-1.95-.85-1.15-2.21.46-.85.92-1.87-1.03-2.13-1.38-.17-2.29-1.45-.92-2.39.8-.51.8-1.62-.46-1.96-1.38-.34-2.18-2.04-.34-2.21,1.15-.09,1.49-1.02,0-1.62-1.38-.68-1.38-1.53-.11-1.7a.732.732,0,0,0,.11-1.45c-1.72-.6-1.03-1.96.34-2.21,1.26-.34,1.26-1.53.46-1.96-1.38-.94-.46-2.3.92-2.38,1.95-.26,1.49-1.28,1.03-2.13-.8-1.36-.23-2.21,1.15-2.21,1.84,0,1.72-1.36,1.38-1.87a1.725,1.725,0,0,1,2.18-2.3c.92.34,2.06-.94,1.72-1.53-1.26-2.04.92-2.13,1.95-1.7,2.87,1.19,2.41-.68,2.18-1.19-.12-.34.92-2.47,2.18-1.02,1.61,1.62,2.75-.77,2.64-.85-1.03-.6,1.84-2.73,2.64-1.11.57,1.19,3.1.94,2.75-.51-.35-1.28,2.29-1.79,2.87-.43.23.51,1.72,1.79,2.18.17.57-2.04,1.84-.85,2.41,0,.8,1.02,2.41.6,2.41-.17.23-1.36,2.98-.94,3.33.43a1.494,1.494,0,0,0,2.75.51c.8-1.02,3.67,1.02,2.64,1.11-.12,0,1.03,2.47,2.64.85,1.38-1.45,2.41.68,2.29,1.02-.23.51-.8,2.38,2.06,1.19,1.03-.43,3.21-.34,2.06,1.7-.46.6.69,1.87,1.72,1.53a1.662,1.662,0,0,1,2.06,2.3c-.23.51-.46,1.87,1.49,1.87,1.38,0,1.95.85,1.03,2.21-.46.85-.8,1.87,1.03,2.13,1.38.09,2.3,1.45.92,2.38-.8.43-.8,1.62.46,1.96,1.49.26,1.95,1.53.46,2.21-1.72.68-1.03,1.19-.11,1.45C77.46,42.11,76.89,42.7,75.28,43.13Z" fill="#e78e2c" fill-rule="evenodd"/><path d="M75.05,43.13c-1.15.34-1.61,1.19-.11,1.53,1.72.42,1.03,1.87-.35,2.21a1.041,1.041,0,0,0-.46,1.96c1.38.85.46,2.13-.92,2.3-1.84.25-1.49,1.28-1.03,2.04.8,1.45.34,2.3-1.03,2.3-1.95,0-1.72,1.28-1.49,1.87a1.63,1.63,0,0,1-2.07,2.21c-.92-.34-2.06.94-1.72,1.53,1.26,1.96-.92,2.04-1.95,1.7-2.87-1.19-2.41.6-2.18,1.11.12.34-.92,2.47-2.18,1.02-1.61-1.62-2.75.77-2.64.77,1.03.08-1.84,2.21-2.64,1.11a1.418,1.418,0,0,0-2.64.51,1.968,1.968,0,0,1-3.33.51c-1.83-2.13-1.38.94-3.21.85-1.26.85-.8-3.24-3.33-.85-1.15,1.02-2.87.85-3.21-.51a1.494,1.494,0,0,0-2.75-.51c-.8,1.11-3.67-1.02-2.64-1.11.12,0-1.03-2.39-2.64-.77-1.26,1.45-2.29-.68-2.18-1.02.23-.51.8-2.3-2.07-1.11-1.03.34-3.21.26-2.06-1.7.46-.6-.69-1.87-1.72-1.53a1.627,1.627,0,0,1-2.06-2.21c.34-.6.46-1.87-1.38-1.87-1.38,0-1.95-.85-1.15-2.3.57-.77.92-1.79-1.03-2.04-1.26-.17-2.18-1.45-.92-2.3a1.041,1.041,0,0,0-.46-1.96c-1.38-.34-2.18-2.13-.34-2.21,1.26-.09,1.49-1.02,0-1.62-1.38-.68-1.38-1.53-.11-1.7a.728.728,0,0,0,.11-1.45c-1.72-.51-1.03-1.87.34-2.21,1.26-.34,1.26-1.45.46-1.96-1.26-.85-.34-2.21.92-2.3,1.95-.26,1.61-1.28,1.03-2.13-.8-1.36-.23-2.21,1.15-2.21,1.84,0,1.72-1.28,1.38-1.87A1.614,1.614,0,0,1,22.5,25c1.03.34,2.18-.94,1.72-1.53-1.15-2.04,1.03-2.13,2.06-1.7,2.87,1.19,2.29-.68,2.07-1.19-.12-.34.92-2.47,2.18-1.02,1.61,1.62,2.75-.77,2.64-.77-1.03-.68,1.84-2.72,2.64-1.11.57,1.11,3.1.94,2.75-.51-.35-1.36,2.18-1.79,2.75-.51.23.6,1.72,1.87,2.18.17.57-2.04,1.84-.77,2.41,0,.8,1.02,2.41.6,2.41-.17.12-1.28,2.87-.85,3.33.51a1.418,1.418,0,0,0,2.64.51c.8-1.11,3.67,1.02,2.64,1.11-.12,0,1.03,2.39,2.64.77,1.26-1.45,2.29.68,2.18,1.02-.23.51-.69,2.39,2.18,1.19,1.03-.43,3.21-.34,1.95,1.7-.34.6.8,1.87,1.72,1.53a1.62,1.62,0,0,1,2.07,2.21c-.23.6-.46,1.87,1.49,1.87,1.38,0,1.84.85,1.03,2.21-.46.85-.8,1.87,1.03,2.13,1.38.09,2.29,1.45.92,2.3-.8.51-.8,1.62.46,1.96,1.38.34,1.95,1.53.35,2.21s-.92,1.19,0,1.53C77.23,42.11,76.54,42.7,75.05,43.13Z" fill="#e7912c" fill-rule="evenodd"/><path d="M74.71,43.13c-1.15.34-1.49,1.11,0,1.53,1.72.34,1.03,1.79-.35,2.13-1.26.34-1.26,1.45-.46,1.96,1.26.85.34,2.21-.92,2.3-1.84.26-1.49,1.19-1.03,2.04.8,1.36.35,2.21-1.03,2.21-1.95,0-1.72,1.28-1.49,1.87a1.614,1.614,0,0,1-2.06,2.21c-.92-.34-2.06.94-1.72,1.53,1.26,1.96-.92,2.04-1.95,1.7-2.87-1.19-2.29.6-2.06,1.11.11.34-.92,2.38-2.18,1.02-1.49-1.62-2.75.77-2.64.77,1.03,0-1.72,2.13-2.52,1.02a1.536,1.536,0,0,0-2.75.51,1.857,1.857,0,0,1-3.21.51c-1.83-2.13-1.38.94-3.21.85-1.26.94-.8-3.15-3.33-.85a1.9,1.9,0,0,1-3.21-.51,1.453,1.453,0,0,0-2.64-.51c-.8,1.11-3.67-1.02-2.64-1.02.12,0-1.03-2.38-2.52-.77-1.38,1.36-2.41-.68-2.29-1.02.23-.51.8-2.3-2.07-1.11-1.03.34-3.21.26-1.95-1.7.34-.6-.8-1.87-1.72-1.53a1.614,1.614,0,0,1-2.06-2.21c.23-.6.46-1.87-1.38-1.87-1.38,0-1.95-.85-1.15-2.21.57-.85.92-1.79-1.03-2.04-1.26-.09-2.18-1.45-.8-2.3.69-.51.69-1.62-.57-1.96-1.38-.34-2.06-2.04-.34-2.13,1.26-.09,1.49-1.02,0-1.7-1.38-.6-1.38-1.45-.12-1.62a.728.728,0,0,0,.12-1.45c-1.61-.51-1.03-1.87.34-2.21,1.26-.26,1.26-1.36.57-1.87-1.38-.85-.46-2.21.8-2.38,1.95-.17,1.61-1.19,1.03-2.04-.8-1.36-.23-2.21,1.15-2.21,1.84,0,1.61-1.28,1.38-1.79a1.615,1.615,0,0,1,2.06-2.21c.92.26,2.06-.94,1.72-1.53-1.26-1.96.92-2.13,1.95-1.7,2.87,1.19,2.29-.68,2.07-1.19-.12-.34.92-2.38,2.29-1.02,1.49,1.62,2.64-.68,2.52-.77-1.03-.6,1.84-2.72,2.64-1.11.46,1.19,2.98.94,2.64-.43s2.29-1.79,2.75-.51c.23.6,1.83,1.79,2.18.17.57-2.04,1.84-.85,2.41,0,.8,1.02,2.29.6,2.41-.17.12-1.36,2.87-.85,3.21.51a1.506,1.506,0,0,0,2.75.43c.8-1.02,3.56,1.02,2.52,1.11-.12,0,1.15,2.38,2.64.77,1.26-1.36,2.29.68,2.18,1.02-.23.51-.8,2.39,2.06,1.19,1.03-.43,3.21-.25,1.95,1.7-.35.6.8,1.79,1.72,1.53a1.614,1.614,0,0,1,2.06,2.21c-.23.51-.46,1.79,1.49,1.79,1.38,0,1.83.85,1.03,2.21-.46.85-.8,1.87,1.03,2.04,1.26.17,2.18,1.53.92,2.38-.8.51-.8,1.62.46,1.87,1.38.34,1.95,1.53.35,2.21s-1.03,1.19,0,1.53C76.89,42.11,76.31,42.7,74.71,43.13Z" fill="#e7912c" fill-rule="evenodd"/><path d="M74.48,43.13c-1.15.34-1.49,1.11,0,1.45,1.72.43,1.03,1.87-.34,2.21-1.26.26-1.26,1.36-.57,1.87,1.38.85.46,2.21-.8,2.3-1.83.26-1.49,1.19-1.03,2.04.8,1.36.23,2.21-1.03,2.21-1.84,0-1.72,1.28-1.49,1.87a1.584,1.584,0,0,1-2.06,2.13c-.92-.26-1.95.94-1.61,1.53,1.15,1.96-.92,2.04-1.95,1.7-2.87-1.19-2.29.6-2.06,1.11.12.26-.92,2.38-2.18.94-1.49-1.45-2.75.77-2.64.77,1.03.09-1.72,2.13-2.52,1.11a1.415,1.415,0,0,0-2.64.51,1.893,1.893,0,0,1-3.21.42c-1.83-2.04-1.38,1.02-3.21.94-1.15.85-.8-3.24-3.21-.94-1.15,1.02-2.87.85-3.21-.42a1.494,1.494,0,0,0-2.75-.51c-.8,1.02-3.56-1.02-2.52-1.11.12,0-1.03-2.21-2.52-.77-1.38,1.45-2.41-.68-2.18-.94.11-.51.69-2.3-2.06-1.11-1.03.34-3.21.26-2.07-1.7.46-.6-.69-1.79-1.61-1.53a1.583,1.583,0,0,1-2.06-2.13c.23-.6.46-1.87-1.38-1.87-1.38,0-1.95-.85-1.15-2.21.57-.85.92-1.79-1.03-2.04-1.26-.09-2.18-1.45-.8-2.3.8-.51.8-1.62-.46-1.87-1.38-.34-2.18-2.04-.34-2.21,1.15-.09,1.38-.94,0-1.62-1.38-.6-1.38-1.45-.11-1.62a.731.731,0,0,0,.11-1.45c-1.72-.51-1.03-1.79.34-2.13,1.26-.34,1.26-1.45.46-1.87-1.38-.85-.46-2.21.8-2.38,1.95-.17,1.61-1.19,1.03-1.96-.8-1.36-.23-2.21,1.15-2.21,1.84,0,1.61-1.28,1.38-1.87a1.639,1.639,0,0,1,2.06-2.21c.92.34,2.06-.85,1.61-1.45-1.15-1.96,1.03-2.04,2.07-1.7,2.75,1.19,2.18-.68,2.06-1.19-.23-.34.8-2.38,2.18-.94,1.49,1.53,2.64-.77,2.52-.77-1.03-.68,1.72-2.73,2.52-1.11.57,1.11,3.1.85,2.75-.51-.34-1.28,2.18-1.79,2.75-.43.23.51,1.72,1.79,2.18.17.46-2.04,1.72-.85,2.29,0,.69.94,2.29.51,2.41-.17.12-1.36,2.75-.85,3.21.43a1.448,1.448,0,0,0,2.64.51c.8-1.11,3.56,1.02,2.52,1.11-.11,0,1.15,2.3,2.64.77,1.26-1.45,2.3.6,2.18.94-.23.51-.8,2.38,2.06,1.19,1.03-.34,3.1-.26,1.95,1.7-.35.6.69,1.79,1.61,1.45a1.639,1.639,0,0,1,2.06,2.21c-.23.6-.34,1.87,1.49,1.87,1.26,0,1.83.85,1.03,2.21-.46.77-.8,1.79,1.03,1.96,1.26.17,2.18,1.53.8,2.38-.69.42-.69,1.53.57,1.87,1.38.34,1.84,1.53.34,2.13-1.61.77-1.03,1.28-.12,1.53C76.66,42.11,76.08,42.62,74.48,43.13Z" fill="#e9952b" fill-rule="evenodd"/><path d="M74.25,43.13c-1.15.34-1.49,1.11,0,1.45,1.61.43.92,1.87-.46,2.13a1.079,1.079,0,0,0-.46,1.96c1.38.85.46,2.13-.8,2.21-1.83.26-1.49,1.19-1.03,2.04.8,1.36.23,2.21-1.03,2.21-1.84,0-1.72,1.19-1.49,1.79a1.6,1.6,0,0,1-1.95,2.21c-.92-.34-2.06.85-1.72,1.45,1.26,1.96-.92,2.04-1.95,1.62-2.75-1.11-2.18.68-1.95,1.11.11.34-.92,2.39-2.18,1.02-1.49-1.45-2.64.77-2.64.77,1.03.08-1.72,2.13-2.52,1.02a1.457,1.457,0,0,0-2.64.51c-.34,1.36-2.18,1.53-3.1.51-1.83-2.04-1.38.94-3.21.85-1.15.85-.8-3.15-3.21-.85-1.15,1.02-2.75.85-3.21-.51a1.448,1.448,0,0,0-2.64-.51c-.8,1.11-3.56-.94-2.52-1.02.11,0-1.03-2.21-2.52-.77-1.38,1.36-2.3-.68-2.18-1.02.23-.42.69-2.21-2.06-1.11-1.03.43-3.1.34-1.95-1.62.34-.6-.69-1.79-1.61-1.45a1.639,1.639,0,0,1-2.06-2.21c.23-.6.46-1.79-1.38-1.79-1.38,0-1.95-.85-1.15-2.21.57-.85.92-1.79-.92-2.04-1.38-.09-2.18-1.36-.92-2.21.8-.51.8-1.62-.46-1.96-1.38-.26-2.07-1.96-.34-2.13,1.15-.09,1.38-.94,0-1.62-1.38-.6-1.38-1.45-.11-1.62a.683.683,0,0,0,.11-1.36c-1.61-.51-1.03-1.87.34-2.21,1.26-.26,1.26-1.36.46-1.87-1.26-.85-.46-2.13.92-2.3,1.84-.17,1.49-1.19.92-1.96-.8-1.36-.23-2.22,1.15-2.22,1.84,0,1.61-1.28,1.38-1.79a1.615,1.615,0,0,1,2.06-2.21c.92.34,1.95-.85,1.61-1.45-1.15-1.96.92-2.04,1.95-1.7,2.75,1.19,2.29-.68,2.06-1.19-.11-.26.8-2.3,2.18-.94,1.49,1.53,2.64-.68,2.52-.77-1.03-.6,1.72-2.64,2.52-1.02.57,1.11,2.98.85,2.64-.51-.34-1.28,2.18-1.79,2.75-.51.23.6,1.72,1.79,2.18.17.46-1.96,1.72-.77,2.29,0,.69,1.02,2.29.6,2.41-.17.12-1.28,2.75-.85,3.1.51a1.457,1.457,0,0,0,2.64.51c.8-1.11,3.56.94,2.52,1.02,0,0,1.15,2.3,2.64.77,1.26-1.36,2.3.68,2.18.94-.23.51-.8,2.38,1.95,1.19,1.03-.34,3.21-.26,1.95,1.7-.34.6.8,1.79,1.72,1.45a1.578,1.578,0,0,1,1.95,2.21c-.23.51-.35,1.79,1.49,1.79,1.26,0,1.84.85,1.03,2.22-.46.77-.8,1.79,1.03,1.96,1.26.17,2.18,1.45.8,2.3a1.014,1.014,0,0,0,.46,1.87c1.38.34,1.95,1.53.46,2.21-1.72.68-1.03,1.19-.12,1.45C76.43,42.11,75.74,42.62,74.25,43.13Z" fill="#ea972b" fill-rule="evenodd"/><path d="M74.02,43.13c-1.15.34-1.49,1.11-.12,1.45,1.72.43,1.03,1.79-.35,2.13-1.26.25-1.26,1.36-.46,1.87,1.26.85.46,2.13-.8,2.3-1.84.17-1.49,1.11-1.03,1.96.8,1.36.23,2.13-1.03,2.13-1.83,0-1.72,1.28-1.49,1.79a1.562,1.562,0,0,1-1.95,2.21c-.92-.34-1.95.85-1.61,1.45,1.15,1.96-.92,2.04-1.95,1.62-2.75-1.11-2.3.68-2.06,1.11.12.34-.8,2.38-2.18,1.02-1.38-1.53-2.52.68-2.52.68,1.03.09-1.72,2.13-2.41,1.11a1.458,1.458,0,0,0-2.64.42,1.866,1.866,0,0,1-3.21.51c-1.72-2.04-1.38.94-3.1.85-1.15.85-.8-3.15-3.21-.85-1.03,1.02-2.75.85-3.1-.51a1.462,1.462,0,0,0-2.64-.42c-.8,1.02-3.56-1.02-2.52-1.11.12,0-1.03-2.21-2.52-.68-1.26,1.36-2.3-.68-2.18-1.02.23-.43.8-2.21-1.95-1.11-1.03.43-3.21.34-1.95-1.62.34-.6-.8-1.79-1.72-1.45a1.578,1.578,0,0,1-1.95-2.21c.23-.51.46-1.79-1.38-1.79-1.38,0-1.95-.77-1.03-2.13.46-.85.8-1.79-1.03-1.96-1.26-.17-2.18-1.45-.92-2.3.8-.51.8-1.62-.46-1.87-1.26-.34-2.06-2.04-.34-2.13,1.15-.09,1.49-.94,0-1.62-1.26-.6-1.26-1.45-.11-1.62.8-.08,1.15-1.11.11-1.36-1.61-.51-.92-1.79.34-2.13s1.26-1.36.46-1.87c-1.26-.85-.34-2.13.92-2.3,1.84-.17,1.49-1.19,1.03-1.96-.92-1.36-.34-2.22,1.03-2.22,1.84,0,1.61-1.19,1.38-1.79a1.546,1.546,0,0,1,1.95-2.13c.92.34,2.07-.85,1.72-1.45-1.26-1.96.92-2.04,1.95-1.62,2.75,1.11,2.18-.68,1.95-1.19-.12-.34.92-2.38,2.18-1.02,1.49,1.53,2.64-.68,2.52-.77-1.03-.6,1.72-2.55,2.52-1.02.46,1.11,2.98.85,2.64-.51-.34-1.28,2.18-1.7,2.64-.43.23.51,1.72,1.79,2.18.17.46-1.96,1.72-.77,2.29,0,.69.94,2.29.51,2.29-.17.12-1.28,2.75-.85,3.21.43a1.448,1.448,0,0,0,2.64.51c.69-1.02,3.44,1.02,2.41,1.02,0,0,1.15,2.3,2.52.77,1.38-1.36,2.3.68,2.18,1.02-.23.51-.69,2.3,2.06,1.19,1.03-.43,3.1-.34,1.95,1.62-.34.6.69,1.79,1.61,1.45a1.53,1.53,0,0,1,1.95,2.13c-.23.6-.34,1.79,1.49,1.79,1.26,0,1.84.85,1.03,2.22-.46.77-.8,1.79,1.03,1.96,1.26.17,2.06,1.45.8,2.3-.8.51-.8,1.53.46,1.87,1.38.34,1.84,1.45.35,2.13-1.61.68-.92,1.19,0,1.45C76.08,42.11,75.51,42.62,74.02,43.13Z" fill="#ec992b" fill-rule="evenodd"/><path d="M73.68,43.13c-1.03.34-1.49,1.11,0,1.45,1.61.34,1.03,1.79-.34,2.04-1.26.34-1.26,1.45-.46,1.87,1.26.85.35,2.13-.8,2.3-1.84.17-1.49,1.11-1.03,1.96.8,1.28.23,2.13-1.03,2.13-1.83,0-1.72,1.19-1.38,1.79a1.6,1.6,0,0,1-2.06,2.13c-.92-.26-1.95.85-1.61,1.45,1.15,1.96-.92,2.04-1.95,1.62-2.64-1.11-2.18.68-1.95,1.19.12.25-.8,2.21-2.18.85-1.38-1.45-2.52.77-2.41.77.92.09-1.72,2.04-2.52,1.02a1.457,1.457,0,0,0-2.64.51,1.8,1.8,0,0,1-3.1.43c-1.83-1.96-1.38,1.02-3.1.94-1.15.77-.8-3.15-3.21-.94-1.03,1.02-2.75.85-3.1-.43a1.448,1.448,0,0,0-2.64-.51c-.69,1.02-3.44-.94-2.41-1.02.11,0-1.03-2.21-2.52-.77-1.26,1.36-2.3-.6-2.18-.85.23-.51.8-2.3-1.95-1.19-1.03.43-3.1.34-1.95-1.62.34-.6-.69-1.7-1.61-1.45a1.546,1.546,0,0,1-1.95-2.13c.23-.6.34-1.79-1.38-1.79-1.38,0-1.84-.85-1.03-2.13.46-.85.8-1.79-1.03-1.96-1.26-.17-2.18-1.45-.8-2.3.69-.43.69-1.53-.46-1.87-1.38-.26-2.06-1.96-.46-2.04,1.26-.09,1.49-1.02.11-1.62s-1.38-1.45-.11-1.62c.69-.08,1.03-1.02,0-1.36-1.49-.51-.92-1.79.46-2.13a.964.964,0,0,0,.46-1.79c-1.38-.85-.46-2.13.8-2.3,1.84-.17,1.49-1.19,1.03-1.96-.8-1.28-.34-2.13,1.03-2.13,1.72,0,1.61-1.28,1.38-1.79a1.546,1.546,0,0,1,1.95-2.13c.92.26,1.95-.85,1.61-1.45-1.15-1.96.92-2.04,1.95-1.62,2.75,1.11,2.18-.68,1.95-1.19-.12-.34.92-2.3,2.18-.94,1.49,1.53,2.64-.77,2.52-.77-1.03-.6,1.72-2.64,2.41-1.02.57,1.02,2.98.85,2.64-.51-.34-1.28,2.18-1.7,2.75-.51.12.6,1.61,1.79,2.07.17.57-1.87,1.72-.77,2.29.08.69.94,2.18.51,2.29-.26.12-1.28,2.75-.77,3.1.51a1.457,1.457,0,0,0,2.64.51c.8-1.11,3.44.94,2.52,1.02-.11,0,1.03,2.3,2.41.77,1.38-1.36,2.29.6,2.18.94-.23.51-.69,2.3,1.95,1.19,1.03-.43,3.1-.34,1.95,1.62-.34.6.69,1.7,1.61,1.45a1.6,1.6,0,0,1,2.06,2.13c-.34.51-.46,1.79,1.38,1.79,1.26,0,1.83.85,1.03,2.13-.46.77-.8,1.79,1.03,1.96,1.15.17,2.06,1.45.8,2.3-.8.43-.8,1.53.46,1.79,1.38.34,1.84,1.53.34,2.13-1.61.68-.92,1.19-.12,1.45C75.86,42.11,75.17,42.62,73.68,43.13Z" fill="#ed9b2b" fill-rule="evenodd"/><path d="M73.45,43.13c-1.15.34-1.49,1.02,0,1.36,1.61.43.92,1.79-.34,2.13-1.26.26-1.26,1.36-.46,1.87,1.26.77.35,2.04-.92,2.21-1.72.17-1.38,1.11-.92,1.96.8,1.28.23,2.13-1.03,2.13-1.84,0-1.61,1.19-1.38,1.7a1.564,1.564,0,0,1-1.95,2.13c-.92-.26-2.07.85-1.61,1.45,1.15,1.87-1.03,2.04-1.95,1.62-2.75-1.11-2.18.68-1.95,1.19.12.26-.92,2.21-2.18.85-1.38-1.45-2.52.77-2.41.77.92,0-1.72,2.04-2.52,1.02a1.373,1.373,0,0,0-2.52.43,1.834,1.834,0,0,1-3.1.51c-1.83-2.04-1.38.94-3.1.85-1.15.85-.8-3.07-3.1-.85-1.03.94-2.75.77-3.1-.51a1.461,1.461,0,0,0-2.64-.43c-.69,1.02-3.44-1.02-2.41-1.02.12,0-1.03-2.21-2.52-.77-1.26,1.36-2.18-.6-2.06-.85.23-.51.69-2.3-2.07-1.19-.92.42-2.98.26-1.83-1.62.34-.6-.69-1.7-1.61-1.45a1.546,1.546,0,0,1-1.95-2.13c.23-.51.34-1.7-1.38-1.7-1.38,0-1.84-.85-1.03-2.13.46-.85.8-1.79-1.03-1.96-1.26-.17-2.06-1.45-.8-2.21a1.014,1.014,0,0,0-.46-1.87c-1.38-.34-2.06-1.96-.34-2.13,1.15-.08,1.38-.94,0-1.53s-1.38-1.45-.11-1.62c.8-.08,1.03-1.02.11-1.36-1.61-.51-1.03-1.7.34-2.04,1.15-.34,1.15-1.36.46-1.87-1.26-.77-.46-2.04.8-2.22,1.84-.25,1.49-1.11,1.03-1.96-.8-1.28-.34-2.13,1.03-2.13,1.72,0,1.61-1.19,1.38-1.79a1.5,1.5,0,0,1,1.95-2.04c.92.26,1.95-.94,1.61-1.53-1.15-1.87.92-1.96,1.83-1.53,2.75,1.11,2.3-.68,2.07-1.19-.12-.34.8-2.3,2.06-.94,1.49,1.53,2.64-.68,2.52-.77-1.03-.6,1.72-2.56,2.41-1.02.57,1.11,2.98.85,2.64-.42s2.07-1.79,2.64-.51c.23.51,1.61,1.79,2.07.17.57-1.96,1.72-.77,2.29,0,.69.94,2.18.51,2.29-.17.12-1.28,2.75-.85,3.1.51a1.369,1.369,0,0,0,2.52.42c.8-1.02,3.44.94,2.52,1.02-.12,0,1.03,2.3,2.41.77,1.26-1.36,2.29.6,2.18.94-.23.51-.8,2.3,1.95,1.19.92-.43,3.1-.34,1.95,1.53-.46.6.69,1.79,1.61,1.53a1.517,1.517,0,0,1,1.95,2.04c-.23.6-.46,1.79,1.38,1.79,1.26,0,1.83.85,1.03,2.13-.46.85-.8,1.7.92,1.96,1.26.17,2.18,1.45.92,2.22-.8.51-.8,1.53.46,1.87s1.84,1.45.34,2.04c-1.61.68-1.03,1.19-.12,1.45C75.51,42.11,74.94,42.62,73.45,43.13Z" fill="#ed9c2a" fill-rule="evenodd"/><path d="M73.22,43.13c-1.15.34-1.49,1.02-.12,1.36,1.61.43,1.03,1.79-.35,2.13a.962.962,0,0,0-.46,1.79c1.38.77.46,2.04-.8,2.21-1.72.17-1.38,1.11-.92,1.96.8,1.28.23,2.04-1.03,2.04-1.84,0-1.61,1.19-1.38,1.79a1.56,1.56,0,0,1-1.95,2.13c-.92-.34-1.95.85-1.61,1.36,1.15,1.87-.92,2.04-1.84,1.62-2.75-1.11-2.18.68-2.06,1.11.12.34-.8,2.21-2.06.94-1.38-1.45-2.52.68-2.41.68,1.03.09-1.72,2.04-2.41,1.02a1.453,1.453,0,0,0-2.64.51,1.722,1.722,0,0,1-2.98.43c-1.83-1.96-1.38.94-3.1.85-1.15.85-.8-3.07-3.1-.85-1.03,1.02-2.75.85-3.1-.43a1.367,1.367,0,0,0-2.52-.51c-.8,1.02-3.44-.94-2.41-1.02.12,0-1.03-2.13-2.52-.68-1.26,1.28-2.18-.6-2.06-.94.23-.43.69-2.21-1.95-1.11-.92.43-3.1.26-1.84-1.62.34-.51-.8-1.7-1.61-1.36a1.541,1.541,0,0,1-1.95-2.13c.23-.6.34-1.79-1.38-1.79-1.38,0-1.84-.77-1.03-2.04.46-.85.8-1.79-1.03-1.96-1.15-.17-2.07-1.45-.8-2.21.8-.51.8-1.53-.46-1.79-1.26-.34-1.95-1.96-.34-2.13,1.15-.08,1.38-.94,0-1.53-1.26-.6-1.26-1.45-.11-1.53.8-.17,1.03-1.11.11-1.36-1.49-.51-.92-1.79.34-2.13,1.26-.26,1.26-1.36.46-1.79-1.26-.85-.34-2.04.8-2.21,1.84-.26,1.49-1.11,1.03-1.96-.8-1.28-.34-2.13,1.03-2.13,1.72,0,1.61-1.19,1.38-1.7a1.541,1.541,0,0,1,1.95-2.13c.8.34,1.95-.85,1.61-1.45-1.26-1.87.92-1.96,1.84-1.53,2.64,1.11,2.18-.68,1.95-1.19-.12-.26.8-2.21,2.06-.94,1.49,1.53,2.52-.68,2.52-.68-1.03-.6,1.61-2.56,2.41-1.02.46,1.02,2.87.85,2.52-.51-.23-1.28,2.18-1.7,2.64-.43.23.51,1.72,1.7,2.07.17.57-1.96,1.72-.77,2.29,0,.69.94,2.18.51,2.29-.17.12-1.28,2.64-.85,2.98.43a1.453,1.453,0,0,0,2.64.51c.69-1.02,3.44.94,2.41,1.02-.12,0,1.03,2.21,2.41.68,1.26-1.28,2.18.68,2.06.94-.11.51-.69,2.3,2.06,1.19.92-.43,2.98-.34,1.84,1.53-.35.6.69,1.79,1.61,1.45a1.558,1.558,0,0,1,1.95,2.13c-.23.51-.46,1.7,1.38,1.7,1.26,0,1.84.85,1.03,2.13-.46.85-.8,1.7.92,1.96,1.26.17,2.18,1.36.8,2.21a.964.964,0,0,0,.46,1.79c1.38.34,1.84,1.45.35,2.13-1.49.6-.92,1.11,0,1.36C75.28,42.11,74.71,42.62,73.22,43.13Z" fill="#ef9f2a" fill-rule="evenodd"/><path d="M72.87,43.13c-1.03.26-1.38,1.02,0,1.36,1.61.34.92,1.7-.34,2.04a.964.964,0,0,0-.46,1.79c1.26.85.46,2.04-.8,2.21-1.72.26-1.38,1.11-.92,1.87.69,1.36.23,2.13-1.03,2.13-1.83,0-1.61,1.19-1.38,1.7a1.56,1.56,0,0,1-1.95,2.13c-.92-.34-1.95.85-1.61,1.36,1.15,1.87-.92,1.96-1.84,1.62-2.64-1.11-2.18.6-1.95,1.11.11.34-.8,2.21-2.07.85-1.38-1.36-2.52.77-2.41.77,1.03.09-1.72,2.04-2.41,1.02a1.373,1.373,0,0,0-2.52.43,1.834,1.834,0,0,1-3.1.51c-1.72-2.04-1.26.85-2.98.77-1.15.85-.8-2.98-3.1-.77-1.03.94-2.64.77-2.98-.51a1.373,1.373,0,0,0-2.52-.43c-.8,1.02-3.44-.94-2.41-1.02,0,0-1.03-2.13-2.52-.77-1.15,1.36-2.18-.51-2.06-.85.23-.51.8-2.21-1.95-1.11-.92.34-2.98.26-1.84-1.62.34-.51-.69-1.7-1.61-1.36a1.5,1.5,0,0,1-1.84-2.13c.23-.51.34-1.7-1.38-1.7-1.26,0-1.84-.77-1.03-2.13.46-.77.8-1.62-1.03-1.87-1.15-.17-2.07-1.36-.8-2.21.8-.43.8-1.53-.46-1.79-1.26-.34-1.95-1.96-.34-2.04,1.15-.08,1.38-.94.12-1.53-1.38-.6-1.38-1.45-.12-1.53a.684.684,0,0,0,0-1.36c-1.49-.51-.92-1.79.34-2.04,1.26-.34,1.26-1.36.46-1.79-1.26-.85-.34-2.04.8-2.21,1.84-.26,1.49-1.11,1.03-1.96-.8-1.28-.23-2.04,1.03-2.04,1.72,0,1.61-1.19,1.38-1.7a1.506,1.506,0,0,1,1.84-2.13c.92.34,1.95-.85,1.61-1.45-1.15-1.79.92-1.96,1.84-1.53,2.75,1.11,2.18-.68,1.95-1.11-.11-.34.92-2.3,2.06-.94,1.49,1.45,2.52-.68,2.52-.77-1.03-.6,1.61-2.55,2.41-1.02.46,1.11,2.87.85,2.52-.43s2.07-1.7,2.52-.51c.23.6,1.72,1.7,2.07.17.57-1.87,1.72-.77,2.29,0,.69.94,2.18.6,2.18-.17.11-1.19,2.75-.77,3.1.51a1.373,1.373,0,0,0,2.52.43c.69-1.02,3.44.94,2.41,1.02-.12,0,1.03,2.21,2.41.77,1.26-1.36,2.18.6,2.07.94-.23.43-.69,2.21,1.95,1.11.92-.42,2.98-.25,1.84,1.53-.34.6.69,1.79,1.61,1.45a1.558,1.558,0,0,1,1.95,2.13c-.23.51-.46,1.7,1.38,1.7,1.26,0,1.72.77,1.03,2.04-.46.85-.8,1.7.92,1.96,1.26.17,2.06,1.36.8,2.21-.69.43-.69,1.45.46,1.79,1.26.26,1.83,1.45.34,2.04-1.49.68-.92,1.11,0,1.36C74.94,42.11,74.36,42.62,72.87,43.13Z" fill="#efa12a" fill-rule="evenodd"/><path d="M72.64,43.05c-1.03.34-1.38,1.11,0,1.45,1.61.34.92,1.7-.34,2.04a.962.962,0,0,0-.46,1.79c1.26.77.35,1.96-.8,2.13-1.72.25-1.38,1.11-.92,1.87.69,1.28.23,2.13-1.03,2.13-1.72,0-1.61,1.11-1.38,1.7a1.523,1.523,0,0,1-1.95,2.04c-.8-.26-1.83.85-1.49,1.45,1.15,1.79-.92,1.87-1.83,1.53-2.64-1.11-2.18.6-1.95,1.11.12.34-.8,2.13-2.07.85-1.38-1.36-2.52.68-2.41.68,1.03.08-1.61,2.04-2.41,1.02a1.367,1.367,0,0,0-2.52.51,1.75,1.75,0,0,1-2.98.42c-1.72-1.96-1.26.94-2.98.85-1.15.77-.8-2.98-3.1-.85-.92.94-2.64.77-2.98-.42a1.364,1.364,0,0,0-2.52-.51c-.69,1.02-3.33-.94-2.29-1.02,0,0-1.03-2.04-2.41-.68-1.26,1.28-2.18-.51-2.07-.85.12-.51.69-2.21-1.95-1.11-.92.34-2.98.26-1.84-1.53.34-.6-.69-1.7-1.61-1.45a1.468,1.468,0,0,1-1.84-2.04c.23-.6.34-1.7-1.38-1.7-1.26,0-1.84-.85-1.03-2.13.46-.77.8-1.62-.92-1.87-1.26-.17-2.06-1.36-.8-2.13a.962.962,0,0,0-.46-1.79c-1.26-.34-2.06-1.96-.34-2.04,1.03-.08,1.38-.94,0-1.53-1.26-.6-1.26-1.36-.12-1.53a.687.687,0,0,0,.12-1.36c-1.61-.51-.92-1.7.34-2.04a.962.962,0,0,0,.46-1.79c-1.26-.77-.46-2.04.8-2.13,1.72-.26,1.38-1.11.92-1.87-.8-1.28-.23-2.13,1.03-2.13,1.72,0,1.61-1.19,1.38-1.7a1.458,1.458,0,0,1,1.84-2.04c.92.26,1.95-.85,1.61-1.45-1.15-1.79.92-1.87,1.84-1.53,2.64,1.11,2.06-.6,1.95-1.11-.12-.34.8-2.22,2.07-.94,1.38,1.45,2.41-.68,2.41-.68-1.03-.6,1.61-2.55,2.29-1.02.57,1.02,2.87.77,2.52-.51-.23-1.19,2.07-1.62,2.64-.43.23.51,1.61,1.7,2.07.17.46-1.87,1.61-.77,2.18,0a1.26,1.26,0,0,0,2.18-.17c.11-1.19,2.64-.77,2.98.43a1.4,1.4,0,0,0,2.52.51c.8-1.02,3.44.94,2.41,1.02-.12,0,1.03,2.13,2.41.68,1.26-1.28,2.18.6,2.07.94-.23.51-.69,2.21,1.95,1.11.92-.34,2.98-.26,1.83,1.53-.34.6.69,1.7,1.49,1.45a1.511,1.511,0,0,1,1.95,2.04c-.23.51-.34,1.7,1.38,1.7,1.26,0,1.72.85,1.03,2.13-.46.77-.8,1.62.92,1.87,1.15.09,2.07,1.36.8,2.13a.962.962,0,0,0,.46,1.79c1.26.34,1.72,1.45.34,2.04-1.49.68-.92,1.11-.11,1.36C74.71,42.11,74.13,42.62,72.64,43.05Z" fill="#efa22a" fill-rule="evenodd"/><path d="M72.42,43.05c-1.03.34-1.38,1.11,0,1.45,1.49.34.92,1.7-.35,1.96a.964.964,0,0,0-.46,1.79c1.26.77.34,2.04-.8,2.13-1.72.26-1.49,1.11-1.03,1.87.8,1.28.34,2.04-.92,2.04-1.72,0-1.61,1.19-1.38,1.7a1.442,1.442,0,0,1-1.83,2.04c-.92-.26-1.95.85-1.61,1.45,1.15,1.79-.92,1.87-1.83,1.53-2.52-1.11-2.07.6-1.84,1.11.12.26-.8,2.13-2.07.94-1.38-1.53-2.52.6-2.41.6,1.03.08-1.61,1.96-2.41,1.02a1.3,1.3,0,0,0-2.41.43,1.722,1.722,0,0,1-2.98.43c-1.72-1.87-1.26.94-2.98.85-1.15.77-.8-2.98-2.98-.85-1.03.94-2.64.85-2.98-.43a1.373,1.373,0,0,0-2.52-.43c-.69.94-3.33-.94-2.29-1.02,0,0-1.03-2.13-2.41-.6-1.26,1.19-2.18-.68-2.07-.94.23-.51.69-2.21-1.95-1.11-.92.34-2.87.26-1.84-1.53.34-.6-.69-1.7-1.49-1.45a1.517,1.517,0,0,1-1.95-2.04c.23-.51.46-1.7-1.26-1.7-1.26,0-1.84-.77-1.03-2.04.46-.77.8-1.62-.92-1.87-1.26-.09-2.06-1.36-.8-2.13a.964.964,0,0,0-.46-1.79c-1.26-.26-1.95-1.87-.34-1.96,1.15-.08,1.38-.94,0-1.53-1.26-.6-1.26-1.36-.12-1.53.8-.09,1.03-1.02.12-1.36-1.49-.43-.92-1.7.34-1.96,1.15-.34,1.15-1.36.46-1.79-1.26-.77-.46-2.04.8-2.13,1.72-.26,1.38-1.11.92-1.87-.8-1.28-.23-2.04,1.03-2.04,1.72,0,1.49-1.19,1.26-1.7a1.515,1.515,0,0,1,1.95-2.04c.8.26,1.84-.85,1.49-1.45-1.03-1.79.92-1.87,1.84-1.53,2.64,1.11,2.18-.6,1.95-1.11-.12-.34.8-2.21,2.07-.94,1.38,1.53,2.41-.68,2.41-.68-1.03-.6,1.61-2.47,2.29-1.02.46,1.11,2.87.85,2.52-.43-.34-1.19,2.06-1.62,2.52-.43.23.51,1.61,1.62,2.07.09.46-1.79,1.61-.68,2.18.09.69.85,2.06.51,2.18-.17.11-1.28,2.64-.85,2.98.43a1.3,1.3,0,0,0,2.41.43c.8-.94,3.44.94,2.41,1.02-.12,0,1.03,2.21,2.41.68,1.26-1.28,2.18.6,2.07.94-.23.51-.69,2.21,1.84,1.11.92-.34,2.98-.26,1.83,1.53-.34.6.69,1.7,1.61,1.45a1.442,1.442,0,0,1,1.83,2.04c-.23.51-.34,1.7,1.38,1.7,1.26,0,1.72.77.92,2.04-.46.77-.69,1.62,1.03,1.87,1.15.08,2.06,1.36.8,2.13-.69.43-.69,1.45.46,1.79,1.26.26,1.72,1.36.35,1.96-1.61.68-.92,1.19-.12,1.45C74.36,42.11,73.79,42.62,72.42,43.05Z" fill="#f2a529" fill-rule="evenodd"/><path d="M72.19,43.05c-1.15.34-1.49,1.02-.12,1.36,1.61.43.92,1.7-.34,2.04-1.15.26-1.15,1.28-.46,1.7,1.26.77.46,2.04-.69,2.13-1.72.26-1.49,1.11-1.03,1.87.8,1.28.34,2.04-.92,2.04-1.72,0-1.61,1.11-1.38,1.7a1.416,1.416,0,0,1-1.84,1.96c-.92-.26-1.84.85-1.49,1.45,1.03,1.79-.92,1.87-1.84,1.53-2.64-1.11-2.07.6-1.95,1.11.12.26-.8,2.04-1.95.85-1.38-1.45-2.52.68-2.41.68,1.03,0-1.61,1.96-2.29.94a1.413,1.413,0,0,0-2.52.42,1.674,1.674,0,0,1-2.87.51c-1.72-1.96-1.26.85-2.98.77-1.03.85-.8-2.9-2.98-.77-1.03.94-2.64.77-2.98-.51a1.329,1.329,0,0,0-2.41-.42c-.69,1.02-3.33-.94-2.41-.94.12,0-.92-2.13-2.3-.68-1.26,1.19-2.18-.6-2.06-.85.23-.51.69-2.21-1.84-1.11-.92.34-2.98.26-1.84-1.53.34-.6-.69-1.7-1.49-1.45a1.487,1.487,0,0,1-1.95-1.96c.23-.6.46-1.7-1.26-1.7-1.26,0-1.72-.77-1.03-2.04.46-.77.8-1.62-.92-1.87-1.15-.09-2.06-1.36-.8-2.13.69-.43.69-1.45-.46-1.7-1.26-.34-1.95-1.87-.34-2.04,1.15-.09,1.38-.85,0-1.45-1.15-.6-1.15-1.36,0-1.53.69-.09.92-1.02,0-1.28-1.49-.51-.92-1.7.34-2.04,1.15-.26,1.15-1.28.46-1.7-1.26-.85-.34-2.04.8-2.13,1.72-.26,1.38-1.11.92-1.87-.69-1.28-.23-2.04,1.03-2.04,1.72,0,1.49-1.19,1.26-1.7a1.543,1.543,0,0,1,1.95-2.04c.8.34,1.84-.77,1.49-1.36-1.15-1.79.92-1.87,1.84-1.53,2.52,1.11,2.07-.6,1.84-1.11-.12-.25.8-2.13,2.06-.85,1.38,1.45,2.41-.68,2.3-.77-.92-.51,1.72-2.47,2.41-.94.46,1.02,2.75.77,2.41-.51-.23-1.19,2.06-1.62,2.52-.42.23.51,1.61,1.7,2.07.17.46-1.87,1.61-.77,2.18,0a1.269,1.269,0,0,0,2.18-.17c.11-1.19,2.52-.77,2.87.42a1.4,1.4,0,0,0,2.52.51c.69-1.02,3.33.94,2.29.94-.11,0,1.03,2.21,2.41.77,1.15-1.28,2.06.6,1.95.85-.12.51-.69,2.22,1.95,1.11.92-.34,2.87-.26,1.84,1.53-.35.6.57,1.7,1.49,1.36a1.468,1.468,0,0,1,1.84,2.04c-.23.51-.35,1.7,1.38,1.7,1.26,0,1.72.77.92,2.04-.46.77-.69,1.62,1.03,1.87,1.15.09,1.95,1.28.69,2.13-.69.43-.69,1.45.46,1.7,1.26.34,1.83,1.45.34,2.04s-.92,1.11,0,1.36C74.13,42.11,73.56,42.62,72.19,43.05Z" fill="#f2a728" fill-rule="evenodd"/><path d="M71.84,43.05c-1.03.34-1.38,1.02,0,1.36,1.49.34.92,1.7-.34,1.96a.962.962,0,0,0-.46,1.79c1.26.77.46,1.96-.8,2.04-1.61.26-1.38,1.11-.92,1.87.8,1.19.35,2.04-.92,2.04-1.72,0-1.61,1.11-1.38,1.62a1.468,1.468,0,0,1-1.84,2.04c-.8-.34-1.83.77-1.49,1.36,1.15,1.79-.92,1.87-1.84,1.45-2.52-1.02-2.06.68-1.84,1.11.12.34-.8,2.13-1.95.94-1.38-1.45-2.41.6-2.41.6,1.03.09-1.61,1.96-2.3,1.02a1.3,1.3,0,0,0-2.41.43,1.754,1.754,0,0,1-2.98.43c-1.61-1.87-1.26.85-2.87.77-1.03.85-.8-2.81-2.98-.77a1.686,1.686,0,0,1-2.87-.43,1.3,1.3,0,0,0-2.41-.43c-.8.94-3.33-.94-2.41-1.02.11,0-.92-2.04-2.3-.6-1.15,1.19-2.06-.6-1.95-.94.11-.43.69-2.13-1.95-1.11-.92.43-2.87.34-1.72-1.45.34-.6-.69-1.7-1.61-1.36a1.51,1.51,0,0,1-1.84-2.04c.23-.51.46-1.62-1.26-1.62-1.26,0-1.72-.85-1.03-2.04.46-.77.8-1.62-.92-1.87-1.15-.09-1.95-1.28-.8-2.04a.963.963,0,0,0-.34-1.79c-1.26-.25-1.95-1.87-.34-1.96,1.03-.09,1.26-.94,0-1.45-1.26-.6-1.26-1.36-.12-1.53a.649.649,0,0,0,.12-1.28c-1.49-.51-.92-1.7.34-1.96a.965.965,0,0,0,.34-1.79c-1.15-.77-.34-1.96.8-2.04,1.72-.26,1.38-1.11.92-1.87-.69-1.28-.23-2.04,1.03-2.04,1.72,0,1.49-1.11,1.26-1.62a1.506,1.506,0,0,1,1.84-2.04c.92.34,1.95-.77,1.61-1.36-1.15-1.79.8-1.87,1.72-1.53,2.64,1.11,2.06-.6,1.95-1.02-.12-.34.8-2.22,1.95-.94,1.38,1.45,2.41-.68,2.3-.68-.92-.6,1.61-2.47,2.41-1.02.46,1.02,2.75.85,2.41-.43-.35-1.19,2.06-1.62,2.52-.43.12.51,1.49,1.62,1.95.17.46-1.87,1.61-.77,2.18,0,.57.85,2.06.51,2.06-.17.23-1.19,2.64-.77,2.98.43a1.3,1.3,0,0,0,2.41.43c.69-.94,3.33.94,2.3,1.02,0,0,1.03,2.13,2.41.68,1.15-1.28,2.06.6,1.95.94-.23.43-.69,2.13,1.84,1.02.92-.34,2.98-.26,1.84,1.53-.34.6.69,1.7,1.49,1.36a1.468,1.468,0,0,1,1.84,2.04c-.23.51-.34,1.62,1.38,1.62,1.26,0,1.72.77.92,2.04-.46.77-.69,1.62.92,1.87,1.26.08,2.07,1.28.8,2.04-.69.51-.69,1.45.46,1.79,1.26.26,1.72,1.36.34,1.96-1.49.6-.92,1.11-.11,1.36C73.79,42.11,73.33,42.62,71.84,43.05Z" fill="#f4a928" fill-rule="evenodd"/><path d="M71.61,43.05c-1.03.34-1.38,1.02,0,1.36,1.49.34.92,1.62-.34,1.96-1.15.26-1.15,1.28-.46,1.7,1.26.77.34,1.96-.8,2.04-1.61.26-1.38,1.11-.92,1.87.8,1.19.23,1.96-.92,1.96-1.72,0-1.49,1.19-1.26,1.7a1.461,1.461,0,0,1-1.84,1.96c-.92-.25-1.83.77-1.61,1.36,1.15,1.79-.8,1.87-1.72,1.45-2.52-1.02-2.06.68-1.83,1.11.11.34-.8,2.04-1.95.94-1.38-1.45-2.41.68-2.41.68,1.03,0-1.49,1.79-2.3.85a1.351,1.351,0,0,0-2.41.43,1.655,1.655,0,0,1-2.87.42c-1.61-1.79-1.26.94-2.87.85-1.03.77-.69-2.81-2.87-.85-1.03.94-2.64.77-2.98-.42a1.354,1.354,0,0,0-2.41-.43c-.69.94-3.21-.85-2.3-.85.12,0-.92-2.13-2.3-.68-1.15,1.11-2.06-.6-1.95-.94.23-.42.69-2.13-1.83-1.11-.92.43-2.87.34-1.84-1.45.34-.6-.69-1.62-1.49-1.36a1.464,1.464,0,0,1-1.84-1.96c.23-.51.34-1.7-1.26-1.7-1.26,0-1.72-.77-1.03-1.96.46-.77.8-1.62-.92-1.87-1.15-.08-1.95-1.28-.69-2.04.69-.43.69-1.45-.46-1.7-1.26-.34-1.95-1.87-.34-1.96,1.03-.09,1.26-.94,0-1.45-1.26-.6-1.26-1.36-.12-1.53.69-.09,1.03-1.02.12-1.28-1.49-.43-.92-1.62.34-1.96,1.15-.25,1.15-1.28.46-1.7-1.26-.77-.46-1.96.69-2.13,1.72-.17,1.38-1.02.92-1.79-.69-1.19-.23-1.96,1.03-1.96,1.61,0,1.49-1.19,1.26-1.7a1.462,1.462,0,0,1,1.84-1.96c.8.26,1.84-.77,1.49-1.36-1.03-1.79.92-1.87,1.84-1.45,2.52,1.02,2.06-.68,1.83-1.11-.11-.34.8-2.13,1.95-.94,1.38,1.45,2.41-.6,2.3-.68-.92-.51,1.61-2.38,2.3-.94.57,1.02,2.75.77,2.41-.43-.23-1.19,2.06-1.62,2.52-.43.23.43,1.61,1.62,1.95.09.46-1.79,1.61-.68,2.18,0,.57.94,2.06.51,2.06-.09.12-1.19,2.52-.77,2.87.43a1.333,1.333,0,0,0,2.41.43c.8-.94,3.33.85,2.3.94,0,0,1.03,2.13,2.41.68,1.15-1.19,2.06.6,1.95.94-.23.43-.69,2.13,1.83,1.11.92-.43,2.87-.34,1.72,1.45-.23.6.69,1.62,1.61,1.36a1.463,1.463,0,0,1,1.84,1.96c-.23.51-.46,1.7,1.26,1.7,1.15,0,1.72.77.92,1.96-.46.77-.69,1.62.92,1.79,1.15.17,2.06,1.36.8,2.13-.69.43-.69,1.45.46,1.7,1.26.34,1.72,1.36.34,1.96-1.49.68-.92,1.11-.11,1.36C73.56,42.11,72.99,42.62,71.61,43.05Z" fill="#f4ab27" fill-rule="evenodd"/><path d="M71.38,43.05c-1.03.34-1.38,1.02-.12,1.36,1.61.34.92,1.62-.23,1.87s-1.15,1.28-.46,1.7c1.15.77.34,1.96-.8,2.13-1.61.17-1.38,1.02-.92,1.79.8,1.19.23,1.96-.92,1.96-1.72,0-1.49,1.11-1.26,1.62a1.462,1.462,0,0,1-1.84,1.96c-.8-.26-1.83.85-1.49,1.36,1.03,1.7-.92,1.87-1.72,1.45-2.52-1.02-2.06.6-1.84,1.11.12.26-.8,2.04-2.06.85-1.26-1.36-2.29.68-2.29.68,1.03.09-1.49,1.87-2.18.94a1.329,1.329,0,0,0-2.41.42,1.692,1.692,0,0,1-2.87.43c-1.61-1.79-1.26.85-2.87.77-1.03.77-.69-2.72-2.87-.77-1.03.85-2.52.77-2.87-.43a1.329,1.329,0,0,0-2.41-.42c-.69.94-3.21-.85-2.3-.94.11,0-.92-2.04-2.3-.68-1.15,1.19-2.06-.6-1.95-.85.23-.51.69-2.13-1.84-1.11-.92.43-2.87.26-1.72-1.45.34-.51-.69-1.62-1.49-1.36a1.442,1.442,0,0,1-1.84-1.96c.23-.51.34-1.62-1.26-1.62-1.26,0-1.72-.77-.92-1.96.34-.77.69-1.62-.92-1.79-1.15-.17-2.06-1.36-.8-2.13.69-.43.69-1.45-.46-1.7-1.26-.26-1.84-1.79-.34-1.87,1.15-.09,1.38-.94,0-1.45-1.15-.6-1.15-1.36-.12-1.53.8-.09,1.03-.94.12-1.28-1.38-.43-.92-1.62.34-1.87,1.15-.34,1.15-1.28.46-1.7-1.26-.77-.34-1.96.8-2.13,1.61-.17,1.26-1.02.92-1.79-.8-1.19-.34-1.96.92-1.96,1.61,0,1.49-1.11,1.26-1.62a1.444,1.444,0,0,1,1.84-1.96c.8.26,1.83-.85,1.49-1.36-1.15-1.79.8-1.87,1.72-1.45,2.52,1.02,2.06-.6,1.84-1.11-.12-.25.8-2.13,1.95-.85,1.38,1.36,2.41-.68,2.3-.68-.92-.6,1.61-2.39,2.3-1.02.46,1.02,2.75.85,2.41-.43-.35-1.19,1.95-1.53,2.41-.43.23.51,1.61,1.62,1.95.17.46-1.79,1.61-.68,2.18,0,.57.85,1.95.51,2.06-.17.12-1.19,2.52-.77,2.87.43a1.3,1.3,0,0,0,2.41.43c.69-.94,3.21.94,2.18,1.02,0,0,1.03,2.04,2.29.68,1.26-1.28,2.18.6,2.06.85-.23.51-.69,2.13,1.84,1.11.8-.43,2.75-.34,1.72,1.45-.34.51.69,1.62,1.49,1.36a1.464,1.464,0,0,1,1.84,1.96c-.23.51-.46,1.62,1.26,1.62,1.15,0,1.72.77.92,1.96-.46.77-.69,1.62.92,1.79,1.15.17,1.95,1.36.8,2.13-.69.43-.69,1.36.46,1.7,1.15.26,1.61,1.36.23,1.87-1.38.68-.8,1.11,0,1.36C73.33,42.11,72.76,42.62,71.38,43.05Z" fill="#f5ad27" fill-rule="evenodd"/><path d="M71.04,43.05c-.92.34-1.26.94,0,1.28,1.49.43.92,1.62-.34,1.96a.905.905,0,0,0-.35,1.7c1.15.68.35,1.87-.8,2.04-1.61.17-1.38,1.02-.92,1.79.69,1.19.23,1.96-.92,1.96-1.61,0-1.49,1.11-1.26,1.62a1.425,1.425,0,0,1-1.84,1.87c-.8-.26-1.84.85-1.49,1.36,1.15,1.7-.8,1.79-1.72,1.45-2.52-1.02-1.95.6-1.84,1.11.12.26-.69,1.96-1.95.85-1.26-1.36-2.29.68-2.18.68.92.09-1.61,1.79-2.3.85a1.377,1.377,0,0,0-2.41.43,1.6,1.6,0,0,1-2.75.43c-1.72-1.7-1.26.85-2.87.77-1.03.77-.69-2.72-2.87-.77-.92.94-2.52.77-2.75-.43a1.383,1.383,0,0,0-2.41-.43c-.69.94-3.21-.77-2.3-.85.12,0-.92-2.04-2.29-.68-1.15,1.11-2.06-.6-1.95-.85.23-.51.69-2.13-1.72-1.11-.92.34-2.87.26-1.83-1.45.34-.51-.57-1.62-1.38-1.36a1.41,1.41,0,0,1-1.84-1.87c.23-.51.34-1.62-1.26-1.62-1.26,0-1.72-.77-.92-1.96.34-.77.69-1.62-.92-1.79-1.15-.17-1.95-1.36-.8-2.04.69-.51.69-1.45-.46-1.7-1.15-.34-1.84-1.79-.23-1.96,1.03-.08,1.26-.85,0-1.45-1.26-.51-1.26-1.28-.11-1.45.69-.09.92-.94.11-1.19-1.49-.51-.92-1.7.23-1.96s1.15-1.28.46-1.7c-1.15-.77-.34-1.87.8-2.04,1.61-.17,1.26-1.02.92-1.79-.8-1.19-.34-1.96.92-1.96,1.61,0,1.49-1.11,1.26-1.62A1.394,1.394,0,0,1,25.6,27.3c.8.25,1.72-.85,1.38-1.36-1.03-1.7.92-1.79,1.83-1.45,2.41,1.02,1.95-.6,1.72-1.11-.11-.26.8-2.13,1.95-.85,1.38,1.36,2.41-.6,2.29-.68-.92-.51,1.61-2.39,2.3-.94.46,1.02,2.64.77,2.41-.43-.35-1.19,1.95-1.62,2.41-.43.12.51,1.49,1.62,1.84.17.46-1.79,1.61-.77,2.18,0a1.23,1.23,0,0,0,2.06-.17c.12-1.19,2.41-.77,2.75.43a1.333,1.333,0,0,0,2.41.43c.69-.94,3.21.85,2.3.94-.12,0,.92,2.04,2.18.68,1.26-1.28,2.07.6,1.95.85-.12.51-.69,2.13,1.84,1.11.92-.34,2.87-.25,1.72,1.45-.35.51.69,1.62,1.49,1.36a1.417,1.417,0,0,1,1.84,1.87c-.23.51-.35,1.62,1.26,1.62,1.15,0,1.61.77.92,1.96-.46.77-.69,1.62.92,1.79,1.15.17,1.95,1.28.8,2.04a.9.9,0,0,0,.35,1.7c1.26.26,1.72,1.36.34,1.96s-.8,1.02,0,1.28C72.99,42.11,72.42,42.62,71.04,43.05Z" fill="#f8af26" fill-rule="evenodd"/><path d="M70.81,43.05c-1.03.26-1.26.94,0,1.28,1.49.34.92,1.62-.34,1.87a.946.946,0,0,0-.46,1.7c1.26.77.46,1.87-.69,2.04-1.61.17-1.38,1.02-.92,1.7.69,1.19.23,1.96-.92,1.96-1.61,0-1.49,1.11-1.26,1.62a1.444,1.444,0,0,1-1.84,1.96c-.8-.34-1.72.77-1.38,1.28,1.03,1.7-.92,1.79-1.72,1.45-2.52-1.02-2.07.6-1.84,1.02.12.34-.8,2.13-1.95.94-1.26-1.45-2.29.6-2.18.6.92.09-1.61,1.79-2.3.85a1.309,1.309,0,0,0-2.3.51,1.72,1.72,0,0,1-2.87.42c-1.61-1.79-1.15.85-2.75.77-1.03.68-.69-2.72-2.87-.77a1.654,1.654,0,0,1-2.75-.42,1.39,1.39,0,0,0-2.41-.51c-.69.94-3.1-.77-2.18-.85.12,0-.92-2.04-2.18-.6-1.26,1.19-2.07-.6-1.95-.94.12-.43.69-2.04-1.84-1.02-.92.34-2.75.25-1.72-1.45.35-.51-.57-1.62-1.49-1.28a1.387,1.387,0,0,1-1.72-1.96c.23-.51.34-1.62-1.26-1.62-1.15,0-1.72-.77-.92-1.96.34-.68.69-1.53-.92-1.7-1.15-.17-1.95-1.28-.8-2.04a.9.9,0,0,0-.34-1.7c-1.26-.26-1.84-1.79-.34-1.87,1.03-.08,1.26-.85,0-1.45-1.15-.51-1.15-1.28-.12-1.36.69-.17.92-1.02.12-1.28-1.38-.42-.92-1.62.34-1.87,1.03-.34,1.03-1.28.34-1.7-1.15-.77-.34-1.87.8-2.04,1.61-.17,1.26-1.02.92-1.79-.8-1.19-.23-1.87.92-1.87,1.61,0,1.49-1.11,1.26-1.62a1.386,1.386,0,0,1,1.72-1.96c.92.34,1.84-.77,1.49-1.28-1.03-1.7.8-1.79,1.72-1.45,2.52,1.02,1.95-.6,1.84-1.02-.12-.34.69-2.13,1.95-.94,1.26,1.45,2.29-.6,2.18-.68-.92-.51,1.49-2.3,2.18-.94.57,1.02,2.75.85,2.41-.43-.35-1.11,1.95-1.53,2.41-.43.23.51,1.49,1.62,1.84.17.57-1.7,1.61-.68,2.18,0,.57.85,1.95.51,1.95-.17.23-1.11,2.52-.68,2.87.43a1.238,1.238,0,0,0,2.3.43c.69-.94,3.21.94,2.3.94-.12,0,.92,2.13,2.18.68,1.15-1.19,2.07.6,1.95.94-.23.43-.69,2.04,1.84,1.02.8-.34,2.75-.26,1.72,1.45-.35.51.57,1.62,1.38,1.28a1.442,1.442,0,0,1,1.84,1.96c-.23.51-.34,1.62,1.26,1.62,1.15,0,1.61.68.92,1.87-.46.77-.69,1.62.92,1.79,1.15.17,1.95,1.28.69,2.04-.57.43-.57,1.36.46,1.7,1.26.26,1.72,1.28.34,1.87-1.49.6-.92,1.02-.11,1.28C72.76,42.11,72.19,42.62,70.81,43.05Z" fill="#f8b125" fill-rule="evenodd"/><path d="M70.58,43.05c-1.03.26-1.38.94,0,1.28s.8,1.62-.35,1.87-1.15,1.19-.46,1.62c1.15.77.34,1.87-.69,2.04-1.61.17-1.38,1.02-.92,1.7.69,1.19.23,1.96-.92,1.96-1.61,0-1.49,1.11-1.26,1.53a1.4,1.4,0,0,1-1.72,1.96c-.8-.25-1.83.77-1.49,1.28,1.03,1.7-.8,1.79-1.72,1.45-2.41-1.02-1.95.6-1.72,1.02.12.34-.8,2.04-1.95.85-1.26-1.36-2.3.68-2.18.68.92.09-1.49,1.79-2.18.85a1.377,1.377,0,0,0-2.41.43,1.589,1.589,0,0,1-2.75.43c-1.61-1.7-1.15.85-2.75.77-1.03.77-.69-2.73-2.75-.77-1.03.85-2.52.77-2.75-.43a1.383,1.383,0,0,0-2.41-.43c-.69.94-3.1-.77-2.18-.85.12,0-.92-2.04-2.18-.68-1.15,1.19-2.06-.51-1.95-.85.23-.43.69-2.04-1.72-1.02-.92.34-2.75.26-1.72-1.45.23-.51-.69-1.53-1.49-1.28a1.386,1.386,0,0,1-1.72-1.96c.23-.43.34-1.53-1.26-1.53-1.15,0-1.61-.77-.92-1.96.46-.68.69-1.53-.92-1.7-1.15-.17-1.84-1.28-.69-2.04.57-.42.57-1.36-.46-1.62-1.15-.26-1.84-1.79-.34-1.87,1.03-.08,1.26-.85,0-1.45-1.15-.51-1.15-1.28-.12-1.36.8-.09,1.03-1.02.12-1.28-1.38-.42-.8-1.62.34-1.87,1.03-.26,1.03-1.19.46-1.62-1.15-.77-.46-1.87.69-2.04,1.61-.17,1.38-1.02.92-1.7-.69-1.19-.23-1.96.92-1.96,1.61,0,1.49-1.11,1.26-1.62a1.348,1.348,0,0,1,1.72-1.87c.8.26,1.72-.77,1.49-1.28-1.03-1.7.8-1.79,1.72-1.45,2.41,1.02,1.95-.6,1.72-1.02-.12-.34.8-2.13,1.95-.85,1.26,1.36,2.3-.68,2.18-.68-.92-.51,1.49-2.3,2.18-.94.46.94,2.64.77,2.41-.43-.34-1.11,1.83-1.53,2.3-.43.23.51,1.49,1.53,1.95.17.46-1.79,1.49-.68,1.95,0,.69.85,2.07.51,2.07-.17.11-1.11,2.41-.77,2.75.43a1.333,1.333,0,0,0,2.41.43c.69-.94,3.1.85,2.18.94-.12,0,.92,2.04,2.18.68,1.15-1.28,2.06.51,1.95.85-.23.43-.69,2.04,1.72,1.02.92-.34,2.75-.26,1.72,1.45-.34.51.69,1.53,1.49,1.28A1.366,1.366,0,0,1,66,29.43c-.23.51-.34,1.62,1.26,1.62,1.15,0,1.61.77.92,1.96-.46.68-.69,1.53.92,1.7,1.03.17,1.84,1.28.69,2.04-.69.42-.69,1.36.46,1.62s1.61,1.36.35,1.87c-1.49.6-.92,1.02-.12,1.28C72.42,42.11,71.84,42.62,70.58,43.05Z" fill="#fcb623" fill-rule="evenodd"/><path d="M70.35,43.05c-1.03.26-1.38.94-.12,1.28,1.49.34.92,1.53-.23,1.79-1.15.34-1.15,1.28-.46,1.7,1.15.68.34,1.79-.69,1.96-1.61.17-1.38,1.02-.92,1.7.69,1.19.23,1.87-.92,1.87-1.61,0-1.49,1.11-1.26,1.62a1.365,1.365,0,0,1-1.72,1.87c-.8-.26-1.72.77-1.38,1.28,1.03,1.7-.92,1.79-1.72,1.45-2.41-1.02-1.95.6-1.83,1.02.11.26-.69,2.04-1.84.85-1.26-1.36-2.3.68-2.18.68.92,0-1.49,1.7-2.18.85a1.279,1.279,0,0,0-2.3.34,1.6,1.6,0,0,1-2.75.43c-1.61-1.7-1.15.85-2.75.77-1.03.77-.69-2.64-2.75-.77a1.583,1.583,0,0,1-2.75-.43,1.278,1.278,0,0,0-2.3-.34c-.69.85-3.1-.85-2.18-.85.12,0-.92-2.04-2.18-.68-1.15,1.19-2.06-.6-1.95-.85.23-.43.69-2.04-1.72-1.02-.92.34-2.75.26-1.72-1.45.34-.51-.57-1.53-1.38-1.28a1.35,1.35,0,0,1-1.72-1.87c.11-.51.34-1.62-1.26-1.62-1.15,0-1.61-.68-.92-1.87.46-.68.69-1.53-.92-1.7-1.03-.17-1.84-1.28-.69-1.96.69-.42.69-1.36-.46-1.7-1.15-.26-1.84-1.7-.23-1.79.92-.08,1.15-.85,0-1.45-1.26-.51-1.26-1.28-.11-1.36a.647.647,0,0,0,.11-1.28c-1.49-.42-.92-1.53.23-1.79,1.15-.34,1.15-1.28.46-1.7-1.15-.68-.34-1.79.69-1.96,1.61-.17,1.38-1.02.92-1.7-.69-1.19-.23-1.96.92-1.96,1.61,0,1.38-1.02,1.26-1.53a1.348,1.348,0,0,1,1.72-1.87c.8.26,1.72-.77,1.38-1.28-1.03-1.7.8-1.79,1.72-1.45,2.41,1.02,1.95-.6,1.72-1.02-.12-.26.8-2.04,1.95-.85,1.26,1.36,2.3-.6,2.18-.68-.92-.51,1.49-2.3,2.18-.85.46.94,2.64.68,2.3-.43-.23-1.19,1.95-1.53,2.41-.43.11.43,1.38,1.53,1.83.09.46-1.7,1.49-.68,1.95.09.69.77,1.95.43,2.07-.17.11-1.19,2.41-.77,2.75.43a1.29,1.29,0,0,0,2.3.43c.69-.94,3.1.85,2.18.85-.12,0,.92,2.04,2.18.68,1.15-1.19,1.95.6,1.84.85-.12.43-.57,2.04,1.83,1.02.8-.34,2.75-.26,1.72,1.45-.34.51.57,1.53,1.38,1.28a1.368,1.368,0,0,1,1.72,1.87c-.23.51-.34,1.53,1.26,1.53,1.15,0,1.61.77.92,1.96-.46.68-.69,1.53.92,1.7,1.03.17,1.84,1.28.69,1.96-.69.42-.69,1.36.46,1.7,1.15.26,1.61,1.28.23,1.79-1.38.6-.8,1.11,0,1.28C72.19,42.11,71.61,42.62,70.35,43.05Z" fill="#fcb827" fill-rule="evenodd"/><path d="M29.97,26.18c.92.43,1.95,1.87,3.33,2.56a5.391,5.391,0,0,0,2.41.85c1.95,0,6.08-2.64,7.69-3.49-1.15,1.19-3.44,3.66-3.44,5.02,0,1.45,2.41,3.83,3.56,4.94-1.61-.77-5.05-2.81-6.88-2.81-1.95,0-5.51,2.13-7.11,2.9.8-.68,2.98-2.04,3.79-3.24a2.625,2.625,0,0,0,.57-1.87C33.87,29.59,31.11,27.38,29.97,26.18Z" fill="#fcb827" fill-rule="evenodd"/><path d="M31,26.86c.8.43,1.61,1.62,2.87,2.21a3.749,3.749,0,0,0,2.07.77c1.72,0,5.16-2.22,6.54-2.9-.92.94-2.87,3.07-2.87,4.26,0,1.28,2.06,3.32,2.98,4.26-1.38-.68-4.36-2.39-5.97-2.39s-4.7,1.79-6.08,2.47c.57-.6,2.52-1.79,3.21-2.9a2.22,2.22,0,0,0,.46-1.53C34.21,29.85,31.92,27.89,31,26.86Z" fill="#f8b227" fill-rule="evenodd"/><path d="M31.92,27.63c.69.34,1.38,1.28,2.41,1.79a3.55,3.55,0,0,0,1.83.68c1.38,0,4.24-1.87,5.39-2.47-.8.85-2.41,2.64-2.41,3.66s1.72,2.73,2.52,3.49c-1.26-.51-3.67-1.96-5.05-1.96s-4.01,1.53-5.05,2.04a23.548,23.548,0,0,0,2.64-2.39,4.428,4.428,0,0,0,.46-1.36C34.67,30.1,32.72,28.48,31.92,27.63Z" fill="#f5ae29" fill-rule="evenodd"/><path d="M32.84,28.31c.57.26,1.26,1.02,2.06,1.45a2.591,2.591,0,0,0,1.38.51c1.15,0,3.56-1.45,4.47-1.87a8.165,8.165,0,0,0-2.06,2.89c0,.85,1.38,2.22,1.95,2.9-.92-.43-2.87-1.62-4.01-1.62s-3.21,1.19-4.13,1.62a28.637,28.637,0,0,0,2.18-1.96,5.069,5.069,0,0,0,.34-1.11C35.02,30.27,33.41,28.99,32.84,28.31Z" fill="#efa72c" fill-rule="evenodd"/><path d="M33.87,28.99a16.848,16.848,0,0,0,1.49,1.11,3.181,3.181,0,0,0,1.15.43c.8,0,2.64-1.11,3.33-1.45-.46.6-1.49,1.62-1.49,2.3-.12.6.92,1.62,1.38,2.13a9.263,9.263,0,0,0-3.1-1.19c-.8,0-2.41.94-3.1,1.19.23-.34,1.15-.94,1.49-1.53a3.558,3.558,0,0,0,.34-.85C35.36,30.44,34.21,29.5,33.87,28.99Z" fill="#eda12f" fill-rule="evenodd"/><path d="M34.79,29.68c.35.09.57.51,1.03.77a5.314,5.314,0,0,0,.8.25,9.923,9.923,0,0,0,2.29-.85c-.34.34-1.03,1.11-1.03,1.53-.11.43.57,1.11.92,1.45a11.142,11.142,0,0,0-2.18-.77,9.082,9.082,0,0,0-2.18.77c.11-.26.8-.68,1.03-1.02a4.458,4.458,0,0,1,.23-.68C35.7,30.7,35.02,30.02,34.79,29.68Z" fill="#e89932" fill-rule="evenodd"/><path d="M35.7,30.36c.23,0,.35.26.57.34a1.668,1.668,0,0,0,.46.17c.34.09,1.03-.26,1.26-.34-.23.26-.57.68-.57.94a2.2,2.2,0,0,0,.35.77,2.532,2.532,0,0,0-1.15-.43,7.364,7.364,0,0,0-1.26.34,3.472,3.472,0,0,0,.46-.6c.12-.17.12-.34.23-.43A1.664,1.664,0,0,0,35.7,30.36Z" fill="#de8b34" fill-rule="evenodd"/><path d="M36.62,31.55c.23,0,.46-.09.46-.26s-.23-.25-.46-.25-.34.09-.34.25S36.39,31.55,36.62,31.55Z" fill="#c96c38" fill-rule="evenodd"/><path d="M47.18,26.18c.92.43,1.95,1.87,3.33,2.56a5.351,5.351,0,0,0,2.52.85c1.84,0,5.97-2.64,7.57-3.49-1.15,1.19-3.33,3.66-3.33,5.02,0,1.45,2.41,3.83,3.44,4.94-1.61-.77-4.93-2.81-6.88-2.81s-5.51,2.13-7,2.9c.69-.68,2.87-2.04,3.79-3.24a3.087,3.087,0,0,0,.46-1.87C51.08,29.59,48.32,27.38,47.18,26.18Z" fill="#fcb827" fill-rule="evenodd"/><path d="M48.21,26.86c.8.43,1.72,1.62,2.87,2.21a4.094,4.094,0,0,0,2.06.77c1.72,0,5.28-2.22,6.65-2.9-1.03.94-2.98,3.07-2.98,4.26,0,1.28,2.07,3.32,2.98,4.26-1.38-.68-4.24-2.39-5.96-2.39-1.61,0-4.71,1.79-6.08,2.47a21.2,21.2,0,0,0,3.33-2.9,3.111,3.111,0,0,0,.46-1.53C51.54,29.85,49.13,27.89,48.21,26.86Z" fill="#f8b227" fill-rule="evenodd"/><path d="M49.13,27.63c.69.34,1.49,1.28,2.41,1.79a3.919,3.919,0,0,0,1.83.68c1.38,0,4.36-1.87,5.51-2.47-.8.85-2.41,2.64-2.41,3.66-.11,1.02,1.61,2.73,2.41,3.49-1.15-.51-3.56-1.96-4.93-1.96-1.49,0-4.02,1.53-5.16,2.04a23.548,23.548,0,0,0,2.64-2.39,2.569,2.569,0,0,0,.46-1.36C51.88,30.1,49.93,28.48,49.13,27.63Z" fill="#f5ae29" fill-rule="evenodd"/><path d="M50.16,28.31c.46.26,1.15,1.02,1.95,1.45a2.591,2.591,0,0,0,1.38.51c1.15,0,3.56-1.45,4.48-1.87-.69.68-1.95,2.13-1.95,2.89,0,.85,1.26,2.22,1.95,2.9-1.03-.43-2.98-1.62-4.02-1.62-1.15,0-3.33,1.19-4.24,1.62a11.34,11.34,0,0,0,2.18-1.96,2.335,2.335,0,0,0,.34-1.11C52.22,30.27,50.73,28.99,50.16,28.31Z" fill="#efa72c" fill-rule="evenodd"/><path d="M51.08,28.99c.46.17.92.77,1.49,1.11a4.145,4.145,0,0,0,1.15.43c.92,0,2.64-1.11,3.33-1.45-.46.6-1.49,1.62-1.49,2.3,0,.6.92,1.62,1.38,2.13a9.693,9.693,0,0,0-2.98-1.19c-.92,0-2.52.94-3.21,1.19.23-.34,1.15-.94,1.61-1.53a3.112,3.112,0,0,0,.23-.85C52.57,30.44,51.54,29.5,51.08,28.99Z" fill="#eda12f" fill-rule="evenodd"/><path d="M51.99,29.68c.34.09.69.51,1.03.77a5.314,5.314,0,0,0,.8.25,8.333,8.333,0,0,0,2.29-.85c-.35.34-1.03,1.11-1.03,1.53s.57,1.11.92,1.45a8.188,8.188,0,0,0-2.06-.77,10.033,10.033,0,0,0-2.3.77,12.322,12.322,0,0,0,1.03-1.02,2.007,2.007,0,0,0,.23-.68C53.03,30.7,52.22,30.02,51.99,29.68Z" fill="#e89932" fill-rule="evenodd"/><path d="M52.91,30.36c.23,0,.46.26.69.34a.963.963,0,0,0,.46.17c.34.09.92-.26,1.15-.34-.12.26-.46.68-.57.94a1.383,1.383,0,0,0,.46.77,4.145,4.145,0,0,0-1.15-.43,4.11,4.11,0,0,0-1.26.34c0-.17.23-.34.46-.6,0-.17.11-.34.11-.43C53.37,30.87,53.03,30.53,52.91,30.36Z" fill="#de8b34" fill-rule="evenodd"/><path d="M53.94,31.55c.23,0,.34-.09.34-.26s-.12-.25-.34-.25-.46.09-.46.25S53.72,31.55,53.94,31.55Z" fill="#c96c38" fill-rule="evenodd"/><path d="M23.66,37.94c.92.51,1.95,1.87,3.33,2.55a4.71,4.71,0,0,0,2.41.94c1.95,0,6.08-2.72,7.68-3.49-1.15,1.19-3.33,3.58-3.33,5.02,0,1.36,2.41,3.75,3.44,4.85-1.61-.77-5.05-2.73-6.88-2.73-1.95,0-5.51,2.04-7.11,2.9.8-.77,2.98-2.13,3.9-3.32a2.865,2.865,0,0,0,.46-1.79C27.56,41.43,24.81,39.13,23.66,37.94Z" fill="#fcb827" fill-rule="evenodd"/><path d="M24.69,38.7c.8.43,1.72,1.53,2.87,2.21a4.5,4.5,0,0,0,2.06.77c1.72,0,5.16-2.3,6.54-2.98-.92,1.02-2.87,3.07-2.87,4.34,0,1.19,2.06,3.24,2.98,4.17-1.38-.6-4.24-2.38-5.97-2.38-1.61,0-4.7,1.79-6.08,2.47a19.211,19.211,0,0,0,3.21-2.81A3.592,3.592,0,0,0,28,42.87C28.02,41.68,25.61,39.72,24.69,38.7Z" fill="#f8b227" fill-rule="evenodd"/><path d="M25.61,39.38c.69.34,1.49,1.36,2.41,1.87a4.872,4.872,0,0,0,1.84.6c1.38,0,4.36-1.87,5.51-2.39-.8.85-2.41,2.55-2.52,3.58,0,1.02,1.72,2.72,2.52,3.58-1.26-.6-3.67-2.04-5.05-2.04s-3.9,1.53-5.05,2.04c.46-.51,2.06-1.45,2.64-2.38a2.375,2.375,0,0,0,.46-1.36C28.36,41.85,26.41,40.23,25.61,39.38Z" fill="#f5ae29" fill-rule="evenodd"/><path d="M26.53,40.06c.57.26,1.26,1.11,2.06,1.45a4.066,4.066,0,0,0,1.38.6c1.15,0,3.56-1.53,4.48-1.96-.69.68-1.95,2.13-1.95,2.98-.12.77,1.26,2.13,1.95,2.81-1.03-.42-2.98-1.62-4.13-1.62-1.03,0-3.21,1.28-4.13,1.62a15.277,15.277,0,0,0,2.18-1.96,2.335,2.335,0,0,0,.34-1.11C28.71,42.02,27.21,40.75,26.53,40.06Z" fill="#efa72c" fill-rule="evenodd"/><path d="M27.56,40.75c.34.17.92.77,1.49,1.11a2.456,2.456,0,0,0,1.15.43c.8,0,2.64-1.11,3.33-1.36-.46.51-1.49,1.62-1.49,2.21-.11.68.92,1.7,1.38,2.13-.69-.26-2.18-1.19-2.98-1.19a10,10,0,0,0-3.21,1.28c.23-.34,1.15-1.02,1.49-1.53a3.876,3.876,0,0,0,.34-.94C29.05,42.28,27.9,41.26,27.56,40.75Z" fill="#eda12f" fill-rule="evenodd"/><path d="M28.48,41.43a7.653,7.653,0,0,1,1.03.77,1.836,1.836,0,0,0,.8.26c.57.09,1.84-.68,2.3-.85-.35.42-1.03,1.19-1.03,1.62s.57,1.11.92,1.45a6.659,6.659,0,0,0-2.06-.77,6.186,6.186,0,0,0-2.3.77c.12-.26.8-.68,1.03-1.11.12-.26.12-.51.23-.68C29.4,42.45,28.71,41.77,28.48,41.43Z" fill="#e89932" fill-rule="evenodd"/><path d="M29.4,42.11a3.253,3.253,0,0,1,.69.43,2.719,2.719,0,0,0,.46.17c.35,0,.92-.34,1.15-.34-.12.17-.57.6-.57.85a1.748,1.748,0,0,0,.34.77,5.013,5.013,0,0,0-1.03-.43,3.694,3.694,0,0,0-1.26.43c0-.17.23-.43.34-.68.11-.17.11-.34.23-.43A1.881,1.881,0,0,0,29.4,42.11Z" fill="#de8b34" fill-rule="evenodd"/><path d="M30.31,43.3c.23,0,.46-.09.46-.26s-.23-.26-.46-.26c-.11,0-.34.09-.34.26S30.2,43.3,30.31,43.3Z" fill="#c96c38" fill-rule="evenodd"/><path d="M52.45,37.77c.92.43,1.95,1.87,3.33,2.56a4.986,4.986,0,0,0,2.41.85c1.95,0,5.97-2.64,7.57-3.49-1.03,1.19-3.33,3.66-3.33,5.02,0,1.45,2.41,3.83,3.56,4.94-1.72-.77-5.05-2.81-7-2.81-1.83,0-5.51,2.13-7,2.89.69-.68,2.87-2.04,3.78-3.24a3.317,3.317,0,0,0,.58-1.87C56.35,41.17,53.49,38.96,52.45,37.77Z" fill="#fcb827" fill-rule="evenodd"/><path d="M53.37,38.45c.8.43,1.72,1.62,2.87,2.21a4.416,4.416,0,0,0,2.18.77c1.61,0,5.16-2.21,6.54-2.89-.92.94-2.87,3.07-2.87,4.26,0,1.28,1.95,3.32,2.98,4.26-1.49-.68-4.36-2.38-5.96-2.38-1.72,0-4.82,1.79-6.08,2.47a28.387,28.387,0,0,0,3.21-2.89,2.22,2.22,0,0,0,.46-1.53C56.7,41.43,54.29,39.47,53.37,38.45Z" fill="#f8b227" fill-rule="evenodd"/><path d="M54.4,39.21A21.525,21.525,0,0,0,56.81,41a3.319,3.319,0,0,0,1.72.68c1.49,0,4.36-1.87,5.51-2.47-.8.85-2.41,2.64-2.41,3.66s1.72,2.72,2.52,3.49c-1.26-.51-3.67-1.96-5.05-1.96s-4.02,1.53-5.16,2.04a24.622,24.622,0,0,0,2.75-2.38,2.234,2.234,0,0,0,.35-1.36C57.04,41.68,55.09,40.06,54.4,39.21Z" fill="#f5ae29" fill-rule="evenodd"/><path d="M55.32,39.89c.57.26,1.15,1.02,1.95,1.45a2.915,2.915,0,0,0,1.49.51c1.15,0,3.44-1.45,4.36-1.87-.58.68-1.95,2.13-1.95,2.9,0,.85,1.38,2.21,1.95,2.89-.92-.43-2.87-1.62-4.02-1.62s-3.21,1.19-4.13,1.62c.35-.43,1.61-1.19,2.07-1.96a1.54,1.54,0,0,0,.34-1.11C57.5,41.85,55.89,40.58,55.32,39.89Z" fill="#efa72c" fill-rule="evenodd"/><path d="M56.24,40.58c.46.17.92.77,1.49,1.11a4.492,4.492,0,0,0,1.15.43c.92,0,2.64-1.11,3.33-1.45a7.478,7.478,0,0,0-1.49,2.3c0,.6,1.03,1.62,1.49,2.13a11.63,11.63,0,0,0-3.1-1.19c-.92,0-2.52.94-3.21,1.19a9.077,9.077,0,0,0,1.61-1.53,1.32,1.32,0,0,0,.23-.85C57.85,42.02,56.7,41.09,56.24,40.58Z" fill="#eda12f" fill-rule="evenodd"/><path d="M57.27,41.26c.23.08.57.51,1.03.77.35.09.46.26.8.26a9.237,9.237,0,0,0,2.18-.85,7.89,7.89,0,0,0-1.03,1.53c0,.43.69,1.11.92,1.45a8.188,8.188,0,0,0-2.06-.77,9.082,9.082,0,0,0-2.18.77c.12-.26.69-.68.92-1.02a.921.921,0,0,0,.23-.68C58.19,42.28,57.5,41.6,57.27,41.26Z" fill="#e89932" fill-rule="evenodd"/><path d="M58.19,41.94c.11,0,.34.26.57.34a1.668,1.668,0,0,0,.46.17c.35.09,1.03-.26,1.26-.34a5.119,5.119,0,0,0-.69.94c0,.17.34.6.46.77a3.115,3.115,0,0,0-1.15-.43,7.364,7.364,0,0,0-1.26.34c0-.17.34-.34.46-.6a.7.7,0,0,0,.12-.43C58.53,42.45,58.19,42.11,58.19,41.94Z" fill="#de8b34" fill-rule="evenodd"/><path d="M59.11,43.13c.23,0,.46-.09.46-.26s-.23-.26-.46-.26-.46.09-.46.26S58.88,43.13,59.11,43.13Z" fill="#c96c38" fill-rule="evenodd"/><path d="M30.54,48.92c.92.51,1.95,1.87,3.33,2.55a5.213,5.213,0,0,0,2.41.94c1.95,0,5.97-2.73,7.57-3.49-1.03,1.11-3.33,3.58-3.33,4.94,0,1.45,2.41,3.83,3.56,4.94-1.72-.77-5.05-2.81-7-2.81-1.83,0-5.51,2.13-7,2.89.69-.68,2.87-2.04,3.78-3.24a3.317,3.317,0,0,0,.58-1.87C34.44,52.41,31.57,50.11,30.54,48.92Z" fill="#fcb827" fill-rule="evenodd"/><path d="M31.46,49.69c.8.34,1.72,1.53,2.87,2.21a5.082,5.082,0,0,0,2.18.68c1.61.09,5.16-2.21,6.54-2.89-.92,1.02-2.87,3.07-2.87,4.26,0,1.28,2.06,3.32,2.98,4.26-1.49-.68-4.36-2.39-5.96-2.39s-4.82,1.79-6.08,2.47c.57-.6,2.52-1.79,3.21-2.81a2.424,2.424,0,0,0,.46-1.62C34.79,52.67,32.49,50.71,31.46,49.69Z" fill="#f8b227" fill-rule="evenodd"/><path d="M32.49,50.37c.69.34,1.38,1.28,2.41,1.87a3.949,3.949,0,0,0,1.72.6c1.49,0,4.36-1.87,5.51-2.47-.8.94-2.41,2.64-2.41,3.66s1.72,2.73,2.52,3.58c-1.26-.6-3.67-2.04-5.05-2.04s-4.02,1.53-5.16,2.04a18.384,18.384,0,0,0,2.75-2.38,2.119,2.119,0,0,0,.35-1.36C35.25,52.84,33.18,51.22,32.49,50.37Z" fill="#f5ae29" fill-rule="evenodd"/><path d="M33.41,51.05c.57.26,1.15,1.02,1.95,1.45a2.915,2.915,0,0,0,1.49.51c1.15.08,3.44-1.45,4.36-1.87-.57.68-1.95,2.13-1.95,2.98,0,.77,1.38,2.13,1.95,2.81-.92-.43-2.87-1.62-4.01-1.62s-3.21,1.19-4.13,1.62c.35-.43,1.61-1.19,2.07-1.96a1.54,1.54,0,0,0,.34-1.11C35.59,53.01,33.98,51.73,33.41,51.05Z" fill="#efa72c" fill-rule="evenodd"/><path d="M34.33,51.73c.46.17.92.77,1.61,1.11a2.139,2.139,0,0,0,1.03.43c.92,0,2.64-1.11,3.33-1.36a7.124,7.124,0,0,0-1.49,2.21c0,.6,1.03,1.62,1.49,2.13a10.265,10.265,0,0,0-3.1-1.19c-.92,0-2.52.94-3.21,1.19A12.393,12.393,0,0,0,35.6,54.8a4.444,4.444,0,0,0,.35-.94C35.93,53.26,34.79,52.24,34.33,51.73Z" fill="#eda12f" fill-rule="evenodd"/><path d="M35.36,52.41c.23.08.57.51,1.03.77a1.917,1.917,0,0,0,.8.26c.57.09,1.83-.68,2.3-.85a5.666,5.666,0,0,0-1.15,1.62c0,.43.69,1.11.92,1.45a5.917,5.917,0,0,0-2.06-.85,9.082,9.082,0,0,0-2.18.77c.12-.17.69-.68,1.03-1.02a4.872,4.872,0,0,1,.23-.68C36.28,53.44,35.59,52.75,35.36,52.41Z" fill="#e89932" fill-rule="evenodd"/><path d="M36.28,53.09a2.084,2.084,0,0,0,.57.34,1.668,1.668,0,0,0,.46.17c.35.08,1.03-.26,1.26-.26a1.58,1.58,0,0,0-.57.86c-.12.26.23.6.34.77a4.307,4.307,0,0,0-1.15-.43c-.34,0-.92.34-1.26.34a1.829,1.829,0,0,0,.46-.6c.12-.17.12-.34.23-.43C36.62,53.61,36.28,53.26,36.28,53.09Z" fill="#de8b34" fill-rule="evenodd"/><path d="M37.2,54.29c.23,0,.46-.09.46-.26s-.23-.26-.46-.26-.34.08-.34.26S36.97,54.29,37.2,54.29Z" fill="#c96c38" fill-rule="evenodd"/><path d="M48.32,49.35c.92.43,1.95,1.87,3.33,2.56a4.986,4.986,0,0,0,2.41.85c1.95,0,6.08-2.64,7.68-3.49-1.15,1.19-3.44,3.66-3.44,5.02,0,1.45,2.41,3.83,3.56,4.94-1.72-.77-5.05-2.81-6.88-2.81-1.95,0-5.62,2.13-7.11,2.9.69-.68,2.98-2.04,3.78-3.24a2.625,2.625,0,0,0,.57-1.87C52.22,52.75,49.47,50.54,48.32,49.35Z" fill="#fcb827" fill-rule="evenodd"/><path d="M49.24,50.03c.8.43,1.72,1.62,2.98,2.21a3.747,3.747,0,0,0,2.06.77c1.72,0,5.16-2.22,6.54-2.9-.92.94-2.87,3.07-2.87,4.26,0,1.28,2.06,3.32,2.98,4.26-1.38-.68-4.36-2.39-5.97-2.39s-4.7,1.79-6.08,2.47c.57-.6,2.52-1.79,3.21-2.9a2.22,2.22,0,0,0,.46-1.53C52.57,53.01,50.27,51.05,49.24,50.03Z" fill="#f8b227" fill-rule="evenodd"/><path d="M50.27,50.79c.69.34,1.38,1.28,2.41,1.79a3.246,3.246,0,0,0,1.84.68c1.38,0,4.24-1.87,5.39-2.47-.8.85-2.41,2.64-2.41,3.66s1.72,2.72,2.52,3.49c-1.26-.51-3.67-1.96-5.05-1.96s-4.01,1.53-5.05,2.04c.46-.51,1.95-1.53,2.64-2.39a2.234,2.234,0,0,0,.35-1.36C53.03,53.26,51.08,51.65,50.27,50.79Z" fill="#f5ae29" fill-rule="evenodd"/><path d="M51.19,51.48c.57.26,1.15,1.02,1.95,1.45a3.312,3.312,0,0,0,1.49.51c1.15,0,3.44-1.45,4.36-1.87-.57.68-1.83,2.13-1.95,2.9,0,.85,1.38,2.21,1.95,2.9-.92-.43-2.87-1.62-4.02-1.62s-3.21,1.19-4.13,1.62c.35-.43,1.61-1.19,2.07-1.96a2.852,2.852,0,0,0,.46-1.11C53.37,53.44,51.76,52.16,51.19,51.48Z" fill="#efa72c" fill-rule="evenodd"/><path d="M52.11,52.16c.46.17.92.77,1.61,1.11a3.722,3.722,0,0,0,1.03.43c.92,0,2.75-1.11,3.44-1.45a6.4,6.4,0,0,0-1.61,2.3c0,.6,1.03,1.62,1.49,2.13a10.265,10.265,0,0,0-3.1-1.19c-.8,0-2.41.94-3.21,1.19a9.077,9.077,0,0,0,1.61-1.53,4.145,4.145,0,0,0,.35-.85C53.72,53.61,52.57,52.67,52.11,52.16Z" fill="#eda12f" fill-rule="evenodd"/><path d="M53.14,52.84c.23.09.57.51,1.03.77a5.692,5.692,0,0,0,.8.25,10.178,10.178,0,0,0,2.3-.85c-.34.34-1.03,1.11-1.03,1.53-.12.43.57,1.11.92,1.45a11.142,11.142,0,0,0-2.18-.77,9.082,9.082,0,0,0-2.18.77,7.083,7.083,0,0,1,1.03-1.02,4.458,4.458,0,0,1,.23-.68C54.06,53.86,53.37,53.18,53.14,52.84Z" fill="#e89932" fill-rule="evenodd"/><path d="M54.06,53.52c.23,0,.34.26.57.34a1.668,1.668,0,0,0,.46.17c.35.09,1.03-.26,1.26-.34-.23.26-.58.68-.58.94-.11.17.23.6.35.77a2.532,2.532,0,0,0-1.15-.43,7.364,7.364,0,0,0-1.26.34,3.472,3.472,0,0,0,.46-.6c.12-.17.12-.34.23-.43A1.76,1.76,0,0,0,54.06,53.52Z" fill="#de8b34" fill-rule="evenodd"/><path d="M54.98,54.71c.23,0,.46-.09.46-.26s-.23-.26-.46-.26-.34.09-.34.26S54.75,54.71,54.98,54.71Z" fill="#c96c38" fill-rule="evenodd"/><path d="M38.69,37.51c.92.51,1.95,1.87,3.33,2.64a5.351,5.351,0,0,0,2.52.85c1.83,0,5.96-2.64,7.57-3.49-1.15,1.19-3.33,3.58-3.33,5.02s2.41,3.75,3.56,4.94c-1.72-.77-5.05-2.81-7-2.81s-5.51,2.13-7,2.9c.69-.77,2.87-2.04,3.79-3.32a2.865,2.865,0,0,0,.46-1.79C42.59,41,39.83,38.7,38.69,37.51Z" fill="#fcb827" fill-rule="evenodd"/><path d="M39.72,38.28c.8.43,1.72,1.62,2.87,2.22a5.037,5.037,0,0,0,2.06.77c1.72,0,5.28-2.3,6.66-2.98-1.03,1.02-2.98,3.15-2.98,4.34s2.07,3.24,3.1,4.26c-1.49-.68-4.36-2.47-5.97-2.47-1.72,0-4.82,1.87-6.08,2.47.57-.6,2.41-1.7,3.21-2.81a3.163,3.163,0,0,0,.46-1.62C43.05,41.26,40.64,39.3,39.72,38.28Z" fill="#f8b227" fill-rule="evenodd"/><path d="M40.64,38.96c.69.34,1.49,1.36,2.41,1.87a4.887,4.887,0,0,0,1.83.6c1.38.09,4.36-1.87,5.51-2.38-.8.85-2.41,2.56-2.41,3.66-.11,1.02,1.61,2.64,2.41,3.49-1.15-.51-3.56-1.96-4.93-1.96-1.49,0-4.02,1.45-5.16,2.04.46-.6,2.06-1.53,2.64-2.47a2.375,2.375,0,0,0,.46-1.36C43.39,41.43,41.44,39.81,40.64,38.96Z" fill="#f5ae29" fill-rule="evenodd"/><path d="M41.67,39.64a24.1,24.1,0,0,0,1.95,1.53,3.4,3.4,0,0,0,1.49.51c1.03,0,3.44-1.45,4.36-1.96-.69.77-1.95,2.13-1.95,2.98s1.26,2.21,1.95,2.81c-1.03-.43-2.98-1.53-4.02-1.53-1.15,0-3.33,1.19-4.13,1.62a25.5,25.5,0,0,0,2.06-1.96,2.642,2.642,0,0,0,.35-1.19C43.74,41.68,42.24,40.32,41.67,39.64Z" fill="#efa72c" fill-rule="evenodd"/><path d="M42.59,40.32a17.5,17.5,0,0,0,1.49,1.11,2.456,2.456,0,0,0,1.15.43c.92.08,2.64-1.02,3.33-1.36-.46.51-1.49,1.62-1.49,2.21,0,.68.92,1.7,1.38,2.21a9.693,9.693,0,0,0-2.98-1.19,9.868,9.868,0,0,0-3.21,1.19c.23-.34,1.15-.94,1.61-1.53a3.548,3.548,0,0,0,.23-.94C44.08,41.85,43.05,40.83,42.59,40.32Z" fill="#eda12f" fill-rule="evenodd"/><path d="M43.51,41a9.548,9.548,0,0,0,1.15.77,2.759,2.759,0,0,0,.69.34,8.333,8.333,0,0,0,2.29-.85c-.34.34-1.03,1.11-1.03,1.53s.69,1.11.92,1.45a5.769,5.769,0,0,0-2.06-.77,10.033,10.033,0,0,0-2.3.77,6.607,6.607,0,0,0,1.03-1.11,1.572,1.572,0,0,0,.23-.68C44.54,42.02,43.74,41.34,43.51,41Z" fill="#e89932" fill-rule="evenodd"/><path d="M44.42,41.68a2.893,2.893,0,0,1,.69.43.963.963,0,0,0,.46.17,4.451,4.451,0,0,0,1.15-.34c-.12.26-.46.6-.57.85,0,.26.34.6.46.77a5.394,5.394,0,0,0-1.15-.34,5.368,5.368,0,0,0-1.26.34c0-.17.35-.43.46-.68,0-.17.12-.26.12-.43C44.88,42.19,44.54,41.85,44.42,41.68Z" fill="#de8b34" fill-rule="evenodd"/><path d="M45.45,42.96a.325.325,0,0,0,.34-.34.329.329,0,0,0-.34-.25c-.23,0-.46.17-.46.25A.463.463,0,0,0,45.45,42.96Z" fill="#c96c38" fill-rule="evenodd"/><ellipse cx="21.8" cy="18.78" rx="21.8" ry="18.78" transform="translate(24.16 24.21)" fill="#fcb827" opacity="0.53"/><ellipse cx="7.29" cy="6" rx="7.29" ry="6" transform="translate(21.7 44.92)" fill="#fff"/><ellipse cx="7.29" cy="6" rx="7.29" ry="6" transform="translate(40.46 42.48)" fill="#fff"/><path d="M16.13,33.94a17.264,17.264,0,0,0-1.63,4.77,5.752,5.752,0,0,0,.97,4.22,9.659,9.659,0,0,0,7.07,4.12c.48.05.48-.7,0-.75a8.818,8.818,0,0,1-6.42-3.75,5.106,5.106,0,0,1-.81-4.1,18.077,18.077,0,0,1,1.47-4.14c.21-.43-.44-.81-.65-.37Z"/><path d="M20.67,47.51c11.04,1.12,22.55.33,32.62-4.7a39.294,39.294,0,0,0,7.2-4.64c-.11.05-.22.09-.33.14h.1a.47.47,0,0,0,0-.94c-.51,0-.95.56-1.33.85-.5.38-1.02.75-1.54,1.11-1.05.71-2.13,1.37-3.25,1.98a42.372,42.372,0,0,1-7.09,3.06,55.265,55.265,0,0,1-16.44,2.64,82.147,82.147,0,0,1-9.92-.45c-.62-.05-.62.89-.02.95Z"/><path d="M40.54,93.83c.37-.98,4.4-.68,5.81-.55,2.17.21,8.71-.53,8.01-.03.07.48-3.03,1.92-3.72,2.25a7.032,7.032,0,0,1-2.24.64,23.834,23.834,0,0,1-4.37.21c-1.32-.27-3.41-1.78-3.26-2.47" fill="#231f20" stroke="#231f20" stroke-linecap="round" stroke-width="0.478"/><path d="M45.74,95.35a2.055,2.055,0,0,0-.37-1.4,25.94,25.94,0,0,0,4.15.47,15.862,15.862,0,0,0,5.04-1.27,4.361,4.361,0,0,0-.95,3.44c.09,1.2-.17,1.49.86,2.5a4.766,4.766,0,0,1,1.67,2.68,7.35,7.35,0,0,1-.48,2.51c-.13.62.05,1.43-.37,2.01-.38.53-1.04.53-2.3.56a21.6,21.6,0,0,0-5.31.86c-2.93.76-7.01.61-10.39.48-1.11-.04-2.2-.02-3.27-.15a34.546,34.546,0,0,1-3.63-.8c-1.21-.31-.34-2.01-.21-2.69.29-1.53,2.71-2.26,5.56-2.37a8.377,8.377,0,0,0,3.28-.4c.9-.48.45-1.23.7-1.82" fill="#e83e2e" stroke="#231f20" stroke-linecap="round" stroke-width="0.478"/><path d="M54.72,101.54a1.551,1.551,0,0,1-1.56,1.62,1.684,1.684,0,0,1-1.7-1.59,1.557,1.557,0,0,1,1.56-1.62A1.7,1.7,0,0,1,54.72,101.54Z" fill="#fff" stroke="#231f20" stroke-linecap="round" stroke-width="0.478"/><path d="M40.31,99.54c.3-1.2,1.23-2.41.81-3.17-.53-.97-1.19-1.75,1.09-2.39,2.71-.76,4.91.04,5.25,1.31.13.5-.81,1.2-1.06,1.68-.28.52-1.13,1.19-1.45,1.73-.58.98-3.97,3.37-6.28,3.88-.94-.15-.57.28-3.04-.19" fill="#fff" stroke="#231f20" stroke-linecap="round" stroke-width="0.287"/><path d="M41.84,94.3c-1.28-.04-.99-.38-1.52-.47-.1,1.29.22,2.46.03,3.74-.63,4.3-3.72,4-6.13,4.79.7-.06,1.17.04,1.98-.02,1.59-1.05,5.86-.38,5.52-8.04" fill="#e83e2e" stroke="#231f20" stroke-linecap="round" stroke-width="0.478"/><path d="M40,103.61c-2.14-.79-2.31-.75-2.7-1.27a9.054,9.054,0,0,0,3.44-1.17,5.345,5.345,0,0,0,1.91-1.7c.74-.81,2.5-1.81,2.58-2.69a4.566,4.566,0,0,0-.92-2.71c2.17-.14,5.52,1.08,8.6-.42" fill="#e83e2e" stroke="#231f20" stroke-linecap="round" stroke-width="0.478"/><path d="M41.22,94.63s3.67,1.07,4.32,1.2c0,0-3.6.63-4.2.77,0,0,3.48,1.24,4.1,1.5,0,0-5.41.54-5.85.66,0,0,2.48,1.31,2.77,1.59,0,0-4.11.83-4.63.95.04.02,2.11,1.24,2.11,1.24-.29-.3-4.01-.47-4.01-.47l5.22-.52a18.846,18.846,0,0,0-2.08-1.44c.88-.23,4-.77,4.12-.83a7.376,7.376,0,0,1-1.73-1.56c.6-.16,4.15-.94,4.15-.94-.61-.18-3.87-1.07-3.87-1.07.56-.14,3.42-1.05,3.42-1.05Z" fill="none" stroke="#231f20" stroke-linecap="round" stroke-linejoin="round" stroke-width="0.573"/><path d="M43.12,94.57a14.815,14.815,0,0,0-1.42-.46,6.009,6.009,0,0,0-3.34-.22c-1.22.44-2.09,1.84-1.29,2.35a4.27,4.27,0,0,0,2.19-.1,27.859,27.859,0,0,0,3.06-1.29,8.432,8.432,0,0,1,3.98-.36,25.338,25.338,0,0,1,5.36.96c1.18.64,1.12,1.51-.11,2.03-3.92,1.65-6.75-1.8-7.35-2.29-.11-.09-.35-.21-.46-.29a4.321,4.321,0,0,0-.72-.27c-.15.1-.18.22-.27.33a18.9,18.9,0,0,1-1.43,1.58c-.87.84-3.55,1.58-5.26,2.05" fill="none" stroke="#231f20" stroke-linecap="round" stroke-linejoin="round" stroke-width="0.573"/><path d="M43.23,94.53c-.57.8-.17,1.59.18,2.4.23.52-.92,1.13-.46,1.62a5.22,5.22,0,0,0,.98.77,3.129,3.129,0,0,1,.66.42" fill="none" stroke="#231f20" stroke-linecap="round" stroke-linejoin="round" stroke-width="0.573"/><path d="M54.8,105.97a9.108,9.108,0,0,1-2.55.3,31.45,31.45,0,0,0-5.33.81c-.55.11-1.16.22-1.79.33.05-.53-.97-1.33-1.71-1.69a21.513,21.513,0,0,0-3.62-1.09,35.985,35.985,0,0,0-8.95-1.08c-.56.57-1.8,1.48-1.65,2.11.07.29.61,1.26.57,1.26.05,0,.05.16.05.18a.933.933,0,0,1-.04.22c-.04.13-.1.29.08.4a.8.8,0,0,0,.31.11,1.416,1.416,0,0,1,.2.04c.15.03.32.05.47.08.09.02.16.06.25.08.3.07.64.12.95.16.65.1,1.31.17,1.98.23a39.165,39.165,0,0,0,4.06.11c1.2-.02,2.4-.08,3.59-.16.69-.05,1.38-.1,2.07-.16l1.03-.09c.16-.01.33-.04.49-.04a5.691,5.691,0,0,0,.82-.08c.1-.01.21-.01.31-.03a7.22,7.22,0,0,0,.86-.2c.5-.12,1-.24,1.53-.33a56.6,56.6,0,0,1,6.58-.68c.32-.26.15-.6.25-1Z" fill="#fff" stroke="#231f20" stroke-linecap="round" stroke-width="0.478"/><path d="M30.93,103.57h.04l.04-.04Z" fill="#fff" stroke="#231f20" stroke-linecap="round" stroke-width="0.478"/><path d="M42.17,107.51c-.87-.03-1.74,0-2.61.05-.16.01-.29.04-.45.04-.33.01-.66.02-.99.02-.66,0-1.32-.01-1.97-.05a31.364,31.364,0,0,1-3.83-.43c-.61-.11-1.2-.23-1.78-.37" fill="#fff" stroke="#231f20" stroke-linecap="round" stroke-width="0.478"/><path d="M57.19,94.05c-.36-1.06-4.27-.74-5.64-.6-2.1.23-8.45-.57-7.76-.03-.06.52,2.94,2.09,3.61,2.45a6.672,6.672,0,0,0,2.17.7,19.531,19.531,0,0,0,4.24.22c1.28-.29,3.31-1.94,3.16-2.69" fill="#231f20" stroke="#231f20" stroke-linecap="round" stroke-width="0.49"/><path d="M52.15,95.71a2.439,2.439,0,0,1,.36-1.52,22.422,22.422,0,0,1-4.02.51c-1.48.07-3.82-.94-4.89-1.38a5.147,5.147,0,0,1,.92,3.74c-.09,1.3.17,1.62-.83,2.71a5.253,5.253,0,0,0-1.61,2.91,9.142,9.142,0,0,0,.46,2.73c.12.67-.05,1.55.36,2.19.37.57,1,.58,2.23.61a18.7,18.7,0,0,1,5.15.94c2.84.83,6.8.66,10.08.52a30.162,30.162,0,0,0,3.17-.17,28.706,28.706,0,0,0,3.52-.87c1.17-.34.33-2.18.2-2.93-.29-1.66-2.63-2.45-5.39-2.57a7.4,7.4,0,0,1-3.18-.43c-.87-.52-.44-1.34-.68-1.97" fill="#e83e2e" stroke="#231f20" stroke-linecap="round" stroke-width="0.49"/><path d="M43.45,102.44a1.613,1.613,0,0,0,1.51,1.76,1.727,1.727,0,0,0,1.65-1.72,1.613,1.613,0,0,0-1.51-1.76A1.7,1.7,0,0,0,43.45,102.44Z" fill="#fff" stroke="#231f20" stroke-linecap="round" stroke-width="0.49"/><path d="M57.42,100.26c-.29-1.3-1.19-2.62-.79-3.44.52-1.05,1.15-1.9-1.06-2.6-2.63-.83-4.76.05-5.09,1.42-.13.55.78,1.31,1.03,1.83.27.57,1.1,1.29,1.41,1.88a13.4,13.4,0,0,0,6.09,4.22c.91-.17.55.3,2.95-.2" fill="#fff" stroke="#231f20" stroke-linecap="round" stroke-width="0.294"/><path d="M55.93,94.57c1.25-.05.96-.41,1.47-.51.1,1.41-.21,2.67-.03,4.07.61,4.67,3.6,4.35,5.95,5.2-.68-.07-1.13.05-1.92-.02-1.54-1.14-5.68-.42-5.35-8.74" fill="#e83e2e" stroke="#231f20" stroke-linecap="round" stroke-width="0.49"/><path d="M57.72,104.68c2.07-.86,2.24-.82,2.61-1.38A8.139,8.139,0,0,1,57,102.03a5.357,5.357,0,0,1-1.85-1.85c-.72-.88-2.43-1.97-2.5-2.93a5.416,5.416,0,0,1,.89-2.94c-2.11-.16-5.35,1.17-8.34-.45" fill="#e83e2e" stroke="#231f20" stroke-linecap="round" stroke-width="0.49"/><path d="M56.53,94.92s-3.56,1.17-4.19,1.3c0,0,3.49.69,4.07.84,0,0-3.37,1.35-3.97,1.63,0,0,5.25.59,5.67.71,0,0-2.4,1.42-2.69,1.73,0,0,3.99.9,4.49,1.03-.04.02-2.05,1.34-2.05,1.34.28-.32,3.89-.51,3.89-.51l-5.06-.56a19.554,19.554,0,0,1,2.02-1.57c-.85-.25-3.88-.84-3.99-.9a7.47,7.47,0,0,0,1.67-1.7c-.58-.17-4.02-1.02-4.02-1.02.59-.2,3.76-1.16,3.76-1.16-.54-.15-3.31-1.14-3.31-1.14Z" fill="none" stroke="#231f20" stroke-linecap="round" stroke-linejoin="round" stroke-width="0.588"/><path d="M54.7,94.86c.43-.2.89-.33,1.37-.5a5.216,5.216,0,0,1,3.24-.24c1.18.48,2.03,2,1.25,2.55a3.649,3.649,0,0,1-2.12-.11,24.6,24.6,0,0,1-2.96-1.41c-.98-.57-2.46-.47-3.86-.39a21.064,21.064,0,0,0-5.19,1.05c-1.14.7-1.09,1.64.11,2.2,3.8,1.79,6.55-1.95,7.13-2.49.1-.09.34-.23.45-.31a5.077,5.077,0,0,1,.7-.3c.14.11.17.24.26.36.43.57.87,1.16,1.38,1.72.85.92,3.44,1.71,5.1,2.23" fill="none" stroke="#231f20" stroke-linecap="round" stroke-linejoin="round" stroke-width="0.588"/><path d="M54.58,94.82c.56.87.17,1.73-.18,2.61-.22.56.89,1.23.44,1.76a5.632,5.632,0,0,1-.95.84,3.274,3.274,0,0,0-.64.45" fill="none" stroke="#231f20" stroke-linecap="round" stroke-linejoin="round" stroke-width="0.588"/><path d="M43.37,107.25a7.627,7.627,0,0,0,2.47.32,27.937,27.937,0,0,1,5.17.88c.53.12,1.12.24,1.74.36-.05-.58.94-1.44,1.66-1.84a18.746,18.746,0,0,1,3.51-1.19,31.829,31.829,0,0,1,8.68-1.18c.54.61,1.75,1.61,1.6,2.29-.07.32-.6,1.37-.55,1.36-.05,0-.05.17-.05.19a1,1,0,0,0,.04.24c.03.14.1.31-.08.44a.754.754,0,0,1-.3.12c-.06.01-.13.03-.19.04-.15.03-.31.05-.45.09-.09.03-.16.06-.25.09-.29.07-.62.13-.92.18q-.945.165-1.92.24a34.433,34.433,0,0,1-3.94.12c-1.16-.02-2.32-.09-3.48-.18-.67-.05-1.34-.11-2.01-.17-.33-.03-.67-.06-1-.1-.15-.01-.32-.04-.47-.04a5.164,5.164,0,0,1-.79-.09c-.1-.02-.2-.01-.3-.03a7.366,7.366,0,0,1-.84-.21c-.48-.13-.97-.26-1.48-.36a49.207,49.207,0,0,0-6.38-.74c-.31-.28-.15-.65-.25-1.09Z" fill="#fff" stroke="#231f20" stroke-linecap="round" stroke-width="0.49"/><path d="M66.51,104.64h-.04c-.01-.02-.03-.03-.04-.05Z" fill="#fff" stroke="#231f20" stroke-linecap="round" stroke-width="0.49"/><path d="M55.61,108.92a21.373,21.373,0,0,1,2.53.06c.15.01.28.04.43.04.32.01.64.02.96.02.64,0,1.28-.01,1.91-.05a27.647,27.647,0,0,0,3.71-.47c.59-.12,1.17-.25,1.73-.41" fill="#fff" stroke="#231f20" stroke-linecap="round" stroke-width="0.49"/><path d="M55.5,44.29l8.48-1.53s1.2-.26,1.38.62-.97,1.32-.97,1.32l-8.05,1.63-.8.17-.81-1.88Z" fill="#231f20"/><path d="M21.9,47.63l-4.09-.41s-1.43-.17-1.66.8.83,1.27.83,1.27l4.02.46Z" fill="#231f20"/><path d="M38.92,49.41c.47,3.98,4.77,6.74,9.6,6.18s8.37-4.24,7.89-8.21-4.77-6.74-9.6-6.18S38.45,45.43,38.92,49.41Zm2.06-.11c-.37-3.09,2.38-5.95,6.13-6.38s7.09,1.72,7.46,4.8-2.38,5.95-6.13,6.38S41.35,52.39,40.98,49.3Z" fill="#231f20"/><path d="M36.42,48.44a2.807,2.807,0,0,1,3.26-.38l.21,2.07a1.716,1.716,0,0,0-3.05.35Z" fill="#231f20"/><path d="M19.79,51.93c.48,4.02,4.82,6.81,9.7,6.25s8.45-4.28,7.98-8.3-4.82-6.81-9.7-6.25S19.31,47.91,19.79,51.93Zm2.08-.11c-.37-3.12,2.4-6.01,6.2-6.45s7.17,1.73,7.54,4.85-2.4,6.01-6.2,6.45S22.24,54.94,21.87,51.82Z" fill="#231f20"/><ellipse cx="2.08" cy="1.47" rx="2.08" ry="1.47" transform="translate(24.58 47.09)"/><path d="M41.91,45.91a57.321,57.321,0,0,1-18.39.76c-2.3-.25-4.91-.82-6.02-2.83a2.246,2.246,0,0,1-.17-2.07c.52-1.02,1.91-1.17,3.07-1.14,4.99.12,9.94,1.06,14.94,1.02a61.969,61.969,0,0,0,14.49-2.2q3.705-.93,7.35-2.02c.58-.17,1.15-.37,1.74-.53.12-.03.45-.15.57-.06.24.18-.29.65-.41.77a21.4,21.4,0,0,1-3.58,2.77,38.594,38.594,0,0,1-6.11,3.2,43.684,43.684,0,0,1-6.62,2.14C42.47,45.79,42.19,45.85,41.91,45.91Z" fill="#fcb827"/><ellipse cx="2.18" cy="1.46" rx="2.18" ry="1.46" transform="matrix(0.974, -0.225, 0.225, 0.974, 44.375, 45.537)"/><path d="M48.74,56.76a2.971,2.971,0,0,1-.17.98c-.23.54-.69.53-1.2.44-.79-.13-1.57-.31-2.35-.47-1.61-.32-3.23-.71-4.87-.88-2.56-.27-5.61.31-6.87,2.83-.19.38.38.71.57.33,1.63-3.25,5.85-2.67,8.77-2.09.86.17,1.72.34,2.58.52a22.818,22.818,0,0,0,2.44.47c1.32.12,1.7-1.02,1.76-2.13.03-.43-.63-.43-.66,0Z"/></g></svg>
