<svg width="157" height="50" viewBox="0 0 157 50" fill="none" xmlns="http://www.w3.org/2000/svg">
<path d="M0 46.9997H156.858V23.5273H21.7125L0 46.9997Z" fill="#FAAD4C"/>
<path d="M24 14.7655C24 13.7312 24.1562 12.8406 24.4686 12.0649C24.781 11.2892 25.1928 10.6571 25.7041 10.14C26.2153 9.62286 26.7975 9.23501 27.4649 8.97644C28.1323 8.71787 28.7997 8.57422 29.4956 8.57422C31.1286 8.57422 32.4067 9.07699 33.3581 10.0825C34.2953 11.0881 34.7781 12.5677 34.7781 14.5213C34.7781 14.7081 34.7639 14.9235 34.7497 15.1534C34.7355 15.3832 34.7213 15.5843 34.7071 15.7567H27.3371C27.4081 16.4318 27.7205 16.9633 28.2743 17.3656C28.8281 17.7678 29.5666 17.9545 30.5038 17.9545C31.1002 17.9545 31.6824 17.8971 32.2647 17.7821C32.8327 17.6672 33.3013 17.5379 33.6705 17.3799L34.1107 20.0374C33.9403 20.1236 33.6989 20.2098 33.4149 20.296C33.1309 20.3822 32.8043 20.454 32.4493 20.5259C32.0943 20.5977 31.7108 20.6408 31.299 20.6839C30.8872 20.727 30.4896 20.7557 30.0778 20.7557C29.0412 20.7557 28.1465 20.5977 27.3797 20.296C26.6129 19.9944 25.9881 19.5634 25.4768 19.0319C24.9798 18.5004 24.6106 17.8683 24.3692 17.1214C24.1278 16.4031 24 15.613 24 14.7655ZM31.6256 13.5014C31.6114 13.2285 31.5688 12.9555 31.4836 12.6826C31.3984 12.424 31.2848 12.1798 31.1144 11.9787C30.944 11.7776 30.731 11.6052 30.4896 11.4759C30.234 11.3467 29.9216 11.2748 29.5382 11.2748C29.169 11.2748 28.8566 11.3323 28.6009 11.4616C28.3453 11.5909 28.1181 11.7489 27.9477 11.95C27.7773 12.1511 27.6353 12.3953 27.5501 12.6682C27.4507 12.9412 27.3797 13.2141 27.3371 13.487H31.6256V13.5014Z" fill="#42210B"/>
<path d="M40.9848 12.1371L43.2569 8.89062H46.6082L42.6321 14.5217C43.5409 15.5847 44.3503 16.6333 45.0603 17.682C45.7704 18.7306 46.3384 19.6643 46.7644 20.4831H43.2995C43.1859 20.2677 43.0297 19.9804 42.8593 19.65C42.6889 19.3196 42.4901 18.9748 42.2771 18.6157C42.0641 18.2566 41.8368 17.9549 41.5954 17.6963C41.354 17.4521 41.1268 17.2223 40.8996 17.0212C40.6866 17.2079 40.4594 17.4234 40.2322 17.6532C40.005 17.8831 39.792 18.1704 39.579 18.5151C39.3802 18.8599 39.1672 19.2047 38.9826 19.5351C38.798 19.8654 38.6133 20.1815 38.4571 20.4831H35.1484C35.333 20.124 35.5745 19.6931 35.8727 19.1903C36.1709 18.6875 36.4975 18.1704 36.8525 17.6389C37.2075 17.1074 37.5909 16.5902 38.0169 16.0875C38.4287 15.5847 38.8406 15.1106 39.2382 14.6653C38.5281 13.6454 37.8465 12.6542 37.1791 11.7205C36.5259 10.7724 35.8727 9.83871 35.2336 8.91935H38.7411L40.9848 12.1371Z" fill="#42210B"/>
<path d="M51.6335 8.57422C52.5992 8.57422 53.3944 8.68914 54.0334 8.90461C54.6724 9.12009 55.1836 9.43611 55.567 9.8527C55.9505 10.2693 56.2203 10.7577 56.3907 11.3467C56.5469 11.9356 56.6321 12.582 56.6321 13.3003V20.1236C56.1635 20.2242 55.5245 20.3535 54.6866 20.4828C53.863 20.6264 52.8548 20.6982 51.6761 20.6982C50.9377 20.6982 50.2561 20.6264 49.6597 20.4971C49.0632 20.3678 48.5378 20.1524 48.0976 19.8507C47.6574 19.549 47.3308 19.1612 47.0894 18.6728C46.8622 18.1844 46.7344 17.5954 46.7344 16.8915C46.7344 16.2164 46.8622 15.6418 47.132 15.1677C47.4018 14.6937 47.7568 14.3202 48.2112 14.0473C48.6656 13.7743 49.1768 13.5732 49.7591 13.4439C50.3413 13.3147 50.9377 13.2572 51.5625 13.2572C51.9885 13.2572 52.3577 13.2716 52.6844 13.3147C53.011 13.3577 53.2808 13.4008 53.4796 13.4583V13.1566C53.4796 12.5964 53.3092 12.1511 52.9826 11.8207C52.6418 11.4903 52.0737 11.3179 51.2359 11.3179C50.6821 11.3179 50.1425 11.361 49.6029 11.4328C49.0632 11.519 48.5946 11.634 48.2112 11.7776L47.7994 9.13445C47.984 9.07699 48.2254 9.01953 48.5094 8.94771C48.7934 8.87588 49.1058 8.81842 49.4325 8.77533C49.7733 8.71787 50.1141 8.67477 50.4833 8.64604C50.8809 8.58858 51.2501 8.57422 51.6335 8.57422ZM51.8891 18.17C52.2015 18.17 52.514 18.1556 52.798 18.1413C53.082 18.1269 53.3234 18.0982 53.4938 18.0694V15.5843C53.366 15.5556 53.1672 15.5269 52.9116 15.4981C52.656 15.4694 52.4146 15.455 52.1873 15.455C51.8891 15.455 51.5909 15.4694 51.3211 15.5125C51.0513 15.5556 50.8099 15.613 50.6111 15.728C50.4123 15.8285 50.2419 15.9722 50.1283 16.1445C50.0147 16.3169 49.9579 16.5468 49.9579 16.8053C49.9579 17.3225 50.1283 17.6816 50.4691 17.8683C50.8241 18.0838 51.2927 18.17 51.8891 18.17Z" fill="#42210B"/>
<path d="M64.68 14.3201C64.68 13.2571 64.5522 12.5101 64.2824 12.0791C64.0126 11.6338 63.5582 11.4184 62.9049 11.4184C62.7061 11.4184 62.4931 11.4327 62.2659 11.4471C62.0529 11.4758 61.8399 11.4902 61.6269 11.5189V20.4539H58.375V9.27797C58.6448 9.20615 58.9714 9.13433 59.3406 9.04814C59.7098 8.96195 60.1075 8.89012 60.5193 8.83266C60.9311 8.76084 61.3571 8.71774 61.7973 8.67465C62.2375 8.63155 62.6635 8.61719 63.0895 8.61719C63.9132 8.61719 64.5948 8.71774 65.106 8.93322C65.6172 9.14869 66.0432 9.39289 66.384 9.69456C66.8527 9.36416 67.3781 9.09123 67.9887 8.90449C68.5851 8.71774 69.1531 8.61719 69.6501 8.61719C70.559 8.61719 71.3116 8.74647 71.908 9.00504C72.4902 9.26361 72.9589 9.62273 73.3139 10.0968C73.6689 10.5708 73.8961 11.1311 74.0381 11.7631C74.1659 12.4095 74.2369 13.1278 74.2369 13.9179V20.4539H70.985V14.3057C70.985 13.2427 70.8572 12.4957 70.5874 12.0648C70.3176 11.6195 69.8632 11.404 69.2099 11.404C69.0395 11.404 68.7981 11.4471 68.4857 11.5333C68.1733 11.6195 67.9177 11.7344 67.7189 11.8637C67.8183 12.2084 67.8893 12.5532 67.9177 12.9267C67.9461 13.3002 67.9603 13.7024 67.9603 14.1333V20.4539H64.7084V14.3201H64.68Z" fill="#42210B"/>
<path d="M79.5956 13.0426C79.9081 12.6979 80.2489 12.3244 80.5897 11.9509C80.9305 11.5774 81.2571 11.1895 81.5837 10.8304C81.8961 10.4569 82.2085 10.0978 82.4925 9.7674C82.7765 9.43701 83.018 9.13534 83.2168 8.89114H87.0793C86.3125 9.78177 85.5598 10.6437 84.8214 11.4481C84.083 12.2669 83.2878 13.1001 82.4073 13.962C82.8476 14.3642 83.2878 14.8382 83.7564 15.3841C84.225 15.93 84.6652 16.5046 85.1054 17.0935C85.5456 17.6825 85.9432 18.2715 86.2983 18.8604C86.6675 19.4494 86.9657 19.9809 87.2071 20.4693H83.4866C83.2594 20.0814 82.9896 19.6649 82.6914 19.2052C82.3931 18.7455 82.0807 18.2715 81.7399 17.8118C81.3991 17.3521 81.0583 16.9068 80.6891 16.4758C80.3199 16.0449 79.9507 15.6858 79.5956 15.3985V20.4693H76.3438V3.9065L79.5956 3.375V13.0426Z" fill="#F8961A"/>
<path d="M95.042 11.7905C94.758 11.7186 94.403 11.6468 94.0196 11.5606C93.622 11.4744 93.2102 11.4457 92.7558 11.4457C92.557 11.4457 92.3156 11.4601 92.0315 11.5032C91.7475 11.5462 91.5345 11.575 91.3925 11.6181V20.4669H88.1406V9.50643C88.7228 9.30532 89.4045 9.10421 90.1997 8.91746C90.9949 8.73072 91.8753 8.64453 92.841 8.64453C93.0114 8.64453 93.2244 8.6589 93.4658 8.67326C93.7072 8.70199 93.9628 8.73072 94.2042 8.75945C94.4456 8.80255 94.7012 8.84564 94.9426 8.88873C95.184 8.94619 95.397 9.00365 95.5675 9.07548L95.042 11.7905Z" fill="#F8961A"/>
<path d="M100.399 8.57422C101.365 8.57422 102.16 8.68914 102.799 8.90461C103.438 9.12009 103.949 9.43611 104.333 9.8527C104.716 10.2693 104.986 10.7577 105.156 11.3467C105.313 11.9356 105.398 12.582 105.398 13.3003V20.1236C104.929 20.2242 104.29 20.3535 103.452 20.4828C102.629 20.6264 101.62 20.6982 100.442 20.6982C99.7033 20.6982 99.0217 20.6264 98.4253 20.4971C97.8289 20.3678 97.3035 20.1524 96.8632 19.8507C96.423 19.549 96.0964 19.1612 95.855 18.6728C95.6278 18.1844 95.5 17.5954 95.5 16.8915C95.5 16.2164 95.6278 15.6418 95.8976 15.1677C96.1674 14.6937 96.5224 14.3202 96.9768 14.0473C97.4313 13.7743 97.9425 13.5732 98.5247 13.4439C99.1069 13.3147 99.7033 13.2572 100.328 13.2572C100.754 13.2572 101.123 13.2716 101.45 13.3147C101.777 13.3577 102.046 13.4008 102.245 13.4583V13.1566C102.245 12.5964 102.075 12.1511 101.748 11.8207C101.407 11.4903 100.839 11.3179 100.002 11.3179C99.4477 11.3179 98.9081 11.361 98.3685 11.4328C97.8289 11.519 97.3603 11.634 96.9768 11.7776L96.565 9.13445C96.7496 9.07699 96.991 9.01953 97.2751 8.94771C97.5591 8.87588 97.8715 8.81842 98.1981 8.77533C98.5389 8.71787 98.8797 8.67477 99.2489 8.64604C99.6465 8.58858 100.03 8.57422 100.399 8.57422ZM100.669 18.17C100.981 18.17 101.294 18.1556 101.578 18.1413C101.862 18.1269 102.103 18.0982 102.274 18.0694V15.5843C102.146 15.5556 101.947 15.5269 101.691 15.4981C101.436 15.4694 101.194 15.455 100.967 15.455C100.669 15.455 100.371 15.4694 100.101 15.5125C99.8311 15.5556 99.5897 15.613 99.3909 15.728C99.1921 15.8285 99.0217 15.9722 98.9081 16.1445C98.7945 16.3169 98.7377 16.5468 98.7377 16.8053C98.7377 17.3225 98.9081 17.6816 99.2489 17.8683C99.6039 18.0838 100.073 18.17 100.669 18.17Z" fill="#F8961A"/>
<path d="M106.957 14.6793C106.957 13.8462 107.085 13.0561 107.355 12.3091C107.624 11.5621 108.008 10.9157 108.519 10.3698C109.03 9.82397 109.641 9.37865 110.365 9.06263C111.089 8.7466 111.913 8.57422 112.85 8.57422C113.461 8.57422 114.015 8.63168 114.526 8.73223C115.037 8.84715 115.534 9.00517 116.003 9.20628L115.349 11.8351C115.051 11.7201 114.71 11.6196 114.341 11.5334C113.972 11.4472 113.574 11.4041 113.12 11.4041C112.154 11.4041 111.444 11.7058 110.976 12.3091C110.507 12.9124 110.266 13.7025 110.266 14.6937C110.266 15.7423 110.493 16.5468 110.933 17.1214C111.373 17.696 112.154 17.9833 113.248 17.9833C113.645 17.9833 114.057 17.9402 114.512 17.8683C114.966 17.7965 115.378 17.6816 115.747 17.5092L116.202 20.1955C115.818 20.3535 115.349 20.4971 114.781 20.612C114.213 20.727 113.589 20.7844 112.907 20.7844C111.856 20.7844 110.962 20.6264 110.209 20.3104C109.456 19.9944 108.831 19.5634 108.349 19.0175C107.866 18.4717 107.511 17.8252 107.284 17.0926C107.071 16.3457 106.957 15.5412 106.957 14.6793Z" fill="#F8961A"/>
<path d="M120.821 13.0426C121.133 12.6979 121.474 12.3244 121.815 11.9509C122.156 11.5774 122.482 11.1895 122.809 10.8304C123.121 10.4569 123.434 10.0978 123.718 9.7674C124.002 9.43701 124.243 9.13534 124.442 8.89114H128.304C127.538 9.78177 126.785 10.6437 126.047 11.4481C125.308 12.2669 124.513 13.1001 123.632 13.962C124.073 14.3642 124.513 14.8382 124.982 15.3841C125.45 15.93 125.89 16.5046 126.331 17.0935C126.771 17.6825 127.168 18.2715 127.523 18.8604C127.893 19.4494 128.191 19.9809 128.432 20.4693H124.698C124.47 20.0814 124.2 19.6649 123.902 19.2052C123.604 18.7455 123.292 18.2715 122.951 17.8118C122.61 17.3521 122.269 16.9068 121.9 16.4758C121.531 16.0449 121.162 15.6858 120.807 15.3985V20.4693H117.555V3.9065L120.807 3.375V13.0426H120.821Z" fill="#F8961A"/>
<path d="M128.031 14.7655C128.031 13.7312 128.187 12.8406 128.5 12.0649C128.812 11.2892 129.224 10.6571 129.735 10.14C130.247 9.62286 130.829 9.23501 131.496 8.97644C132.164 8.71787 132.831 8.57422 133.527 8.57422C135.16 8.57422 136.438 9.07699 137.389 10.0825C138.327 11.0881 138.809 12.5677 138.809 14.5213C138.809 14.7081 138.795 14.9235 138.781 15.1534C138.767 15.3832 138.753 15.5843 138.738 15.7567H131.368C131.439 16.4318 131.752 16.9633 132.306 17.3656C132.859 17.7678 133.598 17.9545 134.535 17.9545C135.131 17.9545 135.714 17.8971 136.296 17.7821C136.864 17.6672 137.333 17.5379 137.702 17.3799L138.142 20.0374C137.972 20.1236 137.73 20.2098 137.446 20.296C137.162 20.3822 136.836 20.454 136.481 20.5259C136.126 20.5977 135.742 20.6408 135.33 20.6839C134.918 20.727 134.521 20.7557 134.109 20.7557C133.072 20.7557 132.178 20.5977 131.411 20.296C130.644 19.9944 130.019 19.5634 129.508 19.0319C129.011 18.5004 128.642 17.8683 128.4 17.1214C128.159 16.4031 128.031 15.613 128.031 14.7655ZM135.657 13.5014C135.643 13.2285 135.6 12.9555 135.515 12.6826C135.43 12.424 135.316 12.1798 135.146 11.9787C134.975 11.7776 134.762 11.6052 134.521 11.4759C134.265 11.3467 133.953 11.2748 133.569 11.2748C133.2 11.2748 132.888 11.3323 132.632 11.4616C132.377 11.5909 132.149 11.7489 131.979 11.95C131.809 12.1511 131.667 12.3953 131.581 12.6682C131.482 12.9412 131.411 13.2141 131.368 13.487H135.657V13.5014Z" fill="#F8961A"/>
<path d="M147.386 11.7905C147.102 11.7186 146.747 11.6468 146.363 11.5606C145.966 11.4744 145.554 11.4457 145.1 11.4457C144.901 11.4457 144.659 11.4601 144.375 11.5032C144.091 11.5462 143.878 11.575 143.736 11.6181V20.4669H140.484V9.50643C141.067 9.30532 141.748 9.10421 142.543 8.91746C143.339 8.73072 144.219 8.64453 145.185 8.64453C145.355 8.64453 145.568 8.6589 145.81 8.67326C146.051 8.70199 146.307 8.73072 146.548 8.75945C146.789 8.80255 147.045 8.84564 147.286 8.88873C147.528 8.94619 147.741 9.00365 147.911 9.07548L147.386 11.7905Z" fill="#F8961A"/>
<path d="M152.126 18.1138C152.722 18.1138 153.148 18.0563 153.39 17.9414C153.631 17.8265 153.759 17.5967 153.759 17.2519C153.759 16.9933 153.603 16.7635 153.276 16.5624C152.95 16.3613 152.467 16.1458 151.814 15.8872C151.302 15.7005 150.848 15.4994 150.436 15.2983C150.024 15.0972 149.669 14.853 149.385 14.5657C149.101 14.2784 148.874 13.9336 148.704 13.5458C148.547 13.1435 148.462 12.6695 148.462 12.1093C148.462 11.0175 148.86 10.17 149.655 9.53793C150.45 8.90587 151.558 8.58984 152.95 8.58984C153.645 8.58984 154.313 8.6473 154.952 8.77659C155.591 8.90587 156.102 9.03516 156.471 9.17881L155.903 11.7358C155.52 11.6065 155.108 11.4916 154.668 11.3766C154.228 11.2761 153.731 11.2186 153.177 11.2186C152.154 11.2186 151.657 11.5059 151.657 12.0805C151.657 12.2098 151.686 12.3247 151.728 12.4396C151.771 12.5402 151.856 12.6408 151.984 12.7413C152.112 12.8419 152.296 12.9424 152.524 13.0573C152.751 13.1723 153.035 13.2872 153.39 13.4165C154.1 13.6894 154.696 13.948 155.151 14.2065C155.619 14.4651 155.989 14.7524 156.258 15.0397C156.528 15.3414 156.713 15.6718 156.826 16.0453C156.94 16.4044 156.997 16.8353 156.997 17.3237C156.997 18.4729 156.571 19.3348 155.719 19.9094C154.867 20.4984 153.66 20.7857 152.112 20.7857C151.089 20.7857 150.252 20.6995 149.57 20.5271C148.888 20.3547 148.42 20.2111 148.164 20.0818L148.704 17.4243C149.258 17.6398 149.826 17.8121 150.408 17.9414C150.99 18.042 151.572 18.1138 152.126 18.1138Z" fill="#F8961A"/>
<path d="M1.66145 3H15.2087C16.1175 3 16.8701 3.74698 16.8701 4.6807V8.15702C16.8701 9.07637 16.1317 9.83771 15.2087 9.83771H1.66145C0.752624 9.83771 0 9.09074 0 8.15702V4.6807C0.0142004 3.74698 0.752624 3 1.66145 3Z" fill="#E83E2E"/>
<path d="M1.49541 3.05859H15.355C15.9799 3.05859 16.4911 3.57573 16.4911 4.20779C16.4911 4.83985 15.9799 5.35699 15.355 5.35699H1.49541C0.870591 5.35699 0.359375 4.83985 0.359375 4.20779C0.359375 3.57573 0.870591 3.05859 1.49541 3.05859Z" fill="#E83E2E"/>
<path d="M1.49541 3.05859H15.355C15.9799 3.05859 16.4911 3.57573 16.4911 4.20779C16.4911 4.83985 15.9799 5.35699 15.355 5.35699H1.49541C0.870591 5.35699 0.359375 4.83985 0.359375 4.20779C0.359375 3.57573 0.870591 3.05859 1.49541 3.05859Z" fill="#E83F2F"/>
<path d="M1.49683 3.05859H15.3565C15.9813 3.05859 16.4783 3.56137 16.4783 4.19342C16.4783 4.82548 15.9813 5.32826 15.3565 5.32826H1.49683C0.872015 5.32826 0.375 4.82548 0.375 4.19342C0.375 3.57573 0.872015 3.05859 1.49683 3.05859Z" fill="#E83F30"/>
<path d="M1.49856 3.05859H15.3724C15.983 3.05859 16.48 3.56137 16.48 4.17906V4.19342C16.48 4.81112 15.983 5.31389 15.3724 5.31389H1.49856C0.887937 5.31389 0.390922 4.81112 0.390922 4.19342V4.17906C0.376721 3.56137 0.873737 3.05859 1.49856 3.05859Z" fill="#E84031"/>
<path d="M1.49826 3.05859H15.3721C15.9827 3.05859 16.4797 3.56137 16.4797 4.17906V4.19342C16.4797 4.81112 15.9827 5.31389 15.3721 5.31389H1.49826C0.88764 5.31389 0.390625 4.81112 0.390625 4.19342V4.17906C0.390625 3.56137 0.88764 3.05859 1.49826 3.05859Z" fill="#E84132"/>
<path d="M1.48406 3.07422H15.3579C15.9543 3.07422 16.4513 3.56263 16.4513 4.18032V4.19468C16.4513 4.79801 15.9685 5.30079 15.3579 5.30079H1.48406C0.887641 5.30079 0.390625 4.81238 0.390625 4.19468V4.18032C0.390625 3.56263 0.887641 3.07422 1.48406 3.07422Z" fill="#E84233"/>
<path d="M1.48158 3.07422H15.3554C15.9518 3.07422 16.4346 3.56263 16.4346 4.16595V4.18032C16.4346 4.78365 15.9518 5.27206 15.3554 5.27206H1.48158C0.885159 5.27206 0.402344 4.78365 0.402344 4.18032V4.16595C0.402344 3.56263 0.885159 3.07422 1.48158 3.07422Z" fill="#E84234"/>
<path d="M1.483 3.07422H15.371C15.9675 3.07422 16.4361 3.56263 16.4361 4.15159V4.16595C16.4361 4.76928 15.9533 5.24333 15.371 5.24333H1.483C0.886583 5.24333 0.417969 4.75492 0.417969 4.16595V4.15159C0.417969 3.54826 0.886583 3.07422 1.483 3.07422Z" fill="#E84335"/>
<path d="M1.483 3.07422H15.371C15.9533 3.07422 16.4361 3.54826 16.4361 4.15159V4.16595C16.4361 4.75492 15.9675 5.24333 15.371 5.24333H1.483C0.900784 5.24333 0.417969 4.76928 0.417969 4.16595V4.15159C0.417969 3.54826 0.900784 3.07422 1.483 3.07422Z" fill="#E94436"/>
<path d="M1.48052 3.07422H15.3686C15.9508 3.07422 16.4194 3.54826 16.4194 4.13723V4.16595C16.4194 4.75492 15.9508 5.22896 15.3686 5.22896H1.48052C0.898302 5.22896 0.429688 4.75492 0.429688 4.16595V4.13723C0.429688 3.54826 0.898302 3.07422 1.48052 3.07422Z" fill="#E94437"/>
<path d="M1.48226 3.07422H15.3845C15.9667 3.07422 16.4211 3.54826 16.4211 4.12286V4.15159C16.4211 4.74055 15.9525 5.20023 15.3845 5.20023H1.48226C0.900041 5.20023 0.445627 4.72619 0.445627 4.15159V4.12286C0.431426 3.54826 0.900041 3.07422 1.48226 3.07422Z" fill="#E94538"/>
<path d="M1.46632 3.07422H15.3686C15.9366 3.07422 16.4052 3.54826 16.4052 4.12286V4.15159C16.4052 4.72619 15.9366 5.20023 15.3686 5.20023H1.46632C0.898303 5.20023 0.429688 4.72619 0.429688 4.15159V4.12286C0.443888 3.5339 0.898303 3.07422 1.46632 3.07422Z" fill="#E94639"/>
<path d="M1.46774 3.07422H15.37C15.938 3.07422 16.3924 3.5339 16.3924 4.1085V4.13723C16.3924 4.71182 15.938 5.1715 15.37 5.1715H1.46774C0.899727 5.1715 0.445312 4.71182 0.445312 4.13723V4.1085C0.445313 3.5339 0.899727 3.07422 1.46774 3.07422Z" fill="#E9473A"/>
<path d="M1.46917 3.07422H15.3714C15.9252 3.07422 16.3796 3.5339 16.3796 4.09413V4.12286C16.3796 4.68309 15.9252 5.14277 15.3714 5.14277H1.46917C0.915352 5.14277 0.460938 4.68309 0.460938 4.12286V4.09413C0.460938 3.5339 0.915352 3.07422 1.46917 3.07422Z" fill="#E9473B"/>
<path d="M1.46917 3.07422H15.3856C15.9394 3.07422 16.3938 3.5339 16.3938 4.09413V4.13723C16.3938 4.69746 15.9394 5.15714 15.3856 5.15714H1.46917C0.915352 5.15714 0.460938 4.69746 0.460938 4.13723V4.09413C0.460937 3.5339 0.915352 3.07422 1.46917 3.07422Z" fill="#E9483C"/>
<path d="M1.46669 3.07422H15.3831C15.9369 3.07422 16.3772 3.51953 16.3772 4.07977V4.12286C16.3772 4.68309 15.9369 5.12841 15.3831 5.12841H1.46669C0.91287 5.12841 0.472656 4.68309 0.472656 4.12286V4.07977C0.472656 3.5339 0.91287 3.07422 1.46669 3.07422Z" fill="#E9493D"/>
<path d="M1.46454 3.07422H15.381C15.9206 3.07422 16.3608 3.51953 16.3608 4.0654V4.1085C16.3608 4.65436 15.9206 5.09968 15.381 5.09968H1.46454C0.924923 5.09968 0.484709 4.65436 0.484709 4.1085V4.0654C0.470509 3.51953 0.910723 3.07422 1.46454 3.07422Z" fill="#E9493E"/>
<path d="M1.45 3.07422H15.3806C15.9203 3.07422 16.3463 3.51953 16.3463 4.05104V4.09413C16.3463 4.64 15.9061 5.07095 15.3806 5.07095H1.45C0.910388 5.07095 0.484375 4.62563 0.484375 4.09413V4.05104C0.484375 3.51953 0.924589 3.07422 1.45 3.07422Z" fill="#E94A3F"/>
<path d="M1.45 3.07422H15.3806C15.9061 3.07422 16.3463 3.50517 16.3463 4.05104V4.09413C16.3463 4.62563 15.9203 5.07095 15.3806 5.07095H1.45C0.924589 5.07095 0.484375 4.64 0.484375 4.09413V4.05104C0.498575 3.51953 0.924589 3.07422 1.45 3.07422Z" fill="#E94B40"/>
<path d="M1.45143 3.08594H15.3821C15.9075 3.08594 16.3335 3.51689 16.3335 4.04839V4.10585C16.3335 4.63735 15.9075 5.0683 15.3821 5.0683H1.45143C0.926013 5.0683 0.5 4.63735 0.5 4.10585V4.04839C0.5 3.51689 0.926013 3.08594 1.45143 3.08594Z" fill="#E94C41"/>
<path d="M1.45285 3.08594H15.3835C15.9089 3.08594 16.3207 3.51689 16.3207 4.03402V4.09148C16.3207 4.62299 15.8947 5.03957 15.3835 5.03957H1.45285C0.927438 5.03957 0.515625 4.60862 0.515625 4.09148V4.03402C0.515625 3.50252 0.927438 3.08594 1.45285 3.08594Z" fill="#E94C42"/>
<path d="M1.45285 3.08594H15.3977C15.9089 3.08594 16.3349 3.50252 16.3349 4.03402V4.07712C16.3349 4.59426 15.9231 5.02521 15.3977 5.02521H1.45285C0.941638 5.02521 0.515625 4.60862 0.515625 4.07712V4.01966C0.515625 3.50252 0.941638 3.08594 1.45285 3.08594Z" fill="#E94D43"/>
<path d="M1.45428 3.08594H15.3991C15.9103 3.08594 16.3221 3.50252 16.3221 4.01966V4.07712C16.3221 4.59426 15.9103 5.01084 15.3991 5.01084H1.45428C0.943063 5.01084 0.53125 4.59426 0.53125 4.07712V4.01966C0.53125 3.50252 0.943063 3.08594 1.45428 3.08594Z" fill="#E94E44"/>
<path d="M1.44008 3.08594H15.3849C15.8819 3.08594 16.2937 3.50252 16.2937 4.00529V4.06275C16.2937 4.56553 15.8819 4.98211 15.3849 4.98211H1.44008C0.943063 4.98211 0.53125 4.56553 0.53125 4.06275V4.00529C0.53125 3.50252 0.943063 3.08594 1.44008 3.08594Z" fill="#E94E45"/>
<path d="M1.44008 3.08594H15.3991C15.8961 3.08594 16.3079 3.48816 16.3079 4.00529V4.06275C16.3079 4.56553 15.9103 4.98211 15.3991 4.98211H1.44008C0.943063 4.98211 0.53125 4.57989 0.53125 4.06275V4.00529C0.54545 3.48816 0.943063 3.08594 1.44008 3.08594Z" fill="#EA4F46"/>
<path d="M1.4415 3.08594H15.4005C15.8976 3.08594 16.2952 3.48816 16.2952 3.99093V4.06275C16.2952 4.56553 15.8976 4.96775 15.4005 4.96775H1.4415C0.944487 4.96775 0.546875 4.56553 0.546875 4.06275V3.99093C0.546875 3.48816 0.944487 3.08594 1.4415 3.08594Z" fill="#EA5047"/>
<path d="M1.43902 3.08594H15.3981C15.8809 3.08594 16.2785 3.48816 16.2785 3.97656V4.04839C16.2785 4.5368 15.8809 4.93902 15.3981 4.93902H1.43902C0.956206 4.93902 0.558594 4.5368 0.558594 4.04839V3.97656C0.558594 3.48816 0.956206 3.08594 1.43902 3.08594Z" fill="#EA5148"/>
<path d="M1.44082 3.08594H15.3999C15.8827 3.08594 16.2661 3.47379 16.2661 3.9622V4.03402C16.2661 4.52243 15.8827 4.91029 15.3999 4.91029H1.44082C0.958 4.91029 0.574588 4.52243 0.574588 4.03402V3.9622C0.560387 3.48816 0.958 3.08594 1.44082 3.08594Z" fill="#EA5149"/>
<path d="M1.44045 3.08594H15.4137C15.8965 3.08594 16.2799 3.47379 16.2799 3.9622V4.03402C16.2799 4.52243 15.8965 4.91029 15.4137 4.91029H1.44045C0.957631 4.91029 0.574219 4.52243 0.574219 4.03402V3.9622C0.574219 3.47379 0.957631 3.08594 1.44045 3.08594Z" fill="#EA524A"/>
<path d="M1.43796 3.08594H15.4112C15.8798 3.08594 16.2632 3.47379 16.2632 3.94783V4.01966C16.2632 4.4937 15.8798 4.88156 15.4112 4.88156H1.43796C0.96935 4.88156 0.585938 4.4937 0.585938 4.01966V3.94783C0.585938 3.47379 0.955149 3.08594 1.43796 3.08594Z" fill="#EA534B"/>
<path d="M1.42376 3.08594H15.397C15.8656 3.08594 16.2348 3.47379 16.2348 3.93347V4.01966C16.2348 4.4937 15.8514 4.86719 15.397 4.86719H1.42376C0.955149 4.86719 0.585938 4.47934 0.585938 4.01966V3.93347C0.585938 3.47379 0.969349 3.08594 1.42376 3.08594Z" fill="#EA534C"/>
<path d="M1.42376 3.08594H15.4112C15.8656 3.08594 16.249 3.45943 16.249 3.93347V4.01966C16.249 4.47934 15.8798 4.86719 15.4112 4.86719H1.42376C0.969349 4.86719 0.585938 4.4937 0.585938 4.01966V3.93347C0.600138 3.47379 0.969349 3.08594 1.42376 3.08594Z" fill="#EA544D"/>
<path d="M1.42519 3.08594H15.4126C15.867 3.08594 16.2363 3.45943 16.2363 3.9191V4.00529C16.2363 4.46497 15.867 4.83846 15.4126 4.83846H1.42519C0.970774 4.83846 0.601562 4.46497 0.601562 4.00529V3.9191C0.601562 3.45943 0.970774 3.08594 1.42519 3.08594Z" fill="#EA554E"/>
<path d="M1.42661 3.10156H15.4141C15.8685 3.10156 16.2235 3.47505 16.2235 3.92036V4.00655C16.2235 4.46623 15.8543 4.82536 15.4141 4.82536H1.42661C0.972198 4.82536 0.617188 4.45187 0.617188 4.00655V3.92036C0.617188 3.46069 0.972198 3.10156 1.42661 3.10156Z" fill="#EA564F"/>
<path d="M1.42843 3.10156H15.4159C15.8561 3.10156 16.2111 3.46069 16.2111 3.906V3.99219C16.2111 4.4375 15.8561 4.79663 15.4159 4.79663H1.42843C0.98822 4.79663 0.633209 4.4375 0.633209 3.99219V3.906C0.619009 3.46069 0.98822 3.10156 1.42843 3.10156Z" fill="#EA5650"/>
<path d="M1.42804 3.10156H15.4297C15.8699 3.10156 16.2249 3.46069 16.2249 3.906V4.00655C16.2249 4.45187 15.8699 4.81099 15.4297 4.81099H1.42804C0.987823 4.81099 0.632812 4.45187 0.632812 4.00655V3.906C0.632812 3.46069 0.987823 3.10156 1.42804 3.10156Z" fill="#EA5751"/>
<path d="M1.41384 3.10156H15.4155C15.8415 3.10156 16.1965 3.46069 16.1965 3.89163V3.99219C16.1965 4.42314 15.8415 4.78226 15.4155 4.78226H1.41384C0.987824 4.78226 0.632812 4.42314 0.632812 3.99219V3.89163C0.632812 3.44632 0.987824 3.10156 1.41384 3.10156Z" fill="#EA5852"/>
<path d="M1.41136 3.10156H15.413C15.839 3.10156 16.1798 3.44632 16.1798 3.87727V3.97782C16.1798 4.40877 15.839 4.75353 15.413 4.75353H1.41136C0.985342 4.75353 0.644531 4.40877 0.644531 3.97782V3.87727C0.644531 3.44632 0.985342 3.10156 1.41136 3.10156Z" fill="#EA5853"/>
<path d="M1.41136 3.10156H15.4272C15.8532 3.10156 16.194 3.44632 16.194 3.87727V3.97782C16.194 4.40877 15.8532 4.75353 15.4272 4.75353H1.41136C0.985342 4.75353 0.644531 4.40877 0.644531 3.97782V3.87727C0.644531 3.44632 0.985342 3.10156 1.41136 3.10156Z" fill="#EA5954"/>
<path d="M1.41278 3.10156H15.4286C15.8404 3.10156 16.1812 3.44632 16.1812 3.8629V3.96346C16.1812 4.38004 15.8404 4.7248 15.4286 4.7248H1.41278C1.00097 4.7248 0.660156 4.38004 0.660156 3.96346V3.8629C0.660156 3.44632 1.00097 3.10156 1.41278 3.10156Z" fill="#EA5A55"/>
<path d="M1.41073 3.10156H15.4266C15.8384 3.10156 16.165 3.43196 16.165 3.84854V3.94909C16.165 4.36568 15.8384 4.69607 15.4266 4.69607H1.41073C0.998914 4.69607 0.672303 4.36568 0.672303 3.94909V3.84854C0.658103 3.43196 0.998914 3.10156 1.41073 3.10156Z" fill="#EB5A55"/>
<path d="M1.4103 3.10156H15.4261C15.8237 3.10156 16.1646 3.43196 16.1646 3.84854V3.96346C16.1646 4.36568 15.8379 4.71044 15.4261 4.71044H1.4103C1.01269 4.71044 0.671875 4.38004 0.671875 3.96346V3.84854C0.671875 3.43196 0.998485 3.10156 1.4103 3.10156Z" fill="#EB5B56"/>
<path d="M1.3961 3.10156H15.4261C15.8237 3.10156 16.1504 3.43196 16.1504 3.83417V3.94909C16.1504 4.35131 15.8237 4.68171 15.4261 4.68171H1.3961C0.998486 4.68171 0.671875 4.35131 0.671875 3.94909V3.83417C0.686075 3.43196 0.998486 3.10156 1.3961 3.10156Z" fill="#EB5C57"/>
<path d="M1.39752 3.10156H15.4276C15.8252 3.10156 16.1376 3.41759 16.1376 3.81981V3.93473C16.1376 4.33695 15.8252 4.65298 15.4276 4.65298H1.39752C0.99991 4.65298 0.6875 4.33695 0.6875 3.93473V3.81981C0.6875 3.43196 1.01411 3.10156 1.39752 3.10156Z" fill="#EB5D58"/>
<path d="M1.39504 3.10156H15.4251C15.8085 3.10156 16.1209 3.41759 16.1209 3.80544V3.93473C16.1209 4.32258 15.8085 4.63861 15.4251 4.63861H1.39504C1.01163 4.63861 0.699219 4.32258 0.699219 3.93473V3.81981C0.699219 3.41759 1.01163 3.10156 1.39504 3.10156Z" fill="#EB5D59"/>
<path d="M1.39504 3.10156H15.4393C15.8227 3.10156 16.1351 3.41759 16.1351 3.80544V3.93473C16.1351 4.32258 15.8227 4.63861 15.4393 4.63861H1.39504C1.01163 4.63861 0.699219 4.32258 0.699219 3.93473V3.81981C0.699219 3.41759 1.01163 3.10156 1.39504 3.10156Z" fill="#EB5E5A"/>
<path d="M1.39256 3.10156H15.4368C15.8202 3.10156 16.1184 3.41759 16.1184 3.79108V3.92036C16.1184 4.30822 15.806 4.60988 15.4368 4.60988H1.39256C1.00915 4.60988 0.710938 4.29385 0.710938 3.92036V3.79108C0.710938 3.41759 1.00915 3.10156 1.39256 3.10156Z" fill="#EB5F5B"/>
<path d="M1.39447 3.11719H15.4387C15.8079 3.11719 16.1061 3.41885 16.1061 3.79234V3.92162C16.1061 4.29511 15.8079 4.59678 15.4387 4.59678H1.39447C1.02526 4.59678 0.727049 4.29511 0.727049 3.92162V3.79234C0.712849 3.41885 1.01106 3.11719 1.39447 3.11719Z" fill="#EB5F5C"/>
<path d="M1.37836 3.11719H15.4226C15.7918 3.11719 16.09 3.41885 16.09 3.79234V3.92162C16.09 4.29511 15.7918 4.59678 15.4226 4.59678H1.37836C1.00915 4.59678 0.710938 4.29511 0.710938 3.92162V3.79234C0.725138 3.41885 1.02335 3.11719 1.37836 3.11719Z" fill="#EB605D"/>
<path d="M1.37978 3.11719H15.4382C15.7932 3.11719 16.0914 3.41885 16.0914 3.77798V3.90726C16.0914 4.26638 15.7932 4.56805 15.4382 4.56805H1.37978C1.02477 4.56805 0.726562 4.26638 0.726562 3.90726V3.77798C0.726562 3.40449 1.02477 3.11719 1.37978 3.11719Z" fill="#EB615E"/>
<path d="M1.38121 3.11719H15.4396C15.7947 3.11719 16.0787 3.40449 16.0787 3.76361V3.89289C16.0787 4.25202 15.7947 4.53932 15.4396 4.53932H1.38121C1.0262 4.53932 0.742188 4.25202 0.742188 3.89289V3.76361C0.742187 3.40449 1.0262 3.11719 1.38121 3.11719Z" fill="#EB625F"/>
<path d="M1.38121 3.11719H15.4396C15.7947 3.11719 16.0787 3.40449 16.0787 3.76361V3.89289C16.0787 4.25202 15.7947 4.53932 15.4396 4.53932H1.38121C1.0262 4.53932 0.742188 4.25202 0.742188 3.89289V3.76361C0.742187 3.40449 1.0262 3.11719 1.38121 3.11719Z" fill="#EB6260"/>
<path d="M1.38263 3.11719H15.4553C15.7961 3.11719 16.0801 3.40449 16.0801 3.74925V3.89289C16.0801 4.23765 15.7961 4.52495 15.4553 4.52495H1.38263C1.04182 4.52495 0.757812 4.23765 0.757812 3.89289V3.74925C0.757812 3.40449 1.04182 3.11719 1.38263 3.11719Z" fill="#EB6361"/>
<path d="M1.38015 3.11719H15.4528C15.7936 3.11719 16.0634 3.39012 16.0634 3.73488V3.87853C16.0634 4.22329 15.7936 4.49622 15.4528 4.49622H1.38015C1.03934 4.49622 0.769531 4.22329 0.769531 3.87853V3.73488C0.769531 3.39012 1.03934 3.11719 1.38015 3.11719Z" fill="#EB6462"/>
<path d="M1.3782 3.11719H15.4508C15.7775 3.11719 16.0473 3.39012 16.0473 3.72052V3.86416C16.0473 4.19456 15.7775 4.46749 15.4508 4.46749H1.3782C1.05159 4.46749 0.781786 4.19456 0.781786 3.86416V3.72052C0.767585 3.39012 1.03739 3.11719 1.3782 3.11719Z" fill="#EB6463"/>
<path d="M1.36595 3.11719H15.4386C15.7652 3.11719 16.035 3.39012 16.035 3.72052V3.86416C16.035 4.19456 15.7652 4.46749 15.4386 4.46749H1.36595C1.03934 4.46749 0.769531 4.19456 0.769531 3.86416V3.72052C0.783732 3.39012 1.03934 3.11719 1.36595 3.11719Z" fill="#EB6564"/>
<path d="M1.36737 3.11719H15.4542C15.7808 3.11719 16.0364 3.37576 16.0364 3.70615V3.8498C16.0364 4.18019 15.7808 4.43876 15.4542 4.43876H1.36737C1.04076 4.43876 0.785156 4.18019 0.785156 3.8498V3.70615C0.785156 3.39012 1.05496 3.11719 1.36737 3.11719Z" fill="#EB6665"/>
<path d="M1.36489 3.11719H15.4517C15.7641 3.11719 16.0198 3.37576 16.0198 3.69179V3.8498C16.0198 4.16583 15.7641 4.4244 15.4517 4.4244H1.36489C1.05248 4.4244 0.796875 4.16583 0.796875 3.8498V3.69179C0.796875 3.37576 1.05248 3.11719 1.36489 3.11719Z" fill="#EC6766"/>
<path d="M1.36489 3.11719H15.4517C15.7641 3.11719 16.0198 3.37576 16.0198 3.69179V3.8498C16.0198 4.16583 15.7641 4.4244 15.4517 4.4244H1.36489C1.05248 4.4244 0.796875 4.16583 0.796875 3.8498V3.69179C0.796875 3.37576 1.05248 3.11719 1.36489 3.11719Z" fill="#EC6767"/>
<path d="M1.36632 3.11719H15.4674C15.7656 3.11719 16.0212 3.36139 16.0212 3.67742V3.83543C16.0212 4.1371 15.7798 4.39567 15.4674 4.39567H1.36632C1.06811 4.39567 0.8125 4.15146 0.8125 3.83543V3.67742C0.8125 3.37576 1.05391 3.11719 1.36632 3.11719Z" fill="#EC6868"/>
<path d="M1.36834 3.11719H15.4694C15.7676 3.11719 16.009 3.36139 16.009 3.66306V3.82107C16.009 4.12273 15.7676 4.36694 15.4694 4.36694H1.36834C1.07013 4.36694 0.828721 4.12273 0.828721 3.82107V3.66306C0.81452 3.37576 1.05593 3.11719 1.36834 3.11719Z" fill="#EC6969"/>
<path d="M1.35212 3.12891H15.4674C15.7656 3.12891 16.007 3.37311 16.007 3.67477V3.83279C16.007 4.13445 15.7656 4.37866 15.4674 4.37866H1.35212C1.05391 4.37866 0.8125 4.13445 0.8125 3.83279V3.67477C0.8267 3.35875 1.06811 3.12891 1.35212 3.12891Z" fill="#EC696A"/>
<path d="M1.35354 3.12891H15.4688C15.7528 3.12891 15.9942 3.35874 15.9942 3.66041V3.83279C15.9942 4.12009 15.767 4.36429 15.4688 4.36429H1.35354C1.06953 4.36429 0.828125 4.13445 0.828125 3.83279V3.64604C0.828125 3.35875 1.06953 3.12891 1.35354 3.12891Z" fill="#EC6A6B"/>
<path d="M1.35497 3.12891H15.4702C15.7542 3.12891 15.9814 3.35875 15.9814 3.64604V3.81842C15.9814 4.10572 15.7542 4.33556 15.4702 4.33556H1.35497C1.07096 4.33556 0.84375 4.10572 0.84375 3.81842V3.64604C0.84375 3.35875 1.07096 3.12891 1.35497 3.12891Z" fill="#EC6B6C"/>
<path d="M1.35639 3.12891H15.4716C15.7556 3.12891 15.9686 3.35875 15.9686 3.63168V3.80406C15.9686 4.09136 15.7414 4.30683 15.4716 4.30683H1.35639C1.07238 4.30683 0.859375 4.07699 0.859375 3.80406V3.63168C0.859375 3.35875 1.07238 3.12891 1.35639 3.12891Z" fill="#EC6C6D"/>
<path d="M1.35639 3.12891H15.4716C15.7414 3.12891 15.9686 3.35875 15.9686 3.63168V3.80406C15.9686 4.07699 15.7414 4.30683 15.4716 4.30683H1.35639C1.08658 4.30683 0.859375 4.07699 0.859375 3.80406V3.63168C0.859375 3.34438 1.08658 3.12891 1.35639 3.12891Z" fill="#EC6C6E"/>
<path d="M1.35391 3.12891H15.4692C15.739 3.12891 15.952 3.34438 15.952 3.61731V3.78969C15.952 4.06263 15.739 4.2781 15.4692 4.2781H1.35391C1.0841 4.2781 0.871094 4.06263 0.871094 3.78969V3.61731C0.871094 3.34438 1.0841 3.12891 1.35391 3.12891Z" fill="#EC6D6F"/>
<path d="M1.33971 3.12891H15.4691C15.7248 3.12891 15.9378 3.34438 15.9378 3.60295V3.78969C15.9378 4.04826 15.7248 4.26374 15.4691 4.26374H1.33971C1.0841 4.26374 0.871094 4.04826 0.871094 3.78969V3.61731C0.871094 3.34438 1.0841 3.12891 1.33971 3.12891Z" fill="#EC6E70"/>
<path d="M1.33971 3.12891H15.4691C15.7248 3.12891 15.9378 3.34438 15.9378 3.60295V3.78969C15.9378 4.04826 15.7248 4.26374 15.4691 4.26374H1.33971C1.0841 4.26374 0.871094 4.04826 0.871094 3.78969V3.60295C0.885294 3.34438 1.0841 3.12891 1.33971 3.12891Z" fill="#EC6E71"/>
<path d="M1.33723 3.12891H15.4809C15.7365 3.12891 15.9353 3.33002 15.9353 3.58858V3.77533C15.9353 4.0339 15.7365 4.23501 15.4809 4.23501H1.33723C1.08162 4.23501 0.882812 4.0339 0.882812 3.77533V3.58858C0.882812 3.33002 1.08162 3.12891 1.33723 3.12891Z" fill="#EC6F72"/>
<path d="M1.33865 3.12891H15.4823C15.7237 3.12891 15.9225 3.33002 15.9225 3.57422V3.76096C15.9225 4.00517 15.7237 4.20628 15.4823 4.20628H1.33865C1.09724 4.20628 0.898438 4.00517 0.898438 3.76096V3.57422C0.898438 3.33002 1.09724 3.12891 1.33865 3.12891Z" fill="#EC7073"/>
<path d="M1.34079 3.12891H15.4844C15.7258 3.12891 15.9104 3.33002 15.9104 3.55985V3.7466C15.9104 3.9908 15.7116 4.17755 15.4844 4.17755H1.34079C1.09938 4.17755 0.914779 3.97644 0.914779 3.7466V3.55985C0.900579 3.33002 1.09938 3.12891 1.34079 3.12891Z" fill="#EC7174"/>
<path d="M1.34008 3.12891H15.4837C15.7109 3.12891 15.9097 3.31565 15.9097 3.55985V3.7466C15.9097 3.97644 15.7251 4.17755 15.4837 4.17755H1.34008C1.11287 4.17755 0.914062 3.9908 0.914062 3.7466V3.55985C0.914062 3.33002 1.09867 3.12891 1.34008 3.12891Z" fill="#EC7175"/>
<path d="M1.32588 3.12891H15.4837C15.7109 3.12891 15.8955 3.31565 15.8955 3.54549V3.7466C15.8955 3.97644 15.7109 4.16318 15.4837 4.16318H1.32588C1.09867 4.16318 0.914062 3.97644 0.914062 3.7466V3.54549C0.914062 3.31565 1.09867 3.12891 1.32588 3.12891Z" fill="#ED7276"/>
<path d="M1.32339 3.12891H15.4812C15.7084 3.12891 15.8788 3.31565 15.8788 3.53112V3.73223C15.8788 3.96207 15.6942 4.13445 15.4812 4.13445H1.32339C1.09619 4.13445 0.925781 3.94771 0.925781 3.73223V3.53112C0.925781 3.31565 1.11039 3.12891 1.32339 3.12891Z" fill="#ED7377"/>
<path d="M1.32339 3.14453H15.4812C15.6942 3.14453 15.8788 3.31691 15.8788 3.54675V3.74786C15.8788 3.96333 15.7084 4.15008 15.4812 4.15008H1.32339C1.11039 4.15008 0.925781 3.9777 0.925781 3.74786V3.54675C0.925781 3.31691 1.11039 3.14453 1.32339 3.14453Z" fill="#ED7378"/>
<path d="M1.32482 3.14453H15.4969C15.7099 3.14453 15.8803 3.31691 15.8803 3.53238V3.73349C15.8803 3.94897 15.7099 4.12135 15.4969 4.12135H1.32482C1.11181 4.12135 0.941406 3.94897 0.941406 3.73349V3.53238C0.941406 3.31691 1.11181 3.14453 1.32482 3.14453Z" fill="#ED7479"/>
<path d="M1.32234 3.14453H15.4944C15.7074 3.14453 15.8636 3.31691 15.8636 3.51802V3.71913C15.8636 3.9346 15.6932 4.09262 15.4944 4.09262H1.32234C1.10933 4.09262 0.953125 3.92024 0.953125 3.71913V3.51802C0.953125 3.30255 1.10933 3.14453 1.32234 3.14453Z" fill="#ED757A"/>
<path d="M1.32234 3.14453H15.4944C15.6932 3.14453 15.8636 3.30255 15.8636 3.51802V3.73349C15.8636 3.9346 15.7074 4.10698 15.4944 4.10698H1.32234C1.12353 4.10698 0.953125 3.94897 0.953125 3.73349V3.50365C0.953125 3.30255 1.12353 3.14453 1.32234 3.14453Z" fill="#ED767B"/>
<path d="M1.32376 3.14453H15.4958C15.6946 3.14453 15.8508 3.30255 15.8508 3.50365V3.71913C15.8508 3.92024 15.6946 4.07825 15.4958 4.07825H1.32376C1.12495 4.07825 0.96875 3.92024 0.96875 3.71913V3.50365C0.96875 3.30255 1.12495 3.14453 1.32376 3.14453Z" fill="#ED767C"/>
<path d="M1.30956 3.14453H15.4958C15.6804 3.14453 15.8366 3.30255 15.8366 3.48929V3.70476C15.8366 3.89151 15.6804 4.04952 15.4958 4.04952H1.30956C1.12495 4.04952 0.96875 3.89151 0.96875 3.70476V3.48929C0.96875 3.30255 1.12495 3.14453 1.30956 3.14453Z" fill="#ED777D"/>
<path d="M16.8005 19.7646L8.46489 28.4698L0.015625 19.3768L0.597843 17.9259L7.91107 17.8828L14.8267 18.0696L16.8005 19.7646Z" fill="#FFDCB6"/>
<path d="M16.8005 19.8518L8.46489 28.557L0.015625 19.464L0.597843 18.0275L7.89687 17.9844L14.7273 18.2429L16.8005 19.8518Z" fill="#F7B589"/>
<path d="M0.953125 18.4883L8.47936 18.5314L14.685 18.7038L16.8008 19.5226L13.0661 23.5735L9.31719 27.6244L7.61313 27.294L5.11386 24.4066L0.967326 19.5944L0.953125 18.4883Z" fill="#FBC093"/>
<path d="M1.32031 18.9453L4.94143 23.657L6.74488 26.0272L8.56254 28.3831L12.6807 23.7863L16.7988 19.1895L9.05956 19.0602L1.32031 18.9453Z" fill="#FFCB9C"/>
<path d="M1.89062 18.9453L5.22773 23.657L6.43477 25.4239L7.656 27.2052L9.11865 27.6936L12.3422 23.9443L15.9207 19.7498L16.1337 19.1895L9.01925 19.0602L1.89062 18.9453Z" fill="#FFD3A9"/>
<path d="M2.47266 18.9453L5.51155 23.657L7.031 26.0272L8.56465 28.3831L12.0154 24.1023L15.4803 19.8359V19.1752L8.97646 19.0602L2.47266 18.9453Z" fill="#FFDCB6"/>
<path d="M8.52254 28.6286L11.7318 25.2097C11.7318 25.2097 11.107 26.1578 8.69294 25.4539C6.52027 24.8219 5.39844 25.2528 5.39844 25.2528L8.52254 28.6286Z" fill="#58453B"/>
<path d="M16.8858 7.32422H0.015625V9.82372H16.8858V7.32422Z" fill="#B9C3CF"/>
<path d="M16.8858 7.32422H0.015625V7.7408H16.8858V7.32422Z" fill="#D6DDE5"/>
<path d="M4.30169 17.246V19.3002C4.27328 19.372 4.30169 19.4151 4.30169 19.4869C4.30169 20.3201 6.14774 21.024 8.47662 21.024C10.8055 21.024 12.6941 20.3488 12.6941 19.5156C12.6941 19.4869 12.6941 19.4725 12.6941 19.4438H12.7225V17.3609L8.64702 15.0625L4.30169 17.246Z" fill="#FAAD4C"/>
<path d="M4.30078 9.69141V16.3136L8.68872 13.9291L12.679 16.0263L12.7216 9.69141H4.30078Z" fill="#FAAD4C"/>
<path d="M0.015625 9.69141V14.6186L3.21072 16.9026L4.30416 16.3136V9.69141H0.015625Z" fill="#F8961A"/>
<path d="M0.015625 14.8477V19.387H0.0298252C0.129228 19.9041 1.03806 20.3063 2.14569 20.3063C3.25333 20.3063 4.21896 19.9041 4.31836 19.387V17.2466L3.18232 17.8212L0.015625 14.8477Z" fill="#F8961A"/>
<path d="M9.99665 25.7813L10.0393 25.6951C10.0393 25.6951 9.93985 25.7094 9.67004 25.6663C9.52804 25.652 9.35764 25.6089 9.11623 25.5658C8.87482 25.5227 8.59081 25.4365 8.25 25.3359L8.3778 26.9592L8.44881 27.778L8.51981 28.5968L9.25823 27.189L9.99665 25.7813Z" fill="#58453B"/>
<path d="M8.44922 25.3945L8.49182 26.9603L8.50602 27.7504L8.52022 28.5405L9.20184 27.1614L9.21604 27.1327L9.88346 25.7824L9.92607 25.7106C9.92607 25.7106 9.75566 25.6962 9.62786 25.6818C9.58525 25.6818 9.45745 25.6531 9.40065 25.6531C9.35805 25.6387 9.21604 25.61 9.17344 25.5956C9.08824 25.5813 8.79003 25.4951 8.67643 25.4664C8.61962 25.4376 8.49182 25.4089 8.44922 25.3945Z" fill="#6A4E49"/>
<path d="M8.63704 25.4531L8.58024 26.9614L8.52344 28.4698L9.16246 27.0764L9.81568 25.683L9.38966 25.6399L8.80745 25.4962L8.63704 25.4531Z" fill="#7C5656"/>
<path d="M9.80148 25.683L9.16246 27.0764L8.52344 28.4554V28.3405L8.58024 26.9471L8.63704 25.4531L8.80745 25.4962L9.07726 25.5537L9.31866 25.6255L9.37546 25.6399L9.80148 25.683Z" fill="#7D5757"/>
<path d="M9.78728 25.6803L9.16246 27.0737L8.52344 28.4528V28.3378L8.58024 26.9444L8.63704 25.4648L8.80745 25.4936L9.07726 25.551L9.30446 25.6085L9.37546 25.6372L9.78728 25.6803Z" fill="#7E5858"/>
<path d="M9.78728 25.6816L9.14826 27.075L8.52344 28.454V28.3391L8.59444 26.9457L8.65124 25.4805L8.82165 25.5092L9.07726 25.5523L9.30446 25.6098L9.37546 25.6241L9.78728 25.6816Z" fill="#7F5959"/>
<path d="M9.77308 25.6816L9.14826 27.0606L8.52344 28.454V28.3391L8.59444 26.9457L8.65124 25.4805L8.82165 25.5092L9.07726 25.5523L9.30446 25.6098L9.36126 25.6241L9.77308 25.6816Z" fill="#805959"/>
<path d="M9.75888 25.6789L9.14826 27.058L8.52344 28.4514V28.3364L8.59444 26.943L8.66544 25.4922L8.82165 25.5209L9.06305 25.5496L9.29026 25.6071L9.36126 25.6215L9.75888 25.6789Z" fill="#815A5A"/>
<path d="M9.75888 25.6802L9.13406 27.0592L8.52344 28.4526V28.3377L8.59444 26.9443L8.66544 25.5078L8.82165 25.5222L9.06305 25.5509L9.29026 25.6084L9.34706 25.6227L9.75888 25.6802Z" fill="#825B5B"/>
<path d="M9.74468 25.6802L9.13406 27.0592L8.52344 28.4526V28.3377L8.60864 26.9443L8.67964 25.5078L8.82165 25.5222L9.06305 25.5509L9.29026 25.6084L9.34706 25.6227L9.74468 25.6802Z" fill="#835C5C"/>
<path d="M9.74468 25.6671L9.13406 27.0605L8.52344 28.4395V28.3246L8.60864 26.9456L8.67964 25.5234L8.82165 25.5378L9.06305 25.5522L9.27606 25.6096L9.34706 25.624L9.74468 25.6671Z" fill="#845D5D"/>
<path d="M9.73048 25.6644L9.13406 27.0578L8.52344 28.4369V28.322L8.60864 26.9429L8.69384 25.5352H8.83585L9.06305 25.5495L9.27606 25.607L9.33286 25.6213L9.73048 25.6644Z" fill="#855E5E"/>
<path d="M9.71627 25.6644L9.11986 27.0578L8.52344 28.4369L8.53764 28.322L8.62284 26.9429L8.69384 25.5352L8.83585 25.5495H9.04885L9.27606 25.607L9.33286 25.6213L9.71627 25.6644Z" fill="#865E5E"/>
<path d="M9.71627 25.6657L9.11986 27.0591L8.52344 28.4381L8.53764 28.3232L8.62284 26.9298L8.70804 25.5508H8.83585H9.04885L9.26186 25.6082L9.31866 25.6226L9.71627 25.6657Z" fill="#875F5F"/>
<path d="M9.70207 25.6657L9.11986 27.0447L8.52344 28.4381L8.53764 28.3232L8.62284 26.9298L8.70804 25.5651L8.83585 25.5508H9.04885L9.26186 25.6082L9.31866 25.6226L9.70207 25.6657Z" fill="#886060"/>
<path d="M9.69959 25.6657L9.11738 27.0447L8.53516 28.4381V28.3232L8.63456 26.9298L8.70556 25.5651H8.83337L9.04637 25.5508L9.25938 25.5939L9.31618 25.6082L9.69959 25.6657Z" fill="#896161"/>
<path d="M9.68539 25.6657L9.10317 27.0447L8.53516 28.4381V28.3232L8.63456 26.9298L8.71976 25.5795L8.84757 25.5651L9.03217 25.5508L9.24518 25.5939L9.30198 25.6082L9.68539 25.6657Z" fill="#8A6262"/>
<path d="M9.67119 25.6657L9.10317 27.0447L8.53516 28.4381V28.3089L8.63456 26.9298L8.71976 25.5939L8.84757 25.5795L9.03217 25.5508L9.24518 25.5939L9.30198 25.6082L9.67119 25.6657Z" fill="#8B6363"/>
<path d="M9.67119 25.6657L9.10317 27.0447L8.53516 28.4238V28.3089L8.63456 26.9298L8.73396 25.5939L8.84757 25.5795L9.03217 25.5508L9.24518 25.5939L9.30198 25.6082L9.67119 25.6657Z" fill="#8C6363"/>
<path d="M9.65699 25.6657L9.08897 27.0447L8.53516 28.4238V28.3089L8.64876 26.9298L8.73396 25.6082L8.84757 25.5795L9.03217 25.5508L9.23098 25.5939L9.28778 25.6082L9.65699 25.6657Z" fill="#8D6464"/>
<path d="M9.64279 25.6513L9.08897 27.0447L8.53516 28.4238V28.3089L8.64876 26.9298L8.74816 25.6226L8.84757 25.5939L9.01797 25.5508L9.23098 25.5939L9.28778 25.6082L9.64279 25.6513Z" fill="#8E6565"/>
<path d="M9.64279 25.6501L9.08897 27.0435L8.53516 28.4225V28.3076L8.64876 26.9286L8.74816 25.6357L8.86177 25.5926L9.01797 25.5352L9.21678 25.5926L9.27358 25.607L9.64279 25.6501Z" fill="#8F6666"/>
<path d="M9.62859 25.6501L9.08897 27.0435L8.53516 28.4225V28.3076L8.66296 26.9286L8.76236 25.6357L8.86177 25.607L9.01797 25.5352L9.21678 25.5926L9.27358 25.607L9.62859 25.6501Z" fill="#906767"/>
<path d="M9.62859 25.6501L9.07477 27.0291L8.53516 28.4225V28.3076L8.66296 26.9142L8.76236 25.6501L8.86177 25.607L9.01797 25.5352L9.21678 25.5926L9.27358 25.607L9.62859 25.6501Z" fill="#916868"/>
<path d="M9.61439 25.6501L9.07477 27.0291L8.53516 28.4225V28.2932L8.66296 26.9142L8.77656 25.6644L8.86177 25.607L9.01797 25.5352L9.20258 25.5926L9.25938 25.607L9.61439 25.6501Z" fill="#916868"/>
<path d="M9.60019 25.6501L9.07477 27.0291L8.53516 28.4081V28.2932L8.67716 26.9142L8.77656 25.6644L8.86177 25.6213L9.00377 25.5352L9.20258 25.5926H9.25938L9.60019 25.6501Z" fill="#926969"/>
<path d="M9.60019 25.6501L9.07477 27.0291L8.53516 28.4081V28.2932L8.67716 26.9142L8.79076 25.6788L8.87597 25.6213L9.00377 25.5352L9.20258 25.5783L9.24518 25.5926L9.60019 25.6501Z" fill="#936A6A"/>
<path d="M9.58599 25.6501L9.06057 27.0291L8.53516 28.4081L8.54936 28.2932L8.67716 26.9142L8.79076 25.6932L8.87597 25.6213L9.00377 25.5352L9.18838 25.5783L9.24518 25.5926L9.58599 25.6501Z" fill="#946B6B"/>
<path d="M9.58599 25.6501L9.06057 27.0291L8.53516 28.4081L8.54936 28.2932L8.67716 26.9142L8.79076 25.6932L8.87597 25.6357L9.00377 25.5352L9.18838 25.5783L9.24518 25.5926L9.58599 25.6501Z" fill="#956C6C"/>
<path d="M9.57321 25.6501L9.062 27.0291L8.55078 28.4081V28.2932L8.69279 26.9142L8.80639 25.7075L8.87739 25.6357L8.99099 25.5352L9.1898 25.5783L9.2324 25.5926L9.57321 25.6501Z" fill="#966C6C"/>
<path d="M9.55901 25.6501L9.0478 27.0291L8.55078 28.4081V28.2932L8.69279 26.9142L8.80639 25.7219L8.87739 25.6501L8.99099 25.5352L9.1756 25.5783L9.2324 25.5926L9.55901 25.6501Z" fill="#976D6D"/>
<path d="M9.55901 25.6357L9.0478 27.0291L8.55078 28.4081V28.2789L8.69279 26.9142L8.82059 25.7219L8.89159 25.6501L8.99099 25.5352L9.1756 25.5783L9.2182 25.5926L9.55901 25.6357Z" fill="#986E6E"/>
<path d="M9.54481 25.6357L9.0478 27.0147L8.55078 28.3938V28.2789L8.70699 26.9142L8.82059 25.7363L8.89159 25.6501L8.99099 25.5352L9.1756 25.5783L9.2182 25.5926L9.54481 25.6357Z" fill="#996F6F"/>
<path d="M9.53061 25.6357L9.0478 27.0147L8.55078 28.3938V28.2789L8.70699 26.8998L8.83479 25.7506L8.89159 25.6644L8.99099 25.5352L9.1614 25.5783L9.2182 25.5926L9.53061 25.6357Z" fill="#9A7070"/>
<path d="M9.53061 25.6357L9.0336 27.0147L8.55078 28.3938V28.2789L8.70699 26.8998L8.83479 25.7506L8.89159 25.6644L8.97679 25.5352L9.1614 25.5783H9.204L9.53061 25.6357Z" fill="#9B7171"/>
<path d="M9.51641 25.6357L9.0336 27.0147L8.55078 28.3938V28.2789L8.72119 26.8998L8.84899 25.765L8.89159 25.6788L8.97679 25.5352L9.1614 25.5783H9.204L9.51641 25.6357Z" fill="#9C7171"/>
<path d="M9.51641 25.6357L9.0336 27.0147L8.55078 28.3938V28.2789L8.72119 26.8998L8.84899 25.7794L8.90579 25.6788L8.97679 25.5352L9.1472 25.5783H9.1898L9.51641 25.6357Z" fill="#9D7272"/>
<path d="M9.50221 25.6357L9.0336 27.0147L8.55078 28.3938V28.2789L8.72119 26.8998L8.86319 25.7794L8.90579 25.6788L8.97679 25.5352L9.1472 25.5783H9.1898L9.50221 25.6357Z" fill="#9E7373"/>
<path d="M9.48801 25.6384L9.0194 27.0174L8.55078 28.3964V28.2671L8.73539 26.9025L8.86319 25.7964L8.90579 25.6958L8.96259 25.5234L9.1472 25.5665L9.1898 25.5809L9.48801 25.6384Z" fill="#9F7474"/>
<path d="M9.48801 25.6384L9.0194 27.0174L8.55078 28.3964V28.2671L8.73539 26.9025L8.86319 25.8107L8.90579 25.6958L8.96259 25.5234L9.133 25.5665L9.1756 25.5809L9.48801 25.6384Z" fill="#A07575"/>
<path d="M9.47381 25.6384L9.0194 27.0174L8.55078 28.3821V28.2671L8.73539 26.9025L8.87739 25.8251L8.90579 25.7102L8.96259 25.5234L9.133 25.5665L9.1756 25.5809L9.47381 25.6384Z" fill="#A17676"/>
<path d="M9.47381 25.6384L9.0052 27.003L8.55078 28.3821V28.2671L8.73539 26.9025L8.87739 25.8251L8.90579 25.7102L8.96259 25.5234L9.1188 25.5665L9.1614 25.5809L9.47381 25.6384Z" fill="#A27676"/>
<path d="M9.45961 25.624L9.0052 27.003L8.55078 28.3821V28.2671L8.74959 26.9025L8.89159 25.8395L8.91999 25.7102L8.96259 25.5234L9.1188 25.5665L9.1614 25.5809L9.45961 25.624Z" fill="#A37777"/>
<path d="M9.44293 25.624L9.00271 27.003L8.5625 28.3821V28.2671L8.74711 26.8881L8.88911 25.8538L8.91751 25.7245L8.94591 25.5234L9.11632 25.5665L9.15892 25.5809L9.44293 25.624Z" fill="#A47878"/>
<path d="M8.5625 28.2671L8.74711 26.8881L8.94591 25.5234L9.10212 25.5665L9.44293 25.624L9.00271 27.003L8.5625 28.3821V28.2671Z" fill="#A57979"/>
<path d="M9.42873 25.6213L8.98851 27.0004L8.5625 28.3794V28.2645L8.6619 27.575L8.74711 26.8998L8.77551 26.7705L8.94591 25.5352L9.10212 25.5639L9.30092 25.5926L9.42873 25.6213Z" fill="#A67A7A"/>
<path d="M9.42873 25.6213L8.98851 27.0004L8.5625 28.3794V28.2645L8.6619 27.575L8.74711 26.8998L8.77551 26.7705L8.94591 25.5352L9.10212 25.5639L9.28672 25.5926L9.42873 25.6213Z" fill="#A77B7B"/>
<path d="M9.42873 25.6226L8.98851 27.0016L8.5625 28.3807V28.2658L8.6619 27.5762L8.76131 26.9011L8.77551 26.7862L8.94591 25.5508L9.10212 25.5795L9.28672 25.5939L9.42873 25.6226Z" fill="#A77C7C"/>
<path d="M9.41453 25.6226L8.98851 27.0016L8.5625 28.3807V28.2658L8.6619 27.5762L8.76131 26.9011L8.77551 26.7862L8.96011 25.5508L9.10212 25.5795L9.28672 25.5939L9.41453 25.6226Z" fill="#A87D7D"/>
<path d="M9.41453 25.6239L8.98851 27.0029L8.5625 28.3819V28.267L8.6619 27.5775L8.76131 26.9167L8.77551 26.7874L8.96011 25.5664L9.10212 25.5808L9.28672 25.5951L9.41453 25.6239Z" fill="#A97E7E"/>
<path d="M9.41453 25.6239L8.98851 27.0029L8.5625 28.3819V28.267L8.6619 27.5775L8.76131 26.9167L8.77551 26.7874L8.96011 25.5664L9.10212 25.5808L9.27252 25.5951L9.41453 25.6239Z" fill="#AA7F7F"/>
<path d="M9.40033 25.6251L8.98851 27.0042L8.5625 28.3832V28.2683L8.6619 27.5931L8.76131 26.918L8.77551 26.8031L8.96011 25.582L9.10212 25.5964H9.27252L9.40033 25.6251Z" fill="#AA8080"/>
<path d="M9.40033 25.6225L8.97431 27.0015L8.5625 28.3805V28.2656L8.6619 27.5905L8.76131 26.9297L8.77551 26.8004L8.96011 25.5938H9.10212H9.27252L9.40033 25.6225Z" fill="#AB8181"/>
<path d="M9.40033 25.6225L8.97431 27.0015L8.5625 28.3805V28.2656L8.6619 27.5905L8.76131 26.9297L8.77551 26.8004L8.96011 25.5938H9.10212H9.25832L9.40033 25.6225Z" fill="#AC8282"/>
<path d="M9.38613 25.6225L8.97431 27.0015L8.5625 28.3805V28.2656L8.6619 27.5905L8.76131 26.9297L8.78971 26.8148L8.97431 25.6081H9.10212L9.25832 25.5938L9.38613 25.6225Z" fill="#AD8383"/>
<path d="M9.38613 25.6225L8.97431 27.0015L8.5625 28.3805V28.2656L8.6619 27.5905L8.76131 26.9297L8.78971 26.8148L8.97431 25.6081H9.10212L9.25832 25.5938L9.38613 25.6225Z" fill="#AD8484"/>
<path d="M9.38613 25.6225L8.97431 27.0015L8.5625 28.3805V28.2656L8.6619 27.5905L8.76131 26.9441L8.78971 26.8148L8.97431 25.6225L9.10212 25.6081L9.25832 25.5938L9.38613 25.6225Z" fill="#AE8585"/>
<path d="M9.37192 25.6225L8.97431 27.0015L8.5625 28.3805V28.2656L8.6619 27.6048L8.76131 26.9441L8.78971 26.8291L8.97431 25.6225L9.10212 25.6081L9.24412 25.5938L9.37192 25.6225Z" fill="#AF8686"/>
<path d="M9.37192 25.6225L8.96011 27.0015L8.5625 28.3805V28.2656L8.6619 27.6048L8.77551 26.9441L8.78971 26.8291L8.97431 25.6368L9.10212 25.6225L9.24412 25.5938L9.37192 25.6225Z" fill="#B08787"/>
<path d="M9.37192 25.6225L8.96011 27.0015L8.5625 28.3805V28.2656L8.6619 27.6048L8.77551 26.9584L8.78971 26.8291L8.97431 25.6368L9.10212 25.6225L9.24412 25.5938L9.37192 25.6225Z" fill="#B08888"/>
<path d="M9.37192 25.6225L8.96011 27.0015L8.5625 28.3805V28.2656L8.6619 27.6048L8.77551 26.9584L8.78971 26.8291L8.97431 25.6512L9.10212 25.6225L9.22992 25.5938L9.37192 25.6225Z" fill="#B18989"/>
<path d="M9.35772 25.6081L8.96011 27.0015L8.5625 28.3805V28.2656L8.6761 27.6048L8.77551 26.9584L8.78971 26.8435L8.98851 25.6512L9.10212 25.6225L9.22992 25.5938L9.35772 25.6081Z" fill="#B28A8A"/>
<path d="M9.35772 25.6108L8.96011 27.0042L8.5625 28.3832V28.2683L8.6761 27.6075L8.77551 26.9611L8.78971 26.8461L8.98851 25.6682L9.08792 25.6395L9.22992 25.582L9.35772 25.6108Z" fill="#B38B8B"/>
<path d="M9.35772 25.6108L8.96011 27.0042L8.5625 28.3832V28.2683L8.6761 27.6075L8.77551 26.9754L8.78971 26.8461L8.98851 25.6826L9.08792 25.6395L9.21572 25.582L9.35772 25.6108Z" fill="#B48C8C"/>
<path d="M9.34352 25.6108L8.94591 27.0042L8.5625 28.3832V28.2683L8.6761 27.6219L8.77551 26.9754L8.78971 26.8605L8.98851 25.6826L9.08792 25.6395L9.21572 25.582L9.34352 25.6108Z" fill="#B48D8D"/>
<path d="M9.34352 25.6108L8.94591 27.0042L8.5625 28.3832V28.2683L8.6761 27.6219L8.77551 26.9754L8.80391 26.8605L8.98851 25.697L9.08792 25.6395L9.21572 25.582L9.34352 25.6108Z" fill="#B58E8E"/>
<path d="M9.34352 25.6108L8.94591 27.0042L8.5625 28.3832V28.2683L8.6761 27.6219L8.77551 26.9898L8.80391 26.8605L8.98851 25.697L9.08792 25.6539L9.21572 25.582L9.34352 25.6108Z" fill="#B68F8F"/>
<path d="M9.32932 25.6108L8.94591 26.9898L8.5625 28.3832V28.2683L8.6761 27.6219L8.77551 26.9898L8.80391 26.8749L8.98851 25.7113L9.08792 25.6539L9.20152 25.582L9.32932 25.6108Z" fill="#B79090"/>
<path d="M9.32932 25.6108L8.94591 26.9898L8.5625 28.3832V28.2683L8.6761 27.6219L8.77551 26.9898L8.80391 26.8749L9.00271 25.7113L9.08792 25.6539L9.20152 25.582L9.32932 25.6108Z" fill="#B79090"/>
<path d="M9.32932 25.6108L8.94591 26.9898L8.5625 28.3832V28.2683L8.6761 27.6219L8.78971 26.9898L8.80391 26.8749L9.00271 25.7257L9.08792 25.6539L9.20152 25.582L9.32932 25.6108Z" fill="#B89191"/>
<path d="M9.31512 25.6108L8.93171 26.9898L8.5625 28.3832V28.2683L8.6761 27.6362L8.78971 27.0042L8.80391 26.8892L9.00271 25.7257L9.08792 25.6682L9.18732 25.582L9.31512 25.6108Z" fill="#B99292"/>
<path d="M9.31512 25.6108L8.93171 26.9898L8.5625 28.3832V28.2683L8.6761 27.6362L8.78971 27.0042L8.80391 26.8892L9.00271 25.74L9.08792 25.6682L9.18732 25.582L9.31512 25.6108Z" fill="#BA9393"/>
<path d="M9.31512 25.6108L8.93171 26.9898L8.5625 28.3832V28.2683L8.6761 27.6362L8.78971 27.0042L8.80391 26.8892L9.00271 25.74L9.08792 25.6682L9.18732 25.582L9.31512 25.6108Z" fill="#BA9494"/>
<path d="M9.30092 25.6108L8.93171 26.9898L8.5625 28.3832V28.2683L8.6761 27.6362L8.78971 27.0185L8.80391 26.8892L9.00271 25.7544L9.08792 25.6826L9.18732 25.582L9.30092 25.6108Z" fill="#BB9595"/>
<path d="M9.30092 25.6108L8.93171 26.9898L8.5625 28.3832V28.2683L8.6761 27.6362L8.78971 27.0185L8.80391 26.9036L9.00271 25.7544L9.08792 25.6826L9.17312 25.582L9.30092 25.6108Z" fill="#BC9696"/>
<path d="M9.30092 25.6108L8.93171 26.9898L8.5625 28.3832L8.5767 28.2683L8.6761 27.6362L8.78971 27.0185L8.80391 26.9036L9.01691 25.7688L9.08792 25.6826L9.17312 25.582L9.30092 25.6108Z" fill="#BD9797"/>
<path d="M9.28672 25.6108L8.91751 26.9898L8.5625 28.3832L8.5767 28.2683L8.6761 27.6506L8.78971 27.0185L8.81811 26.9036L9.01691 25.7831L9.08792 25.6826L9.17312 25.582L9.28672 25.6108Z" fill="#BE9898"/>
<path d="M9.28672 25.6108L8.91751 26.9898L8.5625 28.3832L8.5767 28.2683L8.6761 27.6506L8.78971 27.0329L8.81811 26.918L9.01691 25.7831L9.08792 25.697L9.15892 25.582L9.28672 25.6108Z" fill="#BE9999"/>
<path d="M9.28672 25.6108L8.91751 26.9898L8.5625 28.3832L8.5767 28.2683L8.6903 27.6506L8.78971 27.0329L8.81811 26.918L9.01691 25.7975L9.08792 25.697L9.15892 25.582L9.28672 25.6108Z" fill="#BF9A9A"/>
<path d="M9.27252 25.6108L8.91751 26.9898L8.5625 28.3832L8.5767 28.2683L8.6903 27.6506L8.78971 27.0329L8.81811 26.918L9.01691 25.7975L9.08792 25.697L9.15892 25.582L9.27252 25.6108Z" fill="#C09B9B"/>
<path d="M9.27252 25.6095L8.91751 26.9885L8.5625 28.3819L8.5767 28.267L8.6903 27.6493L8.78971 27.0316L8.81811 26.9311L9.01691 25.8106L9.08792 25.6957L9.15892 25.5664L9.27252 25.6095Z" fill="#C19C9C"/>
<path d="M9.27252 25.5951L8.91751 26.9885L8.5625 28.3819L8.5767 28.267L8.6903 27.6493L8.80391 27.046L8.81811 26.9311L9.01691 25.8106L9.07372 25.7101L9.14472 25.5664L9.27252 25.5951Z" fill="#C19D9D"/>
<path d="M9.25832 25.5951L8.91751 26.9885L8.5625 28.3819L8.5767 28.2814L8.6903 27.6493L8.80391 27.046L8.81811 26.9311L9.03111 25.825L9.07372 25.7101L9.14472 25.5664L9.25832 25.5951Z" fill="#C29E9E"/>
<path d="M9.25832 25.5951L8.90331 26.9885L8.5625 28.3819L8.5767 28.2814L8.6903 27.6637L8.80391 27.046L8.81811 26.9311L9.03111 25.825L9.07372 25.7101L9.14472 25.5664L9.25832 25.5951Z" fill="#C39F9F"/>
<path d="M9.25832 25.5951L8.90331 26.9885L8.5625 28.3819L8.5767 28.2814L8.6903 27.6637L8.80391 27.0604L8.81811 26.9454L9.03111 25.8393L9.07372 25.7101L9.13052 25.5664L9.25832 25.5951Z" fill="#C4A0A0"/>
<path d="M9.24412 25.5951L8.90331 26.9885L8.5625 28.3819L8.5767 28.2814L8.6903 27.6637L8.80391 27.0604L8.81811 26.9454L9.03111 25.8393L9.07372 25.7244L9.13052 25.5664L9.24412 25.5951Z" fill="#C4A1A1"/>
<path d="M9.24412 25.5951L8.90331 26.9885L8.5625 28.3819L8.5767 28.2814L8.6903 27.6637L8.80391 27.0604L8.83231 26.9454L9.03111 25.8537L9.07372 25.7244L9.13052 25.5664L9.24412 25.5951Z" fill="#C5A2A2"/>
<path d="M9.24412 25.5951L8.90331 26.9885L8.5625 28.3819L8.5767 28.2814L8.6903 27.6637L8.80391 27.0604L8.83231 26.9598L9.03111 25.8681L9.07372 25.7244L9.13052 25.5664L9.24412 25.5951Z" fill="#C6A3A3"/>
<path d="M9.22992 25.5951L8.90331 26.9885L8.5625 28.3819L8.5767 28.2814L8.6903 27.6637L8.80391 27.0747L8.83231 26.9598L9.03111 25.8681L9.07372 25.7244L9.11632 25.5664L9.22992 25.5951Z" fill="#C7A4A4"/>
<path d="M9.22992 25.5951L8.88911 26.9885L8.5625 28.3819L8.5767 28.2814L8.6903 27.6781L8.80391 27.0747L8.83231 26.9598L9.04532 25.8824L9.07372 25.7388L9.11632 25.5664L9.22992 25.5951Z" fill="#C7A5A5"/>
<path d="M9.22992 25.5951L8.88911 26.9885L8.5625 28.3819L8.5767 28.2814L8.6903 27.6781L8.80391 27.0747L8.83231 26.9742L9.04532 25.8824L9.07372 25.7388L9.11632 25.5664L9.22992 25.5951Z" fill="#C8A6A6"/>
<path d="M9.10212 25.5664L9.22992 25.5951L8.88911 26.9885L8.5625 28.3819L8.6903 27.6781L8.83231 26.9742L9.10212 25.5664Z" fill="#C9A7A7"/>
<path d="M13.5175 17.8254L12.7223 17.38L12.6797 17.3657V19.5779C12.8075 20.0807 13.7305 20.4541 14.7956 20.4541C15.534 20.4541 16.1872 20.2674 16.5564 19.9801L16.7978 19.8508L16.9114 19.5635V19.463V15.2109L13.5175 17.8254Z" fill="#F8961A"/>
<path d="M13.5317 16.4599L16.883 13.5582V9.67969L12.6797 9.69405V16.029L12.7223 16.0434L13.5317 16.4599Z" fill="#F8961A"/>
<path d="M29.4659 41.4418L27.421 35.8826V41.4418H24.4531V27.9531H27.4352V33.34L29.3807 27.9531H32.448L29.7641 34.2306L32.661 41.4418H29.4659Z" fill="#A82A1C"/>
<path d="M38.5679 41.4418V35.9831H36.8355V41.4418H34.0664V27.9531H39.278L41.4222 29.6482V33.3687L39.8602 34.6903L41.5216 36.1555V41.4418H38.5679ZM38.5821 30.5388H36.8923V33.4549H38.5821V30.5388Z" fill="#A82A1C"/>
<path d="M48.6923 41.4418L48.3799 38.9279H46.2498L45.9516 41.4418H43.0547L45.0996 27.9531H49.6437L51.6886 41.4418H48.6923ZM47.5846 30.5532H47.3006L46.6048 36.2417H48.1526L47.5846 30.5532Z" fill="#A82A1C"/>
<path d="M58.5489 41.4418H55.4106L53.1953 39.4164V29.6482L55.0272 27.9531H58.6909L60.6647 29.6482V33.1532H57.7821V30.5388H56.0354V38.7843H57.7821V35.624H60.6789V39.4164L58.5489 41.4418Z" fill="#A82A1C"/>
<path d="M67.1378 41.4418L65.0929 35.8826V41.4418H62.125V27.9531H65.1071V33.34L67.0526 27.9531H70.134L67.436 34.2306L70.3329 41.4418H67.1378Z" fill="#A82A1C"/>
<path d="M80.431 41.4418H76.9802L74.9922 39.4164V27.9531H77.9743V38.7843H79.6641V27.9531H82.5184V39.4164L80.431 41.4418Z" fill="#A82A1C"/>
<path d="M89.1378 41.4549L87.0361 34.4448V41.4549H84.2812V27.9375H87.0503L89.0242 34.3443V27.9375H91.7649V41.4549H89.1378Z" fill="#A82A1C"/>
<path d="M93.2109 41.4418V27.9531H96.193V41.4418H93.2109Z" fill="#A82A1C"/>
<path d="M103.493 41.4549H99.2474L97.7422 27.9375H100.596L101.321 38.9123H101.548L102.272 27.9375H105.169L103.493 41.4549Z" fill="#A82A1C"/>
<path d="M109.54 30.5362V32.9064H112.096V35.6214H109.44V38.7816H112.564V41.4535H106.586V27.9648H112.607V30.5505H109.54V30.5362Z" fill="#A82A1C"/>
<path d="M118.619 41.4418V35.9831H116.886V41.4418H114.117V27.9531H119.329L121.473 29.6482V33.3687L119.911 34.6903L121.572 36.1555V41.4418H118.619ZM118.633 30.5388H116.943V33.4549H118.633V30.5388Z" fill="#A82A1C"/>
<path d="M128.513 41.4705H125.105L123.074 39.4164V36.9743H125.943V38.7699H127.732V36.055H125.403L123.174 33.9864V29.6482L125.204 27.9531H128.3L130.373 29.6482V32.4494H127.633V30.5388H125.929V33.2538H128.272L130.558 35.4804V39.4164L128.513 41.4705Z" fill="#A82A1C"/>
<path d="M132.047 41.4418V27.9531H135.029V41.4418H132.047Z" fill="#A82A1C"/>
<path d="M141.322 30.5388V41.4418H138.425V30.5388H136.551V27.9531H143.225V30.5388H141.322Z" fill="#A82A1C"/>
<path d="M150.37 35.594V41.4406H147.43V35.594L144.789 27.9375H147.828L148.794 31.8448L149.944 27.9375H153.025L150.37 35.594Z" fill="#A82A1C"/>
</svg>
