<svg width="250" height="40" viewBox="0 0 250 40" fill="none" xmlns="http://www.w3.org/2000/svg">
<path d="M39.1963 18.7181C39.1963 17.0917 39.4442 15.6857 39.94 14.4728C40.4358 13.2598 41.0969 12.2674 41.8957 11.4404C42.6945 10.6409 43.6311 10.0345 44.6778 9.62096C45.7245 9.20745 46.7988 8.98692 47.9006 8.98692C50.4899 8.98692 52.5282 9.78636 54.0157 11.3577C55.5031 12.929 56.2744 15.2722 56.2744 18.3322C56.2744 18.6354 56.2744 18.9662 56.2468 19.3246C56.2193 19.683 56.1917 19.9862 56.1642 20.2619H44.485C44.5952 21.3095 45.091 22.164 45.9724 22.7981C46.8539 23.4321 48.0108 23.7354 49.4982 23.7354C50.4348 23.7354 51.3713 23.6527 52.2803 23.4873C53.1893 23.3219 53.933 23.1013 54.5115 22.8532L55.2001 27.0434C54.9246 27.1813 54.5666 27.3191 54.0983 27.4569C53.63 27.5948 53.1342 27.705 52.5558 27.8153C52.0049 27.9256 51.3989 28.0083 50.7378 28.0634C50.1042 28.1461 49.4431 28.1737 48.8096 28.1737C47.1844 28.1737 45.7521 27.9256 44.5401 27.4569C43.3281 26.9607 42.3365 26.2991 41.5376 25.4721C40.7388 24.6175 40.1604 23.6251 39.7747 22.4948C39.3616 21.3095 39.1963 20.0689 39.1963 18.7181ZM51.2887 16.7609C51.2611 16.3198 51.1785 15.9063 51.0683 15.4928C50.9306 15.0793 50.7378 14.7209 50.4899 14.3901C50.2144 14.0593 49.8839 13.8112 49.4982 13.5906C49.0851 13.3701 48.5892 13.2874 47.9832 13.2874C47.4048 13.2874 46.909 13.3977 46.4958 13.5906C46.0826 13.7836 45.7245 14.0593 45.4491 14.3625C45.1736 14.6933 44.9533 15.0517 44.8155 15.4928C44.6778 15.9063 44.5676 16.3474 44.485 16.7884H51.2887V16.7609Z" fill="#AF776D"/>
<path d="M66.1087 14.5831L69.7172 9.48312H75.0334L68.7255 18.3322C70.1579 19.9862 71.4525 21.6403 72.5819 23.2943C73.7112 24.9483 74.5927 26.4094 75.2813 27.6775H69.7723C69.5794 27.3191 69.3591 26.9056 69.0836 26.3818C68.8082 25.858 68.5052 25.3343 68.1471 24.7554C67.789 24.1764 67.4309 23.7078 67.0728 23.3219C66.6872 22.9359 66.3291 22.5775 65.971 22.2467C65.6129 22.55 65.2824 22.8808 64.8967 23.2392C64.5387 23.5975 64.2081 24.0386 63.8776 24.5899C63.547 25.1413 63.244 25.6651 62.9135 26.1888C62.5829 26.7126 62.335 27.2088 62.0871 27.6775H56.8535C57.1565 27.0986 57.5146 26.4369 58.0104 25.6375C58.5062 24.8381 59.0021 24.0386 59.5805 23.184C60.159 22.357 60.765 21.53 61.426 20.7305C62.0871 19.9311 62.7207 19.1868 63.3542 18.4976C62.2249 16.8987 61.1506 15.3549 60.1039 13.8663C59.0572 12.3777 58.038 10.9166 57.0188 9.48312H62.5829L66.1087 14.5831Z" fill="#AF776D"/>
<path d="M82.9934 9.01448C84.5084 9.01448 85.7754 9.17988 86.7946 9.53826C87.8138 9.89663 88.6126 10.3928 89.2186 11.0269C89.8246 11.6609 90.2653 12.4604 90.5132 13.3701C90.7611 14.2798 90.8989 15.3274 90.8989 16.4576V27.1813C90.1551 27.3467 89.136 27.5396 87.8138 27.7602C86.4916 27.9807 84.9215 28.091 83.0485 28.091C81.864 28.091 80.8173 27.9807 79.8532 27.7877C78.8891 27.5672 78.0627 27.2364 77.3741 26.7678C76.6855 26.2991 76.1621 25.6651 75.7765 24.9208C75.4184 24.1489 75.2256 23.2392 75.2256 22.1089C75.2256 21.0613 75.4459 20.1516 75.8591 19.4073C76.2723 18.663 76.8508 18.0841 77.5669 17.643C78.2831 17.2019 79.1095 16.8987 80.0185 16.7057C80.9275 16.5128 81.8915 16.4025 82.8832 16.4025C83.5443 16.4025 84.1503 16.4301 84.6736 16.4852C85.197 16.5403 85.6102 16.623 85.9407 16.7057V16.2095C85.9407 15.3274 85.6653 14.6382 85.1419 14.0868C84.6185 13.5631 83.682 13.2874 82.3874 13.2874C81.5059 13.2874 80.652 13.3425 79.7981 13.4804C78.9442 13.6182 78.2005 13.7836 77.5945 14.0041L76.9334 9.8415C77.2364 9.75879 77.5945 9.64853 78.0627 9.53826C78.5035 9.42799 78.9993 9.34529 79.5227 9.26259C80.046 9.17988 80.6245 9.12475 81.2029 9.04205C81.8089 9.04205 82.3874 9.01448 82.9934 9.01448ZM83.4065 24.0662C83.9024 24.0662 84.3982 24.0662 84.8664 24.0386C85.3347 24.011 85.6928 23.9835 85.9682 23.9283V20.0138C85.7479 19.9587 85.4449 19.9311 85.0317 19.876C84.6185 19.8208 84.2329 19.8208 83.9024 19.8208C83.4065 19.8208 82.9658 19.8484 82.5251 19.9035C82.1119 19.9587 81.7263 20.0689 81.3957 20.2343C81.0652 20.3997 80.8173 20.6203 80.6245 20.8959C80.4317 21.1716 80.349 21.53 80.349 21.9435C80.349 22.7429 80.6245 23.3219 81.1478 23.6251C81.7263 23.9283 82.47 24.0662 83.4065 24.0662Z" fill="#AF776D"/>
<path d="M103.68 18.029C103.68 16.3749 103.46 15.1895 103.047 14.5004C102.634 13.8112 101.89 13.4528 100.843 13.4528C100.513 13.4528 100.182 13.4804 99.8516 13.5079C99.4935 13.5355 99.1629 13.5906 98.8599 13.6182V27.6499H93.709V10.0896C94.1497 9.97934 94.6455 9.8415 95.2515 9.73123C95.83 9.5934 96.4635 9.48313 97.1246 9.37286C97.7857 9.26259 98.4468 9.17989 99.1354 9.12476C99.824 9.06962 100.513 9.04205 101.174 9.04205C102.496 9.04205 103.543 9.20746 104.369 9.53826C105.195 9.86907 105.856 10.2826 106.38 10.7237C107.124 10.1999 107.95 9.78637 108.914 9.48313C109.878 9.17989 110.76 9.04205 111.558 9.04205C113.018 9.04205 114.203 9.23502 115.139 9.64853C116.076 10.062 116.819 10.6134 117.37 11.3577C117.921 12.102 118.307 12.9842 118.5 13.9766C118.72 14.9966 118.803 16.1268 118.803 17.3673V27.6499H113.652V18.0014C113.652 16.3474 113.431 15.162 113.018 14.4728C112.605 13.7836 111.861 13.4252 110.815 13.4252C110.539 13.4252 110.154 13.5079 109.658 13.6458C109.162 13.7836 108.749 13.949 108.418 14.1696C108.583 14.6933 108.694 15.2722 108.721 15.8511C108.776 16.4301 108.804 17.0641 108.804 17.7257V27.6499H103.653V18.029H103.68Z" fill="#AF776D"/>
<path d="M127.314 16.0165C127.81 15.4652 128.333 14.8863 128.884 14.3074C129.435 13.7009 129.958 13.122 130.454 12.5431C130.95 11.9642 131.446 11.4128 131.887 10.889C132.327 10.3653 132.713 9.89663 133.043 9.51068H139.159C137.947 10.9166 136.735 12.2674 135.578 13.5355C134.421 14.8036 133.154 16.1268 131.749 17.4776C132.437 18.1117 133.154 18.856 133.897 19.7105C134.641 20.5651 135.357 21.4749 136.046 22.3846C136.735 23.2943 137.368 24.2316 137.947 25.1689C138.525 26.1061 138.993 26.9332 139.406 27.705H133.484C133.126 27.0986 132.685 26.4369 132.217 25.7202C131.749 25.0034 131.253 24.2591 130.73 23.5424C130.206 22.8256 129.655 22.1089 129.049 21.4473C128.471 20.7857 127.893 20.2068 127.314 19.7381V27.705H122.163V1.6816L127.314 0.854584V16.0165V16.0165Z" fill="#F8961A"/>
<path d="M151.828 14.0593C151.36 13.949 150.837 13.8112 150.203 13.7009C149.57 13.5631 148.908 13.5079 148.192 13.5079C147.862 13.5079 147.476 13.5355 147.035 13.5906C146.595 13.6458 146.237 13.7009 146.016 13.7836V27.6775H140.865V10.448C141.774 10.1172 142.876 9.81393 144.143 9.53826C145.41 9.26259 146.787 9.09718 148.33 9.09718C148.605 9.09718 148.936 9.12475 149.322 9.15232C149.707 9.17988 150.093 9.23502 150.506 9.29015C150.892 9.34529 151.277 9.42799 151.691 9.51069C152.076 9.59339 152.407 9.67609 152.682 9.81393L151.828 14.0593Z" fill="#F8961A"/>
<path d="M160.313 9.01448C161.828 9.01448 163.095 9.17988 164.114 9.53826C165.133 9.89663 165.932 10.3928 166.538 11.0269C167.144 11.6609 167.585 12.4604 167.833 13.3701C168.08 14.2798 168.218 15.3274 168.218 16.4576V27.1813C167.474 27.3467 166.455 27.5396 165.133 27.7602C163.811 27.9807 162.241 28.091 160.368 28.091C159.183 28.091 158.137 27.9807 157.173 27.7877C156.208 27.5672 155.382 27.2364 154.693 26.7678C154.005 26.2991 153.481 25.6651 153.096 24.9208C152.738 24.1489 152.545 23.2392 152.545 22.1089C152.545 21.0613 152.765 20.1516 153.178 19.4073C153.592 18.663 154.17 18.0841 154.886 17.643C155.602 17.2019 156.429 16.8987 157.338 16.7057C158.247 16.5128 159.211 16.4025 160.203 16.4025C160.864 16.4025 161.47 16.4301 161.993 16.4852C162.516 16.5403 162.93 16.623 163.26 16.7057V16.2095C163.26 15.3274 162.985 14.6382 162.461 14.0868C161.938 13.5631 161.001 13.2874 159.707 13.2874C158.825 13.2874 157.971 13.3425 157.117 13.4804C156.264 13.6182 155.52 13.7836 154.914 14.0041L154.253 9.8415C154.556 9.75879 154.914 9.64853 155.382 9.53826C155.823 9.42799 156.319 9.34529 156.842 9.26259C157.365 9.17988 157.944 9.12475 158.522 9.04205C159.128 9.04205 159.707 9.01448 160.313 9.01448ZM160.726 24.0662C161.222 24.0662 161.718 24.0662 162.186 24.0386C162.654 24.011 163.012 23.9835 163.288 23.9283V20.0138C163.067 19.9587 162.764 19.9311 162.351 19.876C161.938 19.8208 161.552 19.8208 161.222 19.8208C160.726 19.8208 160.285 19.8484 159.844 19.9035C159.431 19.9587 159.046 20.0689 158.715 20.2343C158.385 20.3997 158.137 20.6203 157.944 20.8959C157.751 21.1716 157.668 21.53 157.668 21.9435C157.668 22.7429 157.944 23.3219 158.467 23.6251C159.046 23.9283 159.789 24.0662 160.726 24.0662Z" fill="#F8961A"/>
<path d="M170.725 18.5803C170.725 17.2571 170.945 16.0165 171.358 14.8587C171.771 13.7009 172.405 12.6809 173.204 11.8263C174.002 10.9717 174.994 10.2826 176.151 9.75879C177.308 9.26258 178.603 8.98691 180.09 8.98691C181.054 8.98691 181.936 9.06961 182.762 9.23501C183.561 9.40042 184.36 9.64852 185.103 9.97933L184.029 14.0868C183.533 13.8939 183.01 13.7285 182.431 13.5906C181.853 13.4528 181.219 13.3701 180.503 13.3701C178.988 13.3701 177.859 13.8387 177.088 14.776C176.344 15.7133 175.958 16.9538 175.958 18.4976C175.958 20.1241 176.316 21.3921 177.005 22.3019C177.694 23.2116 178.933 23.6527 180.696 23.6527C181.33 23.6527 181.991 23.5975 182.707 23.4873C183.423 23.377 184.084 23.184 184.663 22.9359L185.379 27.1537C184.773 27.4018 184.029 27.6223 183.12 27.8153C182.211 28.0083 181.219 28.091 180.145 28.091C178.492 28.091 177.06 27.8429 175.848 27.3467C174.664 26.8505 173.672 26.1888 172.901 25.3343C172.129 24.4797 171.551 23.4597 171.22 22.3019C170.89 21.1992 170.725 19.9311 170.725 18.5803Z" fill="#F8961A"/>
<path d="M192.679 16.0165C193.175 15.4652 193.698 14.8863 194.249 14.3074C194.8 13.7009 195.324 13.122 195.819 12.5431C196.315 11.9642 196.811 11.4128 197.252 10.889C197.693 10.3653 198.078 9.89663 198.409 9.51068H204.524C203.312 10.9166 202.1 12.2674 200.943 13.5355C199.786 14.8036 198.519 16.1268 197.114 17.4776C197.803 18.1117 198.519 18.856 199.263 19.7105C200.006 20.5651 200.723 21.4749 201.411 22.3846C202.1 23.2943 202.733 24.2316 203.312 25.1689C203.89 26.1061 204.358 26.9332 204.772 27.705H198.849C198.491 27.0986 198.051 26.4369 197.582 25.7202C197.114 25.0034 196.618 24.2591 196.095 23.5424C195.572 22.8256 195.021 22.1089 194.415 21.4473C193.836 20.7857 193.258 20.2068 192.679 19.7381V27.705H187.528V1.6816L192.679 0.854584V16.0165V16.0165Z" fill="#F8961A"/>
<path d="M204.138 18.7181C204.138 17.0917 204.386 15.6857 204.881 14.4728C205.377 13.2598 206.038 12.2674 206.837 11.4404C207.636 10.6409 208.572 10.0345 209.619 9.62095C210.666 9.20745 211.74 8.98691 212.842 8.98691C215.431 8.98691 217.47 9.78636 218.957 11.3577C220.444 12.929 221.216 15.2722 221.216 18.3322C221.216 18.6354 221.216 18.9662 221.188 19.3246C221.161 19.683 221.133 19.9862 221.106 20.2619H209.426C209.537 21.3094 210.032 22.164 210.914 22.7981C211.795 23.4321 212.952 23.7354 214.44 23.7354C215.376 23.7354 216.313 23.6527 217.222 23.4873C218.131 23.3219 218.874 23.1013 219.453 22.8532L220.142 27.0434C219.866 27.1813 219.508 27.3191 219.04 27.4569C218.571 27.5948 218.076 27.705 217.497 27.8153C216.946 27.9256 216.34 28.0083 215.679 28.0634C215.046 28.1461 214.385 28.1737 213.751 28.1737C212.126 28.1737 210.693 27.9256 209.481 27.4569C208.269 26.9607 207.278 26.2991 206.479 25.4721C205.68 24.6175 205.102 23.6251 204.716 22.4948C204.331 21.3094 204.138 20.0689 204.138 18.7181ZM216.23 16.7609C216.203 16.3198 216.12 15.9063 216.01 15.4928C215.872 15.0793 215.679 14.7209 215.431 14.3901C215.156 14.0593 214.825 13.8112 214.44 13.5906C214.026 13.3701 213.531 13.2874 212.925 13.2874C212.346 13.2874 211.85 13.3977 211.437 13.5906C211.024 13.7836 210.666 14.0593 210.39 14.3625C210.115 14.6933 209.895 15.0517 209.757 15.4928C209.619 15.9063 209.509 16.3474 209.426 16.7884H216.23V16.7609Z" fill="#F8961A"/>
<path d="M234.796 14.0593C234.328 13.949 233.804 13.8112 233.171 13.7009C232.537 13.5631 231.876 13.5079 231.16 13.5079C230.83 13.5079 230.444 13.5355 230.003 13.5906C229.562 13.6458 229.204 13.7009 228.984 13.7836V27.6775H223.833V10.448C224.742 10.1172 225.844 9.81393 227.111 9.53826C228.378 9.26259 229.755 9.09718 231.298 9.09718C231.573 9.09718 231.904 9.12475 232.289 9.15232C232.675 9.17988 233.061 9.23502 233.474 9.29015C233.859 9.34529 234.245 9.42799 234.658 9.51069C235.044 9.59339 235.374 9.67609 235.65 9.81393L234.796 14.0593Z" fill="#F8961A"/>
<path d="M242.342 23.9835C243.279 23.9835 243.967 23.9008 244.353 23.7078C244.739 23.5148 244.932 23.1564 244.932 22.6327C244.932 22.2192 244.684 21.8608 244.16 21.53C243.664 21.2267 242.893 20.8684 241.846 20.4824C241.048 20.1792 240.304 19.876 239.643 19.5451C238.982 19.2143 238.431 18.8284 237.963 18.3873C237.494 17.9462 237.136 17.3949 236.888 16.7884C236.64 16.1544 236.503 15.4101 236.503 14.5279C236.503 12.8187 237.136 11.468 238.403 10.4755C239.67 9.48312 241.406 8.98691 243.609 8.98691C244.711 8.98691 245.785 9.09718 246.777 9.29015C247.796 9.48312 248.595 9.70366 249.201 9.92419L248.292 13.9214C247.686 13.7009 247.052 13.5355 246.336 13.3701C245.62 13.2047 244.849 13.122 243.967 13.122C242.342 13.122 241.543 13.5631 241.543 14.4728C241.543 14.6933 241.571 14.8587 241.654 15.0241C241.736 15.1895 241.874 15.3549 242.067 15.4928C242.287 15.6306 242.563 15.796 242.921 15.989C243.279 16.1544 243.72 16.3473 244.298 16.5679C245.427 16.9814 246.364 17.3949 247.108 17.8084C247.851 18.2219 248.43 18.663 248.843 19.1316C249.256 19.6003 249.559 20.1241 249.752 20.703C249.917 21.2819 250 21.9435 250 22.7154C250 24.5072 249.339 25.858 247.989 26.7953C246.639 27.705 244.739 28.1737 242.26 28.1737C240.634 28.1737 239.312 28.0358 238.238 27.7602C237.164 27.4845 236.42 27.264 236.007 27.071L236.861 22.8808C237.742 23.2391 238.624 23.4873 239.56 23.6802C240.524 23.8732 241.433 23.9835 242.342 23.9835Z" fill="#F8961A"/>
<path d="M2.89122 0H24.3765C25.8364 0 26.9933 1.18539 26.9933 2.61888V8.07719C26.9933 9.53825 25.8089 10.6961 24.3765 10.6961H2.89122C1.43132 10.6961 0.274414 9.51068 0.274414 8.07719V2.61888C0.274414 1.18539 1.45886 0 2.89122 0Z" fill="#EF645E"/>
<path d="M2.89122 1.9297H24.3765C25.8364 1.9297 26.9933 3.11509 26.9933 4.54859V10.0069C26.9933 11.468 25.8089 12.6258 24.3765 12.6258H2.89122C1.43132 12.6258 0.274414 11.4404 0.274414 10.0069V4.54859C0.274414 3.11509 1.45886 1.9297 2.89122 1.9297Z" fill="#DA4135"/>
<path d="M26.8832 26.3267L13.689 40L0.274414 25.7202L1.21094 23.4597L12.78 22.1916L23.6879 22.8808L26.8832 26.3267Z" fill="#FFDCB6"/>
<path opacity="0.72" d="M0.357422 26.0234L13.6893 40L6.99583 25.7202L0.357422 26.0234Z" fill="#FFCB9C"/>
<path d="M13.6897 40L3.16742 25.2791L0.44043 26.1613L13.6897 40Z" fill="#F7B589"/>
<path d="M13.6894 40L18.7853 34.7347C18.7853 34.7347 17.7937 36.1957 13.9649 35.1206C10.5217 34.1557 8.75879 34.8174 8.75879 34.8174L13.6894 40Z" fill="#58453B"/>
<path d="M11.1556 34.6244L13.6623 40L8.7041 34.8174C8.73165 34.8174 9.6131 34.4866 11.1556 34.6244Z" fill="#2D2320"/>
<path d="M16.0299 35.6168L16.1126 35.5065C16.1126 35.5065 15.5066 35.5892 13.2754 34.9552L13.6886 39.9449L16.0299 35.6168Z" fill="#AF776D"/>
<path d="M13.6895 40L14.4332 35.2584C14.4332 35.2584 14.8188 35.3411 15.1769 35.3963L13.6895 40Z" fill="white"/>
<path d="M0.274414 10.448V25.7202C0.301959 26.5196 1.78941 27.1537 3.63494 27.1537C5.48048 27.1537 6.96791 26.5196 6.99546 25.7202V10.448H0.274414V10.448Z" fill="#F8961A"/>
<path d="M20.3545 10.448V25.9959C20.4371 26.7677 21.897 27.3742 23.6599 27.3742C25.4228 27.3742 26.8827 26.7677 26.9654 25.9959V10.448H20.3545V10.448Z" fill="#F8961A"/>
<path d="M20.3556 10.448H6.99609V25.8856C6.99609 27.2364 9.99854 28.3115 13.6896 28.3115C17.3807 28.3115 20.3831 27.2364 20.3831 25.8856V10.448H20.3556Z" fill="#FAAD4C"/>
<path d="M20.3545 10.448V25.9959C20.4371 26.7677 21.897 27.3742 23.6599 27.3742C25.4228 27.3742 26.8827 26.7677 26.9654 25.9959V10.448H20.3545V10.448Z" fill="#F8961A"/>
<path d="M0.274414 10.448V25.7202C0.301959 26.5196 1.78941 27.1537 3.63494 27.1537C5.48048 27.1537 6.96791 26.5196 6.99546 25.7202V10.448H0.274414V10.448Z" fill="#F8961A"/>
<path d="M20.3556 10.448H6.99609V25.8856C6.99609 27.2364 9.99854 28.3115 13.6896 28.3115C17.3807 28.3115 20.3831 27.2364 20.3831 25.8856V10.448H20.3556Z" fill="#FAAD4C"/>
<path d="M20.3545 10.448V25.9959C20.4371 26.7677 21.897 27.3742 23.6599 27.3742C25.4228 27.3742 26.8827 26.7677 26.9654 25.9959V10.448H20.3545V10.448Z" fill="#F8961A"/>
<path d="M0.274414 10.448V25.7202C0.301959 26.5196 1.78941 27.1537 3.63494 27.1537C5.48048 27.1537 6.96791 26.5196 6.99546 25.7202V10.448H0.274414V10.448Z" fill="#F8961A"/>
<path d="M20.3556 10.448H6.99609V25.8856C6.99609 27.2364 9.99854 28.3115 13.6896 28.3115C17.3807 28.3115 20.3831 27.2364 20.3831 25.8856V10.448H20.3556Z" fill="#FAAD4C"/>
<path d="M27.0209 6.8091H0.274414V10.7236H27.0209V6.8091Z" fill="#B9C3CF"/>
<path d="M27.0209 6.8091H0.274414V7.44315H27.0209V6.8091Z" fill="#D6DDE5"/>
<path d="M14.3511 16.2646L5.61923 21.6954L0 17.8911V18.7181L5.2887 23.3218L14.1858 18.9111L21.6781 23.3218L27.0219 18.9662L27.4627 18.5803V15.0517L21.6781 20.8132L14.3511 16.2646Z" fill="white"/>
</svg>
