<svg xmlns="http://www.w3.org/2000/svg" width="180" height="205.98" viewBox="0 0 180 205.98"><defs><style>.a{fill:#666464;}.b{fill:#fff;}</style></defs><path class="a" d="M19.86,197.51c.37,1.62-16.88,1.62-16.51,0C3,195.88,20.23,195.88,19.86,197.51Z"/><path d="M17.93,197.28c-1.55,1.48-5.85,1.37-8.84.83-1.19-.77-4.09.7-4.33-.71a22.51,22.51,0,0,0,1.52-2.65,11.66,11.66,0,0,1,.59-2.55c.18-1.81.33-1.58.89-2.2A5.81,5.81,0,0,1,8,188c-.15-.48-.34-1.53.83-3.88A8.63,8.63,0,0,1,11,181.51a.94.94,0,0,1,.76-.16,1.8,1.8,0,0,1,1.11-.28c.34.11.49.42.75.52a3.45,3.45,0,0,1,2.3,1.6,14.36,14.36,0,0,1,.5,1.48c.13.36.09.47-.12.45.37,1,.79,4.09,1.6,6.63,0,.14.16.25-.08.46.13.54.56,1.63.67,2a15.33,15.33,0,0,0,.76,2.17C20.12,197.44,20.35,198.06,17.93,197.28Zm-2.76-3.43c.25.21.29,0,0-.13.71.35-.08-.72-.33-.24-.18-.08.07.12.13.18-.17-.07.08.14.16.2C14.82,193.71,15.47,194.19,15.17,193.85Zm-2.65.38c-.31.11.44.31.63.43C13,194.61,12.57,194,12.52,194.23Zm2,1.46c1.26.29-.24-.12-.69-.4C13,195.17,14.19,195.54,14.53,195.69Zm1.49.88a.88.88,0,0,0-.48,0,1.31,1.31,0,0,0,.48,0C13.78,196.58,17.1,197,16,196.57Zm-3.7.88h0c-.91-.06,0-.34-1.29,0C11.16,197.64,12.86,197.64,12.32,197.45Zm-.78-1.29c-.31-.12-.27,0,0,0C9,196.4,11.93,196.93,11.54,196.16Zm.58-12.75h0c-2-.35,2.46,1.24.62-.15C11.73,183.37,14,183.68,12.12,183.41ZM8.31,195.85a3.53,3.53,0,0,0,3.51-1.31A3.62,3.62,0,0,0,8.31,195.85Zm6.17-10.92c.16,1,1.12,2.25,1.87,1.47C16,185.13,15.64,184.5,14.48,184.93Zm-3,8.39A4.35,4.35,0,0,0,8,194.66C9.34,194.88,10.38,194.06,11.47,193.32Zm1.62.64c.91.78,1.92,1.58,3.21,1.36C15.36,194.53,14.39,193.76,13.09,194ZM5.5,196.43a5.45,5.45,0,0,0,2.49-3A6.3,6.3,0,0,0,5.5,196.43Zm1.2-3.32c-.65,2.74-.23.72,1.28.2C9.08,190.52,6.52,194.18,6.7,193.11Zm3.57,1.21c.91.11,2.92-.58.56,0a8.11,8.11,0,0,0,1.18-.15C11,195.46,14.7,191.56,10.27,194.32ZM7,196.21c-4.94,2.11,2.24.78-.75.37C6.49,196.47,6.77,196.5,7,196.21Zm7.28-5.93c1.78,2.11,2.49.39.75.54,1.61.19,1.1.06-.08-.13,1,.25,1.8,0,.34-.23C15.7,190.48,15.46,189.93,14.27,190.28Zm4.84,6a5.06,5.06,0,0,0-2.31-2.67A4.87,4.87,0,0,0,19.11,196.27Zm-6.85-6c2.82.2-1.88-.8.07.51C15,191.34,14.81,190.28,12.26,190.26Zm2.15-1.41c-.28,1.09,2.36,1.9,1.64,1.11-2.94-.69,1.81.33-.94-.36C16.84,190.23,15.67,188.65,14.41,188.85Zm1.67,0c-.13,1.1.63,1.8,1.3,2.55A2.44,2.44,0,0,0,16.08,188.85Zm-.55-5.4c-1.47-.47-.16,1.73.89,1.55C16.18,184.5,16.08,183.22,15.53,183.45Zm-6.72,5.38c2,0,1.93-2.53.76-1.18.78-.18-.17,0-.33.42,1.32-.27.81-.25-.14.16C10.75,188,10.09,187.77,8.81,188.83Zm-1,1.07A3.11,3.11,0,0,0,9,187.34,2.43,2.43,0,0,0,7.84,189.9Zm10.88,6.55c-2.07-.17.12,1,1.09,1,0-1.1-2.64-1.82-1.16-1.13C18,196.17,18.34,196.38,18.72,196.45Zm-1.8-3.65c-1.09-2.76-2.48-.34.22.5C15.9,192.05,14.94,191.72,16.92,192.8Zm-7.87-6.45c1.9.71,1.74-1.62,1.34-1-1.29.26.74.49-1,.55,1.63.15.57-.11-.12.16C11.26,186.22,9.65,185.74,9.05,186.35ZM8,187.1c.75-.55,1.51-1.07,1.49-2.09A2,2,0,0,0,8,187.1Zm3.79-4c-.71-.55-1.61-.71-2,.28C10.55,183.48,11.36,184,11.74,183.07Zm-4,7.92c.68-.59,1.69-1,1.74-2C8.58,189.48,8.15,188.92,7.76,191Zm5.89-2.1c-3.39-1.69,1.7,2.49.69.07C13.75,189.12,12.27,188.52,13.65,188.89Zm-5.48,1.93a3,3,0,0,0-1.45,2.51C7.31,192.52,8.15,191.9,8.17,190.82Zm2.56-3.49c-1.09,2.18,3.36-.68,1-.41C11.07,187.23,12.7,187.48,10.73,187.33Zm.49,4.65c-1.12.1.1,0-.88.25-.16.55,1.48-.29,1.88-.66.8-1-3.07.2-.81.3C10.77,191.86,10.48,191.91,11.22,192Zm1.42,1c.07.8,1.77,1.1.79.74C16.3,194.48,14.46,193.17,12.64,193Zm.87-6.06c.53,1.51,1.63,2,1.24,1.19C13.65,188.15,16,187.21,13.51,186.93Zm2.78-1.08c.29.86-.06,1.73-.13.83,0,.6-.39-.72-.24.69,1.5,1.87.11-3.47.31-1.6C16.23,186,16.26,186.09,16.29,185.85Zm.58,6.22a4.25,4.25,0,0,0,1.35,2.49A3.18,3.18,0,0,0,16.87,192.07Zm-6.47-2.71c1.52,1.56,3.74-.22.68,0C11.28,189.19,10.8,189,10.4,189.36Zm3.21-7c-.12-.55.27-.05,1.3-.13-1.43-1.5-3.19.68-.86.58C13.73,182.39,12.8,182,13.61,182.37Zm-3,.08a1.47,1.47,0,0,0,2-.25C12.52,181.53,11.07,181.94,10.58,182.45Zm2.23,3.09c-2-.35.4.5-1.52.15C9.62,186.13,12.69,187,12.81,185.54ZM10,191c-1.91,2,.93-1.16-1,.91,1.91-2.23-.44-.08-.1-.44-1.67.85.34,1.12.86.19C10.93,189.83,8,193.53,10,191Zm-.26-7.74c-.88.43-1,1.41-1.4,2.23C9.13,185.13,10,184.11,9.74,183.3Zm6.14,0a2.18,2.18,0,0,0-2.19-1A2.15,2.15,0,0,0,15.88,183.31ZM8.19,195.84c-.37.32,1-1.34-1.38.65.62.63,2.51-.15,1.23.06C7.28,196.42,8.2,196.25,8.19,195.84Zm3.87-12c-1.58-.38-1.5.87-1,.84-.59,0,.05-.08-.73.37C11.18,185.34,11.64,184.43,12.06,183.87Zm.24,8.61c1.52.73,2.87-.66,1.9-.33C13.46,192.09,12.93,191.9,12.3,192.48ZM12,185.23c.73.76,3.12-.52,1.51-.5C13.81,185.07,12.32,184.37,12,185.23Zm4.23,5.19c.12,1.46,2.61,2.64,1.21.53C16.79,191.92,17.31,190.87,16.21,190.42Zm-4.65-3.61c1.69.35,2.42-1.66,1.51-.89-1.35.44,1,.15-.59.4C13.79,186.44,11.76,186.11,11.56,186.81Zm1.91,1.7c1,1,1.1-.18.28-.84C12.51,187,13.28,187.88,13.47,188.51ZM13,191.92c-2.21-.12-1.24.91-.83-.18C10,192.87,11.88,193.13,13,191.92Zm4.14,2.57c-1.22-2.65-1.09.49.58,1C16.89,194.39,16.92,194.69,17.18,194.49Zm-2-9.83c-.62-.31-1.24-1.15-2.07-.78C13.74,184.51,14.32,185.06,15.22,184.66Zm2.1,11.25c-.73-.46.05,0,.11.33-1.51-.24-.3.69.64.07C17.91,195.68,15.5,194.23,17.32,195.91Zm-2.86-9.25c-2.48-.89,1.21.58-1.09-.29,2.5,1.09-1.47-.47.61.54C16.49,186.74,11.7,185.23,14.46,186.66Zm-5,5.55c2.14-.81-1.21.16-.72.75.72-.29,3.06-1.66,1.25-1.3C9.39,192.29,10.9,191.32,9.46,192.21Zm5.32-4.89c-.23.79,1.59,3.19,1.24,1.58C14.3,187.46,16.25,188.71,14.78,187.32Zm2.38,2.38c-.3-1.53-.43-1.56-1.14-2.06C15.86,188.51,16.61,189.13,17.16,189.7Zm-3,7.9c-1,.12-2.83.19-.75.44C14.78,197.93,16,197.28,14.18,197.6Zm-1.6-13c-.7-.7-2.28.92-1,1C12,185.34,12.08,184.88,12.58,184.59Zm1.86,13.58a10.3,10.3,0,0,1-2.67-.36c.48,0,.3-.11-.13-.09h.08C10.06,197.86,13.57,198.62,14.44,198.17Zm-6.77-3.71c-.33,1-3.08,2.42-.51,1.59C7.66,195.3,7.36,195.15,7.67,194.46ZM13,190c2,1.19.45-1,1-.08C13.83,190.06,11.84,188.44,13,190Zm-3.63-4.23c1.16-.4,2-2.88.64-1.07C11.27,183.84,9.19,185.05,9.38,185.79Zm4.2-.27c1.46,1.22,1.36-.16.58-.49C13.58,185.66,15,185.77,13.58,185.52ZM11.69,188c3.48,1.36-.12-1.13,1.12-.1C11,187.86,14.26,188,11.69,188Zm.62,3.55c1.11.83,2.92.19.73-.15C15.21,192.3,12.84,190.93,12.31,191.52Zm-2.93-1a1.81,1.81,0,0,0-.77.32C7.58,192.81,10.36,190.38,9.38,190.5ZM15,195.44c2.21,1,1.86-.67.06-1.16C16.28,195.07,16.91,195.61,15,195.44Zm-.51-12.17c-.34-.46-.83-.18-1.32-.44C11.93,183.17,14,183.8,14.49,183.27Zm-1.82.77c1,.44.32.23-.39-.11C11.42,184.82,15,184.59,12.67,184Zm3.69,10c-.17-.57-.53-.88.52-.6C16.47,192.23,14.27,194.49,16.36,194Zm-3.85,2.95c-2.09-.54.85.27-1.38-.2.73,1.12,1.81-.14,1.55.13C12.24,196.75,12,196.75,12.51,196.94ZM12,190.65c-2.45.08-2,1.4.16.16C11,190.73,10.05,191.48,12,190.65Zm5,6.68c-3-.89.18,1,.34.2C17.31,197.1,16.52,197.24,17,197.33ZM9.05,186.49c-.73.45-.81.94-.2,0C7.16,188,8.59,188.67,9.05,186.49Zm2.26,2.42a6,6,0,0,1,1.11-.26C8.62,189.54,15,188.75,11.31,188.91Zm0-7c.52-.3,1.26.07,1.64-.66C12.63,180.82,11.6,181.33,11.28,181.87Zm.23,4.54c-1.17,1.09.37-.56-.71.49,1.14-1.35-1,.45.2.45C12.52,186,10.35,187.53,11.51,186.41Zm0,2.18c-1.44.19-1.67.64-1.22,0C8.55,189.37,10.87,189.37,11.52,188.59Zm4.13,8.3c-.31-.08-1.68-.38-.83,0-.46-.18-.79-.25-.22,0C13.32,196.08,13,197.41,15.65,196.89Zm-.56-12.54c-.08-.4-.47-1.26-.91-.79C13.69,183.65,14.77,184.47,15.09,184.35Zm-5.18,2.17c-1.27,1-1,2.2.18.26C10,186.18,8.76,188.15,9.91,186.52Zm1.8-3.58c.31.41.7.47.93,0C13.76,182.45,12.15,182.34,11.71,182.94Zm2.61,12.86c-.38,0-1.46-.39-.6-.16-3.18-.28,2.22.72.11,0ZM11.23,193c2.1,0,.72-.24-.33-.09C11.85,193.79,13.08,192.8,11.23,193ZM9,197a2.76,2.76,0,0,0,1.91-.29A2.2,2.2,0,0,0,9,197Zm-.44-6.5c.57.42,1.81-1.33,1-1.32A2,2,0,0,1,8.51,190.53Zm1.25-5.91c1.29-3-1.1,2.29.31-1-1.14,2.48.68-1.77-.71,1.3C10.39,185.08,10.62,182.23,9.76,184.62Zm1-2.54c1.84-1-.22-.93-.49.37C10.55,182.44,11.39,181.81,10.8,182.08ZM9.14,196.65a2.9,2.9,0,0,0-1.53.39C7.37,197.58,9,197,9.14,196.65Zm4.46-9.35c-.19-.54-.65-.3-1.07-.26C12,187.77,13.13,187.3,13.6,187.3Zm-.11,9.92c2.88.59,2.06-.18,1.95,0C14.8,197.38,14,196.85,13.49,197.22Zm.84-6.08c1.57,1,.4.09-.55-.08,1,1,1.79.62,1.41.47S14.63,191.22,14.33,191.14Zm-4-.43c.87.47,1.81-1.23.61-.22C11.23,190.35,11.19,189.72,10.36,190.71Zm-1-.37c3.34-.73-.93.19,1.4-.58C8.44,190.79,12.13,188.86,9.34,190.34Zm6.57-2c-1-2.45.45,1.11-.58-1.13C15.85,190,16.22,187.67,15.91,188.38Zm-6.35,8.94c2.14.41,1.92-.63.58-.09A.9.9,0,0,0,9.56,197.32Zm-.1-2.53c-.51-.29-2.45,1.15-2,1.11C8.13,195.07,8.79,195.42,9.46,194.79Zm4.79-2c1.19.91,1.88.46.3-.19,1,.72,1,.59-.09,0C15.69,193.59,15.16,192.74,14.25,192.76ZM7.9,196.34c1.3,0,2.81-.46.53-.22l.65-.07A1.24,1.24,0,0,0,7.9,196.34Zm4.11-.46c-1.14-.21-.72.22.23.3C13.89,196,12,195.88,12,195.88Zm1,.25c.54.41,1.16.22,1.77.11C14.23,196.21,13.62,195.9,13.05,196.13Zm3.51-1.21c1.77,1.1,1,.6-.21-.35C15.37,194.11,16.41,195.32,16.56,194.92Zm-7.77,1.49c.5.5,3.25-.64,1.66-.44C10.92,196,9.72,196.46,8.79,196.41Zm1.53-7.9c1.91,0,.66-.59.38-.21C10.57,188.34,10.4,188.25,10.32,188.51Zm-.43,1.14c-.3.18-.1.14.11,0-1.09.64.08.27.6,0C10.42,189.17,9.54,189.62,9.89,189.65Zm5.6,6.14c.34.34,2.55.53,1.27,0C15.85,195.85,17.38,196,15.49,195.79Zm-.05-3.11c-.91-.92-.8.26.22.47C15.29,192.53,15.22,192.65,15.44,192.68Zm-3.53-1.62a12.21,12.21,0,0,0,1.89.22A2.38,2.38,0,0,0,11.91,191.06Zm2.7-4.72c.11.42.94,1.12.83.38C15.12,186.58,15,186.23,14.61,186.34Zm-4.41.32c.68.06-.14,0-.21.47C11,187,11.09,185.92,10.2,186.66ZM11,197.74c-.59.21-1.34-.3-1.87,0C9.91,197.88,11.67,198.05,11,197.74Zm4.42-5.59a10.72,10.72,0,0,0-1.51-.77C14.3,191.76,14.75,192.26,15.38,192.15Zm-2,.85c.51.08,1,.46,1.53.27C14.46,193.12,13.73,192.6,13.38,193Zm-6-1.76c.69-.76.11-1.06-.31.58C7.45,191.5,8.15,190.3,7.35,191.24Zm2.38,2.08-.41-.06C11,192.94,7.4,193.44,9.73,193.32Zm1.71,1.74c.91.34,2,.59.63,0C12.48,194.76,11.66,194.92,11.44,195.06Zm-2.28-8.57c-.73,1,.57.88.31,0C9,186.68,9.14,187,9.16,186.49Zm1.93,9c-1.5.44.58.13.68-.26-.56-.38-.72.3-.49.16C11,195.46,10.72,195.53,11.09,195.54Zm-3.5,2.11c.46-.07,1.05.16,1.35-.32C8.47,197.46,7.9,197.22,7.59,197.65Zm5.83-4.86c-.51-.07-1.06-.31-1.5.08C12.45,192.71,13.09,193.22,13.42,192.79Zm-5.8,4.07c-2.19,1.49.72.4-.44.47C7.77,197,7.22,197.11,7.62,196.86Zm10.28-3.77a1.78,1.78,0,0,0-1-1.31A9.78,9.78,0,0,0,17.9,193.09ZM7.68,195.45c1.43-.84.7-.82.26-.4C8.51,194.59,7.57,194.69,7.68,195.45Zm5.34-1a6.18,6.18,0,0,0,1.36.68A1.56,1.56,0,0,0,13,194.45Zm-5.2.12c.59-.4.54-.52,1-1.06C8.44,193.78,7.85,194,7.82,194.57Zm9.27,2.16c.28.15-.49-.19-.66-.12C16.8,196.9,18.5,197.75,17.09,196.73Zm-6.5-4.19c-1.45.26-.92.67.27.1C10.23,192.48,9.68,192.93,10.59,192.54ZM13.88,195c-.55-.07-1.08-.6-1.6-.42C12.81,194.73,13.33,195.17,13.88,195Zm1.89,1.84c.31.4.92.28,1.32.25A3.2,3.2,0,0,0,15.77,196.86Zm.21-.68a2.41,2.41,0,0,0-.84-.3C15.37,196.18,16.68,196.84,16,196.18Zm-2.79.89c-1.29.2-.55.7.26.07C12.94,197,12.47,197.41,13.19,197.07Zm1,.36c-.45-.05-.82-.2-1.23,0C13.48,197.76,13.81,197.53,14.19,197.43ZM16,193.08c-.2-.22-.2-.62-.45-.84S15.67,193.36,16,193.08ZM15.85,188c.22-.37-.13-.92-.24-1.31C15.35,186.83,15.82,187.53,15.85,188Zm-5,2.15a3.3,3.3,0,0,0-1.17.68A1.71,1.71,0,0,0,10.82,190.11Zm3.89-3c1.86,2-.16-.84.47.22C15,187.24,14.91,187.05,14.71,187.13Zm.28,8.46a1.59,1.59,0,0,0-1-.45A1.31,1.31,0,0,0,15,195.59Zm-2.09-.47a1.43,1.43,0,0,0,.49,0C11.38,194.59,14.19,195.82,12.9,195.12Zm.4,1.27c-.37-.3-.68-.16-1.09-.08C12.57,196.36,12.92,196.57,13.3,196.39Zm.72.1c.32,0,1.62.13,1.14-.1S14.4,196.47,14,196.49ZM10.15,184.2c.22-.11,1.07-.55.46-.48C10.51,183.47,10.25,183.87,10.15,184.2ZM8.66,189c.36.15.76.23.91-.25Zm6.6,5.12c.29.19.56.45.92.21C15.94,194.11,15.57,194.15,15.26,194.11Zm-2.13-12.27c-.21-.28-.53-.09-.79,0C12.62,182,12.88,182.09,13.13,181.84Zm-.55,12.22c.37.25.55.31.79.26C13.14,194.21,12.8,193.72,12.58,194.06Zm-3-10.77a1.49,1.49,0,0,0,.63-.74C9.84,182.51,9.77,183,9.56,183.29Zm.25,9.82c.29,0,.68.27.86-.08A1,1,0,0,0,9.81,193.11Zm7,3.41c-.28-.31-.47-.41-.71-.38C16.28,196.35,16.47,196.65,16.77,196.52Zm-4.57-.91c-1.11-.35-.47.22.3.2C12.14,195.62,11.5,195.48,12.2,195.61Zm-.68-7.19c0,.1,1,.19.86,0C12.08,188.44,11.79,188.24,11.52,188.42Zm1.72-6.94c-.22-.35-.37-.13-.57.11C12.89,181.5,13.07,181.71,13.24,181.48Zm-5.69,9c.3.22.33-.2.38-.43C7.72,190,7.66,190.29,7.55,190.43ZM8,197.25a4.89,4.89,0,0,0,1.28-.09A3.09,3.09,0,0,0,8,197.25ZM15.14,196c-.23-.27-.51,0-.8,0A1,1,0,0,0,15.14,196ZM8.5,190.75c-.31-.1-.51.66-.11.34S8.14,190.91,8.5,190.75ZM16.94,192c-.08-.3-.21-.47-.53-.45C16.55,191.8,16.76,191.85,16.94,192Zm.71,2c-.17-.39-.47-.41-.81-.53A6.65,6.65,0,0,0,17.65,194Zm-5.94,2.53c.23.14.49.18.63,0C12.12,196.51,11.91,196.31,11.71,196.53ZM8.16,193c.23-.08.49,0,.52-.32C8.46,192.62,8.33,192.88,8.16,193Zm.29.44c-.17-.27-.72.42-.36.35A.87.87,0,0,1,8.45,193.47Zm5.66-3.71c.22.26.82.42.52,0C14.5,190,14.28,189.76,14.11,189.76Zm1.72,2.88c0,.28.26.53.41.37A1.18,1.18,0,0,0,15.83,192.64Zm-8.41,0a2.85,2.85,0,0,0,.73-.63C7.9,192.18,7.62,192.27,7.42,192.61Zm4.42,2.08.88.22C12.41,194.88,12.07,194.38,11.84,194.69ZM10,192.49c-.17,0-.49.2-.65.32C9.53,192.76,9.77,192.79,10,192.49Zm-.87,5,1,.12C9.74,197.49,9.41,197.32,9.08,197.48Zm2.26-6.84c.16,0,.35-.13.55-.17C11.76,190.1,11.53,190.53,11.34,190.64Zm-2.93.69c-.15.08-.32.09-.35.41C8.24,191.63,8.4,191.61,8.41,191.33Zm-.1,1-.11.49C8.33,192.78,8.63,192.29,8.31,192.35Zm9.55,3.48.53.14C18.24,195.85,17.87,195.48,17.86,195.83Zm-7.44-5c-.42-.1-.77.07-.15.11C10.34,191,10.39,190.94,10.42,190.83Zm.75,0,.78-.28A1.29,1.29,0,0,0,11.17,190.83Zm5-.2c0-.17,0-.22-.07-.23C15.62,190.25,15.85,190.42,16.18,190.63ZM9.8,186.52c0-.06-.15,0-.18,0C9.41,187.06,9.62,186.79,9.8,186.52Zm2.95,7.31h.33C12.94,193.59,12.89,193.59,12.75,193.83Zm-4.07-.52a3.23,3.23,0,0,0-.39.47C8.45,193.62,8.76,193.57,8.68,193.31ZM13,185.59c-.06,0-.13,0-.17,0C12.64,185.94,12.8,186,13,185.59Zm3.39,8.61c-.33,0,0,.15,0,.32S16.44,194.3,16.43,194.2Zm-8.63.25a1.06,1.06,0,0,0-.29.4C7.76,194.82,7.76,194.62,7.8,194.45Zm-.31-4.08a2.51,2.51,0,0,0-.32.71C7.37,190.92,7.38,190.61,7.49,190.37Zm2.79.71a1.61,1.61,0,0,0-.4.5C10.1,191.52,10.16,191.26,10.28,191.08Zm5.36,5.3c-.13-.16-.26-.09-.4-.07C15.37,196.47,15.5,196.38,15.64,196.38ZM13,186.81h.46C13.28,186.76,13.14,186.61,13,186.81Zm-2.59-4.72c-.13,0-.19.16-.24.36C10.33,182.41,10.31,182.25,10.39,182.09Zm-2,11.1c0,.1.29.07.38-.14Zm7.13,4c0-.1-.44-.14-.56-.07ZM9.1,193.55c-.17,0-.36.25-.51.37C8.77,193.87,8.92,193.65,9.1,193.55Zm4-11.85c.08.1.17.08.28-.06A.2.2,0,0,0,13.12,181.7Zm-3,11.5c-.34-.09-.49-.09-.56,0Zm.61,4.39c-.19,0-.43,0-.59,0C10.37,197.61,10.56,197.71,10.76,197.59Zm-.63-9-.45.12A.44.44,0,0,0,10.13,188.59Zm6.27,5.57c0-.18-.18-.07-.3-.06C16.2,194.25,16.31,194.15,16.4,194.16ZM14.63,187a.5.5,0,0,0,.32,0C14.86,186.81,14.75,186.91,14.63,187Zm-1.37-3.24.3-.06C13.46,183.64,13.35,183.49,13.26,183.74Zm-4.45,8.64c0-.08-.28-.07-.3,0S8.72,192.38,8.81,192.38Zm1.93.61c-.07-.14-.37-.09-.42-.05Zm.09-.12c0-.09-.32-.06-.31,0S10.73,193,10.83,192.87Zm1.1,2.49a.83.83,0,0,0,.49.15A2.77,2.77,0,0,0,11.93,195.36Zm-3.44-2.79c.09,0,.2,0,.3-.12C8.65,192.42,8.5,192.48,8.49,192.57Zm-.33-1.26c.18-.06.29-.15.3-.22C8.28,191.15,8.18,191.23,8.16,191.31Zm.29-.1c-.14,0-.3.14-.3.23C8.25,191.35,8.36,191.36,8.45,191.21Zm.33,2.72.42-.27A.68.68,0,0,0,8.78,193.93Zm-.06-1.35c-.15,0-.24,0-.28.12S8.65,192.7,8.72,192.58Zm1.79,4.5.36-.11C10.73,196.88,10.62,197,10.51,197.08Zm2.35-10.15c-.11,0-.34-.12-.36,0Zm2.65.22.19.56C15.64,187.38,15.57,187.17,15.51,187.15ZM8,192.2l-.28.23A.33.33,0,0,0,8,192.2Zm-.35,2.13a.43.43,0,0,0,.2-.35Zm7.66,1.84h0C15.26,196.09,15,196.19,15.31,196.17Zm-.53-12.66c0-.17-.06-.19-.2-.16Zm-6.19,9.78h0C8.56,193.22,8.33,193.27,8.59,193.29Zm4.49,3.43c-.29-.11-.15-.05,0,0C13,196.64,12.72,196.53,13.08,196.72Zm-4.93-4.88a.5.5,0,0,0-.33.24Zm6.42-.65.25.14C14.74,191.25,14.68,191.12,14.57,191.19Zm1.11-4.54.09.33C15.8,186.82,15.76,186.68,15.68,186.65Zm-1.42,6.28a.15.15,0,0,0-.25-.07Zm1.87-.12c.09.15.17.22.23.18ZM7.7,195l-.13.23C7.68,195.22,7.69,195.21,7.7,195ZM9,193c-.13,0-.18.11-.25.2ZM14.3,185l.18.14C14.43,184.91,14.43,184.91,14.3,185Zm-3.21,10.84.26,0C11.25,195.66,11.17,195.75,11.09,195.79Zm-1.76.89c-.14,0-.14,0-.18.11Zm0,.64c-.17,0-.09,0,0,0S9,197.3,9.3,197.32ZM13.05,184l.17.08C13.13,184,13.1,184,13.05,184Zm3.92,9.4.12,0C17,193.34,17,193.33,17,193.42Zm-8.38-4.21c-.11.09-.06,0,0,0S8.4,189.3,8.59,189.21Zm-.48,4c.12,0,.06,0,0,0S8.31,193.18,8.11,193.18Z"/><path class="b" d="M8.31,195.85a3.62,3.62,0,0,1,3.51-1.31A3.54,3.54,0,0,1,8.31,195.85Zm.84-.47a2.88,2.88,0,0,0,1.24,0Zm.18-.14a4,4,0,0,0,1.26,0C10.19,195.22,9.75,195.27,9.33,195.24Zm-.36.28a4,4,0,0,0,1.26.06A10.33,10.33,0,0,0,9,195.52Zm1.14-.62h0C10.27,194.89,10.56,195,10.11,194.9Zm.16-.13a.77.77,0,0,0,.58,0Z"/><path class="b" d="M14.48,184.93c1.18-.47,1.58.33,1.9,1.65C15.12,186.83,14.8,186,14.48,184.93Zm1.35.72a2.22,2.22,0,0,0-.88-.11C15.18,185.68,15.53,185.59,15.83,185.65Zm-.78.12a2.3,2.3,0,0,0,.86.07C15.67,185.7,15.32,185.8,15.05,185.77Zm.08.19a1.89,1.89,0,0,0,.86.09A3.85,3.85,0,0,0,15.13,186ZM15,185a.71.71,0,0,0,.38,0C15.27,185,15.14,185,15,185Z"/><path class="b" d="M11.47,193.32c-1.1.75-2.2,1.61-3.6,1.32C9,193.89,10.11,193,11.47,193.32Zm-1.34.7c-.39,0-.78,0-1.16,0A7.41,7.41,0,0,0,10.13,194Zm-1.57.29a8.37,8.37,0,0,0,1.12,0Zm1.33-.12h0Zm.42-.48h0C10.15,193.69,10,193.69,10.31,193.71Zm.21-.13Z"/><path class="b" d="M13.09,194c1.3-.2,2.27.57,3.21,1.36C15,195.54,14,194.74,13.09,194Zm2.42.9a5.57,5.57,0,0,0-1,0Zm-1.19-.15a5.57,5.57,0,0,0,1,0Zm1.37.29a4.1,4.1,0,0,0-1,0Zm-1.57-.64h0C14.26,194.38,14.43,194.38,14.12,194.36Zm-.18-.13h0C14.08,194.25,14.25,194.25,13.94,194.23Z"/><path class="b" d="M5.5,196.43a6,6,0,0,1,2.59-3A6.14,6.14,0,0,1,5.5,196.43ZM7,195.13a3.89,3.89,0,0,0-1,.7Zm.24-.43a3.59,3.59,0,0,0-1,.69Zm-.13.22a3.93,3.93,0,0,0-1,.69Zm-.15-.51h0C7,194.42,7.29,194.22,6.93,194.41Zm.29,0h0C7.14,194.35,6.86,194.56,7.22,194.36Z"/><path class="b" d="M6.7,193.11c-.19,1.07,2.39-2.59,1.28.2C6.47,193.83,6.05,195.85,6.7,193.11Zm.87-.13a1.94,1.94,0,0,0-.47.25A1.65,1.65,0,0,0,7.57,193Zm-.52.41c.31-.15.15-.08,0,0C7.11,193.46,7.5,193.26,7.05,193.39Z"/><path class="b" d="M10.27,194.32c4.44-2.75.76,1.14,1.74-.11a8.11,8.11,0,0,1-1.18.15C13.2,193.74,11.18,194.43,10.27,194.32Zm.39-.06a7.29,7.29,0,0,0,1.51-.33Zm1.3-.52h0C11.77,193.73,11.46,193.8,12,193.74Zm.09-.12h0C11.86,193.61,11.56,193.67,12.05,193.62Z"/><path class="b" d="M7,196.21c-.22.29-.5.26-.75.37C9.23,197,2.05,198.32,7,196.21Zm-.12.69a6.4,6.4,0,0,0-1.36.32Zm.09-.12a5.28,5.28,0,0,0-1.36.32ZM6.8,197a6.16,6.16,0,0,0-1.38.33Z"/><path class="b" d="M14.27,190.28c2.13-.25.12.2,1.7.33-.5.36.6.22-1,.24C16.81,190.62,16,192.42,14.27,190.28Z"/><path class="b" d="M19.11,196.27a4.52,4.52,0,0,1-2.24-2.63A5,5,0,0,1,19.11,196.27Zm-.44-.55a3,3,0,0,0-.85-.54Zm-.11-.19a2.74,2.74,0,0,0-.86-.55Zm-1-.78a2.78,2.78,0,0,0,.85.54Zm.33-.07h0C17.9,194.59,17.62,194.42,17.93,194.68Zm-.11-.2h0C17.78,194.39,17.51,194.22,17.82,194.48Z"/><path class="b" d="M12.26,190.26c3.15,0,2.1,1.4-.23.27C10.88,189.36,15.17,190.66,12.26,190.26Zm1.74.46a6.52,6.52,0,0,0-1.58-.2Zm-.09-.13a5.55,5.55,0,0,0-1.57-.2Z"/><path class="b" d="M14.41,188.85c1.26-.2,2.43,1.38.7.75,2.75.69-2-.33.94.36C16.77,190.75,14.12,189.94,14.41,188.85Z"/><path class="b" d="M16.08,188.85a2.44,2.44,0,0,1,1.3,2.55C16.71,190.65,16,190,16.08,188.85Zm1.07,2a5.56,5.56,0,0,0-.81-1Zm0-.15a5.51,5.51,0,0,0-.8-1C16.6,190.06,16.87,190.38,17.14,190.7Zm0-.16a5,5,0,0,0-.79-1Zm-.57-1.07h0C16.61,189.6,16.78,189.82,16.55,189.47Zm.33.3h0C16.82,189.63,16.65,189.41,16.88,189.77Z"/><path class="b" d="M15.53,183.45c.55-.23.65,1.05.89,1.55C15.37,185.18,14.06,183,15.53,183.45Zm.48.9h0C15.9,184.23,15.39,184.08,16,184.35Zm.06.18c-.5-.15-.25-.07,0,0C16,184.4,15.45,184.26,16.07,184.53Zm-.12-.36h0C15.84,184.05,15.33,183.9,16,184.17Zm-.69-.66h0C15.24,183.59,15.59,183.69,15.26,183.51Z"/><path class="b" d="M8.81,188.83c1.27-1.05,1.94-.79.29-.6,2.66-1-.35.3.34-.44.36-.23.7-.26.13-.14C10.74,186.3,10.86,188.85,8.81,188.83Z"/><path class="b" d="M7.84,189.9A2.43,2.43,0,0,1,9,187.34,3.11,3.11,0,0,1,7.84,189.9Zm.21-.86a5,5,0,0,0,.73-1Zm0,.14a4.58,4.58,0,0,0,.74-1C8.54,188.53,8.29,188.86,8,189.18Zm0,.15a4.48,4.48,0,0,0,.73-1ZM8.58,188h0C8.47,188.07,8.31,188.3,8.58,188Zm-.32.25c.21-.28.1-.14,0,0C8.37,188.19,8.53,188,8.26,188.25Z"/><path class="b" d="M18.72,196.45c-.38-.07-.7-.28-.07-.11-1.48-.69,1.17,0,1.16,1.13C18.84,197.45,16.65,196.28,18.72,196.45Zm.64.67a5,5,0,0,0-1.19-.32Zm-1.25-.47a4.14,4.14,0,0,0,1.18.32Zm-.08-.13a4.14,4.14,0,0,0,1.18.32Z"/><path class="b" d="M16.92,192.8c-2-1.08-1-.75.22.5C14.44,192.46,15.83,190,16.92,192.8Zm-.06-.11a5.29,5.29,0,0,0-1.11-.67Zm-.95-1h0C16,191.82,16.24,192,15.91,191.7Zm.52.46h0C16.33,192,16.1,191.9,16.43,192.16Z"/><path class="b" d="M9.05,186.35c.6-.61,2.21-.12.26-.29.69-.27,1.75,0,.12-.16,1.7-.06-.33-.29,1-.55C10.79,184.73,11,187.06,9.05,186.35Z"/><path class="b" d="M8,187.1A2,2,0,0,1,9.44,185C9.46,186,8.7,186.55,8,187.1Zm1.19-1.46a3.78,3.78,0,0,0-.85.71Zm-.89.83a4.06,4.06,0,0,0,.85-.71Zm0,.13a4,4,0,0,0,.84-.7Zm.35-.82c.24-.21.12-.11,0,0C8.66,185.77,8.9,185.57,8.58,185.78Zm.39-.41H9C8.89,185.37,8.65,185.58,9,185.37Z"/><path class="b" d="M11.74,183.07c-.27.89-1.53.51-1.91.19C10.17,182.34,11.08,182.56,11.74,183.07Zm-1.44,0a2.75,2.75,0,0,0,1,.23Zm.92.35a3.17,3.17,0,0,0-1-.23Zm-1-.17a3.34,3.34,0,0,0,1,.23Zm.6-.42c.27.07.13,0,0,0C10.84,182.85,11.11,182.91,10.78,182.78Zm.35.21h0C11.07,182.93,10.79,182.87,11.13,183Z"/><path class="b" d="M7.76,191c.39-2.07.82-1.51,1.74-2C9.45,190,8.44,190.4,7.76,191Zm.37-.65a5.32,5.32,0,0,0,1-.79Zm1-.89a6.08,6.08,0,0,0-1,.78Zm-.06.26a5.82,5.82,0,0,0-1,.79ZM9,189.35H9C8.81,189.4,8.61,189.57,9,189.35Z"/><path class="b" d="M13.65,188.89c-1.38-.37.1.23.69.07C15.35,191.38,10.26,187.2,13.65,188.89Zm.52.45a3.05,3.05,0,0,0-1.17-.29Zm-.05-.15a3.06,3.06,0,0,0-1.18-.29Z"/><path class="b" d="M8.17,190.82c0,1.08-.87,1.7-1.45,2.51A3,3,0,0,1,8.17,190.82Z"/><path class="b" d="M10.73,187.33c2,.15.33-.1,1-.41C14.09,186.65,9.64,189.51,10.73,187.33Zm.15.42a3.06,3.06,0,0,0,1.13-.33Zm1.18-.44a3.06,3.06,0,0,0-1.13.33Z"/><path class="b" d="M11.22,192c-.74-.07-.45-.12.19-.11-2.26-.1,1.61-1.31.81-.3-.4.37-2,1.21-1.88.66C11.32,192,10.1,192.08,11.22,192Zm0-.59h0C11.25,191.47,11.62,191.49,11.18,191.39Zm-.19.11h0C11.06,191.58,11.43,191.6,11,191.5Z"/><path class="b" d="M12.64,193c1.82.18,3.66,1.49.79.74C14.41,194.09,12.71,193.79,12.64,193Zm1.5.55h0C14,193.45,13.72,193.38,14.14,193.54Zm-.49,0h0C13.79,193.58,14.07,193.65,13.65,193.49Z"/><path class="b" d="M13.51,186.93c2.48.28.14,1.22,1.24,1.19C15.14,189,14,188.44,13.51,186.93Zm.57.36h0C14.09,187.37,14.47,187.42,14.08,187.29Zm.52.26h0C14.59,187.47,14.22,187.43,14.6,187.55Z"/><path class="b" d="M16.29,185.85c0,.24-.06.12-.06-.08,0-2,.95,4.18-.4,1.23.34-.94.19.54.33-.32C16.23,187.58,16.58,186.71,16.29,185.85Zm.12,1.25c.05-.4,0-.2,0,0C16.48,187,16.5,186.67,16.41,187.1Z"/><path class="b" d="M16.87,192.07a3.17,3.17,0,0,1,1.34,2.54C17.66,193.8,16.86,193.13,16.87,192.07Z"/><path class="b" d="M10.4,189.36c.4-.37.88-.17.68,0C14.14,189.14,11.91,190.92,10.4,189.36Zm.59.18a6,6,0,0,0,1.2,0Zm.13.1a4.65,4.65,0,0,0,1.18,0Zm1.3.1a5.17,5.17,0,0,0-1.18,0Z"/><path class="b" d="M13.61,182.37c-.81-.42.12,0,.44.45-2.34.09-.57-2.08.86-.58C13.88,182.32,13.49,181.82,13.61,182.37Zm-.53-.17a2.69,2.69,0,0,0,.8.47Zm1.18,0h0C14.26,182.08,14,181.91,14.26,182.16Z"/><path class="b" d="M10.58,182.45c.49-.51,1.94-.92,2-.25A1.47,1.47,0,0,1,10.58,182.45Zm.43-.12c.52.17.26.08,0,0C11.2,182.45,11.55,182.57,11,182.33Zm.12-.08c.51.17.25.09,0,0C11.32,182.38,11.66,182.5,11.13,182.25Zm.88.22c-.51-.17-.25-.09,0,0C11.82,182.34,11.48,182.22,12,182.47Zm-.13-.48h0C11.9,182.05,12.17,182.14,11.88,182Zm.2.21h0C12.06,182.13,11.8,182.06,12.08,182.2Z"/><path class="b" d="M12.81,185.54c-.12,1.41-3.19.59-1.52.15C13.21,186,10.84,185.19,12.81,185.54Zm-.53.44a4.2,4.2,0,0,0-1.12,0Zm-1-.16a3.51,3.51,0,0,0,1.12,0Z"/><path class="b" d="M10,191c-2,2.49.93-1.21-.25.66-.52.93-2.53.66-.86-.19-.24.3,1.89-1.72.11.46C11,189.79,8,193.11,10,191Zm-1.12.64c.23-.28.11-.14,0,0C9,191.64,9.19,191.38,8.88,191.68Z"/><path class="b" d="M9.74,183.3c.29.81-.61,1.83-1.4,2.23C8.72,184.71,8.86,183.73,9.74,183.3Zm-.31,1.06h0C9.2,184.44,8.9,184.67,9.43,184.36Zm.08-.18h0C9.29,184.25,9,184.48,9.51,184.18Zm-.85.81h0C8.88,184.92,9.19,184.69,8.66,185Zm.6-1.13h0C9.31,183.9,9.54,183.72,9.26,183.86Zm.23,0h0C9.44,183.83,9.21,184,9.49,183.86Z"/><path class="b" d="M15.88,183.31a2.15,2.15,0,0,1-2.19-1A2.18,2.18,0,0,1,15.88,183.31Zm-1.14-.19a2.54,2.54,0,0,0-.63-.67Zm.26,0a2.54,2.54,0,0,0-.61-.65C14.59,182.69,14.79,182.91,15,183.12Zm-.13,0a2.57,2.57,0,0,0-.62-.65Zm.43-.16h0C15.28,182.87,15.08,182.66,15.3,183Zm-.13,0c-.18-.19-.09-.09,0,0C15.15,182.87,15,182.66,15.17,183Z"/><path class="b" d="M8.19,195.84c0,.41-.91.58-.15.71,1.28-.21-.61.57-1.23-.06C9.15,194.49,7.81,196.17,8.19,195.84Zm-.06-.09h0C8,195.75,7.73,196,8.13,195.75Z"/><path class="b" d="M12.06,183.87c-.41.56-.88,1.47-1.68,1.21.78-.5.15-.27.77-.41C10.6,184.67,10.51,183.54,12.06,183.87Zm-1,.13h0C11.09,184.08,11.45,184.13,11.09,184Zm-.13.13c.26,0,.13,0,0,0S11.32,184.24,11,184.13Z"/><path class="b" d="M12.3,192.48c.63-.58,1.16-.39,1.9-.33C15.17,191.82,13.82,193.21,12.3,192.48Zm.65-.2a4.65,4.65,0,0,0,1.16.17Zm-.12.07a4.67,4.67,0,0,0,1.17.18Zm.24-.14a4.65,4.65,0,0,0,1.16.17Z"/><path class="b" d="M12,185.23c.34-.86,1.83-.16,1.51-.5C15.11,184.71,12.71,186,12,185.23Zm1.57-.09a2.81,2.81,0,0,0-.94-.19Zm-1-.13a3.15,3.15,0,0,0,1,.19Zm-.1.08a2.88,2.88,0,0,0,1,.19Z"/><path class="b" d="M16.21,190.42c1.19,1.1.52.5,1.49,1C18.41,193.24,16.2,191.37,16.21,190.42Zm.33.49a5.39,5.39,0,0,0,1,.82Zm0,.13a5.76,5.76,0,0,0,1,.81Z"/><path class="b" d="M11.56,186.81c.54-.8,1.77-.27,1-.54,1.35-.13-.89.06.47-.35C14,185.15,13.25,187.17,11.56,186.81Zm.42-.29a3.14,3.14,0,0,0,1-.11Z"/><path class="b" d="M13.47,188.51c-.19-.63-1-1.49.28-.84C14.57,188.33,14.43,189.51,13.47,188.51Zm.6,0a3.29,3.29,0,0,0-.81-.95Zm-.66-1a3.88,3.88,0,0,0,.82,1Zm-.26.12a4.35,4.35,0,0,0,.81,1A12.24,12.24,0,0,0,13.15,187.61Z"/><path class="b" d="M13,191.92c-1.16,1.21-3.07,1-.83-.19C11.79,192.83,10.83,191.8,13,191.92Zm-1.6.52a4,4,0,0,0,1.24-.63Zm.14.08a3.88,3.88,0,0,0,1.25-.63Z"/><path class="b" d="M17.18,194.49c-.25.2-.29-.1.58,1C16.09,195,16,191.84,17.18,194.49Z"/><path class="b" d="M15.22,184.66c-.65.5-2.3-.51-1.82-.84C14.09,183.61,14.68,184.42,15.22,184.66ZM14,183.87c0,.14.7.68.75.68Zm.57.72a6.59,6.59,0,0,0-.74-.67A9.14,9.14,0,0,0,14.55,184.59Zm-.88-.66a2.26,2.26,0,0,0,.73.66Z"/><path class="b" d="M17.32,195.91c-1.82-1.68.59-.23.75.4-.94.62-2.15-.31-.64-.07C17.37,195.94,16.59,195.45,17.32,195.91Zm.09,0h0C17.37,195.78,17.1,195.53,17.41,195.89Z"/><path class="b" d="M14.46,186.66c-1.74-.53-.32-1.22.34.09-1.07.64-2.07-.69-.55,0C12.9,186.25,13.27,186.19,14.46,186.66Zm-.48-.45h0C14.06,186.3,14.3,186.39,14,186.21Z"/><path class="b" d="M9.46,192.21c1.44-.89-.07.08.53-.55,1.81-.36-.53,1-1.25,1.3C8.25,192.37,11.6,191.4,9.46,192.21Zm-.39.33a6.69,6.69,0,0,0,1.24-.65Z"/><path class="b" d="M14.78,187.32c1.47,1.39-.47.14,1.24,1.58C16.37,190.51,14.55,188.11,14.78,187.32Zm1,1.61a4.76,4.76,0,0,0-.8-1Zm-.77-.84a5.39,5.39,0,0,0,.79,1C15.57,188.73,15.31,188.41,15,188.09Z"/><path class="b" d="M17.16,189.7c-.54-.57-1.3-1.19-1.14-2.07C16.73,188.14,16.87,188.17,17.16,189.7Zm-.39-1a2.34,2.34,0,0,0-.66-.7Zm-.53-.31a2.57,2.57,0,0,0,.66.69Zm.58.51a2.39,2.39,0,0,0-.65-.69Z"/><path class="b" d="M14.18,197.6c1.81-.32.59.33-.75.44C11.35,197.79,13.19,197.72,14.18,197.6Zm-.58.2h0C13.8,197.81,14.09,197.75,13.6,197.8Z"/><path class="b" d="M12.58,184.59c-.56.23-.64,1.09-1.2,1C10.44,185.27,12,184,12.58,184.59Zm-.38-.05a2.65,2.65,0,0,0-.85.7Zm-.11-.08a2.4,2.4,0,0,0-.85.69Zm.22.17a2.55,2.55,0,0,0-.85.7Z"/><path class="b" d="M14.44,198.17c-.87.45-4.38-.31-2.72-.46h-.08c.43,0,.61.05.13.09A10.3,10.3,0,0,0,14.44,198.17Z"/><path class="b" d="M7.67,194.46c-.31.69,0,.85-.51,1.59C4.59,196.88,7.34,195.46,7.67,194.46Z"/><path class="b" d="M13,190c-.59-.93-.8-1,.4-.28.8.56-.72-.65.57.2C13.46,189,15,191.21,13,190Zm.64,0a4,4,0,0,0-1.16-.8Z"/><path class="b" d="M9.38,185.79c-.19-.74,1.89-1.95.64-1.07C11.37,182.91,10.54,185.39,9.38,185.79Zm.27-.51a3.78,3.78,0,0,0,.84-.72Zm0-.14a4.29,4.29,0,0,0,.83-.72Z"/><path class="b" d="M13.58,185.52c1.4.26,0,.17.58-.49C14.94,185.36,15,186.74,13.58,185.52Z"/><path class="b" d="M12.12,183.41c1.46.37-.4-.47,1.2.08C10.08,184.33,13.57,183.1,12.12,183.41Zm.72.32a3,3,0,0,0-1-.23Z"/><path class="b" d="M11.69,188c2.57.06-.73-.11,1.12-.1C11.57,186.84,15.17,189.33,11.69,188Zm1.3.15a3.2,3.2,0,0,0-1-.08Z"/><path class="b" d="M12.31,191.52c.53-.59,2.9.78.73-.15C15.23,191.71,13.42,192.35,12.31,191.52Z"/><path class="b" d="M9.38,190.5c1-.12-1.8,2.31-.77.32A1.81,1.81,0,0,1,9.38,190.5Z"/><path class="b" d="M15,195.44c1.92.17,1.27-.37.06-1.16C16.86,194.77,17.21,196.46,15,195.44Z"/><path class="b" d="M14.49,183.27c-.5.53-2.56-.1-1.32-.44C13.66,183.09,14.15,182.81,14.49,183.27Zm-1.4-.25a3.24,3.24,0,0,0,.83.32Zm-.09,0a2.91,2.91,0,0,0,.83.32Zm.18-.08h0C13.37,183.09,13.62,183.19,13.18,183Z"/><path class="b" d="M12.67,184c2.29.55-1.25.78-.4-.11C13,184.27,13.7,184.48,12.67,184Z"/><path class="b" d="M16.36,194c-2.92-.12,1.82-1.14-.06-.79C16,193.7,16.06,193.44,16.36,194Z"/><path class="b" d="M12.51,196.94c-.54-.19-.26-.19.17-.07.26-.27-.82,1-1.55-.13C13.36,197.21,10.42,196.4,12.51,196.94Z"/><path class="b" d="M12,190.65c-1.93.83-1,.08.16.16C9.94,192.05,9.53,190.73,12,190.65Z"/><path class="b" d="M17,197.33c-.45-.09.34-.23.34.2C17.15,198.3,13.93,196.44,17,197.33Z"/><path class="b" d="M9.05,186.49c-.46,2.18-1.89,1.46-.2,0C8.24,187.43,8.32,186.94,9.05,186.49Zm-.83,1.08a2.34,2.34,0,0,0,.61-.7Zm0-.2a2.45,2.45,0,0,0,.61-.7Z"/><path class="b" d="M11.31,188.91c3.65-.16-2.69.63,1.11-.26A6,6,0,0,0,11.31,188.91Z"/><path class="b" d="M11.28,181.87c.32-.54,1.35-1.05,1.64-.66C12.54,181.94,11.8,181.57,11.28,181.87Zm1-.36h0C12.19,181.48,12,181.48,12.26,181.51Zm.12-.13h0C12.33,181.35,12.14,181.35,12.38,181.38Z"/><path class="b" d="M11.51,186.41c-.5,0,1,1.09-1,.73C11.75,185.6,10.5,187.38,11.51,186.41Z"/><path class="b" d="M11.52,188.59c-.69.85-3,.67-1.21.07C9.81,189.17,10.11,188.81,11.52,188.59Z"/><path class="b" d="M15.65,196.89c-2.69.52-2.33-.81-1.05,0-.57-.27-.24-.2.22,0C14,196.51,15.34,196.81,15.65,196.89Z"/><path class="b" d="M15.09,184.35c-.32.12-1.4-.71-.91-.79C14.62,183.09,15,184,15.09,184.35Z"/><path class="b" d="M9.91,186.52c-1.15,1.63.08-.34.18.26C9,188.73,8.64,187.57,9.91,186.52Zm.09.08a4.65,4.65,0,0,0-.74,1Z"/><path class="b" d="M11.71,182.94c.44-.6,2-.49.94,0C12.41,183.41,12,183.35,11.71,182.94Zm1.12-.32a1.79,1.79,0,0,0-.78.36Zm-.69.41a1.75,1.75,0,0,0,.77-.36Zm-.19-.18a1.79,1.79,0,0,0,.78-.36Z"/><path class="b" d="M14.32,195.8l-.49-.13c2.11.69-3.29-.31-.11,0C12.86,195.41,13.94,195.8,14.32,195.8Zm-.23.07a3.13,3.13,0,0,0-1-.26Z"/><path class="b" d="M11.23,193c1.85-.22.62.77-.33-.09C12,192.78,13.33,193,11.23,193Z"/><path class="b" d="M9,197a2.2,2.2,0,0,1,1.91-.29A2.76,2.76,0,0,1,9,197Zm.62-.27a8.34,8.34,0,0,0,1,0Z"/><path class="b" d="M8.51,190.53a2,2,0,0,0,1-1.32C10.32,189.2,9.08,191,8.51,190.53Z"/><path class="b" d="M9.76,184.62c.86-2.39.63.46-.4.28,1.39-3.07-.43,1.18.71-1.3C8.66,186.91,11.05,181.64,9.76,184.62Z"/><path class="b" d="M10.8,182.08c.59-.27-.25.36-.49.37C10.58,181.15,12.64,181.05,10.8,182.08Zm.06-.21c.22-.09.11,0,0,0S11.19,181.81,10.86,181.87Z"/><path class="b" d="M11.54,196.16c1,.29-1.11.62-1.47.33A10.42,10.42,0,0,1,11.54,196.16Z"/><path class="b" d="M9.14,196.65c-.19.31-1.77.93-1.53.39A2.9,2.9,0,0,1,9.14,196.65Z"/><path class="b" d="M13.6,187.3c-.47,0-1.59.47-1.07-.26C13,187,13.41,186.76,13.6,187.3Z"/><path class="b" d="M13.49,197.22c.54-.37,1.31.16,1.95,0C15.62,197,16.29,197.8,13.49,197.22Z"/><path class="b" d="M14.33,191.14c.3.08.57.29.86.39s-.39.53-1.41-.47C14.73,191.23,15.9,192.15,14.33,191.14Z"/><path class="b" d="M10.36,190.71c.83-1,.87-.37.61-.22C12.17,189.48,11.23,191.18,10.36,190.71Z"/><path class="b" d="M9.34,190.34c2.79-1.48-.9.45,1.4-.58C8.41,190.53,12.68,189.61,9.34,190.34Z"/><path class="b" d="M15.91,188.38c.26-.57-.12,1-.61-1.24C16.46,189.87,14.82,185.59,15.91,188.38Z"/><path class="b" d="M9.56,197.32a.9.9,0,0,1,.58-.09C11.48,196.69,11.69,197.73,9.56,197.32Z"/><path class="b" d="M9.46,194.79c-.76.46-1.42.67-2.28,1.12C7.91,195.57,8.64,194.59,9.46,194.79Z"/><path class="b" d="M14.25,192.76c1.51.32,1.35.71.39-.17C16.19,193.33,15.33,193.59,14.25,192.76Z"/><path class="b" d="M7.9,196.34a1.24,1.24,0,0,1,1.18-.29l-.65.07C10.71,195.88,9.2,196.38,7.9,196.34Z"/><path class="b" d="M12,195.88s1.88.08.23.3C11.29,196.1,10.87,195.67,12,195.88Z"/><path class="b" d="M13.05,196.13c.57-.23,1.18.08,1.77.11C14.21,196.35,13.59,196.54,13.05,196.13Z"/><path class="b" d="M16.56,194.92c-.15.4-1.19-.82-.21-.35C17.56,195.52,18.33,196,16.56,194.92Z"/><path class="b" d="M8.79,196.41c1,0,2.14-.29,1.66-.48C12.07,195.85,9.23,196.87,8.79,196.41Z"/><path class="b" d="M10.32,188.51c.08-.26.25-.17.38-.21C11,187.92,12.23,188.49,10.32,188.51Z"/><path class="b" d="M9.89,189.65c-.35,0,.53-.48.71,0-.53.29-1.69.66-.6,0C9.79,189.79,9.59,189.83,9.89,189.65Z"/><path class="b" d="M15.49,195.79c1.9.17.36.06,1.27,0C18,196.32,15.83,196.13,15.49,195.79Z"/><path class="b" d="M15.44,192.68c-.22,0-.15-.15.22.47C14.64,192.93,14.53,191.76,15.44,192.68Z"/><path class="b" d="M11.91,191.06a2.38,2.38,0,0,1,1.89.22A12.21,12.21,0,0,1,11.91,191.06Z"/><path class="b" d="M14.61,186.34c.36-.11.51.24.83.38C15.55,187.46,14.72,186.76,14.61,186.34Z"/><path class="b" d="M10.2,186.66c.89-.74.76.35-.21.47C10.06,186.62,10.88,186.72,10.2,186.66Z"/><path class="b" d="M11,197.74c.71.31-1.05.14-1.87,0C9.62,197.44,10.37,198,11,197.74Z"/><path class="b" d="M15.38,192.15c-.63.11-1.08-.39-1.51-.77A10.72,10.72,0,0,1,15.38,192.15Z"/><path class="b" d="M13.38,193c.35-.4,1.08.12,1.53.27C14.41,193.46,13.89,193.08,13.38,193Zm.63.12.48.14C14,193.09,13.09,192.87,14,193.12Z"/><path class="b" d="M7.35,191.24c.8-.94.1.26-.31.58C7.46,190.18,8,190.48,7.35,191.24Z"/><path class="b" d="M9.73,193.32c-2.33.12,1.29-.38-.41-.06Z"/><path class="b" d="M11.44,195.06c.22-.14,1-.3.63,0C13.4,195.65,12.35,195.4,11.44,195.06Z"/><path class="b" d="M9.16,186.49c0,.53-.12.19.31,0C9.73,187.37,8.43,187.46,9.16,186.49Z"/><path class="b" d="M11.09,195.54c-.37,0-.05-.08.19-.1-.23.14-.07-.54.49-.16C11.67,195.67,9.59,196,11.09,195.54Z"/><path class="b" d="M7.59,197.65c.31-.43.88-.19,1.35-.32C8.64,197.81,8.05,197.58,7.59,197.65Z"/><path class="b" d="M13.42,192.79c-.33.43-1-.08-1.5.09C12.36,192.48,12.91,192.72,13.42,192.79Z"/><path class="b" d="M7.62,196.86c-.4.25.15.14-.44.47C8.34,197.26,5.43,198.34,7.62,196.86Z"/><path class="b" d="M17.9,193.09c-.31-.45-.82-.83-1-1.34C17.39,192.13,17.85,192.45,17.9,193.09Z"/><path class="b" d="M7.68,195.45c0-1.11.62-.5.41-.51C8.14,195,9,194.63,7.68,195.45Z"/><path class="b" d="M13,194.45a1.56,1.56,0,0,1,1.36.68A6.18,6.18,0,0,1,13,194.45Z"/><path class="b" d="M12.32,197.45c0,.49-2.17-.39-.28-.07C11.67,197.37,12.09,197.5,12.32,197.45Z"/><path class="b" d="M7.82,194.57c0-.56.66-.89,1-1C8.3,194.05,8.43,194.18,7.82,194.57Z"/><path class="b" d="M17.09,196.73c1.41,1-.29.17-.66-.12C16.6,196.54,17.37,196.88,17.09,196.73Z"/><path class="b" d="M10.59,192.54c-.91.39-.36-.06.27.1C9.66,193.21,9.14,192.8,10.59,192.54Z"/><path class="b" d="M13.88,195c-.55.15-1.07-.29-1.6-.42C12.8,194.42,13.33,195,13.88,195Z"/><path class="b" d="M15.77,196.86a3.2,3.2,0,0,1,1.32.25C16.69,197.14,16.08,197.26,15.77,196.86Z"/><path class="b" d="M16,196.18c.7.66-.61,0-.84-.3A2.41,2.41,0,0,1,16,196.18Z"/><path class="b" d="M13.19,197.07c-.72.34-.25,0,.26.07C12.64,197.77,11.9,197.27,13.19,197.07Z"/><path class="b" d="M14.19,197.43c-.19.1-1.22.34-1.12,0C13.43,197.23,13.79,197.4,14.19,197.43Z"/><path class="b" d="M16,193.08c-.28.28-.79-.91-.45-.84S15.76,192.86,16,193.08Z"/><path class="b" d="M15.85,188c0-.43-.5-1.12-.24-1.31C15.72,187,16.07,187.59,15.85,188Z"/><path class="b" d="M10.82,190.11a1.71,1.71,0,0,1-1.17.68A3.3,3.3,0,0,1,10.82,190.11Z"/><path class="b" d="M14.71,187.13c.2-.08.32.11.47.22C14.55,186.29,16.57,189.13,14.71,187.13Z"/><path class="b" d="M15,195.59a1.31,1.31,0,0,1-1-.45A1.59,1.59,0,0,1,15,195.59Z"/><path class="b" d="M12.9,195.12c1.29.7-1.52-.53.49,0A1.43,1.43,0,0,1,12.9,195.12Z"/><path class="b" d="M13.3,196.39c-.38.18-.73,0-1.09-.08C12.62,196.23,12.93,196.09,13.3,196.39Z"/><path class="b" d="M14,196.49c.47,0,1-.3,1.37,0A10.21,10.21,0,0,1,14,196.49Z"/><path class="b" d="M10.15,184.2c.1-.33.36-.73.46-.48C11.22,183.65,10.37,184.09,10.15,184.2Z"/><path class="b" d="M8.66,189l.91-.25C9.42,189.22,9,189.14,8.66,189Z"/><path class="b" d="M14.88,193.48c-.06-.21.61-.06.63.12S15.21,193.74,14.88,193.48Z"/><path class="b" d="M15.26,194.11c.31,0,.68,0,.92.21C15.82,194.56,15.55,194.3,15.26,194.11Z"/><path class="b" d="M16,196.57c1.53.47-2.07,0-.58.08C15.58,196.54,15.83,196.64,16,196.57Z"/><path class="b" d="M13.13,181.84c-.25.25-.51.11-.79,0C12.6,181.75,12.92,181.56,13.13,181.84Z"/><path class="b" d="M12.58,194.06c.22-.34.56.15.79.26C13.13,194.37,13,194.31,12.58,194.06Z"/><path class="b" d="M9.56,183.29c.21-.25.28-.78.63-.74A1.49,1.49,0,0,1,9.56,183.29Z"/><path class="b" d="M9.81,193.11a1,1,0,0,1,.86-.08C10.49,193.38,10.1,193.09,9.81,193.11Z"/><path class="b" d="M16.77,196.52c-.3.13-.49-.17-.71-.38C16.3,196.11,16.49,196.21,16.77,196.52Z"/><path class="b" d="M12.2,195.61c-.7-.13-.06,0,.3.2C11.73,195.83,11.09,195.26,12.2,195.61Z"/><path class="b" d="M11.52,188.42a1.26,1.26,0,0,1,.93.06A1.41,1.41,0,0,1,11.52,188.42Z"/><path class="b" d="M14.53,195.69a6.14,6.14,0,0,1-1.07-.45A1.55,1.55,0,0,1,14.53,195.69Z"/><path class="b" d="M13.24,181.48c-.17.23-.35,0-.57.11C12.87,181.35,13,181.13,13.24,181.48Z"/><path class="b" d="M7.55,190.43c.11-.14.17-.45.38-.43C7.88,190.23,7.85,190.65,7.55,190.43Z"/><path class="b" d="M8,197.25a3.09,3.09,0,0,1,1.28-.09A4.93,4.93,0,0,1,8,197.25Z"/><path class="b" d="M15.14,196a1,1,0,0,1-.8,0C14.63,196,14.91,195.77,15.14,196Z"/><path class="b" d="M8.5,190.75c-.36.16.34-.06-.11.34S8.19,190.65,8.5,190.75Z"/><path class="b" d="M16.94,192c-.18-.13-.39-.18-.53-.45C16.73,191.51,16.86,191.68,16.94,192Z"/><path class="b" d="M17.65,194a6.65,6.65,0,0,1-.81-.53C17.18,193.59,17.48,193.61,17.65,194Z"/><path class="b" d="M11.71,196.53c.2-.22.41,0,.63,0C12.2,196.71,11.94,196.67,11.71,196.53Z"/><path class="b" d="M8.16,193c.17-.15.3-.41.52-.32C8.64,193,8.39,193,8.16,193Z"/><path class="b" d="M8.45,193.47a.87.87,0,0,0-.36.35C7.73,193.89,8.28,193.2,8.45,193.47Z"/><path class="b" d="M14.11,189.76c.17,0,.39.2.52,0C14.93,190.18,14.33,190,14.11,189.76Z"/><path class="b" d="M15.83,192.64a1.18,1.18,0,0,1,.41.37C16.09,193.17,15.87,192.92,15.83,192.64Z"/><path class="b" d="M7.42,192.61c.2-.34.48-.43.73-.63A2.85,2.85,0,0,1,7.42,192.61Z"/><path class="b" d="M11.84,194.69c.23-.31.57.19.88.22Z"/><path class="b" d="M12.83,194.36c0,.21.21.17.32.3C12.73,194.54,12.08,194.07,12.83,194.36Z"/><path class="b" d="M10,192.49c-.18.3-.42.27-.65.32C9.46,192.69,9.78,192.47,10,192.49Z"/><path class="b" d="M9.08,197.48c.33-.16.66,0,1,.12Z"/><path class="b" d="M11.34,190.64c.19-.11.42-.54.55-.17C11.69,190.51,11.5,190.66,11.34,190.64Z"/><path class="b" d="M8.41,191.33c0,.28-.17.3-.35.41C8.09,191.42,8.26,191.41,8.41,191.33Z"/><path class="b" d="M8.31,192.35c.32-.06,0,.43-.11.49Z"/><path class="b" d="M17.86,195.83c0-.35.38,0,.53.14Z"/><path class="b" d="M10.42,190.83c-.09.25-.38,0-.58,0A.78.78,0,0,1,10.42,190.83Z"/><path class="b" d="M11.17,190.83a1.29,1.29,0,0,1,.78-.28Z"/><path class="b" d="M16.18,190.63c-.33-.21-.56-.38-.07-.23C16.15,190.41,16.17,190.46,16.18,190.63Z"/><path class="b" d="M9.8,186.52c-.18.27-.39.54-.18,0C9.65,186.48,9.8,186.46,9.8,186.52Z"/><path class="b" d="M14.88,193.48c.18.13.36.25.53.4C15.3,194,14.67,193.4,14.88,193.48Z"/><path class="b" d="M12.75,193.83c.14-.24.19-.24.33,0Z"/><path class="b" d="M8.68,193.31c.07.23-.24.37-.4.45Z"/><path class="b" d="M13,185.59c-.24.42-.4.35-.17,0C12.91,185.55,13,185.57,13,185.59Z"/><path class="b" d="M16.43,194.2c0,.1.16.36,0,.32S16.1,194.23,16.43,194.2Z"/><path class="b" d="M7.8,194.45c0,.17,0,.37-.29.4A1.06,1.06,0,0,1,7.8,194.45Z"/><path class="b" d="M7.49,190.37c-.11.24-.12.55-.32.71A2.51,2.51,0,0,1,7.49,190.37Z"/><path class="b" d="M10.28,191.08c-.12.18-.18.44-.4.5A1.73,1.73,0,0,1,10.28,191.08Z"/><path class="b" d="M15.64,196.38c-.14,0-.27.09-.4-.07C15.38,196.29,15.51,196.22,15.64,196.38Z"/><path class="b" d="M13,186.81c.16-.2.3-.05.46,0Z"/><path class="b" d="M15,193.66c.11.11.35.17.37.32C15.25,193.92,14.83,193.64,15,193.66Z"/><path class="b" d="M10.39,182.09c-.08.16-.06.32-.24.36C10.2,182.25,10.26,182.14,10.39,182.09Z"/><path class="b" d="M8.39,193.19l.38-.14C8.68,193.26,8.43,193.29,8.39,193.19Z"/><path class="b" d="M15.52,197.18l-.56-.07C15.08,197,15.48,197.08,15.52,197.18Z"/><path class="b" d="M9.1,193.55c-.18.1-.33.32-.51.37C8.74,193.8,8.93,193.51,9.1,193.55Z"/><path class="b" d="M13.12,181.7a.2.2,0,0,1,.28-.06C13.29,181.78,13.2,181.8,13.12,181.7Z"/><path class="b" d="M14.53,195.69c.22,0,.44,0,.65.06A1,1,0,0,1,14.53,195.69Z"/><path class="b" d="M10.15,193.2H9.59C9.66,193.11,9.81,193.11,10.15,193.2Z"/><path class="b" d="M10.76,197.59c-.2.12-.39,0-.59,0C10.33,197.55,10.57,197.62,10.76,197.59Z"/><path class="b" d="M10.13,188.59a.44.44,0,0,1-.45.12Z"/><path class="b" d="M16.4,194.16c-.09,0-.2.09-.3-.06C16.22,194.09,16.43,194,16.4,194.16Z"/><path class="b" d="M14.63,187c.12-.07.23-.17.32,0A.5.5,0,0,1,14.63,187Z"/><path class="b" d="M13.26,183.74c.09-.25.2-.1.3-.06Z"/><path class="b" d="M8.81,192.38c-.09,0-.25.11-.3,0S8.8,192.3,8.81,192.38Z"/><path class="b" d="M10.74,193l-.42-.05S10.67,192.85,10.74,193Z"/><path class="b" d="M10.83,192.87c-.1.09-.21,0-.31,0S10.85,192.78,10.83,192.87Z"/><path class="b" d="M11.93,195.36a1,1,0,0,1,.49.18C12.27,195.47,12,195.47,11.93,195.36Z"/><path class="b" d="M8.49,192.57c0-.09.16-.15.3-.12C8.69,192.58,8.58,192.53,8.49,192.57Z"/><path class="b" d="M8.16,191.31c0-.08.12-.16.3-.22C8.45,191.16,8.34,191.25,8.16,191.31Z"/><path class="b" d="M8.45,191.21c-.09.15-.2.14-.3.23C8.15,191.35,8.31,191.24,8.45,191.21Z"/><path class="b" d="M8.78,193.93a.68.68,0,0,1,.42-.27Z"/><path class="b" d="M8.72,192.58c-.07.12-.18.07-.28.12S8.57,192.56,8.72,192.58Z"/><path class="b" d="M10.51,197.08c.11-.07.22-.2.36-.11Z"/><path class="b" d="M12.83,194.36c-.1-.06-.41-.11-.3-.21C12.62,194.23,12.79,194.27,12.83,194.36Z"/><path class="b" d="M16,196.57a1.31,1.31,0,0,1-.48,0A1,1,0,0,1,16,196.57Z"/><path class="b" d="M12.86,186.93c-.12,0-.41.14-.33,0A1.66,1.66,0,0,1,12.86,186.93Z"/><path class="b" d="M15.51,187.15c.06,0,.13.23.19.56Z"/><path class="b" d="M15.17,193.86c.19.1,0,.24-.13-.07Z"/><path class="b" d="M8,192.2a.33.33,0,0,1-.28.23Z"/><path class="b" d="M7.65,194.33l.2-.35A.43.43,0,0,1,7.65,194.33Z"/><path class="b" d="M15.31,196.17c-.14,0-.32.09-.43,0C15,196.22,15.25,196.07,15.31,196.17Z"/><path class="b" d="M14.78,183.51l-.2-.16C14.72,183.32,14.75,183.34,14.78,183.51Z"/><path class="b" d="M8.59,193.29c-.11,0-.25,0-.34,0C8.35,193.3,8.55,193.2,8.59,193.29Z"/><path class="b" d="M13.08,196.72c-.13-.07-.36-.08-.43-.19C12.78,196.6,13,196.61,13.08,196.72Z"/><path class="b" d="M8.15,191.84l-.33.24A.5.5,0,0,1,8.15,191.84Z"/><path class="b" d="M14.57,191.19c.11-.07.17.06.25.14Z"/><path class="b" d="M15.68,186.65c.08,0,.12.17.09.33Z"/><path class="b" d="M14.26,192.93l-.25-.07A.15.15,0,0,1,14.26,192.93Z"/><path class="b" d="M16.13,192.81l.23.18C16.3,193,16.22,193,16.13,192.81Z"/><path class="b" d="M7.7,195c0,.21,0,.22-.13.23Z"/><path class="b" d="M9,193l-.25.2C8.86,193.12,8.91,193,9,193Z"/><path class="b" d="M14.3,185c.13,0,.13,0,.18.14Z"/><path class="b" d="M11.09,195.79c.08,0,.16-.13.26,0Z"/><path class="b" d="M9.33,196.68l-.18.11C9.19,196.64,9.19,196.64,9.33,196.68Z"/><path class="b" d="M11.55,196.16c-.09,0-.25,0-.28,0S11.46,196.14,11.55,196.16Z"/><path class="b" d="M9.3,197.32c-.08,0-.24.1-.25,0S9.26,197.26,9.3,197.32Z"/><path class="b" d="M13.05,184c0-.07.08-.06.17.08Z"/><path class="b" d="M17,193.42c0-.09.06-.08.12,0Z"/><path class="b" d="M8.59,189.21c-.06,0-.14.16-.18.1S8.56,189.13,8.59,189.21Z"/><path class="b" d="M8.11,193.18c.05,0,.17-.09.18,0S8.11,193.27,8.11,193.18Z"/><path d="M9.15,195.38a7,7,0,0,1,1.24.07A4.88,4.88,0,0,1,9.15,195.38Z"/><path d="M9.33,195.24c.42,0,.86,0,1.26,0A4,4,0,0,1,9.33,195.24Z"/><path d="M9,195.52a10.33,10.33,0,0,1,1.26.06A4,4,0,0,1,9,195.52Z"/><path d="M10.11,194.9c.16,0,.44-.06.54,0A2.46,2.46,0,0,1,10.11,194.9Z"/><path d="M10.27,194.77c.13,0,.62-.06.52,0S10.35,194.87,10.27,194.77Z"/><path d="M15.83,185.65c-.3-.06-.65,0-.88-.11A2.22,2.22,0,0,1,15.83,185.65Z"/><path d="M15.05,185.77c.27,0,.62-.07.86.07A2.3,2.3,0,0,1,15.05,185.77Z"/><path d="M15.13,186A4.57,4.57,0,0,1,16,186,1.76,1.76,0,0,1,15.13,186Z"/><path d="M15,185c.13,0,.26-.05.38,0A.71.71,0,0,1,15,185Z"/><path d="M10.13,194a7.41,7.41,0,0,1-1.16,0C9.35,194,9.74,194.05,10.13,194Z"/><path d="M8.56,194.31c.38,0,.75,0,1.12,0C9.3,194.31,8.92,194.35,8.56,194.31Z"/><path d="M9.89,194.19c-.38,0-.75,0-1.12,0C9.15,194.19,9.52,194.17,9.89,194.19Z"/><path d="M10.31,193.71c-.16,0-.34,0-.5,0A4.13,4.13,0,0,1,10.31,193.71Z"/><path d="M10.52,193.58c-.17,0-.34,0-.51,0A4.34,4.34,0,0,1,10.52,193.58Z"/><path d="M15.51,194.86c-.34,0-.68,0-1,0C14.85,194.86,15.19,194.82,15.51,194.86Z"/><path d="M14.32,194.71c.34,0,.68,0,1,0C15,194.71,14.64,194.75,14.32,194.71Z"/><path d="M15.69,195c-.34,0-.68,0-1,0A8.05,8.05,0,0,1,15.69,195Z"/><path d="M14.12,194.36a3.34,3.34,0,0,1,.45,0A2.24,2.24,0,0,1,14.12,194.36Z"/><path d="M13.94,194.23a2.26,2.26,0,0,1,.45,0A3.34,3.34,0,0,1,13.94,194.23Z"/><path d="M7,195.13a6.71,6.71,0,0,1-1,.67A6.71,6.71,0,0,1,7,195.13Z"/><path d="M7.21,194.7a8,8,0,0,1-1,.66A7.33,7.33,0,0,1,7.21,194.7Z"/><path d="M7.08,194.92a7.33,7.33,0,0,1-1,.66A7.33,7.33,0,0,1,7.08,194.92Z"/><path d="M6.93,194.41c.14-.07.29-.28.42-.27C7.21,194.21,7.05,194.42,6.93,194.41Z"/><path d="M7.22,194.36c-.14.07-.29.27-.42.27C6.93,194.56,7.12,194.33,7.22,194.36Z"/><path d="M7.57,193a1.65,1.65,0,0,1-.47.25A1.94,1.94,0,0,1,7.57,193Z"/><path d="M7.05,193.39c.15,0,.39-.27.48-.18C7.38,193.24,7.13,193.48,7.05,193.39Z"/><path d="M10.66,194.26a13,13,0,0,1,1.51-.3C11.65,194,11.14,194.24,10.66,194.26Z"/><path d="M12,193.74a3.39,3.39,0,0,1-.67.12C11.51,193.84,11.76,193.7,12,193.74Z"/><path d="M12.05,193.62c-.21,0-.46.15-.66.11C11.61,193.71,11.85,193.58,12.05,193.62Z"/><path d="M6.87,196.9a10.86,10.86,0,0,1-1.37.29A10.86,10.86,0,0,1,6.87,196.9Z"/><path d="M7,196.78a13.35,13.35,0,0,1-1.36.29A10.37,10.37,0,0,1,7,196.78Z"/><path d="M6.8,197a11.1,11.1,0,0,1-1.38.3A13.26,13.26,0,0,1,6.8,197Z"/><path d="M18.67,195.72a5.36,5.36,0,0,1-.84-.57A5.36,5.36,0,0,1,18.67,195.72Z"/><path d="M18.56,195.53a5.5,5.5,0,0,1-.85-.58A5.5,5.5,0,0,1,18.56,195.53Z"/><path d="M17.6,194.75a6.15,6.15,0,0,1,.84.57A5.36,5.36,0,0,1,17.6,194.75Z"/><path d="M17.93,194.68c-.11-.1-.33-.15-.37-.27C17.67,194.5,17.89,194.56,17.93,194.68Z"/><path d="M17.82,194.48c-.11-.09-.33-.15-.37-.27C17.55,194.31,17.77,194.36,17.82,194.48Z"/><path d="M14,190.72a12.5,12.5,0,0,1-1.58-.23A10.72,10.72,0,0,1,14,190.72Z"/><path d="M13.91,190.59a14.24,14.24,0,0,1-1.56-.23A10.63,10.63,0,0,1,13.91,190.59Z"/><path d="M17.15,190.85a10.3,10.3,0,0,1-.8-1A10.3,10.3,0,0,1,17.15,190.85Z"/><path d="M17.14,190.7a11.41,11.41,0,0,1-.79-1A10.38,10.38,0,0,1,17.14,190.7Z"/><path d="M17.12,190.54a8.91,8.91,0,0,1-.78-1A11.24,11.24,0,0,1,17.12,190.54Z"/><path d="M16.55,189.47c.1.15.29.28.34.44C16.79,189.76,16.6,189.63,16.55,189.47Z"/><path d="M16.88,189.77c-.1-.16-.29-.29-.34-.45C16.64,189.47,16.83,189.6,16.88,189.77Z"/><path d="M16,184.35c-.23-.11-.62-.09-.75-.27C15.49,184.19,15.87,184.18,16,184.35Z"/><path d="M16.07,184.53c-.22-.11-.61-.09-.75-.27C15.55,184.37,15.94,184.36,16.07,184.53Z"/><path d="M16,184.17c-.23-.1-.61-.09-.75-.26C15.43,184,15.81,184,16,184.17Z"/><path d="M15.26,183.51c.1.06.32,0,.33.15C15.5,183.6,15.27,183.63,15.26,183.51Z"/><path d="M8.05,189a7.82,7.82,0,0,1,.75-1A10,10,0,0,1,8.05,189Z"/><path d="M8,189.18a8.54,8.54,0,0,1,.76-1A8.54,8.54,0,0,1,8,189.18Z"/><path d="M8,189.33a9.85,9.85,0,0,1,.75-1A9.85,9.85,0,0,1,8,189.33Z"/><path d="M8.58,188c-.11.12-.2.35-.34.41C8.36,188.29,8.45,188.05,8.58,188Z"/><path d="M8.26,188.25c.11-.11.2-.34.33-.39C8.47,188,8.39,188.2,8.26,188.25Z"/><path d="M19.36,197.12a8.27,8.27,0,0,1-1.19-.35A9.28,9.28,0,0,1,19.36,197.12Z"/><path d="M18.11,196.65a9.12,9.12,0,0,1,1.18.35A9.12,9.12,0,0,1,18.11,196.65Z"/><path d="M18,196.52a9.12,9.12,0,0,1,1.18.35A7.78,7.78,0,0,1,18,196.52Z"/><path d="M16.86,192.69a10.87,10.87,0,0,1-1.1-.7A10.87,10.87,0,0,1,16.86,192.69Z"/><path d="M15.91,191.7c.14.12.36.18.47.32C16.24,191.91,16,191.85,15.91,191.7Z"/><path d="M16.43,192.16c-.14-.11-.37-.18-.47-.32C16.1,192,16.33,192,16.43,192.16Z"/><path d="M9.14,185.64a7.22,7.22,0,0,1-.86.69A7.22,7.22,0,0,1,9.14,185.64Z"/><path d="M8.25,186.47a7.22,7.22,0,0,1,.86-.69A7.22,7.22,0,0,1,8.25,186.47Z"/><path d="M8.23,186.6a6.89,6.89,0,0,1,.85-.67A6.89,6.89,0,0,1,8.23,186.6Z"/><path d="M8.58,185.78c.12-.08.25-.27.37-.28C8.83,185.57,8.7,185.77,8.58,185.78Z"/><path d="M9,185.37c-.13.08-.25.27-.38.28C8.71,185.58,8.85,185.38,9,185.37Z"/><path d="M10.3,183a6.87,6.87,0,0,1,1,.26A5.27,5.27,0,0,1,10.3,183Z"/><path d="M11.22,183.37a6.66,6.66,0,0,1-1-.26A5.61,5.61,0,0,1,11.22,183.37Z"/><path d="M10.18,183.2a6.23,6.23,0,0,1,1,.25A6.54,6.54,0,0,1,10.18,183.2Z"/><path d="M10.78,182.78c.12.06.32,0,.4.13C11.06,182.86,10.85,182.87,10.78,182.78Z"/><path d="M11.13,183c-.12-.05-.32,0-.41-.12C10.85,182.92,11.06,182.9,11.13,183Z"/><path d="M8.13,190.34a10.75,10.75,0,0,1,1-.76A10.33,10.33,0,0,1,8.13,190.34Z"/><path d="M9.18,189.45a10.67,10.67,0,0,1-1,.76A9.2,9.2,0,0,1,9.18,189.45Z"/><path d="M9.12,189.71a12.42,12.42,0,0,1-1,.77A9.42,9.42,0,0,1,9.12,189.71Z"/><path d="M9,189.35c-.15.09-.29.28-.44.31C8.66,189.58,8.8,189.38,9,189.35Z"/><path d="M14.17,189.34A6.21,6.21,0,0,1,13,189,5.54,5.54,0,0,1,14.17,189.34Z"/><path d="M14.12,189.19a6.21,6.21,0,0,1-1.17-.33A5.54,5.54,0,0,1,14.12,189.19Z"/><path d="M10.88,187.75a6.36,6.36,0,0,1,1.14-.29A5.62,5.62,0,0,1,10.88,187.75Z"/><path d="M12.06,187.31a5.46,5.46,0,0,1-1.14.29A6.36,6.36,0,0,1,12.06,187.31Z"/><path d="M11.18,191.39c.16,0,.43,0,.52.07C11.55,191.42,11.27,191.49,11.18,191.39Z"/><path d="M11,191.5c.16,0,.43,0,.52.07C11.35,191.54,11.08,191.6,11,191.5Z"/><path d="M14.14,193.54c-.18-.07-.44-.06-.58-.17C13.74,193.44,14,193.42,14.14,193.54Z"/><path d="M13.65,193.49c.18.07.44.06.58.17C14.05,193.59,13.79,193.61,13.65,193.49Z"/><path d="M14.08,187.29c.12.05.37,0,.41.1C14.37,187.35,14.11,187.4,14.08,187.29Z"/><path d="M14.6,187.55c-.12,0-.36,0-.41-.09C14.31,187.5,14.56,187.44,14.6,187.55Z"/><path d="M16.41,187.1c.05-.19,0-.43.1-.59C16.46,186.7,16.5,187,16.41,187.1Z"/><path d="M11,189.54h1.2A6,6,0,0,1,11,189.54Z"/><path d="M11.12,189.64a11.72,11.72,0,0,1,1.18,0A7.79,7.79,0,0,1,11.12,189.64Z"/><path d="M12.42,189.74H11.24A5.77,5.77,0,0,1,12.42,189.74Z"/><path d="M13.08,182.2l.8.47A2.69,2.69,0,0,1,13.08,182.2Z"/><path d="M14.26,182.16c-.09-.09-.3-.12-.33-.24C14,182,14.24,182,14.26,182.16Z"/><path d="M11,182.33a3.72,3.72,0,0,1,.77.29C11.54,182.5,11.2,182.49,11,182.33Z"/><path d="M11.13,182.25a3.63,3.63,0,0,1,.76.29A3.43,3.43,0,0,1,11.13,182.25Z"/><path d="M12,182.47a3.63,3.63,0,0,1-.76-.29A3.43,3.43,0,0,1,12,182.47Z"/><path d="M11.88,182c.1.06.29,0,.33.14S11.92,182.08,11.88,182Z"/><path d="M12.08,182.2c-.09,0-.28,0-.32-.14C11.85,182.12,12.05,182.11,12.08,182.2Z"/><path d="M12.28,186a6.86,6.86,0,0,1-1.12,0A8.11,8.11,0,0,1,12.28,186Z"/><path d="M11.23,185.82a8.15,8.15,0,0,1,1.12,0A6.86,6.86,0,0,1,11.23,185.82Z"/><path d="M8.88,191.68c.12-.11.23-.37.37-.4C9.12,191.39,9,191.65,8.88,191.68Z"/><path d="M9.43,184.36c-.24.13-.46.4-.7.45C9,184.69,9.19,184.42,9.43,184.36Z"/><path d="M9.51,184.18c-.23.12-.45.39-.69.44C9.05,184.5,9.27,184.23,9.51,184.18Z"/><path d="M8.66,185c.23-.12.46-.39.69-.45C9.12,184.67,8.9,184.94,8.66,185Z"/><path d="M9.26,183.86c.1,0,.24-.22.31-.18C9.47,183.72,9.33,183.91,9.26,183.86Z"/><path d="M9.49,183.86c-.09,0-.24.22-.3.18C9.28,184,9.42,183.82,9.49,183.86Z"/><path d="M14.74,183.12a4.94,4.94,0,0,1-.62-.7A5.66,5.66,0,0,1,14.74,183.12Z"/><path d="M15,183.12c-.19-.24-.48-.42-.6-.68A5.32,5.32,0,0,1,15,183.12Z"/><path d="M14.87,183.12c-.19-.24-.48-.43-.6-.68A5.32,5.32,0,0,1,14.87,183.12Z"/><path d="M15.3,183c-.08-.11-.25-.2-.26-.31C15.11,182.75,15.28,182.84,15.3,183Z"/><path d="M15.17,183c-.08-.1-.24-.19-.26-.31C15,182.75,15.15,182.84,15.17,183Z"/><path d="M8.13,195.75c-.16.09-.33.32-.48.33C7.81,196,8,195.75,8.13,195.75Z"/><path d="M11.09,184c.11.05.34,0,.38.1C11.35,184.05,11.12,184.11,11.09,184Z"/><path d="M11,184.13c.11,0,.34,0,.39.09C11.23,184.18,11,184.24,11,184.13Z"/><path d="M13,192.28a8,8,0,0,1,1.16.2A8.24,8.24,0,0,1,13,192.28Z"/><path d="M12.83,192.35c.39.09.81.08,1.17.2A8.14,8.14,0,0,1,12.83,192.35Z"/><path d="M13.07,192.21a8.24,8.24,0,0,1,1.16.2C13.84,192.32,13.42,192.33,13.07,192.21Z"/><path d="M13.55,185.14a5,5,0,0,1-.94-.22A5,5,0,0,1,13.55,185.14Z"/><path d="M12.51,185a6.47,6.47,0,0,1,1,.21A5.41,5.41,0,0,1,12.51,185Z"/><path d="M12.41,185.09a5.4,5.4,0,0,1,1,.22A5.4,5.4,0,0,1,12.41,185.09Z"/><path d="M16.54,190.91a11.91,11.91,0,0,1,1,.84A10,10,0,0,1,16.54,190.91Z"/><path d="M16.55,191a9,9,0,0,1,1,.84C17.21,191.58,16.82,191.35,16.55,191Z"/><path d="M12,186.52a5.2,5.2,0,0,1,1-.08A6.13,6.13,0,0,1,12,186.52Z"/><path d="M14.07,188.54c-.25-.35-.64-.63-.79-1C13.53,187.9,13.92,188.18,14.07,188.54Z"/><path d="M13.41,187.49l.82,1A3.88,3.88,0,0,1,13.41,187.49Z"/><path d="M13.15,187.61c.24.35.71.7.76.95A6,6,0,0,1,13.15,187.61Z"/><path d="M11.44,192.44a6.58,6.58,0,0,1,1.25-.58A7.21,7.21,0,0,1,11.44,192.44Z"/><path d="M11.58,192.52a7.81,7.81,0,0,1,1.26-.59A7.37,7.37,0,0,1,11.58,192.52Z"/><path d="M14,183.87l.75.68C14.68,184.55,14,184,14,183.87Z"/><path d="M14.55,184.59a9.14,9.14,0,0,1-.74-.67A6.59,6.59,0,0,1,14.55,184.59Z"/><path d="M13.67,183.93c.23.25.58.43.72.7C14.16,184.38,13.81,184.2,13.67,183.93Z"/><path d="M17.41,195.89c-.11-.14-.34-.23-.39-.39C17.13,195.64,17.36,195.74,17.41,195.89Z"/><path d="M14,186.21c.13.08.34.09.44.21C14.28,186.34,14.07,186.32,14,186.21Z"/><path d="M9.07,192.54c.44-.2.83-.49,1.24-.63A11.17,11.17,0,0,1,9.07,192.54Z"/><path d="M15.81,188.93a10,10,0,0,1-.78-1A10,10,0,0,1,15.81,188.93Z"/><path d="M15,188.09a9.94,9.94,0,0,1,.78,1A9.94,9.94,0,0,1,15,188.09Z"/><path d="M16.77,188.67c-.2-.26-.51-.46-.65-.73C16.33,188.2,16.64,188.39,16.77,188.67Z"/><path d="M16.24,188.36c.21.26.52.45.65.72A4.81,4.81,0,0,1,16.24,188.36Z"/><path d="M16.82,188.87c-.2-.26-.5-.45-.63-.72C16.39,188.41,16.69,188.6,16.82,188.87Z"/><path d="M13.6,197.8a3.3,3.3,0,0,1,.69-.11A3.53,3.53,0,0,1,13.6,197.8Z"/><path d="M12.2,184.54c-.29.19-.61.6-.87.66C11.65,185,11.92,184.62,12.2,184.54Z"/><path d="M12.09,184.46c-.32.2-.58.57-.87.65C11.54,184.91,11.81,184.52,12.09,184.46Z"/><path d="M12.31,184.63c-.31.21-.58.58-.87.65C11.76,185.08,12,184.71,12.31,184.63Z"/><path d="M13.65,190.07a7.42,7.42,0,0,1-1.15-.84A7.93,7.93,0,0,1,13.65,190.07Z"/><path d="M9.65,185.28a9.77,9.77,0,0,1,.85-.7A8.23,8.23,0,0,1,9.65,185.28Z"/><path d="M9.68,185.14a7.1,7.1,0,0,1,.84-.69A8,8,0,0,1,9.68,185.14Z"/><path d="M12.84,183.73a8.23,8.23,0,0,1-1-.25A5.61,5.61,0,0,1,12.84,183.73Z"/><path d="M12.12,183.41c.24.11.59.1.78.23C12.63,183.57,11.67,183.39,12.12,183.41Z"/><path d="M13,188.12a5.31,5.31,0,0,1-1-.11A6.5,6.5,0,0,1,13,188.12Z"/><path d="M13.09,183a6.86,6.86,0,0,1,.83.34A7.16,7.16,0,0,1,13.09,183Z"/><path d="M13,183.06c.27.13.59.19.83.34A4.8,4.8,0,0,1,13,183.06Z"/><path d="M13.18,183a3.42,3.42,0,0,1,.65.27A4.22,4.22,0,0,1,13.18,183Z"/><path d="M8.22,187.57c.23-.22.39-.54.62-.67C8.61,187.12,8.44,187.46,8.22,187.57Z"/><path d="M8.26,187.37c.23-.22.4-.55.63-.67C8.65,186.92,8.49,187.25,8.26,187.37Z"/><path d="M12.26,181.51c-.09,0-.21,0-.29,0C12.06,181.51,12.18,181.47,12.26,181.51Z"/><path d="M12.38,181.38c-.09,0-.22,0-.29,0C12.18,181.38,12.31,181.33,12.38,181.38Z"/><path d="M10,186.6a10,10,0,0,1-.75,1A8.66,8.66,0,0,1,10,186.6Z"/><path d="M12.83,182.62c-.28.09-.55.33-.79.32C12.32,182.85,12.6,182.61,12.83,182.62Z"/><path d="M12.14,183c.28-.09.55-.33.78-.32C12.64,182.8,12.37,183,12.14,183Z"/><path d="M12,182.85c.28-.09.55-.33.78-.32C12.46,182.62,12.18,182.86,12,182.85Z"/><path d="M14.09,195.87a6.83,6.83,0,0,1-1-.29A6.08,6.08,0,0,1,14.09,195.87Z"/><path d="M9.57,196.76c.34,0,.68,0,1,0C10.23,196.76,9.9,196.79,9.57,196.76Z"/><path d="M10.86,181.87c.1,0,.28-.17.33-.09S10.91,182,10.86,181.87Z"/><path d="M14,193.12c-.16-.06-.4-.05-.51-.17Z"/><path d="M14,193.13a1.61,1.61,0,0,1,.49.13Z"/><path d="M12.32,197.45a5.8,5.8,0,0,1-.59,0C11.92,197.45,12.12,197.46,12.32,197.45Z"/></svg>