<svg xmlns="http://www.w3.org/2000/svg" width="180" height="205.98" viewBox="0 0 180 205.98"><defs><style>.a,.aa,.c,.d,.e,.f,.g,.h,.i,.j,.k,.l,.m,.n,.o,.p,.q,.r,.s,.t,.u,.v,.w,.x,.y,.z{fill:#fff;stroke:#000;stroke-miterlimit:10;}.a{stroke-width:0.63px;}.b{fill:#d3d3d3;}.c{stroke-width:0.63px;}.d{stroke-width:0.63px;}.e{stroke-width:0.61px;}.f{stroke-width:0.61px;}.g{stroke-width:0.61px;}.h{stroke-width:0.26px;}.i{stroke-width:0.55px;}.j{stroke-width:0.49px;}.k{stroke-width:0.55px;}.l{stroke-width:0.48px;}.m{stroke-width:0.24px;}.n{stroke-width:0.53px;}.o{stroke-width:0.46px;}.p{stroke-width:0.52px;}.q{stroke-width:0.46px;}.r{stroke-width:0.55px;}.s{stroke-width:0.55px;}.t{stroke-width:0.47px;}.u{stroke-width:0.55px;}.v{stroke-width:0.47px;}.w{stroke-width:0.52px;}.x{stroke-width:0.32px;}.y{stroke-width:0.44px;}.z{stroke-width:0.52px;}.aa{stroke-width:0.51px;}</style></defs><path class="a" d="M86.91,160.61l-29.55,2.78a14.7,14.7,0,0,1-5.12-.56l-11.82-4c-1.32-.44-1.18-.92.32-1.06L70.3,155a14.94,14.94,0,0,1,5.12.55l11.82,4C88.56,160,88.41,160.47,86.91,160.61Z"/><polygon class="b" points="71.05 156.85 48.91 158.93 48.4 158.76 70.55 156.68 71.05 156.85"/><polygon class="b" points="72.62 157.38 50.47 159.46 49.96 159.29 72.11 157.21 72.62 157.38"/><polygon class="b" points="74.19 157.91 52.04 159.99 51.53 159.82 73.68 157.74 74.19 157.91"/><polygon class="b" points="71.63 159.86 61.74 160.79 61.26 160.62 71.14 159.69 71.63 159.86"/><polygon class="b" points="73.13 160.37 63.25 161.3 62.76 161.13 72.65 160.21 73.13 160.37"/><path class="c" d="M70.68,163l26.06,4.12a10.79,10.79,0,0,0,4.6-.44l10.81-4.06c1.21-.45,1.12-1-.2-1.2l-26.06-4.12a10.79,10.79,0,0,0-4.6.44l-10.82,4.05C69.26,162.21,69.36,162.75,70.68,163Z"/><polygon class="b" points="85.07 159.3 104.6 162.39 105.06 162.22 85.53 159.13 85.07 159.3"/><polygon class="b" points="83.64 159.84 103.17 162.93 103.63 162.76 84.1 159.67 83.64 159.84"/><polygon class="b" points="82.2 160.38 101.73 163.47 102.19 163.29 82.66 160.21 82.2 160.38"/><polygon class="b" points="84.33 162.64 93.05 164.02 93.49 163.86 84.77 162.48 84.33 162.64"/><polygon class="b" points="82.95 163.16 91.67 164.54 92.11 164.37 83.39 162.99 82.95 163.16"/><path class="c" d="M51,166.52l26.32,1.93a10.72,10.72,0,0,0,4.54-.82l10.44-4.94c1.17-.55,1-1.09-.3-1.18l-26.32-1.93a10.72,10.72,0,0,0-4.54.82l-10.44,4.94C49.48,165.89,49.62,166.43,51,166.52Z"/><polygon class="b" points="64.99 161.68 84.71 163.13 85.16 162.92 65.44 161.47 64.99 161.68"/><polygon class="b" points="63.61 162.34 83.33 163.78 83.78 163.57 64.06 162.12 63.61 162.34"/><polygon class="b" points="62.22 162.99 81.94 164.44 82.39 164.23 62.67 162.78 62.22 162.99"/><polygon class="b" points="64.53 165.07 73.33 165.72 73.76 165.51 64.96 164.87 64.53 165.07"/><polygon class="b" points="63.2 165.7 72 166.35 72.43 166.15 63.63 165.5 63.2 165.7"/><path class="c" d="M41,163.79l26.3,2A10.76,10.76,0,0,0,71.8,165l10.46-4.9c1.17-.55,1-1.08-.3-1.18l-26.31-2a10.78,10.78,0,0,0-4.55.81l-10.46,4.9C39.48,163.15,39.61,163.68,41,163.79Z"/><polygon class="b" points="55 159 74.71 160.51 75.16 160.3 55.45 158.79 55 159"/><polygon class="b" points="53.62 159.64 73.33 161.16 73.78 160.95 54.06 159.44 53.62 159.64"/><polygon class="b" points="52.22 160.3 71.94 161.81 72.39 161.6 52.67 160.09 52.22 160.3"/><polygon class="b" points="54.53 162.38 63.33 163.06 63.75 162.86 54.96 162.18 54.53 162.38"/><polygon class="b" points="53.19 163.01 61.99 163.69 62.42 163.49 53.62 162.81 53.19 163.01"/><path class="d" d="M133.9,163.31l-26.26,3.23a10.92,10.92,0,0,1-4.59-.6l-10.69-4.42c-1.2-.49-1.09-1,.24-1.19l26.26-3.23a10.61,10.61,0,0,1,4.59.6l10.7,4.42C135.34,162.61,135.23,163.15,133.9,163.31Z"/><polygon class="b" points="119.61 159.17 99.93 161.59 99.47 161.4 119.15 158.98 119.61 159.17"/><polygon class="b" points="121.02 159.75 101.34 162.17 100.89 161.98 120.56 159.56 121.02 159.75"/><polygon class="b" points="122.44 160.34 102.77 162.76 102.31 162.57 121.99 160.15 122.44 160.34"/><polygon class="b" points="120.23 162.53 111.45 163.61 111.01 163.43 119.79 162.35 120.23 162.53"/><polygon class="b" points="121.59 163.09 112.81 164.18 112.38 163.99 121.16 162.91 121.59 163.09"/><path class="d" d="M112.82,169.78,86.4,171a10.86,10.86,0,0,1-4.53-1l-10.33-5.24c-1.15-.59-1-1.11.35-1.17l26.42-1.18a10.86,10.86,0,0,1,4.53,1l10.32,5.24C114.32,169.19,114.16,169.72,112.82,169.78Z"/><polygon class="b" points="98.89 164.54 79.09 165.43 78.65 165.2 98.45 164.32 98.89 164.54"/><polygon class="b" points="100.26 165.23 80.45 166.12 80.01 165.89 99.82 165.01 100.26 165.23"/><polygon class="b" points="101.63 165.93 81.83 166.81 81.39 166.59 101.19 165.71 101.63 165.93"/><polygon class="b" points="99.26 167.94 90.42 168.34 90 168.12 98.83 167.73 99.26 167.94"/><polygon class="b" points="100.57 168.61 91.74 169 91.31 168.79 100.15 168.4 100.57 168.61"/><path class="e" d="M47.89,161.8l25.15,1a9.93,9.93,0,0,0,4.31-1l9.79-5.29c1.1-.59,1-1.11-.33-1.17l-25.14-1a9.9,9.9,0,0,0-4.31,1l-9.8,5.29C46.47,161.22,46.62,161.75,47.89,161.8Z"/><polygon class="b" points="61.12 156.49 79.97 157.27 80.39 157.04 61.54 156.26 61.12 156.49"/><polygon class="b" points="59.83 157.19 78.67 157.97 79.09 157.74 60.24 156.96 59.83 157.19"/><polygon class="b" points="58.52 157.89 77.37 158.67 77.79 158.45 58.94 157.66 58.52 157.89"/><polygon class="b" points="60.79 159.89 69.2 160.24 69.6 160.02 61.19 159.67 60.79 159.89"/><polygon class="b" points="59.54 160.57 67.95 160.91 68.35 160.7 59.94 160.35 59.54 160.57"/><path class="d" d="M120.92,166.33l-26.43,1a10.88,10.88,0,0,1-4.53-1L79.67,161.1c-1.15-.59-1-1.12.34-1.17l26.43-1a10.88,10.88,0,0,1,4.53,1l10.29,5.29C122.41,165.75,122.26,166.28,120.92,166.33Z"/><polygon class="b" points="107.02 161.01 87.21 161.79 86.77 161.57 106.58 160.79 107.02 161.01"/><polygon class="b" points="108.38 161.72 88.57 162.49 88.13 162.27 107.94 161.49 108.38 161.72"/><polygon class="b" points="109.75 162.42 89.94 163.2 89.5 162.97 109.31 162.19 109.75 162.42"/><polygon class="b" points="107.36 164.42 98.52 164.77 98.1 164.55 106.94 164.2 107.36 164.42"/><polygon class="b" points="108.67 165.09 99.83 165.44 99.41 165.22 108.25 164.88 108.67 165.09"/><path class="f" d="M65.73,164.36l25.33.84a10,10,0,0,0,4.33-1l9.82-5.37c1.1-.6.94-1.13-.34-1.17l-25.33-.84a10.06,10.06,0,0,0-4.33,1l-9.82,5.36C64.29,163.79,64.45,164.32,65.73,164.36Z"/><polygon class="b" points="79.01 158.94 97.99 159.57 98.41 159.34 79.43 158.71 79.01 158.94"/><polygon class="b" points="77.71 159.65 96.69 160.28 97.11 160.05 78.13 159.42 77.71 159.65"/><polygon class="b" points="76.4 160.37 95.38 161 95.81 160.77 76.82 160.14 76.4 160.37"/><polygon class="b" points="78.7 162.35 87.17 162.63 87.58 162.41 79.11 162.13 78.7 162.35"/><polygon class="b" points="77.45 163.03 85.92 163.31 86.32 163.09 77.85 162.81 77.45 163.03"/><path class="g" d="M123.7,165.81l-25.58,3.27a10.71,10.71,0,0,1-4.48-.54l-10.45-4.18c-1.16-.46-1.06-1,.24-1.15L109,159.94a10.66,10.66,0,0,1,4.47.55l10.45,4.17C125.11,165.13,125,165.65,123.7,165.81Z"/><polygon class="b" points="109.75 161.93 90.58 164.38 90.13 164.2 109.31 161.75 109.75 161.93"/><polygon class="b" points="111.13 162.48 91.96 164.93 91.51 164.75 110.69 162.3 111.13 162.48"/><polygon class="b" points="112.52 163.04 93.35 165.49 92.9 165.31 112.08 162.86 112.52 163.04"/><polygon class="b" points="110.38 165.15 101.82 166.25 101.39 166.07 109.95 164.98 110.38 165.15"/><polygon class="b" points="111.71 165.68 103.15 166.78 102.72 166.61 111.28 165.51 111.71 165.68"/><path class="h" d="M79.85,157.84l-21.45,4.1a9.39,9.39,0,0,1-3.88-.23l-9.34-3c-1-.33-1-.77.08-1l21.45-4.1a9.18,9.18,0,0,1,3.87.23l9.35,3C81,157.19,80.94,157.63,79.85,157.84Z"/><polygon class="b" points="67.55 155.27 51.47 158.34 51.07 158.22 67.15 155.14 67.55 155.27"/><polygon class="b" points="68.78 155.67 52.71 158.74 52.31 158.61 68.38 155.54 68.78 155.67"/><polygon class="b" points="70.03 156.06 53.95 159.14 53.55 159.01 69.63 155.94 70.03 156.06"/><polygon class="b" points="68.42 157.97 61.25 159.34 60.86 159.22 68.04 157.85 68.42 157.97"/><polygon class="b" points="69.61 158.35 62.44 159.72 62.05 159.6 69.23 158.23 69.61 158.35"/><path class="i" d="M99,165.1H78.2a17.39,17.39,0,0,1-4.27-.75l-11.64-3.71c-1.3-.42-1.5-.75-.45-.75H82.59a17,17,0,0,1,4.28.75l11.63,3.71C99.8,164.76,100,165.1,99,165.1Z"/><polygon class="b" points="84.38 161.29 68.83 161.29 68.33 161.13 83.88 161.13 84.38 161.29"/><polygon class="b" points="85.92 161.78 70.37 161.78 69.87 161.62 85.42 161.62 85.92 161.78"/><polygon class="b" points="87.47 162.27 71.92 162.27 71.42 162.11 86.97 162.11 87.47 162.27"/><polygon class="b" points="86.78 163.51 79.84 163.51 79.37 163.36 86.31 163.36 86.78 163.51"/><polygon class="b" points="88.27 163.99 81.33 163.99 80.85 163.83 87.79 163.83 88.27 163.99"/><path class="j" d="M96.21,158.56l16.13,2a19.14,19.14,0,0,0,4.57-.46L132.1,157c1.7-.35,2.42-.72,1.6-.82l-16.13-2a19.15,19.15,0,0,0-4.58.45l-15.18,3.12C96.11,158.1,95.39,158.46,96.21,158.56Z"/><polygon class="b" points="113.86 155.6 125.95 157.07 126.6 156.94 114.5 155.47 113.86 155.6"/><polygon class="b" points="111.85 156.01 123.94 157.48 124.59 157.35 112.5 155.88 111.85 156.01"/><polygon class="b" points="109.83 156.43 121.92 157.9 122.57 157.77 110.47 156.29 109.83 156.43"/><polygon class="b" points="108.3 157.9 113.7 158.56 114.32 158.43 108.93 157.78 108.3 157.9"/><polygon class="b" points="106.37 158.3 111.76 158.96 112.39 158.83 106.99 158.17 106.37 158.3"/><path class="k" d="M81.12,161l18.64,4.35a16.37,16.37,0,0,0,5.12-.23L121.65,162c1.87-.35,2.63-.81,1.69-1l-18.65-4.36a16.68,16.68,0,0,0-5.12.23L82.8,160C80.93,160.32,80.17,160.79,81.12,161Z"/><polygon class="b" points="100.7 158.35 114.67 161.62 115.39 161.48 101.42 158.22 100.7 158.35"/><polygon class="b" points="98.48 158.76 112.46 162.03 113.17 161.9 99.2 158.63 98.48 158.76"/><polygon class="b" points="96.25 159.18 110.22 162.44 110.94 162.31 96.97 159.05 96.25 159.18"/><polygon class="b" points="94.75 161.18 100.99 162.64 101.68 162.51 95.44 161.05 94.75 161.18"/><polygon class="b" points="92.62 161.58 98.85 163.03 99.54 162.91 93.3 161.45 92.62 161.58"/><path class="l" d="M45.47,161.29l16.36,3.08a21.87,21.87,0,0,0,5.39-.36l19.15-3.15c2.14-.35,3.21-.77,2.38-.93L72.4,156.85a22.44,22.44,0,0,0-5.4.36l-19.15,3.15C45.71,160.72,44.64,161.13,45.47,161.29Z"/><polygon class="b" points="67.22 158.43 79.48 160.74 80.3 160.6 68.04 158.29 67.22 158.43"/><polygon class="b" points="64.69 158.85 76.94 161.16 77.77 161.02 65.51 158.71 64.69 158.85"/><polygon class="b" points="62.14 159.26 74.4 161.58 75.22 161.44 62.96 159.13 62.14 159.26"/><polygon class="b" points="59.34 161 64.81 162.03 65.59 161.9 60.13 160.87 59.34 161"/><polygon class="b" points="56.9 161.4 62.37 162.43 63.15 162.31 57.68 161.27 56.9 161.4"/><path class="m" d="M81.74,159.78l18.56-4.25a6.85,6.85,0,0,1,3.36.23l8.08,3.11c.91.35.87.81-.07,1l-18.56,4.25a6.73,6.73,0,0,1-3.36-.24l-8.08-3.1C80.76,160.45,80.8,160,81.74,159.78Z"/><polygon class="b" points="92.38 162.44 106.3 159.25 106.64 159.38 92.73 162.57 92.38 162.44"/><polygon class="b" points="91.31 162.03 105.23 158.84 105.57 158.97 91.66 162.16 91.31 162.03"/><polygon class="b" points="90.24 161.62 104.15 158.43 104.5 158.56 90.58 161.75 90.24 161.62"/><polygon class="b" points="91.63 159.64 97.83 158.22 98.17 158.34 91.96 159.77 91.63 159.64"/><polygon class="b" points="90.59 159.24 96.8 157.82 97.14 157.95 90.92 159.37 90.59 159.24"/><path class="n" d="M65.2,152.25h18a12.66,12.66,0,0,1,3.7.78l10.07,3.84c1.12.43,1.3.78.39.78h-18a12.72,12.72,0,0,1-3.7-.78L65.59,153C64.47,152.6,64.29,152.25,65.2,152.25Z"/><polygon class="b" points="77.81 156.2 91.27 156.2 91.7 156.37 78.24 156.37 77.81 156.2"/><polygon class="b" points="76.48 155.69 89.94 155.69 90.37 155.86 76.91 155.86 76.48 155.69"/><polygon class="b" points="75.14 155.18 88.6 155.18 89.03 155.35 75.57 155.35 75.14 155.18"/><polygon class="b" points="75.73 153.9 81.74 153.9 82.15 154.05 76.15 154.05 75.73 153.9"/><polygon class="b" points="74.45 153.41 80.45 153.41 80.87 153.56 74.86 153.56 74.45 153.41"/><path class="o" d="M67.58,159l-14-2a14.07,14.07,0,0,0-4,.47l-13.15,3.23c-1.47.36-2.09.74-1.38.85l14,2a13.8,13.8,0,0,0,4-.47l13.14-3.23C67.66,159.51,68.28,159.13,67.58,159Z"/><polygon class="b" points="52.3 162.1 41.84 160.57 41.28 160.71 51.74 162.24 52.3 162.1"/><polygon class="b" points="54.04 161.67 43.58 160.14 43.02 160.28 53.48 161.81 54.04 161.67"/><polygon class="b" points="55.79 161.24 45.33 159.71 44.77 159.85 55.23 161.38 55.79 161.24"/><polygon class="b" points="57.11 159.71 52.44 159.03 51.9 159.16 56.57 159.84 57.11 159.71"/><polygon class="b" points="58.79 159.3 54.12 158.62 53.58 158.75 58.25 159.43 58.79 159.3"/><path class="p" d="M82.79,155.82l-16.14-4.51a11.89,11.89,0,0,0-4.43.24l-14.51,3.22c-1.63.36-2.28.84-1.46,1.07l16.13,4.51a11.9,11.9,0,0,0,4.44-.23l14.51-3.23C83,156.53,83.61,156.05,82.79,155.82Z"/><polygon class="b" points="65.84 158.57 53.74 155.19 53.12 155.33 65.22 158.71 65.84 158.57"/><polygon class="b" points="67.76 158.15 55.66 154.76 55.04 154.9 67.14 158.28 67.76 158.15"/><polygon class="b" points="69.69 157.72 57.59 154.33 56.97 154.47 69.07 157.85 69.69 157.72"/><polygon class="b" points="70.98 155.64 65.59 154.13 64.99 154.26 70.39 155.78 70.98 155.64"/><polygon class="b" points="72.83 155.23 67.44 153.72 66.84 153.85 72.24 155.36 72.83 155.23"/><path class="q" d="M126.86,156.76l-14.16-3.2a16.58,16.58,0,0,0-4.67.37L91.46,157.2c-1.85.37-2.78.8-2.06,1l14.15,3.2a16.54,16.54,0,0,0,4.67-.37l16.58-3.27C126.65,157.35,127.58,156.92,126.86,156.76Z"/><polygon class="b" points="108.04 159.72 97.43 157.33 96.72 157.47 107.33 159.86 108.04 159.72"/><polygon class="b" points="110.23 159.29 99.62 156.9 98.91 157.03 109.52 159.43 110.23 159.29"/><polygon class="b" points="112.43 158.85 101.82 156.46 101.11 156.6 111.72 158.99 112.43 158.85"/><polygon class="b" points="114.86 157.06 110.12 155.99 109.44 156.12 114.18 157.19 114.86 157.06"/><polygon class="b" points="116.97 156.64 112.23 155.57 111.56 155.7 116.29 156.77 116.97 156.64"/><path class="r" d="M110.86,153,88.62,149.2a8.68,8.68,0,0,0-3.93.38l-9.25,3.65c-1,.41-1,.9.17,1.09l22.24,3.83a8.69,8.69,0,0,0,3.93-.39l9.25-3.64C112.06,153.71,112,153.22,110.86,153Z"/><polygon class="b" points="98.55 156.29 81.89 153.43 81.49 153.58 98.16 156.45 98.55 156.29"/><polygon class="b" points="99.78 155.81 83.11 152.94 82.72 153.1 99.38 155.97 99.78 155.81"/><polygon class="b" points="101.01 155.33 84.34 152.46 83.94 152.61 100.61 155.48 101.01 155.33"/><polygon class="b" points="99.2 153.26 91.76 151.98 91.38 152.13 98.82 153.41 99.2 153.26"/><polygon class="b" points="100.38 152.8 92.94 151.52 92.56 151.67 100 152.95 100.38 152.8"/><path class="r" d="M137.3,158.22l-22.46-1.92A8.73,8.73,0,0,0,111,157L102,161.44c-1,.5-.89,1,.25,1.08l22.46,1.92a8.71,8.71,0,0,0,3.88-.72l9-4.42C138.55,158.81,138.43,158.32,137.3,158.22Z"/><polygon class="b" points="125.28 162.53 108.45 161.09 108.07 161.28 124.9 162.72 125.28 162.53"/><polygon class="b" points="126.46 161.95 109.63 160.5 109.25 160.69 126.08 162.14 126.46 161.95"/><polygon class="b" points="127.65 161.36 110.82 159.92 110.44 160.11 127.27 161.55 127.65 161.36"/><polygon class="b" points="125.69 159.46 118.18 158.81 117.82 158.99 125.33 159.64 125.69 159.46"/><polygon class="b" points="126.83 158.89 119.32 158.25 118.96 158.43 126.47 159.07 126.83 158.89"/><path class="s" d="M56.87,152.5l22.43-2.85a8.81,8.81,0,0,1,3.92.56l9.12,4c1,.45.92.94-.22,1.08L69.7,158.19a8.67,8.67,0,0,1-3.92-.56l-9.12-4C55.64,153.13,55.74,152.64,56.87,152.5Z"/><polygon class="b" points="69.06 156.31 85.87 154.17 86.27 154.34 69.45 156.48 69.06 156.31"/><polygon class="b" points="67.86 155.77 84.67 153.64 85.06 153.81 68.25 155.94 67.86 155.77"/><polygon class="b" points="66.64 155.23 83.45 153.1 83.84 153.27 67.03 155.41 66.64 155.23"/><polygon class="b" points="68.54 153.25 76.04 152.3 76.42 152.46 68.92 153.42 68.54 153.25"/><polygon class="b" points="67.38 152.73 74.88 151.78 75.25 151.95 67.75 152.9 67.38 152.73"/><path class="t" d="M51.46,155.35l18.94-3.5a8.5,8.5,0,0,1,3.94.56l10.86,4.32c1.21.49,1.42,1,.46,1.21l-18.93,3.49a8.64,8.64,0,0,1-4-.55l-10.86-4.33C50.71,156.06,50.5,155.52,51.46,155.35Z"/><polygon class="b" points="65 159.36 79.19 156.74 79.66 156.93 65.47 159.55 65 159.36"/><polygon class="b" points="63.57 158.79 77.75 156.17 78.22 156.35 64.03 158.97 63.57 158.79"/><polygon class="b" points="62.12 158.21 76.31 155.59 76.78 155.78 62.59 158.4 62.12 158.21"/><polygon class="b" points="62.67 155.99 69 154.82 69.44 155 63.11 156.17 62.67 155.99"/><polygon class="b" points="61.28 155.44 67.61 154.27 68.06 154.45 61.73 155.62 61.28 155.44"/><path class="u" d="M84,155.49l-17.45-2.22a19.24,19.24,0,0,0-5,.58l-16.5,3.85c-1.85.43-2.63.88-1.75,1l17.45,2.21a19.15,19.15,0,0,0,5-.58l16.51-3.85C84.09,156,84.88,155.6,84,155.49Z"/><polygon class="b" points="64.83 159.17 51.75 157.51 51.04 157.68 64.12 159.34 64.83 159.17"/><polygon class="b" points="67.01 158.66 53.93 157 53.23 157.17 66.3 158.83 67.01 158.66"/><polygon class="b" points="69.21 158.15 56.13 156.49 55.42 156.66 68.5 158.31 69.21 158.15"/><polygon class="b" points="70.88 156.37 65.04 155.63 64.37 155.79 70.2 156.53 70.88 156.37"/><polygon class="b" points="72.98 155.88 67.15 155.14 66.47 155.3 72.31 156.04 72.98 155.88"/><path class="u" d="M104.1,158.53l-19-2.79a15.58,15.58,0,0,0-4.25.23l-12.35,2.39c-1.37.27-1.71.61-.75.75l19,2.79a15.58,15.58,0,0,0,4.25-.23l12.35-2.39C104.72,159,105.06,158.68,104.1,158.53Z"/><polygon class="b" points="89.03 160.65 74.81 158.55 74.28 158.66 88.5 160.75 89.03 160.65"/><polygon class="b" points="90.66 160.33 76.44 158.24 75.92 158.34 90.14 160.43 90.66 160.33"/><polygon class="b" points="92.31 160.01 78.09 157.92 77.56 158.02 91.78 160.11 92.31 160.01"/><polygon class="b" points="92.25 158.6 85.9 157.66 85.4 157.76 91.74 158.69 92.25 158.6"/><polygon class="b" points="93.82 158.29 87.48 157.36 86.97 157.46 93.32 158.39 93.82 158.29"/><path class="u" d="M107.16,157.2l-17.34-4.15a13.64,13.64,0,0,0-4.82.4L69.16,157.3c-1.77.43-2.5,1-1.62,1.17l17.34,4.14a13.64,13.64,0,0,0,4.82-.4l15.84-3.85C107.31,157.93,108,157.41,107.16,157.2Z"/><polygon class="b" points="88.69 160.64 75.69 157.53 75.01 157.7 88.01 160.8 88.69 160.64"/><polygon class="b" points="90.78 160.13 77.79 157.02 77.11 157.19 90.11 160.29 90.78 160.13"/><polygon class="b" points="92.89 159.62 79.89 156.51 79.22 156.67 92.22 159.78 92.89 159.62"/><polygon class="b" points="94.37 157.41 88.57 156.03 87.92 156.19 93.72 157.57 94.37 157.41"/><polygon class="b" points="96.39 156.92 90.59 155.54 89.94 155.69 95.74 157.08 96.39 156.92"/><path class="v" d="M128.58,156.16l-15.82-3.22a21.25,21.25,0,0,0-5.21.31l-18.51,3c-2.07.33-3.11.74-2.31.9l15.82,3.22a21.35,21.35,0,0,0,5.22-.31l18.51-3C128.34,156.73,129.38,156.32,128.58,156.16Z"/><polygon class="b" points="107.55 158.82 95.7 156.41 94.91 156.54 106.76 158.95 107.55 158.82"/><polygon class="b" points="110 158.43 98.15 156.02 97.36 156.14 109.21 158.55 110 158.43"/><polygon class="b" points="112.47 158.03 100.61 155.62 99.82 155.75 111.67 158.16 112.47 158.03"/><polygon class="b" points="115.17 156.32 109.88 155.25 109.12 155.37 114.41 156.44 115.17 156.32"/><polygon class="b" points="117.53 155.94 112.24 154.87 111.48 154.99 116.77 156.06 117.53 155.94"/><path class="u" d="M62.38,153.39l24.23-7.48a11.78,11.78,0,0,1,4.39-.37l10.61,1.55c1.19.17,1.15.63-.08,1L77.3,155.57a12,12,0,0,1-4.39.38L62.3,154.39C61.12,154.22,61.15,153.77,62.38,153.39Z"/><polygon class="b" points="76.33 154.05 94.5 148.45 94.95 148.51 76.79 154.12 76.33 154.05"/><polygon class="b" points="74.93 153.84 93.09 148.24 93.55 148.31 75.38 153.91 74.93 153.84"/><polygon class="b" points="73.52 153.64 91.68 148.03 92.13 148.1 73.97 153.7 73.52 153.64"/><polygon class="b" points="75.31 151.47 83.42 148.97 83.85 149.03 75.75 151.53 75.31 151.47"/><polygon class="b" points="73.96 151.27 82.06 148.77 82.5 148.83 74.39 151.33 73.96 151.27"/><path class="r" d="M75.55,148.55,53,149.3a8.81,8.81,0,0,0-3.77,1.17l-8.32,5.44c-.93.61-.75,1.08.39,1l22.55-.75A8.63,8.63,0,0,0,67.61,155l8.33-5.44C76.86,149,76.69,148.51,75.55,148.55Z"/><polygon class="b" points="64.16 154.24 47.26 154.8 46.9 155.04 63.8 154.47 64.16 154.24"/><polygon class="b" points="65.26 153.52 48.36 154.08 48 154.32 64.9 153.76 65.26 153.52"/><polygon class="b" points="66.37 152.8 49.47 153.36 49.11 153.59 66.01 153.03 66.37 152.8"/><polygon class="b" points="64.18 151.14 56.63 151.39 56.29 151.62 63.84 151.37 64.18 151.14"/><polygon class="b" points="65.24 150.45 57.7 150.7 57.35 150.92 64.9 150.67 65.24 150.45"/><path class="r" d="M91.41,142,69,144.77a8.67,8.67,0,0,0-3.65,1.51l-7.85,6.17c-.88.69-.67,1.14.47,1l22.37-2.74A8.67,8.67,0,0,0,84,149.2L91.88,143C92.76,142.34,92.54,141.89,91.41,142Z"/><polygon class="b" points="80.54 148.72 63.77 150.78 63.44 151.04 80.2 148.99 80.54 148.72"/><polygon class="b" points="81.58 147.91 64.81 149.96 64.47 150.22 81.24 148.17 81.58 147.91"/><polygon class="b" points="82.62 147.08 65.85 149.14 65.52 149.4 82.28 147.35 82.62 147.08"/><polygon class="b" points="80.31 145.63 72.83 146.54 72.51 146.79 79.99 145.88 80.31 145.63"/><polygon class="b" points="81.31 144.84 73.83 145.75 73.51 146.01 80.99 145.09 81.31 144.84"/><path class="r" d="M68.41,141.59l-21.41,7a8.82,8.82,0,0,0-3.3,2.18l-6.49,7.58c-.73.85-.43,1.25.65.89l21.41-7a8.7,8.7,0,0,0,3.3-2.18l6.49-7.58C69.79,141.64,69.49,141.24,68.41,141.59Z"/><polygon class="b" points="59.04 150.27 42.99 155.54 42.72 155.86 58.77 150.59 59.04 150.27"/><polygon class="b" points="59.9 149.26 43.85 154.54 43.58 154.86 59.63 149.59 59.9 149.26"/><polygon class="b" points="60.77 148.26 44.72 153.53 44.44 153.85 60.49 148.58 60.77 148.26"/><polygon class="b" points="58.22 147.28 51.06 149.63 50.79 149.94 57.95 147.59 58.22 147.28"/><polygon class="b" points="59.05 146.31 51.88 148.66 51.62 148.97 58.78 146.62 59.05 146.31"/><path class="w" d="M29.11,159l19.09-7.32a7.08,7.08,0,0,1,3.53-.25l8.7,2.12c1,.24,1,.74,0,1.11l-19.09,7.33a6.92,6.92,0,0,1-3.52.24l-8.7-2.12C28.15,159.82,28.15,159.32,29.11,159Z"/><polygon class="b" points="40.45 160.22 54.76 154.73 55.13 154.82 40.83 160.31 40.45 160.22"/><polygon class="b" points="39.3 159.94 53.61 154.45 53.98 154.54 39.67 160.03 39.3 159.94"/><polygon class="b" points="38.15 159.65 52.45 154.16 52.82 154.25 38.52 159.75 38.15 159.65"/><polygon class="b" points="39.44 157.33 45.83 154.88 46.19 154.97 39.8 157.42 39.44 157.33"/><polygon class="b" points="38.34 157.06 44.72 154.61 45.08 154.7 38.69 157.15 38.34 157.06"/><path class="x" d="M72.75,147.13l18.55-2a5.23,5.23,0,0,1,3.39,1.33l8.28,7.47c.92.83.91,1.59,0,1.69l-18.55,2a5.23,5.23,0,0,1-3.4-1.33l-8.27-7.46C71.79,148,71.81,147.23,72.75,147.13Z"/><polygon class="b" points="83.58 154.55 97.49 153.05 97.84 153.37 83.94 154.87 83.58 154.55"/><polygon class="b" points="82.49 153.56 96.39 152.06 96.75 152.38 82.84 153.88 82.49 153.56"/><polygon class="b" points="81.39 152.57 95.29 151.07 95.65 151.39 81.74 152.89 81.39 152.57"/><polygon class="b" points="82.71 149.63 88.92 148.97 89.26 149.27 83.05 149.94 82.71 149.63"/><polygon class="b" points="81.66 148.68 87.86 148.01 88.2 148.32 82 148.99 81.66 148.68"/><path class="y" d="M32.77,164.79l14.32-10.64a7,7,0,0,1,3.43-1L61,152.84c1.17,0,1.52.39.8.93L47.43,164.4a7.09,7.09,0,0,1-3.44,1l-10.42.28C32.4,165.75,32.05,165.33,32.77,164.79Z"/><polygon class="b" points="45.29 163.18 56.02 155.2 56.47 155.19 45.74 163.16 45.29 163.18"/><polygon class="b" points="43.91 163.21 54.64 155.24 55.09 155.23 44.36 163.2 43.91 163.21"/><polygon class="b" points="42.52 163.25 53.25 155.28 53.7 155.26 42.97 163.24 42.52 163.25"/><polygon class="b" points="42.19 160.99 46.98 157.44 47.41 157.43 42.62 160.98 42.19 160.99"/><polygon class="b" points="40.86 161.03 45.65 157.47 46.08 157.46 41.29 161.02 40.86 161.03"/><path class="z" d="M53.83,148.25l-15.1,4.81a16.74,16.74,0,0,0-3.86,2.47l-12.21,10c-1.36,1.12-1.85,1.83-1.08,1.59l15.09-4.81a16.22,16.22,0,0,0,3.87-2.47l12.21-10C54.11,148.73,54.6,148,53.83,148.25Z"/><polygon class="b" points="39.39 159.16 28.07 162.76 27.55 163.19 38.87 159.59 39.39 159.16"/><polygon class="b" points="41 157.83 29.69 161.43 29.16 161.86 40.48 158.26 41 157.83"/><polygon class="b" points="42.63 156.5 31.31 160.1 30.79 160.53 42.1 156.93 42.63 156.5"/><polygon class="b" points="43.38 154.21 38.33 155.82 37.83 156.23 42.88 154.62 43.38 154.21"/><polygon class="b" points="44.93 152.93 39.88 154.54 39.38 154.95 44.43 153.34 44.93 152.93"/><path class="u" d="M70.05,155.31,50.9,156.42a15.47,15.47,0,0,0-4.12,1.08l-11.6,4.84c-1.3.54-1.56.93-.59.88l19.14-1.1A15.82,15.82,0,0,0,57.85,161l11.61-4.83C70.75,155.66,71,155.26,70.05,155.31Z"/><polygon class="b" points="55.71 160.43 41.36 161.25 40.87 161.46 55.22 160.64 55.71 160.43"/><polygon class="b" points="57.25 159.79 42.9 160.62 42.4 160.82 56.75 160 57.25 159.79"/><polygon class="b" points="58.79 159.15 44.44 159.97 43.95 160.18 58.29 159.35 58.79 159.15"/><polygon class="b" points="58.45 157.77 52.05 158.14 51.57 158.34 57.97 157.97 58.45 157.77"/><polygon class="b" points="59.93 157.15 53.53 157.52 53.05 157.72 59.45 157.35 59.93 157.15"/><path class="u" d="M78.43,150.61l-17.82-.55A13.47,13.47,0,0,0,56,151.42l-14.74,7c-1.65.78-2.26,1.44-1.35,1.47l17.82.55a13.53,13.53,0,0,0,4.63-1.37l14.74-7C78.73,151.3,79.34,150.64,78.43,150.61Z"/><polygon class="b" points="61.04 157.72 47.68 157.3 47.05 157.6 60.41 158.02 61.04 157.72"/><polygon class="b" points="62.99 156.79 49.63 156.38 49 156.68 62.36 157.09 62.99 156.79"/><polygon class="b" points="64.95 155.87 51.59 155.45 50.96 155.75 64.32 156.17 64.95 155.87"/><polygon class="b" points="65.95 153.41 59.99 153.23 59.38 153.51 65.34 153.7 65.95 153.41"/><polygon class="b" points="67.83 152.52 61.87 152.34 61.26 152.62 67.22 152.81 67.83 152.52"/><path class="v" d="M88.28,151.76l-16.14,0a21.64,21.64,0,0,0-5,1.36l-17.52,6.66c-2,.75-2.89,1.35-2.07,1.35l16.14,0a21.72,21.72,0,0,0,5-1.36l17.53-6.66C88.16,152.36,89.1,151.75,88.28,151.76Z"/><polygon class="b" points="68.23 158.62 56.13 158.65 55.38 158.94 67.48 158.9 68.23 158.62"/><polygon class="b" points="70.55 157.74 58.45 157.77 57.7 158.06 69.8 158.02 70.55 157.74"/><polygon class="b" points="72.88 156.85 60.78 156.88 60.03 157.17 72.13 157.13 72.88 156.85"/><polygon class="b" points="75.18 154.63 69.78 154.65 69.06 154.92 74.46 154.9 75.18 154.63"/><polygon class="b" points="77.42 153.78 72.02 153.8 71.3 154.07 76.7 154.06 77.42 153.78"/><path class="aa" d="M108.73,153.08l22-.13a9.16,9.16,0,0,1,3.74.91l8.41,4.56c.94.51.8.93-.32.94l-22,.14a9.29,9.29,0,0,1-3.74-.92L108.41,154C107.48,153.51,107.62,153.09,108.73,153.08Z"/><polygon class="b" points="120.14 157.76 136.62 157.65 136.98 157.85 120.5 157.95 120.14 157.76"/><polygon class="b" points="119.03 157.16 135.51 157.05 135.87 157.25 119.39 157.35 119.03 157.16"/><polygon class="b" points="117.91 156.55 134.39 156.44 134.75 156.64 118.27 156.74 117.91 156.55"/><polygon class="b" points="119.94 154.99 127.3 154.95 127.64 155.13 120.29 155.18 119.94 154.99"/><polygon class="b" points="118.87 154.41 126.23 154.36 126.57 154.55 119.22 154.6 118.87 154.41"/><path class="r" d="M122.88,152.27l-21.8-5.82a8.78,8.78,0,0,0-4,0l-9.54,2.8c-1.07.31-1,.81.07,1.11l21.8,5.81a8.64,8.64,0,0,0,4,0l9.54-2.8C124,153.06,124,152.56,122.88,152.27Z"/><polygon class="b" points="110.33 154.42 93.99 150.06 93.58 150.18 109.92 154.54 110.33 154.42"/><polygon class="b" points="111.59 154.05 95.25 149.69 94.85 149.81 111.19 154.17 111.59 154.05"/><polygon class="b" points="112.86 153.68 96.52 149.32 96.11 149.44 112.46 153.79 112.86 153.68"/><polygon class="b" points="111.25 151.46 103.95 149.51 103.56 149.63 110.86 151.57 111.25 151.46"/><polygon class="b" points="112.46 151.1 105.17 149.16 104.78 149.27 112.07 151.22 112.46 151.1"/><path class="r" d="M140,150.62l-22.2-3.85a8.6,8.6,0,0,0-3.94.38l-9.29,3.63c-1,.41-1,.9.16,1.09l22.2,3.86a8.88,8.88,0,0,0,3.94-.38l9.29-3.64C141.15,151.31,141.08,150.82,140,150.62Z"/><polygon class="b" points="127.61 153.88 110.97 150.99 110.57 151.14 127.21 154.03 127.61 153.88"/><polygon class="b" points="128.84 153.4 112.19 150.51 111.8 150.66 128.44 153.55 128.84 153.4"/><polygon class="b" points="130.07 152.91 113.43 150.02 113.03 150.18 129.68 153.07 130.07 152.91"/><polygon class="b" points="128.29 150.85 120.86 149.56 120.48 149.71 127.91 151 128.29 150.85"/><polygon class="b" points="129.47 150.38 122.05 149.09 121.66 149.24 129.09 150.53 129.47 150.38"/><path class="r" d="M118.06,143.54l-22.53.53a8.72,8.72,0,0,0-3.78,1.14l-8.42,5.37c-.94.6-.77,1.07.37,1l22.54-.53A8.72,8.72,0,0,0,110,150l8.41-5.37C119.37,144,119.21,143.51,118.06,143.54Z"/><polygon class="b" points="106.59 149.13 89.7 149.53 89.34 149.76 106.23 149.36 106.59 149.13"/><polygon class="b" points="107.7 148.42 90.81 148.82 90.45 149.05 107.34 148.65 107.7 148.42"/><polygon class="b" points="108.82 147.71 91.93 148.11 91.57 148.34 108.46 147.94 108.82 147.71"/><polygon class="b" points="106.66 146.03 99.13 146.21 98.78 146.43 106.32 146.25 106.66 146.03"/><polygon class="b" points="107.74 145.34 100.2 145.52 99.86 145.74 107.39 145.56 107.74 145.34"/><path class="s" d="M69.16,146.88l22.6-.81a8.49,8.49,0,0,1,3.85.91l8.72,4.85c1,.54.83,1-.31,1.06l-22.6.82a8.76,8.76,0,0,1-3.85-.91l-8.72-4.86C67.88,147.4,68,146.92,69.16,146.88Z"/><polygon class="b" points="80.96 151.77 97.9 151.16 98.27 151.37 81.33 151.98 80.96 151.77"/><polygon class="b" points="79.81 151.13 96.74 150.52 97.12 150.73 80.18 151.34 79.81 151.13"/><polygon class="b" points="78.65 150.49 95.58 149.87 95.96 150.08 79.02 150.69 78.65 150.49"/><polygon class="b" points="80.72 148.68 88.27 148.41 88.63 148.61 81.07 148.88 80.72 148.68"/><polygon class="b" points="79.6 148.06 87.16 147.79 87.52 147.99 79.96 148.26 79.6 148.06"/><path class="x" d="M120.61,150.1,139,153.55a5.21,5.21,0,0,1,2.86,2.25l5.76,9.54c.64,1.07.41,1.8-.52,1.62l-18.34-3.45a5.22,5.22,0,0,1-2.86-2.26l-5.76-9.54C119.45,150.65,119.68,149.92,120.61,150.1Z"/><polygon class="b" points="128.84 160.34 142.58 162.93 142.83 163.34 129.08 160.75 128.84 160.34"/><polygon class="b" points="128.07 159.08 141.82 161.67 142.06 162.08 128.32 159.49 128.07 159.08"/><polygon class="b" points="127.31 157.81 141.05 160.4 141.3 160.81 127.55 158.22 127.31 157.81"/><polygon class="b" points="129.42 155.38 135.56 156.54 135.79 156.93 129.66 155.77 129.42 155.38"/><polygon class="b" points="128.69 154.16 134.82 155.32 135.06 155.71 128.93 154.56 128.69 154.16"/><path class="t" d="M71.4,153.66l18.44-5.54a8.62,8.62,0,0,1,4,.13l11.26,3.12c1.26.34,1.53.86.59,1.14l-18.44,5.54a8.62,8.62,0,0,1-4-.13L72,154.8C70.73,154.45,70.46,153.94,71.4,153.66Z"/><polygon class="b" points="85.29 156.18 99.11 152.03 99.59 152.16 85.78 156.31 85.29 156.18"/><polygon class="b" points="83.8 155.76 97.62 151.61 98.1 151.75 84.28 155.9 83.8 155.76"/><polygon class="b" points="82.31 155.35 96.12 151.2 96.61 151.33 82.79 155.48 82.31 155.35"/><polygon class="b" points="82.6 153.08 88.77 151.23 89.23 151.36 83.07 153.21 82.6 153.08"/><polygon class="b" points="81.17 152.69 87.33 150.83 87.8 150.96 81.63 152.81 81.17 152.69"/><path class="u" d="M98.78,144.67l-17.59-.31a19.34,19.34,0,0,0-4.87,1.12l-16,5.62c-1.78.63-2.51,1.16-1.62,1.17l17.59.3a18.67,18.67,0,0,0,4.86-1.11l16-5.62C98.94,145.21,99.67,144.68,98.78,144.67Z"/><polygon class="b" points="80.13 150.41 66.95 150.19 66.26 150.43 79.44 150.66 80.13 150.41"/><polygon class="b" points="82.24 149.67 69.06 149.44 68.38 149.69 81.56 149.91 82.24 149.67"/><polygon class="b" points="84.37 148.92 71.19 148.7 70.5 148.94 83.68 149.16 84.37 148.92"/><polygon class="b" points="85.84 146.97 79.96 146.87 79.3 147.1 85.18 147.21 85.84 146.97"/><polygon class="b" points="87.88 146.26 82 146.16 81.34 146.39 87.22 146.49 87.88 146.26"/><path class="u" d="M115.66,157.15,97,152.66a15.57,15.57,0,0,0-4.25-.16l-12.51,1.27c-1.4.15-1.77.45-.82.68l18.64,4.49a16.1,16.1,0,0,0,4.26.15l12.51-1.27C116.23,157.68,116.6,157.38,115.66,157.15Z"/><polygon class="b" points="100.46 157.89 86.48 154.53 85.95 154.58 99.92 157.95 100.46 157.89"/><polygon class="b" points="102.11 157.73 88.14 154.36 87.6 154.41 101.58 157.78 102.11 157.73"/><polygon class="b" points="103.77 157.56 89.8 154.19 89.27 154.25 103.24 157.61 103.77 157.56"/><polygon class="b" points="103.85 156.14 97.61 154.64 97.1 154.69 103.33 156.19 103.85 156.14"/><polygon class="b" points="105.44 155.98 99.2 154.48 98.69 154.53 104.93 156.03 105.44 155.98"/><path class="u" d="M125.05,155.08l-16.9-5.69a13.52,13.52,0,0,0-4.83,0l-16.13,2.41c-1.8.27-2.58.72-1.72,1l16.9,5.69a13.52,13.52,0,0,0,4.83,0l16.13-2.41C125.13,155.82,125.9,155.37,125.05,155.08Z"/><polygon class="b" points="106.34 156.84 93.67 152.58 92.98 152.68 105.65 156.94 106.34 156.84"/><polygon class="b" points="108.47 156.52 95.81 152.26 95.12 152.36 107.78 156.63 108.47 156.52"/><polygon class="b" points="110.62 156.2 97.95 151.94 97.26 152.04 109.93 156.31 110.62 156.2"/><polygon class="b" points="112.29 154.14 106.63 152.24 105.97 152.34 111.62 154.24 112.29 154.14"/><polygon class="b" points="114.34 153.84 108.69 151.93 108.03 152.03 113.68 153.93 114.34 153.84"/><path class="v" d="M134.14,159l-15.46-4.63a21.6,21.6,0,0,0-5.23-.16l-18.7,1.3c-2.09.15-3.16.46-2.37.7l15.46,4.62a20.86,20.86,0,0,0,5.22.17l18.7-1.31C133.85,159.57,134.92,159.26,134.14,159Z"/><polygon class="b" points="112.96 159.78 101.37 156.31 100.57 156.37 112.16 159.84 112.96 159.78"/><polygon class="b" points="115.43 159.61 103.85 156.14 103.05 156.2 114.63 159.67 115.43 159.61"/><polygon class="b" points="117.92 159.44 106.33 155.97 105.53 156.02 117.12 159.49 117.92 159.44"/><polygon class="b" points="120.77 157.98 115.6 156.43 114.83 156.49 120 158.03 120.77 157.98"/><polygon class="b" points="123.15 157.81 117.98 156.27 117.22 156.32 122.39 157.87 123.15 157.81"/></svg>