<svg xmlns="http://www.w3.org/2000/svg" width="180" height="205.98" viewBox="0 0 180 205.98"><defs><style>.a,.aa,.ab,.ac,.ad,.ae,.af,.ag,.ah,.ai,.aj,.ak,.al,.am,.an,.ao,.ap,.aq,.ar,.as,.at,.au,.av,.aw,.ax,.ay,.az,.ba,.bb,.bc,.bd,.be,.c,.d,.e,.f,.g,.h,.i,.j,.k,.l,.m,.n,.o,.p,.q,.r,.s,.t,.u,.v,.w,.x,.y,.z{fill:#fff;stroke:#000;stroke-miterlimit:10;}.a{stroke-width:0.63px;}.b{fill:#d3d3d3;}.c{stroke-width:0.63px;}.d{stroke-width:0.63px;}.e{stroke-width:0.61px;}.f{stroke-width:0.61px;}.g{stroke-width:0.61px;}.h{stroke-width:0.26px;}.i{stroke-width:0.55px;}.j{stroke-width:0.49px;}.k{stroke-width:0.55px;}.l{stroke-width:0.48px;}.m{stroke-width:0.24px;}.n{stroke-width:0.53px;}.o{stroke-width:0.46px;}.p{stroke-width:0.52px;}.q{stroke-width:0.46px;}.r{stroke-width:0.55px;}.s{stroke-width:0.55px;}.t{stroke-width:0.47px;}.u{stroke-width:0.55px;}.v{stroke-width:0.47px;}.w{stroke-width:0.52px;}.x{stroke-width:0.32px;}.y{stroke-width:0.44px;}.z{stroke-width:0.52px;}.aa{stroke-width:0.51px;}.ab{stroke-width:0.55px;}.ac{stroke-width:0.55px;}.ad{stroke-width:0.51px;}.ae{stroke-width:0.32px;}.af{stroke-width:0.46px;}.ag{stroke-width:0.51px;}.ah{stroke-width:0.47px;}.ai{stroke-width:0.52px;}.aj{stroke-width:0.55px;}.ak{stroke-width:0.3px;}.al{stroke-width:0.6px;}.am{stroke-width:0.6px;}.an{stroke-width:0.6px;}.ao{stroke-width:0.34px;}.ap{stroke-width:0.51px;}.aq{stroke-width:0.57px;}.ar{stroke-width:0.49px;}.as{stroke-width:0.53px;}.at{stroke-width:0.53px;}.au{stroke-width:0.5px;}.av{stroke-width:0.53px;}.aw{stroke-width:0.3px;}.ax{stroke-width:0.45px;}.ay{stroke-width:0.45px;}.az{stroke-width:0.5px;}.ba{stroke-width:0.42px;}.bb{stroke-width:0.5px;}.bc{stroke-width:0.49px;}.bd{stroke-width:0.49px;}.be{stroke-width:0.28px;}</style></defs><path class="a" d="M86.91,160.61l-29.55,2.78a14.7,14.7,0,0,1-5.12-.56l-11.82-4c-1.32-.44-1.18-.92.32-1.06L70.3,155a14.94,14.94,0,0,1,5.12.55l11.82,4C88.56,160,88.41,160.47,86.91,160.61Z"/><polygon class="b" points="71.05 156.85 48.91 158.93 48.4 158.76 70.55 156.68 71.05 156.85"/><polygon class="b" points="72.62 157.38 50.47 159.46 49.96 159.29 72.11 157.21 72.62 157.38"/><polygon class="b" points="74.19 157.91 52.04 159.99 51.53 159.82 73.68 157.74 74.19 157.91"/><polygon class="b" points="71.63 159.86 61.74 160.79 61.26 160.62 71.14 159.69 71.63 159.86"/><polygon class="b" points="73.13 160.37 63.25 161.3 62.76 161.13 72.65 160.21 73.13 160.37"/><path class="c" d="M70.68,163l26.06,4.12a10.79,10.79,0,0,0,4.6-.44l10.81-4.06c1.21-.45,1.12-1-.2-1.2l-26.06-4.12a10.79,10.79,0,0,0-4.6.44l-10.82,4.05C69.26,162.21,69.36,162.75,70.68,163Z"/><polygon class="b" points="85.07 159.3 104.6 162.39 105.06 162.22 85.53 159.13 85.07 159.3"/><polygon class="b" points="83.64 159.84 103.17 162.93 103.63 162.76 84.1 159.67 83.64 159.84"/><polygon class="b" points="82.2 160.38 101.73 163.47 102.19 163.29 82.66 160.21 82.2 160.38"/><polygon class="b" points="84.33 162.64 93.05 164.02 93.49 163.86 84.77 162.48 84.33 162.64"/><polygon class="b" points="82.95 163.16 91.67 164.54 92.11 164.37 83.39 162.99 82.95 163.16"/><path class="c" d="M51,166.52l26.32,1.93a10.72,10.72,0,0,0,4.54-.82l10.44-4.94c1.17-.55,1-1.09-.3-1.18l-26.32-1.93a10.72,10.72,0,0,0-4.54.82l-10.44,4.94C49.48,165.89,49.62,166.43,51,166.52Z"/><polygon class="b" points="64.99 161.68 84.71 163.13 85.16 162.92 65.44 161.47 64.99 161.68"/><polygon class="b" points="63.61 162.34 83.33 163.78 83.78 163.57 64.06 162.12 63.61 162.34"/><polygon class="b" points="62.22 162.99 81.94 164.44 82.39 164.23 62.67 162.78 62.22 162.99"/><polygon class="b" points="64.53 165.07 73.33 165.72 73.76 165.51 64.96 164.87 64.53 165.07"/><polygon class="b" points="63.2 165.7 72 166.35 72.43 166.15 63.63 165.5 63.2 165.7"/><path class="c" d="M41,163.79l26.3,2A10.76,10.76,0,0,0,71.8,165l10.46-4.9c1.17-.55,1-1.08-.3-1.18l-26.31-2a10.78,10.78,0,0,0-4.55.81l-10.46,4.9C39.48,163.15,39.61,163.68,41,163.79Z"/><polygon class="b" points="55 159 74.71 160.51 75.16 160.3 55.45 158.79 55 159"/><polygon class="b" points="53.62 159.64 73.33 161.16 73.78 160.95 54.06 159.44 53.62 159.64"/><polygon class="b" points="52.22 160.3 71.94 161.81 72.39 161.6 52.67 160.09 52.22 160.3"/><polygon class="b" points="54.53 162.38 63.33 163.06 63.75 162.86 54.96 162.18 54.53 162.38"/><polygon class="b" points="53.19 163.01 61.99 163.69 62.42 163.49 53.62 162.81 53.19 163.01"/><path class="d" d="M133.9,163.31l-26.26,3.23a10.92,10.92,0,0,1-4.59-.6l-10.69-4.42c-1.2-.49-1.09-1,.24-1.19l26.26-3.23a10.61,10.61,0,0,1,4.59.6l10.7,4.42C135.34,162.61,135.23,163.15,133.9,163.31Z"/><polygon class="b" points="119.61 159.17 99.93 161.59 99.47 161.4 119.15 158.98 119.61 159.17"/><polygon class="b" points="121.02 159.75 101.34 162.17 100.89 161.98 120.56 159.56 121.02 159.75"/><polygon class="b" points="122.44 160.34 102.77 162.76 102.31 162.57 121.99 160.15 122.44 160.34"/><polygon class="b" points="120.23 162.53 111.45 163.61 111.01 163.43 119.79 162.35 120.23 162.53"/><polygon class="b" points="121.59 163.09 112.81 164.18 112.38 163.99 121.16 162.91 121.59 163.09"/><path class="d" d="M112.82,169.78,86.4,171a10.86,10.86,0,0,1-4.53-1l-10.33-5.24c-1.15-.59-1-1.11.35-1.17l26.42-1.18a10.86,10.86,0,0,1,4.53,1l10.32,5.24C114.32,169.19,114.16,169.72,112.82,169.78Z"/><polygon class="b" points="98.89 164.54 79.09 165.43 78.65 165.2 98.45 164.32 98.89 164.54"/><polygon class="b" points="100.26 165.23 80.45 166.12 80.01 165.89 99.82 165.01 100.26 165.23"/><polygon class="b" points="101.63 165.93 81.83 166.81 81.39 166.59 101.19 165.71 101.63 165.93"/><polygon class="b" points="99.26 167.94 90.42 168.34 90 168.12 98.83 167.73 99.26 167.94"/><polygon class="b" points="100.57 168.61 91.74 169 91.31 168.79 100.15 168.4 100.57 168.61"/><path class="e" d="M47.89,161.8l25.15,1a9.93,9.93,0,0,0,4.31-1l9.79-5.29c1.1-.59,1-1.11-.33-1.17l-25.14-1a9.9,9.9,0,0,0-4.31,1l-9.8,5.29C46.47,161.22,46.62,161.75,47.89,161.8Z"/><polygon class="b" points="61.12 156.49 79.97 157.27 80.39 157.04 61.54 156.26 61.12 156.49"/><polygon class="b" points="59.83 157.19 78.67 157.97 79.09 157.74 60.24 156.96 59.83 157.19"/><polygon class="b" points="58.52 157.89 77.37 158.67 77.79 158.45 58.94 157.66 58.52 157.89"/><polygon class="b" points="60.79 159.89 69.2 160.24 69.6 160.02 61.19 159.67 60.79 159.89"/><polygon class="b" points="59.54 160.57 67.95 160.91 68.35 160.7 59.94 160.35 59.54 160.57"/><path class="d" d="M120.92,166.33l-26.43,1a10.88,10.88,0,0,1-4.53-1L79.67,161.1c-1.15-.59-1-1.12.34-1.17l26.43-1a10.88,10.88,0,0,1,4.53,1l10.29,5.29C122.41,165.75,122.26,166.28,120.92,166.33Z"/><polygon class="b" points="107.02 161.01 87.21 161.79 86.77 161.57 106.58 160.79 107.02 161.01"/><polygon class="b" points="108.38 161.72 88.57 162.49 88.13 162.27 107.94 161.49 108.38 161.72"/><polygon class="b" points="109.75 162.42 89.94 163.2 89.5 162.97 109.31 162.19 109.75 162.42"/><polygon class="b" points="107.36 164.42 98.52 164.77 98.1 164.55 106.94 164.2 107.36 164.42"/><polygon class="b" points="108.67 165.09 99.83 165.44 99.41 165.22 108.25 164.88 108.67 165.09"/><path class="f" d="M65.73,164.36l25.33.84a10,10,0,0,0,4.33-1l9.82-5.37c1.1-.6.94-1.13-.34-1.17l-25.33-.84a10.06,10.06,0,0,0-4.33,1l-9.82,5.36C64.29,163.79,64.45,164.32,65.73,164.36Z"/><polygon class="b" points="79.01 158.94 97.99 159.57 98.41 159.34 79.43 158.71 79.01 158.94"/><polygon class="b" points="77.71 159.65 96.69 160.28 97.11 160.05 78.13 159.42 77.71 159.65"/><polygon class="b" points="76.4 160.37 95.38 161 95.81 160.77 76.82 160.14 76.4 160.37"/><polygon class="b" points="78.7 162.35 87.17 162.63 87.58 162.41 79.11 162.13 78.7 162.35"/><polygon class="b" points="77.45 163.03 85.92 163.31 86.32 163.09 77.85 162.81 77.45 163.03"/><path class="g" d="M123.7,165.81l-25.58,3.27a10.71,10.71,0,0,1-4.48-.54l-10.45-4.18c-1.16-.46-1.06-1,.24-1.15L109,159.94a10.66,10.66,0,0,1,4.47.55l10.45,4.17C125.11,165.13,125,165.65,123.7,165.81Z"/><polygon class="b" points="109.75 161.93 90.58 164.38 90.13 164.2 109.31 161.75 109.75 161.93"/><polygon class="b" points="111.13 162.48 91.96 164.93 91.51 164.75 110.69 162.3 111.13 162.48"/><polygon class="b" points="112.52 163.04 93.35 165.49 92.9 165.31 112.08 162.86 112.52 163.04"/><polygon class="b" points="110.38 165.15 101.82 166.25 101.39 166.07 109.95 164.98 110.38 165.15"/><polygon class="b" points="111.71 165.68 103.15 166.78 102.72 166.61 111.28 165.51 111.71 165.68"/><path class="h" d="M79.85,157.84l-21.45,4.1a9.39,9.39,0,0,1-3.88-.23l-9.34-3c-1-.33-1-.77.08-1l21.45-4.1a9.18,9.18,0,0,1,3.87.23l9.35,3C81,157.19,80.94,157.63,79.85,157.84Z"/><polygon class="b" points="67.55 155.27 51.47 158.34 51.07 158.22 67.15 155.14 67.55 155.27"/><polygon class="b" points="68.78 155.67 52.71 158.74 52.31 158.61 68.38 155.54 68.78 155.67"/><polygon class="b" points="70.03 156.06 53.95 159.14 53.55 159.01 69.63 155.94 70.03 156.06"/><polygon class="b" points="68.42 157.97 61.25 159.34 60.86 159.22 68.04 157.85 68.42 157.97"/><polygon class="b" points="69.61 158.35 62.44 159.72 62.05 159.6 69.23 158.23 69.61 158.35"/><path class="i" d="M99,165.1H78.2a17.39,17.39,0,0,1-4.27-.75l-11.64-3.71c-1.3-.42-1.5-.75-.45-.75H82.59a17,17,0,0,1,4.28.75l11.63,3.71C99.8,164.76,100,165.1,99,165.1Z"/><polygon class="b" points="84.38 161.29 68.83 161.29 68.33 161.13 83.88 161.13 84.38 161.29"/><polygon class="b" points="85.92 161.78 70.37 161.78 69.87 161.62 85.42 161.62 85.92 161.78"/><polygon class="b" points="87.47 162.27 71.92 162.27 71.42 162.11 86.97 162.11 87.47 162.27"/><polygon class="b" points="86.78 163.51 79.84 163.51 79.37 163.36 86.31 163.36 86.78 163.51"/><polygon class="b" points="88.27 163.99 81.33 163.99 80.85 163.83 87.79 163.83 88.27 163.99"/><path class="j" d="M96.21,158.56l16.13,2a19.14,19.14,0,0,0,4.57-.46L132.1,157c1.7-.35,2.42-.72,1.6-.82l-16.13-2a19.15,19.15,0,0,0-4.58.45l-15.18,3.12C96.11,158.1,95.39,158.46,96.21,158.56Z"/><polygon class="b" points="113.86 155.6 125.95 157.07 126.6 156.94 114.5 155.47 113.86 155.6"/><polygon class="b" points="111.85 156.01 123.94 157.48 124.59 157.35 112.5 155.88 111.85 156.01"/><polygon class="b" points="109.83 156.43 121.92 157.9 122.57 157.77 110.47 156.29 109.83 156.43"/><polygon class="b" points="108.3 157.9 113.7 158.56 114.32 158.43 108.93 157.78 108.3 157.9"/><polygon class="b" points="106.37 158.3 111.76 158.96 112.39 158.83 106.99 158.17 106.37 158.3"/><path class="k" d="M81.12,161l18.64,4.35a16.37,16.37,0,0,0,5.12-.23L121.65,162c1.87-.35,2.63-.81,1.69-1l-18.65-4.36a16.68,16.68,0,0,0-5.12.23L82.8,160C80.93,160.32,80.17,160.79,81.12,161Z"/><polygon class="b" points="100.7 158.35 114.67 161.62 115.39 161.48 101.42 158.22 100.7 158.35"/><polygon class="b" points="98.48 158.76 112.46 162.03 113.17 161.9 99.2 158.63 98.48 158.76"/><polygon class="b" points="96.25 159.18 110.22 162.44 110.94 162.31 96.97 159.05 96.25 159.18"/><polygon class="b" points="94.75 161.18 100.99 162.64 101.68 162.51 95.44 161.05 94.75 161.18"/><polygon class="b" points="92.62 161.58 98.85 163.03 99.54 162.91 93.3 161.45 92.62 161.58"/><path class="l" d="M45.47,161.29l16.36,3.08a21.87,21.87,0,0,0,5.39-.36l19.15-3.15c2.14-.35,3.21-.77,2.38-.93L72.4,156.85a22.44,22.44,0,0,0-5.4.36l-19.15,3.15C45.71,160.72,44.64,161.13,45.47,161.29Z"/><polygon class="b" points="67.22 158.43 79.48 160.74 80.3 160.6 68.04 158.29 67.22 158.43"/><polygon class="b" points="64.69 158.85 76.94 161.16 77.77 161.02 65.51 158.71 64.69 158.85"/><polygon class="b" points="62.14 159.26 74.4 161.58 75.22 161.44 62.96 159.13 62.14 159.26"/><polygon class="b" points="59.34 161 64.81 162.03 65.59 161.9 60.13 160.87 59.34 161"/><polygon class="b" points="56.9 161.4 62.37 162.43 63.15 162.31 57.68 161.27 56.9 161.4"/><path class="m" d="M81.74,159.78l18.56-4.25a6.85,6.85,0,0,1,3.36.23l8.08,3.11c.91.35.87.81-.07,1l-18.56,4.25a6.73,6.73,0,0,1-3.36-.24l-8.08-3.1C80.76,160.45,80.8,160,81.74,159.78Z"/><polygon class="b" points="92.38 162.44 106.3 159.25 106.64 159.38 92.73 162.57 92.38 162.44"/><polygon class="b" points="91.31 162.03 105.23 158.84 105.57 158.97 91.66 162.16 91.31 162.03"/><polygon class="b" points="90.24 161.62 104.15 158.43 104.5 158.56 90.58 161.75 90.24 161.62"/><polygon class="b" points="91.63 159.64 97.83 158.22 98.17 158.34 91.96 159.77 91.63 159.64"/><polygon class="b" points="90.59 159.24 96.8 157.82 97.14 157.95 90.92 159.37 90.59 159.24"/><path class="n" d="M65.2,152.25h18a12.66,12.66,0,0,1,3.7.78l10.07,3.84c1.12.43,1.3.78.39.78h-18a12.72,12.72,0,0,1-3.7-.78L65.59,153C64.47,152.6,64.29,152.25,65.2,152.25Z"/><polygon class="b" points="77.81 156.2 91.27 156.2 91.7 156.37 78.24 156.37 77.81 156.2"/><polygon class="b" points="76.48 155.69 89.94 155.69 90.37 155.86 76.91 155.86 76.48 155.69"/><polygon class="b" points="75.14 155.18 88.6 155.18 89.03 155.35 75.57 155.35 75.14 155.18"/><polygon class="b" points="75.73 153.9 81.74 153.9 82.15 154.05 76.15 154.05 75.73 153.9"/><polygon class="b" points="74.45 153.41 80.45 153.41 80.87 153.56 74.86 153.56 74.45 153.41"/><path class="o" d="M67.58,159l-14-2a14.07,14.07,0,0,0-4,.47l-13.15,3.23c-1.47.36-2.09.74-1.38.85l14,2a13.8,13.8,0,0,0,4-.47l13.14-3.23C67.66,159.51,68.28,159.13,67.58,159Z"/><polygon class="b" points="52.3 162.1 41.84 160.57 41.28 160.71 51.74 162.24 52.3 162.1"/><polygon class="b" points="54.04 161.67 43.58 160.14 43.02 160.28 53.48 161.81 54.04 161.67"/><polygon class="b" points="55.79 161.24 45.33 159.71 44.77 159.85 55.23 161.38 55.79 161.24"/><polygon class="b" points="57.11 159.71 52.44 159.03 51.9 159.16 56.57 159.84 57.11 159.71"/><polygon class="b" points="58.79 159.3 54.12 158.62 53.58 158.75 58.25 159.43 58.79 159.3"/><path class="p" d="M82.79,155.82l-16.14-4.51a11.89,11.89,0,0,0-4.43.24l-14.51,3.22c-1.63.36-2.28.84-1.46,1.07l16.13,4.51a11.9,11.9,0,0,0,4.44-.23l14.51-3.23C83,156.53,83.61,156.05,82.79,155.82Z"/><polygon class="b" points="65.84 158.57 53.74 155.19 53.12 155.33 65.22 158.71 65.84 158.57"/><polygon class="b" points="67.76 158.15 55.66 154.76 55.04 154.9 67.14 158.28 67.76 158.15"/><polygon class="b" points="69.69 157.72 57.59 154.33 56.97 154.47 69.07 157.85 69.69 157.72"/><polygon class="b" points="70.98 155.64 65.59 154.13 64.99 154.26 70.39 155.78 70.98 155.64"/><polygon class="b" points="72.83 155.23 67.44 153.72 66.84 153.85 72.24 155.36 72.83 155.23"/><path class="q" d="M126.86,156.76l-14.16-3.2a16.58,16.58,0,0,0-4.67.37L91.46,157.2c-1.85.37-2.78.8-2.06,1l14.15,3.2a16.54,16.54,0,0,0,4.67-.37l16.58-3.27C126.65,157.35,127.58,156.92,126.86,156.76Z"/><polygon class="b" points="108.04 159.72 97.43 157.33 96.72 157.47 107.33 159.86 108.04 159.72"/><polygon class="b" points="110.23 159.29 99.62 156.9 98.91 157.03 109.52 159.43 110.23 159.29"/><polygon class="b" points="112.43 158.85 101.82 156.46 101.11 156.6 111.72 158.99 112.43 158.85"/><polygon class="b" points="114.86 157.06 110.12 155.99 109.44 156.12 114.18 157.19 114.86 157.06"/><polygon class="b" points="116.97 156.64 112.23 155.57 111.56 155.7 116.29 156.77 116.97 156.64"/><path class="r" d="M110.86,153,88.62,149.2a8.68,8.68,0,0,0-3.93.38l-9.25,3.65c-1,.41-1,.9.17,1.09l22.24,3.83a8.69,8.69,0,0,0,3.93-.39l9.25-3.64C112.06,153.71,112,153.22,110.86,153Z"/><polygon class="b" points="98.55 156.29 81.89 153.43 81.49 153.58 98.16 156.45 98.55 156.29"/><polygon class="b" points="99.78 155.81 83.11 152.94 82.72 153.1 99.38 155.97 99.78 155.81"/><polygon class="b" points="101.01 155.33 84.34 152.46 83.94 152.61 100.61 155.48 101.01 155.33"/><polygon class="b" points="99.2 153.26 91.76 151.98 91.38 152.13 98.82 153.41 99.2 153.26"/><polygon class="b" points="100.38 152.8 92.94 151.52 92.56 151.67 100 152.95 100.38 152.8"/><path class="r" d="M137.3,158.22l-22.46-1.92A8.73,8.73,0,0,0,111,157L102,161.44c-1,.5-.89,1,.25,1.08l22.46,1.92a8.71,8.71,0,0,0,3.88-.72l9-4.42C138.55,158.81,138.43,158.32,137.3,158.22Z"/><polygon class="b" points="125.28 162.53 108.45 161.09 108.07 161.28 124.9 162.72 125.28 162.53"/><polygon class="b" points="126.46 161.95 109.63 160.5 109.25 160.69 126.08 162.14 126.46 161.95"/><polygon class="b" points="127.65 161.36 110.82 159.92 110.44 160.11 127.27 161.55 127.65 161.36"/><polygon class="b" points="125.69 159.46 118.18 158.81 117.82 158.99 125.33 159.64 125.69 159.46"/><polygon class="b" points="126.83 158.89 119.32 158.25 118.96 158.43 126.47 159.07 126.83 158.89"/><path class="s" d="M56.87,152.5l22.43-2.85a8.81,8.81,0,0,1,3.92.56l9.12,4c1,.45.92.94-.22,1.08L69.7,158.19a8.67,8.67,0,0,1-3.92-.56l-9.12-4C55.64,153.13,55.74,152.64,56.87,152.5Z"/><polygon class="b" points="69.06 156.31 85.87 154.17 86.27 154.34 69.45 156.48 69.06 156.31"/><polygon class="b" points="67.86 155.77 84.67 153.64 85.06 153.81 68.25 155.94 67.86 155.77"/><polygon class="b" points="66.64 155.23 83.45 153.1 83.84 153.27 67.03 155.41 66.64 155.23"/><polygon class="b" points="68.54 153.25 76.04 152.3 76.42 152.46 68.92 153.42 68.54 153.25"/><polygon class="b" points="67.38 152.73 74.88 151.78 75.25 151.95 67.75 152.9 67.38 152.73"/><path class="t" d="M51.46,155.35l18.94-3.5a8.5,8.5,0,0,1,3.94.56l10.86,4.32c1.21.49,1.42,1,.46,1.21l-18.93,3.49a8.64,8.64,0,0,1-4-.55l-10.86-4.33C50.71,156.06,50.5,155.52,51.46,155.35Z"/><polygon class="b" points="65 159.36 79.19 156.74 79.66 156.93 65.47 159.55 65 159.36"/><polygon class="b" points="63.57 158.79 77.75 156.17 78.22 156.35 64.03 158.97 63.57 158.79"/><polygon class="b" points="62.12 158.21 76.31 155.59 76.78 155.78 62.59 158.4 62.12 158.21"/><polygon class="b" points="62.67 155.99 69 154.82 69.44 155 63.11 156.17 62.67 155.99"/><polygon class="b" points="61.28 155.44 67.61 154.27 68.06 154.45 61.73 155.62 61.28 155.44"/><path class="u" d="M84,155.49l-17.45-2.22a19.24,19.24,0,0,0-5,.58l-16.5,3.85c-1.85.43-2.63.88-1.75,1l17.45,2.21a19.15,19.15,0,0,0,5-.58l16.51-3.85C84.09,156,84.88,155.6,84,155.49Z"/><polygon class="b" points="64.83 159.17 51.75 157.51 51.04 157.68 64.12 159.34 64.83 159.17"/><polygon class="b" points="67.01 158.66 53.93 157 53.23 157.17 66.3 158.83 67.01 158.66"/><polygon class="b" points="69.21 158.15 56.13 156.49 55.42 156.66 68.5 158.31 69.21 158.15"/><polygon class="b" points="70.88 156.37 65.04 155.63 64.37 155.79 70.2 156.53 70.88 156.37"/><polygon class="b" points="72.98 155.88 67.15 155.14 66.47 155.3 72.31 156.04 72.98 155.88"/><path class="u" d="M104.1,158.53l-19-2.79a15.58,15.58,0,0,0-4.25.23l-12.35,2.39c-1.37.27-1.71.61-.75.75l19,2.79a15.58,15.58,0,0,0,4.25-.23l12.35-2.39C104.72,159,105.06,158.68,104.1,158.53Z"/><polygon class="b" points="89.03 160.65 74.81 158.55 74.28 158.66 88.5 160.75 89.03 160.65"/><polygon class="b" points="90.66 160.33 76.44 158.24 75.92 158.34 90.14 160.43 90.66 160.33"/><polygon class="b" points="92.31 160.01 78.09 157.92 77.56 158.02 91.78 160.11 92.31 160.01"/><polygon class="b" points="92.25 158.6 85.9 157.66 85.4 157.76 91.74 158.69 92.25 158.6"/><polygon class="b" points="93.82 158.29 87.48 157.36 86.97 157.46 93.32 158.39 93.82 158.29"/><path class="u" d="M107.16,157.2l-17.34-4.15a13.64,13.64,0,0,0-4.82.4L69.16,157.3c-1.77.43-2.5,1-1.62,1.17l17.34,4.14a13.64,13.64,0,0,0,4.82-.4l15.84-3.85C107.31,157.93,108,157.41,107.16,157.2Z"/><polygon class="b" points="88.69 160.64 75.69 157.53 75.01 157.7 88.01 160.8 88.69 160.64"/><polygon class="b" points="90.78 160.13 77.79 157.02 77.11 157.19 90.11 160.29 90.78 160.13"/><polygon class="b" points="92.89 159.62 79.89 156.51 79.22 156.67 92.22 159.78 92.89 159.62"/><polygon class="b" points="94.37 157.41 88.57 156.03 87.92 156.19 93.72 157.57 94.37 157.41"/><polygon class="b" points="96.39 156.92 90.59 155.54 89.94 155.69 95.74 157.08 96.39 156.92"/><path class="v" d="M128.58,156.16l-15.82-3.22a21.25,21.25,0,0,0-5.21.31l-18.51,3c-2.07.33-3.11.74-2.31.9l15.82,3.22a21.35,21.35,0,0,0,5.22-.31l18.51-3C128.34,156.73,129.38,156.32,128.58,156.16Z"/><polygon class="b" points="107.55 158.82 95.7 156.41 94.91 156.54 106.76 158.95 107.55 158.82"/><polygon class="b" points="110 158.43 98.15 156.02 97.36 156.14 109.21 158.55 110 158.43"/><polygon class="b" points="112.47 158.03 100.61 155.62 99.82 155.75 111.67 158.16 112.47 158.03"/><polygon class="b" points="115.17 156.32 109.88 155.25 109.12 155.37 114.41 156.44 115.17 156.32"/><polygon class="b" points="117.53 155.94 112.24 154.87 111.48 154.99 116.77 156.06 117.53 155.94"/><path class="u" d="M62.38,153.39l24.23-7.48a11.78,11.78,0,0,1,4.39-.37l10.61,1.55c1.19.17,1.15.63-.08,1L77.3,155.57a12,12,0,0,1-4.39.38L62.3,154.39C61.12,154.22,61.15,153.77,62.38,153.39Z"/><polygon class="b" points="76.33 154.05 94.5 148.45 94.95 148.51 76.79 154.12 76.33 154.05"/><polygon class="b" points="74.93 153.84 93.09 148.24 93.55 148.31 75.38 153.91 74.93 153.84"/><polygon class="b" points="73.52 153.64 91.68 148.03 92.13 148.1 73.97 153.7 73.52 153.64"/><polygon class="b" points="75.31 151.47 83.42 148.97 83.85 149.03 75.75 151.53 75.31 151.47"/><polygon class="b" points="73.96 151.27 82.06 148.77 82.5 148.83 74.39 151.33 73.96 151.27"/><path class="r" d="M75.55,148.55,53,149.3a8.81,8.81,0,0,0-3.77,1.17l-8.32,5.44c-.93.61-.75,1.08.39,1l22.55-.75A8.63,8.63,0,0,0,67.61,155l8.33-5.44C76.86,149,76.69,148.51,75.55,148.55Z"/><polygon class="b" points="64.16 154.24 47.26 154.8 46.9 155.04 63.8 154.47 64.16 154.24"/><polygon class="b" points="65.26 153.52 48.36 154.08 48 154.32 64.9 153.76 65.26 153.52"/><polygon class="b" points="66.37 152.8 49.47 153.36 49.11 153.59 66.01 153.03 66.37 152.8"/><polygon class="b" points="64.18 151.14 56.63 151.39 56.29 151.62 63.84 151.37 64.18 151.14"/><polygon class="b" points="65.24 150.45 57.7 150.7 57.35 150.92 64.9 150.67 65.24 150.45"/><path class="r" d="M91.41,142,69,144.77a8.67,8.67,0,0,0-3.65,1.51l-7.85,6.17c-.88.69-.67,1.14.47,1l22.37-2.74A8.67,8.67,0,0,0,84,149.2L91.88,143C92.76,142.34,92.54,141.89,91.41,142Z"/><polygon class="b" points="80.54 148.72 63.77 150.78 63.44 151.04 80.2 148.99 80.54 148.72"/><polygon class="b" points="81.58 147.91 64.81 149.96 64.47 150.22 81.24 148.17 81.58 147.91"/><polygon class="b" points="82.62 147.08 65.85 149.14 65.52 149.4 82.28 147.35 82.62 147.08"/><polygon class="b" points="80.31 145.63 72.83 146.54 72.51 146.79 79.99 145.88 80.31 145.63"/><polygon class="b" points="81.31 144.84 73.83 145.75 73.51 146.01 80.99 145.09 81.31 144.84"/><path class="r" d="M68.41,141.59l-21.41,7a8.82,8.82,0,0,0-3.3,2.18l-6.49,7.58c-.73.85-.43,1.25.65.89l21.41-7a8.7,8.7,0,0,0,3.3-2.18l6.49-7.58C69.79,141.64,69.49,141.24,68.41,141.59Z"/><polygon class="b" points="59.04 150.27 42.99 155.54 42.72 155.86 58.77 150.59 59.04 150.27"/><polygon class="b" points="59.9 149.26 43.85 154.54 43.58 154.86 59.63 149.59 59.9 149.26"/><polygon class="b" points="60.77 148.26 44.72 153.53 44.44 153.85 60.49 148.58 60.77 148.26"/><polygon class="b" points="58.22 147.28 51.06 149.63 50.79 149.94 57.95 147.59 58.22 147.28"/><polygon class="b" points="59.05 146.31 51.88 148.66 51.62 148.97 58.78 146.62 59.05 146.31"/><path class="w" d="M29.11,159l19.09-7.32a7.08,7.08,0,0,1,3.53-.25l8.7,2.12c1,.24,1,.74,0,1.11l-19.09,7.33a6.92,6.92,0,0,1-3.52.24l-8.7-2.12C28.15,159.82,28.15,159.32,29.11,159Z"/><polygon class="b" points="40.45 160.22 54.76 154.73 55.13 154.82 40.83 160.31 40.45 160.22"/><polygon class="b" points="39.3 159.94 53.61 154.45 53.98 154.54 39.67 160.03 39.3 159.94"/><polygon class="b" points="38.15 159.65 52.45 154.16 52.82 154.25 38.52 159.75 38.15 159.65"/><polygon class="b" points="39.44 157.33 45.83 154.88 46.19 154.97 39.8 157.42 39.44 157.33"/><polygon class="b" points="38.34 157.06 44.72 154.61 45.08 154.7 38.69 157.15 38.34 157.06"/><path class="x" d="M72.75,147.13l18.55-2a5.23,5.23,0,0,1,3.39,1.33l8.28,7.47c.92.83.91,1.59,0,1.69l-18.55,2a5.23,5.23,0,0,1-3.4-1.33l-8.27-7.46C71.79,148,71.81,147.23,72.75,147.13Z"/><polygon class="b" points="83.58 154.55 97.49 153.05 97.84 153.37 83.94 154.87 83.58 154.55"/><polygon class="b" points="82.49 153.56 96.39 152.06 96.75 152.38 82.84 153.88 82.49 153.56"/><polygon class="b" points="81.39 152.57 95.29 151.07 95.65 151.39 81.74 152.89 81.39 152.57"/><polygon class="b" points="82.71 149.63 88.92 148.97 89.26 149.27 83.05 149.94 82.71 149.63"/><polygon class="b" points="81.66 148.68 87.86 148.01 88.2 148.32 82 148.99 81.66 148.68"/><path class="y" d="M32.77,164.79l14.32-10.64a7,7,0,0,1,3.43-1L61,152.84c1.17,0,1.52.39.8.93L47.43,164.4a7.09,7.09,0,0,1-3.44,1l-10.42.28C32.4,165.75,32.05,165.33,32.77,164.79Z"/><polygon class="b" points="45.29 163.18 56.02 155.2 56.47 155.19 45.74 163.16 45.29 163.18"/><polygon class="b" points="43.91 163.21 54.64 155.24 55.09 155.23 44.36 163.2 43.91 163.21"/><polygon class="b" points="42.52 163.25 53.25 155.28 53.7 155.26 42.97 163.24 42.52 163.25"/><polygon class="b" points="42.19 160.99 46.98 157.44 47.41 157.43 42.62 160.98 42.19 160.99"/><polygon class="b" points="40.86 161.03 45.65 157.47 46.08 157.46 41.29 161.02 40.86 161.03"/><path class="z" d="M53.83,148.25l-15.1,4.81a16.74,16.74,0,0,0-3.86,2.47l-12.21,10c-1.36,1.12-1.85,1.83-1.08,1.59l15.09-4.81a16.22,16.22,0,0,0,3.87-2.47l12.21-10C54.11,148.73,54.6,148,53.83,148.25Z"/><polygon class="b" points="39.39 159.16 28.07 162.76 27.55 163.19 38.87 159.59 39.39 159.16"/><polygon class="b" points="41 157.83 29.69 161.43 29.16 161.86 40.48 158.26 41 157.83"/><polygon class="b" points="42.63 156.5 31.31 160.1 30.79 160.53 42.1 156.93 42.63 156.5"/><polygon class="b" points="43.38 154.21 38.33 155.82 37.83 156.23 42.88 154.62 43.38 154.21"/><polygon class="b" points="44.93 152.93 39.88 154.54 39.38 154.95 44.43 153.34 44.93 152.93"/><path class="u" d="M70.05,155.31,50.9,156.42a15.47,15.47,0,0,0-4.12,1.08l-11.6,4.84c-1.3.54-1.56.93-.59.88l19.14-1.1A15.82,15.82,0,0,0,57.85,161l11.61-4.83C70.75,155.66,71,155.26,70.05,155.31Z"/><polygon class="b" points="55.71 160.43 41.36 161.25 40.87 161.46 55.22 160.64 55.71 160.43"/><polygon class="b" points="57.25 159.79 42.9 160.62 42.4 160.82 56.75 160 57.25 159.79"/><polygon class="b" points="58.79 159.15 44.44 159.97 43.95 160.18 58.29 159.35 58.79 159.15"/><polygon class="b" points="58.45 157.77 52.05 158.14 51.57 158.34 57.97 157.97 58.45 157.77"/><polygon class="b" points="59.93 157.15 53.53 157.52 53.05 157.72 59.45 157.35 59.93 157.15"/><path class="u" d="M78.43,150.61l-17.82-.55A13.47,13.47,0,0,0,56,151.42l-14.74,7c-1.65.78-2.26,1.44-1.35,1.47l17.82.55a13.53,13.53,0,0,0,4.63-1.37l14.74-7C78.73,151.3,79.34,150.64,78.43,150.61Z"/><polygon class="b" points="61.04 157.72 47.68 157.3 47.05 157.6 60.41 158.02 61.04 157.72"/><polygon class="b" points="62.99 156.79 49.63 156.38 49 156.68 62.36 157.09 62.99 156.79"/><polygon class="b" points="64.95 155.87 51.59 155.45 50.96 155.75 64.32 156.17 64.95 155.87"/><polygon class="b" points="65.95 153.41 59.99 153.23 59.38 153.51 65.34 153.7 65.95 153.41"/><polygon class="b" points="67.83 152.52 61.87 152.34 61.26 152.62 67.22 152.81 67.83 152.52"/><path class="v" d="M88.28,151.76l-16.14,0a21.64,21.64,0,0,0-5,1.36l-17.52,6.66c-2,.75-2.89,1.35-2.07,1.35l16.14,0a21.72,21.72,0,0,0,5-1.36l17.53-6.66C88.16,152.36,89.1,151.75,88.28,151.76Z"/><polygon class="b" points="68.23 158.62 56.13 158.65 55.38 158.94 67.48 158.9 68.23 158.62"/><polygon class="b" points="70.55 157.74 58.45 157.77 57.7 158.06 69.8 158.02 70.55 157.74"/><polygon class="b" points="72.88 156.85 60.78 156.88 60.03 157.17 72.13 157.13 72.88 156.85"/><polygon class="b" points="75.18 154.63 69.78 154.65 69.06 154.92 74.46 154.9 75.18 154.63"/><polygon class="b" points="77.42 153.78 72.02 153.8 71.3 154.07 76.7 154.06 77.42 153.78"/><path class="aa" d="M108.73,153.08l22-.13a9.16,9.16,0,0,1,3.74.91l8.41,4.56c.94.51.8.93-.32.94l-22,.14a9.29,9.29,0,0,1-3.74-.92L108.41,154C107.48,153.51,107.62,153.09,108.73,153.08Z"/><polygon class="b" points="120.14 157.76 136.62 157.65 136.98 157.85 120.5 157.95 120.14 157.76"/><polygon class="b" points="119.03 157.16 135.51 157.05 135.87 157.25 119.39 157.35 119.03 157.16"/><polygon class="b" points="117.91 156.55 134.39 156.44 134.75 156.64 118.27 156.74 117.91 156.55"/><polygon class="b" points="119.94 154.99 127.3 154.95 127.64 155.13 120.29 155.18 119.94 154.99"/><polygon class="b" points="118.87 154.41 126.23 154.36 126.57 154.55 119.22 154.6 118.87 154.41"/><path class="r" d="M122.88,152.27l-21.8-5.82a8.78,8.78,0,0,0-4,0l-9.54,2.8c-1.07.31-1,.81.07,1.11l21.8,5.81a8.64,8.64,0,0,0,4,0l9.54-2.8C124,153.06,124,152.56,122.88,152.27Z"/><polygon class="b" points="110.33 154.42 93.99 150.06 93.58 150.18 109.92 154.54 110.33 154.42"/><polygon class="b" points="111.59 154.05 95.25 149.69 94.85 149.81 111.19 154.17 111.59 154.05"/><polygon class="b" points="112.86 153.68 96.52 149.32 96.11 149.44 112.46 153.79 112.86 153.68"/><polygon class="b" points="111.25 151.46 103.95 149.51 103.56 149.63 110.86 151.57 111.25 151.46"/><polygon class="b" points="112.46 151.1 105.17 149.16 104.78 149.27 112.07 151.22 112.46 151.1"/><path class="r" d="M140,150.62l-22.2-3.85a8.6,8.6,0,0,0-3.94.38l-9.29,3.63c-1,.41-1,.9.16,1.09l22.2,3.86a8.88,8.88,0,0,0,3.94-.38l9.29-3.64C141.15,151.31,141.08,150.82,140,150.62Z"/><polygon class="b" points="127.61 153.88 110.97 150.99 110.57 151.14 127.21 154.03 127.61 153.88"/><polygon class="b" points="128.84 153.4 112.19 150.51 111.8 150.66 128.44 153.55 128.84 153.4"/><polygon class="b" points="130.07 152.91 113.43 150.02 113.03 150.18 129.68 153.07 130.07 152.91"/><polygon class="b" points="128.29 150.85 120.86 149.56 120.48 149.71 127.91 151 128.29 150.85"/><polygon class="b" points="129.47 150.38 122.05 149.09 121.66 149.24 129.09 150.53 129.47 150.38"/><path class="r" d="M118.06,143.54l-22.53.53a8.72,8.72,0,0,0-3.78,1.14l-8.42,5.37c-.94.6-.77,1.07.37,1l22.54-.53A8.72,8.72,0,0,0,110,150l8.41-5.37C119.37,144,119.21,143.51,118.06,143.54Z"/><polygon class="b" points="106.59 149.13 89.7 149.53 89.34 149.76 106.23 149.36 106.59 149.13"/><polygon class="b" points="107.7 148.42 90.81 148.82 90.45 149.05 107.34 148.65 107.7 148.42"/><polygon class="b" points="108.82 147.71 91.93 148.11 91.57 148.34 108.46 147.94 108.82 147.71"/><polygon class="b" points="106.66 146.03 99.13 146.21 98.78 146.43 106.32 146.25 106.66 146.03"/><polygon class="b" points="107.74 145.34 100.2 145.52 99.86 145.74 107.39 145.56 107.74 145.34"/><path class="s" d="M69.16,146.88l22.6-.81a8.49,8.49,0,0,1,3.85.91l8.72,4.85c1,.54.83,1-.31,1.06l-22.6.82a8.76,8.76,0,0,1-3.85-.91l-8.72-4.86C67.88,147.4,68,146.92,69.16,146.88Z"/><polygon class="b" points="80.96 151.77 97.9 151.16 98.27 151.37 81.33 151.98 80.96 151.77"/><polygon class="b" points="79.81 151.13 96.74 150.52 97.12 150.73 80.18 151.34 79.81 151.13"/><polygon class="b" points="78.65 150.49 95.58 149.87 95.96 150.08 79.02 150.69 78.65 150.49"/><polygon class="b" points="80.72 148.68 88.27 148.41 88.63 148.61 81.07 148.88 80.72 148.68"/><polygon class="b" points="79.6 148.06 87.16 147.79 87.52 147.99 79.96 148.26 79.6 148.06"/><path class="x" d="M120.61,150.1,139,153.55a5.21,5.21,0,0,1,2.86,2.25l5.76,9.54c.64,1.07.41,1.8-.52,1.62l-18.34-3.45a5.22,5.22,0,0,1-2.86-2.26l-5.76-9.54C119.45,150.65,119.68,149.92,120.61,150.1Z"/><polygon class="b" points="128.84 160.34 142.58 162.93 142.83 163.34 129.08 160.75 128.84 160.34"/><polygon class="b" points="128.07 159.08 141.82 161.67 142.06 162.08 128.32 159.49 128.07 159.08"/><polygon class="b" points="127.31 157.81 141.05 160.4 141.3 160.81 127.55 158.22 127.31 157.81"/><polygon class="b" points="129.42 155.38 135.56 156.54 135.79 156.93 129.66 155.77 129.42 155.38"/><polygon class="b" points="128.69 154.16 134.82 155.32 135.06 155.71 128.93 154.56 128.69 154.16"/><path class="t" d="M71.4,153.66l18.44-5.54a8.62,8.62,0,0,1,4,.13l11.26,3.12c1.26.34,1.53.86.59,1.14l-18.44,5.54a8.62,8.62,0,0,1-4-.13L72,154.8C70.73,154.45,70.46,153.94,71.4,153.66Z"/><polygon class="b" points="85.29 156.18 99.11 152.03 99.59 152.16 85.78 156.31 85.29 156.18"/><polygon class="b" points="83.8 155.76 97.62 151.61 98.1 151.75 84.28 155.9 83.8 155.76"/><polygon class="b" points="82.31 155.35 96.12 151.2 96.61 151.33 82.79 155.48 82.31 155.35"/><polygon class="b" points="82.6 153.08 88.77 151.23 89.23 151.36 83.07 153.21 82.6 153.08"/><polygon class="b" points="81.17 152.69 87.33 150.83 87.8 150.96 81.63 152.81 81.17 152.69"/><path class="u" d="M98.78,144.67l-17.59-.31a19.34,19.34,0,0,0-4.87,1.12l-16,5.62c-1.78.63-2.51,1.16-1.62,1.17l17.59.3a18.67,18.67,0,0,0,4.86-1.11l16-5.62C98.94,145.21,99.67,144.68,98.78,144.67Z"/><polygon class="b" points="80.13 150.41 66.95 150.19 66.26 150.43 79.44 150.66 80.13 150.41"/><polygon class="b" points="82.24 149.67 69.06 149.44 68.38 149.69 81.56 149.91 82.24 149.67"/><polygon class="b" points="84.37 148.92 71.19 148.7 70.5 148.94 83.68 149.16 84.37 148.92"/><polygon class="b" points="85.84 146.97 79.96 146.87 79.3 147.1 85.18 147.21 85.84 146.97"/><polygon class="b" points="87.88 146.26 82 146.16 81.34 146.39 87.22 146.49 87.88 146.26"/><path class="u" d="M115.66,157.15,97,152.66a15.57,15.57,0,0,0-4.25-.16l-12.51,1.27c-1.4.15-1.77.45-.82.68l18.64,4.49a16.1,16.1,0,0,0,4.26.15l12.51-1.27C116.23,157.68,116.6,157.38,115.66,157.15Z"/><polygon class="b" points="100.46 157.89 86.48 154.53 85.95 154.58 99.92 157.95 100.46 157.89"/><polygon class="b" points="102.11 157.73 88.14 154.36 87.6 154.41 101.58 157.78 102.11 157.73"/><polygon class="b" points="103.77 157.56 89.8 154.19 89.27 154.25 103.24 157.61 103.77 157.56"/><polygon class="b" points="103.85 156.14 97.61 154.64 97.1 154.69 103.33 156.19 103.85 156.14"/><polygon class="b" points="105.44 155.98 99.2 154.48 98.69 154.53 104.93 156.03 105.44 155.98"/><path class="u" d="M125.05,155.08l-16.9-5.69a13.52,13.52,0,0,0-4.83,0l-16.13,2.41c-1.8.27-2.58.72-1.72,1l16.9,5.69a13.52,13.52,0,0,0,4.83,0l16.13-2.41C125.13,155.82,125.9,155.37,125.05,155.08Z"/><polygon class="b" points="106.34 156.84 93.67 152.58 92.98 152.68 105.65 156.94 106.34 156.84"/><polygon class="b" points="108.47 156.52 95.81 152.26 95.12 152.36 107.78 156.63 108.47 156.52"/><polygon class="b" points="110.62 156.2 97.95 151.94 97.26 152.04 109.93 156.31 110.62 156.2"/><polygon class="b" points="112.29 154.14 106.63 152.24 105.97 152.34 111.62 154.24 112.29 154.14"/><polygon class="b" points="114.34 153.84 108.69 151.93 108.03 152.03 113.68 153.93 114.34 153.84"/><path class="v" d="M134.14,159l-15.46-4.63a21.6,21.6,0,0,0-5.23-.16l-18.7,1.3c-2.09.15-3.16.46-2.37.7l15.46,4.62a20.86,20.86,0,0,0,5.22.17l18.7-1.31C133.85,159.57,134.92,159.26,134.14,159Z"/><polygon class="b" points="112.96 159.78 101.37 156.31 100.57 156.37 112.16 159.84 112.96 159.78"/><polygon class="b" points="115.43 159.61 103.85 156.14 103.05 156.2 114.63 159.67 115.43 159.61"/><polygon class="b" points="117.92 159.44 106.33 155.97 105.53 156.02 117.12 159.49 117.92 159.44"/><polygon class="b" points="120.77 157.98 115.6 156.43 114.83 156.49 120 158.03 120.77 157.98"/><polygon class="b" points="123.15 157.81 117.98 156.27 117.22 156.32 122.39 157.87 123.15 157.81"/><path class="ab" d="M110.58,149.55l-24-7.47a11.72,11.72,0,0,0-4.34-.38l-10.5,1.56c-1.17.17-1.14.62.08,1l24,7.48a11.51,11.51,0,0,0,4.34.37l10.5-1.55C111.83,150.38,111.8,149.93,110.58,149.55Z"/><polygon class="b" points="96.78 150.22 78.81 144.61 78.36 144.68 96.33 150.28 96.78 150.22"/><polygon class="b" points="98.17 150.01 80.19 144.41 79.75 144.47 97.72 150.08 98.17 150.01"/><polygon class="b" points="99.56 149.8 81.59 144.2 81.14 144.26 99.11 149.87 99.56 149.8"/><polygon class="b" points="97.79 147.63 89.77 145.13 89.34 145.2 97.36 147.7 97.79 147.63"/><polygon class="b" points="99.13 147.44 91.11 144.94 90.67 145 98.69 147.5 99.13 147.44"/><path class="ac" d="M97.55,144.72l22.32.74a8.52,8.52,0,0,1,3.73,1.18l8.23,5.44c.92.61.75,1.07-.38,1l-22.32-.74a8.52,8.52,0,0,1-3.73-1.18l-8.23-5.44C96.25,145.15,96.42,144.68,97.55,144.72Z"/><polygon class="b" points="108.82 150.41 125.54 150.97 125.9 151.2 109.17 150.64 108.82 150.41"/><polygon class="b" points="107.73 149.69 124.45 150.25 124.81 150.48 108.08 149.92 107.73 149.69"/><polygon class="b" points="106.64 148.96 123.36 149.52 123.71 149.76 106.99 149.2 106.64 148.96"/><polygon class="b" points="108.8 147.31 116.27 147.56 116.6 147.78 109.14 147.53 108.8 147.31"/><polygon class="b" points="107.75 146.62 115.22 146.87 115.55 147.09 108.09 146.84 107.75 146.62"/><path class="ac" d="M81.86,138.2,104,140.94a8.59,8.59,0,0,1,3.62,1.5l7.76,6.17c.87.69.66,1.14-.46,1l-22.14-2.74a8.62,8.62,0,0,1-3.61-1.5l-7.77-6.17C80.53,138.51,80.74,138.06,81.86,138.2Z"/><polygon class="b" points="92.62 144.89 109.2 146.94 109.54 147.21 92.95 145.15 92.62 144.89"/><polygon class="b" points="91.59 144.07 108.18 146.13 108.51 146.39 91.92 144.33 91.59 144.07"/><polygon class="b" points="90.56 143.25 107.14 145.3 107.48 145.57 90.89 143.51 90.56 143.25"/><polygon class="b" points="92.84 141.79 100.24 142.71 100.56 142.96 93.16 142.04 92.84 141.79"/><polygon class="b" points="91.85 141 99.25 141.92 99.57 142.17 92.17 141.26 91.85 141"/><path class="ac" d="M104.62,137.76l21.18,7a8.58,8.58,0,0,1,3.26,2.19l6.43,7.58c.72.84.42,1.24-.65.88l-21.19-7a8.54,8.54,0,0,1-3.25-2.19L104,138.65C103.25,137.8,103.54,137.4,104.62,137.76Z"/><polygon class="b" points="113.88 146.43 129.76 151.71 130.03 152.03 114.16 146.76 113.88 146.43"/><polygon class="b" points="113.03 145.43 128.91 150.7 129.19 151.03 113.31 145.75 113.03 145.43"/><polygon class="b" points="112.18 144.42 128.06 149.69 128.33 150.02 112.45 144.75 112.18 144.42"/><polygon class="b" points="114.7 143.44 121.78 145.79 122.05 146.1 114.96 143.75 114.7 143.44"/><polygon class="b" points="113.88 142.47 120.97 144.83 121.23 145.14 114.14 142.78 113.88 142.47"/><path class="ad" d="M144.36,155.12,126,147.79a6.44,6.44,0,0,0-3.39-.24l-8.36,2.12c-.94.24-.94.73,0,1.11l18.35,7.32a6.54,6.54,0,0,0,3.39.25l8.36-2.13C145.28,156,145.29,155.49,144.36,155.12Z"/><polygon class="b" points="133.46 156.38 119.7 150.89 119.35 150.98 133.1 156.47 133.46 156.38"/><polygon class="b" points="134.56 156.1 120.81 150.61 120.45 150.7 134.2 156.19 134.56 156.1"/><polygon class="b" points="135.67 155.82 121.92 150.33 121.56 150.42 135.32 155.91 135.67 155.82"/><polygon class="b" points="134.43 153.5 128.29 151.04 127.94 151.13 134.08 153.58 134.43 153.5"/><polygon class="b" points="135.49 153.22 129.35 150.77 129.01 150.86 135.15 153.31 135.49 153.22"/><path class="ae" d="M100.32,143.29l-18.35-2a5.15,5.15,0,0,0-3.36,1.33l-8.19,7.46c-.91.83-.9,1.6,0,1.7l18.36,2a5,5,0,0,0,3.35-1.33l8.19-7.46C101.27,144.16,101.25,143.4,100.32,143.29Z"/><polygon class="b" points="89.6 150.72 75.84 149.22 75.49 149.53 89.25 151.04 89.6 150.72"/><polygon class="b" points="90.68 149.73 76.93 148.23 76.58 148.55 90.33 150.05 90.68 149.73"/><polygon class="b" points="91.77 148.74 78.02 147.24 77.67 147.56 91.42 149.06 91.77 148.74"/><polygon class="b" points="90.46 145.8 84.33 145.13 83.99 145.44 90.13 146.11 90.46 145.8"/><polygon class="b" points="91.51 144.85 85.37 144.18 85.03 144.49 91.17 145.16 91.51 144.85"/><path class="af" d="M145.91,161,130,150.32a8.5,8.5,0,0,0-3.82-1L114.66,149c-1.29,0-1.68.38-.88.92l15.88,10.64a8.45,8.45,0,0,0,3.81,1l11.56.27C146.32,161.91,146.71,161.5,145.91,161Z"/><polygon class="b" points="132.03 159.34 120.13 151.37 119.64 151.35 131.53 159.33 132.03 159.34"/><polygon class="b" points="133.56 159.38 121.66 151.4 121.17 151.39 133.06 159.37 133.56 159.38"/><polygon class="b" points="135.1 159.41 123.2 151.44 122.7 151.43 134.6 159.4 135.1 159.41"/><polygon class="b" points="135.46 157.16 130.15 153.6 129.68 153.59 134.99 157.15 135.46 157.16"/><polygon class="b" points="136.94 157.19 131.63 153.64 131.15 153.63 136.46 157.18 136.94 157.19"/><path class="ag" d="M120.59,144.42l14.52,4.8a16.21,16.21,0,0,1,3.72,2.48l11.73,10c1.31,1.12,1.78,1.84,1,1.59l-14.51-4.8a15.68,15.68,0,0,1-3.72-2.48l-11.73-10C120.33,144.89,119.86,144.18,120.59,144.42Z"/><polygon class="b" points="134.48 155.32 145.36 158.92 145.86 159.35 134.98 155.75 134.48 155.32"/><polygon class="b" points="132.93 154 143.8 157.6 144.31 158.03 133.43 154.43 132.93 154"/><polygon class="b" points="131.37 152.67 142.24 156.27 142.75 156.7 131.87 153.09 131.37 152.67"/><polygon class="b" points="130.64 150.38 135.5 151.98 135.98 152.39 131.12 150.79 130.64 150.38"/><polygon class="b" points="129.15 149.1 134 150.71 134.48 151.12 129.63 149.51 129.15 149.1"/><path class="ab" d="M103,151.48l18.94,1.1a15.14,15.14,0,0,1,4.07,1.09l11.48,4.83c1.29.54,1.55.94.59.88l-18.94-1.1a15.14,15.14,0,0,1-4.08-1.08l-11.48-4.84C102.3,151.82,102,151.42,103,151.48Z"/><polygon class="b" points="117.18 156.59 131.37 157.42 131.87 157.63 117.67 156.8 117.18 156.59"/><polygon class="b" points="115.66 155.96 129.86 156.78 130.35 156.99 116.15 156.16 115.66 155.96"/><polygon class="b" points="114.13 155.31 128.33 156.14 128.82 156.34 114.62 155.52 114.13 155.31"/><polygon class="b" points="114.47 153.94 120.8 154.3 121.28 154.5 114.94 154.13 114.47 153.94"/><polygon class="b" points="113 153.32 119.34 153.69 119.81 153.89 113.48 153.52 113 153.32"/><path class="ab" d="M94.7,146.78l17.63-.56a13.59,13.59,0,0,1,4.59,1.37l14.58,7c1.63.78,2.23,1.44,1.34,1.47l-17.64.55a13.21,13.21,0,0,1-4.58-1.36l-14.59-7C94.4,147.47,93.8,146.81,94.7,146.78Z"/><polygon class="b" points="111.91 153.88 125.12 153.47 125.75 153.77 112.53 154.18 111.91 153.88"/><polygon class="b" points="109.98 152.96 123.19 152.55 123.82 152.84 110.6 153.26 109.98 152.96"/><polygon class="b" points="108.04 152.03 121.25 151.62 121.88 151.92 108.66 152.33 108.04 152.03"/><polygon class="b" points="107.05 149.58 112.95 149.39 113.55 149.68 107.65 149.86 107.05 149.58"/><polygon class="b" points="105.19 148.69 111.09 148.5 111.69 148.79 105.79 148.97 105.19 148.69"/><path class="ah" d="M85,147.92l16,.05a20.38,20.38,0,0,1,5,1.36L123.26,156c1.93.74,2.86,1.35,2,1.35l-16-.05a20.15,20.15,0,0,1-5-1.36L87,149.27C85.07,148.53,84.15,147.92,85,147.92Z"/><polygon class="b" points="104.8 154.78 116.76 154.82 117.5 155.1 105.54 155.07 104.8 154.78"/><polygon class="b" points="102.5 153.9 114.47 153.94 115.21 154.22 103.24 154.19 102.5 153.9"/><polygon class="b" points="100.19 153.01 112.16 153.05 112.9 153.34 100.94 153.3 100.19 153.01"/><polygon class="b" points="97.92 150.8 103.26 150.81 103.97 151.09 98.63 151.07 97.92 150.8"/><polygon class="b" points="95.7 149.95 101.05 149.96 101.76 150.24 96.42 150.22 95.7 149.95"/><path class="ai" d="M66.59,149.25l-22.39-.14a9.43,9.43,0,0,0-3.8.91l-8.57,4.56c-1,.51-.81.94.32.94l22.39.14a9.44,9.44,0,0,0,3.81-.91l8.57-4.56C67.88,149.68,67.73,149.26,66.59,149.25Z"/><polygon class="b" points="54.97 153.92 38.19 153.82 37.83 154.01 54.61 154.12 54.97 153.92"/><polygon class="b" points="56.11 153.32 39.33 153.22 38.96 153.41 55.74 153.52 56.11 153.32"/><polygon class="b" points="57.25 152.71 40.47 152.61 40.1 152.81 56.88 152.91 57.25 152.71"/><polygon class="b" points="55.18 151.16 47.69 151.11 47.34 151.3 54.82 151.34 55.18 151.16"/><polygon class="b" points="56.27 150.58 48.78 150.53 48.43 150.72 55.92 150.76 56.27 150.58"/><path class="ac" d="M50.72,148.43l21.58-5.81a8.42,8.42,0,0,1,3.9,0l9.44,2.8c1,.31,1,.81-.07,1.1L64,152.37a8.6,8.6,0,0,1-3.91,0l-9.44-2.8C49.6,149.23,49.63,148.73,50.72,148.43Z"/><polygon class="b" points="63.14 150.58 79.3 146.22 79.71 146.34 63.54 150.7 63.14 150.58"/><polygon class="b" points="61.89 150.21 78.06 145.85 78.46 145.97 62.29 150.33 61.89 150.21"/><polygon class="b" points="60.63 149.84 76.8 145.48 77.2 145.6 61.03 149.96 60.63 149.84"/><polygon class="b" points="62.23 147.62 69.45 145.68 69.83 145.79 62.62 147.74 62.23 147.62"/><polygon class="b" points="61.03 147.27 68.24 145.32 68.63 145.44 61.41 147.38 61.03 147.27"/><path class="ac" d="M33.83,146.79l22-3.86a8.52,8.52,0,0,1,3.89.39l9.2,3.63c1,.4,1,.89-.16,1.09l-22,3.85a8.4,8.4,0,0,1-3.89-.38l-9.2-3.63C32.64,147.47,32.72,147,33.83,146.79Z"/><polygon class="b" points="46.04 150.04 62.51 147.15 62.9 147.31 46.44 150.2 46.04 150.04"/><polygon class="b" points="44.83 149.56 61.29 146.67 61.69 146.83 45.22 149.72 44.83 149.56"/><polygon class="b" points="43.6 149.08 60.07 146.19 60.46 146.34 44 149.23 43.6 149.08"/><polygon class="b" points="45.37 147.01 52.72 145.72 53.1 145.87 45.75 147.16 45.37 147.01"/><polygon class="b" points="44.2 146.55 51.55 145.26 51.92 145.41 44.58 146.7 44.2 146.55"/><path class="ac" d="M55.49,139.71l22.29.53a8.6,8.6,0,0,1,3.75,1.14l8.32,5.37c.93.6.76,1.07-.37,1l-22.29-.53a8.52,8.52,0,0,1-3.74-1.14l-8.33-5.37C54.19,140.15,54.36,139.68,55.49,139.71Z"/><polygon class="b" points="66.84 145.3 83.55 145.7 83.91 145.93 67.2 145.53 66.84 145.3"/><polygon class="b" points="65.74 144.59 82.45 144.99 82.81 145.22 66.1 144.82 65.74 144.59"/><polygon class="b" points="64.63 143.87 81.34 144.27 81.7 144.5 64.99 144.1 64.63 143.87"/><polygon class="b" points="66.77 142.19 74.22 142.37 74.56 142.59 67.11 142.41 66.77 142.19"/><polygon class="b" points="65.7 141.51 73.16 141.69 73.5 141.91 66.05 141.73 65.7 141.51"/><path class="aj" d="M103.87,143.05l-22.36-.82a8.59,8.59,0,0,0-3.81.91L69.08,148c-1,.54-.83,1,.31,1.06l22.35.81a8.59,8.59,0,0,0,3.81-.91l8.63-4.85C105.14,143.57,105,143.09,103.87,143.05Z"/><polygon class="b" points="92.2 147.94 75.44 147.33 75.07 147.53 91.83 148.15 92.2 147.94"/><polygon class="b" points="93.34 147.3 76.58 146.69 76.21 146.89 92.97 147.5 93.34 147.3"/><polygon class="b" points="94.48 146.65 77.73 146.04 77.36 146.25 94.11 146.86 94.48 146.65"/><polygon class="b" points="92.44 144.85 84.96 144.57 84.61 144.77 92.08 145.05 92.44 144.85"/><polygon class="b" points="93.54 144.23 86.06 143.96 85.71 144.16 93.19 144.43 93.54 144.23"/><path class="ak" d="M56.23,146.26,40,149.72A4.66,4.66,0,0,0,37.52,152l-5.09,9.54c-.57,1.06-.36,1.79.46,1.62l16.19-3.46a4.72,4.72,0,0,0,2.53-2.25l5.08-9.54C57.26,146.81,57.05,146.09,56.23,146.26Z"/><polygon class="b" points="48.97 156.5 36.84 159.09 36.62 159.5 48.75 156.91 48.97 156.5"/><polygon class="b" points="49.65 155.24 37.51 157.83 37.29 158.24 49.43 155.65 49.65 155.24"/><polygon class="b" points="50.32 153.97 38.19 156.56 37.97 156.97 50.1 154.38 50.32 153.97"/><polygon class="b" points="48.45 151.55 43.04 152.7 42.83 153.09 48.24 151.94 48.45 151.55"/><polygon class="b" points="49.1 150.33 43.69 151.49 43.48 151.88 48.89 150.72 49.1 150.33"/><path class="af" d="M101.66,149.82l-18.24-5.53a8.48,8.48,0,0,0-4,.12l-11.14,3.12c-1.25.35-1.51.86-.58,1.14L86,154.21a8.43,8.43,0,0,0,3.94-.12L101.08,151C102.32,150.62,102.58,150.1,101.66,149.82Z"/><polygon class="b" points="87.91 152.34 74.24 148.19 73.76 148.32 87.43 152.47 87.91 152.34"/><polygon class="b" points="89.38 151.93 75.71 147.78 75.23 147.91 88.91 152.06 89.38 151.93"/><polygon class="b" points="90.87 151.51 77.19 147.36 76.72 147.5 90.39 151.65 90.87 151.51"/><polygon class="b" points="90.57 149.25 84.47 147.4 84.01 147.52 90.11 149.38 90.57 149.25"/><polygon class="b" points="91.99 148.85 85.89 147 85.43 147.13 91.53 148.98 91.99 148.85"/><path class="ab" d="M74.57,140.83l17.4-.3a18.72,18.72,0,0,1,4.81,1.11l15.82,5.63c1.77.63,2.49,1.15,1.61,1.17l-17.4.3A18.72,18.72,0,0,1,92,147.63L76.18,142C74.41,141.37,73.69,140.85,74.57,140.83Z"/><polygon class="b" points="93.02 146.58 106.06 146.35 106.74 146.59 93.7 146.82 93.02 146.58"/><polygon class="b" points="90.93 145.84 103.97 145.61 104.65 145.85 91.61 146.08 90.93 145.84"/><polygon class="b" points="88.83 145.09 101.87 144.86 102.54 145.1 89.5 145.33 88.83 145.09"/><polygon class="b" points="87.37 143.14 93.19 143.04 93.84 143.27 88.02 143.37 87.37 143.14"/><polygon class="b" points="85.35 142.42 91.17 142.32 91.82 142.55 86 142.65 85.35 142.42"/><path class="ab" d="M57.87,153.31l18.44-4.49a15.79,15.79,0,0,1,4.22-.15l12.37,1.27c1.38.14,1.75.44.81.67L75.27,155.1a15.35,15.35,0,0,1-4.22.16L58.68,154C57.3,153.84,56.93,153.54,57.87,153.31Z"/><polygon class="b" points="72.91 154.06 86.73 150.69 87.26 150.75 73.44 154.11 72.91 154.06"/><polygon class="b" points="71.27 153.89 85.1 150.53 85.63 150.58 71.8 153.95 71.27 153.89"/><polygon class="b" points="69.63 153.72 83.45 150.36 83.98 150.41 70.16 153.78 69.63 153.72"/><polygon class="b" points="69.55 152.31 75.72 150.81 76.23 150.86 70.06 152.36 69.55 152.31"/><polygon class="b" points="67.98 152.15 74.14 150.64 74.65 150.69 68.48 152.2 67.98 152.15"/><path class="ab" d="M48.58,151.24l16.72-5.69a13.28,13.28,0,0,1,4.78,0l16,2.4c1.78.27,2.54.73,1.69,1L71,154.63a13.27,13.27,0,0,1-4.78,0l-16-2.4C48.49,152,47.73,151.53,48.58,151.24Z"/><polygon class="b" points="67.09 153.01 79.62 148.74 80.3 148.84 67.77 153.11 67.09 153.01"/><polygon class="b" points="64.98 152.69 77.51 148.42 78.19 148.53 65.66 152.79 64.98 152.69"/><polygon class="b" points="62.85 152.37 75.38 148.1 76.07 148.21 63.54 152.47 62.85 152.37"/><polygon class="b" points="61.2 150.31 66.8 148.4 67.45 148.5 61.86 150.41 61.2 150.31"/><polygon class="b" points="59.17 150 64.76 148.1 65.42 148.19 59.82 150.1 59.17 150"/><path class="ah" d="M39.58,155.19l15.3-4.63a20.6,20.6,0,0,1,5.17-.16l18.5,1.3c2.07.15,3.13.46,2.35.69L65.6,157a20.52,20.52,0,0,1-5.16.16l-18.51-1.3C39.86,155.73,38.81,155.42,39.58,155.19Z"/><polygon class="b" points="60.54 155.95 72 152.48 72.79 152.53 61.33 156 60.54 155.95"/><polygon class="b" points="58.09 155.78 69.55 152.31 70.35 152.36 58.88 155.83 58.09 155.78"/><polygon class="b" points="55.63 155.6 67.09 152.13 67.88 152.19 56.42 155.66 55.63 155.6"/><polygon class="b" points="52.81 154.15 57.93 152.6 58.69 152.65 53.57 154.2 52.81 154.15"/><polygon class="b" points="50.45 153.98 55.57 152.43 56.33 152.49 51.21 154.03 50.45 153.98"/><path class="al" d="M84,151.16l-31.35,2.4a19.4,19.4,0,0,1-5.44-.48l-12.54-3.46c-1.4-.38-1.24-.8.35-.92l31.35-2.39a18.69,18.69,0,0,1,5.44.48l12.54,3.45C85.77,150.63,85.61,151,84,151.16Z"/><polygon class="b" points="67.2 147.91 43.7 149.71 43.16 149.56 66.66 147.76 67.2 147.91"/><polygon class="b" points="68.86 148.37 45.35 150.16 44.82 150.01 68.32 148.22 68.86 148.37"/><polygon class="b" points="70.52 148.83 47.02 150.62 46.48 150.47 69.99 148.68 70.52 148.83"/><polygon class="b" points="67.8 150.51 57.31 151.31 56.8 151.17 67.29 150.37 67.8 150.51"/><polygon class="b" points="69.4 150.95 58.91 151.75 58.4 151.61 68.89 150.81 69.4 150.95"/><path class="am" d="M66.8,153.19l27.65,3.56a13.93,13.93,0,0,0,4.88-.38l11.47-3.51c1.28-.39,1.19-.85-.22-1l-27.65-3.56a13.88,13.88,0,0,0-4.87.38l-11.48,3.51C65.3,152.54,65.4,153,66.8,153.19Z"/><polygon class="b" points="82.07 150.03 102.79 152.7 103.28 152.55 82.56 149.88 82.07 150.03"/><polygon class="b" points="80.55 150.49 101.27 153.16 101.76 153.01 81.04 150.34 80.55 150.49"/><polygon class="b" points="79.02 150.96 99.75 153.63 100.24 153.48 79.51 150.81 79.02 150.96"/><polygon class="b" points="81.28 152.92 90.53 154.11 91 153.96 81.75 152.77 81.28 152.92"/><polygon class="b" points="79.82 153.36 89.07 154.55 89.54 154.41 80.29 153.22 79.82 153.36"/><path class="am" d="M45.87,156.27l27.92,1.67a13.78,13.78,0,0,0,4.82-.72L89.69,153c1.23-.47,1.09-.93-.33-1l-27.92-1.67a13.78,13.78,0,0,0-4.82.72l-11.08,4.27C44.31,155.73,44.45,156.18,45.87,156.27Z"/><polygon class="b" points="60.76 152.09 81.69 153.34 82.16 153.15 61.23 151.9 60.76 152.09"/><polygon class="b" points="59.3 152.65 80.22 153.9 80.69 153.72 59.77 152.47 59.3 152.65"/><polygon class="b" points="57.82 153.22 78.75 154.47 79.22 154.29 58.3 153.03 57.82 153.22"/><polygon class="b" points="60.27 155.01 69.61 155.57 70.07 155.4 60.73 154.84 60.27 155.01"/><polygon class="b" points="58.86 155.56 68.2 156.12 68.65 155.94 59.32 155.38 58.86 155.56"/><path class="am" d="M35.25,153.9l27.91,1.75A13.79,13.79,0,0,0,68,155l11.09-4.24c1.24-.48,1.1-.94-.32-1l-27.91-1.76a14,14,0,0,0-4.82.7l-11.1,4.24C33.69,153.36,33.83,153.81,35.25,153.9Z"/><polygon class="b" points="50.16 149.76 71.08 151.07 71.55 150.89 50.63 149.58 50.16 149.76"/><polygon class="b" points="48.69 150.32 69.61 151.64 70.09 151.46 49.17 150.14 48.69 150.32"/><polygon class="b" points="47.22 150.89 68.14 152.2 68.61 152.02 47.69 150.71 47.22 150.89"/><polygon class="b" points="49.66 152.69 59 153.28 59.45 153.1 50.12 152.52 49.66 152.69"/><polygon class="b" points="48.24 153.23 57.58 153.82 58.04 153.64 48.7 153.06 48.24 153.23"/><path class="an" d="M133.87,153.49,106,156.28a13.83,13.83,0,0,1-4.87-.52L89.8,151.94c-1.27-.42-1.15-.89.26-1l27.86-2.79a13.85,13.85,0,0,1,4.87.52l11.35,3.82C135.41,152.89,135.29,153.35,133.87,153.49Z"/><polygon class="b" points="118.71 149.91 97.83 152 97.35 151.84 118.22 149.75 118.71 149.91"/><polygon class="b" points="120.21 150.42 99.33 152.51 98.85 152.35 119.72 150.25 120.21 150.42"/><polygon class="b" points="121.72 150.93 100.84 153.02 100.36 152.85 121.23 150.76 121.72 150.93"/><polygon class="b" points="119.37 152.82 110.06 153.75 109.59 153.6 118.91 152.66 119.37 152.82"/><polygon class="b" points="120.82 153.31 111.5 154.24 111.04 154.08 120.36 153.15 120.82 153.31"/><path class="ao" d="M69.86,155l-23.09-1.63a7,7,0,0,1-3.8-1.88L34.73,143c-.92-.95-.72-1.66.45-1.58l23.09,1.64a6.89,6.89,0,0,1,3.8,1.88l8.24,8.52C71.23,154.41,71,155.12,69.86,155Z"/><polygon class="b" points="58.49 146.07 41.18 144.84 40.83 144.48 58.13 145.71 58.49 146.07"/><polygon class="b" points="59.58 147.2 42.27 145.97 41.92 145.61 59.22 146.83 59.58 147.2"/><polygon class="b" points="60.67 148.33 43.37 147.11 43.02 146.74 60.32 147.97 60.67 148.33"/><polygon class="b" points="58.34 150.82 50.62 150.27 50.28 149.93 58 150.47 58.34 150.82"/><polygon class="b" points="59.39 151.91 51.67 151.36 51.33 151.01 59.05 151.56 59.39 151.91"/><path class="ap" d="M140.58,150.76l-23.5,3.4a13.75,13.75,0,0,1-4.91-.52l-13.51-4.08c-1.51-.45-1.77-1-.58-1.14L121.59,145a14,14,0,0,1,4.91.51L140,149.62C141.52,150.08,141.78,150.59,140.58,150.76Z"/><polygon class="b" points="123.74 146.99 106.12 149.54 105.55 149.36 123.16 146.82 123.74 146.99"/><polygon class="b" points="125.53 147.53 107.91 150.08 107.33 149.9 124.95 147.36 125.53 147.53"/><polygon class="b" points="127.33 148.07 109.71 150.62 109.13 150.44 126.75 147.9 127.33 148.07"/><polygon class="b" points="126.66 150.19 118.8 151.32 118.25 151.16 126.11 150.02 126.66 150.19"/><polygon class="b" points="128.38 150.71 120.52 151.84 119.97 151.68 127.83 150.54 128.38 150.71"/><path class="al" d="M82.93,148H54.76a35.35,35.35,0,0,1-5.8-.65l-15.8-3.21c-1.77-.36-2-.65-.61-.65H60.72a35.35,35.35,0,0,1,5.8.65l15.8,3.21C84.08,147.69,84.36,148,82.93,148Z"/><polygon class="b" points="63.15 144.68 42.04 144.68 41.36 144.54 62.48 144.54 63.15 144.68"/><polygon class="b" points="65.24 145.1 44.13 145.1 43.45 144.97 64.56 144.97 65.24 145.1"/><polygon class="b" points="67.34 145.53 46.23 145.53 45.55 145.39 66.67 145.39 67.34 145.53"/><polygon class="b" points="66.41 146.6 56.99 146.6 56.34 146.47 65.77 146.47 66.41 146.6"/><polygon class="b" points="68.43 147.01 59.01 147.01 58.36 146.88 67.78 146.88 68.43 147.01"/><path class="aq" d="M33.67,155.36l19.36,2a24.29,24.29,0,0,0,5.49-.56l18.29-3.72c2-.42,2.91-.85,1.93-1l-19.36-2a24.29,24.29,0,0,0-5.49.56L35.6,154.42C33.56,154.83,32.69,155.26,33.67,155.36Z"/><polygon class="b" points="54.91 151.79 69.41 153.32 70.19 153.16 55.69 151.63 54.91 151.79"/><polygon class="b" points="52.49 152.28 66.99 153.81 67.78 153.65 53.27 152.12 52.49 152.28"/><polygon class="b" points="50.05 152.77 64.56 154.31 65.34 154.15 50.84 152.62 50.05 152.77"/><polygon class="b" points="48.21 154.47 54.68 155.15 55.43 155 48.96 154.32 48.21 154.47"/><polygon class="b" points="45.88 154.94 52.35 155.63 53.1 155.48 46.63 154.79 45.88 154.94"/><path class="al" d="M75.16,147.92l23.59,2.59a25.37,25.37,0,0,0,5.28-.24L119.36,148c1.71-.26,2.13-.57.93-.71l-23.58-2.59a25.43,25.43,0,0,0-5.29.24L76.1,147.21C74.39,147.47,74,147.79,75.16,147.92Z"/><polygon class="b" points="93.88 145.85 111.56 147.79 112.21 147.7 94.54 145.75 93.88 145.85"/><polygon class="b" points="91.85 146.16 109.53 148.1 110.19 148 92.51 146.06 91.85 146.16"/><polygon class="b" points="89.81 146.47 107.49 148.41 108.15 148.31 90.47 146.37 89.81 146.47"/><polygon class="b" points="89.89 147.82 97.78 148.68 98.41 148.59 90.52 147.72 89.89 147.82"/><polygon class="b" points="87.94 148.11 95.83 148.98 96.45 148.88 88.57 148.02 87.94 148.11"/><path class="al" d="M63.79,150.72l21.57,3.88a21.64,21.64,0,0,0,6-.4L111,150.48c2.2-.41,3.1-.91,2-1.11l-21.56-3.88a21.92,21.92,0,0,0-6,.39l-19.68,3.73C63.6,150,62.7,150.52,63.79,150.72Z"/><polygon class="b" points="86.73 147.38 102.89 150.29 103.73 150.13 87.57 147.22 86.73 147.38"/><polygon class="b" points="84.12 147.87 100.29 150.78 101.13 150.62 84.97 147.71 84.12 147.87"/><polygon class="b" points="81.51 148.37 97.67 151.28 98.51 151.12 82.35 148.21 81.51 148.37"/><polygon class="b" points="79.68 150.47 86.9 151.76 87.7 151.61 80.49 150.31 79.68 150.47"/><polygon class="b" points="77.17 150.94 84.39 152.24 85.2 152.09 77.98 150.79 77.17 150.94"/><path class="ar" d="M36.63,149.34l17.55,3A27.44,27.44,0,0,0,60,152l20.51-2.91c2.29-.32,3.44-.71,2.55-.86l-17.55-3a26.93,26.93,0,0,0-5.78.32l-20.51,2.9C36.89,148.79,35.74,149.18,36.63,149.34Z"/><polygon class="b" points="59.93 146.72 73.08 148.98 73.96 148.85 60.81 146.6 59.93 146.72"/><polygon class="b" points="57.22 147.11 70.37 149.36 71.25 149.24 58.09 146.99 57.22 147.11"/><polygon class="b" points="54.49 147.5 67.64 149.75 68.52 149.62 55.36 147.37 54.49 147.5"/><polygon class="b" points="51.49 149.13 57.36 150.13 58.21 150.01 52.34 149.01 51.49 149.13"/><polygon class="b" points="48.88 149.5 54.75 150.5 55.59 150.38 49.72 149.38 48.88 149.5"/><path class="as" d="M104.75,146.39l26.79-2.09a15.42,15.42,0,0,1,4.64.45l10.69,3.17c1.19.35,1.06.73-.3.84l-26.78,2.09a15.36,15.36,0,0,1-4.64-.45l-10.7-3.17C103.26,146.88,103.39,146.5,104.75,146.39Z"/><polygon class="b" points="119.11 149.39 139.18 147.82 139.64 147.96 119.56 149.53 119.11 149.39"/><polygon class="b" points="117.69 148.97 137.77 147.4 138.22 147.54 118.15 149.11 117.69 148.97"/><polygon class="b" points="116.27 148.55 136.34 146.98 136.8 147.12 116.73 148.69 116.27 148.55"/><polygon class="b" points="118.6 147.03 127.56 146.33 128 146.46 119.04 147.16 118.6 147.03"/><polygon class="b" points="117.23 146.63 126.19 145.92 126.63 146.05 117.67 146.75 117.23 146.63"/><path class="at" d="M119.47,144.6l-23.6-3.31a11.41,11.41,0,0,0-4.17.34l-9.81,3.15c-1.1.35-1,.78.18.94l23.6,3.31a11.2,11.2,0,0,0,4.17-.33l9.81-3.15C120.75,145.19,120.66,144.77,119.47,144.6Z"/><polygon class="b" points="106.42 147.43 88.73 144.95 88.31 145.08 106 147.56 106.42 147.43"/><polygon class="b" points="107.71 147.01 90.03 144.53 89.61 144.67 107.29 147.15 107.71 147.01"/><polygon class="b" points="109.02 146.59 91.33 144.11 90.92 144.25 108.6 146.73 109.02 146.59"/><polygon class="b" points="107.1 144.81 99.21 143.7 98.8 143.83 106.7 144.94 107.1 144.81"/><polygon class="b" points="108.35 144.41 100.46 143.3 100.06 143.43 107.95 144.54 108.35 144.41"/><path class="at" d="M137.35,141.85l-23.83-1.58a11.09,11.09,0,0,0-4.12.63l-9.48,3.85c-1.06.43-.93.85.27.93L124,147.27a11.09,11.09,0,0,0,4.12-.64l9.47-3.85C138.68,142.35,138.56,141.93,137.35,141.85Z"/><polygon class="b" points="124.62 145.62 106.75 144.43 106.35 144.59 124.21 145.78 124.62 145.62"/><polygon class="b" points="125.87 145.11 108.01 143.92 107.6 144.08 125.47 145.27 125.87 145.11"/><polygon class="b" points="127.13 144.59 109.27 143.4 108.86 143.57 126.73 144.76 127.13 144.59"/><polygon class="b" points="125.05 142.96 117.08 142.43 116.69 142.58 124.66 143.11 125.05 142.96"/><polygon class="b" points="126.25 142.47 118.28 141.93 117.89 142.09 125.87 142.62 126.25 142.47"/><path class="au" d="M67.78,150.28l-21.26-1.66a8.79,8.79,0,0,0-3.68.62l-8.47,3.82c-.94.43-.84.85.24.93l21.26,1.66a8.76,8.76,0,0,0,3.68-.62L68,151.21C69,150.78,68.86,150.37,67.78,150.28Z"/><polygon class="b" points="56.41 154 40.47 152.76 40.11 152.92 56.04 154.17 56.41 154"/><polygon class="b" points="57.53 153.5 41.59 152.25 41.23 152.42 57.16 153.66 57.53 153.5"/><polygon class="b" points="58.65 152.99 42.72 151.74 42.36 151.91 58.29 153.15 58.65 152.99"/><polygon class="b" points="56.8 151.34 49.69 150.79 49.34 150.95 56.45 151.5 56.8 151.34"/><polygon class="b" points="57.88 150.86 50.77 150.3 50.42 150.46 57.53 151.01 57.88 150.86"/><path class="av" d="M62.19,144.15,86,141.69a11.1,11.1,0,0,1,4.16.48l9.67,3.5c1.08.39,1,.81-.23.94L75.8,149.07a11.3,11.3,0,0,1-4.16-.48L62,145.09C60.88,144.7,61,144.27,62.19,144.15Z"/><polygon class="b" points="75.13 147.44 92.96 145.59 93.38 145.74 75.54 147.59 75.13 147.44"/><polygon class="b" points="73.85 146.98 91.68 145.13 92.1 145.28 74.26 147.13 73.85 146.98"/><polygon class="b" points="72.56 146.51 90.39 144.66 90.81 144.81 72.97 146.66 72.56 146.51"/><polygon class="b" points="74.57 144.8 82.53 143.97 82.93 144.12 74.97 144.94 74.57 144.8"/><polygon class="b" points="73.34 144.35 81.3 143.53 81.69 143.67 73.73 144.5 73.34 144.35"/><path class="aw" d="M116.86,142.91l19.71,1.54a5.74,5.74,0,0,1,3.24,1.72l7,7.76c.78.87.6,1.51-.4,1.44l-19.7-1.55a5.74,5.74,0,0,1-3.24-1.72l-7-7.76C115.69,143.47,115.87,142.83,116.86,142.91Z"/><polygon class="b" points="126.53 151.09 141.31 152.24 141.6 152.58 126.83 151.42 126.53 151.09"/><polygon class="b" points="125.61 150.06 140.38 151.22 140.68 151.55 125.91 150.39 125.61 150.06"/><polygon class="b" points="124.68 149.03 139.45 150.18 139.75 150.52 124.98 149.36 124.68 149.03"/><polygon class="b" points="126.68 146.77 133.27 147.29 133.56 147.61 126.97 147.09 126.68 146.77"/><polygon class="b" points="125.79 145.78 132.38 146.3 132.67 146.62 126.08 146.1 125.79 145.78"/><path class="ax" d="M56.45,146.61l20.09-3a10.93,10.93,0,0,1,4.19.48l11.52,3.74c1.28.42,1.5.88.48,1l-20.08,3a11.11,11.11,0,0,1-4.19-.48l-11.52-3.74C55.65,147.23,55.43,146.76,56.45,146.61Z"/><polygon class="b" points="70.82 150.08 85.87 147.81 86.36 147.97 71.31 150.24 70.82 150.08"/><polygon class="b" points="69.29 149.58 84.35 147.32 84.84 147.48 69.79 149.74 69.29 149.58"/><polygon class="b" points="67.76 149.09 82.81 146.82 83.31 146.98 68.25 149.25 67.76 149.09"/><polygon class="b" points="68.34 147.17 75.06 146.16 75.53 146.31 68.81 147.32 68.34 147.17"/><polygon class="b" points="66.87 146.69 73.59 145.68 74.06 145.83 67.34 146.84 66.87 146.69"/><path class="as" d="M86.37,141.46l-18.52-1.91a24.48,24.48,0,0,0-5.26.49l-17.51,3.33c-2,.37-2.79.76-1.85.85l18.51,1.92a24.51,24.51,0,0,0,5.26-.5l17.52-3.33C86.47,141.94,87.31,141.56,86.37,141.46Z"/><polygon class="b" points="66.03 144.64 52.16 143.21 51.41 143.35 65.28 144.78 66.03 144.64"/><polygon class="b" points="68.35 144.2 54.47 142.77 53.72 142.91 67.6 144.34 68.35 144.2"/><polygon class="b" points="70.68 143.76 56.8 142.32 56.05 142.47 69.93 143.9 70.68 143.76"/><polygon class="b" points="72.45 142.22 66.26 141.58 65.54 141.72 71.74 142.36 72.45 142.22"/><polygon class="b" points="74.69 141.8 68.5 141.16 67.78 141.3 73.97 141.94 74.69 141.8"/><path class="as" d="M112.3,149.36,92.17,147a20.52,20.52,0,0,0-4.51.2l-13.1,2.07c-1.46.23-1.82.52-.8.64l20.13,2.41a19.86,19.86,0,0,0,4.51-.19L111.5,150C113,149.78,113.32,149.49,112.3,149.36Z"/><polygon class="b" points="96.31 151.19 81.22 149.38 80.66 149.47 95.75 151.28 96.31 151.19"/><polygon class="b" points="98.04 150.92 82.96 149.11 82.4 149.2 97.48 151 98.04 150.92"/><polygon class="b" points="99.78 150.64 84.7 148.83 84.14 148.92 99.22 150.73 99.78 150.64"/><polygon class="b" points="99.73 149.42 92.99 148.61 92.46 148.69 99.19 149.5 99.73 149.42"/><polygon class="b" points="101.39 149.15 94.66 148.35 94.13 148.43 100.86 149.24 101.39 149.15"/><path class="as" d="M122,146.85l-18.4-3.58a17.69,17.69,0,0,0-5.11.34L81.7,146.94c-1.87.37-2.65.83-1.71,1l18.4,3.58a17.44,17.44,0,0,0,5.11-.35l16.81-3.32C122.19,147.48,123,147,122,146.85Z"/><polygon class="b" points="102.43 149.82 88.64 147.14 87.92 147.28 101.71 149.97 102.43 149.82"/><polygon class="b" points="104.65 149.38 90.86 146.7 90.14 146.84 103.93 149.53 104.65 149.38"/><polygon class="b" points="106.89 148.94 93.1 146.26 92.38 146.4 106.17 149.08 106.89 148.94"/><polygon class="b" points="108.45 147.04 102.3 145.84 101.61 145.98 107.76 147.18 108.45 147.04"/><polygon class="b" points="110.6 146.61 104.44 145.42 103.75 145.55 109.91 146.75 110.6 146.61"/><path class="ay" d="M132,149.54l-16.78-2.78a27.18,27.18,0,0,0-5.53.27L90.06,149.6c-2.2.29-3.3.64-2.45.78l16.78,2.78a27.82,27.82,0,0,0,5.54-.26l19.64-2.58C131.76,150,132.86,149.68,132,149.54Z"/><polygon class="b" points="109.7 151.84 97.13 149.76 96.29 149.87 108.86 151.95 109.7 151.84"/><polygon class="b" points="112.3 151.5 99.73 149.42 98.89 149.53 111.46 151.61 112.3 151.5"/><polygon class="b" points="114.92 151.16 102.34 149.07 101.5 149.19 114.07 151.27 114.92 151.16"/><polygon class="b" points="117.78 149.68 112.17 148.75 111.37 148.86 116.98 149.79 117.78 149.68"/><polygon class="b" points="120.29 149.35 114.68 148.42 113.87 148.53 119.48 149.46 120.29 149.35"/><path class="as" d="M68,144.92l25.72-6.47a15.64,15.64,0,0,1,4.65-.32l11.26,1.34c1.26.15,1.22.54-.08.87L83.87,146.8a15.39,15.39,0,0,1-4.66.33L68,145.78C66.69,145.63,66.73,145.24,68,144.92Z"/><polygon class="b" points="82.84 145.49 102.11 140.65 102.59 140.7 83.32 145.55 82.84 145.49"/><polygon class="b" points="81.35 145.31 100.62 140.47 101.1 140.52 81.83 145.37 81.35 145.31"/><polygon class="b" points="79.85 145.13 99.12 140.29 99.6 140.35 80.33 145.19 79.85 145.13"/><polygon class="b" points="81.75 143.26 90.35 141.1 90.82 141.15 82.22 143.31 81.75 143.26"/><polygon class="b" points="80.32 143.09 88.92 140.92 89.38 140.98 80.78 143.14 80.32 143.09"/><path class="at" d="M82,140.74l-23.93.64a10.83,10.83,0,0,0-4,1l-8.83,4.7c-1,.52-.79.93.42.89l23.93-.64a10.64,10.64,0,0,0,4-1l8.83-4.7C83.4,141.11,83.22,140.7,82,140.74Z"/><polygon class="b" points="69.92 145.66 51.99 146.14 51.61 146.34 69.54 145.86 69.92 145.66"/><polygon class="b" points="71.09 145.03 53.16 145.52 52.78 145.72 70.71 145.23 71.09 145.03"/><polygon class="b" points="72.27 144.41 54.33 144.89 53.95 145.09 71.89 144.61 72.27 144.41"/><polygon class="b" points="69.94 142.98 61.94 143.19 61.58 143.39 69.58 143.17 69.94 142.98"/><polygon class="b" points="71.07 142.38 63.06 142.59 62.7 142.79 70.7 142.57 71.07 142.38"/><path class="at" d="M98.84,135.1,75.1,137.47a10.6,10.6,0,0,0-3.88,1.3L62.9,144.1c-.93.6-.71,1,.5.87l23.73-2.37A10.6,10.6,0,0,0,91,141.3L99.33,136C100.26,135.37,100,135,98.84,135.1Z"/><polygon class="b" points="87.3 140.88 69.51 142.66 69.15 142.89 86.94 141.11 87.3 140.88"/><polygon class="b" points="88.4 140.18 70.61 141.95 70.25 142.18 88.04 140.41 88.4 140.18"/><polygon class="b" points="89.51 139.47 71.72 141.24 71.36 141.47 89.15 139.7 89.51 139.47"/><polygon class="b" points="87.06 138.21 79.12 139 78.78 139.22 86.72 138.43 87.06 138.21"/><polygon class="b" points="88.12 137.53 80.18 138.32 79.84 138.54 87.78 137.75 88.12 137.53"/><path class="at" d="M74.43,134.72,51.71,140.8a9.64,9.64,0,0,0-3.49,1.89l-6.9,6.55c-.77.73-.45,1.08.7.77l22.72-6.08A9.64,9.64,0,0,0,68.23,142l6.9-6.55C75.89,134.76,75.58,134.41,74.43,134.72Z"/><polygon class="b" points="64.49 142.22 47.47 146.78 47.17 147.06 64.2 142.5 64.49 142.22"/><polygon class="b" points="65.41 141.35 48.38 145.91 48.08 146.19 65.11 141.63 65.41 141.35"/><polygon class="b" points="66.32 140.48 49.3 145.04 49 145.32 66.03 140.76 66.32 140.48"/><polygon class="b" points="63.62 139.63 56.02 141.67 55.74 141.94 63.34 139.9 63.62 139.63"/><polygon class="b" points="64.5 138.8 56.9 140.83 56.62 141.1 64.21 139.07 64.5 138.8"/><path class="az" d="M32,149.73l20.25-6.34a9.11,9.11,0,0,1,3.74-.21L65.21,145c1,.2,1,.63,0,.95L45,152.3a9.11,9.11,0,0,1-3.74.22L32,150.68C31,150.48,31,150.05,32,149.73Z"/><polygon class="b" points="44.02 150.82 59.2 146.07 59.6 146.15 44.42 150.9 44.02 150.82"/><polygon class="b" points="42.8 150.58 57.98 145.83 58.38 145.91 43.2 150.66 42.8 150.58"/><polygon class="b" points="41.57 150.33 56.75 145.59 57.15 145.67 41.97 150.41 41.57 150.33"/><polygon class="b" points="42.95 148.32 49.73 146.21 50.1 146.28 43.33 148.4 42.95 148.32"/><polygon class="b" points="41.77 148.09 48.55 145.97 48.93 146.05 42.15 148.16 41.77 148.09"/><path class="aw" d="M79,139.51l19.69-1.74a6.32,6.32,0,0,1,3.59,1.15l8.79,6.45c1,.72,1,1.38,0,1.47l-19.69,1.73a6.28,6.28,0,0,1-3.6-1.15L79,141C78,140.25,78,139.59,79,139.51Z"/><polygon class="b" points="90.53 145.92 105.29 144.62 105.66 144.9 90.91 146.2 90.53 145.92"/><polygon class="b" points="89.37 145.07 104.12 143.77 104.5 144.05 89.75 145.35 89.37 145.07"/><polygon class="b" points="88.2 144.21 102.96 142.91 103.33 143.19 88.58 144.49 88.2 144.21"/><polygon class="b" points="89.61 141.67 96.19 141.09 96.55 141.36 89.97 141.94 89.61 141.67"/><polygon class="b" points="88.49 140.85 95.07 140.27 95.43 140.54 88.85 141.12 88.49 140.85"/><path class="ba" d="M35.87,154.77l15.19-9.19a8.79,8.79,0,0,1,3.65-.9l11.06-.24c1.24,0,1.62.34.85.8l-15.19,9.2a8.83,8.83,0,0,1-3.65.89l-11.06.24C35.48,155.6,35.1,155.24,35.87,154.77Z"/><polygon class="b" points="49.15 153.38 60.54 146.48 61.01 146.47 49.63 153.37 49.15 153.38"/><polygon class="b" points="47.69 153.41 59.08 146.51 59.55 146.5 48.16 153.4 47.69 153.41"/><polygon class="b" points="46.22 153.44 57.6 146.55 58.08 146.54 46.69 153.43 46.22 153.44"/><polygon class="b" points="45.87 151.49 50.95 148.41 51.4 148.41 46.32 151.48 45.87 151.49"/><polygon class="b" points="44.46 151.52 49.54 148.44 49.99 148.44 44.91 151.51 44.46 151.52"/><path class="bb" d="M58.22,140.48l-16,4.15a19,19,0,0,0-4.11,2.14l-12.94,8.66c-1.45,1-2,1.58-1.16,1.37l16-4.15a18.35,18.35,0,0,0,4.11-2.14l13-8.66C58.51,140.89,59,140.27,58.22,140.48Z"/><polygon class="b" points="42.89 149.9 30.89 153.01 30.33 153.39 42.34 150.27 42.89 149.9"/><polygon class="b" points="44.6 148.76 32.6 151.87 32.05 152.24 44.05 149.13 44.6 148.76"/><polygon class="b" points="46.33 147.61 34.32 150.72 33.77 151.09 45.77 147.98 46.33 147.61"/><polygon class="b" points="47.13 145.63 41.77 147.02 41.24 147.37 46.59 145.98 47.13 145.63"/><polygon class="b" points="48.78 144.52 43.42 145.91 42.89 146.27 48.25 144.88 48.78 144.52"/><path class="as" d="M76.17,146.58l-20.31.95a19.8,19.8,0,0,0-4.38.94l-12.31,4.18c-1.37.47-1.65.81-.62.76l20.31-.95a19.61,19.61,0,0,0,4.37-.94l12.31-4.18C76.92,146.88,77.2,146.53,76.17,146.58Z"/><polygon class="b" points="60.96 151 45.73 151.72 45.21 151.9 60.43 151.18 60.96 151"/><polygon class="b" points="62.59 150.45 47.36 151.16 46.84 151.34 62.06 150.63 62.59 150.45"/><polygon class="b" points="64.23 149.89 49 150.61 48.48 150.79 63.7 150.07 64.23 149.89"/><polygon class="b" points="63.86 148.7 57.07 149.02 56.56 149.19 63.36 148.88 63.86 148.7"/><polygon class="b" points="65.43 148.17 58.64 148.49 58.13 148.66 64.93 148.34 65.43 148.17"/><path class="as" d="M85.07,142.52,66.16,142a17,17,0,0,0-4.92,1.18l-15.64,6c-1.75.67-2.39,1.24-1.43,1.27l18.91.47A16.63,16.63,0,0,0,68,149.81l15.63-6C85.38,143.11,86,142.54,85.07,142.52Z"/><polygon class="b" points="66.61 148.66 52.44 148.3 51.77 148.56 65.94 148.92 66.61 148.66"/><polygon class="b" points="68.68 147.86 54.51 147.5 53.84 147.76 68.01 148.12 68.68 147.86"/><polygon class="b" points="70.76 147.06 56.59 146.7 55.92 146.96 70.09 147.32 70.76 147.06"/><polygon class="b" points="71.82 144.94 65.5 144.78 64.86 145.03 71.18 145.19 71.82 144.94"/><polygon class="b" points="73.81 144.17 67.49 144.01 66.85 144.26 73.17 144.42 73.81 144.17"/><path class="ay" d="M95.51,143.51l-17.12,0A26.51,26.51,0,0,0,73,144.72l-18.59,5.76c-2.08.64-3.07,1.17-2.2,1.16l17.13,0a26.59,26.59,0,0,0,5.35-1.17l18.6-5.76C95.39,144,96.38,143.5,95.51,143.51Z"/><polygon class="b" points="74.24 149.44 61.4 149.47 60.61 149.71 73.44 149.68 74.24 149.44"/><polygon class="b" points="76.7 148.67 63.86 148.7 63.07 148.95 75.9 148.92 76.7 148.67"/><polygon class="b" points="79.17 147.91 66.34 147.94 65.54 148.19 78.38 148.16 79.17 147.91"/><polygon class="b" points="81.61 145.99 75.89 146 75.13 146.24 80.85 146.23 81.61 145.99"/><polygon class="b" points="83.99 145.26 78.26 145.27 77.5 145.51 83.22 145.49 83.99 145.26"/><path class="bc" d="M120.72,151.37l23.33-.12a11.5,11.5,0,0,1,4,.78l8.92,3.95c1,.44.85.8-.33.81l-23.33.12a11.79,11.79,0,0,1-4-.79l-8.92-3.94C119.39,151.74,119.54,151.37,120.72,151.37Z"/><polygon class="b" points="132.83 155.41 150.32 155.31 150.7 155.48 133.21 155.57 132.83 155.41"/><polygon class="b" points="131.65 154.88 149.13 154.79 149.52 154.96 132.03 155.05 131.65 154.88"/><polygon class="b" points="130.46 154.36 147.95 154.27 148.33 154.44 130.84 154.53 130.46 154.36"/><polygon class="b" points="132.62 153.01 140.42 152.97 140.79 153.14 132.99 153.18 132.62 153.01"/><polygon class="b" points="131.48 152.51 139.28 152.47 139.65 152.63 131.85 152.67 131.48 152.51"/><path class="at" d="M132.22,144l-23.13-5a11.35,11.35,0,0,0-4.19,0l-10.12,2.42c-1.13.27-1.1.7.08.95l23.13,5a11.35,11.35,0,0,0,4.19,0l10.12-2.42C133.43,144.63,133.4,144.2,132.22,144Z"/><polygon class="b" points="118.91 145.81 101.58 142.04 101.14 142.14 118.48 145.91 118.91 145.81"/><polygon class="b" points="120.25 145.49 102.91 141.72 102.48 141.82 119.82 145.59 120.25 145.49"/><polygon class="b" points="121.6 145.16 104.26 141.4 103.83 141.5 121.17 145.27 121.6 145.16"/><polygon class="b" points="119.88 143.25 112.15 141.57 111.73 141.67 119.47 143.35 119.88 143.25"/><polygon class="b" points="121.17 142.94 113.44 141.26 113.02 141.36 120.76 143.04 121.17 142.94"/><path class="bd" d="M144.68,144.16l-20.43-3.33a8.5,8.5,0,0,0-3.62.33l-8.55,3.14c-1,.35-.89.78.15.95l20.43,3.33a8.44,8.44,0,0,0,3.61-.33l8.56-3.14C145.78,144.76,145.72,144.33,144.68,144.16Z"/><polygon class="b" points="133.32 146.97 118.02 144.48 117.65 144.61 132.96 147.11 133.32 146.97"/><polygon class="b" points="134.46 146.56 119.15 144.06 118.78 144.2 134.09 146.69 134.46 146.56"/><polygon class="b" points="135.59 146.14 120.28 143.65 119.92 143.78 135.23 146.28 135.59 146.14"/><polygon class="b" points="133.95 144.36 127.12 143.24 126.77 143.37 133.6 144.49 133.95 144.36"/><polygon class="b" points="135.04 143.96 128.21 142.84 127.86 142.97 134.69 144.09 135.04 143.96"/><path class="at" d="M126.58,138.37l-23.9.46a10.72,10.72,0,0,0-4,1l-8.93,4.64c-1,.51-.82.92.4.9l23.9-.46a10.91,10.91,0,0,0,4-1l8.92-4.64C128,138.75,127.79,138.35,126.58,138.37Z"/><polygon class="b" points="114.41 143.2 96.49 143.55 96.11 143.75 114.03 143.4 114.41 143.2"/><polygon class="b" points="115.59 142.59 97.67 142.93 97.29 143.13 115.2 142.79 115.59 142.59"/><polygon class="b" points="116.78 141.97 98.86 142.32 98.47 142.51 116.39 142.17 116.78 141.97"/><polygon class="b" points="114.49 140.52 106.49 140.67 106.13 140.87 114.12 140.71 114.49 140.52"/><polygon class="b" points="115.63 139.93 107.63 140.08 107.26 140.27 115.26 140.12 115.63 139.93"/><path class="av" d="M75.23,139.29l24-.7a11.05,11.05,0,0,1,4.08.78l9.25,4.2c1,.47.89.88-.33.92l-24,.7a11.07,11.07,0,0,1-4.09-.78l-9.25-4.2C73.87,139.74,74,139.33,75.23,139.29Z"/><polygon class="b" points="87.75 143.52 105.72 142.99 106.11 143.17 88.14 143.7 87.75 143.52"/><polygon class="b" points="86.53 142.97 104.49 142.44 104.89 142.62 86.92 143.15 86.53 142.97"/><polygon class="b" points="85.3 142.41 103.26 141.88 103.66 142.06 85.69 142.59 85.3 142.41"/><polygon class="b" points="87.49 140.85 95.51 140.61 95.89 140.78 87.87 141.02 87.49 140.85"/><polygon class="b" points="86.31 140.31 94.33 140.08 94.71 140.25 86.69 140.49 86.31 140.31"/><path class="be" d="M125.45,148.64l17.2-1.82a6.51,6.51,0,0,1,3.48,1.09l9.33,6.18c1,.69,1.18,1.33.31,1.43l-17.2,1.81a6.48,6.48,0,0,1-3.48-1.09l-9.33-6.18C124.72,149.37,124.58,148.73,125.45,148.64Z"/><polygon class="b" points="137.21 154.77 150.09 153.41 150.49 153.68 137.6 155.03 137.21 154.77"/><polygon class="b" points="135.97 153.95 148.86 152.59 149.26 152.86 136.37 154.22 135.97 153.95"/><polygon class="b" points="134.73 153.13 147.62 151.77 148.01 152.03 135.13 153.4 134.73 153.13"/><polygon class="b" points="135.4 150.66 141.15 150.06 141.53 150.31 135.78 150.92 135.4 150.66"/><polygon class="b" points="134.21 149.88 139.96 149.27 140.34 149.52 134.59 150.13 134.21 149.88"/><path class="ax" d="M77.6,145.15l19.56-4.78a11.07,11.07,0,0,1,4.23.1l12,2.7c1.34.3,1.62.74.63,1L94.4,148.94a11.28,11.28,0,0,1-4.23-.1l-12-2.7C76.89,145.84,76.61,145.39,77.6,145.15Z"/><polygon class="b" points="92.34 147.32 107.01 143.74 107.52 143.85 92.86 147.44 92.34 147.32"/><polygon class="b" points="90.76 146.97 105.43 143.38 105.94 143.5 91.28 147.08 90.76 146.97"/><polygon class="b" points="89.17 146.61 103.84 143.02 104.35 143.14 89.69 146.72 89.17 146.61"/><polygon class="b" points="89.49 144.65 96.03 143.05 96.53 143.16 89.98 144.76 89.49 144.65"/><polygon class="b" points="87.97 144.31 94.51 142.71 95 142.82 88.46 144.42 87.97 144.31"/><path class="as" d="M106.65,137.38,88,137.12a23.91,23.91,0,0,0-5.16,1l-17,4.86c-1.89.54-2.67,1-1.72,1l18.66.26a23.91,23.91,0,0,0,5.16-1l17-4.86C106.82,137.85,107.6,137.39,106.65,137.38Z"/><polygon class="b" points="86.86 142.35 72.88 142.15 72.15 142.36 86.14 142.55 86.86 142.35"/><polygon class="b" points="89.11 141.7 75.12 141.51 74.4 141.72 88.38 141.91 89.11 141.7"/><polygon class="b" points="91.36 141.06 77.38 140.86 76.65 141.07 90.64 141.26 91.36 141.06"/><polygon class="b" points="92.92 139.37 86.68 139.29 85.99 139.49 92.23 139.57 92.92 139.37"/><polygon class="b" points="95.09 138.75 88.85 138.67 88.15 138.87 94.39 138.95 95.09 138.75"/><path class="as" d="M124.56,148.17l-19.78-3.88a20.28,20.28,0,0,0-4.52-.14L87,145.25c-1.48.12-1.87.38-.87.58l19.78,3.88a20.33,20.33,0,0,0,4.52.14l13.27-1.1C125.17,148.63,125.56,148.36,124.56,148.17Z"/><polygon class="b" points="108.43 148.81 93.61 145.9 93.04 145.95 107.86 148.86 108.43 148.81"/><polygon class="b" points="110.19 148.67 95.36 145.76 94.8 145.8 109.62 148.71 110.19 148.67"/><polygon class="b" points="111.95 148.52 97.13 145.61 96.56 145.66 111.39 148.57 111.95 148.52"/><polygon class="b" points="112.03 147.3 105.41 146 104.87 146.04 111.49 147.34 112.03 147.3"/><polygon class="b" points="113.72 147.16 107.11 145.86 106.56 145.9 113.18 147.2 113.72 147.16"/><path class="as" d="M133.54,144.74l-17.93-4.92a17.77,17.77,0,0,0-5.13,0l-17.11,2.08c-1.91.23-2.73.63-1.82.88l17.93,4.91a17.63,17.63,0,0,0,5.12,0l17.12-2.09C133.63,145.38,134.45,145,133.54,144.74Z"/><polygon class="b" points="113.69 146.26 100.25 142.58 99.52 142.67 112.96 146.35 113.69 146.26"/><polygon class="b" points="115.95 145.99 102.52 142.3 101.78 142.39 115.22 146.08 115.95 145.99"/><polygon class="b" points="118.23 145.71 104.79 142.03 104.06 142.11 117.5 145.8 118.23 145.71"/><polygon class="b" points="120 143.93 114 142.29 113.3 142.37 119.3 144.02 120 143.93"/><polygon class="b" points="122.18 143.66 116.19 142.02 115.48 142.11 121.48 143.75 122.18 143.66"/><path class="ay" d="M144.17,149.79l-16.4-4a26.55,26.55,0,0,0-5.55-.14l-19.84,1.12c-2.22.13-3.35.4-2.52.6l16.41,4a27.14,27.14,0,0,0,5.54.14l19.84-1.13C143.87,150.26,145,150,144.17,149.79Z"/><polygon class="b" points="121.7 150.44 109.41 147.44 108.56 147.49 120.85 150.49 121.7 150.44"/><polygon class="b" points="124.33 150.29 112.03 147.3 111.18 147.34 123.47 150.34 124.33 150.29"/><polygon class="b" points="126.97 150.15 114.67 147.15 113.82 147.19 126.12 150.19 126.97 150.15"/><polygon class="b" points="129.99 148.89 124.5 147.55 123.69 147.59 129.17 148.93 129.99 148.89"/><polygon class="b" points="132.52 148.74 127.03 147.41 126.22 147.45 131.7 148.79 132.52 148.74"/></svg>