<svg xmlns="http://www.w3.org/2000/svg" width="180" height="205.98" viewBox="0 0 180 205.98"><defs><style>.a,.c,.d,.e,.f{fill:#fff;stroke:#000;stroke-miterlimit:10;}.a{stroke-width:0.63px;}.b{fill:#d3d3d3;}.c{stroke-width:0.63px;}.d{stroke-width:0.63px;}.e{stroke-width:0.61px;}.f{stroke-width:0.61px;}</style></defs><path class="a" d="M86.91,160.61l-29.55,2.78a14.7,14.7,0,0,1-5.12-.56l-11.82-4c-1.32-.44-1.18-.92.32-1.06L70.3,155a14.94,14.94,0,0,1,5.12.55l11.82,4C88.56,160,88.41,160.47,86.91,160.61Z"/><polygon class="b" points="71.05 156.85 48.91 158.93 48.4 158.76 70.55 156.68 71.05 156.85"/><polygon class="b" points="72.62 157.38 50.47 159.46 49.96 159.29 72.11 157.21 72.62 157.38"/><polygon class="b" points="74.19 157.91 52.04 159.99 51.53 159.82 73.68 157.74 74.19 157.91"/><polygon class="b" points="71.63 159.86 61.74 160.79 61.26 160.62 71.14 159.69 71.63 159.86"/><polygon class="b" points="73.13 160.37 63.25 161.3 62.76 161.13 72.65 160.21 73.13 160.37"/><path class="c" d="M70.68,163l26.06,4.12a10.79,10.79,0,0,0,4.6-.44l10.81-4.06c1.21-.45,1.12-1-.2-1.2l-26.06-4.12a10.79,10.79,0,0,0-4.6.44l-10.82,4.05C69.26,162.21,69.36,162.75,70.68,163Z"/><polygon class="b" points="85.07 159.3 104.6 162.39 105.06 162.22 85.53 159.13 85.07 159.3"/><polygon class="b" points="83.64 159.84 103.17 162.93 103.63 162.76 84.1 159.67 83.64 159.84"/><polygon class="b" points="82.2 160.38 101.73 163.47 102.19 163.29 82.66 160.21 82.2 160.38"/><polygon class="b" points="84.33 162.64 93.05 164.02 93.49 163.86 84.77 162.48 84.33 162.64"/><polygon class="b" points="82.95 163.16 91.67 164.54 92.11 164.37 83.39 162.99 82.95 163.16"/><path class="c" d="M51,166.52l26.32,1.93a10.72,10.72,0,0,0,4.54-.82l10.44-4.94c1.17-.55,1-1.09-.3-1.18l-26.32-1.93a10.72,10.72,0,0,0-4.54.82l-10.44,4.94C49.48,165.89,49.62,166.43,51,166.52Z"/><polygon class="b" points="64.99 161.68 84.71 163.13 85.16 162.92 65.44 161.47 64.99 161.68"/><polygon class="b" points="63.61 162.34 83.33 163.78 83.78 163.57 64.06 162.12 63.61 162.34"/><polygon class="b" points="62.22 162.99 81.94 164.44 82.39 164.23 62.67 162.78 62.22 162.99"/><polygon class="b" points="64.53 165.07 73.33 165.72 73.76 165.51 64.96 164.87 64.53 165.07"/><polygon class="b" points="63.2 165.7 72 166.35 72.43 166.15 63.63 165.5 63.2 165.7"/><path class="c" d="M41,163.79l26.3,2A10.76,10.76,0,0,0,71.8,165l10.46-4.9c1.17-.55,1-1.08-.3-1.18l-26.31-2a10.78,10.78,0,0,0-4.55.81l-10.46,4.9C39.48,163.15,39.61,163.68,41,163.79Z"/><polygon class="b" points="55 159 74.71 160.51 75.16 160.3 55.45 158.79 55 159"/><polygon class="b" points="53.62 159.64 73.33 161.16 73.78 160.95 54.06 159.44 53.62 159.64"/><polygon class="b" points="52.22 160.3 71.94 161.81 72.39 161.6 52.67 160.09 52.22 160.3"/><polygon class="b" points="54.53 162.38 63.33 163.06 63.75 162.86 54.96 162.18 54.53 162.38"/><polygon class="b" points="53.19 163.01 61.99 163.69 62.42 163.49 53.62 162.81 53.19 163.01"/><path class="d" d="M133.9,163.31l-26.26,3.23a10.92,10.92,0,0,1-4.59-.6l-10.69-4.42c-1.2-.49-1.09-1,.24-1.19l26.26-3.23a10.61,10.61,0,0,1,4.59.6l10.7,4.42C135.34,162.61,135.23,163.15,133.9,163.31Z"/><polygon class="b" points="119.61 159.17 99.93 161.59 99.47 161.4 119.15 158.98 119.61 159.17"/><polygon class="b" points="121.02 159.75 101.34 162.17 100.89 161.98 120.56 159.56 121.02 159.75"/><polygon class="b" points="122.44 160.34 102.77 162.76 102.31 162.57 121.99 160.15 122.44 160.34"/><polygon class="b" points="120.23 162.53 111.45 163.61 111.01 163.43 119.79 162.35 120.23 162.53"/><polygon class="b" points="121.59 163.09 112.81 164.18 112.38 163.99 121.16 162.91 121.59 163.09"/><path class="d" d="M112.82,169.78,86.4,171a10.86,10.86,0,0,1-4.53-1l-10.33-5.24c-1.15-.59-1-1.11.35-1.17l26.42-1.18a10.86,10.86,0,0,1,4.53,1l10.32,5.24C114.32,169.19,114.16,169.72,112.82,169.78Z"/><polygon class="b" points="98.89 164.54 79.09 165.43 78.65 165.2 98.45 164.32 98.89 164.54"/><polygon class="b" points="100.26 165.23 80.45 166.12 80.01 165.89 99.82 165.01 100.26 165.23"/><polygon class="b" points="101.63 165.93 81.83 166.81 81.39 166.59 101.19 165.71 101.63 165.93"/><polygon class="b" points="99.26 167.94 90.42 168.34 90 168.12 98.83 167.73 99.26 167.94"/><polygon class="b" points="100.57 168.61 91.74 169 91.31 168.79 100.15 168.4 100.57 168.61"/><path class="e" d="M47.89,161.8l25.15,1a9.93,9.93,0,0,0,4.31-1l9.79-5.29c1.1-.59,1-1.11-.33-1.17l-25.14-1a9.9,9.9,0,0,0-4.31,1l-9.8,5.29C46.47,161.22,46.62,161.75,47.89,161.8Z"/><polygon class="b" points="61.12 156.49 79.97 157.27 80.39 157.04 61.54 156.26 61.12 156.49"/><polygon class="b" points="59.83 157.19 78.67 157.97 79.09 157.74 60.24 156.96 59.83 157.19"/><polygon class="b" points="58.52 157.89 77.37 158.67 77.79 158.45 58.94 157.66 58.52 157.89"/><polygon class="b" points="60.79 159.89 69.2 160.24 69.6 160.02 61.19 159.67 60.79 159.89"/><polygon class="b" points="59.54 160.57 67.95 160.91 68.35 160.7 59.94 160.35 59.54 160.57"/><path class="d" d="M120.92,166.33l-26.43,1a10.88,10.88,0,0,1-4.53-1L79.67,161.1c-1.15-.59-1-1.12.34-1.17l26.43-1a10.88,10.88,0,0,1,4.53,1l10.29,5.29C122.41,165.75,122.26,166.28,120.92,166.33Z"/><polygon class="b" points="107.02 161.01 87.21 161.79 86.77 161.57 106.58 160.79 107.02 161.01"/><polygon class="b" points="108.38 161.72 88.57 162.49 88.13 162.27 107.94 161.49 108.38 161.72"/><polygon class="b" points="109.75 162.42 89.94 163.2 89.5 162.97 109.31 162.19 109.75 162.42"/><polygon class="b" points="107.36 164.42 98.52 164.77 98.1 164.55 106.94 164.2 107.36 164.42"/><polygon class="b" points="108.67 165.09 99.83 165.44 99.41 165.22 108.25 164.88 108.67 165.09"/><path class="f" d="M65.73,164.36l25.33.84a10,10,0,0,0,4.33-1l9.82-5.37c1.1-.6.94-1.13-.34-1.17l-25.33-.84a10.06,10.06,0,0,0-4.33,1l-9.82,5.36C64.29,163.79,64.45,164.32,65.73,164.36Z"/><polygon class="b" points="79.01 158.94 97.99 159.57 98.41 159.34 79.43 158.71 79.01 158.94"/><polygon class="b" points="77.71 159.65 96.69 160.28 97.11 160.05 78.13 159.42 77.71 159.65"/><polygon class="b" points="76.4 160.37 95.38 161 95.81 160.77 76.82 160.14 76.4 160.37"/><polygon class="b" points="78.7 162.35 87.17 162.63 87.58 162.41 79.11 162.13 78.7 162.35"/><polygon class="b" points="77.45 163.03 85.92 163.31 86.32 163.09 77.85 162.81 77.45 163.03"/></svg>