<?xml version="1.0" encoding="utf-8"?>
<!-- Generator: Adobe Illustrator 26.5.0, SVG Export Plug-In . SVG Version: 6.00 Build 0)  -->
<svg version="1.1" id="Layer_1" xmlns="http://www.w3.org/2000/svg" xmlns:xlink="http://www.w3.org/1999/xlink" x="0px" y="0px"
	 viewBox="0 0 180 206" style="enable-background:new 0 0 180 206;" xml:space="preserve">
<style type="text/css">
	.st0{fill:#FFFFFF;}
	.st1{fill:#D3D3D3;}
</style>
<g>
	<path class="st0" d="M86.9,160.6l-29.5,2.8c-1.7,0.1-3.5-0.1-5.1-0.6l-11.8-4c-1.3-0.4-1.2-0.9,0.3-1.1l29.6-2.8
		c1.7-0.1,3.5,0.1,5.1,0.6l11.8,4C88.6,160,88.4,160.5,86.9,160.6z"/>
	<path d="M56.4,163.7c-1.4,0-2.8-0.2-4.2-0.6l-11.8-4c-0.5-0.2-1.2-0.5-1.1-0.9c0-0.4,0.5-0.6,1.5-0.7l29.6-2.8
		c1.8-0.1,3.5,0.1,5.2,0.6l11.8,4c0.5,0.2,1.2,0.5,1.1,1c0,0.4-0.5,0.6-1.5,0.7l-29.6,2.8C57,163.7,56.7,163.7,56.4,163.7z
		 M39.9,158.3c0.1,0.1,0.3,0.2,0.6,0.3l11.8,4c1.6,0.5,3.3,0.7,5,0.5l29.5-2.8c0.5,0,0.7-0.1,0.9-0.2c-0.1-0.1-0.3-0.2-0.6-0.3
		l-11.8-4c-1.6-0.5-3.3-0.6-5-0.5l-29.6,2.8C40.3,158.1,40,158.2,39.9,158.3z"/>
	<polygon class="st1" points="71.1,156.9 48.9,158.9 48.4,158.8 70.6,156.7 	"/>
	<polygon class="st1" points="72.6,157.4 50.5,159.5 50,159.3 72.1,157.2 	"/>
	<polygon class="st1" points="74.2,157.9 52,160 51.5,159.8 73.7,157.7 	"/>
	<polygon class="st1" points="71.6,159.9 61.7,160.8 61.3,160.6 71.1,159.7 	"/>
	<polygon class="st1" points="73.1,160.4 63.2,161.3 62.8,161.1 72.7,160.2 	"/>
</g>
</svg>
