<?xml version="1.0" encoding="utf-8"?>
<!-- Generator: Adobe Illustrator 26.5.0, SVG Export Plug-In . SVG Version: 6.00 Build 0)  -->
<svg version="1.1" id="Layer_1" xmlns="http://www.w3.org/2000/svg" xmlns:xlink="http://www.w3.org/1999/xlink" x="0px" y="0px"
	 viewBox="0 0 180 206" style="enable-background:new 0 0 180 206;" xml:space="preserve">
<style type="text/css">
	.st0{fill:#FFFFFF;}
	.st1{fill:#D3D3D3;}
</style>
<path class="st0" d="M86.9,160.6l-29.5,2.8c-1.7,0.1-3.5-0.1-5.1-0.6l-11.8-4c-1.3-0.4-1.2-0.9,0.3-1.1l29.6-2.8
	c1.7-0.1,3.5,0.1,5.1,0.6l11.8,4C88.6,160,88.4,160.5,86.9,160.6z"/>
<path d="M56.4,163.7c-1.4,0-2.8-0.2-4.2-0.6l-11.8-4c-0.5-0.2-1.2-0.5-1.1-0.9c0-0.4,0.5-0.6,1.5-0.7l29.6-2.8
	c1.8-0.1,3.5,0.1,5.2,0.6l11.8,4c0.5,0.2,1.2,0.5,1.1,1c0,0.4-0.5,0.6-1.5,0.7l-29.6,2.8C57,163.7,56.7,163.7,56.4,163.7z
	 M39.9,158.3c0.1,0.1,0.3,0.2,0.6,0.3l11.8,4c1.6,0.5,3.3,0.7,5,0.5l29.5-2.8c0.5,0,0.7-0.1,0.9-0.2c-0.1-0.1-0.3-0.2-0.6-0.3
	l-11.8-4c-1.6-0.5-3.3-0.6-5-0.5l-29.6,2.8C40.3,158.1,40,158.2,39.9,158.3z"/>
<polygon class="st1" points="71.1,156.9 48.9,158.9 48.4,158.8 70.6,156.7 "/>
<polygon class="st1" points="72.6,157.4 50.5,159.5 50,159.3 72.1,157.2 "/>
<polygon class="st1" points="74.2,157.9 52,160 51.5,159.8 73.7,157.7 "/>
<polygon class="st1" points="71.6,159.9 61.7,160.8 61.3,160.6 71.1,159.7 "/>
<polygon class="st1" points="73.1,160.4 63.2,161.3 62.8,161.1 72.7,160.2 "/>
<path class="st0" d="M70.7,163l26.1,4.1c1.5,0.2,3.1,0,4.6-0.4l10.8-4.1c1.2-0.4,1.1-1-0.2-1.2l-26.1-4.1c-1.5-0.2-3.1,0-4.6,0.4
	l-10.8,4.1C69.3,162.2,69.4,162.8,70.7,163z"/>
<path d="M98,167.5c-0.4,0-0.9,0-1.3-0.1l-26.1-4.1c-0.8-0.2-1.3-0.4-1.3-0.9c0-0.4,0.3-0.7,1.1-1l10.8-4c1.5-0.5,3.2-0.6,4.7-0.5
	l26.1,4.1c0.8,0.1,1.3,0.4,1.3,0.8c0,0.4-0.3,0.7-1.1,1l-10.8,4.1C100.3,167.3,99.2,167.5,98,167.5z M70.7,162.7l26.1,4.1
	c1.5,0.2,3,0,4.5-0.4l10.8-4.1c0.5-0.2,0.6-0.3,0.6-0.4c0,0-0.2-0.1-0.8-0.2l-26.1-4.1c-1.5-0.2-3,0-4.5,0.4l-10.8,4
	c-0.5,0.2-0.6,0.3-0.6,0.3C70,162.4,70.1,162.6,70.7,162.7z"/>
<polygon class="st1" points="85.1,159.3 104.6,162.4 105.1,162.2 85.5,159.1 "/>
<polygon class="st1" points="83.6,159.8 103.2,162.9 103.6,162.8 84.1,159.7 "/>
<polygon class="st1" points="82.2,160.4 101.7,163.5 102.2,163.3 82.7,160.2 "/>
<polygon class="st1" points="84.3,162.6 93.1,164 93.5,163.9 84.8,162.5 "/>
<polygon class="st1" points="82.9,163.2 91.7,164.5 92.1,164.4 83.4,163 "/>
<path class="st0" d="M51,166.5l26.3,1.9c1.6,0.1,3.1-0.2,4.5-0.8l10.4-4.9c1.2-0.6,1-1.1-0.3-1.2l-26.3-1.9
	c-1.6-0.1-3.1,0.2-4.5,0.8l-10.4,4.9C49.5,165.9,49.6,166.4,51,166.5z"/>
<path d="M77.7,168.8c-0.1,0-0.3,0-0.4,0L51,166.8c-0.9-0.1-1.3-0.3-1.4-0.7c-0.1-0.4,0.3-0.8,1-1.1l10.4-4.9
	c1.5-0.6,3.1-0.9,4.7-0.8l26.3,1.9c0.8,0.1,1.3,0.3,1.4,0.7c0.1,0.4-0.2,0.8-1,1.1L82,167.9C80.6,168.5,79.2,168.8,77.7,168.8z
	 M50.2,166c0,0,0.2,0.1,0.8,0.2h0l26.3,1.9c1.5,0.1,3-0.2,4.4-0.8l10.4-4.9c0.5-0.2,0.6-0.4,0.6-0.4h0c0,0-0.2-0.1-0.8-0.2
	l-26.3-1.9c-1.5-0.1-3,0.2-4.4,0.8l-10.4,4.9C50.3,165.8,50.2,166,50.2,166C50.2,166,50.2,166,50.2,166z"/>
<polygon class="st1" points="65,161.7 84.7,163.1 85.2,162.9 65.4,161.5 "/>
<polygon class="st1" points="63.6,162.3 83.3,163.8 83.8,163.6 64.1,162.1 "/>
<polygon class="st1" points="62.2,163 81.9,164.4 82.4,164.2 62.7,162.8 "/>
<polygon class="st1" points="64.5,165.1 73.3,165.7 73.8,165.5 65,164.9 "/>
<polygon class="st1" points="63.2,165.7 72,166.4 72.4,166.1 63.6,165.5 "/>
<path class="st0" d="M41,163.8l26.3,2c1.5,0.1,3.1-0.2,4.5-0.8l10.5-4.9c1.2-0.6,1-1.1-0.3-1.2l-26.3-2c-1.6-0.1-3.1,0.2-4.5,0.8
	l-10.5,4.9C39.5,163.1,39.6,163.7,41,163.8z"/>
<path d="M67.7,166.1c-0.2,0-0.3,0-0.5,0l-26.3-2c-0.9-0.1-1.4-0.3-1.4-0.7c-0.1-0.4,0.3-0.7,1-1.1l10.5-4.9c1.5-0.6,3.1-0.9,4.7-0.8
	l26.3,2c0.8,0.1,1.3,0.3,1.4,0.7c0.1,0.4-0.3,0.8-1,1.1l-10.5,4.9C70.6,165.8,69.2,166.1,67.7,166.1z M41,163.5l26.3,2
	c1.5,0.1,3-0.2,4.4-0.8l10.4-4.9c0.5-0.2,0.6-0.4,0.6-0.4h0c0,0-0.2-0.1-0.8-0.2l-26.3-2c-1.5-0.1-3,0.2-4.4,0.8l-10.4,4.9
	c-0.4,0.2-0.6,0.3-0.6,0.4C40.2,163.3,40.4,163.4,41,163.5L41,163.5z"/>
<polygon class="st1" points="55,159 74.7,160.5 75.2,160.3 55.5,158.8 "/>
<polygon class="st1" points="53.6,159.6 73.3,161.2 73.8,160.9 54.1,159.4 "/>
<polygon class="st1" points="52.2,160.3 71.9,161.8 72.4,161.6 52.7,160.1 "/>
<polygon class="st1" points="54.5,162.4 63.3,163.1 63.8,162.9 55,162.2 "/>
<polygon class="st1" points="53.2,163 62,163.7 62.4,163.5 53.6,162.8 "/>
<path class="st0" d="M133.9,163.3l-26.3,3.2c-1.6,0.1-3.1-0.1-4.6-0.6l-10.7-4.4c-1.2-0.5-1.1-1,0.2-1.2l26.3-3.2
	c1.6-0.1,3.1,0.1,4.6,0.6l10.7,4.4C135.3,162.6,135.2,163.1,133.9,163.3z"/>
<path d="M106.7,166.9c-1.3,0-2.6-0.2-3.8-0.7l-10.7-4.4c-0.3-0.1-1.1-0.4-1-1c0-0.4,0.5-0.7,1.3-0.8l26.3-3.2
	c1.6-0.1,3.2,0.1,4.7,0.6l10.7,4.4c0.7,0.3,1.1,0.6,1,1c-0.1,0.4-0.5,0.7-1.3,0.8l-26.3,3.2C107.4,166.9,107,166.9,106.7,166.9z
	 M91.8,160.9c0,0,0.2,0.1,0.6,0.3l10.7,4.4c1.4,0.5,2.9,0.7,4.4,0.6l26.2-3.2c0.6-0.1,0.8-0.2,0.8-0.2c0,0-0.2-0.2-0.6-0.4
	l-10.7-4.4c-1.4-0.5-2.9-0.7-4.4-0.6l-26.3,3.2C92.1,160.7,91.9,160.9,91.8,160.9C91.8,160.9,91.8,160.9,91.8,160.9z"/>
<polygon class="st1" points="119.6,159.2 99.9,161.6 99.5,161.4 119.2,159 "/>
<polygon class="st1" points="121,159.8 101.3,162.2 100.9,162 120.6,159.6 "/>
<polygon class="st1" points="122.4,160.3 102.8,162.8 102.3,162.6 122,160.1 "/>
<polygon class="st1" points="120.2,162.5 111.4,163.6 111,163.4 119.8,162.4 "/>
<polygon class="st1" points="121.6,163.1 112.8,164.2 112.4,164 121.2,162.9 "/>
<path class="st0" d="M112.8,169.8L86.4,171c-1.6,0-3.1-0.3-4.5-1l-10.3-5.2c-1.2-0.6-1-1.1,0.3-1.2l26.4-1.2c1.6,0,3.1,0.3,4.5,1
	l10.3,5.2C114.3,169.2,114.2,169.7,112.8,169.8z"/>
<path d="M86.4,171.3c-1.6,0-3.2-0.3-4.7-1L71.4,165c-0.7-0.4-1-0.7-0.9-1.1c0.1-0.4,0.5-0.6,1.4-0.7l26.4-1.2c1.6,0,3.2,0.4,4.7,1
	l10.3,5.2c0.7,0.3,1,0.7,0.9,1.1c-0.1,0.4-0.6,0.6-1.4,0.7L86.4,171.3z M71.1,164.1c0,0,0.1,0.2,0.6,0.4l10.3,5.2
	c1.4,0.6,2.9,1,4.4,1l26.4-1.2c0.6,0,0.8-0.1,0.8-0.2c0,0-0.2-0.2-0.6-0.4l-10.3-5.2c-1.4-0.6-2.9-1-4.4-1l-26.4,1.2
	C71.3,163.9,71.1,164,71.1,164.1z"/>
<polygon class="st1" points="98.9,164.5 79.1,165.4 78.7,165.2 98.4,164.3 "/>
<polygon class="st1" points="100.3,165.2 80.4,166.1 80,165.9 99.8,165 "/>
<polygon class="st1" points="101.6,165.9 81.8,166.8 81.4,166.6 101.2,165.7 "/>
<polygon class="st1" points="99.3,167.9 90.4,168.3 90,168.1 98.8,167.7 "/>
<polygon class="st1" points="100.6,168.6 91.7,169 91.3,168.8 100.2,168.4 "/>
<path class="st0" d="M47.9,161.8l25.2,1c1.5,0,3-0.3,4.3-1l9.8-5.3c1.1-0.6,1-1.1-0.3-1.2l-25.1-1c-1.5,0-3,0.3-4.3,1l-9.8,5.3
	C46.5,161.2,46.6,161.8,47.9,161.8z"/>
<path d="M73,163.1l-25.2-1c-0.8,0-1.2-0.2-1.3-0.6c-0.1-0.4,0.2-0.8,0.9-1.1l9.8-5.3c1.4-0.7,2.9-1,4.5-1l25.2,1
	c0.8,0,1.3,0.2,1.4,0.6c0.1,0.4-0.2,0.7-0.9,1.1l-9.8,5.3C76.1,162.7,74.6,163.1,73,163.1z M47.1,161.4c0,0,0.2,0.1,0.8,0.1h0
	l25.1,1c1.4,0,2.9-0.3,4.2-1l9.8-5.3c0.5-0.3,0.6-0.4,0.6-0.5c0,0-0.2-0.1-0.8-0.1l-25.1-1c-1.4,0-2.9,0.3-4.2,1l-9.8,5.3
	C47.2,161.2,47.1,161.3,47.1,161.4C47.1,161.4,47.1,161.4,47.1,161.4z"/>
<polygon class="st1" points="61.1,156.5 80,157.3 80.4,157 61.5,156.3 "/>
<polygon class="st1" points="59.8,157.2 78.7,158 79.1,157.7 60.2,157 "/>
<polygon class="st1" points="58.5,157.9 77.4,158.7 77.8,158.4 58.9,157.7 "/>
<polygon class="st1" points="60.8,159.9 69.2,160.2 69.6,160 61.2,159.7 "/>
<polygon class="st1" points="59.5,160.6 67.9,160.9 68.3,160.7 59.9,160.4 "/>
<path class="st0" d="M120.9,166.3l-26.4,1c-1.6,0-3.1-0.3-4.5-1l-10.3-5.2c-1.2-0.6-1-1.1,0.3-1.2l26.4-1c1.6,0,3.1,0.3,4.5,1
	l10.3,5.3C122.4,165.8,122.3,166.3,120.9,166.3z"/>
<path d="M94.5,167.6c-1.6,0-3.2-0.3-4.7-1l-10.3-5.2c-0.7-0.4-1-0.7-0.9-1.1c0.1-0.4,0.6-0.6,1.4-0.6l26.4-1c1.6,0,3.2,0.4,4.7,1
	l10.3,5.3c0.7,0.3,1,0.7,0.9,1.1c-0.1,0.4-0.6,0.6-1.4,0.6L94.5,167.6z M79.2,160.4c0,0,0.1,0.2,0.6,0.4l10.3,5.2
	c1.4,0.6,2.9,1,4.4,1l26.4-1c0.6,0,0.8-0.1,0.8-0.2c0,0-0.2-0.2-0.6-0.4l-10.3-5.3c-1.4-0.6-2.9-1-4.4-1l-26.4,1
	C79.4,160.3,79.3,160.4,79.2,160.4z"/>
<polygon class="st1" points="107,161 87.2,161.8 86.8,161.6 106.6,160.8 "/>
<polygon class="st1" points="108.4,161.7 88.6,162.5 88.1,162.3 107.9,161.5 "/>
<polygon class="st1" points="109.8,162.4 89.9,163.2 89.5,163 109.3,162.2 "/>
<polygon class="st1" points="107.4,164.4 98.5,164.8 98.1,164.6 106.9,164.2 "/>
<polygon class="st1" points="108.7,165.1 99.8,165.4 99.4,165.2 108.2,164.9 "/>
<path class="st0" d="M65.7,164.4l25.3,0.8c1.5,0,3-0.3,4.3-1l9.8-5.4c1.1-0.6,0.9-1.1-0.3-1.2l-25.3-0.8c-1.5,0-3,0.3-4.3,1
	l-9.8,5.4C64.3,163.8,64.4,164.3,65.7,164.4z"/>
<path d="M91.1,165.5l-25.3-0.8c-0.8,0-1.3-0.2-1.4-0.6c-0.1-0.4,0.2-0.8,0.9-1.1l9.8-5.4c1.4-0.7,2.9-1,4.5-1l25.3,0.8
	c0.8,0,1.3,0.2,1.4,0.6c0.1,0.4-0.2,0.8-0.9,1.1l-9.8,5.4C94.1,165.1,92.6,165.5,91.1,165.5z M65,163.9c0,0,0.2,0.1,0.8,0.1h0
	l25.3,0.8c1.4,0,2.9-0.3,4.2-1l9.8-5.4c0.5-0.3,0.6-0.4,0.6-0.5c0,0-0.2-0.1-0.8-0.1l-25.3-0.8c-1.4,0-2.9,0.3-4.2,1l-9.8,5.4
	C65.1,163.7,65,163.9,65,163.9C65,163.9,65,163.9,65,163.9z"/>
<polygon class="st1" points="79,158.9 98,159.6 98.4,159.3 79.4,158.7 "/>
<polygon class="st1" points="77.7,159.6 96.7,160.3 97.1,160.1 78.1,159.4 "/>
<polygon class="st1" points="76.4,160.4 95.4,161 95.8,160.8 76.8,160.1 "/>
<polygon class="st1" points="78.7,162.4 87.2,162.6 87.6,162.4 79.1,162.1 "/>
<polygon class="st1" points="77.4,163 85.9,163.3 86.3,163.1 77.8,162.8 "/>
</svg>
