<?xml version="1.0" encoding="utf-8"?>
<!-- Generator: Adobe Illustrator 26.5.0, SVG Export Plug-In . SVG Version: 6.00 Build 0)  -->
<svg version="1.1" id="Layer_1" xmlns="http://www.w3.org/2000/svg" xmlns:xlink="http://www.w3.org/1999/xlink" x="0px" y="0px"
	 viewBox="0 0 180 206" style="enable-background:new 0 0 180 206;" xml:space="preserve">
<style type="text/css">
	.st0{fill:#FFFFFF;}
	.st1{fill:#D3D3D3;}
</style>
<path class="st0" d="M86.9,160.6l-29.5,2.8c-1.7,0.1-3.5-0.1-5.1-0.6l-11.8-4c-1.3-0.4-1.2-0.9,0.3-1.1l29.6-2.8
	c1.7-0.1,3.5,0.1,5.1,0.6l11.8,4C88.6,160,88.4,160.5,86.9,160.6z"/>
<path d="M56.4,163.7c-1.4,0-2.8-0.2-4.2-0.6l-11.8-4c-0.5-0.2-1.2-0.5-1.1-0.9c0-0.4,0.5-0.6,1.5-0.7l29.6-2.8
	c1.8-0.1,3.5,0.1,5.2,0.6l11.8,4c0.5,0.2,1.2,0.5,1.1,1c0,0.4-0.5,0.6-1.5,0.7l-29.6,2.8C57,163.7,56.7,163.7,56.4,163.7z
	 M39.9,158.3c0.1,0.1,0.3,0.2,0.6,0.3l11.8,4c1.6,0.5,3.3,0.7,5,0.5l29.5-2.8c0.5,0,0.7-0.1,0.9-0.2c-0.1-0.1-0.3-0.2-0.6-0.3
	l-11.8-4c-1.6-0.5-3.3-0.6-5-0.5l-29.6,2.8C40.3,158.1,40,158.2,39.9,158.3z"/>
<polygon class="st1" points="71.1,156.9 48.9,158.9 48.4,158.8 70.6,156.7 "/>
<polygon class="st1" points="72.6,157.4 50.5,159.5 50,159.3 72.1,157.2 "/>
<polygon class="st1" points="74.2,157.9 52,160 51.5,159.8 73.7,157.7 "/>
<polygon class="st1" points="71.6,159.9 61.7,160.8 61.3,160.6 71.1,159.7 "/>
<polygon class="st1" points="73.1,160.4 63.2,161.3 62.8,161.1 72.7,160.2 "/>
<path class="st0" d="M70.7,163l26.1,4.1c1.5,0.2,3.1,0,4.6-0.4l10.8-4.1c1.2-0.4,1.1-1-0.2-1.2l-26.1-4.1c-1.5-0.2-3.1,0-4.6,0.4
	l-10.8,4.1C69.3,162.2,69.4,162.8,70.7,163z"/>
<path d="M98,167.5c-0.4,0-0.9,0-1.3-0.1l-26.1-4.1c-0.8-0.2-1.3-0.4-1.3-0.9c0-0.4,0.3-0.7,1.1-1l10.8-4c1.5-0.5,3.2-0.6,4.7-0.5
	l26.1,4.1c0.8,0.1,1.3,0.4,1.3,0.8c0,0.4-0.3,0.7-1.1,1l-10.8,4.1C100.3,167.3,99.2,167.5,98,167.5z M70.7,162.7l26.1,4.1
	c1.5,0.2,3,0,4.5-0.4l10.8-4.1c0.5-0.2,0.6-0.3,0.6-0.4c0,0-0.2-0.1-0.8-0.2l-26.1-4.1c-1.5-0.2-3,0-4.5,0.4l-10.8,4
	c-0.5,0.2-0.6,0.3-0.6,0.3C70,162.4,70.1,162.6,70.7,162.7z"/>
<polygon class="st1" points="85.1,159.3 104.6,162.4 105.1,162.2 85.5,159.1 "/>
<polygon class="st1" points="83.6,159.8 103.2,162.9 103.6,162.8 84.1,159.7 "/>
<polygon class="st1" points="82.2,160.4 101.7,163.5 102.2,163.3 82.7,160.2 "/>
<polygon class="st1" points="84.3,162.6 93.1,164 93.5,163.9 84.8,162.5 "/>
<polygon class="st1" points="82.9,163.2 91.7,164.5 92.1,164.4 83.4,163 "/>
<path class="st0" d="M51,166.5l26.3,1.9c1.6,0.1,3.1-0.2,4.5-0.8l10.4-4.9c1.2-0.6,1-1.1-0.3-1.2l-26.3-1.9
	c-1.6-0.1-3.1,0.2-4.5,0.8l-10.4,4.9C49.5,165.9,49.6,166.4,51,166.5z"/>
<path d="M77.7,168.8c-0.1,0-0.3,0-0.4,0L51,166.8c-0.9-0.1-1.3-0.3-1.4-0.7c-0.1-0.4,0.3-0.8,1-1.1l10.4-4.9
	c1.5-0.6,3.1-0.9,4.7-0.8l26.3,1.9c0.8,0.1,1.3,0.3,1.4,0.7c0.1,0.4-0.2,0.8-1,1.1L82,167.9C80.6,168.5,79.2,168.8,77.7,168.8z
	 M50.2,166c0,0,0.2,0.1,0.8,0.2h0l26.3,1.9c1.5,0.1,3-0.2,4.4-0.8l10.4-4.9c0.5-0.2,0.6-0.4,0.6-0.4h0c0,0-0.2-0.1-0.8-0.2
	l-26.3-1.9c-1.5-0.1-3,0.2-4.4,0.8l-10.4,4.9C50.3,165.8,50.2,166,50.2,166C50.2,166,50.2,166,50.2,166z"/>
<polygon class="st1" points="65,161.7 84.7,163.1 85.2,162.9 65.4,161.5 "/>
<polygon class="st1" points="63.6,162.3 83.3,163.8 83.8,163.6 64.1,162.1 "/>
<polygon class="st1" points="62.2,163 81.9,164.4 82.4,164.2 62.7,162.8 "/>
<polygon class="st1" points="64.5,165.1 73.3,165.7 73.8,165.5 65,164.9 "/>
<polygon class="st1" points="63.2,165.7 72,166.4 72.4,166.1 63.6,165.5 "/>
<path class="st0" d="M41,163.8l26.3,2c1.5,0.1,3.1-0.2,4.5-0.8l10.5-4.9c1.2-0.6,1-1.1-0.3-1.2l-26.3-2c-1.6-0.1-3.1,0.2-4.5,0.8
	l-10.5,4.9C39.5,163.1,39.6,163.7,41,163.8z"/>
<path d="M67.7,166.1c-0.2,0-0.3,0-0.5,0l-26.3-2c-0.9-0.1-1.4-0.3-1.4-0.7c-0.1-0.4,0.3-0.7,1-1.1l10.5-4.9c1.5-0.6,3.1-0.9,4.7-0.8
	l26.3,2c0.8,0.1,1.3,0.3,1.4,0.7c0.1,0.4-0.3,0.8-1,1.1l-10.5,4.9C70.6,165.8,69.2,166.1,67.7,166.1z M41,163.5l26.3,2
	c1.5,0.1,3-0.2,4.4-0.8l10.4-4.9c0.5-0.2,0.6-0.4,0.6-0.4h0c0,0-0.2-0.1-0.8-0.2l-26.3-2c-1.5-0.1-3,0.2-4.4,0.8l-10.4,4.9
	c-0.4,0.2-0.6,0.3-0.6,0.4C40.2,163.3,40.4,163.4,41,163.5L41,163.5z"/>
<polygon class="st1" points="55,159 74.7,160.5 75.2,160.3 55.5,158.8 "/>
<polygon class="st1" points="53.6,159.6 73.3,161.2 73.8,160.9 54.1,159.4 "/>
<polygon class="st1" points="52.2,160.3 71.9,161.8 72.4,161.6 52.7,160.1 "/>
<polygon class="st1" points="54.5,162.4 63.3,163.1 63.8,162.9 55,162.2 "/>
<polygon class="st1" points="53.2,163 62,163.7 62.4,163.5 53.6,162.8 "/>
<path class="st0" d="M133.9,163.3l-26.3,3.2c-1.6,0.1-3.1-0.1-4.6-0.6l-10.7-4.4c-1.2-0.5-1.1-1,0.2-1.2l26.3-3.2
	c1.6-0.1,3.1,0.1,4.6,0.6l10.7,4.4C135.3,162.6,135.2,163.1,133.9,163.3z"/>
<path d="M106.7,166.9c-1.3,0-2.6-0.2-3.8-0.7l-10.7-4.4c-0.3-0.1-1.1-0.4-1-1c0-0.4,0.5-0.7,1.3-0.8l26.3-3.2
	c1.6-0.1,3.2,0.1,4.7,0.6l10.7,4.4c0.7,0.3,1.1,0.6,1,1c-0.1,0.4-0.5,0.7-1.3,0.8l-26.3,3.2C107.4,166.9,107,166.9,106.7,166.9z
	 M91.8,160.9c0,0,0.2,0.1,0.6,0.3l10.7,4.4c1.4,0.5,2.9,0.7,4.4,0.6l26.2-3.2c0.6-0.1,0.8-0.2,0.8-0.2c0,0-0.2-0.2-0.6-0.4
	l-10.7-4.4c-1.4-0.5-2.9-0.7-4.4-0.6l-26.3,3.2C92.1,160.7,91.9,160.9,91.8,160.9C91.8,160.9,91.8,160.9,91.8,160.9z"/>
<polygon class="st1" points="119.6,159.2 99.9,161.6 99.5,161.4 119.2,159 "/>
<polygon class="st1" points="121,159.8 101.3,162.2 100.9,162 120.6,159.6 "/>
<polygon class="st1" points="122.4,160.3 102.8,162.8 102.3,162.6 122,160.1 "/>
<polygon class="st1" points="120.2,162.5 111.4,163.6 111,163.4 119.8,162.4 "/>
<polygon class="st1" points="121.6,163.1 112.8,164.2 112.4,164 121.2,162.9 "/>
<path class="st0" d="M112.8,169.8L86.4,171c-1.6,0-3.1-0.3-4.5-1l-10.3-5.2c-1.2-0.6-1-1.1,0.3-1.2l26.4-1.2c1.6,0,3.1,0.3,4.5,1
	l10.3,5.2C114.3,169.2,114.2,169.7,112.8,169.8z"/>
<path d="M86.4,171.3c-1.6,0-3.2-0.3-4.7-1L71.4,165c-0.7-0.4-1-0.7-0.9-1.1c0.1-0.4,0.5-0.6,1.4-0.7l26.4-1.2c1.6,0,3.2,0.4,4.7,1
	l10.3,5.2c0.7,0.3,1,0.7,0.9,1.1c-0.1,0.4-0.6,0.6-1.4,0.7L86.4,171.3z M71.1,164.1c0,0,0.1,0.2,0.6,0.4l10.3,5.2
	c1.4,0.6,2.9,1,4.4,1l26.4-1.2c0.6,0,0.8-0.1,0.8-0.2c0,0-0.2-0.2-0.6-0.4l-10.3-5.2c-1.4-0.6-2.9-1-4.4-1l-26.4,1.2
	C71.3,163.9,71.1,164,71.1,164.1z"/>
<polygon class="st1" points="98.9,164.5 79.1,165.4 78.7,165.2 98.4,164.3 "/>
<polygon class="st1" points="100.3,165.2 80.4,166.1 80,165.9 99.8,165 "/>
<polygon class="st1" points="101.6,165.9 81.8,166.8 81.4,166.6 101.2,165.7 "/>
<polygon class="st1" points="99.3,167.9 90.4,168.3 90,168.1 98.8,167.7 "/>
<polygon class="st1" points="100.6,168.6 91.7,169 91.3,168.8 100.2,168.4 "/>
<path class="st0" d="M47.9,161.8l25.2,1c1.5,0,3-0.3,4.3-1l9.8-5.3c1.1-0.6,1-1.1-0.3-1.2l-25.1-1c-1.5,0-3,0.3-4.3,1l-9.8,5.3
	C46.5,161.2,46.6,161.8,47.9,161.8z"/>
<path d="M73,163.1l-25.2-1c-0.8,0-1.2-0.2-1.3-0.6c-0.1-0.4,0.2-0.8,0.9-1.1l9.8-5.3c1.4-0.7,2.9-1,4.5-1l25.2,1
	c0.8,0,1.3,0.2,1.4,0.6c0.1,0.4-0.2,0.7-0.9,1.1l-9.8,5.3C76.1,162.7,74.6,163.1,73,163.1z M47.1,161.4c0,0,0.2,0.1,0.8,0.1h0
	l25.1,1c1.4,0,2.9-0.3,4.2-1l9.8-5.3c0.5-0.3,0.6-0.4,0.6-0.5c0,0-0.2-0.1-0.8-0.1l-25.1-1c-1.4,0-2.9,0.3-4.2,1l-9.8,5.3
	C47.2,161.2,47.1,161.3,47.1,161.4C47.1,161.4,47.1,161.4,47.1,161.4z"/>
<polygon class="st1" points="61.1,156.5 80,157.3 80.4,157 61.5,156.3 "/>
<polygon class="st1" points="59.8,157.2 78.7,158 79.1,157.7 60.2,157 "/>
<polygon class="st1" points="58.5,157.9 77.4,158.7 77.8,158.4 58.9,157.7 "/>
<polygon class="st1" points="60.8,159.9 69.2,160.2 69.6,160 61.2,159.7 "/>
<polygon class="st1" points="59.5,160.6 67.9,160.9 68.3,160.7 59.9,160.4 "/>
<path class="st0" d="M120.9,166.3l-26.4,1c-1.6,0-3.1-0.3-4.5-1l-10.3-5.2c-1.2-0.6-1-1.1,0.3-1.2l26.4-1c1.6,0,3.1,0.3,4.5,1
	l10.3,5.3C122.4,165.8,122.3,166.3,120.9,166.3z"/>
<path d="M94.5,167.6c-1.6,0-3.2-0.3-4.7-1l-10.3-5.2c-0.7-0.4-1-0.7-0.9-1.1c0.1-0.4,0.6-0.6,1.4-0.6l26.4-1c1.6,0,3.2,0.4,4.7,1
	l10.3,5.3c0.7,0.3,1,0.7,0.9,1.1c-0.1,0.4-0.6,0.6-1.4,0.6L94.5,167.6z M79.2,160.4c0,0,0.1,0.2,0.6,0.4l10.3,5.2
	c1.4,0.6,2.9,1,4.4,1l26.4-1c0.6,0,0.8-0.1,0.8-0.2c0,0-0.2-0.2-0.6-0.4l-10.3-5.3c-1.4-0.6-2.9-1-4.4-1l-26.4,1
	C79.4,160.3,79.3,160.4,79.2,160.4z"/>
<polygon class="st1" points="107,161 87.2,161.8 86.8,161.6 106.6,160.8 "/>
<polygon class="st1" points="108.4,161.7 88.6,162.5 88.1,162.3 107.9,161.5 "/>
<polygon class="st1" points="109.8,162.4 89.9,163.2 89.5,163 109.3,162.2 "/>
<polygon class="st1" points="107.4,164.4 98.5,164.8 98.1,164.6 106.9,164.2 "/>
<polygon class="st1" points="108.7,165.1 99.8,165.4 99.4,165.2 108.2,164.9 "/>
<path class="st0" d="M65.7,164.4l25.3,0.8c1.5,0,3-0.3,4.3-1l9.8-5.4c1.1-0.6,0.9-1.1-0.3-1.2l-25.3-0.8c-1.5,0-3,0.3-4.3,1
	l-9.8,5.4C64.3,163.8,64.4,164.3,65.7,164.4z"/>
<path d="M91.1,165.5l-25.3-0.8c-0.8,0-1.3-0.2-1.4-0.6c-0.1-0.4,0.2-0.8,0.9-1.1l9.8-5.4c1.4-0.7,2.9-1,4.5-1l25.3,0.8
	c0.8,0,1.3,0.2,1.4,0.6c0.1,0.4-0.2,0.8-0.9,1.1l-9.8,5.4C94.1,165.1,92.6,165.5,91.1,165.5z M65,163.9c0,0,0.2,0.1,0.8,0.1h0
	l25.3,0.8c1.4,0,2.9-0.3,4.2-1l9.8-5.4c0.5-0.3,0.6-0.4,0.6-0.5c0,0-0.2-0.1-0.8-0.1l-25.3-0.8c-1.4,0-2.9,0.3-4.2,1l-9.8,5.4
	C65.1,163.7,65,163.9,65,163.9C65,163.9,65,163.9,65,163.9z"/>
<polygon class="st1" points="79,158.9 98,159.6 98.4,159.3 79.4,158.7 "/>
<polygon class="st1" points="77.7,159.6 96.7,160.3 97.1,160.1 78.1,159.4 "/>
<polygon class="st1" points="76.4,160.4 95.4,161 95.8,160.8 76.8,160.1 "/>
<polygon class="st1" points="78.7,162.4 87.2,162.6 87.6,162.4 79.1,162.1 "/>
<polygon class="st1" points="77.4,163 85.9,163.3 86.3,163.1 77.8,162.8 "/>
<path class="st0" d="M123.7,165.8l-25.6,3.3c-1.5,0.1-3,0-4.5-0.5l-10.4-4.2c-1.2-0.5-1.1-1,0.2-1.1l25.6-3.3c1.5-0.1,3,0.1,4.5,0.6
	l10.4,4.2C125.1,165.1,125,165.6,123.7,165.8z"/>
<path d="M97.1,169.4c-1.2,0-2.4-0.2-3.6-0.6l-10.5-4.2c-0.7-0.3-1-0.6-1-1c0.1-0.4,0.5-0.6,1.3-0.7l25.6-3.3c1.6-0.1,3.1,0,4.6,0.6
	l10.5,4.2c0.7,0.3,1.1,0.6,1,1c0,0.4-0.5,0.6-1.3,0.7l-25.6,3.3C97.8,169.4,97.5,169.4,97.1,169.4z M82.7,163.7c0,0,0.1,0.2,0.6,0.3
	l10.5,4.2c1.4,0.5,2.9,0.7,4.3,0.5l25.6-3.3c0.6-0.1,0.7-0.2,0.8-0.2c0,0-0.2-0.2-0.6-0.3l-10.5-4.2c-1.4-0.5-2.9-0.7-4.3-0.5
	l-25.6,3.3C82.9,163.6,82.7,163.7,82.7,163.7z"/>
<polygon class="st1" points="109.8,161.9 90.6,164.4 90.1,164.2 109.3,161.8 "/>
<polygon class="st1" points="111.1,162.5 92,164.9 91.5,164.8 110.7,162.3 "/>
<polygon class="st1" points="112.5,163 93.3,165.5 92.9,165.3 112.1,162.9 "/>
<polygon class="st1" points="110.4,165.1 101.8,166.2 101.4,166.1 109.9,165 "/>
<polygon class="st1" points="111.7,165.7 103.2,166.8 102.7,166.6 111.3,165.5 "/>
<path class="st0" d="M79.8,157.8l-21.5,4.1c-1.3,0.2-2.6,0.1-3.9-0.2l-9.3-3c-1-0.3-1-0.8,0.1-1l21.5-4.1c1.3-0.2,2.6-0.1,3.9,0.2
	l9.3,3C81,157.2,80.9,157.6,79.8,157.8z"/>
<path d="M57,162.2c-0.8,0-1.7-0.1-2.5-0.3l-9.3-3c-0.6-0.2-0.8-0.4-0.8-0.7c0-0.3,0.3-0.5,0.9-0.6l21.5-4.1c1.3-0.2,2.6-0.1,3.9,0.2
	l9.4,3c0.6,0.2,0.9,0.4,0.9,0.7c0,0.3-0.3,0.5-1,0.6l-21.5,4.1C57.9,162.1,57.5,162.2,57,162.2z M68.1,153.6c-0.5,0-0.9,0-1.4,0.1
	l-21.4,4.1c-0.6,0.1-0.7,0.3-0.7,0.3c0,0.1,0.1,0.2,0.7,0.4l9.3,3c1.2,0.3,2.5,0.4,3.8,0.2l21.4-4.1c0.6-0.1,0.7-0.3,0.7-0.3
	c0-0.1-0.1-0.2-0.7-0.4l-9.3-3C69.7,153.7,68.9,153.6,68.1,153.6z"/>
<polygon class="st1" points="67.6,155.3 51.5,158.3 51.1,158.2 67.2,155.1 "/>
<polygon class="st1" points="68.8,155.7 52.7,158.7 52.3,158.6 68.4,155.5 "/>
<polygon class="st1" points="70,156.1 54,159.1 53.5,159 69.6,155.9 "/>
<polygon class="st1" points="68.4,158 61.2,159.3 60.9,159.2 68,157.9 "/>
<polygon class="st1" points="69.6,158.4 62.4,159.7 62,159.6 69.2,158.2 "/>
<path class="st0" d="M99,165.1H78.2c-1.4-0.1-2.9-0.3-4.3-0.8l-11.6-3.7c-1.3-0.4-1.5-0.8-0.5-0.8h20.7c1.5,0.1,2.9,0.3,4.3,0.8
	l11.6,3.7C99.8,164.8,100,165.1,99,165.1z"/>
<path d="M99,165.4H78.2c-1.5-0.1-2.9-0.3-4.4-0.8l-11.6-3.7c-1.1-0.4-1.4-0.6-1.3-0.9c0.1-0.3,0.5-0.4,0.9-0.4h20.8
	c1.5,0.1,3,0.3,4.4,0.8l11.6,3.7c1.2,0.4,1.4,0.6,1.3,0.9C99.8,165.4,99.3,165.4,99,165.4z M61.8,160.2c0.1,0.1,0.3,0.1,0.6,0.2
	l11.6,3.7c1.4,0.4,2.8,0.7,4.2,0.7l20.8,0c0,0,0,0,0,0c-0.1-0.1-0.3-0.1-0.6-0.2l-11.6-3.7c-1.4-0.4-2.8-0.7-4.2-0.7L61.8,160.2
	C61.8,160.2,61.8,160.2,61.8,160.2z"/>
<polygon class="st1" points="84.4,161.3 68.8,161.3 68.3,161.1 83.9,161.1 "/>
<polygon class="st1" points="85.9,161.8 70.4,161.8 69.9,161.6 85.4,161.6 "/>
<polygon class="st1" points="87.5,162.3 71.9,162.3 71.4,162.1 87,162.1 "/>
<polygon class="st1" points="86.8,163.5 79.8,163.5 79.4,163.4 86.3,163.4 "/>
<polygon class="st1" points="88.3,164 81.3,164 80.8,163.8 87.8,163.8 "/>
<path class="st0" d="M96.2,158.6l16.1,2c1.5,0,3.1-0.1,4.6-0.5l15.2-3.1c1.7-0.4,2.4-0.7,1.6-0.8l-16.1-2c-1.5,0-3.1,0.1-4.6,0.4
	l-15.2,3.1C96.1,158.1,95.4,158.5,96.2,158.6z"/>
<path d="M112.7,160.8c-0.1,0-0.3,0-0.4,0l-16.2-2c-0.1,0-0.5-0.1-0.6-0.4c0-0.2,0-0.5,2.1-0.9l15.2-3.1c1.5-0.3,3.1-0.5,4.6-0.5
	l16.2,2c0.1,0,0.5,0.1,0.6,0.4c0,0.2,0,0.5-2.1,0.9l-15.2,3.1C115.6,160.7,114.2,160.8,112.7,160.8z M96.5,158.3l15.9,2
	c1.5,0,3-0.1,4.5-0.5l15.2-3.1c0.7-0.1,1.1-0.3,1.4-0.4l-15.9-2c-1.5,0-3,0.1-4.5,0.4L97.9,158C97.2,158.1,96.8,158.2,96.5,158.3z"
	/>
<polygon class="st1" points="113.9,155.6 125.9,157.1 126.6,156.9 114.5,155.5 "/>
<polygon class="st1" points="111.8,156 123.9,157.5 124.6,157.4 112.5,155.9 "/>
<polygon class="st1" points="109.8,156.4 121.9,157.9 122.6,157.8 110.5,156.3 "/>
<polygon class="st1" points="108.3,157.9 113.7,158.6 114.3,158.4 108.9,157.8 "/>
<polygon class="st1" points="106.4,158.3 111.8,159 112.4,158.8 107,158.2 "/>
<path class="st0" d="M81.1,161l18.6,4.4c1.7,0.2,3.4,0.1,5.1-0.2l16.8-3.1c1.9-0.4,2.6-0.8,1.7-1l-18.7-4.4
	c-1.7-0.2-3.4-0.1-5.1,0.2L82.8,160C80.9,160.3,80.2,160.8,81.1,161z"/>
<path d="M101.6,165.7c-0.6,0-1.2,0-1.9-0.1l-18.7-4.4c-0.2,0-0.6-0.1-0.6-0.5c0-0.2,0-0.6,2.3-1l16.8-3.1c1.7-0.3,3.5-0.4,5.2-0.2
	l18.7,4.4c0.1,0,0.6,0.1,0.6,0.5c0,0.2,0,0.6-2.3,1l-16.8,3.1C103.8,165.6,102.7,165.7,101.6,165.7z M81.1,160.7
	C81.2,160.7,81.2,160.7,81.1,160.7L81.1,160.7l18.7,4.4c1.6,0.2,3.3,0.1,5-0.2l16.8-3.1c0.9-0.2,1.4-0.3,1.7-0.5l-18.7-4.4
	c-1.6-0.2-3.3-0.1-5,0.2l-16.8,3.1C81.9,160.4,81.4,160.6,81.1,160.7z"/>
<polygon class="st1" points="100.7,158.4 114.7,161.6 115.4,161.5 101.4,158.2 "/>
<polygon class="st1" points="98.5,158.8 112.5,162 113.2,161.9 99.2,158.6 "/>
<polygon class="st1" points="96.2,159.2 110.2,162.4 110.9,162.3 97,159.1 "/>
<polygon class="st1" points="94.8,161.2 101,162.6 101.7,162.5 95.4,161.1 "/>
<polygon class="st1" points="92.6,161.6 98.8,163 99.5,162.9 93.3,161.4 "/>
<path class="st0" d="M45.5,161.3l16.4,3.1c1.8,0.1,3.6,0,5.4-0.4l19.2-3.1c2.1-0.4,3.2-0.8,2.4-0.9l-16.3-3.1
	c-1.8-0.1-3.6,0-5.4,0.4l-19.2,3.1C45.7,160.7,44.6,161.1,45.5,161.3z"/>
<path d="M63.1,164.6c-0.4,0-0.8,0-1.3,0l-16.4-3.1c-0.1,0-0.5-0.1-0.5-0.4c0-0.2,0-0.5,2.9-1L67,157c1.8-0.3,3.6-0.5,5.5-0.4
	l16.4,3.1c0.1,0,0.5,0.1,0.5,0.4c0,0.2,0,0.5-2.9,1l-19.1,3.1C65.9,164.5,64.5,164.6,63.1,164.6z M45.7,161.1l16.2,3
	c1.8,0.1,3.5,0,5.3-0.4l19.2-3.2c1.2-0.2,1.8-0.4,2.2-0.5l-16.2-3c-1.8-0.1-3.6,0-5.3,0.4l-19.2,3.2C46.7,160.8,46.1,161,45.7,161.1
	z"/>
<polygon class="st1" points="67.2,158.4 79.5,160.7 80.3,160.6 68,158.3 "/>
<polygon class="st1" points="64.7,158.9 76.9,161.2 77.8,161 65.5,158.7 "/>
<polygon class="st1" points="62.1,159.3 74.4,161.6 75.2,161.4 63,159.1 "/>
<polygon class="st1" points="59.3,161 64.8,162 65.6,161.9 60.1,160.9 "/>
<polygon class="st1" points="56.9,161.4 62.4,162.4 63.2,162.3 57.7,161.3 "/>
<path class="st0" d="M81.7,159.8l18.6-4.2c1.1-0.2,2.3-0.1,3.4,0.2l8.1,3.1c0.9,0.4,0.9,0.8-0.1,1l-18.6,4.2
	c-1.1,0.2-2.3,0.1-3.4-0.2l-8.1-3.1C80.8,160.4,80.8,160,81.7,159.8z"/>
<path d="M91.9,164.3c-0.7,0-1.5-0.1-2.2-0.4l-8.1-3.1c-0.6-0.2-0.7-0.5-0.7-0.7c0-0.2,0.2-0.4,0.8-0.6h0l18.6-4.2
	c1.1-0.2,2.3-0.1,3.4,0.2l8.1,3.1c0.6,0.2,0.8,0.5,0.7,0.7c0,0.2-0.2,0.4-0.8,0.5l-18.6,4.2C92.7,164.3,92.3,164.3,91.9,164.3z
	 M81.8,159.9c-0.5,0.1-0.6,0.3-0.6,0.4c0,0.1,0.1,0.3,0.6,0.4l8.1,3.1c1.1,0.4,2.2,0.4,3.3,0.2l18.6-4.2c0.5-0.1,0.6-0.2,0.6-0.3
	c0-0.1-0.1-0.3-0.6-0.4l-8.1-3.1c-1.1-0.3-2.2-0.4-3.3-0.2L81.8,159.9z"/>
<polygon class="st1" points="92.4,162.4 106.3,159.2 106.6,159.4 92.7,162.6 "/>
<polygon class="st1" points="91.3,162 105.2,158.8 105.6,159 91.7,162.2 "/>
<polygon class="st1" points="90.2,161.6 104.2,158.4 104.5,158.6 90.6,161.8 "/>
<polygon class="st1" points="91.6,159.6 97.8,158.2 98.2,158.3 92,159.8 "/>
<polygon class="st1" points="90.6,159.2 96.8,157.8 97.1,157.9 90.9,159.4 "/>
<path class="st0" d="M65.2,152.2h18c1.3,0.1,2.5,0.3,3.7,0.8l10.1,3.8c1.1,0.4,1.3,0.8,0.4,0.8h-18c-1.3-0.1-2.5-0.3-3.7-0.8
	L65.6,153C64.5,152.6,64.3,152.2,65.2,152.2z"/>
<path d="M97.4,157.9h-18c-1.3-0.1-2.6-0.3-3.8-0.8l-10.1-3.9c-0.8-0.3-1.2-0.6-1.1-0.9c0.1-0.4,0.6-0.4,0.8-0.4h18
	c1.3,0.1,2.6,0.3,3.8,0.8l10.1,3.8c0.9,0.3,1.2,0.6,1.1,0.9C98.1,157.9,97.6,157.9,97.4,157.9z M65.1,152.5c0.1,0.1,0.3,0.1,0.6,0.2
	l10.1,3.9c1.2,0.4,2.4,0.7,3.6,0.8h18c0,0,0.1,0,0.1,0c-0.1-0.1-0.3-0.2-0.6-0.3l-10.1-3.8c-1.2-0.4-2.4-0.7-3.6-0.8L65.1,152.5
	C65.2,152.5,65.1,152.5,65.1,152.5z"/>
<polygon class="st1" points="77.8,156.2 91.3,156.2 91.7,156.4 78.2,156.4 "/>
<polygon class="st1" points="76.5,155.7 89.9,155.7 90.4,155.9 76.9,155.9 "/>
<polygon class="st1" points="75.1,155.2 88.6,155.2 89,155.4 75.6,155.4 "/>
<polygon class="st1" points="75.7,153.9 81.7,153.9 82.2,154.1 76.2,154.1 "/>
<polygon class="st1" points="74.4,153.4 80.4,153.4 80.9,153.6 74.9,153.6 "/>
<path class="st0" d="M67.6,159l-14-2c-1.3,0-2.7,0.1-4,0.5l-13.2,3.2c-1.5,0.4-2.1,0.7-1.4,0.9l14,2c1.3,0,2.7-0.1,4-0.5l13.1-3.2
	C67.7,159.5,68.3,159.1,67.6,159z"/>
<path d="M49.5,163.8c-0.1,0-0.3,0-0.4,0l-14-2c-0.1,0-0.5-0.1-0.5-0.4c0-0.2,0-0.5,1.8-0.9l13.1-3.2c1.3-0.4,2.7-0.5,4.1-0.5l14,2
	c0.3,0.1,0.5,0.2,0.5,0.4c0,0.1,0,0.5-1.9,0.9l-13.1,3.2C51.9,163.6,50.7,163.8,49.5,163.8z M35.2,161.3l13.9,2
	c1.3,0,2.6-0.1,3.9-0.5l13.1-3.2c0.7-0.2,1.1-0.3,1.3-0.4l-13.9-2c-1.3,0-2.6,0.1-3.9,0.5l-13.2,3.2
	C35.8,161.1,35.4,161.2,35.2,161.3z"/>
<polygon class="st1" points="52.3,162.1 41.8,160.6 41.3,160.7 51.7,162.2 "/>
<polygon class="st1" points="54,161.7 43.6,160.1 43,160.3 53.5,161.8 "/>
<polygon class="st1" points="55.8,161.2 45.3,159.7 44.8,159.9 55.2,161.4 "/>
<polygon class="st1" points="57.1,159.7 52.4,159 51.9,159.2 56.6,159.8 "/>
<polygon class="st1" points="58.8,159.3 54.1,158.6 53.6,158.8 58.2,159.4 "/>
<path class="st0" d="M82.8,155.8l-16.1-4.5c-1.5-0.2-3-0.1-4.4,0.2l-14.5,3.2c-1.6,0.4-2.3,0.8-1.5,1.1l16.1,4.5
	c1.5,0.2,3,0.1,4.4-0.2l14.5-3.2C83,156.5,83.6,156.1,82.8,155.8z"/>
<path d="M64,160.7c-0.6,0-1.1,0-1.7-0.1l-16.2-4.5c-0.4-0.1-0.6-0.3-0.5-0.5c0-0.2,0-0.6,2-1.1l14.5-3.2c1.5-0.4,3-0.4,4.5-0.2
	l16.2,4.5c0.4,0.1,0.6,0.3,0.6,0.5c0,0.2,0,0.6-2,1l-14.5,3.2C65.9,160.6,65,160.7,64,160.7z M46.2,155.6
	C46.2,155.6,46.3,155.6,46.2,155.6l16.2,4.5c1.4,0.2,2.9,0.1,4.3-0.2l14.5-3.2c1-0.2,1.4-0.4,1.6-0.5c0,0-0.1,0-0.1,0l-16.1-4.5
	c-1.4-0.2-2.9-0.1-4.3,0.2L47.8,155C46.8,155.2,46.4,155.4,46.2,155.6z"/>
<polygon class="st1" points="65.8,158.6 53.7,155.2 53.1,155.3 65.2,158.7 "/>
<polygon class="st1" points="67.8,158.1 55.7,154.8 55,154.9 67.1,158.3 "/>
<polygon class="st1" points="69.7,157.7 57.6,154.3 57,154.5 69.1,157.9 "/>
<polygon class="st1" points="71,155.6 65.6,154.1 65,154.3 70.4,155.8 "/>
<polygon class="st1" points="72.8,155.2 67.4,153.7 66.8,153.9 72.2,155.4 "/>
<path class="st0" d="M126.9,156.8l-14.2-3.2c-1.6-0.1-3.1,0-4.7,0.4l-16.6,3.3c-1.8,0.4-2.8,0.8-2.1,1l14.2,3.2
	c1.6,0.1,3.1,0,4.7-0.4l16.6-3.3C126.7,157.4,127.6,156.9,126.9,156.8z"/>
<path d="M104.6,161.7c-0.4,0-0.7,0-1.1,0l-14.2-3.2c-0.3-0.1-0.4-0.2-0.4-0.4c0-0.2,0-0.5,2.5-1l16.6-3.3c1.5-0.3,3.1-0.5,4.7-0.4
	l14.2,3.2c0.3,0.1,0.4,0.2,0.4,0.4c0,0.2,0,0.5-2.5,1.1l-16.6,3.3C107.1,161.5,105.8,161.7,104.6,161.7z M89.5,158l14.1,3.2
	c1.5,0.1,3.1,0,4.6-0.4l16.6-3.3c1.1-0.2,1.7-0.4,1.9-0.6l-14-3.2c-1.5-0.1-3.1,0-4.6,0.4l-16.6,3.3C90.3,157.7,89.8,157.9,89.5,158
	z"/>
<polygon class="st1" points="108,159.7 97.4,157.3 96.7,157.5 107.3,159.9 "/>
<polygon class="st1" points="110.2,159.3 99.6,156.9 98.9,157 109.5,159.4 "/>
<polygon class="st1" points="112.4,158.9 101.8,156.5 101.1,156.6 111.7,159 "/>
<polygon class="st1" points="114.9,157.1 110.1,156 109.4,156.1 114.2,157.2 "/>
<polygon class="st1" points="117,156.6 112.2,155.6 111.6,155.7 116.3,156.8 "/>
<path class="st0" d="M110.9,153l-22.2-3.8c-1.3-0.2-2.7,0-3.9,0.4l-9.2,3.6c-1,0.4-1,0.9,0.2,1.1l22.2,3.8c1.3,0.2,2.7,0,3.9-0.4
	l9.2-3.6C112.1,153.7,112,153.2,110.9,153z"/>
<path d="M99,158.5c-0.4,0-0.8,0-1.2-0.1l-22.3-3.8c-0.7-0.1-1.1-0.4-1.1-0.7c0-0.3,0.3-0.7,0.9-0.9l9.3-3.7c1.3-0.4,2.7-0.6,4.1-0.4
	l22.3,3.8c0.7,0.1,1.1,0.4,1.1,0.7c0,0.3-0.3,0.7-0.9,0.9l-9.3,3.6C100.9,158.3,100,158.5,99,158.5z M75,153.8c0,0,0.1,0.1,0.7,0.2
	l22.2,3.8c1.3,0.2,2.6,0,3.8-0.4l9.2-3.6c0.5-0.2,0.5-0.3,0.6-0.3c0,0,0,0,0,0c0,0-0.1-0.1-0.7-0.2l-22.2-3.8
	c-1.3-0.2-2.6,0-3.8,0.4l-9.2,3.6C75.1,153.7,75,153.8,75,153.8L75,153.8z"/>
<polygon class="st1" points="98.6,156.3 81.9,153.4 81.5,153.6 98.2,156.4 "/>
<polygon class="st1" points="99.8,155.8 83.1,152.9 82.7,153.1 99.4,156 "/>
<polygon class="st1" points="101,155.3 84.3,152.5 83.9,152.6 100.6,155.5 "/>
<polygon class="st1" points="99.2,153.3 91.8,152 91.4,152.1 98.8,153.4 "/>
<polygon class="st1" points="100.4,152.8 92.9,151.5 92.6,151.7 100,152.9 "/>
<path class="st0" d="M137.3,158.2l-22.5-1.9c-1.3-0.1-2.6,0.2-3.8,0.7l-9,4.4c-1,0.5-0.9,1,0.2,1.1l22.5,1.9
	c1.3,0.1,2.7-0.2,3.9-0.7l9-4.4C138.6,158.8,138.4,158.3,137.3,158.2z"/>
<path d="M125.1,164.7c-0.1,0-0.3,0-0.4,0l-22.5-1.9c-0.7,0-1.1-0.3-1.2-0.6c-0.1-0.3,0.2-0.7,0.8-1l9-4.4c1.3-0.5,2.6-0.8,4-0.7
	l22.5,1.9c0.7,0.1,1.1,0.3,1.2,0.6c0.1,0.3-0.2,0.7-0.8,1l-9,4.4C127.6,164.5,126.3,164.7,125.1,164.7z M114.4,156.6
	c-1.1,0-2.3,0.2-3.3,0.7l-9,4.4c-0.4,0.2-0.5,0.4-0.5,0.4c0,0,0.2,0.1,0.7,0.2l22.5,1.9c1.3,0.1,2.6-0.2,3.7-0.7l9-4.4
	c0.4-0.2,0.5-0.3,0.5-0.4c0,0-0.2-0.1-0.7-0.2l-22.5-1.9C114.7,156.6,114.6,156.6,114.4,156.6z"/>
<polygon class="st1" points="125.3,162.5 108.4,161.1 108.1,161.3 124.9,162.7 "/>
<polygon class="st1" points="126.5,161.9 109.6,160.5 109.2,160.7 126.1,162.1 "/>
<polygon class="st1" points="127.7,161.4 110.8,159.9 110.4,160.1 127.3,161.6 "/>
<polygon class="st1" points="125.7,159.5 118.2,158.8 117.8,159 125.3,159.6 "/>
<polygon class="st1" points="126.8,158.9 119.3,158.2 119,158.4 126.5,159.1 "/>
<path class="st0" d="M56.9,152.5l22.4-2.9c1.3-0.1,2.7,0.1,3.9,0.6l9.1,4c1,0.4,0.9,0.9-0.2,1.1l-22.4,2.9c-1.3,0.1-2.7-0.1-3.9-0.6
	l-9.1-4C55.6,153.1,55.7,152.6,56.9,152.5z"/>
<path d="M68.9,158.5c-1.1,0-2.2-0.2-3.3-0.6l-9.1-4c-0.6-0.3-0.9-0.6-0.9-1c0.1-0.4,0.4-0.6,1.1-0.7l22.4-2.8
	c1.4-0.1,2.8,0.1,4.1,0.6l9.1,4c0.6,0.3,0.9,0.6,0.9,0.9c-0.1,0.4-0.4,0.6-1.2,0.7l-22.4,2.9C69.5,158.5,69.2,158.5,68.9,158.5z
	 M56.2,153c0,0,0.1,0.2,0.6,0.4l9.1,4c1.2,0.5,2.5,0.7,3.8,0.5l22.4-2.9c0.5-0.1,0.7-0.2,0.7-0.2c0,0-0.1-0.1-0.5-0.3l-9.1-4
	c-1.2-0.5-2.5-0.6-3.8-0.5l-22.4,2.8C56.4,152.8,56.3,153,56.2,153L56.2,153z"/>
<polygon class="st1" points="69.1,156.3 85.9,154.2 86.3,154.3 69.4,156.5 "/>
<polygon class="st1" points="67.9,155.8 84.7,153.6 85.1,153.8 68.2,155.9 "/>
<polygon class="st1" points="66.6,155.2 83.4,153.1 83.8,153.3 67,155.4 "/>
<polygon class="st1" points="68.5,153.2 76,152.3 76.4,152.5 68.9,153.4 "/>
<polygon class="st1" points="67.4,152.7 74.9,151.8 75.2,151.9 67.8,152.9 "/>
<path class="st0" d="M51.5,155.4l18.9-3.5c1.3-0.1,2.7,0.1,3.9,0.6l10.9,4.3c1.2,0.5,1.4,1,0.5,1.2l-18.9,3.5
	c-1.4,0.1-2.7-0.1-4-0.6l-10.9-4.3C50.7,156.1,50.5,155.5,51.5,155.4z"/>
<path d="M65.9,161.7c-1.1,0-2.2-0.2-3.2-0.6l-10.9-4.3c-0.6-0.2-1.2-0.6-1.2-1.1c0-0.3,0.3-0.5,0.8-0.6l18.9-3.5
	c1.4-0.1,2.8,0.1,4.1,0.6l10.9,4.3c0.8,0.3,1.2,0.7,1.2,1.1c0,0.3-0.3,0.5-0.8,0.6l-18.9,3.5C66.5,161.7,66.2,161.7,65.9,161.7z
	 M71.2,152c-0.3,0-0.5,0-0.8,0l-18.9,3.5c-0.4,0.1-0.4,0.2-0.4,0.2c0,0,0.2,0.3,0.9,0.6l10.9,4.3c1.2,0.5,2.6,0.7,3.9,0.5l18.9-3.5
	c0.3-0.1,0.4-0.2,0.4-0.2l0,0c0,0-0.1-0.2-0.9-0.6l-10.9-4.3C73.3,152.2,72.2,152,71.2,152z"/>
<polygon class="st1" points="65,159.4 79.2,156.7 79.7,156.9 65.5,159.6 "/>
<polygon class="st1" points="63.6,158.8 77.8,156.2 78.2,156.4 64,159 "/>
<polygon class="st1" points="62.1,158.2 76.3,155.6 76.8,155.8 62.6,158.4 "/>
<polygon class="st1" points="62.7,156 69,154.8 69.4,155 63.1,156.2 "/>
<polygon class="st1" points="61.3,155.4 67.6,154.3 68.1,154.4 61.7,155.6 "/>
<path class="st0" d="M84,155.5l-17.4-2.2c-1.7,0-3.4,0.2-5,0.6l-16.5,3.9c-1.8,0.4-2.6,0.9-1.8,1l17.5,2.2c1.7,0,3.4-0.2,5-0.6
	l16.5-3.9C84.1,156,84.9,155.6,84,155.5z"/>
<path d="M61.1,161.2c-0.1,0-0.2,0-0.3,0L43.3,159c-0.1,0-0.6-0.1-0.6-0.4c0-0.2,0-0.6,2.3-1.1l16.5-3.9c1.7-0.4,3.4-0.6,5.1-0.6
	l17.5,2.2c0.2,0,0.6,0.1,0.6,0.4c0,0.2,0,0.5-2.3,1.1l-16.5,3.9C64.3,161,62.7,161.2,61.1,161.2z M43.5,158.4l17.3,2.2
	c1.6,0,3.3-0.2,4.9-0.6l16.5-3.9c0.8-0.2,1.3-0.4,1.5-0.5l-17.2-2.2c-1.6,0-3.3,0.2-4.9,0.6L45.1,158
	C44.3,158.2,43.8,158.3,43.5,158.4z"/>
<polygon class="st1" points="64.8,159.2 51.8,157.5 51,157.7 64.1,159.3 "/>
<polygon class="st1" points="67,158.7 53.9,157 53.2,157.2 66.3,158.8 "/>
<polygon class="st1" points="69.2,158.1 56.1,156.5 55.4,156.7 68.5,158.3 "/>
<polygon class="st1" points="70.9,156.4 65,155.6 64.4,155.8 70.2,156.5 "/>
<polygon class="st1" points="73,155.9 67.2,155.1 66.5,155.3 72.3,156 "/>
<path class="st0" d="M104.1,158.5l-19-2.8c-1.4-0.1-2.9,0-4.2,0.2l-12.3,2.4c-1.4,0.3-1.7,0.6-0.8,0.8l19,2.8c1.4,0.1,2.9,0,4.2-0.2
	l12.3-2.4C104.7,159,105.1,158.7,104.1,158.5z"/>
<path d="M88,162.2c-0.4,0-0.9,0-1.3-0.1l-19-2.8c-0.2,0-0.8-0.1-0.8-0.5c0-0.3,0.2-0.5,1.5-0.8l12.4-2.4c1.4-0.3,2.9-0.4,4.3-0.2
	l19,2.8c0.2,0,0.8,0.1,0.8,0.5c0,0.3-0.2,0.5-1.5,0.8l-12.4,2.4C90.1,162.1,89,162.2,88,162.2z M67.8,158.8
	C67.8,158.8,67.8,158.8,67.8,158.8l19,2.8c1.4,0.1,2.8,0,4.2-0.2l12.3-2.4c0.4-0.1,0.6-0.1,0.8-0.2c0,0,0,0,0,0l-19-2.8
	c-1.4-0.1-2.8,0-4.2,0.2l-12.4,2.4C68.2,158.7,67.9,158.8,67.8,158.8z"/>
<polygon class="st1" points="89,160.6 74.8,158.6 74.3,158.7 88.5,160.8 "/>
<polygon class="st1" points="90.7,160.3 76.4,158.2 75.9,158.3 90.1,160.4 "/>
<polygon class="st1" points="92.3,160 78.1,157.9 77.6,158 91.8,160.1 "/>
<polygon class="st1" points="92.2,158.6 85.9,157.7 85.4,157.8 91.7,158.7 "/>
<polygon class="st1" points="93.8,158.3 87.5,157.4 87,157.5 93.3,158.4 "/>
<path class="st0" d="M107.2,157.2l-17.3-4.1c-1.6-0.2-3.2,0-4.8,0.4l-15.8,3.9c-1.8,0.4-2.5,1-1.6,1.2l17.3,4.1
	c1.6,0.2,3.2,0,4.8-0.4l15.8-3.9C107.3,157.9,108,157.4,107.2,157.2z"/>
<path d="M86.2,162.9c-0.4,0-0.9,0-1.3-0.1l-17.4-4.1c-0.5-0.1-0.6-0.3-0.6-0.5c0-0.6,1.2-1,2.2-1.2l15.8-3.8
	c1.6-0.4,3.3-0.6,4.9-0.4l17.4,4.2c0.5,0.1,0.6,0.3,0.6,0.5c0,0.2,0,0.6-2.2,1.2l-15.8,3.8C88.6,162.8,87.4,162.9,86.2,162.9z
	 M67.5,158.2C67.6,158.2,67.6,158.2,67.5,158.2l17.4,4.2c1.6,0.1,3.1,0,4.7-0.4l15.8-3.9c1-0.2,1.5-0.5,1.7-0.6c0,0,0,0-0.1,0
	l-17.3-4.1c-1.6-0.1-3.1,0-4.7,0.4l-15.8,3.9C68.2,157.8,67.7,158,67.5,158.2z"/>
<polygon class="st1" points="88.7,160.6 75.7,157.5 75,157.7 88,160.8 "/>
<polygon class="st1" points="90.8,160.1 77.8,157 77.1,157.2 90.1,160.3 "/>
<polygon class="st1" points="92.9,159.6 79.9,156.5 79.2,156.7 92.2,159.8 "/>
<polygon class="st1" points="94.4,157.4 88.6,156 87.9,156.2 93.7,157.6 "/>
<polygon class="st1" points="96.4,156.9 90.6,155.5 89.9,155.7 95.7,157.1 "/>
<path class="st0" d="M128.6,156.2l-15.8-3.2c-1.7-0.1-3.5,0-5.2,0.3l-18.5,3c-2.1,0.3-3.1,0.7-2.3,0.9l15.8,3.2
	c1.7,0.1,3.5,0,5.2-0.3l18.5-3C128.3,156.7,129.4,156.3,128.6,156.2z"/>
<path d="M103.9,160.6c-0.5,0-0.9,0-1.4,0l-15.9-3.2c-0.1,0-0.5-0.1-0.5-0.4c0-0.2,0-0.5,2.8-1l18.5-3c1.7-0.3,3.5-0.4,5.3-0.3
	l15.9,3.2c0.1,0,0.5,0.1,0.5,0.4c0,0.2,0,0.5-2.8,1l-18.5,3C106.5,160.5,105.2,160.6,103.9,160.6z M87,157l15.6,3.2
	c1.7,0.1,3.4,0,5.1-0.3l18.5-3c1.1-0.2,1.8-0.4,2.1-0.5l-15.6-3.2c-1.7-0.1-3.4,0-5.1,0.3l-18.5,3C87.9,156.7,87.3,156.8,87,157z"/>
<polygon class="st1" points="107.6,158.8 95.7,156.4 94.9,156.5 106.8,158.9 "/>
<polygon class="st1" points="110,158.4 98.2,156 97.4,156.1 109.2,158.6 "/>
<polygon class="st1" points="112.5,158 100.6,155.6 99.8,155.8 111.7,158.2 "/>
<polygon class="st1" points="115.2,156.3 109.9,155.2 109.1,155.4 114.4,156.4 "/>
<polygon class="st1" points="117.5,155.9 112.2,154.9 111.5,155 116.8,156.1 "/>
</svg>
