<svg xmlns="http://www.w3.org/2000/svg" width="180" height="205.98" viewBox="0 0 180 205.98"><defs><style>.a,.c{fill:#fff;stroke:#000;stroke-miterlimit:10;}.a{stroke-width:0.63px;}.b{fill:#d3d3d3;}.c{stroke-width:0.63px;}</style></defs><path class="a" d="M86.91,160.61l-29.55,2.78a14.7,14.7,0,0,1-5.12-.56l-11.82-4c-1.32-.44-1.18-.92.32-1.06L70.3,155a14.94,14.94,0,0,1,5.12.55l11.82,4C88.56,160,88.41,160.47,86.91,160.61Z"/><polygon class="b" points="71.05 156.85 48.91 158.93 48.4 158.76 70.55 156.68 71.05 156.85"/><polygon class="b" points="72.62 157.38 50.47 159.46 49.96 159.29 72.11 157.21 72.62 157.38"/><polygon class="b" points="74.19 157.91 52.04 159.99 51.53 159.82 73.68 157.74 74.19 157.91"/><polygon class="b" points="71.63 159.86 61.74 160.79 61.26 160.62 71.14 159.69 71.63 159.86"/><polygon class="b" points="73.13 160.37 63.25 161.3 62.76 161.13 72.65 160.21 73.13 160.37"/><path class="c" d="M70.68,163l26.06,4.12a10.79,10.79,0,0,0,4.6-.44l10.81-4.06c1.21-.45,1.12-1-.2-1.2l-26.06-4.12a10.79,10.79,0,0,0-4.6.44l-10.82,4.05C69.26,162.21,69.36,162.75,70.68,163Z"/><polygon class="b" points="85.07 159.3 104.6 162.39 105.06 162.22 85.53 159.13 85.07 159.3"/><polygon class="b" points="83.64 159.84 103.17 162.93 103.63 162.76 84.1 159.67 83.64 159.84"/><polygon class="b" points="82.2 160.38 101.73 163.47 102.19 163.29 82.66 160.21 82.2 160.38"/><polygon class="b" points="84.33 162.64 93.05 164.02 93.49 163.86 84.77 162.48 84.33 162.64"/><polygon class="b" points="82.95 163.16 91.67 164.54 92.11 164.37 83.39 162.99 82.95 163.16"/><path class="c" d="M51,166.52l26.32,1.93a10.72,10.72,0,0,0,4.54-.82l10.44-4.94c1.17-.55,1-1.09-.3-1.18l-26.32-1.93a10.72,10.72,0,0,0-4.54.82l-10.44,4.94C49.48,165.89,49.62,166.43,51,166.52Z"/><polygon class="b" points="64.99 161.68 84.71 163.13 85.16 162.92 65.44 161.47 64.99 161.68"/><polygon class="b" points="63.61 162.34 83.33 163.78 83.78 163.57 64.06 162.12 63.61 162.34"/><polygon class="b" points="62.22 162.99 81.94 164.44 82.39 164.23 62.67 162.78 62.22 162.99"/><polygon class="b" points="64.53 165.07 73.33 165.72 73.76 165.51 64.96 164.87 64.53 165.07"/><polygon class="b" points="63.2 165.7 72 166.35 72.43 166.15 63.63 165.5 63.2 165.7"/><path class="c" d="M41,163.79l26.3,2A10.76,10.76,0,0,0,71.8,165l10.46-4.9c1.17-.55,1-1.08-.3-1.18l-26.31-2a10.78,10.78,0,0,0-4.55.81l-10.46,4.9C39.48,163.15,39.61,163.68,41,163.79Z"/><polygon class="b" points="55 159 74.71 160.51 75.16 160.3 55.45 158.79 55 159"/><polygon class="b" points="53.62 159.64 73.33 161.16 73.78 160.95 54.06 159.44 53.62 159.64"/><polygon class="b" points="52.22 160.3 71.94 161.81 72.39 161.6 52.67 160.09 52.22 160.3"/><polygon class="b" points="54.53 162.38 63.33 163.06 63.75 162.86 54.96 162.18 54.53 162.38"/><polygon class="b" points="53.19 163.01 61.99 163.69 62.42 163.49 53.62 162.81 53.19 163.01"/></svg>