<?xml version="1.0" encoding="utf-8"?>
<!-- Generator: Adobe Illustrator 26.5.0, SVG Export Plug-In . SVG Version: 6.00 Build 0)  -->
<svg version="1.1" id="Layer_1" xmlns="http://www.w3.org/2000/svg" xmlns:xlink="http://www.w3.org/1999/xlink" x="0px" y="0px"
	 viewBox="0 0 180 206" style="enable-background:new 0 0 180 206;" xml:space="preserve">
<style type="text/css">
	.st0{fill:#FFFFFF;}
	.st1{fill:#D3D3D3;}
</style>
<g>
	<path class="st0" d="M86.9,160.6l-29.5,2.8c-1.7,0.1-3.5-0.1-5.1-0.6l-11.8-4c-1.3-0.4-1.2-0.9,0.3-1.1l29.6-2.8
		c1.7-0.1,3.5,0.1,5.1,0.6l11.8,4C88.6,160,88.4,160.5,86.9,160.6z"/>
	<path d="M56.4,163.7c-1.4,0-2.8-0.2-4.2-0.6l-11.8-4c-0.5-0.2-1.2-0.5-1.1-0.9c0-0.4,0.5-0.6,1.5-0.7l29.6-2.8
		c1.8-0.1,3.5,0.1,5.2,0.6l11.8,4c0.5,0.2,1.2,0.5,1.1,1c0,0.4-0.5,0.6-1.5,0.7l-29.6,2.8C57,163.7,56.7,163.7,56.4,163.7z
		 M39.9,158.3c0.1,0.1,0.3,0.2,0.6,0.3l11.8,4c1.6,0.5,3.3,0.7,5,0.5l29.5-2.8c0.5,0,0.7-0.1,0.9-0.2c-0.1-0.1-0.3-0.2-0.6-0.3
		l-11.8-4c-1.6-0.5-3.3-0.6-5-0.5l-29.6,2.8C40.3,158.1,40,158.2,39.9,158.3z"/>
	<polygon class="st1" points="71.1,156.9 48.9,158.9 48.4,158.8 70.6,156.7 	"/>
	<polygon class="st1" points="72.6,157.4 50.5,159.5 50,159.3 72.1,157.2 	"/>
	<polygon class="st1" points="74.2,157.9 52,160 51.5,159.8 73.7,157.7 	"/>
	<polygon class="st1" points="71.6,159.9 61.7,160.8 61.3,160.6 71.1,159.7 	"/>
	<polygon class="st1" points="73.1,160.4 63.2,161.3 62.8,161.1 72.7,160.2 	"/>
	<path class="st0" d="M70.7,163l26.1,4.1c1.5,0.2,3.1,0,4.6-0.4l10.8-4.1c1.2-0.4,1.1-1-0.2-1.2l-26.1-4.1c-1.5-0.2-3.1,0-4.6,0.4
		l-10.8,4.1C69.3,162.2,69.4,162.8,70.7,163z"/>
	<path d="M98,167.5c-0.4,0-0.9,0-1.3-0.1l-26.1-4.1c-0.8-0.2-1.3-0.4-1.3-0.9c0-0.4,0.3-0.7,1.1-1l10.8-4c1.5-0.5,3.2-0.6,4.7-0.5
		l26.1,4.1c0.8,0.1,1.3,0.4,1.3,0.8c0,0.4-0.3,0.7-1.1,1l-10.8,4.1C100.3,167.3,99.2,167.5,98,167.5z M70.7,162.7l26.1,4.1
		c1.5,0.2,3,0,4.5-0.4l10.8-4.1c0.5-0.2,0.6-0.3,0.6-0.4c0,0-0.2-0.1-0.8-0.2l-26.1-4.1c-1.5-0.2-3,0-4.5,0.4l-10.8,4
		c-0.5,0.2-0.6,0.3-0.6,0.3C70,162.4,70.1,162.6,70.7,162.7z"/>
	<polygon class="st1" points="85.1,159.3 104.6,162.4 105.1,162.2 85.5,159.1 	"/>
	<polygon class="st1" points="83.6,159.8 103.2,162.9 103.6,162.8 84.1,159.7 	"/>
	<polygon class="st1" points="82.2,160.4 101.7,163.5 102.2,163.3 82.7,160.2 	"/>
	<polygon class="st1" points="84.3,162.6 93.1,164 93.5,163.9 84.8,162.5 	"/>
	<polygon class="st1" points="82.9,163.2 91.7,164.5 92.1,164.4 83.4,163 	"/>
</g>
</svg>
