<?xml version="1.0" encoding="utf-8"?>
<!-- Generator: Adobe Illustrator 26.5.0, SVG Export Plug-In . SVG Version: 6.00 Build 0)  -->
<svg version="1.1" id="Layer_1" xmlns="http://www.w3.org/2000/svg" xmlns:xlink="http://www.w3.org/1999/xlink" x="0px" y="0px"
	 viewBox="0 0 180 206" style="enable-background:new 0 0 180 206;" xml:space="preserve">
<style type="text/css">
	.st0{fill:#FFFFFF;}
	.st1{fill:#D3D3D3;}
</style>
<path class="st0" d="M86.9,160.6l-29.5,2.8c-1.7,0.1-3.5-0.1-5.1-0.6l-11.8-4c-1.3-0.4-1.2-0.9,0.3-1.1l29.6-2.8
	c1.7-0.1,3.5,0.1,5.1,0.6l11.8,4C88.6,160,88.4,160.5,86.9,160.6z"/>
<path d="M56.4,163.7c-1.4,0-2.8-0.2-4.2-0.6l-11.8-4c-0.5-0.2-1.2-0.5-1.1-0.9c0-0.4,0.5-0.6,1.5-0.7l29.6-2.8
	c1.8-0.1,3.5,0.1,5.2,0.6l11.8,4c0.5,0.2,1.2,0.5,1.1,1c0,0.4-0.5,0.6-1.5,0.7l-29.6,2.8C57,163.7,56.7,163.7,56.4,163.7z
	 M39.9,158.3c0.1,0.1,0.3,0.2,0.6,0.3l11.8,4c1.6,0.5,3.3,0.7,5,0.5l29.5-2.8c0.5,0,0.7-0.1,0.9-0.2c-0.1-0.1-0.3-0.2-0.6-0.3
	l-11.8-4c-1.6-0.5-3.3-0.6-5-0.5l-29.6,2.8C40.3,158.1,40,158.2,39.9,158.3z"/>
<polygon class="st1" points="71.1,156.9 48.9,158.9 48.4,158.8 70.6,156.7 "/>
<polygon class="st1" points="72.6,157.4 50.5,159.5 50,159.3 72.1,157.2 "/>
<polygon class="st1" points="74.2,157.9 52,160 51.5,159.8 73.7,157.7 "/>
<polygon class="st1" points="71.6,159.9 61.7,160.8 61.3,160.6 71.1,159.7 "/>
<polygon class="st1" points="73.1,160.4 63.2,161.3 62.8,161.1 72.7,160.2 "/>
<path class="st0" d="M70.7,163l26.1,4.1c1.5,0.2,3.1,0,4.6-0.4l10.8-4.1c1.2-0.4,1.1-1-0.2-1.2l-26.1-4.1c-1.5-0.2-3.1,0-4.6,0.4
	l-10.8,4.1C69.3,162.2,69.4,162.8,70.7,163z"/>
<path d="M98,167.5c-0.4,0-0.9,0-1.3-0.1l-26.1-4.1c-0.8-0.2-1.3-0.4-1.3-0.9c0-0.4,0.3-0.7,1.1-1l10.8-4c1.5-0.5,3.2-0.6,4.7-0.5
	l26.1,4.1c0.8,0.1,1.3,0.4,1.3,0.8c0,0.4-0.3,0.7-1.1,1l-10.8,4.1C100.3,167.3,99.2,167.5,98,167.5z M70.7,162.7l26.1,4.1
	c1.5,0.2,3,0,4.5-0.4l10.8-4.1c0.5-0.2,0.6-0.3,0.6-0.4c0,0-0.2-0.1-0.8-0.2l-26.1-4.1c-1.5-0.2-3,0-4.5,0.4l-10.8,4
	c-0.5,0.2-0.6,0.3-0.6,0.3C70,162.4,70.1,162.6,70.7,162.7z"/>
<polygon class="st1" points="85.1,159.3 104.6,162.4 105.1,162.2 85.5,159.1 "/>
<polygon class="st1" points="83.6,159.8 103.2,162.9 103.6,162.8 84.1,159.7 "/>
<polygon class="st1" points="82.2,160.4 101.7,163.5 102.2,163.3 82.7,160.2 "/>
<polygon class="st1" points="84.3,162.6 93.1,164 93.5,163.9 84.8,162.5 "/>
<polygon class="st1" points="82.9,163.2 91.7,164.5 92.1,164.4 83.4,163 "/>
<path class="st0" d="M51,166.5l26.3,1.9c1.6,0.1,3.1-0.2,4.5-0.8l10.4-4.9c1.2-0.6,1-1.1-0.3-1.2l-26.3-1.9
	c-1.6-0.1-3.1,0.2-4.5,0.8l-10.4,4.9C49.5,165.9,49.6,166.4,51,166.5z"/>
<path d="M77.7,168.8c-0.1,0-0.3,0-0.4,0L51,166.8c-0.9-0.1-1.3-0.3-1.4-0.7c-0.1-0.4,0.3-0.8,1-1.1l10.4-4.9
	c1.5-0.6,3.1-0.9,4.7-0.8l26.3,1.9c0.8,0.1,1.3,0.3,1.4,0.7c0.1,0.4-0.2,0.8-1,1.1L82,167.9C80.6,168.5,79.2,168.8,77.7,168.8z
	 M50.2,166c0,0,0.2,0.1,0.8,0.2h0l26.3,1.9c1.5,0.1,3-0.2,4.4-0.8l10.4-4.9c0.5-0.2,0.6-0.4,0.6-0.4h0c0,0-0.2-0.1-0.8-0.2
	l-26.3-1.9c-1.5-0.1-3,0.2-4.4,0.8l-10.4,4.9C50.3,165.8,50.2,166,50.2,166C50.2,166,50.2,166,50.2,166z"/>
<polygon class="st1" points="65,161.7 84.7,163.1 85.2,162.9 65.4,161.5 "/>
<polygon class="st1" points="63.6,162.3 83.3,163.8 83.8,163.6 64.1,162.1 "/>
<polygon class="st1" points="62.2,163 81.9,164.4 82.4,164.2 62.7,162.8 "/>
<polygon class="st1" points="64.5,165.1 73.3,165.7 73.8,165.5 65,164.9 "/>
<polygon class="st1" points="63.2,165.7 72,166.4 72.4,166.1 63.6,165.5 "/>
<path class="st0" d="M41,163.8l26.3,2c1.5,0.1,3.1-0.2,4.5-0.8l10.5-4.9c1.2-0.6,1-1.1-0.3-1.2l-26.3-2c-1.6-0.1-3.1,0.2-4.5,0.8
	l-10.5,4.9C39.5,163.1,39.6,163.7,41,163.8z"/>
<path d="M67.7,166.1c-0.2,0-0.3,0-0.5,0l-26.3-2c-0.9-0.1-1.4-0.3-1.4-0.7c-0.1-0.4,0.3-0.7,1-1.1l10.5-4.9c1.5-0.6,3.1-0.9,4.7-0.8
	l26.3,2c0.8,0.1,1.3,0.3,1.4,0.7c0.1,0.4-0.3,0.8-1,1.1l-10.5,4.9C70.6,165.8,69.2,166.1,67.7,166.1z M41,163.5l26.3,2
	c1.5,0.1,3-0.2,4.4-0.8l10.4-4.9c0.5-0.2,0.6-0.4,0.6-0.4h0c0,0-0.2-0.1-0.8-0.2l-26.3-2c-1.5-0.1-3,0.2-4.4,0.8l-10.4,4.9
	c-0.4,0.2-0.6,0.3-0.6,0.4C40.2,163.3,40.4,163.4,41,163.5L41,163.5z"/>
<polygon class="st1" points="55,159 74.7,160.5 75.2,160.3 55.5,158.8 "/>
<polygon class="st1" points="53.6,159.6 73.3,161.2 73.8,160.9 54.1,159.4 "/>
<polygon class="st1" points="52.2,160.3 71.9,161.8 72.4,161.6 52.7,160.1 "/>
<polygon class="st1" points="54.5,162.4 63.3,163.1 63.8,162.9 55,162.2 "/>
<polygon class="st1" points="53.2,163 62,163.7 62.4,163.5 53.6,162.8 "/>
<path class="st0" d="M133.9,163.3l-26.3,3.2c-1.6,0.1-3.1-0.1-4.6-0.6l-10.7-4.4c-1.2-0.5-1.1-1,0.2-1.2l26.3-3.2
	c1.6-0.1,3.1,0.1,4.6,0.6l10.7,4.4C135.3,162.6,135.2,163.1,133.9,163.3z"/>
<path d="M106.7,166.9c-1.3,0-2.6-0.2-3.8-0.7l-10.7-4.4c-0.3-0.1-1.1-0.4-1-1c0-0.4,0.5-0.7,1.3-0.8l26.3-3.2
	c1.6-0.1,3.2,0.1,4.7,0.6l10.7,4.4c0.7,0.3,1.1,0.6,1,1c-0.1,0.4-0.5,0.7-1.3,0.8l-26.3,3.2C107.4,166.9,107,166.9,106.7,166.9z
	 M91.8,160.9c0,0,0.2,0.1,0.6,0.3l10.7,4.4c1.4,0.5,2.9,0.7,4.4,0.6l26.2-3.2c0.6-0.1,0.8-0.2,0.8-0.2c0,0-0.2-0.2-0.6-0.4
	l-10.7-4.4c-1.4-0.5-2.9-0.7-4.4-0.6l-26.3,3.2C92.1,160.7,91.9,160.9,91.8,160.9C91.8,160.9,91.8,160.9,91.8,160.9z"/>
<polygon class="st1" points="119.6,159.2 99.9,161.6 99.5,161.4 119.2,159 "/>
<polygon class="st1" points="121,159.8 101.3,162.2 100.9,162 120.6,159.6 "/>
<polygon class="st1" points="122.4,160.3 102.8,162.8 102.3,162.6 122,160.1 "/>
<polygon class="st1" points="120.2,162.5 111.4,163.6 111,163.4 119.8,162.4 "/>
<polygon class="st1" points="121.6,163.1 112.8,164.2 112.4,164 121.2,162.9 "/>
<path class="st0" d="M112.8,169.8L86.4,171c-1.6,0-3.1-0.3-4.5-1l-10.3-5.2c-1.2-0.6-1-1.1,0.3-1.2l26.4-1.2c1.6,0,3.1,0.3,4.5,1
	l10.3,5.2C114.3,169.2,114.2,169.7,112.8,169.8z"/>
<path d="M86.4,171.3c-1.6,0-3.2-0.3-4.7-1L71.4,165c-0.7-0.4-1-0.7-0.9-1.1c0.1-0.4,0.5-0.6,1.4-0.7l26.4-1.2c1.6,0,3.2,0.4,4.7,1
	l10.3,5.2c0.7,0.3,1,0.7,0.9,1.1c-0.1,0.4-0.6,0.6-1.4,0.7L86.4,171.3z M71.1,164.1c0,0,0.1,0.2,0.6,0.4l10.3,5.2
	c1.4,0.6,2.9,1,4.4,1l26.4-1.2c0.6,0,0.8-0.1,0.8-0.2c0,0-0.2-0.2-0.6-0.4l-10.3-5.2c-1.4-0.6-2.9-1-4.4-1l-26.4,1.2
	C71.3,163.9,71.1,164,71.1,164.1z"/>
<polygon class="st1" points="98.9,164.5 79.1,165.4 78.7,165.2 98.4,164.3 "/>
<polygon class="st1" points="100.3,165.2 80.4,166.1 80,165.9 99.8,165 "/>
<polygon class="st1" points="101.6,165.9 81.8,166.8 81.4,166.6 101.2,165.7 "/>
<polygon class="st1" points="99.3,167.9 90.4,168.3 90,168.1 98.8,167.7 "/>
<polygon class="st1" points="100.6,168.6 91.7,169 91.3,168.8 100.2,168.4 "/>
<path class="st0" d="M47.9,161.8l25.2,1c1.5,0,3-0.3,4.3-1l9.8-5.3c1.1-0.6,1-1.1-0.3-1.2l-25.1-1c-1.5,0-3,0.3-4.3,1l-9.8,5.3
	C46.5,161.2,46.6,161.8,47.9,161.8z"/>
<path d="M73,163.1l-25.2-1c-0.8,0-1.2-0.2-1.3-0.6c-0.1-0.4,0.2-0.8,0.9-1.1l9.8-5.3c1.4-0.7,2.9-1,4.5-1l25.2,1
	c0.8,0,1.3,0.2,1.4,0.6c0.1,0.4-0.2,0.7-0.9,1.1l-9.8,5.3C76.1,162.7,74.6,163.1,73,163.1z M47.1,161.4c0,0,0.2,0.1,0.8,0.1h0
	l25.1,1c1.4,0,2.9-0.3,4.2-1l9.8-5.3c0.5-0.3,0.6-0.4,0.6-0.5c0,0-0.2-0.1-0.8-0.1l-25.1-1c-1.4,0-2.9,0.3-4.2,1l-9.8,5.3
	C47.2,161.2,47.1,161.3,47.1,161.4C47.1,161.4,47.1,161.4,47.1,161.4z"/>
<polygon class="st1" points="61.1,156.5 80,157.3 80.4,157 61.5,156.3 "/>
<polygon class="st1" points="59.8,157.2 78.7,158 79.1,157.7 60.2,157 "/>
<polygon class="st1" points="58.5,157.9 77.4,158.7 77.8,158.4 58.9,157.7 "/>
<polygon class="st1" points="60.8,159.9 69.2,160.2 69.6,160 61.2,159.7 "/>
<polygon class="st1" points="59.5,160.6 67.9,160.9 68.3,160.7 59.9,160.4 "/>
<path class="st0" d="M120.9,166.3l-26.4,1c-1.6,0-3.1-0.3-4.5-1l-10.3-5.2c-1.2-0.6-1-1.1,0.3-1.2l26.4-1c1.6,0,3.1,0.3,4.5,1
	l10.3,5.3C122.4,165.8,122.3,166.3,120.9,166.3z"/>
<path d="M94.5,167.6c-1.6,0-3.2-0.3-4.7-1l-10.3-5.2c-0.7-0.4-1-0.7-0.9-1.1c0.1-0.4,0.6-0.6,1.4-0.6l26.4-1c1.6,0,3.2,0.4,4.7,1
	l10.3,5.3c0.7,0.3,1,0.7,0.9,1.1c-0.1,0.4-0.6,0.6-1.4,0.6L94.5,167.6z M79.2,160.4c0,0,0.1,0.2,0.6,0.4l10.3,5.2
	c1.4,0.6,2.9,1,4.4,1l26.4-1c0.6,0,0.8-0.1,0.8-0.2c0,0-0.2-0.2-0.6-0.4l-10.3-5.3c-1.4-0.6-2.9-1-4.4-1l-26.4,1
	C79.4,160.3,79.3,160.4,79.2,160.4z"/>
<polygon class="st1" points="107,161 87.2,161.8 86.8,161.6 106.6,160.8 "/>
<polygon class="st1" points="108.4,161.7 88.6,162.5 88.1,162.3 107.9,161.5 "/>
<polygon class="st1" points="109.8,162.4 89.9,163.2 89.5,163 109.3,162.2 "/>
<polygon class="st1" points="107.4,164.4 98.5,164.8 98.1,164.6 106.9,164.2 "/>
<polygon class="st1" points="108.7,165.1 99.8,165.4 99.4,165.2 108.2,164.9 "/>
<path class="st0" d="M65.7,164.4l25.3,0.8c1.5,0,3-0.3,4.3-1l9.8-5.4c1.1-0.6,0.9-1.1-0.3-1.2l-25.3-0.8c-1.5,0-3,0.3-4.3,1
	l-9.8,5.4C64.3,163.8,64.4,164.3,65.7,164.4z"/>
<path d="M91.1,165.5l-25.3-0.8c-0.8,0-1.3-0.2-1.4-0.6c-0.1-0.4,0.2-0.8,0.9-1.1l9.8-5.4c1.4-0.7,2.9-1,4.5-1l25.3,0.8
	c0.8,0,1.3,0.2,1.4,0.6c0.1,0.4-0.2,0.8-0.9,1.1l-9.8,5.4C94.1,165.1,92.6,165.5,91.1,165.5z M65,163.9c0,0,0.2,0.1,0.8,0.1h0
	l25.3,0.8c1.4,0,2.9-0.3,4.2-1l9.8-5.4c0.5-0.3,0.6-0.4,0.6-0.5c0,0-0.2-0.1-0.8-0.1l-25.3-0.8c-1.4,0-2.9,0.3-4.2,1l-9.8,5.4
	C65.1,163.7,65,163.9,65,163.9C65,163.9,65,163.9,65,163.9z"/>
<polygon class="st1" points="79,158.9 98,159.6 98.4,159.3 79.4,158.7 "/>
<polygon class="st1" points="77.7,159.6 96.7,160.3 97.1,160.1 78.1,159.4 "/>
<polygon class="st1" points="76.4,160.4 95.4,161 95.8,160.8 76.8,160.1 "/>
<polygon class="st1" points="78.7,162.4 87.2,162.6 87.6,162.4 79.1,162.1 "/>
<polygon class="st1" points="77.4,163 85.9,163.3 86.3,163.1 77.8,162.8 "/>
<path class="st0" d="M123.7,165.8l-25.6,3.3c-1.5,0.1-3,0-4.5-0.5l-10.4-4.2c-1.2-0.5-1.1-1,0.2-1.1l25.6-3.3c1.5-0.1,3,0.1,4.5,0.6
	l10.4,4.2C125.1,165.1,125,165.6,123.7,165.8z"/>
<path d="M97.1,169.4c-1.2,0-2.4-0.2-3.6-0.6l-10.5-4.2c-0.7-0.3-1-0.6-1-1c0.1-0.4,0.5-0.6,1.3-0.7l25.6-3.3c1.6-0.1,3.1,0,4.6,0.6
	l10.5,4.2c0.7,0.3,1.1,0.6,1,1c0,0.4-0.5,0.6-1.3,0.7l-25.6,3.3C97.8,169.4,97.5,169.4,97.1,169.4z M82.7,163.7c0,0,0.1,0.2,0.6,0.3
	l10.5,4.2c1.4,0.5,2.9,0.7,4.3,0.5l25.6-3.3c0.6-0.1,0.7-0.2,0.8-0.2c0,0-0.2-0.2-0.6-0.3l-10.5-4.2c-1.4-0.5-2.9-0.7-4.3-0.5
	l-25.6,3.3C82.9,163.6,82.7,163.7,82.7,163.7z"/>
<polygon class="st1" points="109.8,161.9 90.6,164.4 90.1,164.2 109.3,161.8 "/>
<polygon class="st1" points="111.1,162.5 92,164.9 91.5,164.8 110.7,162.3 "/>
<polygon class="st1" points="112.5,163 93.3,165.5 92.9,165.3 112.1,162.9 "/>
<polygon class="st1" points="110.4,165.1 101.8,166.2 101.4,166.1 109.9,165 "/>
<polygon class="st1" points="111.7,165.7 103.2,166.8 102.7,166.6 111.3,165.5 "/>
<path class="st0" d="M79.8,157.8l-21.5,4.1c-1.3,0.2-2.6,0.1-3.9-0.2l-9.3-3c-1-0.3-1-0.8,0.1-1l21.5-4.1c1.3-0.2,2.6-0.1,3.9,0.2
	l9.3,3C81,157.2,80.9,157.6,79.8,157.8z"/>
<path d="M57,162.2c-0.8,0-1.7-0.1-2.5-0.3l-9.3-3c-0.6-0.2-0.8-0.4-0.8-0.7c0-0.3,0.3-0.5,0.9-0.6l21.5-4.1c1.3-0.2,2.6-0.1,3.9,0.2
	l9.4,3c0.6,0.2,0.9,0.4,0.9,0.7c0,0.3-0.3,0.5-1,0.6l-21.5,4.1C57.9,162.1,57.5,162.2,57,162.2z M68.1,153.6c-0.5,0-0.9,0-1.4,0.1
	l-21.4,4.1c-0.6,0.1-0.7,0.3-0.7,0.3c0,0.1,0.1,0.2,0.7,0.4l9.3,3c1.2,0.3,2.5,0.4,3.8,0.2l21.4-4.1c0.6-0.1,0.7-0.3,0.7-0.3
	c0-0.1-0.1-0.2-0.7-0.4l-9.3-3C69.7,153.7,68.9,153.6,68.1,153.6z"/>
<polygon class="st1" points="67.6,155.3 51.5,158.3 51.1,158.2 67.2,155.1 "/>
<polygon class="st1" points="68.8,155.7 52.7,158.7 52.3,158.6 68.4,155.5 "/>
<polygon class="st1" points="70,156.1 54,159.1 53.5,159 69.6,155.9 "/>
<polygon class="st1" points="68.4,158 61.2,159.3 60.9,159.2 68,157.9 "/>
<polygon class="st1" points="69.6,158.4 62.4,159.7 62,159.6 69.2,158.2 "/>
<path class="st0" d="M99,165.1H78.2c-1.4-0.1-2.9-0.3-4.3-0.8l-11.6-3.7c-1.3-0.4-1.5-0.8-0.5-0.8h20.7c1.5,0.1,2.9,0.3,4.3,0.8
	l11.6,3.7C99.8,164.8,100,165.1,99,165.1z"/>
<path d="M99,165.4H78.2c-1.5-0.1-2.9-0.3-4.4-0.8l-11.6-3.7c-1.1-0.4-1.4-0.6-1.3-0.9c0.1-0.3,0.5-0.4,0.9-0.4h20.8
	c1.5,0.1,3,0.3,4.4,0.8l11.6,3.7c1.2,0.4,1.4,0.6,1.3,0.9C99.8,165.4,99.3,165.4,99,165.4z M61.8,160.2c0.1,0.1,0.3,0.1,0.6,0.2
	l11.6,3.7c1.4,0.4,2.8,0.7,4.2,0.7l20.8,0c0,0,0,0,0,0c-0.1-0.1-0.3-0.1-0.6-0.2l-11.6-3.7c-1.4-0.4-2.8-0.7-4.2-0.7L61.8,160.2
	C61.8,160.2,61.8,160.2,61.8,160.2z"/>
<polygon class="st1" points="84.4,161.3 68.8,161.3 68.3,161.1 83.9,161.1 "/>
<polygon class="st1" points="85.9,161.8 70.4,161.8 69.9,161.6 85.4,161.6 "/>
<polygon class="st1" points="87.5,162.3 71.9,162.3 71.4,162.1 87,162.1 "/>
<polygon class="st1" points="86.8,163.5 79.8,163.5 79.4,163.4 86.3,163.4 "/>
<polygon class="st1" points="88.3,164 81.3,164 80.8,163.8 87.8,163.8 "/>
<path class="st0" d="M96.2,158.6l16.1,2c1.5,0,3.1-0.1,4.6-0.5l15.2-3.1c1.7-0.4,2.4-0.7,1.6-0.8l-16.1-2c-1.5,0-3.1,0.1-4.6,0.4
	l-15.2,3.1C96.1,158.1,95.4,158.5,96.2,158.6z"/>
<path d="M112.7,160.8c-0.1,0-0.3,0-0.4,0l-16.2-2c-0.1,0-0.5-0.1-0.6-0.4c0-0.2,0-0.5,2.1-0.9l15.2-3.1c1.5-0.3,3.1-0.5,4.6-0.5
	l16.2,2c0.1,0,0.5,0.1,0.6,0.4c0,0.2,0,0.5-2.1,0.9l-15.2,3.1C115.6,160.7,114.2,160.8,112.7,160.8z M96.5,158.3l15.9,2
	c1.5,0,3-0.1,4.5-0.5l15.2-3.1c0.7-0.1,1.1-0.3,1.4-0.4l-15.9-2c-1.5,0-3,0.1-4.5,0.4L97.9,158C97.2,158.1,96.8,158.2,96.5,158.3z"
	/>
<polygon class="st1" points="113.9,155.6 125.9,157.1 126.6,156.9 114.5,155.5 "/>
<polygon class="st1" points="111.8,156 123.9,157.5 124.6,157.4 112.5,155.9 "/>
<polygon class="st1" points="109.8,156.4 121.9,157.9 122.6,157.8 110.5,156.3 "/>
<polygon class="st1" points="108.3,157.9 113.7,158.6 114.3,158.4 108.9,157.8 "/>
<polygon class="st1" points="106.4,158.3 111.8,159 112.4,158.8 107,158.2 "/>
<path class="st0" d="M81.1,161l18.6,4.4c1.7,0.2,3.4,0.1,5.1-0.2l16.8-3.1c1.9-0.4,2.6-0.8,1.7-1l-18.7-4.4
	c-1.7-0.2-3.4-0.1-5.1,0.2L82.8,160C80.9,160.3,80.2,160.8,81.1,161z"/>
<path d="M101.6,165.7c-0.6,0-1.2,0-1.9-0.1l-18.7-4.4c-0.2,0-0.6-0.1-0.6-0.5c0-0.2,0-0.6,2.3-1l16.8-3.1c1.7-0.3,3.5-0.4,5.2-0.2
	l18.7,4.4c0.1,0,0.6,0.1,0.6,0.5c0,0.2,0,0.6-2.3,1l-16.8,3.1C103.8,165.6,102.7,165.7,101.6,165.7z M81.1,160.7
	C81.2,160.7,81.2,160.7,81.1,160.7L81.1,160.7l18.7,4.4c1.6,0.2,3.3,0.1,5-0.2l16.8-3.1c0.9-0.2,1.4-0.3,1.7-0.5l-18.7-4.4
	c-1.6-0.2-3.3-0.1-5,0.2l-16.8,3.1C81.9,160.4,81.4,160.6,81.1,160.7z"/>
<polygon class="st1" points="100.7,158.4 114.7,161.6 115.4,161.5 101.4,158.2 "/>
<polygon class="st1" points="98.5,158.8 112.5,162 113.2,161.9 99.2,158.6 "/>
<polygon class="st1" points="96.2,159.2 110.2,162.4 110.9,162.3 97,159.1 "/>
<polygon class="st1" points="94.8,161.2 101,162.6 101.7,162.5 95.4,161.1 "/>
<polygon class="st1" points="92.6,161.6 98.8,163 99.5,162.9 93.3,161.4 "/>
<path class="st0" d="M45.5,161.3l16.4,3.1c1.8,0.1,3.6,0,5.4-0.4l19.2-3.1c2.1-0.4,3.2-0.8,2.4-0.9l-16.3-3.1
	c-1.8-0.1-3.6,0-5.4,0.4l-19.2,3.1C45.7,160.7,44.6,161.1,45.5,161.3z"/>
<path d="M63.1,164.6c-0.4,0-0.8,0-1.3,0l-16.4-3.1c-0.1,0-0.5-0.1-0.5-0.4c0-0.2,0-0.5,2.9-1L67,157c1.8-0.3,3.6-0.5,5.5-0.4
	l16.4,3.1c0.1,0,0.5,0.1,0.5,0.4c0,0.2,0,0.5-2.9,1l-19.1,3.1C65.9,164.5,64.5,164.6,63.1,164.6z M45.7,161.1l16.2,3
	c1.8,0.1,3.5,0,5.3-0.4l19.2-3.2c1.2-0.2,1.8-0.4,2.2-0.5l-16.2-3c-1.8-0.1-3.6,0-5.3,0.4l-19.2,3.2C46.7,160.8,46.1,161,45.7,161.1
	z"/>
<polygon class="st1" points="67.2,158.4 79.5,160.7 80.3,160.6 68,158.3 "/>
<polygon class="st1" points="64.7,158.9 76.9,161.2 77.8,161 65.5,158.7 "/>
<polygon class="st1" points="62.1,159.3 74.4,161.6 75.2,161.4 63,159.1 "/>
<polygon class="st1" points="59.3,161 64.8,162 65.6,161.9 60.1,160.9 "/>
<polygon class="st1" points="56.9,161.4 62.4,162.4 63.2,162.3 57.7,161.3 "/>
<path class="st0" d="M81.7,159.8l18.6-4.2c1.1-0.2,2.3-0.1,3.4,0.2l8.1,3.1c0.9,0.4,0.9,0.8-0.1,1l-18.6,4.2
	c-1.1,0.2-2.3,0.1-3.4-0.2l-8.1-3.1C80.8,160.4,80.8,160,81.7,159.8z"/>
<path d="M91.9,164.3c-0.7,0-1.5-0.1-2.2-0.4l-8.1-3.1c-0.6-0.2-0.7-0.5-0.7-0.7c0-0.2,0.2-0.4,0.8-0.6h0l18.6-4.2
	c1.1-0.2,2.3-0.1,3.4,0.2l8.1,3.1c0.6,0.2,0.8,0.5,0.7,0.7c0,0.2-0.2,0.4-0.8,0.5l-18.6,4.2C92.7,164.3,92.3,164.3,91.9,164.3z
	 M81.8,159.9c-0.5,0.1-0.6,0.3-0.6,0.4c0,0.1,0.1,0.3,0.6,0.4l8.1,3.1c1.1,0.4,2.2,0.4,3.3,0.2l18.6-4.2c0.5-0.1,0.6-0.2,0.6-0.3
	c0-0.1-0.1-0.3-0.6-0.4l-8.1-3.1c-1.1-0.3-2.2-0.4-3.3-0.2L81.8,159.9z"/>
<polygon class="st1" points="92.4,162.4 106.3,159.2 106.6,159.4 92.7,162.6 "/>
<polygon class="st1" points="91.3,162 105.2,158.8 105.6,159 91.7,162.2 "/>
<polygon class="st1" points="90.2,161.6 104.2,158.4 104.5,158.6 90.6,161.8 "/>
<polygon class="st1" points="91.6,159.6 97.8,158.2 98.2,158.3 92,159.8 "/>
<polygon class="st1" points="90.6,159.2 96.8,157.8 97.1,157.9 90.9,159.4 "/>
<path class="st0" d="M65.2,152.2h18c1.3,0.1,2.5,0.3,3.7,0.8l10.1,3.8c1.1,0.4,1.3,0.8,0.4,0.8h-18c-1.3-0.1-2.5-0.3-3.7-0.8
	L65.6,153C64.5,152.6,64.3,152.2,65.2,152.2z"/>
<path d="M97.4,157.9h-18c-1.3-0.1-2.6-0.3-3.8-0.8l-10.1-3.9c-0.8-0.3-1.2-0.6-1.1-0.9c0.1-0.4,0.6-0.4,0.8-0.4h18
	c1.3,0.1,2.6,0.3,3.8,0.8l10.1,3.8c0.9,0.3,1.2,0.6,1.1,0.9C98.1,157.9,97.6,157.9,97.4,157.9z M65.1,152.5c0.1,0.1,0.3,0.1,0.6,0.2
	l10.1,3.9c1.2,0.4,2.4,0.7,3.6,0.8h18c0,0,0.1,0,0.1,0c-0.1-0.1-0.3-0.2-0.6-0.3l-10.1-3.8c-1.2-0.4-2.4-0.7-3.6-0.8L65.1,152.5
	C65.2,152.5,65.1,152.5,65.1,152.5z"/>
<polygon class="st1" points="77.8,156.2 91.3,156.2 91.7,156.4 78.2,156.4 "/>
<polygon class="st1" points="76.5,155.7 89.9,155.7 90.4,155.9 76.9,155.9 "/>
<polygon class="st1" points="75.1,155.2 88.6,155.2 89,155.4 75.6,155.4 "/>
<polygon class="st1" points="75.7,153.9 81.7,153.9 82.2,154.1 76.2,154.1 "/>
<polygon class="st1" points="74.4,153.4 80.4,153.4 80.9,153.6 74.9,153.6 "/>
<path class="st0" d="M67.6,159l-14-2c-1.3,0-2.7,0.1-4,0.5l-13.2,3.2c-1.5,0.4-2.1,0.7-1.4,0.9l14,2c1.3,0,2.7-0.1,4-0.5l13.1-3.2
	C67.7,159.5,68.3,159.1,67.6,159z"/>
<path d="M49.5,163.8c-0.1,0-0.3,0-0.4,0l-14-2c-0.1,0-0.5-0.1-0.5-0.4c0-0.2,0-0.5,1.8-0.9l13.1-3.2c1.3-0.4,2.7-0.5,4.1-0.5l14,2
	c0.3,0.1,0.5,0.2,0.5,0.4c0,0.1,0,0.5-1.9,0.9l-13.1,3.2C51.9,163.6,50.7,163.8,49.5,163.8z M35.2,161.3l13.9,2
	c1.3,0,2.6-0.1,3.9-0.5l13.1-3.2c0.7-0.2,1.1-0.3,1.3-0.4l-13.9-2c-1.3,0-2.6,0.1-3.9,0.5l-13.2,3.2
	C35.8,161.1,35.4,161.2,35.2,161.3z"/>
<polygon class="st1" points="52.3,162.1 41.8,160.6 41.3,160.7 51.7,162.2 "/>
<polygon class="st1" points="54,161.7 43.6,160.1 43,160.3 53.5,161.8 "/>
<polygon class="st1" points="55.8,161.2 45.3,159.7 44.8,159.9 55.2,161.4 "/>
<polygon class="st1" points="57.1,159.7 52.4,159 51.9,159.2 56.6,159.8 "/>
<polygon class="st1" points="58.8,159.3 54.1,158.6 53.6,158.8 58.2,159.4 "/>
<path class="st0" d="M82.8,155.8l-16.1-4.5c-1.5-0.2-3-0.1-4.4,0.2l-14.5,3.2c-1.6,0.4-2.3,0.8-1.5,1.1l16.1,4.5
	c1.5,0.2,3,0.1,4.4-0.2l14.5-3.2C83,156.5,83.6,156.1,82.8,155.8z"/>
<path d="M64,160.7c-0.6,0-1.1,0-1.7-0.1l-16.2-4.5c-0.4-0.1-0.6-0.3-0.5-0.5c0-0.2,0-0.6,2-1.1l14.5-3.2c1.5-0.4,3-0.4,4.5-0.2
	l16.2,4.5c0.4,0.1,0.6,0.3,0.6,0.5c0,0.2,0,0.6-2,1l-14.5,3.2C65.9,160.6,65,160.7,64,160.7z M46.2,155.6
	C46.2,155.6,46.3,155.6,46.2,155.6l16.2,4.5c1.4,0.2,2.9,0.1,4.3-0.2l14.5-3.2c1-0.2,1.4-0.4,1.6-0.5c0,0-0.1,0-0.1,0l-16.1-4.5
	c-1.4-0.2-2.9-0.1-4.3,0.2L47.8,155C46.8,155.2,46.4,155.4,46.2,155.6z"/>
<polygon class="st1" points="65.8,158.6 53.7,155.2 53.1,155.3 65.2,158.7 "/>
<polygon class="st1" points="67.8,158.1 55.7,154.8 55,154.9 67.1,158.3 "/>
<polygon class="st1" points="69.7,157.7 57.6,154.3 57,154.5 69.1,157.9 "/>
<polygon class="st1" points="71,155.6 65.6,154.1 65,154.3 70.4,155.8 "/>
<polygon class="st1" points="72.8,155.2 67.4,153.7 66.8,153.9 72.2,155.4 "/>
<path class="st0" d="M126.9,156.8l-14.2-3.2c-1.6-0.1-3.1,0-4.7,0.4l-16.6,3.3c-1.8,0.4-2.8,0.8-2.1,1l14.2,3.2
	c1.6,0.1,3.1,0,4.7-0.4l16.6-3.3C126.7,157.4,127.6,156.9,126.9,156.8z"/>
<path d="M104.6,161.7c-0.4,0-0.7,0-1.1,0l-14.2-3.2c-0.3-0.1-0.4-0.2-0.4-0.4c0-0.2,0-0.5,2.5-1l16.6-3.3c1.5-0.3,3.1-0.5,4.7-0.4
	l14.2,3.2c0.3,0.1,0.4,0.2,0.4,0.4c0,0.2,0,0.5-2.5,1.1l-16.6,3.3C107.1,161.5,105.8,161.7,104.6,161.7z M89.5,158l14.1,3.2
	c1.5,0.1,3.1,0,4.6-0.4l16.6-3.3c1.1-0.2,1.7-0.4,1.9-0.6l-14-3.2c-1.5-0.1-3.1,0-4.6,0.4l-16.6,3.3C90.3,157.7,89.8,157.9,89.5,158
	z"/>
<polygon class="st1" points="108,159.7 97.4,157.3 96.7,157.5 107.3,159.9 "/>
<polygon class="st1" points="110.2,159.3 99.6,156.9 98.9,157 109.5,159.4 "/>
<polygon class="st1" points="112.4,158.9 101.8,156.5 101.1,156.6 111.7,159 "/>
<polygon class="st1" points="114.9,157.1 110.1,156 109.4,156.1 114.2,157.2 "/>
<polygon class="st1" points="117,156.6 112.2,155.6 111.6,155.7 116.3,156.8 "/>
<path class="st0" d="M110.9,153l-22.2-3.8c-1.3-0.2-2.7,0-3.9,0.4l-9.2,3.6c-1,0.4-1,0.9,0.2,1.1l22.2,3.8c1.3,0.2,2.7,0,3.9-0.4
	l9.2-3.6C112.1,153.7,112,153.2,110.9,153z"/>
<path d="M99,158.5c-0.4,0-0.8,0-1.2-0.1l-22.3-3.8c-0.7-0.1-1.1-0.4-1.1-0.7c0-0.3,0.3-0.7,0.9-0.9l9.3-3.7c1.3-0.4,2.7-0.6,4.1-0.4
	l22.3,3.8c0.7,0.1,1.1,0.4,1.1,0.7c0,0.3-0.3,0.7-0.9,0.9l-9.3,3.6C100.9,158.3,100,158.5,99,158.5z M75,153.8c0,0,0.1,0.1,0.7,0.2
	l22.2,3.8c1.3,0.2,2.6,0,3.8-0.4l9.2-3.6c0.5-0.2,0.5-0.3,0.6-0.3c0,0,0,0,0,0c0,0-0.1-0.1-0.7-0.2l-22.2-3.8
	c-1.3-0.2-2.6,0-3.8,0.4l-9.2,3.6C75.1,153.7,75,153.8,75,153.8L75,153.8z"/>
<polygon class="st1" points="98.6,156.3 81.9,153.4 81.5,153.6 98.2,156.4 "/>
<polygon class="st1" points="99.8,155.8 83.1,152.9 82.7,153.1 99.4,156 "/>
<polygon class="st1" points="101,155.3 84.3,152.5 83.9,152.6 100.6,155.5 "/>
<polygon class="st1" points="99.2,153.3 91.8,152 91.4,152.1 98.8,153.4 "/>
<polygon class="st1" points="100.4,152.8 92.9,151.5 92.6,151.7 100,152.9 "/>
<path class="st0" d="M137.3,158.2l-22.5-1.9c-1.3-0.1-2.6,0.2-3.8,0.7l-9,4.4c-1,0.5-0.9,1,0.2,1.1l22.5,1.9
	c1.3,0.1,2.7-0.2,3.9-0.7l9-4.4C138.6,158.8,138.4,158.3,137.3,158.2z"/>
<path d="M125.1,164.7c-0.1,0-0.3,0-0.4,0l-22.5-1.9c-0.7,0-1.1-0.3-1.2-0.6c-0.1-0.3,0.2-0.7,0.8-1l9-4.4c1.3-0.5,2.6-0.8,4-0.7
	l22.5,1.9c0.7,0.1,1.1,0.3,1.2,0.6c0.1,0.3-0.2,0.7-0.8,1l-9,4.4C127.6,164.5,126.3,164.7,125.1,164.7z M114.4,156.6
	c-1.1,0-2.3,0.2-3.3,0.7l-9,4.4c-0.4,0.2-0.5,0.4-0.5,0.4c0,0,0.2,0.1,0.7,0.2l22.5,1.9c1.3,0.1,2.6-0.2,3.7-0.7l9-4.4
	c0.4-0.2,0.5-0.3,0.5-0.4c0,0-0.2-0.1-0.7-0.2l-22.5-1.9C114.7,156.6,114.6,156.6,114.4,156.6z"/>
<polygon class="st1" points="125.3,162.5 108.4,161.1 108.1,161.3 124.9,162.7 "/>
<polygon class="st1" points="126.5,161.9 109.6,160.5 109.2,160.7 126.1,162.1 "/>
<polygon class="st1" points="127.7,161.4 110.8,159.9 110.4,160.1 127.3,161.6 "/>
<polygon class="st1" points="125.7,159.5 118.2,158.8 117.8,159 125.3,159.6 "/>
<polygon class="st1" points="126.8,158.9 119.3,158.2 119,158.4 126.5,159.1 "/>
<path class="st0" d="M56.9,152.5l22.4-2.9c1.3-0.1,2.7,0.1,3.9,0.6l9.1,4c1,0.4,0.9,0.9-0.2,1.1l-22.4,2.9c-1.3,0.1-2.7-0.1-3.9-0.6
	l-9.1-4C55.6,153.1,55.7,152.6,56.9,152.5z"/>
<path d="M68.9,158.5c-1.1,0-2.2-0.2-3.3-0.6l-9.1-4c-0.6-0.3-0.9-0.6-0.9-1c0.1-0.4,0.4-0.6,1.1-0.7l22.4-2.8
	c1.4-0.1,2.8,0.1,4.1,0.6l9.1,4c0.6,0.3,0.9,0.6,0.9,0.9c-0.1,0.4-0.4,0.6-1.2,0.7l-22.4,2.9C69.5,158.5,69.2,158.5,68.9,158.5z
	 M56.2,153c0,0,0.1,0.2,0.6,0.4l9.1,4c1.2,0.5,2.5,0.7,3.8,0.5l22.4-2.9c0.5-0.1,0.7-0.2,0.7-0.2c0,0-0.1-0.1-0.5-0.3l-9.1-4
	c-1.2-0.5-2.5-0.6-3.8-0.5l-22.4,2.8C56.4,152.8,56.3,153,56.2,153L56.2,153z"/>
<polygon class="st1" points="69.1,156.3 85.9,154.2 86.3,154.3 69.4,156.5 "/>
<polygon class="st1" points="67.9,155.8 84.7,153.6 85.1,153.8 68.2,155.9 "/>
<polygon class="st1" points="66.6,155.2 83.4,153.1 83.8,153.3 67,155.4 "/>
<polygon class="st1" points="68.5,153.2 76,152.3 76.4,152.5 68.9,153.4 "/>
<polygon class="st1" points="67.4,152.7 74.9,151.8 75.2,151.9 67.8,152.9 "/>
<path class="st0" d="M51.5,155.4l18.9-3.5c1.3-0.1,2.7,0.1,3.9,0.6l10.9,4.3c1.2,0.5,1.4,1,0.5,1.2l-18.9,3.5
	c-1.4,0.1-2.7-0.1-4-0.6l-10.9-4.3C50.7,156.1,50.5,155.5,51.5,155.4z"/>
<path d="M65.9,161.7c-1.1,0-2.2-0.2-3.2-0.6l-10.9-4.3c-0.6-0.2-1.2-0.6-1.2-1.1c0-0.3,0.3-0.5,0.8-0.6l18.9-3.5
	c1.4-0.1,2.8,0.1,4.1,0.6l10.9,4.3c0.8,0.3,1.2,0.7,1.2,1.1c0,0.3-0.3,0.5-0.8,0.6l-18.9,3.5C66.5,161.7,66.2,161.7,65.9,161.7z
	 M71.2,152c-0.3,0-0.5,0-0.8,0l-18.9,3.5c-0.4,0.1-0.4,0.2-0.4,0.2c0,0,0.2,0.3,0.9,0.6l10.9,4.3c1.2,0.5,2.6,0.7,3.9,0.5l18.9-3.5
	c0.3-0.1,0.4-0.2,0.4-0.2l0,0c0,0-0.1-0.2-0.9-0.6l-10.9-4.3C73.3,152.2,72.2,152,71.2,152z"/>
<polygon class="st1" points="65,159.4 79.2,156.7 79.7,156.9 65.5,159.6 "/>
<polygon class="st1" points="63.6,158.8 77.8,156.2 78.2,156.4 64,159 "/>
<polygon class="st1" points="62.1,158.2 76.3,155.6 76.8,155.8 62.6,158.4 "/>
<polygon class="st1" points="62.7,156 69,154.8 69.4,155 63.1,156.2 "/>
<polygon class="st1" points="61.3,155.4 67.6,154.3 68.1,154.4 61.7,155.6 "/>
<path class="st0" d="M84,155.5l-17.4-2.2c-1.7,0-3.4,0.2-5,0.6l-16.5,3.9c-1.8,0.4-2.6,0.9-1.8,1l17.5,2.2c1.7,0,3.4-0.2,5-0.6
	l16.5-3.9C84.1,156,84.9,155.6,84,155.5z"/>
<path d="M61.1,161.2c-0.1,0-0.2,0-0.3,0L43.3,159c-0.1,0-0.6-0.1-0.6-0.4c0-0.2,0-0.6,2.3-1.1l16.5-3.9c1.7-0.4,3.4-0.6,5.1-0.6
	l17.5,2.2c0.2,0,0.6,0.1,0.6,0.4c0,0.2,0,0.5-2.3,1.1l-16.5,3.9C64.3,161,62.7,161.2,61.1,161.2z M43.5,158.4l17.3,2.2
	c1.6,0,3.3-0.2,4.9-0.6l16.5-3.9c0.8-0.2,1.3-0.4,1.5-0.5l-17.2-2.2c-1.6,0-3.3,0.2-4.9,0.6L45.1,158
	C44.3,158.2,43.8,158.3,43.5,158.4z"/>
<polygon class="st1" points="64.8,159.2 51.8,157.5 51,157.7 64.1,159.3 "/>
<polygon class="st1" points="67,158.7 53.9,157 53.2,157.2 66.3,158.8 "/>
<polygon class="st1" points="69.2,158.1 56.1,156.5 55.4,156.7 68.5,158.3 "/>
<polygon class="st1" points="70.9,156.4 65,155.6 64.4,155.8 70.2,156.5 "/>
<polygon class="st1" points="73,155.9 67.2,155.1 66.5,155.3 72.3,156 "/>
<path class="st0" d="M104.1,158.5l-19-2.8c-1.4-0.1-2.9,0-4.2,0.2l-12.3,2.4c-1.4,0.3-1.7,0.6-0.8,0.8l19,2.8c1.4,0.1,2.9,0,4.2-0.2
	l12.3-2.4C104.7,159,105.1,158.7,104.1,158.5z"/>
<path d="M88,162.2c-0.4,0-0.9,0-1.3-0.1l-19-2.8c-0.2,0-0.8-0.1-0.8-0.5c0-0.3,0.2-0.5,1.5-0.8l12.4-2.4c1.4-0.3,2.9-0.4,4.3-0.2
	l19,2.8c0.2,0,0.8,0.1,0.8,0.5c0,0.3-0.2,0.5-1.5,0.8l-12.4,2.4C90.1,162.1,89,162.2,88,162.2z M67.8,158.8
	C67.8,158.8,67.8,158.8,67.8,158.8l19,2.8c1.4,0.1,2.8,0,4.2-0.2l12.3-2.4c0.4-0.1,0.6-0.1,0.8-0.2c0,0,0,0,0,0l-19-2.8
	c-1.4-0.1-2.8,0-4.2,0.2l-12.4,2.4C68.2,158.7,67.9,158.8,67.8,158.8z"/>
<polygon class="st1" points="89,160.6 74.8,158.6 74.3,158.7 88.5,160.8 "/>
<polygon class="st1" points="90.7,160.3 76.4,158.2 75.9,158.3 90.1,160.4 "/>
<polygon class="st1" points="92.3,160 78.1,157.9 77.6,158 91.8,160.1 "/>
<polygon class="st1" points="92.2,158.6 85.9,157.7 85.4,157.8 91.7,158.7 "/>
<polygon class="st1" points="93.8,158.3 87.5,157.4 87,157.5 93.3,158.4 "/>
<path class="st0" d="M107.2,157.2l-17.3-4.1c-1.6-0.2-3.2,0-4.8,0.4l-15.8,3.9c-1.8,0.4-2.5,1-1.6,1.2l17.3,4.1
	c1.6,0.2,3.2,0,4.8-0.4l15.8-3.9C107.3,157.9,108,157.4,107.2,157.2z"/>
<path d="M86.2,162.9c-0.4,0-0.9,0-1.3-0.1l-17.4-4.1c-0.5-0.1-0.6-0.3-0.6-0.5c0-0.6,1.2-1,2.2-1.2l15.8-3.8
	c1.6-0.4,3.3-0.6,4.9-0.4l17.4,4.2c0.5,0.1,0.6,0.3,0.6,0.5c0,0.2,0,0.6-2.2,1.2l-15.8,3.8C88.6,162.8,87.4,162.9,86.2,162.9z
	 M67.5,158.2C67.6,158.2,67.6,158.2,67.5,158.2l17.4,4.2c1.6,0.1,3.1,0,4.7-0.4l15.8-3.9c1-0.2,1.5-0.5,1.7-0.6c0,0,0,0-0.1,0
	l-17.3-4.1c-1.6-0.1-3.1,0-4.7,0.4l-15.8,3.9C68.2,157.8,67.7,158,67.5,158.2z"/>
<polygon class="st1" points="88.7,160.6 75.7,157.5 75,157.7 88,160.8 "/>
<polygon class="st1" points="90.8,160.1 77.8,157 77.1,157.2 90.1,160.3 "/>
<polygon class="st1" points="92.9,159.6 79.9,156.5 79.2,156.7 92.2,159.8 "/>
<polygon class="st1" points="94.4,157.4 88.6,156 87.9,156.2 93.7,157.6 "/>
<polygon class="st1" points="96.4,156.9 90.6,155.5 89.9,155.7 95.7,157.1 "/>
<path class="st0" d="M128.6,156.2l-15.8-3.2c-1.7-0.1-3.5,0-5.2,0.3l-18.5,3c-2.1,0.3-3.1,0.7-2.3,0.9l15.8,3.2
	c1.7,0.1,3.5,0,5.2-0.3l18.5-3C128.3,156.7,129.4,156.3,128.6,156.2z"/>
<path d="M103.9,160.6c-0.5,0-0.9,0-1.4,0l-15.9-3.2c-0.1,0-0.5-0.1-0.5-0.4c0-0.2,0-0.5,2.8-1l18.5-3c1.7-0.3,3.5-0.4,5.3-0.3
	l15.9,3.2c0.1,0,0.5,0.1,0.5,0.4c0,0.2,0,0.5-2.8,1l-18.5,3C106.5,160.5,105.2,160.6,103.9,160.6z M87,157l15.6,3.2
	c1.7,0.1,3.4,0,5.1-0.3l18.5-3c1.1-0.2,1.8-0.4,2.1-0.5l-15.6-3.2c-1.7-0.1-3.4,0-5.1,0.3l-18.5,3C87.9,156.7,87.3,156.8,87,157z"/>
<polygon class="st1" points="107.6,158.8 95.7,156.4 94.9,156.5 106.8,158.9 "/>
<polygon class="st1" points="110,158.4 98.2,156 97.4,156.1 109.2,158.6 "/>
<polygon class="st1" points="112.5,158 100.6,155.6 99.8,155.8 111.7,158.2 "/>
<polygon class="st1" points="115.2,156.3 109.9,155.2 109.1,155.4 114.4,156.4 "/>
<polygon class="st1" points="117.5,155.9 112.2,154.9 111.5,155 116.8,156.1 "/>
<path class="st0" d="M62.4,153.4l24.2-7.5c1.4-0.4,2.9-0.5,4.4-0.4l10.6,1.6c1.2,0.2,1.2,0.6-0.1,1l-24.2,7.5
	c-1.4,0.4-2.9,0.5-4.4,0.4l-10.6-1.6C61.1,154.2,61.2,153.8,62.4,153.4z"/>
<path d="M74.1,156.3c-0.4,0-0.8,0-1.2-0.1l-10.6-1.6c-0.3,0-1.1-0.2-1.1-0.6c0-0.4,0.3-0.6,1.1-0.9l24.2-7.5c1.5-0.4,3-0.5,4.5-0.4
	l10.6,1.6c0.3,0,1.1,0.2,1.1,0.7c0,0.4-0.3,0.6-1.1,0.9l-24.2,7.5C76.3,156.1,75.2,156.3,74.1,156.3z M61.8,154
	c0.1,0,0.2,0.1,0.6,0.2l10.6,1.6c1.4,0.1,2.9,0,4.3-0.4l24.2-7.5c0.4-0.1,0.6-0.2,0.7-0.3c-0.1,0-0.2-0.1-0.6-0.2L91,145.8
	c-1.4-0.2-2.9,0-4.3,0.4l-24.2,7.5C62,153.8,61.8,153.9,61.8,154z"/>
<polygon class="st1" points="76.3,154.1 94.5,148.4 94.9,148.5 76.8,154.1 "/>
<polygon class="st1" points="74.9,153.8 93.1,148.2 93.6,148.3 75.4,153.9 "/>
<polygon class="st1" points="73.5,153.6 91.7,148 92.1,148.1 74,153.7 "/>
<polygon class="st1" points="75.3,151.5 83.4,149 83.8,149 75.8,151.5 "/>
<polygon class="st1" points="74,151.3 82.1,148.8 82.5,148.8 74.4,151.3 "/>
<path class="st0" d="M75.6,148.6L53,149.3c-1.3,0.1-2.6,0.5-3.8,1.2l-8.3,5.4c-0.9,0.6-0.8,1.1,0.4,1l22.5-0.8
	c1.3-0.1,2.6-0.5,3.8-1.2l8.3-5.4C76.9,149,76.7,148.5,75.6,148.6z"/>
<path d="M41.1,157.2c-0.6,0-0.9-0.1-1-0.4c-0.1-0.3,0.1-0.7,0.7-1.1l8.3-5.4c1.2-0.7,2.5-1.1,3.9-1.2l22.6-0.8
	c0.9,0,1.2,0.2,1.2,0.5c0.1,0.2,0,0.6-0.7,1l-8.3,5.4c-1.2,0.7-2.5,1.1-3.9,1.2l-22.6,0.8C41.2,157.2,41.1,157.2,41.1,157.2z
	 M40.6,156.6c0,0,0.2,0.1,0.7,0.1l22.6-0.8c1.3-0.1,2.5-0.5,3.6-1.1l8.3-5.4c0.4-0.2,0.5-0.4,0.5-0.4c0,0-0.2-0.1-0.7-0.1h0
	L53,149.6c-1.3,0.1-2.5,0.5-3.6,1.1l-8.3,5.4C40.7,156.4,40.6,156.6,40.6,156.6C40.6,156.6,40.6,156.6,40.6,156.6z"/>
<polygon class="st1" points="64.2,154.2 47.3,154.8 46.9,155 63.8,154.5 "/>
<polygon class="st1" points="65.3,153.5 48.4,154.1 48,154.3 64.9,153.8 "/>
<polygon class="st1" points="66.4,152.8 49.5,153.4 49.1,153.6 66,153 "/>
<polygon class="st1" points="64.2,151.1 56.6,151.4 56.3,151.6 63.8,151.4 "/>
<polygon class="st1" points="65.2,150.4 57.7,150.7 57.3,150.9 64.9,150.7 "/>
<path class="st0" d="M91.4,142L69,144.8c-1.3,0.2-2.6,0.7-3.7,1.5l-7.8,6.2c-0.9,0.7-0.7,1.1,0.5,1l22.4-2.7
	c1.3-0.2,2.6-0.7,3.7-1.5l7.9-6.2C92.8,142.3,92.5,141.9,91.4,142z"/>
<path d="M57.6,153.8c-0.5,0-0.8-0.1-0.9-0.4c-0.1-0.3,0.1-0.7,0.6-1.1l7.8-6.2c1.1-0.8,2.4-1.3,3.8-1.6l22.4-2.8
	c0.7-0.1,1.1,0.1,1.3,0.4c0.1,0.3-0.1,0.7-0.6,1.1l-7.9,6.2c-1.1,0.8-2.4,1.3-3.8,1.6L58,153.7C57.9,153.7,57.7,153.8,57.6,153.8z
	 M57.2,153.2c0,0,0.2,0.1,0.7,0l22.4-2.7c1.3-0.2,2.5-0.7,3.5-1.5l7.9-6.2c0.4-0.3,0.4-0.5,0.4-0.5c0,0-0.2-0.1-0.7,0L69,145
	c-1.3,0.2-2.5,0.7-3.5,1.5l-7.8,6.2C57.3,153,57.2,153.1,57.2,153.2C57.2,153.2,57.2,153.2,57.2,153.2z"/>
<polygon class="st1" points="80.5,148.7 63.8,150.8 63.4,151 80.2,149 "/>
<polygon class="st1" points="81.6,147.9 64.8,150 64.5,150.2 81.2,148.2 "/>
<polygon class="st1" points="82.6,147.1 65.8,149.1 65.5,149.4 82.3,147.4 "/>
<polygon class="st1" points="80.3,145.6 72.8,146.5 72.5,146.8 80,145.9 "/>
<polygon class="st1" points="81.3,144.8 73.8,145.8 73.5,146 81,145.1 "/>
<path class="st0" d="M68.4,141.6l-21.4,7c-1.3,0.5-2.4,1.2-3.3,2.2l-6.5,7.6c-0.7,0.9-0.4,1.2,0.7,0.9l21.4-7
	c1.3-0.5,2.4-1.2,3.3-2.2l6.5-7.6C69.8,141.6,69.5,141.2,68.4,141.6z"/>
<path d="M37.2,159.6c-0.3,0-0.5-0.1-0.6-0.3c-0.2-0.3-0.1-0.7,0.4-1.2l6.5-7.6c1-1,2.1-1.8,3.4-2.3l21.4-7c0.7-0.2,1.1-0.2,1.3,0.1
	c0.2,0.3,0.1,0.7-0.4,1.2l-6.5,7.6c-1,1-2.1,1.8-3.4,2.3l-21.4,7C37.7,159.6,37.4,159.6,37.2,159.6z M37.1,159.1c0,0,0.2,0,0.7-0.1
	l21.4-7c1.2-0.4,2.3-1.2,3.2-2.1l6.5-7.6c0.3-0.4,0.3-0.5,0.3-0.6c0,0,0,0-0.1,0c-0.1,0-0.3,0-0.6,0.1l-21.4,7
	c-1.2,0.4-2.3,1.2-3.2,2.1l-6.5,7.6C37.1,158.9,37.1,159.1,37.1,159.1C37.1,159.1,37.1,159.1,37.1,159.1z"/>
<polygon class="st1" points="59,150.3 43,155.5 42.7,155.9 58.8,150.6 "/>
<polygon class="st1" points="59.9,149.3 43.8,154.5 43.6,154.9 59.6,149.6 "/>
<polygon class="st1" points="60.8,148.3 44.7,153.5 44.4,153.9 60.5,148.6 "/>
<polygon class="st1" points="58.2,147.3 51.1,149.6 50.8,149.9 58,147.6 "/>
<polygon class="st1" points="59,146.3 51.9,148.7 51.6,149 58.8,146.6 "/>
<path class="st0" d="M29.1,159l19.1-7.3c1.1-0.4,2.4-0.5,3.5-0.2l8.7,2.1c1,0.2,1,0.7,0,1.1L41.3,162c-1.1,0.4-2.3,0.5-3.5,0.2
	l-8.7-2.1C28.1,159.8,28.1,159.3,29.1,159z"/>
<path d="M39.1,162.6c-0.5,0-0.9,0-1.3-0.1l-8.7-2.1c-0.8-0.2-0.9-0.6-0.9-0.8c0-0.2,0.1-0.6,0.9-0.8l19.1-7.3
	c1.2-0.4,2.5-0.5,3.7-0.3l8.7,2.1c0.8,0.2,0.9,0.5,0.9,0.7c0,0.2-0.1,0.6-0.9,0.9l-19.1,7.3C40.7,162.5,39.9,162.6,39.1,162.6z
	 M50.5,151.6c-0.7,0-1.5,0.1-2.2,0.4l-19.1,7.3c-0.4,0.1-0.5,0.3-0.5,0.3c0,0,0.1,0.2,0.5,0.3l8.7,2.1c1.1,0.2,2.3,0.1,3.4-0.2
	l19.1-7.3c0.5-0.2,0.6-0.3,0.6-0.4l0,0c0,0-0.1-0.1-0.6-0.3l-8.7-2.1C51.3,151.6,50.9,151.6,50.5,151.6z"/>
<polygon class="st1" points="40.5,160.2 54.8,154.7 55.1,154.8 40.8,160.3 "/>
<polygon class="st1" points="39.3,159.9 53.6,154.4 54,154.5 39.7,160 "/>
<polygon class="st1" points="38.2,159.6 52.5,154.2 52.8,154.2 38.5,159.8 "/>
<polygon class="st1" points="39.4,157.3 45.8,154.9 46.2,155 39.8,157.4 "/>
<polygon class="st1" points="38.3,157.1 44.7,154.6 45.1,154.7 38.7,157.1 "/>
<path class="st0" d="M72.8,147.1l18.6-2c1.3,0,2.5,0.5,3.4,1.3l8.3,7.5c0.9,0.8,0.9,1.6,0,1.7l-18.6,2c-1.3,0-2.5-0.5-3.4-1.3
	l-8.3-7.5C71.8,148,71.8,147.2,72.8,147.1z"/>
<path d="M84.4,157.8c-1.3,0-2.6-0.5-3.5-1.4l-8.3-7.5c-0.6-0.5-0.9-1-0.7-1.4c0.1-0.2,0.2-0.5,0.8-0.5l18.5-2c1.3,0,2.6,0.5,3.5,1.4
	l8.3,7.5c0.6,0.5,0.8,1,0.7,1.4c-0.1,0.2-0.2,0.5-0.8,0.5L84.4,157.8z M91.3,145.3l-18.5,2c-0.2,0-0.5,0.1-0.6,0.3
	c-0.1,0.2,0.1,0.6,0.6,1.1l8.3,7.5c0.9,0.8,2.1,1.3,3.3,1.3l18.5-2c0.2,0,0.5-0.1,0.5-0.3c0.1-0.2-0.1-0.6-0.6-1.1l-8.3-7.5
	C93.7,145.8,92.5,145.3,91.3,145.3z"/>
<polygon class="st1" points="83.6,154.6 97.5,153.1 97.8,153.4 83.9,154.9 "/>
<polygon class="st1" points="82.5,153.6 96.4,152.1 96.8,152.4 82.8,153.9 "/>
<polygon class="st1" points="81.4,152.6 95.3,151.1 95.7,151.4 81.7,152.9 "/>
<polygon class="st1" points="82.7,149.6 88.9,149 89.3,149.3 83.1,149.9 "/>
<polygon class="st1" points="81.7,148.7 87.9,148 88.2,148.3 82,149 "/>
<path class="st0" d="M32.8,164.8l14.3-10.6c1-0.6,2.2-1,3.4-1l10.5-0.3c1.2,0,1.5,0.4,0.8,0.9l-14.4,10.6c-1,0.6-2.2,1-3.4,1
	l-10.4,0.3C32.4,165.8,32,165.3,32.8,164.8z"/>
<path d="M33.3,165.9c-0.6,0-1-0.2-1.1-0.5c-0.1-0.2,0-0.5,0.4-0.8l0,0L47,154c1.1-0.7,2.3-1,3.6-1l10.5-0.3h0c0.8,0,1.3,0.2,1.4,0.5
	c0.1,0.3-0.1,0.5-0.4,0.8l-14.4,10.6c-1.1,0.7-2.3,1-3.6,1l-10.4,0.3C33.5,165.9,33.4,165.9,33.3,165.9z M32.9,165
	c-0.3,0.2-0.3,0.3-0.3,0.3c0,0,0.2,0.2,0.9,0.2l10.4-0.3c1.2,0,2.3-0.4,3.3-1l14.4-10.6c0.3-0.2,0.3-0.3,0.3-0.3c0,0-0.2-0.2-1-0.2
	l-10.5,0.3c-1.2,0-2.3,0.4-3.3,1L32.9,165z"/>
<polygon class="st1" points="45.3,163.2 56,155.2 56.5,155.2 45.7,163.2 "/>
<polygon class="st1" points="43.9,163.2 54.6,155.2 55.1,155.2 44.4,163.2 "/>
<polygon class="st1" points="42.5,163.2 53.2,155.3 53.7,155.3 43,163.2 "/>
<polygon class="st1" points="42.2,161 47,157.4 47.4,157.4 42.6,161 "/>
<polygon class="st1" points="40.9,161 45.7,157.5 46.1,157.5 41.3,161 "/>
<path class="st0" d="M53.8,148.2l-15.1,4.8c-1.4,0.6-2.7,1.5-3.9,2.5l-12.2,10c-1.4,1.1-1.9,1.8-1.1,1.6l15.1-4.8
	c1.4-0.6,2.7-1.5,3.9-2.5l12.2-10C54.1,148.7,54.6,148,53.8,148.2z"/>
<path d="M21.3,167.4c-0.1,0-0.3,0-0.3-0.2c-0.1-0.2-0.3-0.5,1.5-1.9l12.2-10c1.2-1,2.5-1.9,3.9-2.5l15.1-4.8c0.1,0,0.5-0.2,0.7,0.1
	c0.1,0.1,0.3,0.5-1.5,1.9l-12.2,10c-1.2,1-2.5,1.9-3.9,2.5l-15.1,4.8C21.6,167.4,21.5,167.4,21.3,167.4z M53.8,148.5l-14.9,4.8
	c-1.3,0.6-2.6,1.4-3.8,2.4l-12.2,10c-0.6,0.5-1,0.9-1.2,1.1l14.9-4.8c1.4-0.6,2.6-1.4,3.8-2.4l12.2-10
	C53.2,149.1,53.6,148.8,53.8,148.5z"/>
<polygon class="st1" points="39.4,159.2 28.1,162.8 27.5,163.2 38.9,159.6 "/>
<polygon class="st1" points="41,157.8 29.7,161.4 29.2,161.9 40.5,158.3 "/>
<polygon class="st1" points="42.6,156.5 31.3,160.1 30.8,160.5 42.1,156.9 "/>
<polygon class="st1" points="43.4,154.2 38.3,155.8 37.8,156.2 42.9,154.6 "/>
<polygon class="st1" points="44.9,152.9 39.9,154.5 39.4,154.9 44.4,153.3 "/>
<path class="st0" d="M70.1,155.3l-19.2,1.1c-1.4,0.2-2.8,0.5-4.1,1.1l-11.6,4.8c-1.3,0.5-1.6,0.9-0.6,0.9l19.1-1.1
	c1.4-0.2,2.8-0.6,4.1-1.1l11.6-4.8C70.8,155.7,71,155.3,70.1,155.3z"/>
<path d="M34.4,163.5c-0.3,0-0.6,0-0.7-0.3c-0.1-0.2,0.1-0.5,1.3-1.1l11.6-4.8c1.3-0.6,2.8-0.9,4.2-1.1L70,155c0.2,0,0.8,0,0.9,0.3
	c0.1,0.2-0.1,0.6-1.3,1.1L58,161.3c-1.3,0.6-2.7,1-4.2,1.1l-19.2,1.1C34.6,163.5,34.5,163.5,34.4,163.5z M70.1,155.6l-19.1,1.1
	c-1.4,0.2-2.7,0.5-4,1.1l-11.6,4.8c-0.4,0.1-0.6,0.3-0.7,0.4c0,0,0,0,0,0l19.1-1.1c1.4-0.2,2.7-0.6,4-1.1l11.6-4.8
	C69.7,155.8,69.9,155.7,70.1,155.6C70.1,155.6,70.1,155.6,70.1,155.6L70.1,155.6z"/>
<polygon class="st1" points="55.7,160.4 41.4,161.2 40.9,161.5 55.2,160.6 "/>
<polygon class="st1" points="57.2,159.8 42.9,160.6 42.4,160.8 56.8,160 "/>
<polygon class="st1" points="58.8,159.1 44.4,160 44,160.2 58.3,159.4 "/>
<polygon class="st1" points="58.5,157.8 52,158.1 51.6,158.3 58,158 "/>
<polygon class="st1" points="59.9,157.1 53.5,157.5 53,157.7 59.5,157.4 "/>
<path class="st0" d="M78.4,150.6l-17.8-0.6c-1.6,0.2-3.2,0.6-4.6,1.4l-14.7,7c-1.7,0.8-2.3,1.4-1.3,1.5l17.8,0.6
	c1.6-0.2,3.2-0.6,4.6-1.4l14.7-7C78.7,151.3,79.3,150.6,78.4,150.6z"/>
<path d="M57.8,160.7l-17.9-0.5c-0.4,0-0.6-0.1-0.7-0.4c0-0.2-0.1-0.6,1.9-1.6l14.7-7c1.5-0.7,3.1-1.2,4.7-1.4l17.9,0.5
	c0.4,0,0.6,0.1,0.7,0.4c0,0.2,0.1,0.6-1.9,1.6l-14.7,7C61,160.1,59.4,160.5,57.8,160.7z M39.8,159.6
	C39.9,159.6,39.9,159.6,39.8,159.6l17.9,0.6c1.5-0.2,3.1-0.6,4.5-1.3l14.7-7c0.9-0.4,1.4-0.8,1.5-0.9c0,0-0.1,0-0.1,0l-17.8-0.6
	c-1.5,0.2-3.1,0.6-4.5,1.3l-14.7,7C40.4,159.1,40,159.4,39.8,159.6z"/>
<polygon class="st1" points="61,157.7 47.7,157.3 47,157.6 60.4,158 "/>
<polygon class="st1" points="63,156.8 49.6,156.4 49,156.7 62.4,157.1 "/>
<polygon class="st1" points="64.9,155.9 51.6,155.4 51,155.8 64.3,156.2 "/>
<polygon class="st1" points="65.9,153.4 60,153.2 59.4,153.5 65.3,153.7 "/>
<polygon class="st1" points="67.8,152.5 61.9,152.3 61.3,152.6 67.2,152.8 "/>
<path class="st0" d="M88.3,151.8H72.1c-1.7,0.3-3.4,0.7-5,1.4l-17.5,6.7c-2,0.8-2.9,1.4-2.1,1.4h16.1c1.7-0.3,3.4-0.7,5-1.4
	l17.5-6.7C88.2,152.4,89.1,151.8,88.3,151.8z"/>
<path d="M47.5,161.4c-0.1,0-0.5,0-0.5-0.3c0-0.2-0.1-0.5,2.5-1.5l17.5-6.7c1.6-0.7,3.3-1.1,5-1.4l16.2,0c0.1,0,0.5,0,0.5,0.3
	c0,0.2,0.1,0.5-2.5,1.5L68.8,160c-1.6,0.7-3.3,1.1-5,1.4L47.5,161.4z M47.7,160.9h16c1.7-0.2,3.3-0.7,4.9-1.3l17.5-6.7
	c1.1-0.4,1.7-0.7,2-0.9h-16c-1.7,0.2-3.3,0.7-4.9,1.3L49.7,160C48.6,160.4,48,160.7,47.7,160.9z"/>
<polygon class="st1" points="68.2,158.6 56.1,158.6 55.4,158.9 67.5,158.9 "/>
<polygon class="st1" points="70.6,157.7 58.5,157.8 57.7,158.1 69.8,158 "/>
<polygon class="st1" points="72.9,156.9 60.8,156.9 60,157.2 72.1,157.1 "/>
<polygon class="st1" points="75.2,154.6 69.8,154.6 69.1,154.9 74.5,154.9 "/>
<polygon class="st1" points="77.4,153.8 72,153.8 71.3,154.1 76.7,154.1 "/>
<path class="st0" d="M108.7,153.1l22-0.1c1.3,0,2.6,0.3,3.7,0.9l8.4,4.6c0.9,0.5,0.8,0.9-0.3,0.9l-22,0.1c-1.3,0-2.6-0.4-3.7-0.9
	l-8.4-4.6C107.5,153.5,107.6,153.1,108.7,153.1z"/>
<path d="M120.6,159.8c-1.4,0-2.6-0.4-3.9-0.9l-8.4-4.6c-0.6-0.3-0.8-0.6-0.7-0.9c0.1-0.3,0.5-0.5,1.2-0.5l22-0.1
	c1.4,0,2.6,0.4,3.9,0.9l8.4,4.6c0.2,0.1,0.9,0.5,0.7,0.9c-0.1,0.3-0.5,0.5-1.2,0.5L120.6,159.8z M108,153.5c0,0,0.1,0.1,0.5,0.3
	l8.4,4.6c1.1,0.5,2.4,0.8,3.6,0.9l22-0.1c0.5,0,0.7-0.1,0.7-0.1c0,0-0.1-0.1-0.5-0.3l-8.4-4.6c-1.1-0.5-2.4-0.8-3.6-0.9l-22,0.1
	C108.2,153.3,108,153.5,108,153.5C108,153.5,108,153.5,108,153.5z"/>
<polygon class="st1" points="120.1,157.8 136.6,157.6 137,157.9 120.5,157.9 "/>
<polygon class="st1" points="119,157.2 135.5,157.1 135.9,157.2 119.4,157.4 "/>
<polygon class="st1" points="117.9,156.6 134.4,156.4 134.8,156.6 118.3,156.7 "/>
<polygon class="st1" points="119.9,155 127.3,154.9 127.6,155.1 120.3,155.2 "/>
<polygon class="st1" points="118.9,154.4 126.2,154.4 126.6,154.6 119.2,154.6 "/>
<path class="st0" d="M122.9,152.3l-21.8-5.8c-1.3-0.3-2.7-0.3-4,0l-9.5,2.8c-1.1,0.3-1,0.8,0.1,1.1l21.8,5.8c1.3,0.3,2.7,0.3,4,0
	l9.5-2.8C124,153.1,124,152.6,122.9,152.3z"/>
<path d="M111.4,156.7c-0.7,0-1.4-0.1-2.1-0.2l-21.8-5.8c-0.7-0.2-1-0.5-1-0.8c0-0.3,0.3-0.6,1-0.8l9.5-2.8c1.4-0.3,2.8-0.3,4.1,0
	l21.8,5.8c0.7,0.2,1,0.5,1.1,0.8c0,0.4-0.3,0.6-1,0.8l-9.5,2.8C112.8,156.6,112.1,156.7,111.4,156.7z M99.1,146.5
	c-0.7,0-1.3,0.1-1.9,0.2l-9.5,2.8c-0.5,0.1-0.6,0.3-0.6,0.3c0,0,0.2,0.2,0.6,0.3l21.8,5.8c1.3,0.3,2.6,0.3,3.9,0l9.5-2.8
	c0.5-0.1,0.6-0.3,0.6-0.3c0,0-0.1-0.1-0.6-0.3l0,0l-21.8-5.8C100.4,146.6,99.7,146.5,99.1,146.5z"/>
<polygon class="st1" points="110.3,154.4 94,150.1 93.6,150.2 109.9,154.5 "/>
<polygon class="st1" points="111.6,154.1 95.2,149.7 94.8,149.8 111.2,154.2 "/>
<polygon class="st1" points="112.9,153.7 96.5,149.3 96.1,149.4 112.5,153.8 "/>
<polygon class="st1" points="111.2,151.5 103.9,149.5 103.6,149.6 110.9,151.6 "/>
<polygon class="st1" points="112.5,151.1 105.2,149.2 104.8,149.3 112.1,151.2 "/>
<path class="st0" d="M140,150.6l-22.2-3.9c-1.3-0.2-2.7-0.1-3.9,0.4l-9.3,3.6c-1,0.4-1,0.9,0.2,1.1l22.2,3.9c1.3,0.2,2.7,0,3.9-0.4
	l9.3-3.6C141.1,151.3,141.1,150.8,140,150.6z"/>
<path d="M128.1,156.1c-0.4,0-0.8,0-1.2-0.1l-22.2-3.9c-0.7-0.1-1.1-0.3-1.1-0.7c0-0.3,0.3-0.7,0.9-0.9l9.3-3.6
	c1.3-0.4,2.7-0.6,4.1-0.4l22.2,3.9c0.7,0.1,1,0.4,1.1,0.7c0,0.3-0.3,0.6-0.9,0.9l-9.3,3.6C130,155.9,129,156.1,128.1,156.1z
	 M104.1,151.4c0,0,0.1,0.1,0.7,0.2l22.2,3.9c1.3,0.2,2.6,0,3.8-0.4l9.3-3.6c0.4-0.2,0.5-0.3,0.5-0.3c0,0-0.2-0.1-0.6-0.2l-22.2-3.9
	c-1.3-0.2-2.6,0-3.8,0.4l-9.3,3.6C104.2,151.2,104.1,151.4,104.1,151.4L104.1,151.4z"/>
<polygon class="st1" points="127.6,153.9 111,151 110.6,151.1 127.2,154 "/>
<polygon class="st1" points="128.8,153.4 112.2,150.5 111.8,150.7 128.4,153.6 "/>
<polygon class="st1" points="130.1,152.9 113.4,150 113,150.2 129.7,153.1 "/>
<polygon class="st1" points="128.3,150.9 120.9,149.6 120.5,149.7 127.9,151 "/>
<polygon class="st1" points="129.5,150.4 122.1,149.1 121.7,149.2 129.1,150.5 "/>
<path class="st0" d="M118.1,143.5l-22.5,0.5c-1.3,0.1-2.6,0.5-3.8,1.1l-8.4,5.4c-0.9,0.6-0.8,1.1,0.4,1l22.5-0.5
	c1.3-0.1,2.6-0.4,3.8-1l8.4-5.4C119.4,144,119.2,143.5,118.1,143.5z"/>
<path d="M83.5,151.9c-0.6,0-0.9-0.2-1-0.5c-0.1-0.3,0.1-0.7,0.7-1.1l8.4-5.4c1.2-0.7,2.5-1.1,3.9-1.2l22.5-0.5
	c0.7,0,1.1,0.1,1.2,0.5s-0.1,0.7-0.7,1.1l-8.4,5.4c-1.2,0.7-2.5,1-3.9,1.1l-22.5,0.5C83.6,151.9,83.6,151.9,83.5,151.9z M83,151.3
	c0,0,0.2,0.1,0.7,0.1l22.6-0.5c1.3-0.1,2.5-0.4,3.6-1l8.4-5.4c0.4-0.3,0.5-0.4,0.5-0.5c0,0-0.2-0.1-0.7-0.1l-22.5,0.5
	c-1.3,0.1-2.5,0.5-3.7,1.1l-8.4,5.4C83.1,151.1,83,151.2,83,151.3C83,151.3,83,151.3,83,151.3z"/>
<polygon class="st1" points="106.6,149.1 89.7,149.5 89.3,149.8 106.2,149.4 "/>
<polygon class="st1" points="107.7,148.4 90.8,148.8 90.4,149.1 107.3,148.6 "/>
<polygon class="st1" points="108.8,147.7 91.9,148.1 91.6,148.3 108.5,147.9 "/>
<polygon class="st1" points="106.7,146 99.1,146.2 98.8,146.4 106.3,146.2 "/>
<polygon class="st1" points="107.7,145.3 100.2,145.5 99.9,145.7 107.4,145.6 "/>
<path class="st0" d="M69.2,146.9l22.6-0.8c1.3,0,2.7,0.3,3.8,0.9l8.7,4.9c1,0.5,0.8,1-0.3,1.1l-22.6,0.8c-1.3,0-2.7-0.3-3.8-0.9
	l-8.7-4.9C67.9,147.4,68,146.9,69.2,146.9z"/>
<path d="M81.4,154c-1.4,0-2.8-0.3-4-0.9l-8.7-4.9c-0.6-0.3-0.9-0.7-0.8-1c0.1-0.3,0.5-0.5,1.2-0.6l22.6-0.8c1.4,0,2.8,0.3,4,0.9
	l8.7,4.9c0.6,0.3,0.9,0.7,0.8,1c-0.1,0.3-0.5,0.5-1.2,0.6L81.4,154z M68.5,147.3c0,0,0.1,0.2,0.5,0.4l8.7,4.9
	c1.1,0.6,2.4,0.9,3.7,0.9l22.6-0.8c0.5,0,0.7-0.1,0.7-0.2c0,0-0.1-0.2-0.5-0.4l-8.7-4.9c-1.1-0.6-2.4-0.9-3.7-0.9c0,0,0,0,0,0
	l-22.6,0.8C68.6,147.2,68.5,147.3,68.5,147.3z"/>
<polygon class="st1" points="81,151.8 97.9,151.2 98.3,151.4 81.3,152 "/>
<polygon class="st1" points="79.8,151.1 96.7,150.5 97.1,150.7 80.2,151.3 "/>
<polygon class="st1" points="78.7,150.5 95.6,149.9 96,150.1 79,150.7 "/>
<polygon class="st1" points="80.7,148.7 88.3,148.4 88.6,148.6 81.1,148.9 "/>
<polygon class="st1" points="79.6,148.1 87.2,147.8 87.5,148 80,148.3 "/>
<path class="st0" d="M120.6,150.1l18.4,3.4c1.2,0.4,2.2,1.2,2.9,2.2l5.8,9.5c0.6,1.1,0.4,1.8-0.5,1.6l-18.3-3.4
	c-1.2-0.4-2.2-1.2-2.9-2.3l-5.8-9.5C119.4,150.6,119.7,149.9,120.6,150.1z"/>
<path d="M147.4,167.1c-0.1,0-0.2,0-0.3,0l-18.3-3.5c-1.2-0.4-2.3-1.2-3-2.3l-5.8-9.5c-0.4-0.7-0.5-1.2-0.3-1.6
	c0.1-0.1,0.4-0.4,0.9-0.3l18.4,3.5c1.2,0.4,2.3,1.2,3,2.3l5.8,9.5c0.4,0.7,0.5,1.3,0.3,1.6C147.9,167,147.7,167.1,147.4,167.1z
	 M120.3,150.2c-0.1,0-0.3,0-0.4,0.2c-0.1,0.2-0.1,0.6,0.3,1.2l5.8,9.5c0.6,1,1.6,1.8,2.8,2.2l18.3,3.4c0.2,0,0.5,0,0.6-0.1
	c0.2-0.2,0.1-0.7-0.3-1.2l-5.8-9.5c-0.6-1-1.6-1.8-2.8-2.2l-18.4-3.4C120.5,150.2,120.4,150.2,120.3,150.2z"/>
<polygon class="st1" points="128.8,160.3 142.6,162.9 142.8,163.3 129.1,160.8 "/>
<polygon class="st1" points="128.1,159.1 141.8,161.7 142.1,162.1 128.3,159.5 "/>
<polygon class="st1" points="127.3,157.8 141.1,160.4 141.3,160.8 127.6,158.2 "/>
<polygon class="st1" points="129.4,155.4 135.6,156.5 135.8,156.9 129.7,155.8 "/>
<polygon class="st1" points="128.7,154.2 134.8,155.3 135.1,155.7 128.9,154.6 "/>
<path class="st0" d="M71.4,153.7l18.4-5.5c1.3-0.3,2.7-0.2,4,0.1l11.3,3.1c1.3,0.3,1.5,0.9,0.6,1.1l-18.4,5.5
	c-1.3,0.3-2.7,0.2-4-0.1L72,154.8C70.7,154.4,70.5,153.9,71.4,153.7z"/>
<path d="M85.5,158.5c-0.8,0-1.6-0.1-2.3-0.3L71.9,155c-0.9-0.2-1.3-0.6-1.3-0.9c0-0.3,0.2-0.5,0.7-0.7l18.4-5.5
	c1.4-0.3,2.8-0.2,4.1,0.1l11.3,3.1c0.6,0.2,1.3,0.5,1.3,0.9c0,0.2-0.1,0.5-0.7,0.7l-18.4,5.5C86.7,158.4,86.1,158.5,85.5,158.5z
	 M91.6,148.2c-0.6,0-1.1,0.1-1.7,0.2l-18.4,5.5c-0.3,0.1-0.4,0.2-0.4,0.2c0,0,0.2,0.3,1,0.5l11.3,3.1c1.3,0.3,2.6,0.4,3.9,0.1
	l18.4-5.5c0.3-0.1,0.4-0.2,0.4-0.2c0,0-0.2-0.3-1-0.5l-11.3-3.1C93.1,148.3,92.3,148.2,91.6,148.2z"/>
<polygon class="st1" points="85.3,156.2 99.1,152 99.6,152.2 85.8,156.3 "/>
<polygon class="st1" points="83.8,155.8 97.6,151.6 98.1,151.8 84.3,155.9 "/>
<polygon class="st1" points="82.3,155.4 96.1,151.2 96.6,151.3 82.8,155.5 "/>
<polygon class="st1" points="82.6,153.1 88.8,151.2 89.2,151.4 83.1,153.2 "/>
<polygon class="st1" points="81.2,152.7 87.3,150.8 87.8,151 81.6,152.8 "/>
<path class="st0" d="M98.8,144.7l-17.6-0.3c-1.7,0.2-3.3,0.5-4.9,1.1l-16,5.6c-1.8,0.6-2.5,1.2-1.6,1.2l17.6,0.3
	c1.7-0.2,3.3-0.5,4.9-1.1l16-5.6C98.9,145.2,99.7,144.7,98.8,144.7z"/>
<path d="M76.3,152.8l-17.6-0.3c-0.1,0-0.6,0-0.6-0.3c0-0.2-0.1-0.6,2.2-1.4l16-5.6c1.6-0.6,3.2-1,4.9-1.1l17.6,0.3
	c0.1,0,0.6,0,0.6,0.3c0,0.2,0.1,0.6-2.2,1.4l-16,5.6C79.7,152.3,78,152.7,76.3,152.8z M58.9,152l17.4,0.3c1.6-0.1,3.2-0.5,4.8-1.1
	l16-5.6c0.8-0.3,1.2-0.5,1.5-0.6l-17.4-0.3c-1.6,0.2-3.2,0.5-4.8,1.1l-16,5.6C59.6,151.6,59.2,151.8,58.9,152z"/>
<polygon class="st1" points="80.1,150.4 66.9,150.2 66.3,150.4 79.4,150.7 "/>
<polygon class="st1" points="82.2,149.7 69.1,149.4 68.4,149.7 81.6,149.9 "/>
<polygon class="st1" points="84.4,148.9 71.2,148.7 70.5,148.9 83.7,149.2 "/>
<polygon class="st1" points="85.8,147 80,146.9 79.3,147.1 85.2,147.2 "/>
<polygon class="st1" points="87.9,146.3 82,146.2 81.3,146.4 87.2,146.5 "/>
<path class="st0" d="M115.7,157.1L97,152.7c-1.4-0.2-2.8-0.3-4.2-0.2l-12.5,1.3c-1.4,0.1-1.8,0.4-0.8,0.7l18.6,4.5
	c1.4,0.2,2.8,0.3,4.3,0.1l12.5-1.3C116.2,157.7,116.6,157.4,115.7,157.1z"/>
<path d="M100.8,159.4c-0.9,0-1.8-0.1-2.7-0.2l-18.7-4.5c-0.2-0.1-0.8-0.2-0.7-0.6c0-0.3,0.2-0.5,1.6-0.7l12.5-1.3
	c1.4-0.1,2.9-0.1,4.3,0.2l18.7,4.5c0.2,0.1,0.8,0.2,0.7,0.6c0,0.3-0.2,0.5-1.6,0.6l-12.5,1.3C101.8,159.4,101.3,159.4,100.8,159.4z
	 M79.5,154.2C79.5,154.2,79.5,154.2,79.5,154.2l18.7,4.5c1.4,0.2,2.8,0.3,4.2,0.1l12.5-1.3c0.4,0,0.6-0.1,0.8-0.1c0,0,0,0,0,0
	l-18.7-4.5c-1.4-0.2-2.8-0.3-4.2-0.2L80.3,154C79.9,154.1,79.6,154.1,79.5,154.2z"/>
<polygon class="st1" points="100.5,157.9 86.5,154.5 85.9,154.6 99.9,157.9 "/>
<polygon class="st1" points="102.1,157.7 88.1,154.4 87.6,154.4 101.6,157.8 "/>
<polygon class="st1" points="103.8,157.6 89.8,154.2 89.3,154.2 103.2,157.6 "/>
<polygon class="st1" points="103.8,156.1 97.6,154.6 97.1,154.7 103.3,156.2 "/>
<polygon class="st1" points="105.4,156 99.2,154.5 98.7,154.5 104.9,156 "/>
<path class="st0" d="M125.1,155.1l-16.9-5.7c-1.6-0.3-3.2-0.3-4.8,0l-16.1,2.4c-1.8,0.3-2.6,0.7-1.7,1l16.9,5.7
	c1.6,0.3,3.2,0.3,4.8,0l16.1-2.4C125.1,155.8,125.9,155.4,125.1,155.1z"/>
<path d="M104.8,159c-0.8,0-1.6-0.1-2.5-0.2l-16.9-5.7c-0.4-0.1-0.6-0.3-0.5-0.6c0-0.2,0.1-0.6,2.3-1l16.1-2.4c1.6-0.3,3.3-0.3,4.9,0
	l16.9,5.7c0.4,0.1,0.6,0.3,0.5,0.6c0,0.2-0.1,0.6-2.3,1l-16.1,2.4C106.4,158.9,105.6,159,104.8,159z M85.5,152.5
	C85.5,152.5,85.5,152.5,85.5,152.5l17,5.7c1.5,0.3,3.1,0.3,4.7,0l16.1-2.4c1-0.1,1.5-0.3,1.7-0.4c0,0,0,0-0.1,0l-16.9-5.7
	c-1.5-0.3-3.1-0.3-4.7,0l-16.1,2.4C86.2,152.2,85.7,152.4,85.5,152.5z M85.4,152.5L85.4,152.5L85.4,152.5z"/>
<polygon class="st1" points="106.3,156.8 93.7,152.6 93,152.7 105.7,156.9 "/>
<polygon class="st1" points="108.5,156.5 95.8,152.3 95.1,152.4 107.8,156.6 "/>
<polygon class="st1" points="110.6,156.2 97.9,151.9 97.3,152 109.9,156.3 "/>
<polygon class="st1" points="112.3,154.1 106.6,152.2 106,152.3 111.6,154.2 "/>
<polygon class="st1" points="114.3,153.8 108.7,151.9 108,152 113.7,153.9 "/>
<path class="st0" d="M134.1,159l-15.5-4.6c-1.7-0.3-3.5-0.3-5.2-0.2l-18.7,1.3c-2.1,0.1-3.2,0.5-2.4,0.7l15.5,4.6
	c1.7,0.3,3.5,0.3,5.2,0.2l18.7-1.3C133.9,159.6,134.9,159.3,134.1,159z"/>
<path d="M111.1,161.3c-1.1,0-2.2-0.1-3.3-0.3l-15.5-4.6c-0.1,0-0.5-0.1-0.4-0.4c0-0.2,0.1-0.5,2.8-0.7l18.7-1.3
	c1.8-0.2,3.5-0.1,5.3,0.2l15.5,4.6c0.1,0,0.5,0.2,0.4,0.4c0,0.2-0.1,0.5-2.9,0.7l-18.7,1.3C112.4,161.3,111.8,161.3,111.1,161.3z
	 M92.6,156l15.3,4.6c1.7,0.3,3.4,0.3,5.1,0.2l18.7-1.3c1.2-0.1,1.9-0.2,2.2-0.3l-15.3-4.6c-1.7-0.3-3.4-0.3-5.1-0.2l-18.7,1.3
	C93.6,155.8,93,155.9,92.6,156z"/>
<polygon class="st1" points="113,159.8 101.4,156.3 100.6,156.4 112.2,159.8 "/>
<polygon class="st1" points="115.4,159.6 103.8,156.1 103.1,156.2 114.6,159.7 "/>
<polygon class="st1" points="117.9,159.4 106.3,156 105.5,156 117.1,159.5 "/>
<polygon class="st1" points="120.8,158 115.6,156.4 114.8,156.5 120,158 "/>
<polygon class="st1" points="123.2,157.8 118,156.3 117.2,156.3 122.4,157.9 "/>
<path class="st0" d="M110.6,149.6l-24-7.5c-1.4-0.4-2.9-0.5-4.3-0.4l-10.5,1.6c-1.2,0.2-1.1,0.6,0.1,1l24,7.5
	c1.4,0.4,2.9,0.5,4.3,0.4l10.5-1.6C111.8,150.4,111.8,149.9,110.6,149.6z"/>
<path d="M98.9,152.4c-1.1,0-2.2-0.1-3.2-0.4l-24-7.5c-0.8-0.2-1.2-0.5-1.1-0.9c0-0.5,0.8-0.6,1.1-0.6l10.5-1.6c1.5-0.1,3,0,4.5,0.4
	l24,7.5c0.8,0.2,1.2,0.5,1.1,0.9c0,0.5-0.8,0.6-1.1,0.7l-10.5,1.6C99.8,152.4,99.4,152.4,98.9,152.4z M71.2,143.7
	c0.1,0.1,0.3,0.2,0.7,0.3l24,7.5c1.4,0.4,2.8,0.5,4.2,0.4l10.5-1.5c0.3-0.1,0.5-0.1,0.6-0.2c-0.1-0.1-0.3-0.2-0.7-0.3l-24-7.5
	c-1.4-0.4-2.8-0.5-4.2-0.4l-10.5,1.6C71.4,143.6,71.3,143.6,71.2,143.7z"/>
<polygon class="st1" points="96.8,150.2 78.8,144.6 78.4,144.7 96.3,150.3 "/>
<polygon class="st1" points="98.2,150 80.2,144.4 79.8,144.5 97.7,150.1 "/>
<polygon class="st1" points="99.6,149.8 81.6,144.2 81.1,144.3 99.1,149.9 "/>
<polygon class="st1" points="97.8,147.6 89.8,145.1 89.3,145.2 97.4,147.7 "/>
<polygon class="st1" points="99.1,147.4 91.1,144.9 90.7,145 98.7,147.5 "/>
<path class="st0" d="M97.6,144.7l22.3,0.7c1.3,0.1,2.6,0.5,3.7,1.2l8.2,5.4c0.9,0.6,0.8,1.1-0.4,1l-22.3-0.7
	c-1.3-0.1-2.6-0.5-3.7-1.2l-8.2-5.4C96.2,145.1,96.4,144.7,97.6,144.7z"/>
<path d="M131.7,153.4c-0.1,0-0.2,0-0.2,0l-22.3-0.7c-1.4-0.1-2.7-0.5-3.9-1.2l-8.2-5.4c-0.6-0.3-0.8-0.7-0.7-1
	c0.1-0.3,0.5-0.5,1.2-0.5l22.3,0.7c1.4,0.1,2.7,0.5,3.9,1.2l8.2,5.4c0.6,0.4,0.8,0.7,0.7,1.1C132.6,153.2,132.2,153.4,131.7,153.4z
	 M96.8,145.1c0,0,0.1,0.2,0.5,0.4l8.2,5.4c1.1,0.6,2.3,1,3.6,1.1l22.3,0.7c0.5,0,0.7-0.1,0.7-0.1c0,0-0.1-0.2-0.5-0.4l-8.2-5.4
	c-1.1-0.6-2.3-1-3.6-1.1L97.5,145C97,145,96.9,145.1,96.8,145.1z"/>
<polygon class="st1" points="108.8,150.4 125.5,151 125.9,151.2 109.2,150.6 "/>
<polygon class="st1" points="107.7,149.7 124.4,150.2 124.8,150.5 108.1,149.9 "/>
<polygon class="st1" points="106.6,149 123.4,149.5 123.7,149.8 107,149.2 "/>
<polygon class="st1" points="108.8,147.3 116.3,147.6 116.6,147.8 109.1,147.5 "/>
<polygon class="st1" points="107.8,146.6 115.2,146.9 115.6,147.1 108.1,146.8 "/>
<path class="st0" d="M81.9,138.2l22.1,2.7c1.3,0.2,2.5,0.7,3.6,1.5l7.8,6.2c0.9,0.7,0.7,1.1-0.5,1l-22.1-2.7
	c-1.3-0.2-2.5-0.7-3.6-1.5l-7.8-6.2C80.5,138.5,80.7,138.1,81.9,138.2z"/>
<path d="M115.3,149.9c-0.1,0-0.3,0-0.4,0l-22.1-2.7c-1.3-0.2-2.6-0.8-3.7-1.5l-7.8-6.2c-0.5-0.4-0.7-0.8-0.6-1.1
	c0.1-0.3,0.6-0.5,1.3-0.4l22.1,2.7c1.4,0.2,2.6,0.8,3.7,1.5l7.8,6.2c0.5,0.4,0.7,0.8,0.6,1.1C116,149.8,115.8,149.9,115.3,149.9z
	 M81.1,138.5c0,0,0.1,0.2,0.4,0.5l7.8,6.2c1,0.7,2.2,1.2,3.5,1.4l22.1,2.7c0.5,0.1,0.7,0,0.7,0c0,0-0.1-0.2-0.4-0.5l-7.8-6.2
	c-1-0.7-2.2-1.2-3.5-1.4l-22.1-2.7C81.3,138.4,81.2,138.5,81.1,138.5z"/>
<polygon class="st1" points="92.6,144.9 109.2,146.9 109.5,147.2 92.9,145.1 "/>
<polygon class="st1" points="91.6,144.1 108.2,146.1 108.5,146.4 91.9,144.3 "/>
<polygon class="st1" points="90.6,143.2 107.1,145.3 107.5,145.6 90.9,143.5 "/>
<polygon class="st1" points="92.8,141.8 100.2,142.7 100.6,143 93.2,142 "/>
<polygon class="st1" points="91.8,141 99.2,141.9 99.6,142.2 92.2,141.3 "/>
<path class="st0" d="M104.6,137.8l21.2,7c1.2,0.5,2.4,1.2,3.3,2.2l6.4,7.6c0.7,0.8,0.4,1.2-0.6,0.9l-21.2-7
	c-1.2-0.5-2.4-1.2-3.2-2.2l-6.4-7.6C103.2,137.8,103.5,137.4,104.6,137.8z"/>
<path d="M135.5,155.8c-0.2,0-0.5,0-0.7-0.1l-21.2-7c-1.3-0.5-2.4-1.3-3.4-2.3l-6.4-7.6c-0.5-0.5-0.6-0.9-0.4-1.2
	c0.2-0.3,0.6-0.3,1.3-0.1l21.2,7c1.3,0.5,2.5,1.3,3.4,2.3l6.4,7.6c0.4,0.5,0.6,0.9,0.4,1.2C136,155.7,135.8,155.8,135.5,155.8z
	 M103.8,137.9c0,0,0,0.2,0.4,0.5l6.4,7.6c0.9,0.9,1.9,1.7,3.1,2.1l21.2,7c0.5,0.2,0.7,0.1,0.7,0.1c0,0,0-0.2-0.3-0.5l-6.4-7.6
	c-0.9-0.9-2-1.7-3.1-2.1l-21.2-7C104,137.9,103.9,137.9,103.8,137.9z"/>
<polygon class="st1" points="113.9,146.4 129.8,151.7 130,152 114.2,146.8 "/>
<polygon class="st1" points="113,145.4 128.9,150.7 129.2,151 113.3,145.8 "/>
<polygon class="st1" points="112.2,144.4 128.1,149.7 128.3,150 112.4,144.8 "/>
<polygon class="st1" points="114.7,143.4 121.8,145.8 122.1,146.1 115,143.8 "/>
<polygon class="st1" points="113.9,142.5 121,144.8 121.2,145.1 114.1,142.8 "/>
<path class="st0" d="M144.4,155.1l-18.4-7.3c-1.1-0.4-2.3-0.5-3.4-0.2l-8.4,2.1c-0.9,0.2-0.9,0.7,0,1.1l18.4,7.3
	c1.1,0.4,2.3,0.5,3.4,0.2l8.4-2.1C145.3,156,145.3,155.5,144.4,155.1z"/>
<path d="M134.8,158.7c-0.8,0-1.5-0.1-2.2-0.4l-18.4-7.3c-0.7-0.3-0.9-0.6-0.9-0.9c0-0.2,0.2-0.5,0.9-0.7l8.4-2.1
	c1.2-0.2,2.4-0.2,3.5,0.2l18.4,7.3c0.7,0.3,0.9,0.6,0.9,0.9c0,0.2-0.2,0.5-0.9,0.7l-8.4,2.1C135.6,158.7,135.2,158.7,134.8,158.7z
	 M123.9,147.7c-0.4,0-0.8,0-1.2,0.1l-8.3,2.1c-0.4,0.1-0.5,0.2-0.5,0.3c0,0,0.1,0.2,0.5,0.4l18.3,7.3c1,0.4,2.2,0.4,3.2,0.2l8.3-2.1
	c0.4-0.1,0.5-0.2,0.5-0.2c0,0-0.1-0.2-0.5-0.4l-18.4-7.3C125.3,147.8,124.6,147.7,123.9,147.7z"/>
<polygon class="st1" points="133.5,156.4 119.7,150.9 119.3,151 133.1,156.5 "/>
<polygon class="st1" points="134.6,156.1 120.8,150.6 120.4,150.7 134.2,156.2 "/>
<polygon class="st1" points="135.7,155.8 121.9,150.3 121.6,150.4 135.3,155.9 "/>
<polygon class="st1" points="134.4,153.5 128.3,151 127.9,151.1 134.1,153.6 "/>
<polygon class="st1" points="135.5,153.2 129.4,150.8 129,150.9 135.1,153.3 "/>
<path class="st0" d="M100.3,143.3l-18.3-2c-1.2,0-2.4,0.5-3.4,1.3l-8.2,7.5c-0.9,0.8-0.9,1.6,0,1.7l18.4,2c1.2,0,2.4-0.5,3.3-1.3
	l8.2-7.5C101.3,144.2,101.2,143.4,100.3,143.3z"/>
<path d="M88.8,153.9l-18.4-2c-0.6-0.1-0.7-0.4-0.8-0.5c-0.1-0.4,0.1-0.9,0.7-1.5l8.2-7.5c1-0.9,2.2-1.3,3.5-1.4l18.4,2
	c0.6,0.1,0.8,0.4,0.8,0.5c0.1,0.4-0.1,0.9-0.7,1.4l-8.2,7.5C91.3,153.4,90.1,153.9,88.8,153.9z M82,141.4c-1.2,0-2.3,0.5-3.2,1.3
	l-8.2,7.5c-0.5,0.4-0.7,0.9-0.6,1.1c0.1,0.2,0.3,0.3,0.5,0.3l18.4,2c1.2,0,2.3-0.5,3.2-1.3l8.2-7.5c0.5-0.4,0.7-0.8,0.6-1.1
	c-0.1-0.2-0.4-0.3-0.5-0.3L82,141.4z"/>
<polygon class="st1" points="89.6,150.7 75.8,149.2 75.5,149.5 89.2,151 "/>
<polygon class="st1" points="90.7,149.7 76.9,148.2 76.6,148.6 90.3,150.1 "/>
<polygon class="st1" points="91.8,148.7 78,147.2 77.7,147.6 91.4,149.1 "/>
<polygon class="st1" points="90.5,145.8 84.3,145.1 84,145.4 90.1,146.1 "/>
<polygon class="st1" points="91.5,144.9 85.4,144.2 85,144.5 91.2,145.2 "/>
<path class="st0" d="M145.9,161L130,150.3c-1.2-0.6-2.5-1-3.8-1l-11.5-0.3c-1.3,0-1.7,0.4-0.9,0.9l15.9,10.6c1.2,0.6,2.5,1,3.8,1
	l11.6,0.3C146.3,161.9,146.7,161.5,145.9,161z"/>
<path d="M145.3,162.1c-0.1,0-0.2,0-0.3,0l-11.6-0.3c-1.4,0-2.7-0.4-3.9-1l-15.9-10.7c-0.4-0.3-0.6-0.6-0.5-0.8
	c0.1-0.4,0.6-0.5,1.5-0.5l11.5,0.3c1.4,0,2.7,0.4,3.9,1l15.9,10.7c0.5,0.3,0.6,0.6,0.5,0.8C146.4,162,145.9,162.1,145.3,162.1z
	 M113.6,149.4c0,0,0,0.1,0.3,0.3l15.9,10.6c1.1,0.6,2.4,0.9,3.7,1l11.6,0.3c0.8,0,1-0.1,1.1-0.1l0,0c0,0,0-0.1-0.3-0.3l0,0
	l-15.9-10.7c-1.1-0.6-2.4-0.9-3.7-1l-11.5-0.3C113.9,149.2,113.6,149.4,113.6,149.4L113.6,149.4z"/>
<polygon class="st1" points="132,159.3 120.1,151.4 119.6,151.4 131.5,159.3 "/>
<polygon class="st1" points="133.6,159.4 121.7,151.4 121.2,151.4 133.1,159.4 "/>
<polygon class="st1" points="135.1,159.4 123.2,151.4 122.7,151.4 134.6,159.4 "/>
<polygon class="st1" points="135.5,157.2 130.1,153.6 129.7,153.6 135,157.1 "/>
<polygon class="st1" points="136.9,157.2 131.6,153.6 131.1,153.6 136.5,157.2 "/>
<path class="st0" d="M120.6,144.4l14.5,4.8c1.3,0.7,2.6,1.5,3.7,2.5l11.7,10c1.3,1.1,1.8,1.8,1,1.6l-14.5-4.8
	c-1.4-0.6-2.6-1.5-3.7-2.5l-11.7-10C120.3,144.9,119.9,144.2,120.6,144.4z"/>
<path d="M151.8,163.6c-0.1,0-0.3,0-0.3-0.1l-14.5-4.8c-1.4-0.7-2.7-1.5-3.8-2.5l-11.7-10c-1.7-1.5-1.5-1.8-1.4-1.9
	c0.1-0.2,0.3-0.2,0.6-0.1l14.5,4.8c1.4,0.7,2.7,1.5,3.8,2.5l11.7,10c1.7,1.4,1.5,1.8,1.4,1.9C152.1,163.6,151.9,163.6,151.8,163.6z
	 M120.7,144.7c0.2,0.2,0.5,0.6,1.1,1.1l11.7,10c1.1,1,2.3,1.8,3.7,2.4l14.4,4.8c-0.2-0.2-0.5-0.6-1.1-1.1l-11.7-10
	c-1.1-1-2.3-1.8-3.7-2.4L120.7,144.7z"/>
<polygon class="st1" points="134.5,155.3 145.4,158.9 145.9,159.4 135,155.8 "/>
<polygon class="st1" points="132.9,154 143.8,157.6 144.3,158 133.4,154.4 "/>
<polygon class="st1" points="131.4,152.7 142.2,156.3 142.8,156.7 131.9,153.1 "/>
<polygon class="st1" points="130.6,150.4 135.5,152 136,152.4 131.1,150.8 "/>
<polygon class="st1" points="129.1,149.1 134,150.7 134.5,151.1 129.6,149.5 "/>
<path class="st0" d="M103,151.5l18.9,1.1c1.4,0.2,2.8,0.5,4.1,1.1l11.5,4.8c1.3,0.5,1.6,0.9,0.6,0.9l-18.9-1.1
	c-1.4-0.2-2.8-0.5-4.1-1.1l-11.5-4.8C102.3,151.8,102,151.4,103,151.5z"/>
<path d="M138.3,159.7c-0.1,0-0.2,0-0.2,0l-18.9-1.1c-1.4-0.2-2.8-0.5-4.2-1.1l-11.5-4.8c-1.3-0.5-1.4-0.8-1.3-1.1
	c0.1-0.4,0.6-0.3,0.9-0.3l18.9,1.1c1.4,0.2,2.8,0.5,4.2,1.1l11.5,4.8c1.3,0.5,1.4,0.8,1.3,1.1C138.9,159.6,138.5,159.7,138.3,159.7z
	 M103,151.8c0.2,0.1,0.4,0.2,0.7,0.4l11.5,4.8c1.3,0.5,2.6,0.9,4,1.1l18.9,1.1c0,0,0,0,0,0c-0.2-0.1-0.4-0.2-0.7-0.4l-11.5-4.8
	c-1.3-0.5-2.6-0.9-4-1.1L103,151.8C103,151.8,103,151.8,103,151.8z"/>
<polygon class="st1" points="117.2,156.6 131.4,157.4 131.9,157.6 117.7,156.8 "/>
<polygon class="st1" points="115.7,156 129.9,156.8 130.4,157 116.2,156.2 "/>
<polygon class="st1" points="114.1,155.3 128.3,156.1 128.8,156.3 114.6,155.5 "/>
<polygon class="st1" points="114.5,153.9 120.8,154.3 121.3,154.5 114.9,154.1 "/>
<polygon class="st1" points="113,153.3 119.3,153.7 119.8,153.9 113.5,153.5 "/>
<path class="st0" d="M94.7,146.8l17.6-0.6c1.6,0.2,3.2,0.6,4.6,1.4l14.6,7c1.6,0.8,2.2,1.4,1.3,1.5l-17.6,0.6
	c-1.6-0.2-3.1-0.6-4.6-1.4l-14.6-7C94.4,147.5,93.8,146.8,94.7,146.8z"/>
<path d="M115.2,156.9c-1.7-0.2-3.2-0.6-4.7-1.4l-14.6-7c-2-1-1.9-1.4-1.9-1.6c0.1-0.2,0.3-0.4,0.7-0.4l17.6-0.6
	c1.7,0.2,3.3,0.7,4.7,1.4l14.6,7c2,1,1.9,1.4,1.9,1.6c-0.1,0.2-0.3,0.4-0.7,0.4L115.2,156.9z M94.6,147.1c0.2,0.2,0.6,0.5,1.5,0.9
	l14.6,7c1.4,0.7,2.9,1.2,4.5,1.3l17.6-0.6c0,0,0.1,0,0.1,0c-0.2-0.2-0.6-0.5-1.5-0.9l-14.6-7c-1.4-0.7-2.9-1.2-4.5-1.3L94.6,147.1
	C94.7,147.1,94.7,147.1,94.6,147.1z"/>
<polygon class="st1" points="111.9,153.9 125.1,153.5 125.8,153.8 112.5,154.2 "/>
<polygon class="st1" points="110,153 123.2,152.6 123.8,152.8 110.6,153.3 "/>
<polygon class="st1" points="108,152 121.2,151.6 121.9,151.9 108.7,152.3 "/>
<polygon class="st1" points="107.1,149.6 112.9,149.4 113.6,149.7 107.7,149.9 "/>
<polygon class="st1" points="105.2,148.7 111.1,148.5 111.7,148.8 105.8,149 "/>
<path class="st0" d="M85,147.9l16,0.1c1.7,0.2,3.4,0.7,5,1.4l17.3,6.7c1.9,0.7,2.9,1.4,2,1.4l-16-0.1c-1.7-0.2-3.4-0.7-5-1.4
	L87,149.3C85.1,148.5,84.2,147.9,85,147.9z"/>
<path d="M125.3,157.6l-16,0c-1.8-0.2-3.5-0.7-5.1-1.4l-17.3-6.7c-2.6-1-2.5-1.3-2.5-1.5c0.1-0.3,0.4-0.3,0.5-0.3h0l16,0
	c1.8,0.2,3.5,0.7,5.1,1.4l17.3,6.7c2.6,1,2.5,1.3,2.5,1.5C125.8,157.6,125.4,157.6,125.3,157.6z M85.1,148.2
	c0.3,0.2,0.9,0.5,1.9,0.9l17.3,6.7c1.6,0.7,3.2,1.1,4.9,1.3l15.8,0c-0.3-0.2-0.9-0.5-1.9-0.9l-17.3-6.7c-1.6-0.7-3.2-1.1-4.9-1.3
	L85.1,148.2z"/>
<polygon class="st1" points="104.8,154.8 116.8,154.8 117.5,155.1 105.5,155.1 "/>
<polygon class="st1" points="102.5,153.9 114.5,153.9 115.2,154.2 103.2,154.2 "/>
<polygon class="st1" points="100.2,153 112.2,153.1 112.9,153.3 100.9,153.3 "/>
<polygon class="st1" points="97.9,150.8 103.3,150.8 104,151.1 98.6,151.1 "/>
<polygon class="st1" points="95.7,149.9 101.1,150 101.8,150.2 96.4,150.2 "/>
<path class="st0" d="M66.6,149.2l-22.4-0.1c-1.3,0-2.6,0.3-3.8,0.9l-8.6,4.6c-1,0.5-0.8,0.9,0.3,0.9l22.4,0.1c1.3,0,2.6-0.3,3.8-0.9
	l8.6-4.6C67.9,149.7,67.7,149.3,66.6,149.2z"/>
<path d="M54.5,155.9l-22.4-0.1c-0.7,0-1.1-0.2-1.2-0.5c-0.1-0.3,0.2-0.6,0.8-0.9l8.6-4.6c1.2-0.6,2.6-0.9,3.9-0.9l22.4,0.1
	c0.7,0,1.1,0.2,1.2,0.5c0.1,0.5-0.5,0.8-0.8,0.9l-8.6,4.6C57.2,155.6,55.9,155.9,54.5,155.9z M31.4,155.2c0,0,0.2,0.1,0.7,0.1
	l22.4,0.1c1.3,0,2.5-0.3,3.7-0.9l8.6-4.6c0.4-0.2,0.5-0.3,0.5-0.4c0,0-0.2-0.1-0.7-0.1l-22.4-0.1c-1.3,0-2.5,0.3-3.7,0.9l-8.6,4.6
	C31.6,155,31.5,155.1,31.4,155.2C31.4,155.2,31.4,155.2,31.4,155.2z"/>
<polygon class="st1" points="55,153.9 38.2,153.8 37.8,154 54.6,154.1 "/>
<polygon class="st1" points="56.1,153.3 39.3,153.2 39,153.4 55.7,153.5 "/>
<polygon class="st1" points="57.2,152.7 40.5,152.6 40.1,152.8 56.9,152.9 "/>
<polygon class="st1" points="55.2,151.2 47.7,151.1 47.3,151.3 54.8,151.3 "/>
<polygon class="st1" points="56.3,150.6 48.8,150.5 48.4,150.7 55.9,150.8 "/>
<path class="st0" d="M50.7,148.4l21.6-5.8c1.3-0.3,2.6-0.3,3.9,0l9.4,2.8c1,0.3,1,0.8-0.1,1.1L64,152.4c-1.3,0.3-2.6,0.3-3.9,0
	l-9.4-2.8C49.6,149.2,49.6,148.7,50.7,148.4z"/>
<path d="M62,152.9c-0.7,0-1.4-0.1-2-0.2l-9.5-2.8c-0.6-0.2-1-0.5-1-0.8c0-0.4,0.4-0.6,1-0.8l0,0l21.6-5.8c1.3-0.3,2.7-0.3,4,0
	l9.5,2.8c0.8,0.2,0.9,0.6,0.9,0.8c0,0.4-0.3,0.6-1,0.8l-21.6,5.9C63.4,152.8,62.7,152.9,62,152.9z M50.8,148.7
	c-0.5,0.1-0.6,0.3-0.6,0.3c0,0,0.1,0.2,0.6,0.3l9.4,2.8c1.2,0.3,2.5,0.3,3.8,0l21.6-5.8c0.5-0.1,0.6-0.3,0.6-0.3
	c0,0-0.1-0.1-0.5-0.3l-9.4-2.8c-1.2-0.3-2.5-0.3-3.8,0L50.8,148.7z"/>
<polygon class="st1" points="63.1,150.6 79.3,146.2 79.7,146.3 63.5,150.7 "/>
<polygon class="st1" points="61.9,150.2 78.1,145.9 78.5,146 62.3,150.3 "/>
<polygon class="st1" points="60.6,149.8 76.8,145.5 77.2,145.6 61,150 "/>
<polygon class="st1" points="62.2,147.6 69.4,145.7 69.8,145.8 62.6,147.7 "/>
<polygon class="st1" points="61,147.3 68.2,145.3 68.6,145.4 61.4,147.4 "/>
<path class="st0" d="M33.8,146.8l22-3.9c1.3-0.2,2.6,0,3.9,0.4l9.2,3.6c1,0.4,1,0.9-0.2,1.1l-22,3.9c-1.3,0.2-2.6,0.1-3.9-0.4
	l-9.2-3.6C32.6,147.5,32.7,147,33.8,146.8z"/>
<path d="M45.6,152.2c-1,0-1.9-0.2-2.8-0.5l-9.2-3.6c-0.6-0.2-0.9-0.5-0.9-0.9c0-0.3,0.4-0.6,1.1-0.7h0l22-3.9c1.4-0.2,2.7,0,4,0.4
	l9.2,3.6c0.6,0.3,0.9,0.6,0.9,0.9c0,0.4-0.4,0.6-1.1,0.7l-22,3.8C46.4,152.2,46,152.2,45.6,152.2z M33.2,147.3c0,0,0.1,0.1,0.6,0.3
	l9.2,3.6c1.2,0.4,2.5,0.5,3.8,0.4l22-3.8c0.5-0.1,0.6-0.2,0.7-0.2c0,0-0.1-0.1-0.6-0.3l-9.2-3.6c-1.2-0.4-2.5-0.5-3.8-0.4l-22,3.9
	C33.4,147.2,33.2,147.3,33.2,147.3z"/>
<polygon class="st1" points="46,150 62.5,147.1 62.9,147.3 46.4,150.2 "/>
<polygon class="st1" points="44.8,149.6 61.3,146.7 61.7,146.8 45.2,149.7 "/>
<polygon class="st1" points="43.6,149.1 60.1,146.2 60.5,146.3 44,149.2 "/>
<polygon class="st1" points="45.4,147 52.7,145.7 53.1,145.9 45.8,147.2 "/>
<polygon class="st1" points="44.2,146.6 51.5,145.3 51.9,145.4 44.6,146.7 "/>
<path class="st0" d="M55.5,139.7l22.3,0.5c1.3,0.1,2.6,0.5,3.8,1.1l8.3,5.4c0.9,0.6,0.8,1.1-0.4,1l-22.3-0.5
	c-1.3-0.1-2.6-0.5-3.7-1.1l-8.3-5.4C54.2,140.1,54.4,139.7,55.5,139.7z"/>
<path d="M89.7,148c-0.1,0-0.2,0-0.2,0l-22.3-0.5c-1.4-0.1-2.7-0.5-3.9-1.2l-8.3-5.4c-0.6-0.3-0.8-0.7-0.7-1c0.1-0.3,0.5-0.5,1.2-0.5
	l22.3,0.5c1.4,0.1,2.7,0.5,3.9,1.2l8.3,5.4c0.6,0.4,0.8,0.7,0.7,1.1C90.6,147.9,90.3,148,89.7,148z M54.8,140.1c0,0,0.1,0.2,0.5,0.4
	l8.3,5.4c1.1,0.6,2.3,1,3.6,1.1l22.3,0.5c0.5,0,0.7-0.1,0.7-0.1c0,0-0.1-0.2-0.5-0.4l-8.3-5.4c-1.1-0.6-2.3-1-3.6-1.1L55.5,140
	C55,140,54.8,140.1,54.8,140.1z"/>
<polygon class="st1" points="66.8,145.3 83.6,145.7 83.9,145.9 67.2,145.5 "/>
<polygon class="st1" points="65.7,144.6 82.4,145 82.8,145.2 66.1,144.8 "/>
<polygon class="st1" points="64.6,143.9 81.3,144.3 81.7,144.5 65,144.1 "/>
<polygon class="st1" points="66.8,142.2 74.2,142.4 74.6,142.6 67.1,142.4 "/>
<polygon class="st1" points="65.7,141.5 73.2,141.7 73.5,141.9 66.1,141.7 "/>
<path class="st0" d="M103.9,143.1l-22.4-0.8c-1.3,0-2.6,0.3-3.8,0.9l-8.6,4.9c-1,0.5-0.8,1,0.3,1.1l22.3,0.8c1.3,0,2.6-0.3,3.8-0.9
	l8.6-4.9C105.1,143.6,105,143.1,103.9,143.1z"/>
<path d="M91.7,150.1l-22.4-0.8c-0.7,0-1.1-0.2-1.2-0.6c-0.1-0.3,0.2-0.7,0.8-1l8.6-4.9c1.2-0.6,2.6-0.9,3.9-0.9l22.4,0.8
	c0.7,0,1.1,0.2,1.2,0.6c0.1,0.3-0.2,0.7-0.8,1l-8.6,4.8C94.5,149.8,93.1,150.1,91.7,150.1z M68.7,148.6c0,0,0.2,0.1,0.7,0.1
	l22.3,0.8c1.3,0,2.5-0.3,3.7-0.9l8.6-4.8c0.5-0.3,0.5-0.4,0.5-0.4c0,0-0.2-0.1-0.7-0.1l-22.4-0.8c-1.3,0-2.5,0.3-3.7,0.9l-8.6,4.9
	C68.8,148.5,68.7,148.6,68.7,148.6C68.7,148.6,68.7,148.6,68.7,148.6z"/>
<polygon class="st1" points="92.2,147.9 75.4,147.3 75.1,147.5 91.8,148.1 "/>
<polygon class="st1" points="93.3,147.3 76.6,146.7 76.2,146.9 93,147.5 "/>
<polygon class="st1" points="94.5,146.6 77.7,146 77.4,146.2 94.1,146.9 "/>
<polygon class="st1" points="92.4,144.9 85,144.6 84.6,144.8 92.1,145.1 "/>
<polygon class="st1" points="93.5,144.2 86.1,144 85.7,144.2 93.2,144.4 "/>
<path class="st0" d="M56.2,146.3L40,149.7c-1.1,0.4-2,1.2-2.5,2.3l-5.1,9.5c-0.6,1.1-0.4,1.8,0.5,1.6l16.2-3.5
	c1.1-0.4,2-1.2,2.5-2.2l5.1-9.5C57.3,146.8,57,146.1,56.2,146.3z"/>
<path d="M32.7,163.3c-0.3,0-0.5-0.2-0.6-0.3c-0.2-0.3-0.2-0.9,0.2-1.6l5.1-9.5c0.5-1.1,1.4-1.9,2.6-2.3l16.3-3.5
	c0.4-0.1,0.6,0,0.8,0.2c0.2,0.3,0.2,0.9-0.2,1.6l-5.1,9.5c-0.6,1.1-1.5,1.9-2.6,2.3l-16.2,3.5C32.8,163.3,32.7,163.3,32.7,163.3z
	 M56.3,146.4L40,149.9c-1,0.4-1.9,1.2-2.4,2.2l-5.1,9.5c-0.4,0.7-0.4,1.1-0.2,1.3c0.1,0.2,0.3,0.1,0.5,0.1l16.2-3.5
	c1-0.4,1.9-1.2,2.4-2.2l5.1-9.5c0.4-0.7,0.4-1.1,0.2-1.3C56.7,146.4,56.4,146.4,56.3,146.4z"/>
<polygon class="st1" points="49,156.5 36.8,159.1 36.6,159.5 48.8,156.9 "/>
<polygon class="st1" points="49.7,155.2 37.5,157.8 37.3,158.2 49.4,155.6 "/>
<polygon class="st1" points="50.3,154 38.2,156.6 38,157 50.1,154.4 "/>
<polygon class="st1" points="48.5,151.6 43,152.7 42.8,153.1 48.2,151.9 "/>
<polygon class="st1" points="49.1,150.3 43.7,151.5 43.5,151.9 48.9,150.7 "/>
<path class="st0" d="M101.7,149.8l-18.2-5.5c-1.3-0.3-2.7-0.2-4,0.1l-11.1,3.1c-1.2,0.4-1.5,0.9-0.6,1.1l18.3,5.5
	c1.3,0.3,2.7,0.2,3.9-0.1l11.1-3.1C102.3,150.6,102.6,150.1,101.7,149.8z"/>
<path d="M87.7,154.6c-0.6,0-1.2-0.1-1.8-0.2l-18.3-5.5c-0.5-0.1-0.7-0.4-0.7-0.7c0-0.4,0.4-0.7,1.3-0.9l11.1-3.1
	c1.3-0.4,2.8-0.4,4.1-0.1l18.3,5.5c0.6,0.2,0.7,0.5,0.7,0.7c0,0.4-0.4,0.7-1.3,1L90,154.3C89.3,154.5,88.5,154.6,87.7,154.6z
	 M67.4,148.2c0,0,0,0.1,0.4,0.2l18.3,5.5c1.2,0.3,2.6,0.2,3.8-0.1l11.1-3.1c0.8-0.2,1-0.5,1-0.5c0,0,0-0.1-0.4-0.2l-18.2-5.5
	c-1.3-0.3-2.6-0.2-3.9,0.1l-11.1,3.1C67.6,148,67.4,148.2,67.4,148.2L67.4,148.2z"/>
<polygon class="st1" points="87.9,152.3 74.2,148.2 73.8,148.3 87.4,152.5 "/>
<polygon class="st1" points="89.4,151.9 75.7,147.8 75.2,147.9 88.9,152.1 "/>
<polygon class="st1" points="90.9,151.5 77.2,147.4 76.7,147.5 90.4,151.6 "/>
<polygon class="st1" points="90.6,149.2 84.5,147.4 84,147.5 90.1,149.4 "/>
<polygon class="st1" points="92,148.9 85.9,147 85.4,147.1 91.5,149 "/>
<path class="st0" d="M74.6,140.8l17.4-0.3c1.6,0.2,3.3,0.5,4.8,1.1l15.8,5.6c1.8,0.6,2.5,1.1,1.6,1.2l-17.4,0.3
	c-1.6-0.2-3.3-0.5-4.8-1.1L76.2,142C74.4,141.4,73.7,140.9,74.6,140.8z"/>
<path d="M96.8,149c-1.7-0.2-3.3-0.5-4.9-1.1l-15.8-5.6c-2.3-0.8-2.2-1.2-2.2-1.4c0.1-0.3,0.5-0.3,0.6-0.4h0l17.4-0.3
	c1.7,0.2,3.3,0.5,4.9,1.1l15.8,5.6c2.3,0.8,2.2,1.2,2.2,1.4c-0.1,0.3-0.5,0.3-0.6,0.4L96.8,149z M74.8,141.1
	c0.3,0.2,0.7,0.4,1.5,0.6l15.8,5.6c1.5,0.6,3.1,0.9,4.7,1.1l17.2-0.3c-0.3-0.2-0.7-0.4-1.5-0.6l-15.8-5.6c-1.5-0.6-3.1-0.9-4.7-1.1
	L74.8,141.1z"/>
<polygon class="st1" points="93,146.6 106.1,146.4 106.7,146.6 93.7,146.8 "/>
<polygon class="st1" points="90.9,145.8 104,145.6 104.7,145.9 91.6,146.1 "/>
<polygon class="st1" points="88.8,145.1 101.9,144.9 102.5,145.1 89.5,145.3 "/>
<polygon class="st1" points="87.4,143.1 93.2,143 93.8,143.3 88,143.4 "/>
<polygon class="st1" points="85.3,142.4 91.2,142.3 91.8,142.6 86,142.6 "/>
<path class="st0" d="M57.9,153.3l18.4-4.5c1.4-0.2,2.8-0.3,4.2-0.1l12.4,1.3c1.4,0.1,1.8,0.4,0.8,0.7l-18.4,4.5
	c-1.4,0.2-2.8,0.3-4.2,0.2L58.7,154C57.3,153.8,56.9,153.5,57.9,153.3z"/>
<path d="M72.6,155.6c-0.5,0-1,0-1.6-0.1l-12.4-1.3c-1.4-0.2-1.6-0.4-1.6-0.7c0-0.4,0.5-0.5,0.7-0.6l0,0l18.4-4.5
	c1.4-0.2,2.9-0.3,4.3-0.2l12.4,1.3c1.4,0.1,1.6,0.4,1.6,0.6c0,0.4-0.5,0.5-0.7,0.6l-18.4,4.5C74.4,155.5,73.5,155.6,72.6,155.6z
	 M57.9,153.6c0.2,0,0.4,0.1,0.8,0.1l12.4,1.3c1.4,0.1,2.8,0.1,4.1-0.2l18.4-4.5c0,0,0,0,0,0c-0.2,0-0.4-0.1-0.8-0.1l-12.4-1.3
	c-1.4-0.1-2.8-0.1-4.1,0.1L57.9,153.6C57.9,153.6,57.9,153.6,57.9,153.6z"/>
<polygon class="st1" points="72.9,154.1 86.7,150.7 87.3,150.8 73.4,154.1 "/>
<polygon class="st1" points="71.3,153.9 85.1,150.5 85.6,150.6 71.8,153.9 "/>
<polygon class="st1" points="69.6,153.7 83.4,150.4 84,150.4 70.2,153.8 "/>
<polygon class="st1" points="69.6,152.3 75.7,150.8 76.2,150.9 70.1,152.4 "/>
<polygon class="st1" points="68,152.1 74.1,150.6 74.7,150.7 68.5,152.2 "/>
<path class="st0" d="M48.6,151.2l16.7-5.7c1.6-0.3,3.2-0.3,4.8,0l16,2.4c1.8,0.3,2.5,0.7,1.7,1L71,154.6c-1.6,0.3-3.2,0.3-4.8,0
	l-16-2.4C48.5,152,47.7,151.5,48.6,151.2z"/>
<path d="M68.6,155.1c-0.8,0-1.6-0.1-2.4-0.2l-16-2.4c-1.4-0.2-2.2-0.5-2.2-0.9c0-0.2,0.1-0.4,0.5-0.6h0l16.7-5.7
	c1.7-0.3,3.3-0.3,4.9,0l16,2.4c2.2,0.3,2.3,0.8,2.3,1c0,0.2-0.2,0.4-0.5,0.6l-16.8,5.7C70.3,155,69.4,155.1,68.6,155.1z M48.6,151.5
	c0.2,0.1,0.7,0.3,1.7,0.4l16,2.4c1.6,0.3,3.1,0.3,4.7,0l16.7-5.7c0,0,0,0,0.1,0c-0.2-0.1-0.7-0.3-1.7-0.4l-16-2.4
	c-1.6-0.3-3.1-0.3-4.7,0L48.6,151.5C48.6,151.5,48.6,151.5,48.6,151.5z"/>
<polygon class="st1" points="67.1,153 79.6,148.7 80.3,148.8 67.8,153.1 "/>
<polygon class="st1" points="65,152.7 77.5,148.4 78.2,148.5 65.7,152.8 "/>
<polygon class="st1" points="62.8,152.4 75.4,148.1 76.1,148.2 63.5,152.5 "/>
<polygon class="st1" points="61.2,150.3 66.8,148.4 67.4,148.5 61.9,150.4 "/>
<polygon class="st1" points="59.2,150 64.8,148.1 65.4,148.2 59.8,150.1 "/>
<path class="st0" d="M39.6,155.2l15.3-4.6c1.7-0.3,3.4-0.3,5.2-0.2l18.5,1.3c2.1,0.1,3.1,0.5,2.3,0.7L65.6,157
	c-1.7,0.3-3.4,0.3-5.2,0.2l-18.5-1.3C39.9,155.7,38.8,155.4,39.6,155.2z"/>
<path d="M62.4,157.5c-0.7,0-1.3,0-2-0.1l-18.5-1.3c-2.8-0.2-2.8-0.5-2.8-0.7c0-0.3,0.3-0.4,0.4-0.4l15.3-4.6
	c1.8-0.3,3.5-0.3,5.3-0.2l18.5,1.3c2.8,0.2,2.8,0.6,2.8,0.7c0,0.3-0.3,0.4-0.4,0.4l-15.3,4.6C64.6,157.4,63.5,157.5,62.4,157.5z
	 M39.8,155.4c0.3,0.1,1,0.2,2.1,0.3l18.5,1.3c1.7,0.2,3.4,0.1,5.1-0.2l15.1-4.5c-0.3-0.1-1-0.2-2.1-0.3L60,150.6
	c-1.7-0.2-3.4-0.1-5.1,0.2L39.8,155.4z M81,152.1L81,152.1L81,152.1z"/>
<polygon class="st1" points="60.5,155.9 72,152.5 72.8,152.5 61.3,156 "/>
<polygon class="st1" points="58.1,155.8 69.6,152.3 70.3,152.4 58.9,155.8 "/>
<polygon class="st1" points="55.6,155.6 67.1,152.1 67.9,152.2 56.4,155.7 "/>
<polygon class="st1" points="52.8,154.1 57.9,152.6 58.7,152.6 53.6,154.2 "/>
<polygon class="st1" points="50.5,154 55.6,152.4 56.3,152.5 51.2,154 "/>
</svg>
